<svg width="1728" height="298" viewBox="0 0 1728 298" fill="none" xmlns="http://www.w3.org/2000/svg">
<path d="M-176.332 245.746C-137.286 234.605 -106.361 230.751 -65.0783 229.004C-26.8061 228.215 17.2452 231.112 62.6775 236.256C126.146 243.378 191.416 252.119 247.439 258.966C269.587 261.667 291.898 264.355 314.091 266.946C365.429 272.936 417.097 279.025 468.336 284.224C472.071 284.602 474.442 284.149 476.154 284.32C492.324 285.951 519.266 289.195 535.359 290.468C569.132 293.377 628.271 297.097 659.612 297.111C672.87 297.219 686.534 297.278 691.738 295.702C696.586 295.663 699.206 297.129 700.474 297.214C700.489 297.212 700.503 297.211 700.517 297.209C704.59 297.479 714.912 296.428 717.194 296.467C717.536 296.473 715.436 297.548 720.975 297.181C721.469 297.147 721.007 296.441 725.676 296.376C726.935 296.376 742.42 297.196 746.889 297.119C761.773 297.041 797.068 294.51 814.711 293.12C817.398 292.922 818.98 293.214 821.828 292.999C823.3 292.888 825.472 292.267 825.925 292.232C827.906 292.096 836.795 293.353 833.318 289.659C842.429 289.115 839.883 290.646 840.165 291.482C850.107 290.69 854.467 288.35 857.26 290.052C905.476 284.832 953.633 277.08 1000.69 267.279C1000.76 267.579 1000.84 267.878 1000.92 268.178C1014.92 264.059 1019.7 265.113 1027.29 261.63C1032.25 260.937 1037.24 260.212 1042.25 259.457C1166.82 229.476 1286.2 188.777 1401.96 140.643C1402.6 140.378 1403.24 140.114 1403.87 139.85C1408.87 137.777 1409.92 136.756 1418.04 133.42C1426.99 129.742 1439.56 125.294 1450.75 120.814C1460.66 116.835 1476.48 110.13 1487.54 105.818C1490.08 104.829 1492.02 104.43 1492.3 104.32C1493.97 103.672 1493.86 103.174 1495.47 102.549C1497.39 101.803 1499.84 101.27 1502.03 100.42C1510.64 97.0884 1520.45 93.6249 1521.47 93.2398C1526.75 91.258 1527.71 90.407 1528.15 90.2432C1533.93 88.0872 1531.9 89.2803 1533.33 88.7364C1540.91 85.8708 1544.85 83.3267 1556.33 80.4142C1555.91 80.1506 1555.49 79.8869 1555.06 79.6231C1563.17 76.5996 1558.11 79.4286 1559.84 79.0284C1560.62 78.8112 1577.74 72.8851 1578.94 72.4892C1583.41 70.9348 1583.35 70.4329 1583.74 70.2974C1584.49 70.0247 1596.48 66.718 1602.5 64.393C1609.5 61.6706 1600.77 63.3533 1602.49 62.6194C1602.79 62.4853 1610.28 60.2782 1611.16 59.6925C1612.16 59.0365 1605.75 61.004 1605.8 60.8467C1605.87 60.7107 1616.24 56.8441 1614.06 57.0246C1612.37 57.0282 1598 62.0629 1594.69 62.8974C1594.15 63.0272 1594.96 62.1638 1594.49 62.2892C1591.84 62.9376 1560.14 73.3335 1558.13 74.1934C1559.98 73.8547 1561.83 73.5211 1563.66 73.1925C1561.36 73.9985 1559.03 74.8153 1556.69 75.6432C1560.11 74.7113 1563.49 73.7997 1566.83 72.9083C1562.84 76.6075 1546.83 79.7037 1545.99 78.7875C1545.35 78.4401 1554.22 73.965 1545.41 76.1515C1546.51 75.6275 1547.91 75.0076 1549.15 74.4411C1551.94 73.7248 1554.7 73.0216 1557.44 72.331C1555.71 73.06 1553.98 73.7956 1552.23 74.538C1552.94 74.4616 1553.66 74.3859 1554.37 74.3108C1559.47 72.845 1564.48 71.4255 1569.42 70.0513C1571.87 69.1174 1571.2 68.857 1572.87 68.2126C1593.67 60.292 1579.69 66.2747 1594.26 61.4416C1596.27 60.5595 1598.27 59.688 1600.25 58.827C1599.83 59.9935 1606.06 57.4099 1613.65 55.5863C1612.66 55.5518 1611.67 55.5186 1610.68 55.4866C1621.13 52.4362 1643.82 44.561 1638.08 47.9153C1640.61 47.0663 1643.12 46.2354 1645.6 45.4221C1647.8 45.1165 1649.98 44.8214 1652.14 44.5368C1655.04 43.7432 1657.75 43.0077 1660.72 42.2244C1660.7 42.0795 1660.67 41.9345 1660.65 41.7896C1658.23 42.3993 1656.09 42.9489 1653.78 43.5501C1655.38 42.6703 1656.96 41.8005 1658.54 40.9406C1660.18 40.5997 1662.21 40.1731 1664.01 39.8034C1656.42 42.1231 1666.77 40.2515 1669.27 40.2527C1675.65 38.9239 1679.35 37.3128 1681.39 36.8145C1682.41 36.5508 1693.69 35.4123 1689.07 34.9582C1695.05 33.839 1701.48 32.7083 1707.34 31.7693C1709.63 31.2263 1711.88 30.703 1714.1 30.199C1709.12 30.4187 1723.06 27.1859 1712.64 28.7374C1704.74 29.9514 1702.77 30.987 1698.88 31.7539C1695.36 32.4578 1693.23 32.4709 1689.45 33.2553C1664.88 38.4362 1644.28 43.9113 1620.39 50.9991C1615.91 52.3393 1611.67 53.3616 1608.57 54.3227C1605.06 55.4141 1609.66 54.6339 1605.11 55.8573C1600.32 57.1547 1599.11 57.0347 1597.84 57.4141C1597.05 57.6518 1594.66 58.8352 1592.31 59.5672C1582.65 62.5662 1569.84 66.3121 1568.34 66.8092C1567.11 67.1615 1540.08 76.7076 1539.49 77.0513C1538.86 77.3126 1540.79 78.4128 1534.59 78.6812C1532.84 79.2591 1531.07 79.8424 1529.3 80.4311C1529.7 80.6466 1530.11 80.862 1530.51 81.0773C1519.58 83.5845 1523.47 82.9574 1513.12 86.5679C1488.67 95.066 1452.38 109.217 1427.02 119.229C1421.15 121.536 1418.73 122.025 1411.66 124.836C1408.34 126.155 1402.42 128.907 1397.7 130.939C1393.12 132.912 1389.77 134.118 1391.26 132.517C1377.25 139.933 1373.84 138.231 1367.29 142.728C1366.32 142.837 1365.34 142.945 1364.37 143.052C1356.98 147.153 1354.19 147.2 1345.68 150.347C1341.98 151.714 1346.84 151.126 1338.68 152.835C1337.26 153.487 1335.83 154.138 1334.42 154.786C1334.86 154.926 1335.31 155.064 1335.76 155.203C1327.2 158.22 1326.74 158.545 1327.28 157.174C1323.28 158.9 1319.3 160.61 1315.34 162.305C1314.71 162.157 1314.07 162.009 1313.43 161.86C1314.89 160.856 1365.37 142.233 1397.1 129.572C1408.24 125.182 1416.71 121.932 1419.99 120.707C1434.38 114.104 1464.18 103.557 1476.38 98.8138C1481.14 96.9499 1482.98 95.4823 1489.78 92.8728C1496.41 90.3242 1505.6 87.6676 1509.52 86.2822C1522.35 81.5048 1581.24 61.468 1540.44 74.4069C1541.44 73.7093 1542.44 73.0147 1543.43 72.3232C1560.28 67.8309 1554.22 69.1246 1567.59 64.611C1573.24 62.7026 1586.39 59.2885 1585.18 58.1544C1575.09 61.0247 1564.2 65.0505 1554.87 68.1377C1554 68.4188 1542.45 71.5686 1537.47 73.4876C1532.68 75.317 1536.6 75.4987 1525.34 77.6799C1517.94 81.9813 1512.67 82.3159 1510.45 82.9356C1506.61 84.0203 1506.48 84.9215 1502.73 86.377C1498.51 88.0167 1495.92 88.3912 1495.34 88.5957C1490.29 90.3792 1462.02 100.875 1460.67 101.792C1461.89 101.488 1463.1 101.185 1464.31 100.884C1456.92 103.951 1458.14 102.572 1456.12 103.231C1454.64 103.799 1453.16 104.371 1451.67 104.946C1452.33 104.885 1452.99 104.825 1453.64 104.764C1444.69 108.169 1451.29 104.945 1439.33 109.601C1431.77 112.548 1424.04 116.355 1423.27 116.608C1423.04 116.682 1425.3 115.282 1422.11 116.473C1416.84 118.439 1407.63 122.132 1406.84 123.153C1404.18 124.123 1404.14 123.45 1403.79 123.576C1403.28 123.76 1400.1 124.997 1395.83 126.675C1387.21 130.078 1374.44 135.033 1371.33 136.226C1358.33 141.243 1344.97 146.575 1330.47 151.935C1329.02 152.472 1330.11 152.522 1328.65 153.058C1326.29 153.933 1314.13 157.75 1312.36 158.346C1307.88 159.883 1296.46 164.346 1294.59 164.804C1294.33 164.87 1297.88 162.949 1293.4 164.375C1288.43 165.951 1291.36 165.746 1291.1 165.85C1281.14 169.73 1274.21 171.581 1267.24 173.905C1264.96 174.664 1261.01 176.689 1257.77 177.614C1257.4 177.72 1257.92 176.939 1257.55 177.036C1252.65 178.411 1248.56 180.921 1246.53 181.686C1241.55 183.553 1244.03 181.885 1243.76 181.97C1240.39 183.083 1236.06 184.841 1230.7 186.582C1207.05 194.234 1188.85 199.956 1163.56 207.56C1160.44 208.496 1156.93 210.131 1156.45 210.271C1154.98 210.697 1155.19 209.931 1150.96 211.178C1142.15 213.775 1133.64 216.151 1124.59 218.661C1122.77 219.165 1122.18 219.989 1120.8 220.381C1116.14 221.721 1100.02 224.257 1100.35 226.323C1090.94 226.863 1084.84 230.059 1077.42 231.886C1059.87 236.251 1031.91 242.248 1014.37 246.104C1010.69 246.925 1009.08 247.819 1007.04 248.267C1003.31 249.127 981.677 252.995 980.63 253.242C978.481 253.806 980.243 256.032 968.62 255.927C962.056 256.934 962.963 257.801 961.594 258.097C950.785 260.398 939.967 259.783 942.277 261.543C929.657 262.984 921.58 262.956 916.611 265.665C916.53 264.701 910.48 264.982 903.407 266.293C910.914 266.911 910.308 268.112 927.86 265.213C928.134 265.167 927.499 264.559 927.772 264.513C930.249 264.094 935.506 263.645 939.771 262.928C944.037 262.209 941.584 262.121 943.296 261.855C944.866 261.611 944.928 262.273 947.204 261.911C954.573 260.73 961.249 259.759 965.414 259.035C968.006 258.585 970.804 257.496 972.824 257.129C980.598 255.746 997.456 252.977 1007.54 250.827C1009.58 250.393 1008.58 249.949 1013.06 248.967C1013.58 248.851 1015.64 249.106 1019.62 248.402C1023.6 247.697 1026.6 246.708 1029.17 246.217C1031.32 245.804 1030.56 246.578 1034.96 245.639C1038.89 244.929 1079.46 234.841 1081.79 234.036C1084.98 233.096 1086.31 231.923 1088.31 231.515C1088.66 231.447 1089.46 232.049 1090.68 231.793C1110.3 227.834 1153.21 214.698 1175.22 207.869C1221.13 193.854 1263.58 179.824 1308.93 163.229C1309.78 163.044 1310.63 162.858 1311.48 162.671C1306.91 164.376 1302.35 166.06 1297.82 167.722C1297.91 168.042 1298.01 168.362 1298.1 168.681C1291.99 170.971 1292.52 169.932 1292.52 169.429C1290.35 170.434 1288.13 171.45 1285.83 172.494C1283.36 172.156 1268.02 178.445 1260.1 181.188C1254.93 182.991 1248.66 184.663 1245.98 185.615C1240.31 187.625 1240.72 188.259 1240.27 188.423C1239.64 188.659 1231.07 190.86 1225.19 192.829C1216.48 195.737 1215.9 197.151 1203.77 200.026C1189.17 205.34 1171.48 210.49 1155.12 215.196C1158.51 215.337 1143.73 218.606 1136.86 220.556C1095.84 232.415 1044.93 245.481 1002.73 254.372C997.205 255.544 993.191 257.025 990.126 257.596C988.465 257.906 987.577 257.254 985.302 257.797C984.904 257.892 984.771 258.692 980.527 259.605C970.168 261.913 942.989 265.232 936.584 267.667C899.866 273.213 862.997 277.366 825.877 280.062C824.972 280.458 824.068 280.852 823.164 281.246C816.066 280.202 788.179 282.972 774.638 283.403C750.673 284.353 720.107 284.279 699.169 284.037C694.632 283.994 690.891 284.435 686.566 284.365C684.706 284.334 682.408 283.672 680.477 283.634C658.825 283.236 629.484 282.722 607.731 281.416C558.325 278.51 512.004 274.261 462.414 268.84C413.421 263.462 364.739 257.316 316.152 251.334C231.894 240.901 148.24 230.579 63.8449 222.621C31.4369 219.554 -0.899984 217.43 -33.3498 217.048C-35.569 217.025 -35.4483 217.58 -37.1487 217.566C-46.6904 217.396 -69.8249 217.333 -80.632 218.035C-89.9045 218.51 -103.794 220.472 -106.889 220.114C-75.3464 215.65 -41.5918 215.397 -7.85482 216.278C-5.40347 216.343 -5.20233 215.8 -4.89384 215.801C0.419546 215.827 -3.00432 216.438 4.82565 216.843C7.59391 216.94 31.7664 216.562 28.8365 218.264C32.6897 218.054 49.2151 218.927 64.0539 220.179C73.1237 220.932 81.0372 221.686 84.069 222.077C86.4788 222.388 84.714 222.813 85.191 222.888C87.2604 223.219 88.2734 222.498 90.1308 222.655C95.0967 223.077 107.495 224.982 109.837 225.219C115.437 225.772 132.133 226.792 139.321 227.717C145.928 228.564 144.594 229.325 150.279 230.02C154.796 230.571 149.803 229.269 160.112 230.15C165.233 230.584 182.76 233.076 186.969 233.557C191.24 234.038 195.848 234.002 201.853 234.727C210.449 235.761 228.843 238.21 237.316 239.394C237.826 239.465 238.965 240.338 240.232 240.472C242.896 240.756 242.209 239.762 244.227 239.907C246.378 240.058 280.527 244.25 286.458 244.961C290.521 245.445 293.243 246.323 295.477 246.588C297.23 246.794 297.516 246.06 299.301 246.267C299.854 246.333 304.468 247.559 309.139 248.107C310.582 248.277 313.352 248.54 316.484 248.824C322.863 249.4 331.154 250.116 332.437 250.267C333.712 250.419 332.245 250.788 336.013 251.232C339.446 251.635 341.785 251.209 343.735 251.435C348.259 251.96 353.214 253.167 357.974 253.746C371.827 255.43 371.255 254.48 372.084 254.552C374.401 254.752 375.219 255.656 375.973 255.763C379.161 256.215 386.938 257.297 389.758 257.665C393.274 258.124 394.862 257.549 398.591 257.99C401.417 258.326 407.028 259.737 413.435 260.525C427.842 262.302 444.991 264.406 459.211 265.938C463.439 266.395 464.167 265.778 465.46 265.901C472.238 266.542 475.962 267.711 477.923 267.909C491.876 269.334 516.664 270.577 529.626 271.631C534.868 272.086 557.829 274.632 570.853 275.481C572.341 275.582 570.994 274.944 572.641 275.151C576.582 275.644 576.127 276.702 578.137 276.815C579.109 276.865 581.363 276.411 584.193 276.545C598.89 277.244 608.944 278.288 615.645 278.621C679.99 281.883 745.898 281.641 806.124 277.581C812.767 277.143 821.087 277.187 831.185 275.754C831.469 275.406 831.752 275.058 832.036 274.71C832.419 274.997 832.803 275.285 833.187 275.572C844.781 274.759 849.002 274.774 860.619 273.191C861.62 273.054 864.519 271.278 866.629 272.882C878.074 270.303 871.857 272.33 880.521 271.456C889.109 270.572 897.23 269.138 905.536 267.928C909.973 266.698 890.738 267.722 889.539 267.84C887.556 268.09 885.615 269.232 883.715 269.507C877.995 270.335 872.309 270.244 871.124 271.185C863.598 271.148 872.892 270.564 871.874 269.9C866.952 270.764 862.047 271.602 857.157 272.413C854.44 270.116 827.405 275.941 829.107 273.737C826.962 274.313 824.817 274.884 822.674 275.451C812.911 273.643 807.631 275.8 794.783 277.298C795.688 276.922 796.592 276.544 797.496 276.166C797.218 276.057 785.914 276.143 790.023 277.312C778.385 276.072 779.019 279.085 768.638 277.296C762.49 277.234 766.214 278.407 755.172 278.726C748.629 278.906 740.524 278.412 733.273 278.467C731.601 278.482 730.892 279.238 729.395 279.257C727.894 279.274 727.154 278.548 725.337 278.547C721.585 278.543 716.732 279.08 714.394 279.035C712.298 278.996 709.305 278.353 704.271 278.229C686.718 277.748 691.992 278.683 689.207 278.976C686.204 279.268 684.072 278.014 678.111 278.037C677.512 278.04 679.041 278.837 677.098 278.767C675.531 278.709 674.761 277.866 669.584 277.581C667.53 277.538 635.491 276.222 630.627 275.901C623.158 275.543 606.484 275.333 598.757 274.824C595.779 274.637 592.646 273.755 589.483 273.546C578.998 272.865 562.292 271.668 548.994 270.57C537.101 269.618 515.995 269.159 509.597 267.153C492.969 265.34 488.749 266.04 487.491 265.933C484.075 265.621 482.583 264.69 478.278 264.198C429.324 258.643 366.924 251.278 316.951 245.291C310.267 244.491 303.769 243.707 297.527 242.948C219.74 233.454 142.65 224.41 64.2866 217.463C19.8421 213.552 -24.2801 211.342 -68.23 213.216C-68.5773 212.991 -68.9244 212.766 -69.271 212.542C-54.9416 211.72 -38.0845 211.087 -23.7153 211.175C-4.42376 211.177 23.1209 213.774 37.5746 212.821C31.727 212.254 22.5337 212.478 22.7632 211.498C32.8271 211.973 43.1037 212.583 53.1036 213.278C52.7641 213.733 52.4253 214.187 52.0873 214.641C56.1123 215.008 60.2358 215.365 64.4347 215.732C71.157 216.321 77.8601 216.889 84.4312 217.528C86.2762 217.707 84.9283 218.038 86.5341 218.187C88.3297 218.353 87.1543 217.783 87.4911 217.81C92.0273 218.219 93.3415 218.814 93.8943 218.858C95.3086 218.971 94.2552 218.424 98.3336 218.678C105.895 219.145 111.115 220.859 109.556 218.694C111.969 218.922 114.51 219.163 116.978 219.4C117.566 220.009 118.153 220.619 118.739 221.229C134.176 220.485 140.641 225.133 149.223 222.836C151.907 223.598 154.478 224.353 157.249 225.132C158.879 224.732 160.506 224.331 162.132 223.928C162.384 224.445 162.635 224.963 162.886 225.481C177.948 226.703 193.163 228.965 207.544 230.523C217.463 231.599 219.841 231.671 228.521 232.703C247.772 235.01 228.685 231.795 244.951 232.579C244.026 233.099 243.1 233.619 242.173 234.139C244.847 234.679 247.514 235.221 250.173 235.763C252.108 235.477 254.04 235.19 255.969 234.903C263.908 238.501 269.477 237.012 270.596 237.143C271.513 237.257 274.34 239.202 284.267 239.023C279.9 240.706 291.78 239.936 292.697 240.033C293.586 240.13 304.735 241.964 309.246 242.488C311.104 242.704 314.073 242.929 317.229 243.187C320.108 243.423 323.179 243.691 325.755 244.014C330.488 244.608 329.906 245.288 330.251 245.338C336.054 246.103 332.49 245.088 336.688 245.569C340.882 246.049 344.034 247.071 344.942 247.124C345.399 247.149 343.976 246.277 346.058 246.462C351.67 246.959 361.519 248.766 368.026 249.535C370.306 249.805 373.251 249.568 375.781 249.855C379.66 250.297 381.363 251.289 383.611 251.536C384.392 251.62 389.533 251.023 395.666 251.942C396.828 252.118 399.944 255.06 405.062 252.026C405.354 252.573 405.646 253.12 405.938 253.667C426.706 257.387 432.819 253.922 441.706 258.623C456.95 259.935 446.694 257.341 448.39 257.313C449.484 257.298 454.377 258.24 454.921 258.278C455.886 258.341 455.777 257.869 456.828 257.989C476.074 260.195 467.414 260.103 473.437 261.308C487.887 264.155 499.599 262.48 474.111 260.656C474.141 260.403 474.171 260.15 474.201 259.897C480.441 260.821 496.283 262.343 491.143 260.513C487.048 259.106 449.587 255.691 470.908 256.577C475.711 256.771 478.162 257.999 486.722 257.098C492.259 257.578 492.798 259.969 500.368 259.802C499.052 260.481 497.734 261.161 496.415 261.84C506.47 263.928 519.236 263.743 527.05 264.918C529.701 265.324 538.931 270.008 537.066 265.984C541.496 266.641 562.738 267.709 566.636 268.333C567.573 268.482 568.639 270.642 582.375 270.917C583.345 270.73 584.315 270.543 585.288 270.355C572.828 268.735 594.998 269.534 589.136 267.19C587.024 267.92 577.076 267.738 575.444 268.049C572.658 268.595 580.697 270.171 570.373 269.129C564.127 265.416 582.633 268.3 580.029 265.025C593.478 267.425 594.958 266.123 598.03 266.273C611.186 266.884 619.434 267.672 631.857 267.92C634.849 268.712 612.335 268.457 609.57 267.989C619.673 270.8 602.026 269.895 594.678 268.064C594.005 268.695 593.331 269.325 592.657 269.955C602.381 270.236 611.842 270.617 621.416 271.672C622.056 271.455 622.695 271.237 623.335 271.019C621.202 270.53 619.071 270.038 616.942 269.542C624.957 269.353 620.061 271.064 630.79 269.881C631.079 270.65 631.37 271.419 631.66 272.188C641.877 272.421 652.139 272.574 662.342 272.635C667.594 274.336 687.317 274.175 683.746 272.154C691.7 272.151 681.861 273.024 689.311 273.613C692.572 273.869 698.867 273.989 700.436 273.477C699.778 271.634 690.347 271.303 687.489 269.978C689.246 269.75 733.172 271.1 729.275 268.87C732.77 268.573 731.168 269.704 737.48 269.895C755.239 270.459 782.535 267.26 797.022 269.1C780.253 271.521 775.332 270.1 762.446 270.482C754.149 270.942 704.133 271.087 715.302 272.914C713.457 272.67 711.615 272.422 709.775 272.171C707.913 272.747 706.05 273.32 704.186 273.89C709.428 274.001 714.681 274.086 719.947 274.143C721.201 273.56 722.454 272.976 723.706 272.391C724.289 272.799 724.873 273.206 725.457 273.612C727.675 273.676 729.91 273.734 732.1 273.788C731.475 273.302 730.852 272.815 730.228 272.328C733.612 272.205 737 272.072 740.394 271.927C739.493 272.602 738.591 273.277 737.688 273.951C753.707 273.813 748.282 273.493 757.154 272.03C763.819 271.697 752.58 273.33 766.727 273.175C783.005 272.897 772.199 271.41 793.378 270.775C793.703 271.083 794.028 271.391 794.353 271.699C798.982 271.119 803.726 270.51 808.262 269.892C807.681 270.333 807.1 270.774 806.519 271.215C816.004 270.473 829.297 270.21 832.353 268.372C822.675 269.91 822.564 267.134 825.039 266.446C830.463 265.489 906.625 258.476 921.713 255.786C940.255 253.179 954.84 249.936 971.969 248.207C960.68 251.476 919.54 257.023 911.651 258.711C910.886 258.889 911.46 261.308 906.06 259.232C890.148 261.84 870.756 263.338 850.737 265.302C851.421 265.962 852.107 266.621 852.794 267.279C864.924 264.584 876.869 266.591 874.909 264.01C877.383 263.734 879.882 263.448 882.346 263.159C882.407 263.634 882.468 264.109 882.529 264.584C886.188 264.155 889.858 263.709 893.54 263.248C893.476 262.775 893.411 262.302 893.346 261.829C896.393 261.449 899.447 261.058 902.51 260.656C902.896 261.084 903.283 261.512 903.671 261.939C912.83 259.833 944.266 257.71 930.181 256.995C934.436 256.354 938.708 255.692 942.996 255.007C943.042 255.349 943.087 255.69 943.132 256.031C944.985 255.782 946.841 255.529 948.701 255.271C948.036 255.065 947.373 254.857 946.71 254.65C955.257 253.828 963.174 250.808 968.732 250.909C965.183 251.775 961.614 252.632 957.932 253.496C965.028 251.856 977.755 250.486 978.967 250.254C982.468 249.612 984.179 248.593 987.981 247.836C991.416 247.151 991.053 247.755 991.691 247.613C1010.25 243.435 1002.53 242.046 1011.79 243.594C1012.59 242.961 1013.4 242.327 1014.2 241.693C1015.49 241.815 1016.78 241.935 1018.08 242.053C1023.47 240.883 1028.9 239.68 1034.35 238.441C1032.66 239.395 1030.97 240.346 1029.29 241.295C1037.52 239.76 1041.1 237.772 1041.89 237.571C1044.13 236.998 1045.34 237.452 1046.04 237.294C1078.81 229.589 1058.71 233.643 1074.48 227.127C1080.65 226.679 1074.96 229.151 1074.39 230.376C1082.1 227.964 1084.64 227.631 1092.99 225.435C1095.08 224.882 1097.18 223.753 1098.51 223.401C1099.66 223.097 1103.42 222.732 1106.2 221.999C1110.82 220.78 1116.91 218.781 1123.32 217.03C1128.69 215.58 1145.08 211.421 1156.14 208.164C1160.92 206.763 1159.66 206.62 1160.9 206.255C1161.41 206.104 1165.32 205.555 1168.41 204.631C1194.03 196.967 1218.73 188.678 1243.81 180.222C1260.91 174.457 1279.57 168.389 1296.57 162.178C1300.21 160.844 1298.13 161.173 1299.72 160.581C1300.27 160.376 1301.18 160.792 1306.76 158.45C1308.78 157.603 1306.23 158.02 1308.25 157.256C1309.23 156.882 1309.86 157.302 1315.69 155.291C1326.3 151.623 1331.73 148.7 1332.69 148.369C1334.49 147.735 1334.16 148.392 1336.54 147.507C1348.01 143.245 1357.21 139.775 1367.4 135.825C1370.36 134.681 1384.41 129.188 1395.05 124.9C1401.44 122.332 1406.44 120.332 1407.11 120.033C1411.1 118.24 1406.93 118.84 1412.15 116.808C1413.7 116.46 1415.25 116.114 1416.79 115.77C1414.57 116.849 1412.34 117.937 1410.1 119.032C1416.36 116.201 1423.65 113.807 1428.24 111.993C1429.1 111.651 1436.71 108.213 1440.63 106.753C1438.9 107.231 1437.16 107.711 1435.41 108.195C1435.94 107.823 1436.47 107.451 1437.01 107.081C1444.81 104.31 1453.49 100.982 1462.05 97.727C1465.1 96.5682 1463.93 96.6158 1467 95.4526C1484.72 88.7891 1480.83 91.7876 1496.32 83.2163C1490.98 85.3732 1470.09 92.6649 1466.95 93.9576C1464.85 94.8059 1457.35 100.215 1459.49 96.7539C1442.17 103.31 1457.16 99.0934 1441.71 104.677C1441.9 104.276 1442.08 103.875 1442.27 103.474C1436.86 105.34 1432.8 106.74 1429.71 108.526C1428.06 107.54 1409.75 115.623 1399.05 119.801C1397.3 120.478 1395.52 121.167 1393.72 121.866C1379.88 127.226 1365.03 132.712 1352.09 137.61C1347.06 139.514 1344.48 141.164 1343.85 141.402C1342.93 141.748 1340.17 142.211 1338.32 142.903C1331.16 145.618 1310.14 154.425 1304.35 154.846C1334.41 143.909 1363.19 132.888 1393.28 120.874C1405.48 116.002 1417.37 111.329 1428.96 106.848C1423.98 109.474 1465.57 93.6667 1467.98 92.8279C1469.95 92.0635 1468.1 92.238 1468.68 91.9924C1472.99 90.1758 1476.94 89.4638 1478.31 88.9606C1479.35 88.5776 1481.35 87.5014 1485.02 86.1714C1485.7 85.9274 1486.01 86.1757 1486.74 85.9141C1491.61 84.144 1495.84 82.6167 1501.21 80.7037C1501.52 80.5893 1502.64 79.6725 1503.93 79.2158C1505.22 78.7584 1506.67 78.7648 1506.99 78.6518C1511.05 77.2096 1517.8 74.5212 1521.54 73.2273C1522.84 72.7781 1522.07 73.419 1523.52 72.9137C1527.98 71.3728 1526.28 71.2255 1531.8 69.5346C1533.64 68.9731 1533.71 69.4983 1537.15 68.2658C1539.57 67.3963 1538.99 66.6184 1539.36 66.4567C1539.68 66.3043 1549.05 63.9523 1551.79 62.4295C1544.8 63.0506 1558.82 60.0536 1558.35 60.9061C1561.83 59.6058 1565.26 58.3313 1568.66 57.0822C1569.89 56.8666 1571.11 56.6533 1572.34 56.4423C1585.37 51.5726 1595.29 49.0357 1608.89 44.8814C1609.59 44.6529 1620.91 41.101 1620.28 41.0579C1613.43 42.5579 1606.46 44.5313 1602.15 46.5418C1594.29 47.4196 1594.29 48.5356 1582.13 52.0507C1578.29 53.1648 1577.88 52.8968 1577.44 53.0277C1562.59 57.3682 1536.48 65.7702 1527.35 70.1646C1524.39 70.8345 1534.57 67.246 1530.52 68.3753C1528.6 68.7103 1474.74 87.3749 1492.28 82.6329C1490.57 83.2039 1488.86 83.7794 1487.14 84.3595C1484.97 83.7396 1476.5 87.1357 1477.96 88.0152C1477.05 88.0624 1476.13 88.1103 1475.21 88.1589C1473.5 88.5393 1471.54 89.1292 1468.79 90.0623C1457.4 93.7623 1397.8 117.31 1393.55 118.941C1393.34 118.664 1393.13 118.387 1392.92 118.11C1421.01 106.578 1445.91 97.8505 1476.08 85.8722C1475.33 86.457 1474.59 87.0433 1473.84 87.6313C1485.55 82.9095 1496.45 78.5723 1508.91 73.8087C1495.13 78.0474 1476.45 84.2591 1463.01 89.7021C1460.67 90.6515 1462.57 90.394 1462.04 90.642C1460.66 91.2926 1458.87 91.1836 1453.65 93.0492C1448.15 95.0173 1436.24 100.076 1435.08 100.508C1432.91 101.303 1426.68 102.777 1422.91 104.237C1417.96 106.159 1421.49 105.365 1420.5 105.759C1416.4 107.397 1412.56 108.606 1409.29 109.921C1404.82 111.719 1396.02 116.059 1391.49 116.798C1391.14 116.853 1390.81 116.885 1390.52 116.891C1390.8 116.772 1391.09 116.653 1391.38 116.534C1394.63 115.184 1397.86 113.849 1401.06 112.529C1397.68 113.761 1394.44 115.021 1391.27 116.298C1376.7 122.173 1364.51 128.023 1349.11 132.632C1344.31 132.591 1359.38 127.139 1346.43 131.246C1348.74 130.404 1351.05 129.556 1353.36 128.703C1354.04 128.832 1354.73 128.959 1355.41 129.086C1359.28 127.332 1363.18 125.564 1367.09 123.784C1366.07 124.518 1365.05 125.253 1364.04 125.987C1373.98 122.343 1384.14 118.584 1390.89 115.42C1393.89 114.019 1396.2 112.76 1397.55 111.686C1398.01 111.941 1398.47 112.196 1398.94 112.45C1412.4 106.627 1432.58 100.741 1428.05 100.103C1428.71 99.9762 1429.37 99.8502 1430.03 99.7246C1437.68 96.3423 1434.69 98.4528 1437.65 97.441C1438.08 97.2955 1441.99 95.6994 1444.93 94.3936C1448.14 92.9869 1450.28 91.8949 1446.56 92.9347C1462.13 86.6256 1457.98 90.3346 1462.31 88.8266C1471.9 84.2219 1489.59 79.4675 1481.79 80.6152C1483.19 80.0503 1484.59 79.4888 1485.99 78.9307C1491.1 78.3964 1495.01 75.5602 1500.4 73.2008C1502.22 72.5386 1504.02 71.8821 1505.82 71.2313C1507.18 71.1871 1508.53 71.1445 1509.88 71.1035C1525.99 63.5867 1522.44 70.256 1528.44 63.6807C1527.18 63.8271 1525.93 63.9754 1524.67 64.1254C1521.85 64.9398 1519.01 65.7675 1516.14 66.6083C1527.68 62.5777 1537.75 59.1361 1550.01 55.0904C1564.65 49.2071 1572.29 48.1612 1588.7 42.378C1590.3 42.0198 1591.9 41.6666 1593.49 41.3183C1591.61 40.9141 1585.63 42.7715 1596.73 39.1492C1597.5 38.2598 1589.9 40.3429 1586.51 41.8616C1585.71 42.2258 1593.07 40.5845 1584.97 42.9816C1579.62 44.5848 1588.59 41.0786 1573.43 45.9201C1573.95 45.5953 1574.47 45.2713 1574.98 44.9482C1573.32 45.4521 1571.65 45.9617 1569.97 46.4771C1568.6 47.2854 1567.22 48.0995 1565.83 48.9192C1561.76 49.6112 1559.36 49.5335 1550.29 52.5713C1552.85 52.0136 1549.76 53.7857 1545.18 55.2436C1545.09 54.9828 1544.99 54.7219 1544.9 54.461C1533.59 57.9182 1538.15 57.3035 1529.16 59.5705C1528.38 60.0646 1527.59 60.5606 1526.8 61.0582C1521.84 61.7043 1503.69 67.1691 1507.45 67.3906C1501.97 67.8044 1491.11 72.2165 1488.11 74.4616C1487.71 74.2925 1487.32 74.1234 1486.93 73.9542C1484.92 74.597 1482.89 75.246 1480.86 75.9014C1479.81 76.4615 1478.75 77.0241 1477.69 77.589C1476.19 77.9337 1474.69 78.2812 1473.18 78.6314C1472.42 79.2158 1471.66 79.8017 1470.89 80.3894C1468.44 80.8967 1465.96 81.411 1463.47 81.9324C1462.12 82.6727 1460.77 83.4168 1459.41 84.1648C1459.13 83.5965 1444.25 88.894 1440.67 90.6767C1439.47 90.9259 1438.27 91.1765 1437.07 91.4287C1436.63 91.9126 1436.19 92.3973 1435.75 92.8827C1434.81 92.976 1433.87 93.07 1432.93 93.1646C1431.07 94.1189 1429.2 95.0797 1427.32 96.0469C1418.67 97.7156 1418.88 99.0437 1417.02 99.7408C1413.59 101.024 1401.26 104.744 1399.24 105.584C1397.24 106.409 1396.48 107.289 1394.86 107.973C1392.57 108.944 1390.54 109.797 1388.75 110.543C1370.26 118.219 1378.44 113.676 1373.52 115.348C1370.63 116.322 1368.83 117.568 1366.31 118.47C1361.94 120.061 1340.34 127.426 1339.19 127.903C1337.46 128.652 1342.59 129.413 1336.59 130.956C1336.03 129.733 1323.68 135.731 1328.96 131.782C1323.75 133.871 1318.57 135.934 1313.41 137.971C1313.4 136.258 1307.35 139.547 1300.38 141.926C1290.6 145.304 1267.92 151.956 1269.25 153.284C1266.71 153.742 1264.17 154.192 1261.63 154.634C1245.36 160.703 1229.79 165.201 1213.08 170.453C1165.18 185.528 1111.97 200.814 1063.08 212.571C1060.73 213.138 1061.22 213.653 1059.54 214.058C1050.86 216.18 1027.19 220.948 1014.75 223.574C1010.76 224.43 1008.96 225.409 1007.7 225.689C1003.44 226.637 1004.28 225.647 1002.31 226.056C999.196 226.726 982.418 230.66 976.727 231.732C973.888 232.281 970.404 232.237 967.133 233.003C966.852 233.068 967.506 233.633 967.267 233.687C961.252 234.802 964.77 233.611 962.738 233.989C947.989 236.712 932.173 239.177 916.287 241.502C912.259 242.095 906.189 243.383 902.764 243.866C901.458 244.048 903.728 243.241 899.216 243.855C897.672 244.063 897.238 244.796 895.501 245.054C888.013 246.157 885.265 244.286 879.056 246.743C866.295 248.091 844.771 249.555 833.173 250.42C830.452 250.632 829.164 251.136 826.575 251.322C824.739 251.454 821.461 251.062 818.61 251.249C815.759 251.437 811.308 252.334 805.852 252.638C800.094 252.964 792.773 252.981 791.48 253.045C789.899 253.123 789.205 253.918 787.624 253.983C782.823 254.198 770.102 253.952 763.942 254.043C757.293 254.158 753.333 254.614 751.07 254.658C748.974 254.694 746.519 254.093 745.565 254.104C744.079 254.12 743.746 254.884 741.86 254.907C738.781 254.943 735.601 254.509 730.999 254.536C647.604 255.035 565.877 249.098 484.728 240.978C475.602 240.062 470.67 238.974 457.306 237.725C451.886 237.216 454.065 238.28 449.868 237.648C447.995 237.364 448.55 236.785 446.172 236.481C435.622 235.139 423.503 234.31 418.92 233.757C417.117 233.541 415.149 232.576 411.441 232.124C383.925 228.767 351.43 224.977 321.599 221.246C321.124 221.186 320.641 221.126 320.151 221.064C304.647 219.104 281.487 216.018 264.138 214.022C214.222 208.224 160.283 203.128 114.362 199.543C98.4451 198.292 82.4705 197.116 66.1218 196.028C12.3955 192.559 -41.1456 191.625 -94.7577 198.662C-62.132 193.14 -17.3516 191.729 19.058 192.57C34.4968 192.858 50.0521 193.49 66.2551 194.472C150.294 199.445 236.569 208.948 320.396 219.205C326.698 219.971 333.319 220.776 339.704 221.549C376.309 225.979 422.643 231.73 462.786 235.806C464.604 235.991 468.298 236.964 472.216 237.336C473.026 237.414 483.527 237.536 487.028 237.896C483.51 239.338 497.386 239.195 501.586 239.665C506.883 240.268 517.891 242.295 530.432 242.966C541.786 243.567 538.728 242.58 539.358 242.597C543.376 242.683 544.661 243.915 547.705 244.298C560.228 246.072 624.643 250.052 642.611 250.539C647.258 250.737 647.419 250.041 648.466 250.084C651.234 250.196 655.165 251.045 659.595 251.199C667.582 251.48 676.813 251.075 681.219 251.172C691.807 251.437 711.659 252.453 725.421 252.379C729.283 252.365 729.05 251.647 730.777 251.638C738.371 251.626 758.384 252.092 767.934 251.749C783.201 251.263 799.397 250.017 814.857 249.235C815.823 248.857 816.788 248.479 817.753 248.1C819.341 248.322 820.932 248.542 822.526 248.758C849.134 246.627 876.101 244.639 902.147 241.27C905.119 240.909 920.257 238.276 922.572 237.926C924.616 237.637 926.752 238.094 929.778 237.538C934.022 236.755 929.759 235.944 936.814 235.3C938.715 235.123 936.992 236.008 940.813 235.614C942.049 235.539 966.55 231.784 967.688 231.495C969.821 231.055 971.488 229.444 972.038 229.32C974.897 228.669 974.972 229.666 976.933 229.409C982.721 228.656 990.143 226.591 991.089 226.426C1002.76 224.45 1023.35 221.088 1035.3 217.997C1036.93 217.578 1036.56 216.915 1036.84 216.829C1038.67 216.277 1040.04 216.825 1041.82 216.45C1051.2 214.492 1065.64 210.595 1075.17 208.147C1076.26 207.868 1078.69 207.685 1080.64 207.168C1091.76 204.212 1087.87 204.515 1088.53 204.329C1089.96 203.906 1092.69 203.936 1096.59 202.994C1106.53 200.622 1126.19 195.319 1136.91 192.284C1144.85 190.045 1144.51 189.325 1145.03 189.168C1146.14 188.827 1149.44 188.545 1154.76 187.099C1165.02 184.302 1163.68 184.045 1167.92 182.842C1168.27 182.737 1167.83 183.481 1172.56 182.152C1181.96 179.522 1201.19 173.076 1210.96 170.018C1214.67 168.865 1215.72 169.111 1219.53 167.91C1225.72 165.97 1238.72 161.122 1239.76 160.775C1240.05 160.679 1240.93 161.053 1242.65 160.485C1244.55 159.86 1246.31 158.94 1247.73 158.471C1255.8 155.823 1270.32 152.023 1265.61 151.294C1268.43 150.912 1271.26 150.52 1274.1 150.118C1291.13 144.15 1307.17 138.699 1324.28 132.575C1328.08 131.212 1331.23 129.627 1334.33 128.504C1337.42 127.4 1351.46 122.873 1353.8 121.993C1357.89 120.506 1381.7 111.465 1384.72 110.215C1385.83 109.766 1386.93 109.292 1387.99 108.815C1392.6 106.749 1396.53 104.671 1398.53 104.043C1400.51 103.42 1398.92 104.538 1402.64 103.248C1409.1 101.003 1419.44 96.4427 1421.32 95.7509C1422.12 95.4549 1420.79 96.3372 1428.29 93.5515C1432.32 92.058 1434.3 90.9017 1435.75 90.3665C1436.23 90.1933 1435.68 91.0683 1443.68 88.0221C1449.53 85.8024 1451.79 84.4625 1452.41 84.2368C1453.32 83.9017 1455.72 83.5758 1459.34 82.2454C1467.84 79.1042 1482.71 73.2149 1490.3 70.552C1491.79 70.0268 1491.39 70.8016 1497.8 68.5321C1502.34 66.9278 1501.36 66.7601 1503.05 66.1621C1505.72 65.2206 1509.92 64.4057 1515.71 62.4461C1522.43 59.9297 1577.54 41.9817 1579.61 41.4763C1581.36 40.8569 1583.84 40.1248 1584.71 39.6207C1583.79 39.6483 1582.87 39.677 1581.95 39.7069C1573.86 42.9257 1577.01 41.0367 1574.8 41.6253C1571.69 42.4412 1559.75 46.1834 1556.68 46.9222C1555.6 47.1778 1557.87 45.9457 1552.08 47.4637C1545.86 49.1065 1543.37 50.8566 1540.45 50.4733C1532.24 54.5414 1524.15 55.6107 1533.47 52.1959C1539.14 49.9138 1593.24 33.1106 1604.76 30.2156C1613.29 27.8273 1631.35 23.507 1642.4 20.836C1648.6 19.2716 1665.55 15.4868 1664.69 15.1038C1670.73 13.7576 1664.47 15.6682 1665.76 15.4801C1668.77 14.9586 1686.11 11.1407 1690.41 10.4317C1708.38 7.24446 1730.4 4.7836 1748.08 2.88713C1747.23 2.80645 1746.38 2.72849 1745.52 2.65333C1740.71 2.68523 1723.93 4.87967 1721.32 4.58105C1747.16 1.36568 1774.82 -0.692532 1802.36 2.78503C1802.14 3.03695 1810.92 4.2057 1819.4 6.3797C1824.05 7.53511 1828.34 8.89448 1831.61 10.0791C1835.27 11.3998 1837.66 12.4675 1838.09 12.5922C1837.61 12.0975 1837.11 11.6045 1836.6 11.1134C1816.88 4.73209 1818.85 4.92385 1805.5 3.10137C1799.83 2.31625 1801.73 2.16095 1799.17 1.76463C1773.3 -1.1841 1798.5 2.25692 1778.93 0.938457C1784.76 0.429652 1768.86 -0.223528 1761.37 0.0750653C1760.28 -0.0812104 1738 1.58179 1736.08 1.89827C1722.19 3.07136 1698.64 6.15597 1684.38 9.291C1674.19 11.2307 1668.21 11.912 1658.2 13.936C1650.5 15.5251 1652.87 15.3989 1649.53 16.1463C1642.63 17.7228 1639.95 17.1642 1635.82 19.8187C1630.91 20.7905 1625.9 21.8193 1620.79 22.9065C1620.86 23.1523 1620.93 23.3981 1621.01 23.6438C1617.71 24.4866 1614.93 25.2009 1612 25.9687C1611.06 25.9466 1610.12 25.9257 1609.18 25.9059C1599.91 28.7291 1603.99 28.3057 1602.46 29.4805C1600.43 30.0838 1598.38 30.6967 1596.32 31.3194C1594.53 31.2187 1592.74 31.1218 1590.93 31.0285C1581.3 33.764 1572.42 36.3767 1563.47 39.0865C1562.97 39.5162 1562.48 39.9469 1561.98 40.3784C1561.87 40.1279 1561.76 39.8772 1561.65 39.6267C1546.16 44.1944 1530.31 49.1236 1515.39 53.9205C1511.3 54.7435 1535.13 46.7347 1537.05 46.1489C1548.13 42.4439 1575.58 34.8012 1575.16 33.9825C1581.82 32.7675 1602.22 26.9246 1607.77 24.6683C1598.66 27.1078 1589.24 29.7379 1579.52 32.5664C1579.73 32.1745 1579.94 31.783 1580.16 31.392C1569.01 35.9011 1567.72 36.2197 1555.41 38.5926C1555.55 39.0083 1555.68 39.424 1555.82 39.8398C1547.14 40.8269 1532.58 48.1271 1531.95 46.3252C1527.81 47.7876 1523.61 49.2837 1519.37 50.8136C1509.83 53.6964 1524.39 47.1824 1486.95 60.2925C1484.54 61.1485 1485.24 61.448 1481.56 62.6602C1480.49 63.02 1474.22 64.3418 1462.29 68.5757C1460.43 69.2394 1460.46 69.7066 1458.53 70.4433C1454.1 72.1389 1444.63 74.5525 1449.33 74.4383C1431.23 81.3754 1438.48 77.5019 1432.88 78.997C1429.24 79.9688 1430.29 80.5253 1427.15 81.452C1423.22 82.6226 1425.79 80.7029 1410.46 86.784C1412.23 86.1952 1414 85.6105 1415.75 85.0299C1414.98 85.5748 1414.2 86.1212 1413.42 86.6689C1404.32 89.4067 1405.48 89.9073 1400.7 90.2107C1395.25 92.8174 1390.25 94.817 1383.02 97.508C1381.93 97.9136 1380.79 98.3331 1379.59 98.7709C1362.4 105.011 1370.5 100.347 1352.04 109.393C1348.81 110.27 1345.59 111.136 1342.39 111.99C1337.56 114.405 1341.95 113.637 1334.47 116.518C1339.78 112.968 1324.1 119.224 1320.63 118.984C1320.46 119.393 1320.29 119.801 1320.13 120.21C1318.38 120.831 1316.65 121.449 1314.91 122.063C1314.8 121.82 1314.7 121.577 1314.59 121.333C1312.35 122.334 1310.12 123.331 1307.9 124.323C1306.07 124.686 1304.24 125.045 1302.42 125.4C1299.8 126.905 1297.18 128.405 1294.57 129.9C1292.82 130.547 1291.07 131.192 1289.32 131.833C1289.73 131.268 1290.14 130.704 1290.55 130.14C1288.34 131.043 1286.13 131.941 1283.92 132.835C1286.31 131.323 1284.35 131.182 1277.37 133.562C1271.61 135.518 1278.7 134.609 1265.65 138.369C1264.75 138.621 1262.76 138.265 1250.69 142.05C1236.26 146.537 1243.5 144.946 1240.95 145.799C1240.46 145.964 1235.92 146.892 1231.83 148.11C1229.52 148.802 1227.45 149.885 1227.15 149.98C1225.71 150.412 1225.15 149.979 1223.11 150.594C1217.91 152.178 1211.09 154.591 1206.06 156.095C1203.78 156.78 1201.53 157.099 1200.51 157.401C1198.94 157.873 1197.13 158.979 1195.55 159.453C1189.69 161.211 1180.33 162.096 1178.46 165.232C1172.19 164.681 1160.9 170.796 1161.34 169.058C1146.34 174.066 1105.41 182.779 1107.27 184.976C1098.01 184.97 1099.26 186.345 1095.66 187.209C1091.65 188.163 1093.6 187.224 1090.43 188.022C1083.16 189.847 1075.77 191.814 1068.27 193.566C1069.55 193.65 1070.83 193.732 1072.12 193.811C1064.23 195.775 1066.72 194.313 1058.66 195.979C1043.9 198.979 1050.28 198.247 1048.35 199.685C1048.75 198.648 1031.38 202.542 1029.55 203.031C1028.5 203.323 1033.46 203.562 1022.61 205.397C1023.11 204.908 1023.6 204.418 1024.1 203.929C1019.31 205.461 1005.98 207.421 1003.8 207.956C1002.77 208.213 998.093 212.257 992.357 210.835C991.819 211.324 991.281 211.814 990.743 212.303C984.951 212.904 979.2 213.462 973.488 213.978C972.73 214.814 971.97 215.651 971.211 216.487C969.429 216.793 967.65 217.096 965.874 217.394C966.933 216.589 967.992 215.783 969.051 214.976C958.25 217.112 944.363 218.267 942.46 220.675C940.007 220.654 937.562 220.626 935.125 220.589C933.701 221.507 932.278 222.423 930.855 223.338C919.842 224.732 919.784 224.247 911.996 224.526C912.378 225.031 912.76 225.537 913.143 226.042C907.394 226.03 897.095 226.595 889.106 227.409C885.302 227.805 878.916 229.273 878.02 229.296C877.1 229.331 867.684 227.27 867.029 229.954C853.641 230.109 848.031 231.743 842.707 232.162C839.277 232.423 837.58 231.925 833.615 232.161C827.934 232.498 822.283 233.191 819.031 233.359C817.17 233.454 816.774 232.857 815.494 232.919C809.447 233.195 813.029 233.618 806.671 233.944C806.083 233.971 801.406 233.477 796.086 233.835C793.124 234.04 785.529 235.23 784.858 235.252C781.872 235.355 784.161 233.569 774.083 235.91C774.364 235.574 774.644 235.237 774.923 234.901C762.359 234.487 760.33 235.952 757.785 236.121C757.458 236.138 754.351 235.641 752.51 235.753C749.398 235.946 748.164 236.738 747.475 236.784C745.045 236.946 736.874 236.708 731.564 237.482C732.697 235.289 713.882 234.507 709.743 236.952C706.425 236.428 703.114 235.892 699.809 235.345C698.309 235.737 696.807 236.127 695.305 236.516C694.4 236.086 693.498 235.655 692.586 235.224C687.721 236.04 682.853 236.837 677.981 237.616C677.694 236.692 677.408 235.768 677.123 234.844C675.765 234.909 674.407 234.973 673.049 235.035C671.972 235.729 670.893 236.423 669.812 237.117C668.121 236.922 666.431 236.725 664.741 236.526C664.339 235.984 663.938 235.441 663.537 234.899C654.476 233.932 658.925 239.204 641.741 233.967C639.018 234.252 636.294 234.532 633.568 234.807C630.621 232.615 624.838 233.528 620.232 233.022C616.988 232.664 617.215 231.869 612.784 231.571C608.35 231.269 608.456 232.05 608.111 232.033C604.489 231.843 601.808 230.973 599.143 230.923C598.741 230.915 597.674 231.767 594.282 231.582C590.892 231.395 588.91 230.267 583.868 230.067C581.281 229.962 580.473 230.68 578.176 230.569C567.228 230.045 556.547 225.146 547.916 229.076C546.129 228.325 532.94 225.003 527.171 224.55C518.199 223.86 521.55 225.116 517.967 224.929C517.447 224.901 514.757 224.323 507.278 223.608C505.938 223.479 506.306 222.992 506.114 222.965C497.436 222.083 480.2 220.635 470.689 219.637C469.829 219.548 465.528 217.599 457.649 218.676C446.415 215.937 424.881 216.549 410.081 212.557C408.002 212.261 405.393 212.474 404.473 212.345C396.632 211.234 399.778 210.015 381.572 210.149C383.128 209.52 379.037 208.284 373.071 207.619C364.109 206.619 370.197 208.888 363.117 207.899C363.173 207.476 363.229 207.052 363.286 206.628C346.777 205.773 343.729 203.557 327.039 201.525C325.73 201.366 324.273 201.236 322.783 201.13C317.576 200.756 311.945 200.665 310.841 200.536C310.296 200.468 303.906 198.678 303.278 198.598C299.763 198.157 297.708 198.397 294.654 198.048C284.433 196.876 272.941 194.272 274.727 196.907C272.048 196.095 269.361 195.287 266.665 194.481C255.914 195.911 248.443 191.571 245.918 193.821C244.133 193.119 242.356 192.42 240.568 191.722C195.591 187.422 150.942 184.006 105.612 181.615C103.942 180.764 84.2754 179.984 83.2168 180.058C78.5036 180.334 83.3107 182.13 73.7899 181.306C72.7901 180.578 71.7884 179.852 70.7847 179.129C69.5394 179.051 68.4827 178.991 67.5843 178.947C59.5961 178.561 63.8846 179.325 59.5074 179.556C57.5019 179.397 58.1881 178.903 55.4832 178.771C41.4094 178.002 10.5123 177.638 -5.14667 178.102C-8.3924 178.172 -7.96607 178.603 -8.98519 178.63C-11.832 178.695 -17.3812 178.313 -22.8437 178.561C-57.247 179.862 -106.514 185.454 -141.037 195.8C-143.473 196.503 -143.666 196.968 -145.264 197.453C-147.536 198.13 -152.191 199.277 -154.686 200.141C-156.889 200.907 -158.19 201.655 -160.43 202.496C-170.987 206.376 -185.171 212.202 -195.358 219.682C-196.447 220.231 -206.247 229.008 -206.35 229.444C-207.233 231.019 -198.276 223.632 -211.916 237.237C-205.612 231.293 -202.807 230.137 -204.15 231.64C-205.36 233.307 -210.716 237.526 -217 246.719C-210.449 237.593 -201.772 230.873 -192.666 225.398C-192.581 225.504 -192.496 225.611 -192.411 225.718C-200.099 231.492 -208.319 236.778 -216.9 249.412C-216.553 249.075 -216.197 248.738 -215.83 248.399C-207.824 237.527 -194.737 229.083 -185.887 225.385C-197.71 232.521 -209.296 241.577 -215.835 254.189C-215.425 253.626 -214.979 253.039 -214.519 252.467C-211.174 246.633 -200.13 236.969 -195.345 234.377C-186.356 229.18 -190.139 231.684 -195.334 235.255C-200.511 238.786 -206.353 244.5 -203.83 242.505C-187.509 228.019 -166.38 220.49 -145.421 214.938C-144.818 215.139 -165.355 220.161 -183.385 229.955C-202.209 239.094 -213.565 256.493 -212.257 256.463C-208.978 250.91 -204.338 246.206 -199.171 242.178C-201.23 244.199 -203.167 246.319 -204.969 248.61C-204.364 248.109 -203.73 247.604 -203.068 247.096C-195.122 239.851 -185.188 234.574 -174.883 230.482C-206.395 243.255 -213.358 260.991 -211.923 266.234C-211.85 266.17 -211.607 265.098 -211.378 264.564C-211.462 261.695 -207.277 252.714 -198.366 245.743C-189.75 238.615 -177.625 233.249 -169.065 230.294C-172.444 231.796 -187.006 238.181 -189.393 240.303C-190.133 240.832 -187.245 239.475 -188.939 240.662C-191.364 242.315 -197.26 246.428 -201.313 250.745C-205.434 254.992 -207.493 258.992 -206.474 257.797C-205.934 257.07 -200.185 249.725 -191.104 244.267C-182.267 238.64 -171.243 234.645 -167.711 233.39C-183.962 239.783 -200.758 249.218 -206.972 262.323C-201.774 254.92 -194.705 249.187 -177.021 241.275C-174.095 240.387 -182.412 243.852 -189.876 249.001C-197.665 254.097 -202.649 261.033 -202.621 261.416C-199.184 256.957 -194.149 253.079 -188.34 249.833C-193.122 252.689 -197.38 256.014 -200.538 259.667C-200.471 259.726 -200.403 259.785 -200.335 259.843C-191.751 250.592 -178.215 244.95 -161.273 239.906C-161.722 240.599 -171.732 243.647 -176.332 245.746ZM1692.55 6.36435C1693.02 5.74734 1684.73 7.29189 1681.09 7.9855C1681.67 7.78059 1682.25 7.57686 1682.82 7.37437C1674.49 8.94141 1657.71 12.6722 1656.73 11.8368C1650.11 13.1393 1653.19 13.4139 1651.25 13.9439C1650.52 14.1458 1642.54 15.3646 1636.19 17.5555C1634.64 17.9195 1633.09 18.2894 1631.52 18.6654C1631.12 18.3985 1630.72 18.1315 1630.31 17.8645C1628.24 18.8071 1626.16 19.7635 1624.05 20.7339C1646.85 15.1426 1669.43 10.2627 1692.52 6.37038C1692.53 6.36841 1692.54 6.36633 1692.55 6.36435ZM1470.51 66.9957C1462.83 69.8899 1450.67 74.5987 1452.71 72.6615C1457.81 70.9217 1462.85 69.2203 1467.82 67.5568C1468.72 67.3688 1469.62 67.1818 1470.51 66.9957ZM678.898 239.129C672.027 240.508 665.791 238.964 655.226 238.823C655.253 238.492 655.28 238.16 655.307 237.828C659.603 238.809 671.001 238.692 678.898 239.129ZM1875.1 75.973C1875.01 77.6244 1874.88 79.241 1874.7 80.87C1876.29 74.3442 1875.95 73.0408 1875.79 65.248C1875.77 64.7734 1875.96 64.9257 1875.96 64.7599C1875.85 62.8209 1875.45 61.0635 1875.21 59.3102C1874.69 55.9283 1874.53 53.1013 1872.44 47.1245C1870.69 42.5505 1870.2 42.7179 1869.47 41.1499C1869.15 39.7091 1861.92 26.4252 1853.39 21.0869C1845.65 16.6039 1859.14 23.296 1868 38.8801C1877.13 54.4464 1875.29 73.7581 1875.1 75.973ZM1861.92 120.159C1862.27 119.51 1862.72 118.617 1863.04 118.002C1863.35 117.38 1863.68 116.72 1864.02 116.022C1861.53 119.937 1865.83 111.679 1868.21 105.315C1867.8 105.347 1862.47 118.617 1858.72 124.262C1858.78 124.237 1858.91 124.079 1859.11 123.798C1859.37 123.407 1859.43 123.37 1859.56 123.217C1859.8 122.942 1860.06 122.608 1860.35 122.216C1861.04 121.24 1861.38 120.903 1861.92 120.159ZM1758.55 2.60403C1764.29 2.43206 1763.28 1.74761 1763.02 1.52357C1761.22 1.57636 1759.39 1.64497 1757.54 1.72971C1757.88 2.021 1758.21 2.31241 1758.55 2.60403ZM1804.22 4.52962C1802.01 3.64088 1789.42 2.11729 1782.64 1.94543C1782.38 1.94023 1784.03 2.25418 1779.8 2.10321C1778.67 1.98601 1765.4 1.03262 1768.33 2.17753C1780.27 2.13056 1792.4 2.74194 1804.2 4.52695C1804.21 4.52781 1804.22 4.52867 1804.22 4.52962ZM1817.69 6.73257C1815.3 6.01938 1812.94 5.37909 1810.43 4.77329C1809.09 4.76016 1807.73 4.76277 1806.35 4.78101C1809.3 5.29055 1812.14 5.86522 1814.86 6.50256C1815.81 6.57109 1816.69 6.63425 1817.69 6.73257ZM78.9136 190.608C79.5102 190.197 80.1066 189.786 80.703 189.375C82.8973 189.22 93.1412 191.822 89.8065 191.995C86.1908 191.524 82.56 191.062 78.9136 190.608ZM34.2339 189.369C31.996 189.511 29.7785 189.658 27.5815 189.811C25.1064 189.037 22.6513 188.28 20.2159 187.539C30.9165 187.224 43.11 187.107 40.9915 189.163C43.4172 189.249 45.8653 189.345 48.3356 189.449C46.3305 188.479 46.5869 188.189 53.1591 187.905C54.3482 189.062 59.8471 188.935 66.6882 189.414C67.5329 189.473 68.3948 189.541 69.2672 189.621C68.4056 189.584 67.5432 189.547 66.68 189.51C61.7429 189.294 56.8898 189.111 52.1195 188.961C52.1031 189.179 52.0869 189.397 52.0706 189.616C64.6944 190.149 48.8027 190.728 40.9963 189.6C40.3427 189.864 39.6366 190.124 38.96 190.386C37.3761 190.041 35.8007 189.702 34.2339 189.369ZM921.797 233.913C920.349 234.355 918.938 234.79 917.456 235.232C911.145 232.977 923.406 234.278 931.327 230.646C928.864 232.882 941.628 230.901 942.398 230.893C941.029 231.731 939.66 232.568 938.292 233.403C932.758 233.612 927.26 233.782 921.797 233.913ZM879.585 241.37C884.666 239.272 858.777 241.956 850.315 242.991C848.243 243.263 844.627 244.442 843.12 244.46C842.178 244.221 841.249 243.979 840.299 243.738C839.292 244.948 822.237 245.029 815.607 244.831C815.016 245.274 814.424 245.716 813.833 246.159C811.411 246.154 808.994 246.141 806.581 246.123C806.912 246.507 807.242 246.891 807.573 247.275C805.714 246.901 803.89 246.52 802.008 246.139C794.732 245.993 799.335 247.952 793.858 247.546C787.783 247.082 797.584 245.283 797.346 244.435C802.329 244.407 813.254 244.25 818.211 243.932C821.05 243.745 817.685 242.488 830.082 243.328C832.735 242.721 835.391 242.107 838.05 241.485C843.061 241.727 847.919 241.954 852.894 242.144C853.746 241.504 854.597 240.865 855.449 240.225C855.95 240.103 867.447 240.25 866.899 240.715C871.393 239.191 880.871 238.007 890.654 236.794C891.644 236.98 892.635 237.164 893.627 237.348C883.996 237.837 890.634 238.024 887.868 238.93C886.271 239.452 881.351 240.67 879.585 241.37ZM147.32 196.675C131.033 193.999 141.145 195.918 123.21 194.546C124.537 193.933 125.864 193.318 127.19 192.701C135.914 194.65 150.323 194.942 147.337 196.676C147.331 196.676 147.326 196.675 147.32 196.675ZM-28.9004 187.552C-19.3222 187.6 -24.2925 188.621 -12.0114 188.707C-12.0056 188.707 -11.9996 188.707 -11.9937 188.707C-18.4738 188.859 -24.3405 189.077 -30.856 189.364C-30.2078 188.761 -29.5559 188.157 -28.9004 187.552ZM521.703 236.217C530.676 236.756 528.859 237.178 537.067 236.756C548.958 239.296 538.795 238.158 538.665 239.457C535.95 238.822 533.233 238.183 530.515 237.539C523.703 238.117 529.984 239.336 529.972 239.452C529.967 239.451 529.961 239.451 529.956 239.45C529.916 239.841 530.125 239.944 527.533 239.935C525.589 238.698 523.645 237.459 521.703 236.217ZM559.737 241.316C556.748 240.192 555.479 238.974 563.571 239.097C563.577 239.098 563.583 239.098 563.588 239.099C564.065 241.081 571.911 240.159 575.407 240.56C576.311 240.841 577.214 241.122 578.118 241.402C572.002 241.396 565.876 241.367 559.737 241.316ZM694.222 250.171C694.285 248.077 687.563 247.767 697.043 245.989C698.876 246.054 700.71 246.115 702.545 246.173C703.747 246.646 704.95 247.118 706.155 247.587C729.506 243.889 736.463 250.466 697.024 247.731C697.018 247.73 697.013 247.728 697.007 247.727C696.08 248.542 695.152 249.357 694.222 250.171ZM652.998 248.836C652.745 247.717 652.492 246.598 652.24 245.479C646.962 247.937 640.406 245.102 630.187 246.46C629.289 246.075 628.391 245.688 627.495 245.301C623.68 245.929 586.468 243.698 594.651 242.502C598.222 242.005 605.805 243.527 606.466 243.544C608.706 243.604 611.678 242.834 615.44 243.117C617.614 243.282 622.136 244.675 626.581 244.914C636.518 245.464 654.802 243.305 667.72 246.542C668.67 246.239 669.619 245.936 670.568 245.632C680.244 246.117 676.989 247.082 686.038 246.036C692.153 251.498 649.805 244.721 658.514 249.226C658.508 249.226 658.503 249.226 658.497 249.226C656.67 249.099 654.83 248.968 652.998 248.836ZM385.565 222.534C384.859 223.425 373.721 220.566 376.079 223.192C372.48 221.94 368.871 220.686 365.251 219.431C365.308 219.22 365.364 219.01 365.421 218.799C369.103 219.418 372.773 220.036 376.432 220.652C376.491 220.314 376.55 219.976 376.609 219.638C381.977 221.542 404.695 223.742 404.17 222.455C405.332 223.11 406.492 223.764 407.651 224.418C418.795 224.35 427.974 226.93 439.917 226.952C440.77 227.477 441.65 228.005 442.52 228.532C443.165 228.263 443.809 227.994 444.453 227.724C448.803 228.183 453.14 228.637 457.466 229.085C471.376 232.042 443.804 230.711 440.446 230.104C440.012 230.025 440.191 229.156 437.473 228.7C432.725 227.913 405.036 225.514 396.721 223.914C396.572 224.488 396.422 225.062 396.273 225.636C392.713 224.605 389.144 223.57 385.565 222.534ZM746.315 247.913C746.916 247.328 747.516 246.744 748.116 246.159C758.738 246.536 765.456 245.808 762.787 247.783C762.782 247.783 762.776 247.784 762.77 247.784C757.268 247.858 751.784 247.901 746.315 247.913ZM1511.64 59.8239C1511.65 60.6549 1506.85 62.5687 1500.14 64.2436C1500.37 63.9206 1500.6 63.5978 1500.83 63.2753C1504.44 62.772 1508.27 60.2131 1518.47 57.025C1518.61 57.3956 1518.75 57.7663 1518.89 58.137C1516.49 58.6908 1514.07 59.2531 1511.64 59.8239ZM737.176 248.292C733.962 249.014 724.884 247.006 730.841 246.868C735.38 246.761 738.901 247.907 737.176 248.292ZM-66.7981 190.684C-64.2404 190.376 -61.936 190.093 -59.4486 189.814C-58.1475 190.079 -56.8384 190.349 -55.5213 190.626C-55.5271 190.627 -55.5329 190.627 -55.5388 190.628C-59.3723 190.612 -62.9794 190.623 -66.7981 190.684ZM491.22 233.002C499.391 233.945 507.504 234.857 515.639 235.743C515.686 236.078 515.732 236.414 515.779 236.75C507.742 234.739 504.34 235.685 502.423 235.568C502.432 235.569 502.44 235.57 502.448 235.571C496.308 235.199 490.447 234.772 484.584 234.538C486.8 234.028 489.012 233.515 491.22 233.002ZM462.99 232.01C464.646 229.841 466.471 229.787 478.776 232.787C478.244 233.018 477.704 233.248 477.18 233.48C470.738 232.602 467.015 231.641 468.009 232.978C466.338 232.656 464.665 232.334 462.99 232.01ZM590.849 243.369C589.28 244.002 577.421 242.372 578.099 242.045C578.365 241.93 593.884 242.151 590.849 243.369ZM1599.8 33.1318C1597.13 33.9789 1594.44 34.843 1591.72 35.7239C1595.43 34.8352 1599.09 33.9741 1602.7 33.1403C1601.74 33.1362 1600.77 33.1334 1599.8 33.1318ZM1630.04 27.1855C1631.95 26.5282 1625.25 26.8924 1636.87 23.6841C1628.56 25.6859 1619.09 28.1117 1611.38 30.141C1615.28 29.3113 1618.95 28.5607 1623.29 27.6465C1622.68 28.1793 1622.06 28.7138 1621.44 29.2501C1624.34 28.5424 1627.21 27.8543 1630.04 27.1855ZM1638.93 24.0341C1634.9 25.9507 1657.79 20.5642 1660.72 19.8671C1661.24 19.7242 1663.52 18.509 1664.38 18.1713C1660.68 18.9705 1656.72 19.8596 1653.1 20.6875C1654.13 20.2257 1655.47 19.6923 1656.67 19.1971C1652.04 20.1648 1648.35 20.9346 1644.07 21.869C1645.91 21.6641 1647.73 21.4663 1649.54 21.2757C1646.06 22.1617 1642.52 23.0809 1638.93 24.0341ZM1543.57 50.7814C1546.63 49.7848 1549.66 48.8061 1552.66 47.845C1552.19 48.394 1551.72 48.9442 1551.24 49.4955C1549.43 50.0618 1547.62 50.6343 1545.79 51.2132C1545.05 51.069 1544.31 50.925 1543.57 50.7814ZM1604.71 33.157C1599.87 32.6466 1589.07 39.6993 1602.57 34.4333C1603.92 33.9089 1605.17 33.2067 1604.71 33.157ZM1669.91 17.6755C1679.65 16.8694 1676.96 14.7354 1668.12 17.3684C1667.68 17.5052 1669.17 17.7408 1669.91 17.6755ZM1742.04 6.37223C1742.85 6.30135 1744.37 5.32382 1752.13 5.53083C1753.39 5.36019 1754.63 5.19698 1755.86 5.04138C1754.41 4.93536 1747.41 5.21173 1740.76 5.84436C1734.85 6.38178 1729.56 7.15888 1731.31 7.34985C1735.13 6.93008 1737.94 6.77376 1742.04 6.37223ZM1718.44 12.1184C1714.3 12.6955 1711.21 13.145 1707.52 13.7198C1708.66 13.2763 1709.79 12.8384 1710.91 12.4062C1709.15 12.6086 1707.38 12.8214 1705.58 13.0449C1702.62 13.9787 1699.61 14.9479 1696.55 15.9532C1704.9 14.5283 1711.84 13.473 1720.49 12.3142C1719.81 12.2476 1719.12 12.1823 1718.44 12.1184ZM1621.82 33.281C1628.95 31.0218 1637.75 29.122 1648.65 26.4417C1648.66 26.4396 1648.66 26.4375 1648.67 26.4354C1649.21 26.3011 1650.08 25.7064 1651.81 25.2824C1653.02 24.8496 1684.54 18.426 1681.64 18.5083C1669.99 20.2938 1665.51 22.217 1662.26 21.501C1661.74 21.9193 1661.21 22.3391 1660.69 22.7603C1648.94 25.973 1646.28 25.5943 1639.7 26.806C1639.78 27.019 1639.87 27.2319 1639.96 27.4448C1635.75 28.51 1631.46 29.6212 1627.1 30.779C1627.67 30.4734 1628.25 30.1689 1628.82 29.8654C1627.28 30.2621 1625.73 30.6646 1624.17 31.073C1620.49 32.7491 1616.03 34.1177 1621.82 33.281ZM1735.35 9.62666C1738.43 10.5948 1772.96 6.70881 1788.31 8.40277C1779.95 7.02114 1767.16 7.72593 1758.57 8.23899C1741.67 9.32979 1753.31 8.03043 1750.41 7.97122C1749.03 7.91616 1738.85 9.80798 1735.35 9.62666ZM1597.04 39.8004C1605.15 37.3365 1609.72 36.4993 1616.28 34.0482C1615.68 34.0768 1615.08 34.1059 1614.47 34.1357C1612.31 34.7988 1592.9 40.6639 1597.04 39.8004ZM1811.3 10.6676C1794.24 8.4919 1802.81 8.56714 1794.18 8.61392C1799.56 9.11391 1805.67 9.92447 1811.23 11.0269C1811.26 10.9071 1811.28 10.7873 1811.3 10.6676ZM718.948 259.038C712.154 259.115 704.583 259.583 700.548 258.468C705.145 258.35 709.747 258.213 714.355 258.055C715.884 258.385 717.415 258.713 718.948 259.038ZM913.102 255.914C911.579 256.375 905.336 256.486 904.695 256.567C903.496 256.725 903.875 257.035 903.871 257.129C896.029 258.085 903.093 256.055 897.276 256.557C896.239 256.66 882.939 258.844 877.271 259.418C868.645 260.324 860.13 261.253 856.946 261.545C851.549 262.048 841.614 262.124 832.619 262.8C828.945 263.078 827.724 263.853 824.04 264.114C800.629 265.952 753.724 266.913 732.86 267.417C727.714 267.588 722.703 268.524 719.961 268.46C717.788 268.137 715.619 267.809 713.453 267.476C706.79 270.456 704.563 267.788 697.416 267.438C692.882 267.212 690.722 268.064 690.109 268.053C686.037 267.974 684.039 267.512 680.849 267.377C677.268 267.227 672.117 267.5 670.84 267.392C670.06 267.313 672.587 266.236 658.74 265.814C644.594 265.359 630.636 264.847 616.274 264.094C621.281 260.762 625.247 263.45 631.107 263.869C632.677 263.981 631.71 263.361 633.078 263.453C636.939 263.71 644.319 264.595 647.53 264.584C650.997 264.575 649.868 263.21 654.236 263.861C654.457 263.894 653.734 264.413 654.763 264.542C665.092 265.803 668.5 264.971 681.619 265.234C690.337 265.636 743.086 266.049 744.848 265.451C754.25 263.555 698.707 264.031 692.27 263.822C689.99 263.841 692.371 264.475 690.292 264.559C689.409 264.592 681.514 263.324 673.723 263.025C664.31 262.693 645.332 262.778 636.343 262.309C559.108 258.467 483.192 250.883 406.285 241.76C404.653 241.565 402.498 240.599 397.233 239.968C371.428 236.88 345.298 233.714 318.894 230.579C244.225 221.679 167.694 213.395 92.8278 207.161C83.7438 206.401 74.6093 205.579 65.3701 204.808C51.8781 203.686 39.4079 202.865 25.9016 202.53C23.1537 201.984 20.4338 201.455 17.7414 200.941C24.5884 201.494 37.9271 201.166 39.2019 201.226C39.7188 201.249 42.2219 201.865 46.5248 202.087C52.5654 202.404 55.3375 202.159 55.838 202.188C57.4098 202.289 56.3423 202.681 57.8474 202.779C60.4984 202.95 63.0321 203.129 65.498 203.315C73.3358 203.905 80.2033 204.499 87.9535 205.104C99.4126 206.007 105.161 205.565 113.363 207.255C114.358 206.947 115.353 206.638 116.347 206.328C122.697 208.521 159.243 211.656 174.566 213.118C179.309 213.558 178.555 212.76 180.144 212.918C181.149 213.021 180.685 213.912 192.976 214.982C199.148 215.522 200.829 214.999 204.006 215.353C205.72 215.545 205.361 216.203 207.82 216.462C222.071 217.97 233.369 218.979 247.21 220.4C251.126 220.805 251.239 220.227 252.112 220.333C255.323 220.722 260.786 222.344 268.869 223.276C281.751 224.749 308.041 227.873 319.135 228.754C319.33 228.769 319.521 228.784 319.708 228.798C321.306 228.918 322.71 228.371 323.877 228.523C325.679 228.759 326.288 229.581 326.604 229.623C332.621 230.365 329.092 229.242 333.093 229.896C335.247 230.248 337.396 231.362 342.394 232.065C348.986 232.993 347.813 231.839 350.554 232.273C350.842 232.324 350.839 233.027 353.536 233.378C363.629 234.689 378.822 236.696 388.47 237.854C391.258 238.19 393.39 237.973 397.264 238.43C405.185 239.393 449.721 244.897 453.499 245.013C453.889 245.029 450.038 243.562 456.372 244.306C458.16 244.937 459.947 245.567 461.732 246.195C464.885 245.858 468.032 245.518 471.173 245.174C470.734 247.51 488.874 249.822 488.958 247.398C490.952 247.51 492.945 247.62 494.936 247.729C498.871 249.809 501.686 249.486 509.522 251.251C510.817 250.867 512.098 250.482 513.403 250.099C513.681 250.468 513.959 250.836 514.237 251.205C518.705 249.797 525.502 252.302 526.35 252.39C529.61 252.739 532.106 252.5 533.633 252.656C539.338 253.237 551.604 254.963 558.337 255.216C558.652 255.227 558.413 254.421 560.322 254.482C563.764 254.589 564.001 255.759 568.683 254.781C569.576 255.19 570.469 255.599 571.363 256.007C572.356 255.909 573.349 255.811 574.342 255.712C580.107 256.243 585.862 256.753 591.647 257.242C586.486 255.556 592.591 255.252 598.233 256.666C600.143 257.145 598.37 257.833 599.007 257.997C599.883 258.259 625.857 259.384 627.598 258.914C628.812 259.229 630.027 259.543 631.242 259.855C631.889 259.383 632.537 258.91 633.183 258.437C633.852 258.646 634.52 258.855 635.188 259.063C641.971 258.525 659.45 261.23 662.618 261.15C664.318 261.117 662.862 258.945 670.982 259.399C671.248 259.993 671.513 260.586 671.78 261.18C673.641 261.314 675.504 261.446 677.368 261.574C680.871 261.607 685.993 260.692 686.168 260.001C687.255 260.438 688.343 260.873 689.433 261.307C692.43 260.02 707.975 260.675 714.299 261.511C716.142 261.107 717.985 260.7 719.827 260.289C722.308 260.778 724.793 261.259 727.284 261.734C733.046 261.835 726.951 261.066 728.178 260.988C730.768 260.843 743.897 262.035 743.005 260.32C744.797 260.285 746.59 260.246 748.385 260.204C749.32 260.675 750.257 261.145 751.195 261.614C754.216 259.848 759.65 260.335 770.513 259.334C771.44 259.688 772.369 260.042 773.299 260.395C776.637 259.716 779.979 259.027 783.323 258.327C784.049 258.935 784.776 259.543 785.504 260.15C786.979 260.173 788.456 260.194 789.934 260.213C792.841 258.637 798.319 259.892 801.033 259.142C804.989 258.047 801.805 257.225 794.381 257.42C794.933 256.384 816.826 255.564 821.892 255.227C821.575 255.453 821.257 255.678 820.939 255.904C815.753 256.112 810.589 256.289 805.445 256.437C801.317 259.309 815.227 257.765 821.723 257.614C822.316 257.601 825.739 258.353 832.276 257.742C834.808 257.513 844.58 255.242 846.375 254.993C861.335 252.955 850.48 256.047 865.064 252.798C862.136 254.47 870.499 252.495 879.469 251.745C880.993 251.634 893.74 251.233 894.623 251.137C899.999 250.643 894 250.193 901.797 249.516C902.775 249.708 903.755 249.898 904.736 250.087C906.547 249.85 908.362 249.609 910.179 249.364C920.837 245.092 923.592 246.75 927.497 246.45C929.07 246.325 926.946 245.906 931.009 245.458C932.54 245.287 934.326 245.634 938.445 245.042C951.294 243.168 955.544 239.863 967.622 240.485C969.342 239.794 971.063 239.1 972.786 238.402C974.09 238.64 975.396 238.875 976.705 239.108C985.764 236.102 982.676 238.05 986.053 237.409C995.065 235.716 1013.15 231.82 1014.44 230.425C1022.59 231.311 1031.14 226.589 1034.19 226.023C1036.07 225.924 1037.95 225.821 1039.83 225.713C1041.88 224.949 1043.99 224.17 1045.99 223.41C1045.57 226.003 1055.7 221.246 1056.73 220.963C1057.89 220.677 1074.71 217.436 1081 215.843C1087.37 214.268 1097.76 210.955 1098.7 210.708C1099.77 210.438 1110.35 208.375 1118.59 206.147C1126.11 204.253 1167.6 191.49 1165.39 193.121C1162.71 194.209 1158.85 195.594 1155.5 196.701C1145.45 200.303 1083.24 217.524 1066.9 221.277C1035.18 229.207 1000.92 236.311 968.341 242.246C966.436 242.593 966.27 243.279 964.639 243.576C962.23 244.016 955.585 244.479 953.1 244.899C943.754 246.506 932.527 248.325 927.61 249.059C916.727 250.691 908.803 252.161 900.44 253.304C897.743 253.68 884.538 254.495 875.281 255.85C873.628 256.221 871.976 256.59 870.326 256.955C875.147 256.672 887.587 255.813 893.287 255.159C901.816 254.195 906.224 253.056 909.395 252.641C912.068 252.304 925.714 251 931.739 250.088C933.631 249.808 933.905 249.072 935.526 248.827C944.291 247.512 956.096 245.599 963.842 244.932C960.71 245.271 979.887 241.466 980.935 241.245C982.679 240.924 984.699 241.195 988.277 240.52C995.171 239.206 994.006 238.099 1002.96 237.675C1004.98 236.883 1006.96 236.096 1008.97 235.301C1009.43 237.032 1035.44 229.17 1043.69 229.403C1043.85 229.693 1009.32 237.793 1006.6 238.276C989.152 242.042 964.091 246.148 946.937 249.191C941.848 250.131 926.18 253.606 925.001 253.74C923.077 253.99 924.711 253.121 923.879 253.219C906.565 255.218 915.338 255.226 913.102 255.914ZM1640.39 29.2756C1635.3 30.596 1630.1 31.9841 1624.78 33.4417C1625.24 33.5849 1625.7 33.7282 1626.16 33.8718C1628.56 33.1329 1630.94 32.4091 1633.3 31.7001C1635.18 31.3737 1637.04 31.0551 1638.88 30.7443C1639.39 30.2533 1639.89 29.7637 1640.39 29.2756ZM1653.03 27.2742C1657.21 26.4112 1657.65 25.7777 1658.65 25.5195C1661.86 24.6982 1664.66 24.2792 1667.71 23.5977C1664.03 23.1449 1656.05 25.5467 1653.03 27.2742ZM1562.42 53.0538C1563.38 52.6805 1569.47 49.2425 1577.14 48.336C1582.15 46.3645 1588.21 44.113 1593.77 42.0612C1583.78 45.6274 1571.1 48.787 1566.42 50.2684C1564.67 50.8198 1564.48 51.3507 1563.08 51.7965C1554.99 54.3587 1546.46 56.0179 1546.12 57.7276C1553.93 54.7384 1561.2 53.5244 1562.42 53.0538ZM1611.48 37.9753C1612.67 37.3351 1613.86 36.6996 1615.05 36.0689C1610.45 37.3231 1605.77 38.6271 1601.02 39.9816C1602.4 39.9057 1603.77 39.8325 1605.13 39.7622C1607.27 39.1563 1609.38 38.5607 1611.48 37.9753ZM1255.1 165.044C1257.95 164.073 1260.82 163.093 1263.69 162.105C1263.63 162.426 1260.35 163.549 1259.21 164.14C1259.22 164.138 1259.22 164.136 1259.23 164.134C1257.96 164.796 1258.66 164.947 1256.28 165.929C1255.89 165.635 1255.49 165.34 1255.1 165.044ZM13.9771 202.067C8.49121 201.612 -38.241 201.458 -34.5542 200.672C-32.3242 200.104 -16.4473 200.39 -11.4979 200.461C-4.80031 200.465 12.1948 199.703 13.9771 202.067ZM-69.9014 203.261C-70.5708 202.265 -41.0777 200.682 -38.3162 200.939C-38.9267 201.091 -39.8612 201.421 -40.668 201.511C-44.4068 201.879 -63.4593 202.504 -69.9014 203.261ZM1094.02 216.414C1096.11 215.291 1098.21 214.164 1100.32 213.034C1099.93 213.898 1099.53 214.764 1099.14 215.629C1097.43 215.894 1095.72 216.156 1094.02 216.414ZM868.382 256.789C829.374 260.958 789.787 263.52 750.432 264.466C753.912 264.726 757.4 264.973 760.898 265.207C794.744 264.085 831.172 261.304 863.663 258.458C865.235 257.904 866.808 257.347 868.382 256.789ZM1552.54 58.7926C1542.41 62.0835 1534.77 64.1773 1524.72 68.2755C1534.87 65.5124 1538.53 63.2614 1549.21 60.7424C1549.22 60.7406 1549.22 60.7388 1549.23 60.7369C1550.33 60.0855 1551.44 59.4373 1552.54 58.7926ZM1341.09 137.014C1344.07 136.377 1347.06 135.73 1350.06 135.071C1346.66 136.366 1343.28 137.65 1339.91 138.922C1340.3 138.286 1340.69 137.65 1341.09 137.014ZM524.721 258.086C514.228 255.825 487.17 255.426 478.699 252.924C478.157 252.762 483.34 252.657 475.232 250.499C481.44 251.433 485.807 252.16 486.156 253.207C488.044 253.064 489.931 252.919 491.815 252.773C494.848 253.347 497.878 253.918 500.906 254.484C500.684 253.457 500.921 253.538 505.536 254.688C507.701 254.651 509.863 254.612 512.024 254.571C512.889 255.081 513.758 255.591 514.626 256.1C516.553 255.694 518.478 255.287 520.401 254.879C527.587 256.207 523.053 256.923 524.721 258.086ZM561.668 261.086C559.883 261.263 511.125 256.115 533.522 256.167C539.287 256.759 545.016 257.331 550.791 257.888C545.694 260.751 561.741 259.16 563.032 259.184C569.248 259.367 577.061 260.741 581.548 261.025C585.402 261.269 587.753 260.846 590.468 261.049C599.726 261.753 614.341 262.645 616.274 264.094C609.071 263.715 601.757 263.278 594.269 262.743C586.345 262.168 579.298 262.973 564.588 260.047C560.897 259.94 562.116 261.066 561.668 261.086ZM1358.55 131.709C1357.78 130.904 1375.26 124.402 1375.56 124.706C1375.69 124.913 1370 127.128 1369.23 127.523C1369.22 127.525 1369.22 127.527 1369.21 127.529C1368.89 127.697 1370.76 127.394 1368.14 128.531C1364.93 129.602 1361.73 130.661 1358.55 131.709ZM87.3225 209.286C86.2967 209.477 76.6733 208.805 65.1016 207.945C47.2405 206.568 25.9625 205.347 24.8799 205.134C24.4246 205.027 25.0805 204.777 24.9076 204.607C36.7883 205.927 52.3168 206.188 65.1901 206.91C67.131 207.017 68.9807 207.13 70.7108 207.254C74.3211 207.513 73.1989 207.91 73.4029 207.935C73.4115 207.936 73.4201 207.936 73.4286 207.937C75.4796 208.1 84.7765 207.642 87.3225 209.286ZM460.396 250.295C462.863 250.353 465.327 250.408 467.788 250.462C468.355 250.952 468.922 251.442 469.489 251.932C469.484 251.932 469.478 251.931 469.473 251.93C466.451 251.389 463.426 250.843 460.396 250.295ZM375.575 241.777C376.211 241.551 376.846 241.325 377.481 241.098C383.648 241.802 389.787 242.499 395.899 243.189C395.306 242.948 394.712 242.706 394.118 242.463C403.356 243.114 407.222 244.636 412.184 245.07C412.178 245.069 412.173 245.069 412.167 245.068C412.704 245.114 413.432 244.57 415.421 244.783C419.994 245.277 433.01 246.56 434.489 247.361C437.657 249.086 411.583 245.404 406.615 244.864C404.39 244.628 401.637 244.851 400.283 244.703C398.822 244.54 396.93 243.569 393.361 243.164C392.323 243.048 380.611 242.516 375.575 241.777ZM267.147 227.848C269.126 227.398 272.985 228.506 274.442 228.566C274.791 228.58 272.178 227.705 275.454 227.918C276.325 228.408 277.195 228.899 278.065 229.39C274.438 228.875 270.799 228.361 267.147 227.848ZM1388.1 120.695C1387.62 121.001 1378.17 124.689 1377.69 124.796C1371.68 126.172 1391.26 118.58 1388.1 120.695ZM1627.53 38.991C1623.62 40.8893 1676.42 26.5478 1681.54 25.9645C1681.21 25.3643 1668.71 28.7583 1675.13 26.45C1668.97 28.2354 1650.79 32.3052 1647.15 33.4062C1644.74 34.103 1644.26 34.8168 1643.9 34.9282C1642.52 35.3261 1629.12 38.1497 1627.53 38.991ZM1726.16 17.6206C1720.93 18.4595 1715.39 19.4377 1710.66 20.3511C1716.21 19.4871 1723.02 18.5116 1729.05 17.7766C1728.09 17.7216 1727.13 17.6696 1726.16 17.6206ZM1732.7 17.0288C1732.66 17.3271 1736.96 16.8086 1741.6 16.2956C1746.9 15.7024 1752.52 15.1707 1754.81 15.0746C1749.62 14.4697 1740.34 16.2571 1732.7 17.0288ZM1450.97 98.4292C1443.32 101.879 1439.46 100.816 1448.97 98.311C1449.28 98.2316 1451.29 98.2799 1450.97 98.4292ZM521.728 262.481C520.324 262.38 502.957 261.762 502.036 261.124C499.084 259.122 510.255 260.927 514.141 260.655C520.386 260.212 511.462 258.509 526.355 260.547C525.778 260.152 525.201 259.757 524.625 259.362C533.379 260.068 530.281 262.134 531.821 262.58C532.292 262.717 537.775 263.013 538.745 263.249C550.874 266.227 523.034 262.621 521.728 262.481ZM1262.69 169.825C1247.69 175.822 1253.81 172.496 1238.32 177.769C1237.56 177.408 1260.46 170.071 1262.69 169.825ZM679.987 270.846C663.161 270.202 649.29 270.671 633.663 268.653C634.778 266.879 684.332 270.574 679.987 270.846ZM-106.168 212.821C-53.3635 204.474 6.64604 206.047 64.8448 210.943C78.0622 212.053 90.9892 213.202 103.556 214.338C111.014 215.014 111.805 214.348 114.579 214.681C116.387 214.899 116.013 215.463 118.418 215.689C186.831 222.098 252.625 230.32 317.882 238.242C334.839 240.297 351.639 242.316 368.549 244.283C373.828 244.9 399.007 246.525 404.179 249.252C408.025 251.318 390.132 247.933 387.139 247.584C384.878 247.323 384.683 248.055 383.175 247.876C381.574 247.686 382.964 247.337 381.105 247.105C373.258 246.123 364.46 245.259 357.424 244.362C344.277 242.686 330.876 240.996 317.734 239.364C261.702 232.397 206.424 225.998 150.017 220.389C141.673 219.561 143.318 220.295 142.9 220.255C142.895 220.253 142.889 220.251 142.884 220.249C118.155 217.814 91.965 215.022 64.7084 212.536C41.879 210.456 19.9796 209.03 -2.16318 208.565C-35.6631 207.938 -69.8439 208.682 -103.242 212.76C-104.225 212.777 -105.2 212.797 -106.168 212.821ZM557.716 263.56C553.299 265.438 552.511 263.136 537.344 262.711C536.152 262.22 534.961 261.728 533.769 261.234C541.753 262.045 549.715 262.82 557.742 263.562C557.733 263.562 557.725 263.561 557.716 263.56ZM457.846 254.569C454.892 257.334 421.504 251.356 406.177 250.1C403.595 248.25 425.63 251.546 430.8 251.972C433.344 252.188 447.558 252.237 458.027 254.276C457.967 254.374 457.906 254.471 457.846 254.569ZM1573.69 57.7125C1571.39 58.3828 1569.06 59.0636 1566.72 59.7549C1572.46 57.6868 1578.1 55.6894 1583.64 53.7615C1574.74 56.646 1565.58 59.7028 1556.13 62.9384C1558.04 62.7451 1559.93 62.5564 1561.81 62.3724C1565.82 60.7834 1569.78 59.2304 1573.69 57.7125ZM1542.99 67.4918C1560.1 61.9685 1541.5 66.9716 1538.26 68.5985C1536.02 69.6666 1541.41 68.0022 1542.99 67.4918ZM1501.25 82.7453C1509.42 80.6016 1524.71 75.3073 1518.74 75.8252C1510.91 79.3012 1504.77 80.846 1493.38 85.3895C1495.17 85.0532 1496.84 84.7572 1498.71 84.3913C1498.72 84.3883 1498.73 84.3853 1498.74 84.3824C1499.57 83.8349 1500.41 83.2892 1501.25 82.7453ZM1551.02 65.7419C1556.36 63.5448 1551.15 65.111 1545.76 66.9447C1540.39 68.7732 1535.68 70.5988 1540.37 69.303C1540.6 69.2445 1550.6 65.9064 1551.02 65.7419ZM-34.4327 210.476C-35.8901 209.927 -26.8183 209.94 -24.2018 209.945C-11.8331 209.883 4.07412 210.627 17.2873 211.219C16.3282 211.367 15.3859 211.516 14.3488 211.662C-2.20389 210.883 -18.095 210.456 -34.4327 210.476ZM57.7299 213.869C59.9833 214.05 62.2553 214.237 64.5462 214.431C71.3504 215.007 78.1042 215.595 84.8093 216.193C85.643 216.266 89.489 217.173 86.5786 217.047C79.29 216.211 71.942 215.391 64.5327 214.588C62.2466 214.342 59.979 214.102 57.7299 213.869ZM613.93 271.786C607.017 271.807 626.73 274.936 625.961 272.681C621.95 272.395 617.94 272.097 613.93 271.786ZM678.024 275.168C673.698 274.871 669.378 274.556 665.065 274.225C665.052 274.476 665.038 274.726 665.024 274.976C669.353 275.056 673.686 275.121 678.024 275.168ZM-69.347 211.652C-64.5055 210.787 -54.3324 210.52 -47.2008 210.401C-52.1646 211.023 -62.69 211.044 -69.347 211.652ZM510.916 264.579C511.551 264.066 484.332 261.454 493.634 263.456C499.408 263.845 505.168 264.22 510.916 264.579ZM455.56 259.661C461.379 260.44 465.905 260.725 464.821 259.662C461.732 259.364 458.639 259.063 455.541 258.759C455.547 259.06 455.553 259.36 455.56 259.661ZM1473.54 94.18C1464.42 97.5129 1454.59 101.169 1445.54 104.579C1445.94 104.622 1446.34 104.665 1446.73 104.708C1455.6 101.364 1464.96 97.8863 1473.77 94.6614C1473.7 94.5009 1473.62 94.3404 1473.54 94.18ZM-74.7744 213.528C-81.1715 213.743 -88.366 214.141 -94.7577 214.608C-88.3864 213.919 -81.2045 213.286 -74.8111 212.826C-74.7933 213.061 -74.7754 213.296 -74.7575 213.53C-74.7631 213.53 -74.7688 213.529 -74.7744 213.528ZM1601.27 53.0543C1572.08 62.7574 1610.08 51.8757 1616.75 48.9418C1616.75 48.9403 1616.76 48.9389 1616.77 48.9375C1617.39 48.6616 1615.89 48.6177 1616.91 48.133C1614.13 49.1459 1611.33 50.1794 1608.49 51.2336C1605.77 51.7671 1603.02 52.3153 1600.25 52.8781C1599.39 53.243 1598.53 53.6099 1597.67 53.9787C1598.87 53.6676 1600.08 53.3594 1601.27 53.0543ZM1718.08 25.1872C1745.8 20.9544 1716.68 24.0354 1704.61 27.2583C1704.82 27.3913 1715.71 25.554 1718.08 25.1872ZM1649.03 39.8291C1644.96 40.7762 1640.81 41.7662 1636.59 42.8002C1636.09 43.0676 1635.59 43.3359 1635.09 43.605C1638.36 42.8489 1641.58 42.1184 1644.75 41.4131C1646.19 40.8789 1647.61 40.3509 1649.03 39.8291ZM1515.8 83.7711C1509.24 86.3004 1500.32 87.7459 1521.54 80.6462C1521.59 80.81 1521.64 80.9739 1521.69 81.1378C1520.85 81.4054 1518.35 82.1243 1518.21 82.1846C1517.84 82.3622 1518.51 82.7334 1515.8 83.7711ZM1767.95 23.1927C1768.7 23.2298 1769.34 24.4729 1777.02 22.9241C1779.36 22.9801 1781.46 23.062 1783.84 23.183C1784.5 22.8983 1785.15 22.6172 1785.8 22.3396C1776.63 22.4004 1775.91 21.9605 1775.19 21.9279C1772.15 21.9368 1774.41 22.1967 1772.43 22.2534C1767.03 22.3609 1755.8 22.9761 1760.94 23.5201C1761.87 23.6182 1763.27 23.5308 1764.71 23.422C1766.22 23.309 1767.56 23.1859 1767.95 23.1927ZM1750.19 25.3104C1751.32 25.0778 1747.6 25.0431 1748.45 24.8397C1749.29 24.6072 1760.24 23.2518 1757.22 22.8229C1755.43 22.9919 1753.62 23.1771 1751.78 23.3786C1751.17 23.626 1750.56 23.8757 1749.95 24.1275C1748.13 24.1316 1746.28 24.15 1744.39 24.1832C1741.22 25.0079 1735.6 26.353 1742.68 25.8627C1740.09 26.1327 1737.44 26.4323 1734.74 26.7624C1733.31 26.727 1731.86 26.6989 1730.4 26.6783C1731.2 26.9173 1732 27.158 1732.78 27.4001C1738.53 26.5981 1744 25.92 1750.19 25.3104ZM1831.51 32.2649C1831.32 32.0047 1831.13 31.7441 1830.94 31.4833C1839.56 35.1303 1848.47 44.6028 1843.78 38.807C1834.96 31.0647 1822.58 26.7402 1809.54 24.399C1808.67 24.3748 1807.8 24.3575 1806.91 24.3476C1816.29 25.4856 1813.42 26.931 1821.38 28.4671C1822.74 28.8354 1819.04 26.7364 1827.22 30.0729C1826.87 30.1078 1826.51 30.1447 1826.15 30.1836C1828.05 30.8371 1829.84 31.5326 1831.51 32.2649ZM1852.38 96.4875C1856.42 81.0002 1851.5 97.8178 1850.62 100.819C1850.63 100.814 1850.63 100.81 1850.63 100.805C1849.01 108.762 1854.3 92.1474 1854.28 90.9382C1854.57 89.6467 1856.48 86.4799 1856.13 78.8357C1855.5 84.731 1854.18 90.6506 1852.38 96.4875ZM1850.66 48.5041C1851.23 49.5405 1851.11 48.8695 1851.36 49.3172C1851.36 49.3211 1851.36 49.325 1851.37 49.329C1856.13 55.5083 1856.9 74.9382 1856.79 77.2348C1857.13 74.1878 1857.58 65.6533 1855.6 58.4553C1853.82 51.1835 1849.65 45.7169 1849.01 45.3234C1849.61 46.3569 1850.15 47.3948 1850.66 48.5041ZM1800.01 23.8664C1794.27 23.8044 1807.22 25.1824 1810.09 25.61C1810.67 25.6728 1806.2 23.9591 1800.01 23.8664ZM1375.54 143.394C1363.34 147.751 1378.92 140.995 1373.16 142.479C1375.48 141.623 1377.81 140.761 1380.14 139.893C1378.6 141.061 1377.07 142.228 1375.54 143.394ZM801.932 287.863C798.861 288.169 800.282 287.49 800.014 287.499C797.995 287.64 796.121 288.231 795.344 288.226C780.996 288.062 790.475 287.033 790.609 286.914C790.876 286.315 787.092 285.84 792.245 284.889C795.409 284.919 798.581 284.938 801.76 284.946C803.305 284.525 804.88 284.1 806.397 283.677C812.624 283.956 804.576 284.685 803.657 285.661C803.319 286.046 809.282 286.094 801.932 287.863ZM1354.75 153.326C1352.51 153.332 1347.41 154.21 1351.71 151.646C1351.71 151.644 1351.72 151.642 1351.73 151.64C1352.52 151.168 1355.97 149.726 1356.96 149.109C1365.05 147.092 1362.54 149.286 1354.75 153.326ZM858.48 284.974C863.505 284.217 868.546 283.432 873.606 282.619C873.447 282.031 873.289 281.443 873.131 280.854C870.432 281.324 867.738 281.786 865.048 282.239C864.068 282.068 863.089 281.895 862.111 281.722C865.39 280.682 868.672 279.633 871.959 278.573C876.04 278.356 880.158 278.118 884.249 277.864C882.437 278.403 880.583 278.943 878.753 279.477C888.797 278.633 886.306 277.459 894.359 275.881C897.207 276.076 900.063 276.26 902.93 276.433C906.889 275.339 910.856 274.229 914.834 273.103C921.7 272.379 922.378 272.696 917.866 273.993C921.379 274.213 924.947 272.538 928.963 272.222C929.297 272.195 928.783 272.959 929.077 272.923C949.919 270.139 948.596 268.45 951.909 267.843C954.255 267.406 963.96 266.927 964.193 267.29C964.396 267.788 945.356 273.424 975.84 267.974C960.59 272.345 941.838 273.873 953.247 269.741C948.201 270.869 926.106 273.8 924.758 274.029C922.707 274.437 923.554 275.16 920.945 275.568C919.404 275.801 915.002 274.538 903.132 277.848C901.54 277.743 899.951 277.635 898.366 277.523C896.957 277.971 895.548 278.417 894.141 278.861C897.236 279.401 900.344 279.928 903.466 280.442C891.491 281.043 882.027 284.103 874.466 283.355C868.194 284.261 865.175 284.765 867.964 285.291C866.078 285.499 864.195 285.703 862.314 285.903C861.034 285.596 859.756 285.286 858.48 284.974ZM1318.74 165.944C1313.27 168.843 1310.59 168.041 1311.44 167.62C1316.28 165.255 1321.59 164.435 1318.74 165.944ZM813.157 286.02C819.956 285.01 826.78 283.951 833.628 282.842C833.685 283.483 833.743 284.123 833.8 284.764C826.884 285.236 820.004 285.654 813.157 286.02ZM1377.75 143.743C1378.18 143.157 1378.61 142.571 1379.04 141.985C1386.53 140.473 1392.68 135.809 1396.31 134.769C1397.1 134.542 1395.85 135.776 1394.47 136.493C1393.6 136.956 1379.01 143.385 1377.75 143.743ZM1666.6 42.1399C1663.88 42.6087 1660.75 43.1895 1658.34 43.6086C1658.56 43.8952 1658.79 44.1818 1659.01 44.4684C1660.21 44.222 1661.65 43.9202 1663.02 43.637C1664.22 43.133 1665.41 42.6339 1666.6 42.1399ZM1636.57 49.5191C1631.89 50.8518 1626.54 52.4026 1622.33 53.669C1640.34 48.8094 1625.64 53.1822 1636.85 50.4739C1636.75 50.1556 1636.66 49.8374 1636.57 49.5191ZM1589.19 64.4686C1589.86 64.4811 1590.53 64.4942 1591.19 64.5078C1596.04 62.9646 1600.81 61.4729 1605.5 60.0316C1602.76 61.6412 1600 63.2757 1597.21 64.9355C1595.45 65.4918 1593.69 66.0549 1591.92 66.6248C1591.01 65.9065 1590.1 65.1877 1589.19 64.4686ZM666.281 292.764C663.246 292.719 652.754 291.385 653.214 291.019C657.621 290.702 661.992 290.368 666.383 290.019C666.382 290.686 666.382 291.352 666.382 292.018C667.011 291.702 667.64 291.386 668.268 291.069C670.751 291.378 673.235 291.68 675.723 291.977C676.995 291.42 678.266 290.863 679.535 290.304C680.783 290.989 682.033 291.672 683.285 292.354C671.199 293.335 671.651 292.136 669.146 292.098C667.876 292.074 667.061 292.466 666.604 292.663C666.496 292.696 666.389 292.73 666.281 292.764ZM818.204 289.783C803.976 291.004 795.466 289.783 785.161 291.766C791.726 288.525 834.947 288.681 849.904 284.502C851.511 284.831 853.121 285.157 854.735 285.479C846.527 285.873 840.882 287.381 836.828 287.885C833.619 288.281 833.912 287.743 833.666 287.772C833.655 287.773 833.643 287.774 833.631 287.775C826.131 288.622 823.856 289.288 818.204 289.783ZM1388.32 141.482C1385 143.496 1378.76 145.958 1378.35 145.167C1381.7 143.537 1385.06 141.897 1388.43 140.248C1387.8 140.746 1388.89 141.139 1388.32 141.482ZM1584.64 68.1202C1582.06 69.2138 1575.56 71.1331 1578.12 69.6069C1578.59 69.328 1585.08 67.6861 1580.98 67.7974C1587.16 65.8076 1586.11 67.4961 1584.64 68.1202ZM1060.09 248.945C1062.53 248.391 1064.96 247.83 1067.41 247.262C1068.08 247.53 1068.76 247.797 1069.43 248.064C1066.31 248.37 1063.19 248.664 1060.09 248.945ZM1418.76 129.653C1421.17 126.836 1427.06 126.231 1432.18 122.679C1434.26 121.83 1436.34 120.987 1438.41 120.15C1438.42 120.148 1438.42 120.146 1438.43 120.144C1438.66 120.543 1438.9 120.943 1439.13 121.342C1432.45 124.046 1425.66 126.816 1418.76 129.653ZM905.219 279.365C906.73 278.881 908.242 278.395 909.756 277.906C912.568 277.836 915.39 277.757 918.219 277.668C916.749 278.113 915.281 278.556 913.814 278.998C910.941 279.13 908.076 279.253 905.219 279.365ZM1455.46 115.099C1448.19 118.194 1445.03 117.885 1454.24 114.253C1458.4 112.624 1463.43 111.743 1455.46 115.099ZM510.973 282.132C513.771 282.226 516.566 282.316 519.359 282.401C520.261 282.912 521.162 283.422 522.064 283.931C518.369 283.339 514.672 282.739 510.973 282.132ZM1620.55 56.7836C1620.18 56.6236 1619.81 56.4637 1619.44 56.3037C1617.2 57.0227 1614.95 57.7542 1612.67 58.4983C1613.33 58.5714 1613.98 58.645 1614.63 58.7189C1616.62 58.0641 1618.59 57.419 1620.55 56.7836ZM529.674 283.599C531.897 283.716 534.12 283.831 536.341 283.943C537.808 284.277 539.275 284.611 540.742 284.943C538.652 284.97 536.561 284.995 534.468 285.017C532.87 284.546 531.272 284.073 529.674 283.599ZM1526.33 88.1812C1523.61 89.5248 1511.58 92.7608 1521.95 88.7029C1528.51 86.1509 1526.74 87.9802 1526.33 88.1812ZM1541.7 83.056C1531.34 87.4215 1537.86 81.5902 1551.79 78.9955C1538.37 83.3549 1542.4 82.7754 1541.7 83.056ZM1639.56 53.3583C1639.84 53.2773 1639.97 52.7995 1642.22 52.153C1650.55 49.7675 1659.94 47.0908 1666.49 45.4299C1681 41.3685 1722.62 33.5977 1728.41 31.9572C1729.44 31.5609 1726.88 31.2605 1727.31 31.1573C1728.61 30.8372 1735.82 30.1149 1734.42 29.8122C1727.63 30.781 1719.47 32.1272 1713.09 33.324C1714.84 33.3749 1716.56 33.4346 1718.26 33.5028C1701.32 36.4222 1706.76 35.5064 1701.57 35.6902C1698.61 36.6124 1695.59 37.5691 1692.52 38.5609C1686.15 39.6295 1679.93 40.7383 1673.28 42.009C1674.82 41.887 1676.35 41.7707 1677.86 41.66C1668.22 44.4423 1670.83 43.5232 1665.2 44.3104C1665.25 44.5512 1665.3 44.7919 1665.35 45.0326C1655.45 46.931 1654.44 48.0168 1652.33 48.5834C1648.23 49.7338 1642.32 48.1179 1626.57 55.8068C1619.76 56.2929 1620.75 59.1102 1616.48 58.8137C1606.14 63.7044 1625.95 56.9593 1637.16 53.7832C1637.16 53.7816 1637.17 53.7801 1637.17 53.7784C1637.96 53.5512 1636.79 54.164 1639.56 53.3583ZM1580.98 69.7149C1588.14 68.798 1561.7 77.7696 1569.81 72.9029C1571.11 72.3978 1572.41 71.8963 1573.69 71.3986C1576.15 70.8252 1578.58 70.2624 1581 69.7099C1580.99 69.7116 1580.99 69.7133 1580.98 69.7149ZM1331.06 166.565C1305.77 175.483 1319.61 169.137 1328.46 166.787C1330.23 166.313 1331.26 166.196 1331.06 166.565ZM797.768 292.795C797.355 292.567 796.942 292.339 796.529 292.11C805.783 291.823 823.034 289.549 822.976 291.238C814.558 291.833 806.299 292.343 797.768 292.795ZM869.616 287.686C867.674 288.012 859.759 289.104 860.651 288.373C864.039 287.567 867.432 286.749 870.831 285.919C872.47 286.013 874.113 286.105 875.758 286.193C873.518 286.549 870.141 287.602 869.616 287.686Z" fill="url(#paint0_linear_1506_2099)" fill-opacity="0.75"/>
<defs>
<linearGradient id="paint0_linear_1506_2099" x1="444.225" y1="700.503" x2="78.446" y2="311.155" gradientUnits="userSpaceOnUse">
<stop stop-color="#EBE0C2"/>
<stop offset="1" stop-color="#CAB08F" stop-opacity="0.2"/>
</linearGradient>
</defs>
</svg>
