<svg width="684" height="93" viewBox="0 0 684 93" fill="none" xmlns="http://www.w3.org/2000/svg">
<g clip-path="url(#clip0_1506_2121)">
<path d="M0.554688 7.5C0.554688 4.73858 2.79326 2.5 5.55469 2.5H677.555C680.316 2.5 682.555 4.73858 682.555 7.5V86.5C682.555 89.2614 680.316 91.5 677.555 91.5H5.55468C2.79326 91.5 0.554688 89.2614 0.554688 86.5V7.5Z" fill="#F9F2EA"/>
<path d="M207.339 92.5L249.555 3.5H6.55469V92.5H207.339Z" fill="#8A0000"/>
<path d="M246.823 17.9007C241.796 30.1319 237.261 37.9579 231.904 48.9758C225.379 62.3963 217.863 78.2592 210.444 93.9732L209.556 95.9095L207.339 95.9376C193.311 95.9636 179.398 96.0057 167.077 95.9974C146.2 95.9833 124.987 95.9334 104.236 95.8934C103.172 95.8914 102.537 95.8148 102.054 95.8138C97.5106 95.8048 89.8917 95.8743 85.3846 95.8641C75.9038 95.843 59.4072 95.8549 50.7237 95.7831C47.0363 95.7526 43.2539 95.74 41.8207 95.5575C40.4733 95.5482 39.7379 95.7131 39.386 95.722C39.382 95.7219 39.378 95.7217 39.374 95.7215C38.2408 95.7494 35.3793 95.6338 34.7479 95.641C34.6534 95.6421 35.2348 95.7615 33.7027 95.7254C33.5663 95.7224 33.6923 95.6412 32.4023 95.64C32.0665 95.6397 27.7522 95.7642 26.5192 95.7718C22.4159 95.7966 12.6171 95.6989 7.71129 95.7005C7.25983 95.7005 6.92353 95.7177 6.55469 95.7316L3.36453 95.772L3.32306 92.5C3.31388 92.2559 3.30614 91.9974 3.3058 91.6819C3.30531 91.2726 3.35687 90.659 3.35658 90.5332C3.35475 89.9813 3.12063 87.5702 3.58265 88.4357C3.55336 85.9184 3.40061 86.66 3.30141 86.6031C3.28708 83.8704 3.50468 82.5533 3.27407 81.8397C3.3019 68.4013 3.32973 54.9628 3.35756 41.5244C3.31996 41.5204 3.28237 41.5164 3.24477 41.5124C3.39494 37.5515 3.14093 36.1927 3.35902 33.9314C3.31101 32.5371 3.263 31.1428 3.21499 29.7484C3.25113 20.9928 3.26795 12.2422 3.27273 3.5L3.23168 0.260157L6.55469 0.218046C33.5923 0.232841 60.5491 0.132532 87.3231 0.132956C88.8185 0.132956 89.1918 0.212956 91.6579 0.21352C94.3807 0.214081 98.2102 0.121106 101.799 0.122214C104.946 0.123059 109.59 0.198742 113.1 0.21059C113.893 0.213126 114.466 0.162458 114.555 0.16274C115.079 0.16472 115.106 0.244935 115.614 0.24721C116.223 0.249747 116.958 0.190325 117.661 0.193989C120.289 0.207223 123.152 0.186742 123.484 0.18813C125.087 0.195724 125.44 0.274174 125.572 0.275041C127.355 0.284616 126.686 0.213807 127.13 0.217914C129.434 0.239614 131.062 0.416371 134.215 0.246722C134.129 0.312312 134.043 0.377903 133.957 0.443493C136.371 0.480399 134.777 0.306115 135.27 0.274553C135.471 0.262859 140.666 0.284144 141.066 0.287248C142.462 0.298517 142.499 0.38568 142.62 0.386854C142.913 0.389672 146.424 0.290747 148.223 0.366835C150.353 0.457003 147.846 0.634311 148.375 0.667607C148.464 0.673243 150.694 0.655071 150.993 0.710575C151.323 0.77029 149.396 0.769024 149.425 0.794068C149.446 0.811258 152.647 0.934354 152.033 1.01721C151.54 1.1003 147.198 0.993757 146.278 1.03283C146.126 1.0393 146.412 1.14186 146.278 1.14562C145.737 1.15942 135.732 1.16251 135.275 1.14562C135.796 1.09891 136.317 1.0522 136.838 1.00549C136.145 1.00077 135.452 0.996048 134.759 0.991328C135.744 0.953894 136.729 0.916461 137.714 0.879027C136.251 0.494411 131.842 0.884311 131.66 1.07629C131.581 1.16506 134.276 1.39345 131.768 1.52647C132.15 1.54925 132.531 1.57204 132.912 1.59483C133.698 1.55739 134.484 1.51996 135.27 1.48252C134.747 1.45892 134.223 1.43532 133.7 1.41173C133.892 1.38503 134.085 1.35834 134.278 1.33165C135.747 1.28884 137.216 1.24604 138.685 1.20324C139.44 1.22296 139.283 1.30176 139.802 1.317C146.276 1.50891 142.053 1.2647 146.292 1.29991C146.897 1.34223 147.503 1.38455 148.108 1.42686C147.894 1.25185 149.772 1.36174 152.043 1.28624C151.772 1.34288 151.5 1.39952 151.229 1.45616C154.519 1.426 161.187 1.71156 159.388 1.39903C160.142 1.42572 160.895 1.45241 161.649 1.47911C162.286 1.428 162.922 1.3769 163.559 1.32579C164.439 1.33165 165.318 1.33751 166.198 1.34337C166.202 1.37104 166.206 1.3987 166.21 1.42637C165.509 1.42654 164.807 1.4267 164.105 1.42686C164.632 1.51117 165.159 1.59548 165.685 1.67978C166.203 1.66579 166.721 1.65179 167.238 1.63779C165.067 1.55805 167.93 1.42781 168.623 1.31651C170.454 1.27538 171.624 1.41986 172.238 1.42637C172.526 1.42947 175.926 1.17457 174.593 1.45469C176.342 1.42068 178.091 1.38666 179.84 1.35264C180.524 1.37413 181.208 1.39561 181.892 1.4171C180.408 1.54757 184.71 1.70478 181.541 1.75888C179.174 1.79946 178.591 1.67747 177.468 1.67832C176.456 1.67892 175.921 1.76108 174.819 1.76474C167.411 1.78785 161.376 1.77278 154.34 1.73642C152.95 1.72912 151.686 1.7694 150.752 1.76377C149.698 1.75727 151.019 1.65422 149.676 1.6793C148.265 1.70581 147.96 1.78991 147.588 1.7916C147.356 1.79255 146.621 1.71689 145.945 1.71689C143.167 1.71691 139.096 1.79007 138.702 1.78964C138.256 1.7888 130.399 1.72053 130.023 1.7081C129.823 1.70134 130.237 1.42195 128.505 1.71982C127.965 1.72536 127.425 1.73089 126.885 1.73642C126.972 1.6806 127.06 1.62477 127.147 1.56895C123.947 1.78058 125.047 1.66218 121.962 1.67881C114.575 1.71882 103.677 1.67178 95.5976 1.6915C93.7933 1.69602 93.1059 1.76286 90.9715 1.76767C88.9885 1.7719 83.8106 1.57245 84.9366 1.84872C80.5243 1.60949 79.815 2.02203 77.6062 1.76474C77.3388 1.80218 77.0715 1.83961 76.8042 1.87704C74.4066 1.71642 73.6665 1.85759 71.0487 1.87704C69.9206 1.8855 71.2211 1.71465 68.944 1.90487C68.5089 1.89071 68.0738 1.87655 67.6387 1.8624C67.7399 1.82106 67.841 1.77972 67.9422 1.73838C65.4133 1.77219 65.2502 1.75065 65.5388 1.90536C64.3178 1.87721 63.0969 1.84905 61.876 1.82089C61.7242 1.87167 61.5725 1.92245 61.4208 1.97323C62.0058 2.07009 89.7281 1.92402 93.5892 1.87753C98.1169 1.99247 107.213 1.84877 110.87 1.87607C112.334 1.88706 112.981 2.0019 115.111 2.01571C117.241 2.02951 119.921 1.9252 121.054 1.92148C124.832 1.90851 142.73 1.93143 130.557 2.0743C130.907 2.13029 131.257 2.18628 131.607 2.24227C136.444 2.05122 134.693 2.16883 138.706 2.18856C140.396 2.19697 144.414 2.07195 144.19 2.32625C141.052 2.37359 137.719 2.29231 134.991 2.29598C134.72 2.29637 131.49 2.41248 129.827 2.38093C128.328 2.35214 129.36 2.10972 126.097 2.38191C123.674 2.11602 122.272 2.35725 121.632 2.38289C120.526 2.42735 120.405 2.29612 119.299 2.28084C118.094 2.26396 117.265 2.35107 117.1 2.35164C115.448 2.35361 106.843 2.36549 106.449 2.31258C106.795 2.2893 107.141 2.26603 107.487 2.24275C105.252 2.2053 105.719 2.33948 105.132 2.35554C104.694 2.35506 104.257 2.35457 103.819 2.35408C103.993 2.32625 104.166 2.29842 104.339 2.27059C101.7 2.2765 103.72 2.37322 99.9733 2.37068C97.5946 2.36897 95.1377 2.26273 94.9065 2.27059C94.8383 2.27284 95.5872 2.34447 94.6175 2.35408C93.0123 2.36986 90.2369 2.36803 89.9264 2.27059C89.1402 2.28438 89.2073 2.37974 89.1028 2.38191C88.6464 2.39121 80.7928 2.42363 79.3858 2.42927C75.4874 2.44477 71.1472 2.42444 66.9235 2.4405C66.4892 2.44211 66.7663 2.38092 66.3311 2.38289C65.6324 2.38602 62.0457 2.48206 61.5099 2.48884C60.1726 2.50546 56.6547 2.46737 56.1012 2.49519C56.0224 2.49913 57.1803 2.58184 55.8266 2.60749C54.3238 2.63586 55.1329 2.52462 55.0512 2.52351C51.9926 2.48547 50.0616 2.56276 47.9736 2.57771C47.2969 2.58249 46.0482 2.49877 45.0934 2.52351C44.9835 2.52632 45.2013 2.60368 45.0934 2.60749C43.6505 2.64807 42.3005 2.50449 41.6762 2.49519C40.1485 2.47245 40.9804 2.57842 40.9007 2.57917C39.883 2.58255 38.5133 2.54433 36.9658 2.54939C30.0663 2.57193 24.4358 2.5784 17.1008 2.57136C16.1797 2.57051 15.0863 2.49577 14.9454 2.49568C14.51 2.49624 14.6345 2.58407 13.3753 2.5821C11.0338 2.57812 8.84272 2.58096 6.55469 2.58052L5.62371 2.59232L5.63521 3.5C5.63515 3.8061 5.63503 4.11392 5.63483 4.42407C5.63448 4.95326 5.5531 5.17894 5.55134 5.5824C5.54627 6.93572 5.75936 11.5511 5.49421 11.6269C5.72894 14.3132 5.52663 16.0975 5.52888 18.259C5.53395 23.3799 5.58178 31.3982 5.55134 36.5034C5.54482 37.5782 5.47688 38.0825 5.47322 38.6804C5.46648 39.7527 5.50443 45.883 5.49372 46.2035C5.47315 46.8331 5.17397 46.4557 5.43464 49.693C5.45322 51.5908 5.33043 51.3667 5.32381 51.7592C5.27449 54.818 5.54853 57.7939 5.29744 57.2378C5.36562 60.7994 5.50438 63.1076 5.26961 64.561C5.38418 64.5421 5.45291 66.2171 5.40925 68.2359C5.21679 66.1688 5.09379 66.4247 5.12899 61.4256C5.12955 61.3469 5.21241 61.4971 5.21297 61.4184C5.21857 60.7045 5.17674 59.2154 5.18123 57.9988C5.18574 56.7819 5.24238 57.4575 5.24129 56.9705C5.24016 56.5245 5.16088 56.5394 5.15975 55.894C5.15665 53.8007 5.13479 51.9483 5.13338 50.7574C5.13256 50.0072 5.20223 49.1675 5.20223 48.5852C5.20166 46.3341 5.14726 41.5642 5.15487 38.6996C5.15664 38.1028 5.23481 38.3533 5.24129 37.0476C5.24205 36.8951 5.16054 36.3389 5.14364 35.1957C5.12674 34.0522 5.16721 33.1656 5.15877 32.4312C5.15173 31.8174 5.07932 32.0739 5.07479 30.8153C5.07113 29.7659 5.1233 17.8809 5.13485 17.2356C5.1515 16.3072 5.2532 15.866 5.2408 15.2994C5.23815 15.1997 5.13993 15.0309 5.1329 14.6853C5.07867 12.0234 5.07902 7.85271 5.0947 3.5L5.07644 2.05875L6.55469 2.04002C11.5194 2.0579 16.721 2.09574 20.1904 2.0953C33.8002 2.09389 46.3562 2.0361 60.0867 2.01327C60.3315 1.99618 60.5763 1.97909 60.8212 1.962C59.4333 1.96135 58.0454 1.9607 56.6574 1.96005C56.6486 1.91383 56.6398 1.8676 56.631 1.82138C54.7546 1.81406 55.0032 1.92338 55.056 1.98934C54.3616 1.96135 53.6673 1.93336 52.9729 1.90536C52.3739 2.06644 47.7432 1.95931 45.3559 1.95956C43.8031 1.95956 41.9555 2.02097 41.1368 2.0162C39.4069 2.00634 39.4521 1.90695 39.3162 1.90536C39.0853 1.90311 36.6704 1.99077 34.9285 1.98739C32.3532 1.98256 32.0746 1.82994 28.5492 1.95956C24.032 1.88038 19.0267 1.92023 14.158 1.93319C15.085 1.79212 10.7217 1.92564 8.75402 1.92343C8.03051 1.9226 7.29701 1.9216 6.55469 1.92044L4.95536 1.9407L4.97512 3.5C4.95706 15.0742 4.90067 28.7926 4.84824 40.2216C4.84119 41.7845 4.75809 42.9654 4.76084 43.8363C4.76225 44.3085 4.86022 44.5146 4.84726 45.1704C4.84477 45.2856 4.75315 45.3657 4.73935 46.5864C4.70469 49.6243 4.85759 57.1914 4.68174 59.1065C4.70892 69.493 4.7361 79.8794 4.76328 90.2659C4.72584 90.5268 4.68841 90.7877 4.65098 91.0486C4.68329 91.3819 4.70694 91.8815 4.72397 92.5L4.74746 94.3536L6.55469 94.3307C9.59766 94.2469 15.5191 94.3233 18.6805 94.3158C25.3753 94.2998 33.9175 94.2403 39.7834 94.2338C41.0581 94.2324 42.1025 94.2867 43.3089 94.2856C43.8281 94.285 44.4737 94.2146 45.0139 94.2143C51.0792 94.2089 59.2914 94.2814 65.404 94.2797C79.2817 94.276 92.3514 94.2867 106.413 94.2836C140.176 94.2758 173.801 94.2209 207.339 94.2052L208.438 94.1913L208.879 93.2308C214.665 81.0184 220.45 68.8216 226.242 56.6397C226.512 56.0711 226.572 56.1342 226.782 55.6936C228.02 53.0928 230.716 47.2525 232.114 44.3149C233.227 41.9743 235.102 38.3103 235.372 37.4511C231.255 45.6899 227.098 54.4857 222.943 63.124C222.647 63.7382 222.541 63.7817 222.504 63.857C221.815 65.2477 222.331 64.4076 221.37 66.443C221.049 67.1233 217.85 73.295 218.425 72.653C217.624 74.1143 212.553 84.6901 211.613 86.7489C211.327 87.3742 211.601 86.9655 211.546 87.0904C211.306 87.6325 211.101 87.8314 210.872 88.3088C210.338 89.4223 209.149 92.0714 208.664 93.1289L208.285 93.9553L207.339 93.9673C207.172 93.9695 207.042 93.9707 206.957 93.9706C205.387 93.9697 200.682 93.8885 198.61 93.9076C196.71 93.9251 197.066 94.0294 195.424 94.039C194.129 94.0463 195.539 93.9585 192.65 93.932C191.217 93.9191 186.207 93.9818 184.989 93.9818C183.772 93.9818 182.418 93.9194 180.739 93.9242C178.32 93.931 173.059 93.9657 170.598 93.9858C170.451 93.9869 170.093 94.068 169.731 94.0663C168.981 94.0629 169.206 93.9627 168.64 93.9526C168.074 93.9424 158.261 93.9547 156.594 93.9535C155.446 93.953 154.652 94.0126 154.018 94.0121C153.519 94.0116 153.466 93.9281 152.958 93.9272C152.801 93.9272 151.461 93.9996 150.124 93.998C148.859 93.9963 144.059 93.9273 143.503 93.9267C143.141 93.9264 143.538 93.9857 142.468 93.9843C141.493 93.9828 140.852 93.9058 140.296 93.9047C139.006 93.9022 137.564 93.9679 136.195 93.9682C132.26 93.969 132.462 93.8736 132.226 93.8705C131.571 93.8619 131.309 93.9493 131.094 93.9511C130.187 93.9584 127.963 93.9745 127.154 93.9779C126.147 93.9822 125.72 93.8991 124.65 93.8988C123.852 93.8989 122.241 93.9799 120.421 93.9838C116.318 93.9931 111.439 94.0084 107.41 94.0053C106.208 94.0044 106.024 93.9286 105.657 93.9267C103.726 93.9163 102.646 94.001 102.095 93.9999C98.1651 93.9923 91.1551 93.8593 87.5086 93.8481C86.0236 93.8436 79.5229 93.905 75.8554 93.894C75.4359 93.8928 75.8287 93.8334 75.3618 93.8427C74.2449 93.865 74.3486 93.986 73.782 93.9823C73.5087 93.9802 72.8852 93.912 72.0891 93.9052C67.9598 93.87 65.1202 93.923 63.2366 93.9193C45.1459 93.8841 26.6985 93.8524 9.804 93.8417C8.84147 93.8411 7.76083 93.8597 6.55469 93.8686L5.20367 93.8857L5.18611 92.5C5.17757 91.3458 5.17782 90.0767 5.212 88.6861C5.24959 88.5986 5.28719 88.5111 5.32478 88.4236C5.28784 88.3241 5.25089 88.2246 5.21395 88.125C5.19394 84.9039 5.14639 83.6866 5.19344 80.3972C5.19739 80.1139 5.36902 79.2491 5.15584 78.7139C5.31028 75.4556 5.15459 77.2434 5.14022 74.8247C5.12585 72.4062 5.17345 70.0559 5.18416 67.7109C5.26053 66.4254 5.43667 71.8194 5.43611 72.1709C5.43543 72.7372 5.32944 73.3257 5.32381 73.871C5.30695 75.4864 5.39106 77.0488 5.29647 77.4111C5.39648 79.4988 5.34651 76.8997 5.4366 77.1606C5.39933 78.5541 5.36206 79.9477 5.32478 81.3412C5.63119 82.0511 5.23161 89.751 5.46492 89.2159C5.41821 89.8284 5.3715 90.4409 5.32478 91.0534C5.38098 91.569 5.41879 92.0439 5.44258 92.5L5.45685 93.626L6.55469 93.6121C8.47427 93.512 10.0614 93.66 12.9563 93.7304C12.6978 93.693 12.4393 93.6555 12.1809 93.6181C12.2542 93.6025 15.4162 93.5426 14.2856 93.7021C17.5271 93.492 17.3906 93.8415 20.2964 93.5888C22.0226 93.5564 20.9847 93.7031 24.0748 93.7006C25.906 93.6992 28.1791 93.6225 30.2253 93.6171C30.6967 93.6161 30.9017 93.7011 31.321 93.7011C31.7403 93.7011 31.9449 93.6177 32.4529 93.6156C33.5022 93.6111 34.8626 93.6696 35.5185 93.664C36.1061 93.6592 36.9461 93.5857 38.3625 93.5741C43.3091 93.5333 41.8149 93.6382 42.5961 93.6738C43.4356 93.7115 44.0389 93.5732 45.7123 93.5893C45.8802 93.591 45.446 93.6771 45.9916 93.6738C46.4318 93.6711 46.6532 93.5774 48.1108 93.56C48.6913 93.5529 57.7026 93.5329 59.0753 93.5312C61.1792 93.5286 65.8659 93.6079 68.0433 93.6073C68.8824 93.6073 69.7791 93.5321 70.6706 93.5326C73.6246 93.5343 78.3536 93.5407 82.0998 93.5444C85.4733 93.5478 91.3951 93.7137 93.2425 93.5639C97.9793 93.5444 99.1298 93.6725 99.4869 93.6742C100.452 93.679 100.899 93.5942 102.117 93.5903C117.883 93.5409 138.645 93.597 153.577 93.5903C171.459 93.5818 189.391 93.5654 207.339 93.5562L208.02 93.5476L208.293 92.9527C215.493 77.7538 222.704 62.5458 229.925 47.3603C229.931 47.2601 229.937 47.1598 229.943 47.0596C228.161 50.761 226.032 55.0953 224.281 58.7533C221.942 63.637 218.642 70.9611 216.707 74.4394C217.377 72.9745 218.591 70.6458 218.451 70.6316C217.209 73.2291 215.966 75.8266 214.724 78.4241C214.816 78.3727 214.908 78.3212 215 78.2698C213.727 80.9937 212.397 83.7662 211.112 86.4956C210.889 86.9697 211.098 86.6582 210.903 87.0706C210.684 87.532 210.782 87.1951 210.74 87.2813C210.187 88.447 210.071 88.8234 210.003 88.9653C209.828 89.3294 209.913 89.0223 209.4 90.0681C208.764 91.3656 208.315 92.4483 208.087 92.8552L207.873 93.3219L207.339 93.3287C207.108 93.3132 207.051 93.2758 207.219 93.1962C206.521 93.1962 205.824 93.1962 205.126 93.1962C204.946 93.2617 204.765 93.3271 204.584 93.3925C200.294 93.1284 198.315 93.5917 195.944 93.2241C195.162 93.2802 194.38 93.3364 193.598 93.3925C193.158 93.3271 192.717 93.2617 192.276 93.1962C192.19 93.2524 192.104 93.3085 192.019 93.3647C187.806 93.3233 183.32 93.3907 179.291 93.3842C176.485 93.3797 175.812 93.3575 173.326 93.3617C167.796 93.3713 173.288 93.2599 168.693 93.1396C168.932 93.2084 169.171 93.2773 169.411 93.3461C168.65 93.3714 167.889 93.3966 167.128 93.4218C166.598 93.3657 166.068 93.3095 165.538 93.2534C163.188 93.5446 161.666 93.3095 161.346 93.3095C161.087 93.31 160.199 93.4853 157.418 93.3368C158.571 93.5766 155.296 93.3383 155.034 93.3368C154.785 93.3359 151.596 93.3894 150.302 93.3871C149.284 93.3854 147.112 93.3338 145.596 93.3364C144.258 93.3386 144.393 93.42 144.296 93.4208C142.648 93.4276 143.681 93.3644 142.49 93.3613C141.299 93.3582 140.375 93.4275 140.118 93.4213C139.988 93.418 140.421 93.3422 139.829 93.3349C138.239 93.3149 135.364 93.3813 133.543 93.3793C132.898 93.3787 132.085 93.3144 131.366 93.3124C130.265 93.3096 129.75 93.3951 129.11 93.3925C128.887 93.3914 127.466 93.2595 125.7 93.2797C125.364 93.2838 124.377 93.563 123.065 93.1674C122.964 93.2231 122.863 93.2787 122.762 93.3344C116.838 93.4722 115.19 93.02 112.556 93.4213C108.255 93.3765 111.208 93.2202 110.735 93.1962C110.43 93.1811 109.028 93.2241 108.874 93.2216C108.601 93.2168 108.648 93.1666 108.349 93.1669C102.866 93.1762 105.3 93.271 103.564 93.331C99.4348 93.4739 96.2132 93.1567 103.395 93.2519C103.395 93.2239 103.395 93.1959 103.395 93.1679C101.627 93.1947 97.1377 93.182 98.6368 93.04C99.8173 92.9281 110.467 93.0011 104.436 92.8442C103.066 92.8087 102.357 92.9137 99.9854 92.7168C98.417 92.7061 98.191 92.9613 96.0673 92.8588C96.4164 92.9479 96.7656 93.0369 97.1148 93.1259C94.2187 93.242 90.6457 93.0863 88.4213 93.1362C87.6654 93.1532 84.9424 93.5776 85.5772 93.1533C84.3064 93.1797 78.321 93.1015 77.2088 93.1396C76.9413 93.1488 76.593 93.3747 72.7224 93.2958C72.4535 93.2675 72.1846 93.2392 71.9157 93.2109C75.4558 93.1286 69.2039 93.0449 70.9018 92.8305C71.4789 92.9269 74.2861 92.9857 74.738 93.0341C75.5093 93.1175 73.2119 93.225 76.1396 93.1957C77.9852 92.8374 72.7083 93.0023 73.5147 92.6621C69.671 92.8209 69.2868 92.6693 68.4166 92.663C64.697 92.6374 62.356 92.6735 58.8465 92.6337C57.9913 92.7036 64.3448 92.8045 65.1318 92.7744C62.2356 93.0221 67.2205 93.0333 69.3245 92.8862C69.5011 92.961 69.6777 93.0359 69.8543 93.1108C67.1155 93.0702 64.444 93.0494 61.7315 93.1108C61.5549 93.0828 61.3783 93.0548 61.2017 93.0268C61.8102 92.9846 62.4186 92.9425 63.0271 92.9003C60.7713 92.8313 62.1241 93.0496 59.1186 92.8583C59.0255 92.9427 58.9324 93.027 58.8393 93.1113C55.9575 93.0833 53.0757 93.0553 50.1939 93.0273C48.6936 93.1963 43.1484 93.1334 44.1639 92.9145C41.9256 92.899 44.6888 93.0155 42.5913 93.0688C41.6784 93.0919 39.8942 93.0984 39.4535 93.0395C39.6433 92.8311 42.3132 92.8052 43.1211 92.6621C42.6309 92.6159 30.2141 92.7647 31.321 92.521C30.3296 92.4917 30.7854 92.6172 28.9972 92.6494C23.9865 92.739 16.2253 92.4908 12.1905 92.8022C16.9284 92.9755 18.3297 92.7919 21.9605 92.7846C24.2795 92.7798 38.4193 92.7503 35.2608 92.9706C35.7802 92.9427 36.2995 92.9147 36.8189 92.8867C37.3439 92.9523 37.8689 93.0178 38.3939 93.0834C36.9144 93.0929 35.435 93.1023 33.9556 93.1118C33.6024 93.0463 33.2492 92.9809 32.896 92.9155C32.733 92.9622 32.5701 93.0089 32.4071 93.0556C31.7842 93.0649 31.1613 93.0742 30.5384 93.0834C30.7134 93.0273 30.8884 92.9711 31.0634 92.915C30.1033 92.9054 29.1433 92.8958 28.1832 92.8862C28.4417 92.9612 28.7001 93.0362 28.9586 93.1113C24.4373 93.1301 25.9685 93.0831 23.4608 92.9428C21.5885 92.9285 24.7512 93.0727 20.7901 93.1093C16.1839 93.1519 19.2058 92.9226 13.2405 92.9716C13.1546 93.0091 13.0687 93.0465 12.9828 93.0839C11.6711 93.0465 10.3595 93.0091 9.04784 92.9716C9.22122 93.0182 9.39461 93.0647 9.568 93.1113C8.63268 93.105 7.57526 93.1116 6.55469 93.1152L5.94734 93.1229L5.93944 92.5C5.93247 90.5664 5.93571 88.7653 6.05523 88.178C5.96731 90.9221 6.28616 90.8952 6.34477 90.1816C6.46505 88.7085 6.35315 66.9488 6.34526 62.7308C6.33512 57.3375 6.43725 53.2611 6.28032 48.3347C6.15161 51.6732 6.25706 63.4129 6.16802 65.6375C6.15928 65.8578 5.867 65.7958 6.19585 67.2124C6.14008 71.7768 6.23325 77.2328 6.22368 82.9354C6.13954 82.7612 6.05539 82.587 5.97125 82.4128C6.1502 78.908 5.75714 75.6638 6.08404 76.1203C6.08404 75.4227 6.08404 74.7251 6.08404 74.0276C6.02773 74.0276 5.97141 74.0276 5.9151 74.0276C5.9151 72.976 5.9151 71.9244 5.9151 70.8729C5.97141 70.8729 6.02773 70.8729 6.08404 70.8729C6.08404 70.0019 6.08404 69.1309 6.08404 68.26C6.02789 68.1693 5.97174 68.0786 5.91559 67.9879C6.03221 65.3798 5.72038 56.4886 6.05572 60.3973C6.05572 59.1723 6.05572 57.9474 6.05572 56.7224C6.01454 56.7264 5.97337 56.7304 5.93219 56.7345C5.92665 56.2079 5.92112 55.6813 5.91559 55.1547C5.95286 55.3281 5.99013 55.5015 6.0274 55.6749C5.96062 53.2617 6.15684 50.974 6.02789 49.3895C5.99973 50.4347 5.97157 51.4798 5.94342 52.525C5.9969 50.5205 5.88608 46.8278 5.8858 46.4973C5.88524 45.49 5.96849 44.9589 5.97271 43.8676C5.97632 42.8825 5.91236 43.018 5.91461 42.8345C5.97973 37.5205 6.32602 39.5457 5.91608 37.0645C5.97206 36.8004 6.02805 36.5363 6.08404 36.2722C6.03733 35.9206 5.99062 35.569 5.94391 35.2174C5.9483 33.6481 5.9527 32.0788 5.95709 30.5094C5.8871 31.0328 5.81712 31.5562 5.74714 32.0796C5.7159 29.7272 5.85622 28.6301 5.85944 28.4023C5.8676 27.7575 5.77952 27.4626 5.77936 27.2632C5.78697 17.6773 5.86452 23.4997 6.19536 18.7094C6.06553 17.0013 5.93537 18.7294 5.80329 18.9719C5.86525 16.7007 5.82867 15.9918 5.836 13.5944C5.83799 12.9707 5.90925 12.2999 5.91022 11.9063C5.91106 11.5653 5.83533 10.4996 5.83502 9.68112C5.83446 8.31703 5.8796 6.50131 5.87848 4.63359C5.87827 4.35183 5.87635 3.96475 5.87332 3.5L5.8648 2.82738L6.55469 2.81864C8.65173 2.805 12.3298 2.76908 15.0442 2.76862C16.4592 2.76862 16.1309 2.83196 16.4963 2.83209C16.6484 2.83209 17.7512 2.75622 18.6588 2.75592C26.0619 2.75423 33.6488 2.80225 41.0886 2.80084C46.33 2.8 51.656 2.73898 56.9079 2.74518C58.0255 2.74659 57.4338 2.80229 57.9217 2.80426C58.0895 2.80476 58.2912 2.70757 60.0193 2.74665C60.6436 2.76074 59.9256 2.82871 60.5394 2.83209C60.8382 2.83371 60.9652 2.7485 62.7116 2.72907C65.8856 2.69358 67.5914 2.80715 67.8747 2.80377C68.409 2.79723 68.2528 2.72672 68.9608 2.72418C72.423 2.71179 75.3135 2.69983 78.4033 2.69391C79.8461 2.69109 89.7942 2.67684 90.3406 2.68952C91.5629 2.71769 90.4251 2.86494 91.9926 2.85992C92.4317 2.82265 92.8708 2.78538 93.3099 2.74811C92.6123 2.71979 91.9147 2.69147 91.2172 2.66315C93.1375 2.71049 95.3148 2.64353 96.7367 2.64606C96.9994 2.64664 99.4169 2.71341 100.65 2.70612C100.126 2.73379 99.6016 2.76146 99.0774 2.78912C99.2629 2.81272 99.4483 2.83632 99.6337 2.85992C102.099 2.82415 104.708 2.82507 107.236 2.83014C108.148 2.83187 107.84 2.8892 108.763 2.89117C114.14 2.90326 112.782 2.66487 117.955 3.11236C116.208 3.07179 109.836 3.12871 108.91 3.11382C108.265 3.10339 105.762 2.72528 106.68 3.11333C101.517 3.11164 106.002 2.89761 101.18 2.94439C101.276 2.99175 101.372 3.03912 101.469 3.08648C99.7854 3.11633 98.5422 3.14027 97.5194 3.05669C97.1762 3.28646 91.4571 3.15203 88.3201 3.16753C83.7871 3.18951 78.6656 3.24556 74.1745 3.25542C72.6273 3.25876 71.7509 3.16871 71.5568 3.169C71.2731 3.16964 70.476 3.24851 69.9096 3.24907C67.795 3.25132 61.3618 3.118 59.7616 3.33696C72.3435 3.33696 84.9254 3.33696 97.5073 3.33696C95.9253 3.22933 108.652 3.21882 109.298 3.22417C109.895 3.22898 109.392 3.30454 109.57 3.30913C110.892 3.34154 112.021 3.23198 112.44 3.23198C112.761 3.232 113.407 3.2834 114.545 3.28227C114.754 3.28211 114.812 3.22775 115.036 3.22759C116.521 3.22759 117.987 3.22836 119.477 3.22808C119.568 3.2286 119.944 3.30801 120.32 3.30815C120.697 3.30815 121.07 3.22881 121.165 3.22856C122.356 3.22913 124.398 3.28073 125.531 3.2813C125.924 3.28127 125.652 3.22312 126.092 3.22368C127.446 3.22509 127 3.33892 128.674 3.30962C129.235 3.29974 129.199 3.21269 130.273 3.22417C131.034 3.23234 130.952 3.38747 131.072 3.39311C131.239 3.39992 133.864 3.27741 134.723 3.37895C132.847 3.64701 136.776 3.39294 136.587 3.27983C137.628 3.30831 138.668 3.3368 139.708 3.36528C140.063 3.33663 140.418 3.30799 140.773 3.27934C144.97 3.40841 147.531 3.33092 151.66 3.37065C151.859 3.37262 155.339 3.4363 155.176 3.4766C153.093 3.54591 151.016 3.54908 149.683 3.42094C147.49 3.66527 147.452 3.47056 143.91 3.50297C142.725 3.51396 142.64 3.58025 142.504 3.58109C137.893 3.61406 130.507 3.64258 127.4 3.44877C126.529 3.50119 129.66 3.52198 128.443 3.56058C127.779 3.58173 111.801 3.64362 116.905 3.42045C116.375 3.42664 115.846 3.43282 115.316 3.43901C114.786 3.6498 112.151 3.60159 112.45 3.39164C112.2 3.43461 111.951 3.47758 111.701 3.52055C111.208 3.5569 110.624 3.57637 109.806 3.58793C106.672 3.63187 88.0257 3.55875 87.0342 3.5889C87.0117 3.63871 86.9892 3.68851 86.9667 3.73831C95.2042 3.79468 103.195 3.67091 112.178 3.81351C111.917 3.7668 111.656 3.72009 111.395 3.67337C114.979 3.7388 118.564 3.80423 122.148 3.86966C118.354 3.9542 112.319 4.0252 108.337 3.95559C107.629 3.94318 108.148 3.87804 107.985 3.87015C107.56 3.84965 107.104 3.96267 105.577 3.97366C104.05 3.98463 100.214 3.90451 99.8625 3.90677C99.1848 3.91142 97.3558 4.04073 96.2021 4.03909C94.6858 4.03683 95.702 3.95679 95.3978 3.9551C94.1389 3.94724 93.01 3.9869 92.0239 3.98098C90.5598 3.97218 87.518 3.83144 86.4947 4.03811C87.5407 4.04755 88.5866 4.05699 89.6326 4.06643C83.9608 4.14054 79.5264 3.87635 73.9385 4.0801C72.6688 4.33035 77.2858 4.29653 73.3822 4.40333C74.091 4.39975 74.7999 4.39617 75.5086 4.39259C75.6748 4.34018 75.841 4.28778 76.0071 4.23537C77.2281 4.2728 78.449 4.31024 79.67 4.34767C79.3216 4.30096 78.9732 4.25425 78.6248 4.20754C82.9534 4.17231 87.3244 4.12441 88.8355 4.3755C88.9246 4.31479 89.0137 4.25409 89.1028 4.19338C93.1216 4.26719 99.1546 4.00988 98.0275 4.34767C98.2177 4.32977 98.408 4.31186 98.5982 4.29396C101.027 4.363 99.9899 4.22332 100.903 4.20754C101.164 4.20309 105.885 4.27522 103.793 4.3755C108.399 4.45215 106.979 4.13644 108.248 4.12258C111.196 4.27898 116.501 4.04437 114.271 4.29152C114.71 4.3008 115.149 4.31007 115.588 4.31935C117.031 4.12491 118.453 4.34491 120.017 4.41847C120.546 4.42286 121.076 4.42726 121.606 4.43165C121.961 4.36622 122.316 4.3008 122.67 4.23537C127.655 4.54677 126.077 3.69514 128.354 4.41066C127.999 4.45346 127.644 4.49627 127.289 4.53907C126.448 4.55941 125.607 4.57976 124.765 4.6001C128.159 4.61898 131.552 4.63786 134.945 4.65674C139.252 4.8573 141.703 4.6397 146.487 4.79834C146.935 4.7793 147.383 4.76026 147.831 4.74121C147.375 4.90325 145.637 4.87944 148.874 4.95214C149.15 5.06671 146.963 5.08153 145.967 4.99365C145.727 4.9722 147.771 4.88444 145.473 4.88135C143.911 4.87913 146.748 5.01681 142.068 4.96582C142.242 4.99381 142.415 5.0218 142.588 5.0498C142.081 5.04898 141.574 5.04817 141.066 5.04736C140.615 4.98258 140.164 4.9178 139.713 4.85303C138.553 4.94659 137.903 5.0777 135.253 5.0498C135.972 5.00923 134.997 4.87915 133.685 4.88135C133.685 4.92822 133.685 4.97509 133.685 5.02197C130.511 5.05212 131.607 4.9146 128.968 5.02197C128.704 4.98469 128.44 4.94742 128.175 4.91015C126.738 5.06374 121.445 5.16822 122.41 4.93798C120.925 5.16174 117.807 5.06078 116.647 4.88183C116.558 4.92838 116.469 4.97493 116.38 5.02148C115.763 5.03092 115.146 5.04036 114.528 5.0498C114.184 5.02164 113.84 4.99348 113.495 4.96533C113.058 4.99348 112.62 5.02164 112.183 5.0498C111.919 5.00309 111.655 4.95638 111.39 4.90966C110.687 4.96565 109.984 5.02164 109.281 5.07763C108.851 5.04036 108.42 5.00309 107.99 4.96582C107.946 5.06325 103.683 5.08494 102.492 5.02099C102.137 5.04931 101.783 5.07763 101.428 5.10595C101.254 5.05956 101.081 5.01318 100.908 4.96679C100.644 5.0039 100.379 5.04101 100.115 5.07812C99.5069 5.04101 98.8985 5.0039 98.29 4.96679C95.8083 5.1942 95.7284 4.99468 95.1618 4.99609C94.1113 4.9987 90.534 5.1411 89.936 5.13378C89.3387 5.1264 89.0503 5.04478 88.5682 5.0371C80.6196 4.90888 83.887 5.12791 82.2925 5.16259C81.4321 5.18147 80.8232 5.10532 80.0625 5.11376C78.7613 5.12785 72.1971 5.2286 71.8193 5.21874C71.2694 5.20451 72.5641 4.84545 70.7766 4.93798C70.7173 5.13078 66.8948 4.93619 68.6815 5.20507C67.1073 5.18147 65.5332 5.15787 63.959 5.13427C64.1374 5.36281 62.1963 5.21582 60.0819 5.2285C57.0856 5.24628 50.3399 5.39655 50.5864 5.1621C49.8688 5.21597 49.1512 5.26984 48.4335 5.32371C43.523 5.24991 38.7066 5.32724 33.8328 5.33006C25.0062 5.33539 15.7223 5.31852 6.55469 5.29406L8.34874 3.5C8.33312 9.35662 8.31439 15.1658 8.29637 20.778C8.29409 21.4701 8.2175 21.3706 8.21581 21.8689C8.20736 24.487 8.26153 31.2922 8.24462 34.9597C8.23926 36.1346 8.16456 36.7064 8.16112 37.0789C8.14901 38.3434 8.24743 38.045 8.24462 38.6274C8.2401 39.546 8.14873 44.4047 8.13915 46.0783C8.13441 46.9068 8.21262 47.8872 8.18847 48.8573C8.1865 48.9408 8.10589 48.7867 8.10448 48.8573C8.09462 50.6255 8.1643 49.562 8.16064 50.1601C8.13443 54.4256 8.13283 58.9848 8.1162 63.6122C8.11198 64.7612 8.05515 66.5198 8.0498 67.5062C8.04791 67.8825 8.10907 67.2076 8.104 68.508C8.10226 68.9535 8.02273 69.1057 8.01757 69.6086C7.99588 71.7752 8.25145 72.5003 8.04589 74.3623C8.05942 77.9564 8.12505 84.2124 8.12646 87.4917C8.12669 88.2674 8.07972 88.6452 8.08056 89.3845C8.08112 89.909 8.15389 90.8323 8.15478 91.6506C8.15503 91.8937 8.14909 92.1785 8.14069 92.5L6.55469 90.914C7.31593 90.9339 8.2832 90.9676 9.38979 90.9658C11.047 90.9633 13.1077 90.9221 13.4813 90.9224C13.9325 90.9224 14.1428 91.0099 14.5939 91.0088C15.958 91.006 19.6104 90.92 21.3681 90.9107C23.2566 90.9008 24.3904 90.9432 25.0357 90.9424C25.6333 90.9412 26.3303 90.8674 26.6034 90.8667C27.0281 90.8656 27.1284 90.9519 27.6678 90.9512C28.5491 90.9498 29.4576 90.8955 30.7792 90.8941C54.5787 90.8673 77.9125 90.9147 101.067 90.9775C103.648 90.9846 105.106 90.9241 108.91 90.9517C110.452 90.9629 109.803 91.052 111.003 91.0352C111.538 91.0275 111.403 90.9575 112.079 90.9541C115.07 90.9395 118.554 91.0046 119.85 91.0034C120.364 91.0031 120.952 90.9235 122.006 90.9224C129.86 90.9134 139.152 90.9357 147.605 90.9219C152.08 90.9146 158.856 90.874 163.992 90.8687C178.184 90.8537 193.452 90.8722 206.395 90.8643C206.71 90.8641 207.024 90.8639 207.339 90.8637L205.86 91.7987C214.088 74.4213 222.227 57.0998 230.528 39.7994C226.444 47.9606 221.134 59.193 216.762 68.3616C213.111 76.0176 209.405 83.8233 205.67 91.7085L207.339 90.6532C185.882 90.6642 163.914 90.7198 142.538 90.7168C132.076 90.7154 118.885 90.7198 107.431 90.6753C106.912 90.6733 105.835 90.7345 104.713 90.728C104.474 90.7265 101.516 90.6149 100.52 90.6138C101.464 90.8122 97.5606 90.6354 96.3538 90.6402C94.8319 90.6464 91.6581 90.7455 88.0962 90.6895C84.8643 90.6387 85.7556 90.5624 85.5772 90.5576C84.4341 90.5267 84.0352 90.6497 83.1594 90.6621C79.5811 90.7117 61.1754 90.6403 56.0386 90.6358C54.7111 90.6346 54.6736 90.5565 54.3745 90.5562C53.5825 90.5557 52.4551 90.6329 51.1861 90.6323C48.8985 90.6312 46.2635 90.5574 45.0043 90.5572C41.9926 90.5563 36.2778 90.6433 32.3638 90.645C31.2631 90.6455 31.3305 90.5642 30.8322 90.5645C28.6385 90.5659 22.9253 90.6618 20.2025 90.6626C15.7796 90.664 11.23 90.6114 6.73358 90.6382C6.67395 90.6306 6.61432 90.623 6.55469 90.6154L8.43927 92.5C8.46797 92.2747 8.49667 92.0493 8.52537 91.824C8.48729 91.3745 8.4492 90.9249 8.41112 90.4754C8.44014 82.873 8.3584 75.1341 8.36375 67.5737C8.36432 66.7026 8.43377 62.3904 8.43406 61.6712C8.43406 61.0731 8.34416 60.4845 8.35741 59.5978C8.37578 58.3557 8.54699 59.5245 8.49803 57.4954C8.48478 56.9498 8.41149 57.4789 8.38866 56.3829C8.38105 56.0209 8.35136 48.9943 8.35643 48.6165C8.36497 47.9871 8.52199 47.4257 8.52537 47.2631C8.54309 46.4187 8.42259 46.4546 8.4116 45.888C8.37871 44.2164 8.45977 42.0321 8.45799 41.7604C8.43573 38.4759 8.33954 32.3359 8.39647 28.8887C8.4044 28.412 8.49414 28.4691 8.49705 28.3854C8.51564 27.8453 8.41348 27.5096 8.41112 26.9959C8.39956 24.2308 8.46835 19.9008 8.48582 17.12C8.48772 16.7997 8.43858 16.1237 8.44334 15.5523C8.47096 12.3202 8.54982 13.3686 8.5532 13.185C8.56157 12.7495 8.4746 11.9838 8.46922 10.825C8.46045 9.00425 8.46168 6.16457 8.46551 3.5L6.55469 5.41082C8.25913 5.41327 9.89192 5.41678 11.1405 5.41941C13.5382 5.42477 13.5021 5.52437 13.6595 5.52634C13.9957 5.52992 14.9299 5.4504 16.5083 5.44139C19.5457 5.42364 19.1996 5.50189 20.4481 5.49851C20.5531 5.49851 20.3706 5.42193 21.7558 5.41404C24.432 5.39885 30.4432 5.47413 33.3078 5.47019C34.4096 5.46879 34.6674 5.39495 35.7954 5.39354C37.5839 5.39101 41.6204 5.47089 41.9387 5.47068C42.0279 5.47068 42.228 5.38572 42.7526 5.38572C43.3297 5.38574 43.8974 5.42946 44.3276 5.42918C46.7776 5.42801 50.9983 5.27974 49.8254 5.58298C50.6105 5.50812 51.3956 5.43325 52.1806 5.35838C57.312 5.37332 62.2969 5.34333 67.381 5.32811C68.5245 5.32474 69.4791 5.38216 70.4442 5.37938C71.4092 5.37656 75.6665 5.28156 76.378 5.27977C77.6477 5.27667 84.8629 5.26666 85.7602 5.27342C87.5127 5.28639 89.2128 5.41171 89.9264 5.38719C90.4983 5.36746 89.9693 5.29685 91.0606 5.27684C92.9496 5.24223 96.1596 5.33294 96.7367 5.33153C96.9831 5.33095 96.5219 5.27591 98.8294 5.27196C100.073 5.2697 100.741 5.33034 101.192 5.33006C101.332 5.32974 101.122 5.23141 103.583 5.24462C105.283 5.25392 106.008 5.32978 106.186 5.33006C106.454 5.33057 107.1 5.24961 108.176 5.25243C110.689 5.25949 115.284 5.35231 117.671 5.35936C118.133 5.36077 117.976 5.26296 119.817 5.27196C121.133 5.27844 120.903 5.35624 121.396 5.35936C122.178 5.36415 123.343 5.26887 125.069 5.27196C127.241 5.2759 143.37 5.37473 144.204 5.40037C144.766 5.41756 145.417 5.41865 145.695 5.46092C145.456 5.50144 145.218 5.54197 144.98 5.5825C142.51 5.44028 143.506 5.60282 142.851 5.61326C141.901 5.62819 138.322 5.60746 137.457 5.64353C137.148 5.65656 137.854 5.74306 136.197 5.78757C134.419 5.83515 133.628 5.68114 132.92 5.89157C130.396 5.65795 127.972 5.90591 130.894 5.97213C132.526 6.00906 148.529 6.09247 151.797 6.10543C154.447 6.11584 159.41 6.05324 162.668 6.0693C164.583 6.07888 169.299 6.08974 169.1 6.20162C170.8 6.21571 169.001 6.10433 169.358 6.08883C170.104 6.05647 175.41 6.13339 176.414 6.13033C181.367 6.11568 187.617 5.99061 192.428 6.13179C192.204 6.16174 191.98 6.19169 191.756 6.22164C190.675 6.27659 185.659 6.19803 185.093 6.34175C192.428 6.34175 199.763 6.34175 207.099 6.34175C206.962 6.21944 216.06 6.22109 216.49 6.27632C216.331 6.33556 216.171 6.39481 216.011 6.45405C210.87 6.22922 211.331 6.52641 207.879 6.3686C206.473 6.36638 206.898 6.46426 206.205 6.48286C199.312 6.66767 206.095 6.282 200.818 6.36958C202.406 6.51156 198.085 6.56345 196.149 6.58149C195.708 6.58543 189.92 6.54945 189.232 6.5517C185.371 6.56439 178.739 6.64217 174.904 6.5644C171.882 6.5551 170.218 6.65623 167.474 6.67963C165.392 6.69738 165.989 6.6263 165.008 6.62543C162.952 6.62346 162.275 6.83985 160.958 6.53803C159.564 6.57563 158.169 6.61323 156.775 6.65082C156.775 6.60395 156.775 6.55708 156.775 6.5102C155.899 6.5102 155.023 6.5102 154.148 6.5102C153.89 6.55691 153.632 6.60362 153.375 6.65033C150.595 6.58636 151.755 6.47349 151.236 6.34077C150.636 6.33166 150.035 6.32254 149.435 6.31343C148.97 6.41531 148.505 6.5172 148.04 6.61908C145.359 6.61078 142.678 6.60248 139.997 6.59418C139.824 6.54747 139.65 6.50076 139.477 6.45405C139.471 6.50076 139.466 6.54747 139.46 6.59418C134.92 6.60379 130.38 6.61339 125.84 6.62299C124.632 6.69793 131.906 6.75471 132.457 6.75922C135.522 6.78401 143.659 6.70888 143.67 6.87542C145.574 6.75116 151.309 6.78202 153.093 6.93109C150.385 6.92214 147.678 6.91318 144.97 6.90423C145.058 6.96006 145.145 7.01588 145.233 7.07171C141.859 6.84655 141.365 6.85894 137.897 7.07171C137.894 6.99684 137.891 6.92197 137.888 6.84711C135.469 7.10744 131.195 6.66583 131.072 6.98724C129.785 6.9612 128.497 6.93516 127.21 6.90911C124.429 6.94829 128.747 7.19548 117.861 7.09856C117.111 7.0918 117.267 7.00993 116.139 7.01556C115.814 7.01725 113.951 7.13635 110.389 7.12395C109.833 7.12197 109.791 7.05094 109.213 7.04192C107.881 7.02051 105.227 7.16099 106.432 6.93206C101.155 6.8653 103.342 7.05318 101.705 7.12786C100.614 7.17742 100.833 7.04197 99.889 7.07268C98.7205 7.11077 99.578 7.24732 94.8993 7.1845C95.4243 7.17522 95.9492 7.16594 96.4742 7.15667C96.2101 7.11956 95.946 7.08245 95.6819 7.04534C93.0115 7.13438 93.2639 7.00428 92.0046 7.21282C90.0634 7.11982 88.3837 7.11242 85.7289 7.12932C80.5715 7.16229 83.2155 7.38703 77.3292 7.0844C76.3756 7.12688 75.422 7.16936 74.4683 7.21184C72.9007 7.12251 74.1686 7.01075 71.8289 6.98821C73.6601 7.20887 68.7234 7.12841 67.8892 7.32512C67.8017 7.27824 67.7142 7.23137 67.6267 7.1845C67.1041 7.1845 66.5815 7.1845 66.059 7.1845C66.0574 7.22209 66.0558 7.25969 66.0541 7.29729C65.3582 7.26913 64.6622 7.24097 63.9663 7.21282C63.4429 7.25009 62.9195 7.28736 62.3961 7.32463C61.5356 7.24602 60.6751 7.16741 59.8146 7.0888C59.2743 7.08343 58.7341 7.07806 58.1939 7.07268C58.3648 7.12867 58.5358 7.18466 58.7068 7.24065C58.0124 7.22193 57.3181 7.20321 56.6237 7.1845C57.4317 7.27637 56.9239 7.38409 54.7622 7.38127C52.9784 7.37901 54.9877 7.18726 51.1524 7.26701C50.8848 7.2727 50.4112 7.40945 46.7863 7.43058C42.4391 7.45592 44.5508 7.35687 43.7761 7.35344C43.6239 7.35287 42.2959 7.4217 41.0525 7.43156C40.3468 7.43718 39.6671 7.38161 39.5738 7.38176C39.1384 7.38429 39.0115 7.4629 38.4083 7.46574C36.8766 7.4725 34.8203 7.43398 33.3198 7.43791C32.6377 7.4396 31.9962 7.48617 31.6919 7.48673C31.2197 7.48727 30.6208 7.41614 30.1434 7.41642C28.3807 7.41791 25.705 7.65391 24.8864 7.32609C23.1919 7.62754 19.6416 7.26308 19.9015 7.46525C16.8441 7.41374 10.3454 7.51005 6.55469 7.47354L10.5282 3.5C10.5107 5.32404 10.4623 6.5211 10.352 6.406C10.6424 8.97083 10.4321 8.74163 10.4364 9.81598C10.4412 11.0175 10.4976 10.3951 10.495 11.35C10.4891 13.5796 10.4649 15.71 10.4638 17.9291C10.4172 17.5807 10.3707 17.2324 10.3241 16.884C10.3092 19.2134 10.4175 18.4114 10.4384 20.7876C10.4764 25.1581 10.39 23.3164 10.268 23.9616C10.3858 23.7884 10.3675 28.942 10.352 29.4667C10.3425 29.7795 10.1907 28.4084 10.2397 31.5642C10.2864 31.3916 10.3331 31.219 10.3798 31.0465C10.3159 32.4843 10.397 36.3897 10.3813 37.0524C10.3739 37.3567 9.99724 38.9844 10.2953 40.4745C10.2486 40.6543 10.2019 40.8341 10.1552 41.0139C10.2114 42.6683 10.2675 44.3227 10.3237 45.9771C10.2395 46.2412 10.1554 46.5053 10.0712 46.7694C10.0712 47.2944 10.0712 47.8194 10.0712 48.3444C10.1459 47.996 10.2206 47.6476 10.2953 47.2992C10.2615 50.5409 10.3793 54.5012 10.1274 55.1691C10.1741 55.8635 10.2208 56.5579 10.2675 57.2522C10.1837 57.7042 10.0999 58.1561 10.016 58.608C10.0372 61.8233 10.0932 61.8764 10.1825 64.0746C10.1171 63.9887 10.0517 63.9028 9.98626 63.8169C10.0781 65.4382 10.1637 68.398 10.1752 70.738C10.1806 71.8504 10.0904 73.7605 10.0986 74.0228C10.1072 74.288 10.4614 76.8967 10.1547 77.1799C10.2905 81.0205 10.1518 82.7112 10.1552 84.2695C10.1575 85.2818 10.2311 85.7436 10.2387 86.8872C10.2497 88.5241 10.2141 90.1715 10.2192 91.116C10.2223 91.6564 10.2941 91.7573 10.2963 92.1298C10.2972 92.2699 10.2975 92.3924 10.2974 92.5L6.55469 88.7573C7.79996 88.7586 7.06166 88.8204 8.77089 88.816C8.9422 88.8152 10.2995 88.7276 11.8293 88.7388C12.6846 88.7451 14.8974 88.8436 15.0924 88.8433C15.9581 88.8416 15.2662 88.6447 18.2254 88.8721C18.1395 88.8347 18.0536 88.7973 17.9677 88.7598C21.6299 88.6649 22.208 88.8318 22.9478 88.8433C23.0422 88.8443 23.9339 88.7798 24.4674 88.7887C25.3686 88.8038 25.732 88.8922 25.9316 88.8961C26.6346 88.9096 29.0026 88.8707 30.5504 88.9561C30.2251 88.7048 35.6487 88.6153 36.8502 88.9C37.8103 88.8438 38.7703 88.7877 39.7304 88.7315C40.1647 88.7784 40.599 88.8253 41.0332 88.8721C41.2973 88.8254 41.5614 88.7787 41.8255 88.732C43.2247 88.8349 44.6238 88.9377 46.023 89.0406C46.112 88.9376 46.2012 88.8345 46.2903 88.7315C46.682 88.7432 47.0737 88.755 47.4655 88.7667C47.7713 88.8485 48.0771 88.9304 48.383 89.0123C48.8726 88.9967 49.3623 88.981 49.852 88.9654C49.9732 88.9062 50.0944 88.8469 50.2156 88.7877C52.848 88.7194 51.4954 89.2844 56.5106 88.7877C57.2908 88.8344 58.0711 88.8811 58.8513 88.9278C59.7326 88.7005 61.3839 88.8381 62.7164 88.8126C63.6554 88.7945 63.6043 88.7042 64.8838 88.7022C66.164 88.7002 66.1182 88.7866 66.2179 88.7872C67.2614 88.7925 68.0482 88.7163 68.8139 88.7315C68.9293 88.7338 69.2183 88.8363 70.1938 88.8428C71.1697 88.8493 71.7579 88.7402 73.2113 88.7608C73.956 88.7712 74.1713 88.8577 74.832 88.8653C77.98 88.9025 81.15 88.4649 83.511 88.984C84.0433 88.9182 87.9034 88.688 89.5555 88.7012C92.1249 88.7224 91.1349 88.8242 92.1564 88.8428C92.3033 88.8457 93.0857 88.8113 95.2412 88.8175C95.6269 88.8186 95.5375 88.7611 95.5928 88.7603C98.1058 88.7615 102.986 88.8068 105.746 88.815C105.992 88.8159 107.283 88.6556 109.471 88.8712C112.713 88.712 118.821 89.054 123.097 88.814C123.689 88.809 124.409 88.8663 124.672 88.8643C126.933 88.8466 126.104 88.6726 131.215 88.9273C130.801 88.8386 131.996 88.7585 133.685 88.7652C136.225 88.7754 134.421 88.9408 136.462 88.9273C136.462 88.8806 136.462 88.8339 136.462 88.7872C141.157 88.9128 142.091 88.7131 146.803 88.712C148.497 88.7117 151.001 88.8152 151.405 88.8155C151.561 88.8152 153.414 88.7026 153.591 88.7017C154.588 88.6984 155.151 88.7503 156.012 88.7506C158.855 88.7517 162.248 88.6052 161.635 88.8712C162.417 88.815 163.198 88.7589 163.98 88.7027C166.934 88.9868 169.143 88.5953 169.762 88.8712C170.29 88.8142 170.819 88.7572 171.347 88.7003C183.344 88.7276 195.341 88.7548 207.339 88.7821L203.979 90.9066C204.269 90.3 204.558 89.6933 204.848 89.0867C204.983 88.5936 207.38 83.6153 207.514 83.3653C208.128 82.2167 207.714 83.5412 208.811 81.1236C208.861 80.8219 208.91 80.5201 208.959 80.2183C210.364 77.1917 209.753 78.6779 210.369 77.5127C210.596 77.011 210.46 77.1433 210.775 76.4684C212.483 72.8069 216.03 65.3211 217.918 61.3273C218.299 60.5219 218.297 60.6697 218.416 60.4198C218.741 59.7324 219.315 58.3429 219.969 56.9638C224.014 48.4361 229.786 36.3706 233.917 27.8135C234.198 27.2323 234.298 27.1916 234.488 26.7997C234.751 26.2564 235.275 25.013 235.553 24.4421C235.814 23.9043 236.029 23.5822 236.309 23.0069C237.591 20.3747 239.193 16.7779 240.684 14.0182C240.809 13.7862 242.482 10.9476 242.532 10.8888C242.822 10.5446 241.736 13.257 243.941 9.00102C242.238 12.9322 243.046 11.835 245.544 6.86443C244.378 9.39876 243.212 11.9331 242.046 14.4674C242.073 14.4842 242.099 14.501 242.125 14.5178C243.351 12.2889 244.476 10.0344 246.144 6.55177C246.118 6.67277 246.092 6.79377 246.066 6.91476C244.733 10.0571 242.994 13.7854 242.056 16.2152C243.818 12.8354 245.581 9.45554 247.343 6.07573C247.282 6.25724 247.22 6.43876 247.159 6.62027C246.429 8.29497 244.751 11.9131 244.15 13.3064C241.856 18.6277 246.463 8.7934 245.813 10.4594C243.188 15.9818 240.564 21.5042 237.939 27.0266C237.931 27.2603 248.245 6.11804 248.395 6.45751C247.588 8.2019 246.782 9.94628 245.975 11.6907C246.407 10.9474 246.839 10.2042 247.27 9.46095C247.19 9.68387 247.109 9.9068 247.028 10.1297C245.689 13.0829 244.349 16.036 243.01 18.9892C247.184 10.059 249.184 5.93749 250.704 4.0453C250.603 4.29296 250.501 4.54061 250.399 4.78826C249.166 6.56681 244.949 15.723 242.717 20.5932C243.278 19.6509 245.227 15.355 245.711 14.4809C245.848 14.2333 245.49 15.154 245.804 14.5784C246.623 13.0739 249.857 6.54116 249.509 7.54814C249.284 8.19653 244.351 18.8364 243.363 20.8999C245.783 16.1129 248.186 11.1379 250.639 6.34911C249.39 9.51394 248.354 12.3499 245.71 17.9536C245.009 19.7114 250.78 7.93105 250.97 7.68413C250.06 9.76525 249.151 11.8464 248.241 13.9275C249.047 12.1846 249.853 10.4418 250.659 8.6989C250.683 8.70387 250.706 8.70884 250.73 8.71381C248.696 13.2544 246.927 17.4515 244.475 22.5891C244.665 22.4764 246.114 19.3935 246.823 17.9007ZM177.201 6.84857C177.316 6.95138 175.229 6.93453 174.054 6.93255C174.23 6.95127 174.407 6.96999 174.583 6.9887C172.075 6.96926 167.407 6.9298 167.234 7.12932C165.445 7.15412 166.236 6.98062 165.659 6.96087C165.433 6.95298 163.098 7.05396 161.23 6.93109C160.786 6.93158 160.342 6.93206 159.898 6.93255C159.812 6.99798 159.727 7.06341 159.641 7.12883C159.022 7.04941 158.403 6.96999 157.784 6.89056C164.253 6.87656 170.722 6.86257 177.191 6.84857C177.195 6.84857 177.198 6.84857 177.201 6.84857ZM112.717 6.93304C110.362 6.89612 106.753 6.83783 107.482 7.01702C108.97 7.00758 110.458 6.99814 111.947 6.9887C112.204 6.97015 112.46 6.95159 112.717 6.93304ZM45.7484 89.2081C47.716 89.3845 49.5276 89.2319 52.5708 89.2637C52.5668 89.2265 52.5628 89.1892 52.5587 89.1519C51.3144 89.2414 48.0248 89.1819 45.7484 89.2081ZM235.657 6.17427C236.091 6.18811 236.524 6.20194 236.958 6.21578C235.195 6.41614 234.879 6.27494 232.885 6.29439C232.765 6.2956 232.807 6.34147 232.765 6.34175C232.277 6.34484 231.826 6.28964 231.385 6.29048C230.535 6.29217 229.842 6.34812 228.336 6.34614C227.172 6.34443 227.161 6.25649 226.752 6.25874C226.403 6.26092 222.948 6.50285 220.724 6.39839C216.495 6.19943 234.366 6.15567 235.657 6.17427ZM248.192 6.3398C247.773 6.34061 247.355 6.34142 246.937 6.34224C248.195 6.20706 245.657 6.2276 243.794 6.23042C243.852 6.10079 247.792 6.15624 249.555 6.11764C249.1 6.19169 248.646 6.26574 248.192 6.3398ZM195.303 6.06197C196.94 6.04876 196.667 6.21056 196.599 6.25874C196.078 6.25874 195.557 6.25874 195.036 6.25874C195.125 6.19315 195.214 6.12756 195.303 6.06197ZM207.612 6.00582C207.103 6.11573 203.55 6.16379 201.866 6.17281C201.792 6.17283 202.255 6.11251 201.064 6.11812C200.706 6.11988 197.188 6.33936 197.962 6.09029C201.177 6.06214 204.392 6.03398 207.607 6.00582C207.608 6.00582 207.61 6.00582 207.612 6.00582ZM211.2 6.07076C210.53 6.10527 209.861 6.13977 209.191 6.17427C208.845 6.12268 208.499 6.07109 208.153 6.01949C208.915 6.00647 209.677 5.99345 210.439 5.98043C210.692 6.01054 210.946 6.04065 211.2 6.07076ZM209.118 83.0921C209.001 83.2092 208.885 83.3262 208.768 83.4433C208.479 83.974 207.439 86.7272 207.879 85.9081C208.292 84.9694 208.705 84.0308 209.118 83.0921ZM214.531 71.9494C214.818 71.4101 215.105 70.8708 215.391 70.3315C215.607 69.6575 215.823 68.9836 216.04 68.3096C214.676 71.0361 213.221 73.9349 213.694 73.5807C213.395 74.2109 213.097 74.8412 212.798 75.4715C212.946 74.8918 212.878 74.9471 212.031 76.5656C212.003 76.9944 211.121 78.6653 210.226 80.6326C210.908 79.2165 211.59 77.8004 212.272 76.3843C212.297 76.3963 212.323 76.4083 212.348 76.4203C210.837 79.5813 212.864 75.7233 213.741 73.6136C213.852 73.4672 213.963 73.3207 214.074 73.1742C214.226 72.7659 214.379 72.3576 214.531 71.9494ZM8.91989 61.7073C8.89173 62.1416 8.86358 62.5759 8.83542 63.0102C9.20215 64.6931 8.85427 61.2667 9.14449 58.8272C8.92402 59.6331 8.93323 55.9142 8.91842 55.7014C8.84421 56.1292 8.76999 56.5571 8.69578 56.9849C8.77048 58.5591 8.84518 60.1332 8.91989 61.7073ZM8.66697 74.0179C8.84986 72.5121 8.86107 79.9094 8.82077 82.3912C8.81086 82.9946 8.71044 84.0702 8.72312 84.5055C8.76023 84.7696 8.79733 85.0337 8.83444 85.2978C8.70619 85.6107 8.85038 90.4567 8.9194 92.3658C8.90778 92.4106 8.89616 92.4553 8.88455 92.5L6.55469 90.1701C6.68979 90.2052 6.82485 90.2403 6.95995 90.2754C7.6559 90.2569 8.35188 90.2383 9.04784 90.2198C8.96032 90.2663 8.87286 90.3129 8.78534 90.3594C9.31192 90.3034 9.83855 90.2474 10.3651 90.1914C12.4323 90.1292 11.1576 90.3829 12.7107 90.3037C14.4369 90.2158 11.6082 90.0647 11.6607 89.9663C10.5079 89.9872 8.14718 90.0294 6.55469 90.0452L9.00949 92.5C9.00608 92.157 9.00388 91.8496 9.00338 91.5976C9.00187 90.7812 9.17807 91.7065 8.97555 88.1876C9.02275 87.4162 9.06995 86.6448 9.11715 85.8734C9.04212 84.4574 8.96709 83.0414 8.89206 81.6254C8.95732 81.3613 9.02259 81.0972 9.08785 80.8331C9.09807 80.6819 8.94988 77.4071 8.90085 77.582C9.02561 76.2555 9.04785 73.5321 9.05416 70.6634C9.01868 70.3872 8.9832 70.1111 8.94772 69.8349C9.02435 72.6096 8.91018 70.7178 8.84225 71.5447C8.80308 72.0222 8.72615 73.4828 8.66697 74.0179ZM197.271 90.2188C201.93 90.0596 199.045 90.1909 204.081 90.1909C203.73 90.1066 203.378 90.0223 203.026 89.938C200.55 90.0921 196.476 89.9896 197.266 90.2188C197.268 90.2188 197.269 90.2188 197.271 90.2188ZM221.829 55.975C220.733 58.4046 221.424 57.2525 220.015 60.3226C220.014 60.324 220.013 60.3254 220.013 60.3269C220.77 58.7528 221.527 57.1786 222.284 55.6045C222.132 55.728 221.98 55.8515 221.829 55.975ZM90.762 90.0406C88.207 90.0039 88.7098 90.0695 86.3912 89.9385C82.939 90.0975 85.8614 90.075 85.8614 90.2193C86.6505 90.1769 87.4396 90.1346 88.2286 90.0923C90.1417 90.2272 88.3274 90.2952 88.3274 90.3081C88.329 90.3081 88.3306 90.3081 88.3322 90.3081C88.3321 90.3514 88.2702 90.3606 89.0041 90.3867C89.5901 90.2713 90.1761 90.156 90.762 90.0406ZM79.8265 90.2188C80.7027 90.123 81.0967 89.9999 78.7934 89.9385C78.7918 89.9385 78.7902 89.9385 78.7886 89.9385C78.6037 90.1527 76.3953 89.9798 75.3883 89.9942C75.1241 90.0174 74.8601 90.0407 74.596 90.064C76.3395 90.1156 78.083 90.1672 79.8265 90.2188ZM41.2957 90.4156C41.286 90.179 43.2191 90.1565 40.4986 89.9385C39.9704 89.9427 39.4422 89.947 38.914 89.9512C38.5673 90.0031 38.2205 90.055 37.8737 90.107C31.1736 89.6789 29.1761 90.4078 40.4986 90.1353C40.5002 90.1351 40.5018 90.135 40.5034 90.1348C40.7675 90.2284 41.0316 90.322 41.2957 90.4156ZM53.0958 90.3955C53.1809 90.2713 53.2659 90.1472 53.351 90.023C54.8306 90.3225 56.7421 90.0367 59.6436 90.2481C59.9061 90.2103 60.1686 90.1726 60.4311 90.1348C61.5154 90.2179 72.1665 90.2418 69.8591 90.0508C68.8517 89.9674 66.6573 90.0807 66.4684 90.0782C65.8283 90.0688 64.9937 89.9621 63.9133 89.9683C63.2888 89.972 61.9727 90.0974 60.6984 90.0972C57.8495 90.0966 52.6493 89.76 48.9031 90.0787C48.6334 90.0412 48.3637 90.0038 48.094 89.9663C45.3142 89.9892 46.2421 90.1078 43.6557 89.9663C41.8689 90.5562 54.0532 89.9372 51.516 90.4156C51.5176 90.4156 51.5192 90.4156 51.5208 90.4156C52.0458 90.4089 52.5708 90.4022 53.0958 90.3955ZM129.635 90.2188C129.803 90.3247 133.027 90.1613 132.269 90.4151C133.322 90.3267 134.374 90.2383 135.426 90.1499C135.418 90.1263 135.41 90.1027 135.402 90.0791C134.356 90.0977 133.31 90.1162 132.265 90.1348C132.261 90.0974 132.257 90.0599 132.252 90.0225C130.694 90.1579 124.189 90.0989 124.387 89.9663C124.04 90.0223 123.692 90.0783 123.345 90.1343C120.233 89.9818 117.557 90.144 114.167 89.9952C113.905 90.0415 113.642 90.0879 113.38 90.1343C113.209 90.0969 113.038 90.0594 112.867 90.022C111.632 90.0173 110.397 90.0126 109.163 90.0079C105.14 90.1586 112.957 90.3537 113.905 90.3316C114.031 90.3285 114.011 90.2316 114.798 90.2163C116.196 90.1896 124.02 90.2861 126.439 90.2222C126.46 90.2865 126.481 90.3508 126.502 90.4151C127.546 90.3496 128.59 90.2842 129.635 90.2188ZM26.3458 90.1626C26.1691 90.0972 25.9926 90.0318 25.816 89.9663C22.7682 90.0317 20.8491 89.9746 21.6306 90.1909C21.6322 90.1909 21.6338 90.1909 21.6354 90.1909C23.2055 90.1815 24.7756 90.1721 26.3458 90.1626ZM124.26 5.89303C124.18 5.76297 122.723 5.71435 120.84 5.80759C120.931 5.84535 121.022 5.8831 121.112 5.92086C122.093 5.81011 123.318 6.00315 126.345 5.9775C126.345 5.91208 126.345 5.84665 126.345 5.78122C125.65 5.81849 124.955 5.85576 124.26 5.89303ZM28.9755 90.1909C29.9044 90.2681 32.5116 90.034 30.7961 90.0225C29.4844 90.0138 28.477 90.1495 28.9755 90.1909ZM226.436 46.5579C226.128 47.1743 225.821 47.7907 225.513 48.4072C225.41 48.7552 225.306 49.1032 225.203 49.4513C225.203 49.4499 225.204 49.4484 225.205 49.4469C225.615 48.4839 226.025 47.5209 226.436 46.5579ZM99.4965 90.0298C97.1606 90.038 94.8247 90.0461 92.4887 90.0542C92.4654 90.0905 92.4421 90.1268 92.4189 90.1631C94.7589 90.0307 95.6998 90.1734 96.2455 90.1822C96.2431 90.1822 96.2406 90.1822 96.2382 90.1822C97.9903 90.2109 99.6594 90.232 101.317 90.2754C100.71 90.1936 100.103 90.1117 99.4965 90.0298ZM107.504 90.2588C107.11 90.0024 106.596 89.9725 103.008 90.1529C103.15 90.1844 103.292 90.216 103.434 90.2476C105.293 90.2287 106.378 90.1695 106.052 90.3033C106.536 90.2884 107.02 90.2736 107.504 90.2588ZM70.9235 90.1768C71.3543 90.2584 74.772 90.1764 74.5863 90.1353C74.5129 90.1189 70.084 90.0167 70.9235 90.1768ZM150.208 5.83639C149.42 5.81768 148.633 5.79896 147.845 5.78024C148.893 5.75241 149.94 5.72458 150.988 5.69675C150.728 5.7433 150.468 5.78985 150.208 5.83639ZM158.853 5.47166C159.415 5.50435 157.589 5.73491 160.946 5.7944C158.503 5.79929 156.061 5.80417 153.618 5.80905C154.763 5.77178 155.909 5.73451 157.054 5.69724C156.854 5.631 156.654 5.56476 156.455 5.49851C157.254 5.48956 158.054 5.48061 158.853 5.47166ZM161.476 5.6406C160.16 5.46536 167.087 5.4522 167.732 5.47361C167.876 5.4787 168.559 5.61156 168.811 5.64011C167.765 5.64027 166.719 5.64044 165.673 5.6406C166.023 5.68243 166.373 5.72426 166.723 5.76608C165.499 5.78041 164.275 5.79473 163.051 5.80905C163.574 5.76706 164.097 5.72507 164.621 5.68308C163.572 5.66892 162.524 5.65476 161.476 5.6406ZM133.685 5.68308C134.561 5.68747 135.437 5.69187 136.313 5.69626C136.138 5.63083 135.963 5.56541 135.788 5.49998C135.263 5.49998 134.739 5.49998 134.215 5.49998C134.039 5.56101 133.862 5.62205 133.685 5.68308ZM151.53 5.59861C150.255 5.91363 146.78 5.22494 150.841 5.47996C151.25 5.50589 151.651 5.56817 151.53 5.59861ZM170.328 5.51121C173.051 5.28153 172.437 5.78862 169.866 5.64011C169.736 5.63221 170.124 5.52817 170.328 5.51121ZM190.745 5.50388C190.965 5.50559 191.351 5.66978 193.456 5.51365C193.804 5.53237 194.151 5.55108 194.499 5.5698C193.686 5.64609 186.727 5.69147 187.689 5.52879C188.754 5.52625 189.643 5.49881 190.745 5.50388ZM184.007 4.89648C182.962 4.90104 181.918 4.9056 180.874 4.91015C181.218 4.96158 181.562 5.01301 181.907 5.06445C181.393 5.07844 180.879 5.09244 180.365 5.10644C179.487 5.01773 178.609 4.92903 177.731 4.84033C180.001 4.82617 182.271 4.81201 184.541 4.79785C184.363 4.83073 184.185 4.8636 184.007 4.89648ZM156.24 4.76953C158.25 4.83407 160.712 4.76538 163.975 4.77637C163.977 4.77653 163.979 4.77669 163.98 4.77686C164.143 4.77761 164.432 4.84826 164.956 4.85107C165.402 4.85332 174.216 4.77574 173.529 4.8955C170.118 5.00286 168.844 4.83964 168.026 5.10595C167.86 5.0498 167.694 4.99365 167.527 4.9375C164.248 4.84027 163.312 5.03465 161.471 5.10595C161.478 5.06363 161.485 5.02131 161.493 4.979C160.263 4.97477 159.033 4.97054 157.803 4.9663C157.977 4.99413 158.15 5.02197 158.323 5.0498C157.888 5.0498 157.453 5.0498 157.018 5.0498C155.958 4.92441 154.615 4.89518 156.24 4.76953ZM188.743 4.9663C189.709 4.64533 199.117 4.86519 203.414 4.79785C201.158 4.99112 197.663 4.85793 195.202 4.85596C190.445 4.85231 193.733 4.9706 192.926 5.02245C192.528 5.0481 189.83 4.84231 188.743 4.9663ZM148.9 4.82568C151.272 4.85161 152.599 4.77771 154.651 4.8955C154.479 4.91894 154.307 4.94238 154.136 4.96582C153.433 4.94436 147.705 4.87666 148.9 4.82568ZM209.711 4.88183C205.131 4.76657 207.39 5.05719 205.008 4.83935C206.576 4.82552 208.144 4.81169 209.711 4.79785C209.711 4.82585 209.711 4.85384 209.711 4.88183ZM34.2181 91.3984C36.1484 91.4058 38.3041 91.4643 39.4583 91.3433C38.1466 91.3245 36.835 91.3058 35.5233 91.2871C35.0882 91.3242 34.6532 91.3613 34.2181 91.3984ZM6.47319 65.1173C6.44416 65.5581 6.52983 67.3009 6.52983 67.4846C6.52983 67.8258 6.48763 67.7326 6.4766 67.7374C6.48425 69.9708 6.61513 67.9103 6.64359 69.5628C6.64829 69.8454 6.58359 73.7273 6.58891 75.3063C6.59708 77.7356 6.5886 80.1614 6.59086 81.0691C6.59455 82.6013 6.69272 85.4455 6.69779 87.9637C6.69971 89.0018 6.62111 89.3642 6.62308 90.408C6.62435 91.0498 6.62649 91.7512 6.62928 92.5L6.55469 92.4254C13.6234 92.3991 24.9224 92.3152 30.2976 92.3603C31.7663 92.3727 33.1669 92.4756 33.9435 92.4672C34.556 92.4296 35.1685 92.3921 35.781 92.3545C37.6646 92.6929 38.2947 92.3919 40.3252 92.3603C41.6151 92.3404 42.2182 92.4406 42.3914 92.4404C43.5402 92.4384 44.107 92.3907 45.0091 92.3828C46.0218 92.374 47.4767 92.4193 47.8387 92.4111C48.061 92.4056 47.3512 92.2723 51.28 92.2749C55.284 92.2775 59.2368 92.2916 63.3088 92.2978C61.9506 91.8954 60.7811 92.1708 59.1186 92.1855C58.6726 92.1895 58.9554 92.1256 58.5671 92.1284C57.4705 92.136 55.3712 92.1988 54.4636 92.1836C53.4835 92.1672 53.8185 92.0191 52.5756 92.0737C52.5127 92.0765 52.7115 92.1377 52.4191 92.1479C49.4809 92.2491 48.5191 92.1427 44.8044 92.1396C42.3431 92.1374 27.3958 92.1981 26.8828 92.1582C24.2069 91.944 39.9574 91.9425 41.799 91.9594C42.4437 91.9654 41.7678 92.0329 42.3553 92.0459C42.6043 92.051 44.8434 91.9223 47.0561 91.9116C49.7319 91.8986 55.1092 91.9865 57.6593 91.9834C79.58 91.9566 101.197 92.0344 123.097 92.0361C123.564 92.0361 124.178 91.959 125.7 91.959C152.47 91.9603 180.16 92.0144 207.339 91.9902L206.878 92.2815C207.584 90.7898 208.289 89.2998 208.992 87.8115C211.672 82.1435 214.271 76.4943 217.035 70.8021C217.321 70.0687 217.606 69.3352 217.892 68.6018C217.072 70.4353 215.38 73.7053 215.234 74.0073C215.182 74.116 214.913 74.8312 214.384 75.9388C213.64 77.4965 213.266 78.1569 213.205 78.2849C213.017 78.6815 213.193 78.4467 213.013 78.8255C211.671 81.6497 210.649 83.8429 209.419 86.4362C208.208 88.9909 207.443 90.4113 206.667 92.1816L207.339 91.757C207.055 91.7656 206.765 91.7771 206.463 91.7925C206.196 91.7458 205.928 91.699 205.661 91.6523C203.897 91.8543 193.393 91.832 189.138 91.8213C187.796 91.8179 188.031 91.7358 187.58 91.7358C187.292 91.7359 187.406 91.8433 183.893 91.8223C182.125 91.8115 181.662 91.7333 180.775 91.7358C180.293 91.7373 180.371 91.8149 179.679 91.8149C175.676 91.8149 172.407 91.7897 168.488 91.7754C167.386 91.7714 167.374 91.7067 167.128 91.7075C166.22 91.7104 164.641 91.8201 162.333 91.8198C158.534 91.8192 150.964 91.8189 147.857 91.7656C147.401 91.7577 147.023 91.68 146.687 91.6811C146.179 91.6831 145.979 91.7642 145.89 91.7646C144.19 91.766 145.213 91.6907 144.074 91.709C143.46 91.7188 142.82 91.8113 141.394 91.8218C139.51 91.8356 139.881 91.7258 139.094 91.7368C139.011 91.7385 138.986 91.8148 138.213 91.8174C135.28 91.8264 131.025 91.844 128.25 91.8437C127.453 91.8437 126.86 91.7924 125.748 91.7915C123.508 91.7898 110.773 91.8225 109.729 91.793C109.619 91.7898 110.751 91.6773 108.946 91.6806C108.422 91.7275 107.898 91.7744 107.374 91.8213C106.497 91.7462 105.62 91.6712 104.744 91.5962C104.775 91.8554 99.6185 91.8955 99.6699 91.6304C99.1055 91.6196 98.5413 91.6089 97.9769 91.5981C96.8018 91.7813 96.0194 91.7137 93.7482 91.8213C93.3942 91.7651 93.0402 91.709 92.6862 91.6528C92.5971 91.6903 92.508 91.7277 92.4189 91.7651C91.2068 91.5623 89.2189 91.7659 88.9776 91.7671C88.0493 91.7716 87.3517 91.72 86.9162 91.7217C85.2898 91.727 81.7693 91.7981 79.8699 91.7651C79.7807 91.7634 79.8685 91.6767 79.328 91.666C78.3533 91.6467 78.2582 91.7736 76.9584 91.6245C76.6959 91.6619 76.4334 91.6994 76.1709 91.7368C75.8923 91.7174 75.6138 91.6981 75.3353 91.6787C73.6913 91.6886 72.0473 91.6986 70.4033 91.7085C71.8987 91.5617 70.1779 91.4797 68.5514 91.5952C68.001 91.6344 68.4893 91.7238 68.3058 91.7373C68.0539 91.7556 60.6758 91.7101 60.1878 91.6523C59.8387 91.6805 59.4895 91.7086 59.1403 91.7368C58.9637 91.6805 58.7871 91.6242 58.6105 91.5679C58.4178 91.5876 58.2252 91.6072 58.0325 91.6269C56.1124 91.5278 51.1286 91.7553 50.2252 91.7373C49.7426 91.7277 50.1766 91.4877 47.8628 91.5122C47.7825 91.5781 47.7023 91.644 47.622 91.7099C47.0922 91.7194 46.5624 91.7288 46.0326 91.7383C45.0384 91.7324 43.5912 91.6181 43.545 91.54C43.2343 91.5869 42.9237 91.6338 42.613 91.6806C41.7788 91.5279 37.3298 91.5821 35.5402 91.6787C35.0168 91.6326 34.4934 91.5866 33.97 91.5405C33.2668 91.5965 32.5637 91.6525 31.8605 91.7085C30.2315 91.7253 31.9524 91.6323 31.6052 91.6245C30.8707 91.6084 27.1274 91.7657 27.374 91.5698C26.8635 91.5693 26.353 91.5688 25.8425 91.5684C25.58 91.6243 25.3175 91.6803 25.055 91.7363C24.1786 91.5433 22.6623 91.6114 19.5523 91.541C19.2914 91.5854 19.0305 91.6299 18.7696 91.6743C17.808 91.6112 16.8463 91.548 15.8846 91.4849C15.6872 91.5584 15.4897 91.632 15.2922 91.7056C14.874 91.7161 14.4558 91.7267 14.0376 91.7373C13.1879 91.5725 11.6621 91.7506 10.8853 91.6826C9.75194 91.5834 10.6284 91.4652 12.7323 91.4424C12.6122 91.3508 8.93275 91.3612 6.55469 91.3751L7.67954 92.5C7.67521 91.7623 7.67054 91.1499 7.66846 90.8077C7.64503 90.9033 7.62159 90.9988 7.59815 91.0943C7.60404 91.5629 7.60992 92.0314 7.6158 92.5L6.55469 91.4389C7.56395 91.4262 8.57318 91.4135 9.58244 91.4009C10.5252 91.6307 8.42398 91.6386 6.55469 91.6464L7.40826 92.5C7.40579 91.914 7.40334 91.3508 7.39406 90.9113C7.39033 90.743 7.27598 89.7885 7.28664 87.9324C7.29087 87.2136 7.458 84.4098 7.4673 83.8746C7.54362 79.5526 7.3048 82.7306 7.51417 78.502C7.35382 79.3834 7.48707 76.9539 7.45607 74.4249C7.45077 73.9944 7.32078 70.3439 7.3174 70.0974C7.29655 68.5602 7.43828 70.2337 7.40138 68.0095C7.36411 67.7422 7.32684 67.4749 7.28957 67.2076C7.28957 66.6899 7.28957 66.1721 7.28957 65.6543C7.62172 62.5125 7.37712 61.7816 7.34572 60.6646C7.33304 60.2134 7.4197 60.7943 7.40138 59.6243C7.39457 59.1837 7.32247 58.6952 7.3174 57.5099C7.30165 53.8009 7.61027 52.5418 7.28908 49.1319C7.33563 48.6085 7.38218 48.0851 7.42872 47.5617C7.3729 47.2085 7.31707 46.8553 7.26125 46.5021C7.42324 43.8007 7.25732 44.776 7.2593 43.8002C7.26437 41.2239 7.29613 35.9512 7.4297 35.4895C7.12287 33.2654 7.46901 30.6059 7.45704 29.7292C7.41977 29.2082 7.3825 28.6873 7.34523 28.1663C7.38266 27.5538 7.4201 26.9413 7.45753 26.3288C7.15622 26.6266 7.45252 23.4545 7.45704 23.15C7.46155 22.7986 7.37238 17.9199 7.37404 16.1037C7.37573 14.2902 7.45737 11.1297 7.45753 10.8515C7.45753 10.5314 7.37563 7.44444 7.37648 5.03094C7.37661 4.72037 7.37924 4.18495 7.38319 3.5L6.55469 4.32851C10.5277 4.35147 19.5311 4.41926 18.8587 4.3047C18.0402 4.2675 16.8751 4.23526 15.8678 4.21779C14.6071 4.19621 10.8718 4.17218 6.55469 4.14978L7.20446 3.5C7.1713 9.89189 7.14171 17.5593 7.12893 20.359C7.08638 29.766 7.09427 39.5769 7.06497 49.0259C7.06328 49.5818 6.98518 49.6664 6.98343 50.1433C6.98117 50.8674 7.05933 52.7048 7.05764 53.4184C7.05088 56.0837 7.03813 59.3267 7.03616 60.7537C7.03221 63.9432 6.98518 66.1309 6.97757 68.5442C6.97531 69.2996 7.07212 73.1192 7.03128 75.7374C7.0093 76.2118 6.98733 76.6862 6.96536 77.1606C6.93971 75.8122 6.87336 72.2743 6.86575 70.632C6.85478 68.1879 6.91812 66.9131 6.91702 66.0108C6.91618 65.2553 6.84403 61.3944 6.84232 59.6363C6.84175 59.0906 6.92365 58.9787 6.92337 58.5117C6.9214 55.9776 6.91921 52.6401 6.8389 50.4419C6.86511 51.3391 6.91535 45.7364 6.91507 45.4425C6.91504 44.9389 6.83841 44.3925 6.83841 43.3643C6.83845 41.3871 6.99874 41.6378 6.83841 39.1668C6.88512 38.5551 6.93183 37.9435 6.97854 37.3318C6.765 37.2942 7.05546 29.5651 6.79593 27.3668C6.76662 27.3091 6.68346 37.3529 6.67924 38.1819C6.6536 43.1555 6.70596 50.5157 6.66849 55.3425C6.65723 56.7953 6.52741 61.3628 6.52983 61.7073C6.53349 62.2631 6.60775 61.7611 6.61039 62.0011C6.66561 66.9157 6.51636 64.4638 6.47319 65.1173ZM161.471 4.62891C159.978 4.62012 158.485 4.61133 156.992 4.60255C157.1 4.55567 157.208 4.5088 157.317 4.46192C158.001 4.48015 158.685 4.49838 159.369 4.51661C159.894 4.48862 160.42 4.46062 160.946 4.43263C161.121 4.49806 161.296 4.56348 161.471 4.62891ZM165.151 4.43263C166.445 4.40903 166.509 4.50787 166.807 4.5127C167.699 4.52735 168.47 4.48739 169.336 4.48878C168.339 4.72358 166.216 4.61597 165.151 4.43263ZM138.408 4.34816C138.7 4.35939 140.649 4.61217 142.865 4.37697C144.524 4.45167 146.182 4.52638 147.841 4.60108C145.023 4.48695 141.124 4.60559 139.744 4.60108C139.22 4.59937 139.12 4.52178 138.702 4.52052C136.288 4.51432 133.942 4.69013 133.695 4.43312C135.977 4.5078 138.035 4.33435 138.408 4.34816ZM152.972 4.43946C153.359 4.49317 153.745 4.54688 154.131 4.60059C152.736 4.60059 151.34 4.60059 149.945 4.60059C150.323 4.54623 150.7 4.49187 151.077 4.43751C151.709 4.43816 152.341 4.43881 152.972 4.43946ZM45.6424 4.26174C46.503 4.26239 47.3635 4.26304 48.224 4.26369C48.1768 4.22454 47.1923 4.2247 46.8297 4.19826C46.8313 4.19826 46.8329 4.19826 46.8345 4.19826C46.4305 4.16839 46.6034 4.11799 45.8688 4.09572C45.7934 4.15106 45.7179 4.2064 45.6424 4.26174ZM218.491 67.7316C219.111 66.4296 224.82 54.3948 224.205 55.3589C223.895 55.845 221.999 59.9878 221.422 61.2009C220.645 62.8363 218.41 67.1882 218.491 67.7316ZM228.626 46.4293C228.596 46.1599 225.008 53.6716 224.682 54.4176C224.774 54.2701 224.929 54.0489 225.037 53.8452C225.562 52.8517 227.822 48.0341 228.626 46.4293ZM6.90579 12.6022C6.97773 11.9312 7.04967 11.2601 7.1216 10.589C7.02802 10.7656 6.93444 10.9422 6.84085 11.1188C6.8625 11.6133 6.88414 12.1077 6.90579 12.6022ZM7.00881 77.7C7.0068 82.6334 7.00479 87.5667 7.00278 92.5L6.55469 92.0519C12.8009 92.0545 19.0471 92.057 25.2934 92.0595C24.3101 92.0984 23.3267 92.1373 22.3434 92.1762C17.1817 92.1688 11.8362 92.1541 6.55469 92.1512L6.90344 92.5C6.90592 87.9249 6.89947 83.3978 6.87161 79.0799C6.91735 78.62 6.96308 78.16 7.00881 77.7ZM135.258 3.92678C132.393 3.92539 130.001 3.99413 126.885 3.88479C129.854 3.77883 131.325 3.94277 134.21 3.78665C134.212 3.78665 134.214 3.78665 134.215 3.78665C134.563 3.83336 134.91 3.88007 135.258 3.92678ZM71.3064 3.89847C72.1773 3.83304 73.0483 3.76761 73.9192 3.70218C72.8717 3.70218 71.8241 3.70218 70.7766 3.70218C70.9532 3.76761 71.1298 3.83304 71.3064 3.89847ZM89.2714 92.4096C92.2675 92.2668 99.932 92.5253 102.367 92.3535C102.524 92.3422 101.077 92.2697 103.417 92.1294C101.649 92.1581 100.401 92.1874 100.27 92.2978C99.7445 92.2604 99.2196 92.223 98.6946 92.1855C97.8236 92.2138 96.9527 92.2422 96.0817 92.2705C96.1761 92.1606 96.1072 92.1664 94.7693 92.2417C94.1592 92.2138 93.5491 92.186 92.939 92.1582C92.6806 92.2047 92.4221 92.2513 92.1636 92.2978C91.6354 92.2327 91.1072 92.1676 90.579 92.1025C88.5202 92.1731 89.7741 92.2993 89.2714 92.4096ZM78.7838 92.3828C79.2708 92.407 93.1619 92.328 86.8487 92.1089C85.208 92.1159 83.5672 92.1229 81.9264 92.1299C83.2854 92.4928 78.8139 92.1682 78.4466 92.1606C76.6894 92.1252 74.45 92.2115 73.1751 92.207C72.0787 92.2031 71.4274 92.1379 70.6562 92.1396C68.0293 92.1452 63.8799 92.1476 63.3088 92.2978C65.3508 92.3009 67.425 92.3026 69.5484 92.2988C71.794 92.2948 73.7682 92.4366 77.9867 92.2422C79.0298 92.2631 78.6579 92.3766 78.7838 92.3828ZM76.5417 3.71732C76.437 3.86818 81.7384 3.83211 81.7723 3.77249C81.7828 3.73755 80.0563 3.73838 79.8096 3.72513C79.808 3.72513 79.8064 3.72513 79.8048 3.72513C79.702 3.71934 80.2236 3.66159 79.4123 3.64554C78.4554 3.66947 77.4986 3.69339 76.5417 3.71732ZM209.916 86.5947C210.3 85.9835 217.289 71.1789 217.459 70.7259C217.505 70.6027 217.393 70.7518 217.396 70.696C215.867 74.1979 213.412 79.0429 211.85 82.3144C211.415 83.2264 211.598 82.9793 211.575 83.0314C211.574 83.0336 211.573 83.0358 211.572 83.038C211.326 83.5562 210.084 85.8325 209.916 86.5947ZM107.61 92.2846C106.914 92.261 106.218 92.2374 105.522 92.2138C105.345 92.2605 105.169 92.3073 104.992 92.354C104.994 92.354 104.995 92.354 104.997 92.354C105.868 92.3309 106.739 92.3077 107.61 92.2846ZM131.723 92.4384C131.553 92.4056 131.384 92.3727 131.215 92.3398C129.462 92.3353 127.71 92.3307 125.958 92.3261C126.134 92.3076 126.311 92.289 126.487 92.2705C123.838 92.2209 122.74 92.3364 121.329 92.3198C121.331 92.3198 121.332 92.3198 121.334 92.3198C121.182 92.3179 120.998 92.2494 120.433 92.247C119.138 92.2417 115.425 92.2162 114.976 92.2851C114.027 92.4322 121.499 92.3624 122.892 92.3691C123.522 92.3722 124.279 92.4321 124.662 92.4336C125.081 92.4349 125.653 92.3539 126.675 92.3564C126.974 92.3573 130.29 92.4525 131.723 92.4384ZM162.653 92.3403C162.113 92.2662 160.985 92.3378 160.57 92.3256C160.471 92.3228 161.241 92.2607 160.308 92.2422C160.044 92.2845 159.78 92.3268 159.515 92.3691C160.561 92.3595 161.607 92.3499 162.653 92.3403ZM85.4496 3.64603C85.2971 3.63013 82.4509 3.63595 82.3141 3.64603C80.6089 3.7813 86.5042 3.76665 85.4496 3.64603ZM157.278 3.49125C155.969 3.29464 171.503 3.48793 173.008 3.47758C172.933 3.60114 169.238 3.47691 171.173 3.64652C169.327 3.55324 164.221 3.60277 163.019 3.57572C162.29 3.55937 162.106 3.45264 161.996 3.44926C161.563 3.43724 157.74 3.56055 157.278 3.49125ZM185.844 3.56156C184.368 3.53812 182.892 3.51469 181.415 3.49125C183.157 3.47725 184.899 3.46326 186.641 3.44926C186.375 3.48669 186.11 3.52413 185.844 3.56156ZM187.701 3.50541C187.653 3.38564 192.664 3.47688 193.981 3.44926C192.496 3.653 190.02 3.46092 187.701 3.50541ZM104.33 3.33696C102.021 3.25777 101.029 3.62285 103.836 3.46391C103.921 3.45865 104.426 3.34116 104.33 3.33696ZM89.9842 92.9233C90.3777 92.9255 95.2734 93.0439 95.5567 92.9853C96.4528 92.7983 93.2401 92.8733 92.1636 92.8027C90.4269 92.6883 92.981 92.594 88.7416 92.663C88.9149 92.6256 89.0884 92.5882 89.2617 92.5507C86.7806 92.5383 87.5927 92.7977 87.1474 92.831C87.0111 92.8411 85.4599 92.8193 85.1799 92.8359C81.6835 93.0448 89.6191 92.9215 89.9842 92.9233ZM47.1813 3.30913C42.5852 3.19922 44.5625 3.36049 39.846 3.35063C39.6886 3.43292 46.5831 3.38127 47.1813 3.30913ZM45.2307 92.7753C49.984 92.743 53.893 92.8506 58.3263 92.706C58.0378 92.4834 43.9977 92.7178 45.2307 92.7753ZM234.033 37.3918C225.749 53.9319 216.724 73.2622 208.291 91.0556C207.95 91.7735 207.713 92.2459 207.533 92.592L207.477 92.713L207.339 92.7147C206.675 92.6898 206.412 92.657 205.923 92.663C205.415 92.6692 205.504 92.7403 204.828 92.7407C180.393 92.7522 156.997 92.8452 133.591 92.8027C132.117 92.7999 124.945 92.6472 123.412 92.8774C122.253 93.052 127.406 92.9159 128.265 92.9174C128.91 92.9186 128.937 93.0006 129.368 93.0009C129.824 93.0012 129.447 92.9451 129.977 92.9443C132.222 92.9403 134.672 92.9623 136.703 92.9575C156.614 92.9115 175.986 92.9247 195.792 92.9326C198.19 92.9334 197.697 92.9992 197.817 92.9995C197.819 92.9993 197.821 92.9991 197.822 92.999C200.903 93.0005 204.088 92.9931 207.339 92.9819L207.649 92.9779L207.774 92.7065C212.162 83.373 216.795 73.4306 221.27 64.0953C225.42 55.452 229.57 46.8088 233.72 38.1656C233.824 37.9077 233.929 37.6498 234.033 37.3918ZM79.8337 92.6914C81.03 92.9393 81.2974 92.6893 85.5893 92.7905C85.9385 92.7482 86.2877 92.7058 86.6368 92.6635C84.3667 92.6728 82.0966 92.6821 79.8265 92.6914C79.8289 92.6914 79.8313 92.6914 79.8337 92.6914ZM108.18 92.7817C108.906 93.1166 118.503 92.8799 122.824 92.9438C123.617 92.7756 117.334 92.8512 115.853 92.8334C115.113 92.8247 111.151 92.6517 108.139 92.7475C108.153 92.7589 108.167 92.7703 108.18 92.7817ZM141.025 2.99908C140.327 3.00884 139.629 3.01861 138.93 3.02837C140.678 3.06548 142.425 3.10259 144.173 3.1397C141.385 3.11577 138.597 3.09185 135.809 3.06792C136.329 2.99843 136.848 2.92893 137.367 2.85943C138.587 2.90598 139.806 2.95253 141.025 2.99908ZM131.98 3.03472C136.862 3.00855 131.766 3.1946 130.547 3.11187C129.818 3.06227 131.482 3.03754 131.98 3.03472ZM119.282 2.9151C121.559 2.79309 126.16 2.78469 124.525 3.02837C122.064 2.91424 120.478 3.00908 116.91 2.94342C117.431 2.89671 117.952 2.84999 118.473 2.80328C118.475 2.80328 118.478 2.80328 118.48 2.80328C118.747 2.84056 119.015 2.87783 119.282 2.9151ZM134.21 2.88727C137.408 3.02727 128.151 2.9794 131.06 2.88727C131.197 2.88304 134.084 2.88191 134.21 2.88727ZM225.498 55.9724C225.591 55.5903 224.539 57.8129 224.183 58.5498C222.642 61.744 220.724 65.8684 219.133 69.196C219.276 68.9563 219.419 68.7166 219.562 68.4769C221.54 64.3087 223.519 60.1406 225.498 55.9724ZM214.188 79.6201C213.102 81.9098 212.016 84.1995 210.93 86.4891C210.829 86.7025 210.416 87.7327 210.784 86.9955C211.919 84.5371 213.054 82.0786 214.188 79.6201ZM63.8362 93.1689C65.7794 93.2135 60.1841 93.442 60.4359 93.1972C61.5694 93.1878 62.7028 93.1783 63.8362 93.1689ZM45.7556 93.2665C46.9742 93.2433 48.1927 93.22 49.4113 93.1967C49.4129 93.2249 49.4145 93.253 49.4161 93.2812C48.1959 93.2763 46.9758 93.2714 45.7556 93.2665ZM229.819 46.9952C229.178 48.12 227.872 50.9085 227.047 52.6426C227.689 51.4831 229.003 48.6174 229.819 46.9952ZM92.9487 93.2675C92.7913 93.2019 100.52 93.2184 97.8445 93.3339C96.2125 93.3118 94.5806 93.2896 92.9487 93.2675ZM108.648 93.3647C106.99 93.379 105.706 93.3565 106.047 93.2534C106.926 93.2578 107.805 93.2621 108.684 93.2665C108.672 93.2993 108.66 93.332 108.648 93.3647ZM110.615 2.71881C107.822 2.72809 105.028 2.73737 102.235 2.74665C102.338 2.71849 102.442 2.69033 102.545 2.66218C105.238 2.65306 107.932 2.64395 110.625 2.63483C110.621 2.66283 110.618 2.69082 110.615 2.71881ZM230.724 45.6762C231.53 43.935 232.335 42.1937 233.141 40.4524C232.301 42.1792 231.461 43.9059 230.621 45.6327C230.655 45.6487 230.689 45.6648 230.723 45.6808C230.723 45.6793 230.724 45.6777 230.724 45.6762ZM148.883 2.35408C140.349 2.22277 151.238 2.08396 153.49 2.27693C153.493 2.27677 153.495 2.27661 153.497 2.27644C153.695 2.2935 153.278 2.37598 153.606 2.40925C152.737 2.37198 151.869 2.33471 151 2.29744C150.208 2.34383 149.416 2.39021 148.623 2.4366C148.362 2.41837 148.101 2.40014 147.841 2.38191C148.188 2.37263 148.536 2.36336 148.883 2.35408ZM183.325 2.28084C191.063 2.29607 183.145 2.50231 179.315 2.33943C179.343 2.30174 182.612 2.27943 183.325 2.28084ZM163.046 2.32527C161.826 2.34399 160.607 2.36271 159.388 2.38142C159.232 2.35782 159.076 2.33422 158.921 2.31062C159.857 2.28719 160.793 2.26375 161.729 2.24031C162.168 2.26863 162.607 2.29695 163.046 2.32527ZM122.945 1.96102C120.983 1.9351 118.48 2.19751 124.78 2.1285C124.777 2.10034 124.773 2.07219 124.77 2.04403C124.519 2.04853 123.782 2.07494 123.742 2.07284C123.627 2.06579 123.763 1.97177 122.945 1.96102ZM197.654 1.53916C197.874 1.52845 197.994 1.23145 200.286 1.53867C200.979 1.51996 201.671 1.50124 202.364 1.48252C202.543 1.54795 202.722 1.61338 202.901 1.67881C200.22 1.62808 199.936 1.76046 199.742 1.76328C198.85 1.77566 199.51 1.70757 198.935 1.70664C197.45 1.70438 194.077 1.75011 195.607 1.55576C196.158 1.48616 197.433 1.54987 197.654 1.53916ZM192.411 1.37022C192.736 1.39501 191.689 1.48189 191.934 1.50645C192.149 1.52786 195.381 1.6165 194.506 1.76328C193.976 1.75709 193.445 1.75091 192.914 1.74472C192.735 1.70452 192.555 1.66432 192.375 1.62412C191.861 1.66123 191.347 1.69834 190.834 1.73545C189.968 1.63625 188.126 1.50774 190.314 1.42686C189.509 1.43532 188.705 1.44379 187.901 1.45225C187.484 1.49978 187.067 1.5473 186.651 1.59483C186.869 1.5224 187.087 1.44997 187.306 1.37755C189.008 1.37511 190.709 1.37266 192.411 1.37022ZM217.345 1.39805C217.247 1.43549 217.149 1.47292 217.052 1.51036C220.005 1.44076 224.606 1.4143 221.993 1.64902C217.992 1.66855 213.99 1.68808 209.988 1.70761C209.723 1.67946 209.457 1.6513 209.191 1.62314C212.177 1.73163 211.254 1.27 213.851 1.40245C214.289 1.4249 213.018 1.58633 215.77 1.48301C215.672 1.44542 215.575 1.40782 215.477 1.37022C216.1 1.3795 216.722 1.38878 217.345 1.39805ZM242.74 1.4542C237.682 1.4001 243.253 1.26349 244.187 1.37706C244.185 1.37706 244.184 1.37706 244.182 1.37706C246.742 1.68783 241.238 1.53768 240.902 1.53965C240.456 1.5424 239.416 1.76489 236.989 1.44053C238.906 1.44509 240.823 1.44965 242.74 1.4542ZM226.227 1.39854C226.652 1.39122 226.416 1.44772 226.6 1.44688C226.602 1.44688 226.603 1.44688 226.605 1.44688C229.312 1.43476 235.752 1.38417 236.449 1.56651C234.445 1.58172 225.478 1.62112 224.936 1.49717C225.366 1.4643 225.796 1.43142 226.227 1.39854ZM207.176 1.53428C205.514 1.41623 209.255 1.40051 210.236 1.45518C210.422 1.46702 208.898 1.65657 207.176 1.53428ZM79.6796 1.2296C76.0226 1.30062 80.8275 1.37149 79.1643 1.48252C79.8626 1.47308 80.561 1.46364 81.2594 1.4542C80.7327 1.37934 80.2062 1.30447 79.6796 1.2296ZM11.1574 94.9945C12.0098 95.0076 11.606 94.9398 11.68 94.9389C12.2399 94.9407 12.7678 94.996 12.9828 94.9901C16.9558 94.8786 14.3137 94.8217 14.2736 94.8085C14.1896 94.7414 15.234 94.663 13.7871 94.5863C12.9089 94.6101 12.0308 94.6339 11.1526 94.6576C10.7167 94.6203 10.2808 94.5831 9.84494 94.5458C8.10021 94.6258 10.3833 94.6477 10.642 94.7538C10.7417 94.7955 9.10065 94.8454 11.1574 94.9945ZM73.127 1.005C72.534 1.1228 71.0809 1.27139 72.508 1.38975C72.5097 1.38975 72.5113 1.38975 72.5129 1.38975C72.7767 1.41141 73.8516 1.42332 74.1817 1.45372C76.536 1.29678 75.634 1.13461 73.127 1.005ZM3.84924 81.3508C3.87675 79.9348 3.90426 78.5188 3.93176 77.1028C4.0024 77.1269 4.07303 77.151 4.14367 77.1751C4.12463 77.9328 4.10558 78.6906 4.08654 79.4484C4.11877 79.7141 4.15099 79.9798 4.18322 80.2455C4.26378 79.3047 4.34435 78.3639 4.42491 77.4231C4.39675 76.2896 4.3686 75.1562 4.34044 74.0228C4.30317 74.5437 4.2659 75.0647 4.22863 75.5857C4.18748 72.8154 4.35925 73.4186 4.42491 71.1257C4.35948 70.3407 4.29405 69.5556 4.22863 68.7705C4.29438 67.6339 4.36013 66.4972 4.42589 65.3605C4.39517 63.4507 4.34509 63.2828 4.27013 64.5683C4.18447 63.6187 4.3192 62.5789 4.28429 61.4352C4.28147 61.3409 4.20079 61.5187 4.19982 61.4352C4.14543 55.5221 4.3573 55.8366 4.36632 54.8922C4.37251 54.2257 4.22953 51.5651 4.18078 51.5232C4.11508 51.4719 3.85602 57.0055 3.84924 48.3396C3.67005 52.8199 3.85246 57.9136 4.11535 54.6201C4.08889 56.0381 4.15449 62.2912 4.1466 62.6899C4.13469 63.2711 4.03495 63.0672 4.03234 63.7952C4.03093 64.2255 4.25893 65.3654 4.05969 68.7705C4.09712 69.2056 4.13455 69.6407 4.17199 70.0758C4.14123 70.4835 4.11047 70.8913 4.07971 71.2991C3.97001 70.4595 3.86031 69.6198 3.75061 68.7802C3.86981 72.1063 3.64589 74.8657 3.8346 76.8909C3.81263 78.6419 3.79092 79.4926 3.69446 78.7404C3.69446 79.2662 3.69446 79.7919 3.69446 80.3177C3.74606 80.6621 3.79765 81.0065 3.84924 81.3508ZM62.3817 1.17345C60.6414 1.06393 60.0157 1.30021 60.2866 1.31358C61.8128 1.38711 63.2873 1.23043 62.3817 1.17345ZM7.99787 94.869C7.5168 94.8538 7.03574 94.8385 6.55469 94.8233L4.26122 94.8523L4.23141 92.5C4.27703 91.0609 4.32265 89.6219 4.36827 88.1828C4.29357 88.1828 4.21886 88.1828 4.14416 88.1828C4.15453 89.6219 4.16489 91.0609 4.17526 92.5L4.20579 94.9092L6.55469 94.8794C7.03574 94.876 7.5168 94.8725 7.99787 94.869ZM80.2142 1.06164C80.3908 1.11763 80.5674 1.17361 80.744 1.2296C82.8472 1.02509 84.9353 1.31852 85.9746 1.25792C86.2001 1.24468 85.7448 1.14582 85.3147 1.12462C85.0472 1.11138 80.5867 1.04276 80.2142 1.06164ZM167.768 1.08849C166.985 1.12609 166.201 1.16369 165.418 1.20128C165.461 1.1383 165.505 1.07531 165.548 1.01232C165.935 1.0006 166.322 0.988887 166.709 0.977168C167.062 1.01428 167.415 1.05138 167.768 1.08849ZM158.853 1.18859C157.456 1.18354 156.058 1.1785 154.661 1.17345C159.991 1.11568 155.616 1.08749 158.853 1.00549C158.853 1.06652 158.853 1.12755 158.853 1.18859ZM144.708 1.06115C144.879 1.02355 145.051 0.985957 145.223 0.94836C146.62 0.94836 148.018 0.94836 149.416 0.94836C148.532 0.817831 147.648 0.687301 146.764 0.556771C146.252 0.556445 145.74 0.55612 145.228 0.555794C145.054 0.724246 144.881 0.892698 144.708 1.06115ZM48.908 95.2753C49.7527 95.2775 52.6919 95.1635 52.566 95.1215C51.3451 95.0699 50.1241 95.0183 48.9031 94.9667C48.8975 95.0415 48.8919 95.1164 48.8863 95.1913C48.7137 95.154 48.5411 95.1167 48.3685 95.0795C47.6741 95.1075 46.9798 95.1355 46.2854 95.1635C45.9355 95.098 45.5854 95.0326 45.2355 94.9672C44.8839 95.0419 44.5323 95.1166 44.1807 95.1913C47.5333 95.3237 47.418 95.1914 48.1157 95.1927C48.4695 95.1934 48.6934 95.2397 48.8189 95.2631C48.8485 95.2671 48.8782 95.2712 48.908 95.2753ZM6.67097 95.3456C10.6741 95.3642 12.9621 95.1671 15.8581 95.3319C14.835 95.1385 10.7368 95.1617 6.55469 95.1726L3.91642 95.206L3.88213 92.5C3.87324 89.0892 3.8725 85.6225 4.00402 83.7229C3.94771 83.2838 3.8914 82.8447 3.83508 82.4056C3.88523 84.7083 3.76925 86.3039 3.75257 87.4267C3.73932 88.3186 3.79833 88.2254 3.79749 88.2936C3.79749 88.2968 3.79749 88.3 3.79749 88.3032C3.77386 90.3393 3.71926 91.0042 3.70975 92.5L3.74625 95.3805L6.55469 95.3449C6.5929 95.3452 6.63162 95.3454 6.67097 95.3456ZM83.1883 0.786256C82.1126 0.697283 80.2304 0.706181 80.2094 0.836059C81.2569 0.873656 82.3045 0.911252 83.3521 0.948849C83.1369 0.915595 83.3719 0.801474 83.1883 0.786256ZM143.082 0.698368C142.243 0.656097 140.259 0.693138 141.115 0.805299C141.268 0.825205 143.244 0.746365 142.085 0.948849C144.01 0.945718 143.559 0.722665 143.082 0.698368ZM3.97522 24.2096C3.97147 23.5033 3.96773 22.7968 3.96399 22.0904C3.91158 21.9259 3.85917 21.7613 3.80676 21.5968C3.86292 22.4677 3.91907 23.3387 3.97522 24.2096ZM92.2671 0.696415C93.2063 0.952894 94.8106 0.7033 96.573 0.914182C97.224 0.915809 97.875 0.917437 98.526 0.919065C98.5276 0.919065 98.5292 0.919065 98.5308 0.919065C98.5485 0.84908 98.5661 0.779095 98.5838 0.70911C96.4782 0.704878 94.3727 0.700647 92.2671 0.696415ZM3.84876 68.2552C3.88131 67.8201 3.91386 67.385 3.94641 66.9499C3.90849 66.1753 3.87056 65.4007 3.83264 64.6261C3.80546 65.0451 3.77828 65.4641 3.7511 65.8831C3.78365 66.6738 3.8162 67.4645 3.84876 68.2552ZM103.711 0.674443C101.434 0.642317 100.577 0.865279 103.489 0.865844C104.717 0.865844 106.097 0.708012 103.711 0.674443ZM92.4092 95.1923C91.629 95.1732 90.8487 95.1542 90.0685 95.1351C89.8028 95.182 89.5371 95.2289 89.2714 95.2758C90.3174 95.2479 91.3633 95.2201 92.4092 95.1923ZM153.88 0.723758C153.789 0.770632 153.697 0.817505 153.606 0.864379C152.91 0.854939 152.214 0.845499 151.518 0.836059C151.693 0.789511 151.868 0.742963 152.043 0.696415C152.655 0.705529 153.268 0.714644 153.88 0.723758ZM87.1594 95.1635C86.5357 95.1545 85.912 95.1455 85.2883 95.1366C84.8692 95.1594 84.4502 95.1822 84.0312 95.205C84.6148 95.2276 85.1983 95.2502 85.7819 95.2728C86.2411 95.2364 86.7002 95.1999 87.1594 95.1635ZM125.295 0.695927C124.419 0.639567 120.919 0.815167 124.072 0.859984C126.081 0.888437 125.427 0.7045 125.295 0.695927ZM130.018 0.639776C126.681 0.532407 129.183 1.07735 133.165 0.724246C129.156 0.772659 130.214 0.64626 130.018 0.639776ZM159.361 0.358535C159.445 0.358816 159.514 0.437173 160.185 0.440075C162.598 0.45022 165.784 0.481181 167.511 0.485972C171.66 0.497525 184.372 0.355877 185.858 0.582649C186.168 0.630275 185.456 0.772582 185.582 0.779909C185.951 0.800346 188.077 0.731297 187.684 0.836059C185.598 0.835245 183.511 0.834432 181.425 0.833618C181.937 0.759727 182.449 0.685836 182.961 0.611945C177.763 0.65139 179.484 0.646837 177.989 0.80774C177.109 0.745404 176.229 0.683069 175.349 0.620734C173.434 0.683395 171.519 0.746055 169.603 0.808716C170.038 0.762006 170.472 0.715295 170.906 0.668584C168.021 0.582073 168.822 0.638803 167.243 0.752077C167.24 0.705367 167.237 0.658656 167.234 0.611945C164.448 0.725796 163.905 0.585805 163.296 0.584114C162.048 0.581363 160.456 1.13403 155.694 0.584114C153.686 0.848596 153.731 0.310538 152.551 0.584114C149.152 0.286291 155.616 0.39408 158.675 0.403944C158.677 0.403944 158.678 0.403944 158.68 0.403944C158.911 0.404789 158.544 0.354638 159.361 0.358535ZM141.902 0.632452C143.96 0.389673 135.831 0.366947 138.521 0.717411C138.922 0.728803 139.322 0.740196 139.723 0.751589C140.451 0.711877 141.179 0.672164 141.907 0.632452C141.905 0.632452 141.904 0.632452 141.902 0.632452ZM65.5243 0.471324C57.9952 0.571085 62.276 0.710744 64.826 0.574348C65.3347 0.547296 65.6135 0.510207 65.5243 0.471324ZM12.3904 95.5321C12.5004 95.503 12.6103 95.4738 12.7203 95.4447C10.9882 95.4634 8.1467 95.4164 6.55469 95.4484L3.64408 95.4853L3.60625 92.5C3.59158 91.7713 3.56035 91.3044 3.49867 91.3255C3.50001 91.717 3.50134 92.1085 3.50268 92.5L3.54184 95.5902L6.55469 95.552C8.49993 95.5454 10.4452 95.5387 12.3904 95.5321ZM3.39418 78.3623C3.38233 78.9045 3.35436 81.1198 3.42787 80.8523C3.47995 79.8923 3.53203 78.9322 3.58412 77.9722C3.55156 77.525 3.51901 77.0779 3.48646 76.6308C3.47539 77.2552 3.39728 78.2155 3.39418 78.3623Z" fill="#8A0000"/>
</g>
<path d="M20.1606 0.0254245C28.7534 -0.0397074 40.0172 0.0299344 48.5776 0.125522C51.2604 0.155168 49.9019 0.287688 51.7539 0.31412C55.376 0.365646 58.7505 0.300652 62.3299 0.362032C63.5161 0.383023 62.0395 0.592935 63.2833 0.610139C70.0994 0.702908 76.5477 0.649441 83.4525 0.694062C117.463 0.914213 150.895 0.993012 185.322 1.08865C196.674 1.12001 210.473 1.31051 222.198 1.2272C223.566 1.21729 222.75 1.03304 223.011 1.01785C227.095 0.785374 225.737 1.15734 228.404 1.20676C238.989 1.40188 250.759 1.41886 260.945 1.34775C265.279 1.31696 260.934 0.950988 265.297 1.1564C265.6 1.17028 264.5 1.36594 265.689 1.38681C268.384 1.43375 273.497 1.39877 275.586 1.41428C279.612 1.44514 280.278 1.44317 284.086 1.4454C289.291 1.45015 295.482 1.54741 301.067 1.50308C302.259 1.49304 300.681 1.29246 302.582 1.25833C304.485 1.22425 309.519 1.24126 311.216 1.28854C312.913 1.33585 312.191 1.4935 312.491 1.52963C314.962 1.83462 320.785 1.41221 321.534 1.40176C335.195 1.22377 346.909 1.4644 359.732 1.46371C369.466 1.46268 379.875 1.38324 389.138 1.39413C400.172 1.40789 409.525 1.51658 420.245 1.49789C421.377 1.49615 420.051 1.26032 421.433 1.25772C436.114 1.23028 450.692 1.25599 465.31 1.41519C466.776 1.43136 464.887 1.63842 466.351 1.66696C475.319 1.83712 489.507 2.24589 494.833 1.34439C500.907 1.37959 508.281 1.41596 513.715 1.59769C517.219 1.71464 513.816 1.94021 518.12 1.84396C519.09 1.82252 517.828 1.62498 519.284 1.60776C525.413 1.53544 532.109 1.59965 538.172 1.49759C539.405 1.47636 539.068 1.29936 539.418 1.26749C542.355 1.00935 547.243 1.43606 548.309 1.46707C556.425 1.69829 562.351 1.6073 569.911 1.61294C571.666 1.61435 569.592 1.3766 571.28 1.36941C580.036 1.33534 589.106 1.35577 597.679 1.46127C599.586 1.48531 597.833 1.68783 598.744 1.70968C602.762 1.80356 603.653 1.42104 607.506 1.50369C608.319 1.52062 607.861 1.694 608.01 1.71304C610.329 2.01194 612.344 1.58842 612.941 1.57907C620.487 1.45131 625.311 1.89345 632.601 1.83084C633.473 1.8229 631.507 1.60353 633.958 1.59463C648.227 1.54173 663.215 1.58104 677.555 1.70882C679.978 1.69503 682.24 3.37331 682.967 5.61314C683.374 7.00154 683.185 7.23328 683.162 7.10117C683.112 6.97452 683.002 6.53269 683.003 6.62138C683.018 6.92867 683.013 7.2212 682.995 7.5C682.842 9.62697 683.182 11.0344 683.197 11.7659C683.312 18.2318 682.955 24.2719 683.462 28.6652C683.338 48.0032 683.443 67.2785 683.356 86.5C683.418 89.594 680.618 92.3497 677.555 92.2538C672.18 92.2126 666.81 92.1517 661.444 92.062C661.099 92.0568 661.717 91.8473 661.029 91.8377C652.734 91.7201 654.327 92.0457 648.838 92.4438C647.456 92.5438 643.25 92.0631 642.877 92.0279C641.522 91.898 642.928 91.5864 642.474 91.5613C638.717 91.3638 639.329 92.3944 634.261 92.3947C634.103 92.393 634.768 92.2033 634.343 92.1844C633.022 92.1252 631.711 92.2006 630.418 92.1353C627.458 91.9842 626.404 91.4834 621.883 91.7749C621.311 91.8127 622.185 92.3973 617.66 92.3697C615.856 92.3582 607.871 92.3682 605.633 92.3303C603.398 92.2925 604.933 92.1041 604.774 92.0959C598.751 91.8468 601.035 91.7436 598.017 91.3748C595 91.0074 595.837 91.8837 594.607 91.9815C593.375 92.079 588.959 91.8735 587.874 91.802C586.79 91.7306 588.142 91.6109 587.178 91.5704C580.784 91.3061 584.372 92.0054 582.265 92.1444C577.297 92.4738 573.428 91.8239 568.881 91.7602C567.65 91.743 568.654 91.891 567.559 91.9049C563.219 91.9577 560.609 91.755 555.673 91.9409C554.865 91.9712 550.874 92.3619 548.291 92.0752C547.925 92.0338 548.964 91.8719 547.115 91.8356C544.352 91.7812 539.374 91.7458 536.404 91.7999C534.212 91.84 536.725 92.1068 533.965 92.0239C532.739 91.9869 535.012 91.8308 532.707 91.7743C530.415 91.7178 524.555 91.7246 522.324 91.73C520.098 91.7355 521.317 91.9379 521.137 91.9516C520.048 92.0297 515.776 92.1273 515.399 92.127C496.356 92.1518 478.796 91.8106 460.255 91.9235C458.8 91.9321 459.769 92.1455 459.547 92.149C454.566 92.2384 458.493 91.6709 455.014 91.481C455.517 91.9141 453.463 91.8357 449.954 91.8832C448.263 91.9065 449.184 92.0742 449.03 92.0913C446.522 92.3461 444.776 92.0171 444.327 91.9497C442.666 91.7021 440.859 91.9947 439.729 91.8292C438.6 91.6649 441.199 91.4214 437.834 91.4245C436.89 91.5796 439.388 91.9848 436.833 92.0504C427.194 92.2989 409.2 91.9809 401.45 91.9479C393.715 91.9149 391.216 91.9435 386.709 91.8875C378.567 91.7862 381.551 92.0868 376.496 92.2244C371.425 92.362 373.89 91.6223 373.161 91.4633C372.446 91.3044 371.665 91.468 370.775 91.3806C369.888 91.2932 371.808 91.1851 369.722 91.1523C367.634 91.1196 361.927 91.4023 361.187 91.5686C359.623 91.9208 362.195 92.2905 356.671 92.1606C356.354 92.1529 357.385 91.9584 356.168 91.9388C346.507 91.789 336.471 91.7797 326.821 91.6473C325.495 91.6288 326.681 91.4124 325.909 91.3992C317.866 91.2608 320.741 91.6256 316.333 92.0309C317.323 91.4916 314.885 91.1616 308.781 91.1584C305.112 91.1563 305.744 91.3919 303.371 91.5579C302.658 91.6079 300.062 91.4462 299.592 91.557C298.04 91.9191 300.486 92.3245 294.193 92.1631C293.917 92.1554 294.796 91.9572 293.842 91.9452C287.675 91.8666 286.937 92.2454 280.271 92.2912C275.046 92.3272 265.753 92.0963 259.803 92.0587C259.928 91.4523 254.309 91.5912 252.029 92.0092C248.168 91.9921 243.998 92.0158 240.266 91.958C238.981 91.9383 239.825 91.7627 239.663 91.7437C237.18 91.4462 235.501 91.8529 234.668 91.8689C225.635 92.0239 218.276 91.7156 209.655 92.0169C209.349 92.0277 208.854 92.4489 206.549 92.1414C206.4 92.1202 209.247 91.9286 205.192 91.9137C201.136 91.8989 193.49 91.6731 187.86 91.8683C186.497 91.9152 183.051 92.2572 180.285 91.99C179.916 91.9537 180.319 91.8329 179.787 91.7657C178.068 91.5515 177.129 91.9773 175.108 91.6156C173.087 91.2539 168.882 90.983 163.204 91.2326C163.023 91.2398 161.679 91.5773 159.893 91.5719C157.042 91.5631 152.996 91.4928 150.019 91.495C148.594 91.4962 149.506 91.7057 149.259 91.7096C139.676 91.827 132.856 91.6402 122.591 91.5591C120.709 91.5438 115.301 91.8296 111.658 91.6037C107.658 91.3564 111.768 90.3277 102.574 90.5728C98.8649 90.6708 94.1699 91.9759 87.5051 91.2997C74.5796 91.4673 62.626 91.1212 49.6645 91.3605C49.0816 91.371 47.2385 91.7353 45.8682 91.7303C43.8338 91.7223 42.7172 91.552 41.2646 91.5408C35.1778 91.4895 29.6079 91.6352 23.7394 91.6125C21.5114 91.6043 22.2904 91.4283 19.633 91.4184C16.9773 91.4088 15.2064 91.6405 11.6074 91.5286C9.69344 91.4685 7.77933 91.2158 5.55468 91.0522C4.7024 90.9841 3.83949 90.694 3.06933 90.1487C2.92124 90.4174 0.839613 89.6301 0.615754 86.5C0.598866 85.8433 0.581193 85.124 0.559352 84.3442C0.535417 83.4977 0.372766 84.4055 0.353054 84.0049C0.269223 82.3752 0.404026 80.8669 0.312771 79.3195C0.290854 78.943 0.131262 78.9253 0.104337 78.6175C-0.130692 76.0006 0.228294 71.6893 0.290798 70.9488C0.528178 68.1108 0.32061 66.7846 0.414089 64.6079C0.507556 62.4347 0.624398 65.6841 0.681117 63.1455C0.798434 57.8835 0.77266 51.1224 0.779994 45.7782C0.781935 43.6459 0.568904 45.1007 0.564235 44.7955C0.510204 40.3862 0.736808 35.9274 0.312466 33.4825C1.40966 30.4254 0.206044 30.8236 0.425686 24.521C0.44345 24.0246 0.962304 23.393 1.03848 25.299C1.11458 27.205 0.952391 30.0952 1.07113 32.7396C1.099 33.3659 1.58519 36.9532 1.61465 37.4427C1.84482 41.2767 1.06947 41.8199 1.02688 42.0228C0.567302 44.3231 1.09109 48.7068 1.12728 49.8612C1.29312 55.1423 1.18408 59.6292 1.30245 64.0463C1.37896 66.9353 1.88685 67.2179 1.8713 69.4864C1.82056 76.9326 1.12912 79.5928 1.70318 86.5C1.71049 86.5686 1.71978 86.6367 1.73107 86.7046C1.84542 87.2825 2.03639 87.2451 2.22325 87.5489C2.4819 87.7941 2.4554 88.6424 4.08301 89.7641C4.17266 89.813 4.70764 90.1736 5.55468 90.2427C6.99124 90.3312 8.85454 90.3959 10.1743 90.2536C10.4684 90.2217 10.4592 90.06 10.847 90.0464C13.4468 89.9585 15.1806 90.0873 18.0127 90.0256C20.8445 89.9639 24.2496 89.8719 27.4831 89.9267C29.4316 89.9595 31.9318 90.261 32.8646 90.3348C35.4985 90.5473 38.3224 90.1988 39.9543 90.4562C41.5996 90.7149 38.3829 91.1078 42.6977 91.275C42.8574 90.8547 43.2245 90.4233 43.4816 90.0006C52.9374 90.0154 62.2415 90.1513 71.729 90.1327C72.9052 90.13 71.7023 89.904 72.9632 89.8953C78.2831 89.8594 82.93 90.0205 88.4469 89.9563C92.7175 89.9058 97.4003 89.6666 101.866 89.6063C104.593 90.0873 111.22 89.924 116.033 89.9679C117.719 89.9831 117.607 90.1116 118.806 90.1535C123.33 90.3085 121.21 89.8835 122.45 89.8166C127.771 89.5311 128.227 90.4931 134.5 90.4693C134.833 90.4684 138.895 89.9556 139.455 89.9237C143.01 89.7155 140.043 90.1022 142.268 90.1401C146.331 90.2093 149.154 90.3318 153.921 90.1816C155.311 90.1371 158.645 89.8175 161.344 90.0647C161.699 90.097 161.503 90.2665 161.788 90.2765C166.961 90.4419 167.098 89.9094 170.054 89.729C173.01 89.5487 177.577 89.9163 178.506 90.0223C180.938 90.2964 176.643 90.1394 176.512 90.1663C174.965 90.4864 178.296 90.4313 180.84 90.4584C181.209 90.9805 184.768 90.9492 183.478 90.4843C183.332 90.4335 181.351 90.4822 180.84 90.4584C183.074 89.946 186.985 89.8804 191.305 90.3592C193.327 90.5836 191.416 90.8452 197.558 90.7495C200.346 90.7063 199.269 90.3467 201.729 90.2487C207.349 90.025 214.653 90.3604 220.448 90.3076C222.55 90.2884 220.502 90.0916 221.939 90.0717C225.753 90.0183 229.117 90.166 232.948 90.0903C233.295 90.0832 232.447 89.8772 233.638 89.8745C242.669 89.8506 250.532 89.9826 259.961 89.9862C264.517 89.9879 272.662 89.8743 277.381 89.8971C285.56 89.9355 295.623 90.2351 302.61 90.1623C307.167 90.1157 306.168 89.9097 308.12 89.7693C311.889 89.4971 318.559 89.9846 319.457 90.0601C319.484 90.0626 315.563 90.1112 317.655 90.217C318.872 90.4374 319.412 90.0611 319.457 90.0601C320.046 90.1089 327.881 90.1556 329.436 90.1162C330.281 90.0947 329.808 89.8995 330.249 89.8919C340.724 89.7172 351.218 89.6676 361.842 89.7589C362.029 89.7628 361.748 89.9812 362.188 89.9878C368.338 90.0849 372.277 89.8177 377.35 89.6591C382.422 89.5005 386.444 89.5537 389.446 89.9286C393.273 89.8814 398.764 90.0471 401.923 90.1477C405.083 90.2483 405.524 89.8231 405.802 89.8147C414.472 89.5457 419.485 89.7891 428.48 89.8269C432.757 89.8457 441.24 89.784 445.871 89.7375C449.531 89.7001 451.735 89.7997 455.107 89.736C455.564 89.7275 455.103 89.5382 455.242 89.5309C459.005 89.3045 457.197 89.7672 457.974 89.8498C460.791 90.1504 462.531 90.3104 467.35 90.169C468.462 90.1367 471.7 89.4704 473.726 89.4314C476.361 89.382 475.367 89.6208 478.125 89.563C478.361 89.5582 478.312 89.4109 480.015 89.4174C487.918 89.4456 496.534 89.5313 504.747 89.5166C505.868 89.5151 504.43 89.2814 506.051 89.2755C513.657 89.2478 521.993 89.2564 529.402 89.3658C531.226 89.3935 530.083 89.5571 530.479 89.6057C532.909 89.8997 536.356 89.4725 536.925 89.4644C550.491 89.2591 560.874 89.6457 574.701 89.4616C575.454 89.4508 581.247 88.993 583.832 89.3857C584.009 89.4118 586.567 89.8136 588.828 89.5389C588.968 89.5217 587.375 89.3148 590.156 89.3359C592.937 89.357 597.412 89.2188 601.235 89.4461C602.445 89.5177 605.305 89.9185 608.915 89.599C609.15 89.5767 614.723 88.8543 616.712 89.3527C617.035 89.4347 616.697 89.9622 621.006 89.6917C621.829 89.6393 620.335 89.5217 622.504 89.4482C625.826 89.335 630.229 89.4763 634.314 89.2413C635.026 89.1997 638.058 88.8417 640.491 89.1134C640.872 89.156 640.148 89.3321 641.433 89.3518C647.541 89.4463 653.937 89.3285 660.139 89.4504C662.336 89.4932 661.213 89.7778 663.503 89.8541C665.793 89.9304 670.407 90.0037 672.804 89.8736C675.201 89.7435 672.582 89.2898 676.173 89.2535C676.634 89.2489 677.094 89.2446 677.555 89.2407C679.014 89.2536 680.299 87.9344 680.259 86.5C680.247 74.0113 680.424 61.5825 680.456 49.0742C680.461 46.7623 680.299 48.6789 680.296 45.272C680.286 35.1358 680.185 19.0573 680.328 7.5C680.383 5.92008 679.042 4.72509 677.837 4.59135C677.74 4.57684 677.646 4.56749 677.555 4.56225C669.715 4.29373 680.164 4.08925 673.618 3.97896C670.398 3.92533 666.914 4.45278 666.136 4.46938C658.542 4.63806 653.264 4.40441 646.429 4.47609C645.018 4.49097 646.402 4.70475 645.201 4.71505C641.098 4.75212 636.785 4.6567 632.864 4.67415C631.105 4.68247 631.429 4.84575 629.811 4.83315C625.938 4.80488 622.513 4.73624 618.738 4.58321C618.393 4.56927 620.714 4.36616 617.848 4.3586C613.211 4.34695 607.455 4.19599 602.119 4.35189C600.536 4.39879 600.474 4.77195 597.071 4.51424C596.357 4.46042 597.268 4.01233 593.304 4.3995C592.637 4.46383 585.978 4.98605 582.71 4.64943C581.848 4.56084 579.648 4.19417 577.744 4.25179C577.486 4.26099 578.52 4.46143 576.943 4.48098C571.383 4.54639 565.556 4.52501 559.844 4.58779C558.319 4.60495 560.591 4.81236 558.318 4.83132C552.066 4.88374 544.261 4.83093 538.148 4.76601C535.895 4.74168 537.453 4.56986 537.289 4.55117C534.651 4.24704 533.092 4.65754 532.217 4.68148C526.773 4.8248 522.628 4.63197 517.611 4.683C516.226 4.69656 517.208 4.89229 516.932 4.90975C514.074 5.08027 516.203 4.72877 514.394 4.69002C509.324 4.58031 503.674 4.59604 498.547 4.62105C496.664 4.63053 498.781 4.85748 497.091 4.86336C487.089 4.90247 476.691 4.88075 466.93 4.75563C465.093 4.73166 466.249 4.5569 465.866 4.51699C463.226 4.23773 459.357 4.61864 458.466 4.65493C454.418 4.8206 452.846 4.66606 449.271 4.6949C431.807 4.83852 410.244 4.73617 393.759 4.67293C372.277 4.59155 355.608 4.42529 335.123 4.46846C333.821 4.47099 335.134 4.70348 334.011 4.70864C319.521 4.76468 305.256 4.67384 290.737 4.74099C289.545 4.74608 291.263 4.96648 289.35 4.98207C285.428 5.0156 280.459 5.00362 276.493 4.93325C274.559 4.89934 277.153 4.71022 275.206 4.67995C270.672 4.60905 265.812 4.59335 261.156 4.62868C259.174 4.6442 262.164 4.86961 259.588 4.87221C242.041 4.89457 224.808 4.9334 207.077 4.6415C205.861 4.62145 204.794 4.16333 202.21 4.25118C202.015 4.37832 202.026 4.52788 201.941 4.66378C176.397 4.73698 151.114 4.57816 125.499 4.55361C124.419 4.55263 126.285 4.79536 124.195 4.7947C112.093 4.79111 100.341 4.85835 87.9625 4.61708C86.7343 4.59349 87.3645 4.16645 83.745 4.23104C83.1066 4.24282 77.6553 4.29978 76.2459 4.39248C76.0545 4.40646 77.049 4.60578 75.2924 4.61159C65.0843 4.64186 54.3868 4.59635 44.1963 4.47457C42.5517 4.45453 44.3031 4.24227 43.1317 4.22616C34.8223 4.11348 25.7841 4.27484 17.8442 4.08211C12.5294 3.95235 14.4971 3.58543 11.6729 3.22427C11.2734 3.17331 7.98239 3.16524 7.8122 2.9551C7.37527 2.4267 8.96935 1.84811 8.31526 1.28488C8.17707 1.16357 3.7695 1.29423 6.37907 1.00107C6.56137 0.981448 9.75688 0.88415 10.5439 0.784699C11.0919 0.715941 10.1044 0.502235 11.2225 0.414217C12.3404 0.326282 13.5689 0.505422 15.4224 0.40201C17.2752 0.297318 16.4605 0.0542033 20.1606 0.0254245ZM416.15 90.5972C419.075 90.8014 419.507 90.0536 416.343 90.2325C416.189 90.2421 415.999 90.5872 416.15 90.5972ZM62.1884 90.7153C66.0129 91.0451 68.6302 90.5602 65.932 90.3055C63.2344 90.051 61.023 90.6153 62.1884 90.7153ZM22.5285 90.9561C26.9984 91.2161 27.7022 90.1558 22.9146 90.3702C22.6361 90.3823 22.2673 90.941 22.5285 90.9561ZM24.77 3.12142C24.7296 3.11149 22.3639 3.10182 22.3073 3.11166C21.0476 3.34914 25.7781 3.36832 24.77 3.12142ZM0.836451 71.9725C0.69302 73.3678 0.858594 77.3857 1.03695 75.6518C1.18043 74.2561 1.01487 70.2346 0.836451 71.9725ZM568.758 91.3952C568.804 91.4064 570.5 91.4164 570.466 91.3534C570.351 91.1506 567.991 91.2078 568.758 91.3952ZM1.36519 5.30117C0.992806 6.00013 0.8104 6.76393 0.79726 7.5C0.643105 15.8596 -0.0831815 20.0471 0.00729102 10.1955C0.0251729 8.24663 0.286601 14.3958 0.365566 11.9153C0.416853 10.2972 0.379962 8.87289 0.324599 7.5C0.16671 4.96446 2.17957 2.1056 5.46433 2.20025C5.92219 2.24736 4.57925 2.25248 3.39356 2.99709C2.16218 3.6961 1.45687 5.07674 1.35858 5.31644C1.36078 5.31134 1.36298 5.30626 1.36519 5.30117ZM417.834 91.4953C417.893 91.5052 420.241 91.5146 420.297 91.5048C421.568 91.2674 416.838 91.2484 417.834 91.4953ZM667.726 91.8576C667.856 91.8786 673.305 91.8984 673.482 91.8789C676.325 91.4908 665.309 91.4498 667.726 91.8576ZM259.71 92.0425C257.148 92.2813 254.083 92.3094 252.041 92.0096C254.587 92.0255 257.15 92.0278 259.71 92.0425Z" fill="#8A0000"/>
<defs>
<clipPath id="clip0_1506_2121">
<path d="M0.554688 7.5C0.554688 4.73858 2.79326 2.5 5.55469 2.5H677.555C680.316 2.5 682.555 4.73858 682.555 7.5V86.5C682.555 89.2614 680.316 91.5 677.555 91.5H5.55468C2.79326 91.5 0.554688 89.2614 0.554688 86.5V7.5Z" fill="white"/>
</clipPath>
</defs>
</svg>
