<svg width="684" height="93" viewBox="0 0 684 93" fill="none" xmlns="http://www.w3.org/2000/svg">
<g clip-path="url(#clip0_1506_2125)">
<path d="M0.554688 7.5C0.554688 4.73858 2.79326 2.5 5.55469 2.5H677.555C680.316 2.5 682.555 4.73858 682.555 7.5V86.5C682.555 89.2614 680.316 91.5 677.555 91.5H5.55468C2.79326 91.5 0.554688 89.2614 0.554688 86.5V7.5Z" fill="#F9F2EA"/>
<path d="M220.417 92.5L244.555 3.5H6.55469V92.5H220.417Z" fill="#171717"/>
<path d="M244.407 18.1956C241.615 31.16 238.532 39.6901 235.202 51.5162C231.655 64.1119 227.692 78.6852 223.724 93.397L223.081 95.8932L220.417 95.9269C204.16 95.9492 187.75 96.007 173.473 95.9974C152.536 95.9833 131.263 95.9334 110.453 95.8934C109.386 95.8914 108.749 95.8148 108.265 95.8138C103.709 95.8048 96.0684 95.8743 91.5485 95.8641C82.0408 95.843 65.4976 95.8549 56.7895 95.7831C53.0915 95.7526 49.2986 95.74 47.8612 95.5575C46.51 95.5482 45.7725 95.7131 45.4196 95.722C45.4156 95.7219 45.4116 95.7217 45.4076 95.7215C44.2713 95.7494 41.4015 95.6338 40.7684 95.641C40.6737 95.6421 41.2567 95.7615 39.7202 95.7254C39.5834 95.7224 39.7098 95.6412 38.4162 95.64C38.0794 95.6397 33.7528 95.7642 32.5163 95.7718C28.4015 95.7966 18.5748 95.6989 13.6552 95.7005C12.9027 95.7005 12.4694 95.748 11.6749 95.7489C11.2644 95.7494 10.6491 95.6978 10.5229 95.6981C9.96948 95.6999 7.55152 95.9341 8.41946 95.472C7.08473 95.4875 6.66358 95.5375 6.55469 95.5959L3.49842 95.6345L3.45881 92.5C3.42802 92.4425 3.39491 92.472 3.36331 92.5L3.40415 95.7312L6.55469 95.6914C6.57397 95.7132 6.59264 95.7342 6.58165 95.7533C6.57263 95.7533 6.56366 95.7534 6.55469 95.7534L3.3429 95.794L3.30128 92.5C3.28851 89.7779 3.50392 88.4633 3.27407 87.7501C3.3019 74.2736 3.32973 60.7971 3.35756 47.3206C3.31996 47.3166 3.28237 47.3126 3.24477 47.3085C3.39494 43.3364 3.14093 41.9738 3.35902 39.7061C3.31101 38.3078 3.263 36.9096 3.21499 35.5113C3.25895 24.8313 3.27432 14.1588 3.27422 3.5L3.2333 0.261507L6.55469 0.219535C31.7614 0.219301 56.8917 0.132561 81.8635 0.132956C83.3631 0.132956 83.7375 0.212956 86.2105 0.21352C88.941 0.214081 92.7815 0.121106 96.3801 0.122214C99.5367 0.123059 104.194 0.198742 107.714 0.21059C108.508 0.213126 109.083 0.162458 109.172 0.16274C109.698 0.16472 109.725 0.244935 110.235 0.24721C110.845 0.249747 111.583 0.190325 112.288 0.193989C114.922 0.207223 117.793 0.186742 118.127 0.18813C119.734 0.195724 120.089 0.274174 120.221 0.275041C122.008 0.284616 121.338 0.213807 121.783 0.217914C124.093 0.239614 125.726 0.416371 128.888 0.246722C128.802 0.312312 128.716 0.377903 128.63 0.443493C131.05 0.480399 129.452 0.306115 129.946 0.274553C130.148 0.262859 135.357 0.284144 135.759 0.287248C137.158 0.298517 137.196 0.38568 137.317 0.386854C137.611 0.389672 141.132 0.290747 142.936 0.366835C145.072 0.457003 142.558 0.634311 143.089 0.667607C143.178 0.673243 145.414 0.655071 145.714 0.710575C146.045 0.77029 144.112 0.769024 144.141 0.794068C144.163 0.811258 147.372 0.934354 146.757 1.01721C146.262 1.1003 141.908 0.993757 140.985 1.03283C140.833 1.0393 141.12 1.14186 140.985 1.14562C140.443 1.15942 130.41 1.16251 129.951 1.14562C130.473 1.09891 130.996 1.0522 131.518 1.00549C130.824 1.00077 130.129 0.996048 129.434 0.991328C130.422 0.953894 131.41 0.916461 132.397 0.879027C130.929 0.494411 126.508 0.884311 126.326 1.07629C126.247 1.16506 128.95 1.39345 126.435 1.52647C126.817 1.54925 127.199 1.57204 127.582 1.59483C128.37 1.55739 129.158 1.51996 129.946 1.48252C129.421 1.45892 128.896 1.43532 128.372 1.41173C128.565 1.38503 128.758 1.35834 128.951 1.33165C130.424 1.28884 131.897 1.24604 133.371 1.20324C134.128 1.22296 133.971 1.30176 134.491 1.317C140.984 1.50891 136.749 1.2647 141 1.29991C141.607 1.34223 142.214 1.38455 142.82 1.42686C142.606 1.25185 144.489 1.36174 146.767 1.28624C146.494 1.34288 146.222 1.39952 145.95 1.45616C149.249 1.426 155.937 1.71156 154.132 1.39903C154.888 1.42572 155.644 1.45241 156.4 1.47911C157.038 1.428 157.677 1.3769 158.315 1.32579C159.197 1.33165 160.08 1.33751 160.962 1.34337C160.966 1.37104 160.97 1.3987 160.974 1.42637C160.27 1.42654 159.567 1.4267 158.863 1.42686C159.391 1.51117 159.919 1.59548 160.448 1.67978C160.967 1.66579 161.486 1.65179 162.005 1.63779C159.827 1.55805 162.699 1.42781 163.394 1.31651C165.23 1.27538 166.403 1.41986 167.019 1.42637C167.308 1.42947 170.717 1.17457 169.381 1.45469C171.135 1.42068 172.889 1.38666 174.643 1.35264C175.329 1.37413 176.015 1.39561 176.7 1.4171C175.212 1.54757 179.526 1.70478 176.348 1.75888C173.975 1.79946 173.39 1.67747 172.264 1.67832C171.249 1.67892 170.712 1.76108 169.608 1.76474C162.178 1.78785 156.126 1.77278 149.07 1.73642C147.676 1.72912 146.409 1.7694 145.472 1.76377C144.415 1.75727 145.74 1.65422 144.393 1.6793C142.978 1.70581 142.672 1.78991 142.299 1.7916C142.066 1.79255 141.33 1.71689 140.652 1.71689C137.866 1.71691 133.783 1.79007 133.387 1.78964C132.94 1.7888 125.061 1.72053 124.684 1.7081C124.484 1.70134 124.899 1.42195 123.162 1.71982C122.621 1.72536 122.079 1.73089 121.537 1.73642C121.625 1.6806 121.713 1.62477 121.8 1.56895C118.591 1.78058 119.695 1.66218 116.601 1.67881C109.192 1.71882 98.2641 1.67178 90.1614 1.6915C88.3521 1.69602 87.6627 1.76286 85.5222 1.76767C83.5336 1.7719 78.341 1.57245 79.4703 1.84872C75.0454 1.60949 74.3341 2.02203 72.119 1.76474C71.8509 1.80218 71.5829 1.83961 71.3148 1.87704C68.9103 1.71642 68.1682 1.85759 65.543 1.87704C64.4117 1.8855 65.7158 1.71465 63.4323 1.90487C62.9959 1.89071 62.5596 1.87655 62.1233 1.8624C62.2248 1.82106 62.3262 1.77972 62.4276 1.73838C59.8916 1.77219 59.7281 1.75065 60.0174 1.90536C58.793 1.87721 57.5686 1.84905 56.3442 1.82089C56.1921 1.87167 56.0399 1.92245 55.8878 1.97323C56.4744 2.07009 84.2753 1.92402 88.1473 1.87753C92.6878 1.99247 101.809 1.84877 105.477 1.87607C106.945 1.88706 107.594 2.0019 109.73 2.01571C111.866 2.02951 114.553 1.9252 115.69 1.92148C119.479 1.90851 137.427 1.93143 125.22 2.0743C125.571 2.13029 125.922 2.18628 126.273 2.24227C131.124 2.05122 129.367 2.16883 133.392 2.18856C135.087 2.19697 139.116 2.07195 138.891 2.32625C135.745 2.37359 132.402 2.29231 129.666 2.29598C129.395 2.29637 126.155 2.41248 124.488 2.38093C122.984 2.35214 124.02 2.10972 120.747 2.38191C118.317 2.11602 116.912 2.35725 116.27 2.38289C115.161 2.42735 115.039 2.29612 113.93 2.28084C112.722 2.26396 111.89 2.35107 111.725 2.35164C110.068 2.35361 101.439 2.36549 101.043 2.31258C101.39 2.2893 101.737 2.26603 102.084 2.24275C99.8433 2.2053 100.312 2.33948 99.7224 2.35554C99.2837 2.35506 98.845 2.35457 98.4062 2.35408C98.5801 2.32625 98.754 2.29842 98.9279 2.27059C96.2813 2.2765 98.3063 2.37322 94.5495 2.37068C92.164 2.36897 89.7002 2.26273 89.4683 2.27059C89.4 2.27284 90.151 2.34447 89.1785 2.35408C87.5688 2.36986 84.7855 2.36803 84.4741 2.27059C83.6857 2.28438 83.753 2.37974 83.6482 2.38191C83.1905 2.39121 75.3146 2.42363 73.9037 2.42927C69.9943 2.44477 65.6417 2.42444 61.4061 2.4405C60.9706 2.44211 61.2484 2.38092 60.812 2.38289C60.1113 2.38602 56.5144 2.48206 55.9772 2.48884C54.6361 2.50546 51.1081 2.46737 50.5531 2.49519C50.4741 2.49913 51.6353 2.58184 50.2778 2.60749C48.7706 2.63586 49.5821 2.52462 49.5001 2.52351C46.4329 2.48547 44.4964 2.56276 42.4024 2.57771C41.7239 2.58249 40.4716 2.49877 39.5141 2.52351C39.4039 2.52632 39.6224 2.60368 39.5141 2.60749C38.0671 2.64807 36.7134 2.50449 36.0872 2.49519C34.5552 2.47245 35.3895 2.57842 35.3096 2.57917C34.289 2.58255 32.9154 2.54433 31.3635 2.54939C24.4444 2.57193 18.798 2.5784 11.4422 2.57136C10.5185 2.57051 9.42203 2.49577 9.28075 2.49568C8.84405 2.49624 8.96895 2.58407 7.70617 2.5821C7.31861 2.58144 6.93515 2.58097 6.55469 2.58064L5.62386 2.5924L5.63533 3.5C5.63339 5.73301 5.63628 7.86288 5.63483 10.1151C5.63448 10.6458 5.5531 10.8721 5.55134 11.2768C5.54627 12.6339 5.75936 17.2624 5.49421 17.3384C5.72894 20.0323 5.52663 21.8216 5.52888 23.9893C5.53395 29.1247 5.58178 37.1657 5.55134 42.2853C5.54482 43.3632 5.47688 43.8689 5.47322 44.4685C5.46648 45.5438 5.50443 51.6915 5.49372 52.013C5.47315 52.6444 5.17397 52.2658 5.43464 55.5123C5.45322 57.4155 5.33043 57.1907 5.32381 57.5844C5.27449 60.6519 5.54853 63.6362 5.29744 63.0785C5.36562 66.6501 5.50438 68.965 5.26961 70.4225C5.38418 70.4035 5.45291 72.0832 5.40925 74.1078C5.21679 72.0348 5.09379 72.2914 5.12899 67.2782C5.12955 67.1992 5.21241 67.3498 5.21297 67.2709C5.21857 66.555 5.17674 65.0618 5.18123 63.8416C5.18574 62.6213 5.24238 63.2988 5.24129 62.8104C5.24016 62.3632 5.16088 62.3781 5.15975 61.7309C5.15665 59.6317 5.13479 57.774 5.13338 56.5797C5.13256 55.8274 5.20223 54.9853 5.20223 54.4014C5.20166 52.144 5.14726 47.3605 5.15487 44.4878C5.15664 43.8893 5.23481 44.1405 5.24129 42.8311C5.24205 42.6782 5.16054 42.1204 5.14364 40.974C5.12674 39.8272 5.16721 38.9381 5.15877 38.2016C5.15173 37.5861 5.07932 37.8433 5.07479 36.5811C5.07113 35.5288 5.1233 23.6101 5.13485 22.9629C5.1515 22.032 5.2532 21.5894 5.2408 21.0213C5.23815 20.9212 5.13993 20.752 5.1329 20.4055C5.05509 16.5752 5.08964 9.62991 5.12064 3.5L5.10275 2.0843L6.55469 2.06595C9.56986 2.08119 12.3878 2.09557 14.5406 2.0953C28.189 2.09389 40.7805 2.0361 54.5499 2.01327C54.7954 1.99618 55.0409 1.97909 55.2865 1.962C53.8946 1.96135 52.5028 1.9607 51.1109 1.96005C51.1021 1.91383 51.0932 1.8676 51.0844 1.82138C49.2027 1.81406 49.452 1.92338 49.505 1.98934C48.8086 1.96135 48.1123 1.93336 47.416 1.90536C46.8153 2.06644 42.1714 1.95931 39.7773 1.95956C38.2202 1.95956 36.3673 2.02097 35.5463 2.0162C33.8115 2.00634 33.8569 1.90695 33.7205 1.90536C33.489 1.90311 31.0673 1.99077 29.3204 1.98739C26.7378 1.98256 26.4584 1.82994 22.9231 1.95956C18.393 1.88038 13.3736 1.92023 8.49105 1.93319C8.99486 1.85674 7.94044 1.86094 6.55469 1.88047L4.91495 1.90119L4.93516 3.5C4.95167 4.6712 4.97913 6.07907 4.97812 6.9829C4.96431 19.0214 4.90403 33.8177 4.84824 46.0141C4.84119 47.5815 4.75809 48.7657 4.76084 49.639C4.76225 50.1126 4.86022 50.3192 4.84726 50.9769C4.84477 51.0924 4.75315 51.1728 4.73935 52.3969C4.70469 55.4434 4.85759 63.032 4.68174 64.9525C4.7057 74.135 4.72966 83.3175 4.75362 92.5L4.77667 94.3235L6.55469 94.3011C7.78809 94.2978 9.02149 94.2946 10.2548 94.2914C10.5165 94.3288 10.7781 94.3663 11.0397 94.4037C13.0184 94.2124 20.8407 94.3248 24.6555 94.3158C31.3692 94.2998 39.9356 94.2403 45.8181 94.2338C47.0964 94.2324 48.1438 94.2867 49.3537 94.2856C49.8742 94.285 50.5217 94.2146 51.0635 94.2143C57.146 94.2089 65.3814 94.2814 71.5113 94.2797C85.4283 94.276 98.5351 94.2867 112.636 94.2836C148.7 94.2753 184.606 94.2136 220.417 94.2027L221.74 94.1859L222.06 92.9457C225.03 81.9826 228.002 71.0302 230.98 60.0874C231.146 59.4782 231.216 59.5298 231.344 59.0577C232.104 56.2708 233.728 50.0277 234.586 46.8801C235.269 44.3722 236.468 40.4229 236.582 39.527C233.983 48.3899 231.443 57.8094 228.876 67.0735C228.693 67.7321 228.597 67.7939 228.574 67.8748C228.14 69.3698 228.5 68.449 227.914 70.6285C227.718 71.3569 225.657 78.0167 226.11 77.2807C225.579 78.8654 222.453 90.2042 221.89 92.4033C221.719 93.0711 221.917 92.6191 221.885 92.7521C221.873 92.7998 221.861 92.8452 221.85 92.8886L221.571 93.97L220.417 93.9845C219.917 93.983 219.651 93.8988 219.164 93.8964C217.749 93.8902 214.149 93.9712 213.465 93.9706C211.891 93.9697 207.173 93.8885 205.094 93.9076C203.19 93.9251 203.546 94.0294 201.899 94.039C200.601 94.0463 202.015 93.9585 199.117 93.932C197.681 93.9191 192.657 93.9818 191.435 93.9818C190.215 93.9818 188.857 93.9194 187.173 93.9242C184.747 93.931 179.471 93.9657 177.003 93.9858C176.856 93.9869 176.497 94.068 176.134 94.0663C175.382 94.0629 175.608 93.9627 175.04 93.9526C174.472 93.9424 164.631 93.9547 162.96 93.9535C161.808 93.953 161.013 94.0126 160.376 94.0121C159.876 94.0116 159.823 93.9281 159.313 93.9272C159.156 93.9272 157.813 93.9996 156.471 93.998C155.203 93.9963 150.39 93.9273 149.832 93.9267C149.469 93.9264 149.867 93.9857 148.794 93.9843C147.815 93.9828 147.173 93.9058 146.615 93.9047C145.321 93.9022 143.875 93.9679 142.503 93.9682C138.556 93.969 138.759 93.8736 138.523 93.8705C137.866 93.8619 137.603 93.9493 137.388 93.9511C136.478 93.9584 134.248 93.9745 133.437 93.9779C132.426 93.9822 131.998 93.8991 130.925 93.8988C130.125 93.8989 128.51 93.9799 126.684 93.9838C122.57 93.9931 117.677 94.0084 113.636 94.0053C112.431 94.0044 112.246 93.9286 111.878 93.9267C109.942 93.9163 108.859 94.001 108.306 93.9999C104.365 93.9923 97.3354 93.8593 93.6786 93.8481C92.1894 93.8436 85.6702 93.905 81.9924 93.894C81.5716 93.8928 81.9656 93.8334 81.4973 93.8427C80.3773 93.865 80.4812 93.986 79.9131 93.9823C79.639 93.9802 79.0138 93.912 78.2153 93.9052C74.0744 93.87 71.2267 93.923 69.3378 93.9193C51.1958 93.8841 32.6961 93.8524 15.7538 93.8417C13.8649 93.8406 11.5224 93.9126 8.67063 93.8427C8.58288 93.8051 8.49513 93.7675 8.40737 93.7299C8.30759 93.7668 8.20771 93.8038 8.10793 93.8407C7.53447 93.8443 7.02434 93.8487 6.55469 93.8533L5.21869 93.8702L5.20137 92.5C5.18004 90.3241 5.15474 89.0166 5.19344 86.3035C5.19739 86.0194 5.36902 85.1521 5.15584 84.6154C5.31028 81.3479 5.15459 83.1408 5.14022 80.7152C5.12585 78.2899 5.17345 75.9329 5.18416 73.5813C5.26053 72.2922 5.43667 77.7014 5.43611 78.0539C5.43543 78.6219 5.32944 79.2119 5.32381 79.7589C5.30695 81.3788 5.39106 82.9456 5.29647 83.3089C5.39648 85.4025 5.34651 82.7961 5.4366 83.0577C5.39933 84.4552 5.36206 85.8527 5.32478 87.2502C5.50019 87.6577 5.44424 90.3624 5.4081 92.5L5.42277 93.6609L6.55469 93.6466C8.15119 93.6736 9.43136 93.6895 9.20192 93.5898C9.81617 93.6365 10.4303 93.6832 11.0446 93.7299C13.738 93.4372 15.3221 93.6433 18.915 93.7304C18.6558 93.693 18.3966 93.6555 18.1374 93.6181C18.2109 93.6025 21.3818 93.5426 20.2481 93.7021C23.4988 93.492 23.3618 93.8415 26.276 93.5888C28.007 93.5564 26.9661 93.7031 30.0651 93.7006C31.9014 93.6992 34.1809 93.6225 36.233 93.6171C36.7057 93.6161 36.9112 93.7011 37.3318 93.7011C37.7522 93.7011 37.9575 93.6177 38.4669 93.6156C39.5192 93.6111 40.8834 93.6696 41.5411 93.664C42.1305 93.6592 42.9728 93.5857 44.3933 93.5741C49.3538 93.5333 47.8554 93.6382 48.6388 93.6738C49.4806 93.7115 50.0857 93.5732 51.7638 93.5893C51.9322 93.591 51.4968 93.6771 52.044 93.6738C52.4854 93.6711 52.7073 93.5774 54.1692 93.56C54.7513 93.5529 63.7881 93.5329 65.1647 93.5312C67.2745 93.5286 71.9745 93.6079 74.1581 93.6073C74.9996 93.6073 75.8988 93.5321 76.7929 93.5326C79.7552 93.5343 84.4977 93.5407 88.2544 93.5444C91.6375 93.5478 97.5761 93.7137 99.4287 93.5639C104.179 93.5444 105.333 93.6725 105.691 93.6742C106.659 93.679 107.107 93.5942 108.328 93.5903C124.139 93.5409 144.96 93.597 159.934 93.5903C180.048 93.5808 200.226 93.5613 220.417 93.5532L221.236 93.5428L221.433 92.7757C225.27 78.6072 229.114 64.4334 232.969 50.275C232.957 50.1751 232.945 50.0751 232.933 49.9751C231.832 53.945 230.501 58.6009 229.422 62.5224C227.982 67.7579 226.025 75.5728 224.734 79.3496C225.135 77.7848 225.919 75.2708 225.779 75.2817C225.014 78.0661 224.249 80.8505 223.484 83.6348C223.566 83.5677 223.647 83.5005 223.729 83.4334C222.957 86.3478 222.137 89.3204 221.353 92.2426C221.231 92.6976 221.34 92.4677 221.277 92.7334L221.11 93.383L220.417 93.3917C220.385 93.3928 220.347 93.3935 220.299 93.3935C219.787 93.3937 220.134 93.3373 220.038 93.3368C218.744 93.3363 218.354 93.3933 218.196 93.3925C217.791 93.3903 218.106 93.336 216.938 93.3207C214.771 93.2923 213.219 93.4366 213.728 93.1962C213.029 93.1962 212.329 93.1962 211.629 93.1962C211.448 93.2617 211.267 93.3271 211.086 93.3925C206.783 93.1284 204.799 93.5917 202.421 93.2241C201.637 93.2802 200.853 93.3364 200.069 93.3925C199.627 93.3271 199.185 93.2617 198.743 93.1962C198.657 93.2524 198.571 93.3085 198.485 93.3647C194.26 93.3233 189.762 93.3907 185.721 93.3842C182.907 93.3797 182.233 93.3575 179.739 93.3617C174.194 93.3713 179.701 93.2599 175.093 93.1396C175.333 93.2084 175.573 93.2773 175.813 93.3461C175.049 93.3714 174.286 93.3966 173.523 93.4218C172.992 93.3657 172.461 93.3095 171.929 93.2534C169.573 93.5446 168.046 93.3095 167.725 93.3095C167.466 93.31 166.575 93.4853 163.786 93.3368C164.943 93.5766 161.658 93.3383 161.395 93.3368C161.145 93.3359 157.947 93.3894 156.65 93.3871C155.629 93.3854 153.451 93.3338 151.931 93.3364C150.588 93.3386 150.725 93.42 150.627 93.4208C148.974 93.4276 150.01 93.3644 148.815 93.3613C147.621 93.3582 146.694 93.4275 146.437 93.4213C146.307 93.418 146.741 93.3422 146.147 93.3349C144.552 93.3149 141.669 93.3813 139.844 93.3793C139.197 93.3787 138.381 93.3144 137.66 93.3124C136.556 93.3096 136.039 93.3951 135.398 93.3925C135.174 93.3914 133.749 93.2595 131.978 93.2797C131.641 93.2838 130.651 93.563 129.336 93.1674C129.235 93.2231 129.133 93.2787 129.032 93.3344C123.091 93.4722 121.438 93.02 118.797 93.4213C114.484 93.3765 117.445 93.2202 116.971 93.1962C116.665 93.1811 115.259 93.2241 115.104 93.2216C114.831 93.2168 114.878 93.1666 114.578 93.1669C109.08 93.1762 111.521 93.271 109.779 93.331C105.639 93.4739 102.408 93.1567 109.61 93.2519C109.61 93.2239 109.61 93.1959 109.61 93.1679C107.837 93.1947 103.335 93.182 104.838 93.04C106.022 92.9281 116.702 93.0011 110.654 92.8442C109.28 92.8087 108.569 92.9137 106.191 92.7168C104.618 92.7061 104.391 92.9613 102.261 92.8588C102.612 92.9479 102.962 93.0369 103.312 93.1259C100.408 93.242 96.8246 93.0863 94.5938 93.1362C93.8358 93.1532 91.1051 93.5776 91.7417 93.1533C90.4673 93.1797 84.4649 93.1015 83.3496 93.1396C83.0813 93.1488 82.732 93.3747 78.8505 93.2958C78.5808 93.2675 78.3111 93.2392 78.0414 93.2109C81.5916 93.1286 75.322 93.0449 77.0247 92.8305C77.6034 92.9269 80.4186 92.9857 80.8718 93.0341C81.6453 93.1175 79.3414 93.225 82.2773 93.1957C84.1281 92.8374 78.8364 93.0023 79.645 92.6621C75.7904 92.8209 75.4051 92.6693 74.5324 92.663C70.8023 92.6374 68.4547 92.6735 64.9352 92.6337C64.0776 92.7036 70.4491 92.8045 71.2384 92.7744C68.3339 93.0221 73.333 93.0333 75.4429 92.8862C75.62 92.961 75.7971 93.0359 75.9742 93.1108C73.2277 93.0702 70.5486 93.0494 67.8284 93.1108C67.6513 93.0828 67.4742 93.0548 67.2971 93.0268C67.9073 92.9846 68.5175 92.9425 69.1277 92.9003C66.8655 92.8313 68.2222 93.0496 65.2081 92.8583C65.1148 92.9427 65.0214 93.027 64.928 93.1113C62.038 93.0833 59.1481 93.0553 56.2581 93.0273C54.7536 93.1963 49.1927 93.1334 50.211 92.9145C47.9664 92.899 50.7374 93.0155 48.634 93.0688C47.7185 93.0919 45.9293 93.0984 45.4873 93.0395C45.6776 92.8311 48.3552 92.8052 49.1653 92.6621C48.6737 92.6159 36.2217 92.7647 37.3318 92.521C36.3375 92.4917 36.7947 92.6172 35.0013 92.6494C29.9765 92.739 22.1933 92.4908 18.1471 92.8022C22.8983 92.9755 24.3037 92.7919 27.9447 92.7846C30.2703 92.7798 44.4502 92.7503 41.2827 92.9706C41.8036 92.9427 42.3244 92.9147 42.8453 92.8867C43.3717 92.9523 43.8982 93.0178 44.4247 93.0834C42.941 93.0929 41.4574 93.1023 39.9738 93.1118C39.6196 93.0463 39.2654 92.9809 38.9112 92.9155C38.7478 92.9622 38.5844 93.0089 38.421 93.0556C37.7963 93.0649 37.1716 93.0742 36.5469 93.0834C36.7224 93.0273 36.8979 92.9711 37.0734 92.915C36.1106 92.9054 35.1478 92.8958 34.1851 92.8862C34.4443 92.9612 34.7035 93.0362 34.9627 93.1113C30.4285 93.1301 31.9641 93.0831 29.4493 92.9428C27.5716 92.9285 30.7433 93.0727 26.771 93.1093C22.1518 93.1519 25.1823 92.9226 19.2 92.9716C19.1139 93.0091 19.0278 93.0465 18.9416 93.0839C17.6263 93.0465 16.3109 93.0091 14.9955 92.9716C15.1694 93.0182 15.3433 93.0647 15.5171 93.1113C12.8021 93.0932 9.06077 93.1821 8.16106 92.9995C10.9129 93.0874 10.8859 92.7685 10.1703 92.7099C9.84019 92.683 8.49377 92.6677 6.55469 92.6603L6.39643 92.6623L6.39438 92.5C6.42022 85.763 6.35139 71.8716 6.34526 68.5871C6.33512 63.1785 6.43725 59.0905 6.28032 54.1502C6.15161 57.4981 6.25706 69.271 6.16802 71.502C6.15928 71.723 5.867 71.6608 6.19585 73.0814C6.14008 77.6586 6.23325 83.1302 6.22368 88.8489C6.13954 88.6742 6.05539 88.4995 5.97125 88.3249C6.1502 84.8101 5.75714 81.5567 6.08404 82.0145C6.08404 81.3149 6.08404 80.6154 6.08404 79.9158C6.02773 79.9158 5.97141 79.9158 5.9151 79.9158C5.9151 78.8613 5.9151 77.8067 5.9151 76.7522C5.97141 76.7522 6.02773 76.7522 6.08404 76.7522C6.08404 75.8788 6.08404 75.0053 6.08404 74.1319C6.02789 74.0409 5.97174 73.95 5.91559 73.859C6.03221 71.2435 5.72038 62.3272 6.05572 66.2469C6.05572 65.0185 6.05572 63.7901 6.05572 62.5617C6.01454 62.5657 5.97337 62.5697 5.93219 62.5737C5.92665 62.0457 5.92112 61.5176 5.91559 60.9895C5.95286 61.1634 5.99013 61.3373 6.0274 61.5111C5.96062 59.0912 6.15684 56.797 6.02789 55.208C5.99973 56.2561 5.97157 57.3042 5.94342 58.3523C5.9969 56.3422 5.88608 52.639 5.8858 52.3076C5.88524 51.2974 5.96849 50.7648 5.97271 49.6704C5.97632 48.6825 5.91236 48.8184 5.91461 48.6344C5.97973 43.3053 6.32602 45.3362 5.91608 42.848C5.97206 42.5832 6.02805 42.3184 6.08404 42.0535C6.03733 41.7009 5.99062 41.3483 5.94391 40.9957C5.9483 39.422 5.9527 37.8482 5.95709 36.2744C5.8871 36.7993 5.81712 37.3241 5.74714 37.849C5.7159 35.49 5.85622 34.3898 5.85944 34.1613C5.8676 33.5147 5.77952 33.2189 5.77936 33.019C5.78697 23.4059 5.86452 29.2448 6.19536 24.4409C6.06553 22.728 5.93537 24.461 5.80329 24.7042C5.86525 22.4266 5.82867 21.7157 5.836 19.3115C5.83799 18.6859 5.90925 18.0133 5.91022 17.6185C5.91106 17.2766 5.83533 16.2078 5.83502 15.3871C5.83446 14.0191 5.8796 12.1983 5.87848 10.3253C5.87765 9.17558 5.84829 6.27674 5.83274 3.5L5.82373 2.78729L6.55469 2.77805C7.53957 2.77254 8.5091 2.76876 9.37977 2.76862C10.7988 2.76862 10.4695 2.83196 10.836 2.83209C10.9886 2.83209 12.0944 2.75622 13.0047 2.75592C20.4287 2.75423 28.0371 2.80225 35.498 2.80084C40.7542 2.8 46.0953 2.73898 51.3621 2.74518C52.4828 2.74659 51.8895 2.80229 52.3788 2.80426C52.547 2.80476 52.7493 2.70757 54.4823 2.74665C55.1084 2.76074 54.3883 2.82871 55.0039 2.83209C55.3036 2.83371 55.4309 2.7485 57.1822 2.72907C60.3652 2.69358 62.0759 2.80715 62.36 2.80377C62.8958 2.79723 62.7392 2.72672 63.4492 2.72418C66.9211 2.71179 69.8198 2.69983 72.9184 2.69391C74.3652 2.69109 84.3416 2.67684 84.8895 2.68952C86.1152 2.71769 84.9743 2.86494 86.5462 2.85992C86.9865 2.82265 87.4269 2.78538 87.8672 2.74811C87.1677 2.71979 86.4681 2.69147 85.7686 2.66315C87.6943 2.71049 89.8778 2.64353 91.3037 2.64606C91.5672 2.64664 93.9915 2.71341 95.2281 2.70612C94.7025 2.73379 94.1768 2.76146 93.6511 2.78912C93.8371 2.81272 94.023 2.83632 94.209 2.85992C96.6817 2.82415 99.2973 2.82507 101.833 2.83014C102.748 2.83187 102.439 2.8892 103.364 2.89117C108.756 2.90326 107.395 2.66487 112.582 3.11236C110.831 3.07179 104.44 3.12871 103.512 3.11382C102.864 3.10339 100.354 2.72528 101.275 3.11333C96.0978 3.11164 100.595 2.89761 95.7594 2.94439C95.856 2.99175 95.9526 3.03912 96.0492 3.08648C94.3611 3.11633 93.1143 3.14027 92.0886 3.05669C91.7446 3.28646 86.0092 3.15203 82.8633 3.16753C78.3174 3.18951 73.1814 3.24556 68.6776 3.25542C67.126 3.25876 66.2472 3.16871 66.0525 3.169C65.768 3.16964 64.9686 3.24851 64.4007 3.24907C62.2801 3.25132 55.8286 3.118 54.2239 3.33696C66.8414 3.33696 79.459 3.33696 92.0765 3.33696C90.4901 3.22933 103.253 3.21882 103.9 3.22417C104.499 3.22898 103.995 3.30454 104.173 3.30913C105.499 3.34154 106.631 3.23198 107.052 3.23198C107.373 3.232 108.021 3.2834 109.163 3.28227C109.372 3.28211 109.43 3.22775 109.655 3.22759C111.144 3.22759 112.614 3.22836 114.109 3.22808C114.2 3.2286 114.577 3.30801 114.954 3.30815C115.332 3.30815 115.706 3.22881 115.801 3.22856C116.996 3.22913 119.043 3.28073 120.18 3.2813C120.574 3.28127 120.301 3.22312 120.743 3.22368C122.1 3.22509 121.653 3.33892 123.331 3.30962C123.894 3.29974 123.858 3.21269 124.935 3.22417C125.698 3.23234 125.616 3.38747 125.737 3.39311C125.904 3.39992 128.537 3.27741 129.398 3.37895C127.516 3.64701 131.457 3.39294 131.267 3.27983C132.31 3.30831 133.354 3.3368 134.397 3.36528C134.753 3.33663 135.109 3.30799 135.464 3.27934C139.674 3.40841 142.242 3.33092 146.383 3.37065C146.583 3.37262 150.072 3.4363 149.908 3.4766C147.82 3.54591 145.736 3.54908 144.4 3.42094C142.201 3.66527 142.163 3.47056 138.611 3.50297C137.422 3.51396 137.338 3.58025 137.201 3.58109C132.576 3.61406 125.169 3.64258 122.054 3.44877C121.18 3.50119 124.32 3.52198 123.1 3.56058C122.434 3.58173 106.41 3.64362 111.529 3.42045C110.998 3.42664 110.467 3.43282 109.935 3.43901C109.404 3.6498 106.762 3.60159 107.062 3.39164C106.811 3.43461 106.561 3.47758 106.311 3.52055C105.816 3.5569 105.231 3.57637 104.41 3.58793C101.267 3.63187 82.5681 3.55875 81.5737 3.5889C81.5512 3.63871 81.5286 3.68851 81.5061 3.73831C89.7669 3.79468 97.7808 3.67091 106.789 3.81351C106.527 3.7668 106.265 3.72009 106.004 3.67337C109.598 3.7388 113.192 3.80423 116.787 3.86966C112.983 3.9542 106.93 4.0252 102.937 3.95559C102.227 3.94318 102.747 3.87804 102.584 3.87015C102.158 3.84965 101.7 3.96267 100.169 3.97366C98.6378 3.98463 94.7909 3.90451 94.4384 3.90677C93.7588 3.91142 91.9245 4.04073 90.7676 4.03909C89.247 4.03683 90.2661 3.95679 89.961 3.9551C88.6986 3.94724 87.5665 3.9869 86.5776 3.98098C85.1094 3.97218 82.0589 3.83144 81.0328 4.03811C82.0817 4.04755 83.1306 4.05699 84.1795 4.06643C78.4917 4.14054 74.0446 3.87635 68.441 4.0801C67.1677 4.33035 71.7978 4.29653 67.8831 4.40333C68.5939 4.39975 69.3047 4.39617 70.0155 4.39259C70.1822 4.34018 70.3488 4.28778 70.5154 4.23537C71.7399 4.2728 72.9642 4.31024 74.1887 4.34767C73.8393 4.30096 73.4899 4.25425 73.1405 4.20754C77.4813 4.17231 81.8648 4.12441 83.3801 4.3755C83.4695 4.31479 83.5588 4.25409 83.6482 4.19338C87.6784 4.26719 93.7285 4.00988 92.5982 4.34767C92.789 4.32977 92.9798 4.31186 93.1705 4.29396C95.6067 4.363 94.5662 4.22332 95.4817 4.20754C95.7431 4.20309 100.478 4.27522 98.3797 4.3755C102.999 4.45215 101.575 4.13644 102.847 4.12258C105.804 4.27898 111.124 4.04437 108.887 4.29152C109.328 4.3008 109.768 4.31007 110.208 4.31935C111.655 4.12491 113.082 4.34491 114.65 4.41847C115.181 4.42286 115.712 4.42726 116.243 4.43165C116.599 4.36622 116.955 4.3008 117.311 4.23537C122.309 4.54677 120.727 3.69514 123.01 4.41066C122.654 4.45346 122.299 4.49627 121.943 4.53907C121.099 4.55941 120.256 4.57976 119.412 4.6001C122.815 4.61898 126.217 4.63786 129.62 4.65674C133.939 4.8573 136.397 4.6397 141.195 4.79834C141.644 4.7793 142.094 4.76026 142.543 4.74121C142.085 4.90325 140.342 4.87944 143.588 4.95214C143.865 5.06671 141.673 5.08153 140.674 4.99365C140.433 4.9722 142.483 4.88444 140.178 4.88135C138.612 4.87913 141.456 5.01681 136.764 4.96582C136.938 4.99381 137.111 5.0218 137.285 5.0498C136.777 5.04898 136.268 5.04817 135.759 5.04736C135.307 4.98258 134.854 4.9178 134.402 4.85303C133.239 4.94659 132.586 5.0777 129.929 5.0498C130.65 5.00923 129.672 4.87915 128.357 4.88135C128.357 4.92822 128.357 4.97509 128.357 5.02197C125.174 5.05212 126.273 4.9146 123.626 5.02197C123.361 4.98469 123.096 4.94742 122.832 4.91015C121.39 5.06374 116.082 5.16822 117.05 4.93798C115.561 5.16174 112.434 5.06078 111.271 4.88183C111.182 4.92838 111.092 4.97493 111.003 5.02148C110.384 5.03092 109.765 5.04036 109.146 5.0498C108.8 5.02164 108.455 4.99348 108.11 4.96533C107.671 4.99348 107.232 5.02164 106.794 5.0498C106.529 5.00309 106.264 4.95638 105.999 4.90966C105.294 4.96565 104.589 5.02164 103.883 5.07763C103.452 5.04036 103.021 5.00309 102.589 4.96582C102.544 5.06325 98.2696 5.08494 97.0756 5.02099C96.7198 5.04931 96.364 5.07763 96.0082 5.10595C95.8343 5.05956 95.6604 5.01318 95.4865 4.96679C95.2217 5.0039 94.9568 5.04101 94.692 5.07812C94.0818 5.04101 93.4716 5.0039 92.8614 4.96679C90.3728 5.1942 90.2926 4.99468 89.7243 4.99609C88.6709 4.9987 85.0835 5.1411 84.4838 5.13378C83.8848 5.1264 83.5955 5.04478 83.1121 5.0371C75.141 4.90888 78.4176 5.12791 76.8186 5.16259C75.9558 5.18147 75.3451 5.10532 74.5823 5.11376C73.2774 5.12785 66.6946 5.2286 66.3158 5.21874C65.7643 5.20451 67.0626 4.84545 65.2701 4.93798C65.2106 5.13078 61.3773 4.93619 63.169 5.20507C61.5904 5.18147 60.0118 5.15787 58.4332 5.13427C58.6121 5.36281 56.6655 5.21582 54.5451 5.2285C51.5403 5.24628 44.7755 5.39655 45.0227 5.1621C44.3031 5.21597 43.5834 5.26984 42.8637 5.32371C37.9392 5.24991 33.1093 5.32724 28.2216 5.33006C21.1924 5.33429 13.8741 5.32453 6.55469 5.30807L8.36276 3.5C8.34526 11.2861 8.3202 19.0734 8.29637 26.5154C8.29409 27.2095 8.2175 27.1097 8.21581 27.6094C8.20736 30.2349 8.26153 37.0594 8.24462 40.7373C8.23926 41.9155 8.16456 42.4889 8.16112 42.8625C8.14901 44.1306 8.24743 43.8313 8.24462 44.4154C8.2401 45.3366 8.14873 50.209 8.13915 51.8874C8.13441 52.7183 8.21262 53.7015 8.18847 54.6743C8.1865 54.758 8.10589 54.6034 8.10448 54.6743C8.09462 56.4475 8.1643 55.381 8.16064 55.9808C8.13443 60.2583 8.13283 64.8304 8.1162 69.471C8.11198 70.6233 8.05515 72.3868 8.0498 73.376C8.04791 73.7533 8.10907 73.0766 8.104 74.3807C8.10226 74.8274 8.02273 74.9801 8.01757 75.4843C7.99588 77.6571 8.25145 78.3842 8.04589 80.2515C8.05825 83.5435 8.11407 89.0627 8.12472 92.5L6.55469 90.93C6.88068 90.929 7.18791 90.9284 7.47278 90.9282C8.25068 90.928 8.62953 90.975 9.37097 90.9741C9.89695 90.9736 10.8228 90.9008 11.6435 90.8999C12.4643 90.8991 13.7599 90.9684 15.3384 90.9658C17.0004 90.9633 19.0668 90.9221 19.4415 90.9224C19.8939 90.9224 20.1049 91.0099 20.5572 91.0088C21.9253 91.006 25.588 90.92 27.3506 90.9107C29.2445 90.9008 30.3815 90.9432 31.0287 90.9424C31.628 90.9412 32.327 90.8674 32.6008 90.8667C33.0267 90.8656 33.1273 90.9519 33.6683 90.9512C34.552 90.9498 35.4631 90.8955 36.7884 90.8941C60.6553 90.8673 84.0553 90.9147 107.275 90.9775C109.864 90.9846 111.326 90.9241 115.141 90.9517C116.687 90.9629 116.036 91.052 117.239 91.0352C117.776 91.0275 117.64 90.9575 118.319 90.9541C121.318 90.9395 124.812 91.0046 126.112 91.0034C126.627 91.0031 127.217 90.9235 128.273 90.9224C136.15 90.9134 145.469 90.9357 153.945 90.9219C158.433 90.9146 165.228 90.874 170.379 90.8687C184.611 90.8537 199.922 90.8722 212.902 90.8643C215.408 90.8628 217.913 90.8603 220.417 90.8573L218.831 92.07C223.281 75.5855 227.69 59.1496 232.228 42.7075C229.648 51.488 226.402 63.5173 223.715 73.3432C222.035 79.4895 220.339 85.7241 218.633 92.0161L220.417 90.6514C196.832 90.6522 172.488 90.7201 148.864 90.7168C138.372 90.7154 125.144 90.7198 113.658 90.6753C113.137 90.6733 112.057 90.7345 110.931 90.728C110.692 90.7265 107.726 90.6149 106.727 90.6138C107.674 90.8122 103.759 90.6354 102.549 90.6402C101.023 90.6464 97.8397 90.7455 94.2678 90.6895C91.0267 90.6387 91.9206 90.5624 91.7417 90.5576C90.5954 90.5267 90.1953 90.6497 89.3171 90.6621C85.7286 90.7117 67.2707 90.6403 62.1194 90.6358C60.7882 90.6346 60.7505 90.5565 60.4506 90.5562C59.6563 90.5557 58.5257 90.6329 57.2531 90.6323C54.9591 90.6312 52.3166 90.5574 51.0538 90.5572C48.0336 90.5563 42.3026 90.6433 38.3775 90.645C37.2737 90.6455 37.3412 90.5642 36.8416 90.5645C34.6417 90.5659 28.9123 90.6618 26.1818 90.6626C21.7463 90.664 17.1838 90.6114 12.6747 90.6382C12.3889 90.6019 12.1031 90.5656 11.8174 90.5293C11.3666 90.5674 10.9157 90.6055 10.465 90.6436C9.16495 90.6386 7.86105 90.6369 6.55469 90.6374L8.41728 92.5C8.41479 86.1449 8.35931 79.7327 8.36375 73.4436C8.36432 72.5701 8.43377 68.2457 8.43406 67.5245C8.43406 66.9247 8.34416 66.3344 8.35741 65.4452C8.37578 64.1996 8.54699 65.3717 8.49803 63.3369C8.48478 62.7897 8.41149 63.3202 8.38866 62.2211C8.38105 61.8581 8.35136 54.8116 8.35643 54.4328C8.36497 53.8016 8.52199 53.2386 8.52537 53.0756C8.54309 52.2287 8.42259 52.2648 8.4116 51.6966C8.37871 50.0202 8.45977 47.8298 8.45799 47.5573C8.43573 44.2635 8.33954 38.106 8.39647 34.6491C8.4044 34.1711 8.49414 34.2283 8.49705 34.1444C8.51564 33.6027 8.41348 33.2661 8.41112 32.7509C8.39956 29.978 8.46835 25.6357 8.48582 22.847C8.48772 22.5259 8.43858 21.8479 8.44334 21.2749C8.47096 18.0337 8.54982 19.0851 8.5532 18.9009C8.56157 18.4642 8.4746 17.6963 8.46922 16.5342C8.45485 13.5403 8.46734 7.79926 8.4741 4.58963C8.47508 4.15029 8.47921 3.79246 8.48531 3.5L6.55469 5.43062C7.86279 5.45791 7.86214 5.52473 7.99114 5.52634C8.3283 5.52992 9.26513 5.4504 10.8481 5.44139C13.894 5.42364 13.547 5.50189 14.799 5.49851C14.9043 5.49851 14.7213 5.42193 16.1104 5.41404C18.7942 5.39885 24.8225 5.47413 27.6951 5.47019C28.8 5.46879 29.0586 5.39495 30.1898 5.39354C31.9833 5.39101 36.0313 5.47089 36.3505 5.47068C36.4399 5.47068 36.6406 5.38572 37.1667 5.38572C37.7454 5.38574 38.3148 5.42946 38.7461 5.42918C41.2031 5.42801 45.4358 5.27974 44.2596 5.58298C45.0469 5.50812 45.8342 5.43325 46.6214 5.35838C51.7674 5.37332 56.7664 5.34333 61.8649 5.32811C63.0116 5.32474 63.9689 5.38216 64.9368 5.37938C65.9045 5.37656 70.1738 5.28156 70.8874 5.27977C72.1607 5.27667 79.3963 5.26666 80.2962 5.27342C82.0536 5.28639 83.7585 5.41171 84.4741 5.38719C85.0477 5.36746 84.5172 5.29685 85.6116 5.27684C87.5059 5.24223 90.7251 5.33294 91.3037 5.33153C91.5508 5.33095 91.0883 5.27591 93.4024 5.27196C94.6494 5.2697 95.319 5.33034 95.7715 5.33006C95.9122 5.32974 95.7011 5.23141 98.1696 5.24462C99.8743 5.25392 100.601 5.32978 100.78 5.33006C101.049 5.33057 101.697 5.24961 102.775 5.25243C105.295 5.25949 109.903 5.35231 112.297 5.35936C112.76 5.36077 112.603 5.26296 114.449 5.27196C115.77 5.27844 115.539 5.35624 116.033 5.35936C116.817 5.36415 117.985 5.26887 119.716 5.27196C121.894 5.2759 138.069 5.37473 138.906 5.40037C139.469 5.41756 140.122 5.41865 140.401 5.46092C140.162 5.50144 139.923 5.54197 139.683 5.5825C137.206 5.44028 138.206 5.60282 137.549 5.61326C136.596 5.62819 133.007 5.60746 132.139 5.64353C131.83 5.65656 132.538 5.74306 130.876 5.78757C129.093 5.83515 128.299 5.68114 127.589 5.89157C125.058 5.65795 122.627 5.90591 125.558 5.97213C127.194 6.00906 143.243 6.09247 146.52 6.10543C149.178 6.11584 154.154 6.05324 157.422 6.0693C159.342 6.07888 164.072 6.08974 163.872 6.20162C165.577 6.21571 163.773 6.10433 164.13 6.08883C164.879 6.05647 170.199 6.13339 171.206 6.13033C176.173 6.11568 182.441 5.99061 187.266 6.13179C187.042 6.16174 186.817 6.19169 186.592 6.22164C185.508 6.27659 180.478 6.19803 179.91 6.34175C187.266 6.34175 194.622 6.34175 201.978 6.34175C201.841 6.21944 210.965 6.22109 211.397 6.27632C211.237 6.33556 211.076 6.39481 210.916 6.45405C205.76 6.22922 206.223 6.52641 202.761 6.3686C201.351 6.36638 201.777 6.46426 201.082 6.48286C194.17 6.66767 200.971 6.282 195.68 6.36958C197.273 6.51156 192.939 6.56345 190.997 6.58149C190.555 6.58543 184.751 6.54945 184.061 6.5517C180.189 6.56439 173.538 6.64217 169.692 6.5644C166.662 6.5551 164.993 6.65623 162.242 6.67963C160.153 6.69738 160.752 6.6263 159.769 6.62543C157.706 6.62346 157.028 6.83985 155.707 6.53803C154.309 6.57563 152.91 6.61323 151.512 6.65082C151.512 6.60395 151.512 6.55708 151.512 6.5102C150.634 6.5102 149.756 6.5102 148.877 6.5102C148.619 6.55691 148.36 6.60362 148.102 6.65033C145.315 6.58636 146.478 6.47349 145.958 6.34077C145.355 6.33166 144.753 6.32254 144.151 6.31343C143.685 6.41531 143.219 6.5172 142.753 6.61908C140.064 6.61078 137.375 6.60248 134.687 6.59418C134.513 6.54747 134.339 6.50076 134.165 6.45405C134.159 6.50076 134.154 6.54747 134.148 6.59418C129.595 6.60379 125.042 6.61339 120.489 6.62299C119.278 6.69793 126.573 6.75471 127.125 6.75922C130.198 6.78401 138.359 6.70888 138.37 6.87542C140.28 6.75116 146.031 6.78202 147.82 6.93109C145.104 6.92214 142.389 6.91318 139.674 6.90423C139.761 6.96006 139.849 7.01588 139.937 7.07171C136.554 6.84655 136.059 6.85894 132.581 7.07171C132.578 6.99684 132.574 6.92197 132.571 6.84711C130.146 7.10744 125.86 6.66583 125.737 6.98724C124.446 6.9612 123.154 6.93516 121.863 6.90911C119.075 6.94829 123.405 7.19548 112.488 7.09856C111.736 7.0918 111.893 7.00993 110.761 7.01556C110.435 7.01725 108.567 7.13635 104.994 7.12395C104.437 7.12197 104.395 7.05094 103.816 7.04192C102.48 7.02051 99.818 7.16099 101.027 6.93206C95.7341 6.8653 97.9274 7.05318 96.2859 7.12786C95.1918 7.17742 95.412 7.04197 94.465 7.07268C93.2932 7.11077 94.1531 7.24732 89.4611 7.1845C89.9876 7.17522 90.514 7.16594 91.0405 7.15667C90.7757 7.11956 90.5108 7.08245 90.246 7.04534C87.568 7.13438 87.821 7.00428 86.5583 7.21282C84.6115 7.11982 82.9271 7.11242 80.2648 7.12932C75.0927 7.16229 77.7442 7.38703 71.8413 7.0844C70.8849 7.12688 69.9286 7.16936 68.9723 7.21184C67.4002 7.12251 68.6717 7.01075 66.3254 6.98821C68.1617 7.20887 63.2111 7.12841 62.3745 7.32512C62.2867 7.27824 62.199 7.23137 62.1112 7.1845C61.5872 7.1845 61.0631 7.1845 60.5391 7.1845C60.5375 7.22209 60.5359 7.25969 60.5343 7.29729C59.8363 7.26913 59.1384 7.24097 58.4404 7.21282C57.9156 7.25009 57.3907 7.28736 56.8659 7.32463C56.0029 7.24602 55.14 7.16741 54.277 7.0888C53.7352 7.08343 53.1935 7.07806 52.6517 7.07268C52.8232 7.12867 52.9946 7.18466 53.1661 7.24065C52.4698 7.22193 51.7734 7.20321 51.0771 7.1845C51.8874 7.27637 51.3781 7.38409 49.2103 7.38127C47.4215 7.37901 49.4365 7.18726 45.5902 7.26701C45.3219 7.2727 44.847 7.40945 41.2119 7.43058C36.8523 7.45592 38.97 7.35687 38.1931 7.35344C38.0405 7.35287 36.7087 7.4217 35.4617 7.43156C34.754 7.43718 34.0724 7.38161 33.9789 7.38176C33.5423 7.38429 33.415 7.4629 32.8101 7.46574C31.2741 7.4725 29.2119 7.43398 27.7072 7.43791C27.0232 7.4396 26.3798 7.48617 26.0746 7.48673C25.6011 7.48727 25.0005 7.41614 24.5218 7.41642C22.7541 7.41791 20.0709 7.65391 19.2499 7.32609C17.5505 7.62754 13.9903 7.26308 14.2508 7.46525C12.4558 7.43509 9.47798 7.4556 6.55469 7.47046L10.5251 3.5C10.5479 7.97264 10.5574 12.3175 10.352 12.1027C10.6424 14.6748 10.4321 14.4449 10.4364 15.5223C10.4412 16.7273 10.4976 16.1031 10.495 17.0607C10.4891 19.2966 10.4649 21.4331 10.4638 23.6585C10.4172 23.3091 10.3707 22.9597 10.3241 22.6104C10.3092 24.9464 10.4175 24.1421 10.4384 26.5251C10.4764 30.9079 10.39 29.061 10.268 29.708C10.3858 29.5344 10.3675 34.7025 10.352 35.2287C10.3425 35.5424 10.1907 34.1674 10.2397 37.3322C10.2864 37.1591 10.3331 36.986 10.3798 36.813C10.3159 38.2548 10.397 42.1713 10.3813 42.836C10.3739 43.1411 9.99724 44.7734 10.2953 46.2677C10.2486 46.448 10.2019 46.6283 10.1552 46.8086C10.2114 48.4677 10.2675 50.1268 10.3237 51.7859C10.2395 52.0508 10.1554 52.3156 10.0712 52.5805C10.0712 53.1069 10.0712 53.6334 10.0712 54.1599C10.1459 53.8105 10.2206 53.4611 10.2953 53.1118C10.2615 56.3626 10.3793 60.3342 10.1274 61.004C10.1741 61.7003 10.2208 62.3966 10.2675 63.093C10.1837 63.5462 10.0999 63.9994 10.016 64.4526C10.0372 67.677 10.0932 67.7302 10.1825 69.9346C10.1171 69.8485 10.0517 69.7624 9.98626 69.6762C10.0781 71.3021 10.1637 74.2703 10.1752 76.617C10.1806 77.7325 10.0904 79.648 10.0986 79.911C10.1072 80.177 10.4614 82.7931 10.1547 83.0771C10.2905 86.9286 10.1518 88.6241 10.1552 90.1868C10.1573 91.1047 10.2176 91.5713 10.2348 92.5L6.55469 88.8199C6.65312 88.8181 6.75673 88.8167 6.86661 88.816C8.50815 88.805 10.1603 88.8406 11.1073 88.8355C11.6493 88.8324 11.7505 88.7606 12.1241 88.7584C13.8904 88.7474 12.8555 88.8208 14.7178 88.816C14.8895 88.8152 16.2508 88.7276 17.7848 88.7388C18.6425 88.7451 20.8616 88.8436 21.0571 88.8433C21.9253 88.8416 21.2315 88.6447 24.1991 88.8721C24.113 88.8347 24.0268 88.7973 23.9406 88.7598C27.6133 88.6649 28.193 88.8318 28.9349 88.8433C29.0295 88.8443 29.9237 88.7798 30.4587 88.7887C31.3625 88.8038 31.7269 88.8922 31.927 88.8961C32.6321 88.9096 35.0068 88.8707 36.559 88.9561C36.2328 88.7048 41.6717 88.6153 42.8766 88.9C43.8394 88.8438 44.8022 88.7877 45.765 88.7315C46.2005 88.7784 46.636 88.8253 47.0715 88.8721C47.3364 88.8254 47.6012 88.7787 47.866 88.732C49.2692 88.8349 50.6723 88.9377 52.0754 89.0406C52.1648 88.9376 52.2541 88.8345 52.3434 88.7315C52.7363 88.7432 53.1291 88.755 53.522 88.7667C53.8286 88.8485 54.1354 88.9304 54.4421 89.0123C54.9331 88.9967 55.4242 88.981 55.9152 88.9654C56.0368 88.9062 56.1583 88.8469 56.2799 88.7877C58.9197 88.7194 57.5633 89.2844 62.5927 88.7877C63.3752 88.8344 64.1576 88.8811 64.9401 88.9278C65.8238 88.7005 67.4799 88.8381 68.8161 88.8126C69.7578 88.7945 69.7066 88.7042 70.9896 88.7022C72.2734 88.7002 72.2276 88.7866 72.3275 88.7872C73.374 88.7925 74.163 88.7163 74.9309 88.7315C75.0467 88.7338 75.3364 88.8363 76.3147 88.8428C77.2934 88.8493 77.8832 88.7402 79.3407 88.7608C80.0876 88.7712 80.3034 88.8577 80.966 88.8653C84.1229 88.9025 87.3019 88.4649 89.6697 88.984C90.2034 88.9182 94.0745 88.688 95.7313 88.7012C98.308 88.7224 97.3151 88.8242 98.3395 88.8428C98.4868 88.8457 99.2715 88.8113 101.433 88.8175C101.82 88.8186 101.73 88.7611 101.786 88.7603C104.306 88.7615 109.2 88.8068 111.967 88.815C112.215 88.8159 113.509 88.6556 115.703 88.8712C118.955 88.712 125.079 89.054 129.367 88.814C129.962 88.809 130.684 88.8663 130.947 88.8643C133.215 88.8466 132.384 88.6726 137.508 88.9273C137.093 88.8386 138.292 88.7585 139.986 88.7652C142.533 88.7754 140.724 88.9408 142.771 88.9273C142.771 88.8806 142.771 88.8339 142.771 88.7872C147.479 88.9128 148.416 88.7131 153.141 88.712C154.84 88.7117 157.351 88.8152 157.756 88.8155C157.912 88.8152 159.771 88.7026 159.949 88.7017C160.948 88.6984 161.513 88.7503 162.376 88.7506C165.227 88.7517 168.63 88.6052 168.015 88.8712C168.799 88.815 169.583 88.7589 170.367 88.7027C173.329 88.9868 175.544 88.5953 176.165 88.8712C176.695 88.8142 177.225 88.7572 177.754 88.7003C190.46 88.7291 203.165 88.7579 215.87 88.7867C216.199 88.7289 218.66 88.7221 220.417 88.7282L216.776 91.5127C217.026 90.6031 217.227 89.8902 217.258 89.7956C217.66 88.5529 217.486 89.9335 218.14 87.3525C218.135 87.0459 218.13 86.7394 218.126 86.4328C218.975 83.1961 218.635 84.7715 219.036 83.512C219.171 82.9766 219.061 83.1314 219.251 82.4093C220.287 78.4922 222.458 70.4737 223.613 66.1965C223.845 65.334 223.869 65.4802 223.942 65.2124C224.141 64.4761 224.461 63.003 224.861 61.5256C227.339 52.3904 230.892 39.4568 233.449 30.2773C233.623 29.6539 233.715 29.5957 233.833 29.1752C233.996 28.5923 234.292 27.272 234.465 26.6593C234.628 26.082 234.782 25.7259 234.956 25.1084C235.754 22.2827 236.696 18.4483 237.677 15.4596C237.76 15.2083 238.906 12.1092 238.944 12.0424C239.17 11.651 238.578 14.521 239.998 9.92861C239.016 14.1109 239.618 12.8843 241.2 7.5346C240.499 10.243 239.799 12.9514 239.098 15.6598C239.127 15.6717 239.155 15.6837 239.184 15.6956C239.998 13.2778 240.708 10.8527 241.735 7.11922C241.731 7.24322 241.727 7.36721 241.723 7.49121C240.965 10.8293 239.91 14.818 239.416 17.3825C240.555 13.7336 241.693 10.0847 242.832 6.43573C242.803 6.62574 242.775 6.81575 242.747 7.00577C242.324 8.78825 241.31 12.6573 240.964 14.1392C239.644 19.7986 242.445 9.27406 242.099 11.0337C240.489 16.9504 238.88 22.8671 237.27 28.7838C237.304 29.0157 243.727 6.31669 243.935 6.62483C243.449 8.48975 242.962 10.3547 242.476 12.2196C242.77 11.4093 243.064 10.599 243.357 9.78873C243.317 10.0231 243.277 10.2574 243.237 10.4917C242.44 13.6443 241.642 16.7969 240.845 19.9494C243.378 10.3941 244.62 5.97106 245.783 3.83305C245.726 4.09552 245.67 4.35799 245.614 4.62046C244.713 6.59515 242.177 16.3811 240.839 21.5843C241.225 20.5545 242.386 15.9684 242.708 15.0198C242.799 14.7511 242.61 15.7232 242.817 15.0994C243.358 13.4689 245.389 6.44666 245.224 7.50235C245.117 8.18214 242.138 19.5596 241.53 21.7717C243.067 16.6171 244.555 11.28 246.125 6.11779C245.454 9.46302 244.934 12.4459 243.32 18.4463C242.94 20.3056 246.543 7.65343 246.686 7.37601C246.158 9.59154 245.63 11.8071 245.101 14.0226C245.587 12.1593 246.073 10.2959 246.559 8.43263C246.583 8.43332 246.608 8.43402 246.632 8.43472C245.431 13.2773 244.429 17.7339 242.922 23.2402C243.09 23.0949 243.972 19.7949 244.407 18.1956ZM171.996 6.84857C172.111 6.95138 170.018 6.93453 168.84 6.93255C169.017 6.95127 169.194 6.96999 169.371 6.9887C166.856 6.96926 162.174 6.9298 162 7.12932C160.206 7.15412 161 6.98062 160.421 6.96087C160.195 6.95298 157.853 7.05396 155.98 6.93109C155.535 6.93158 155.089 6.93206 154.644 6.93255C154.558 6.99798 154.472 7.06341 154.386 7.12883C153.765 7.04941 153.145 6.96999 152.524 6.89056C159.011 6.87656 165.499 6.86257 171.986 6.84857C171.99 6.84857 171.993 6.84857 171.996 6.84857ZM107.33 6.93304C104.967 6.89612 101.348 6.83783 102.079 7.01702C103.572 7.00758 105.064 6.99814 106.557 6.9887C106.814 6.97015 107.072 6.95159 107.33 6.93304ZM51.8001 89.2081C53.7732 89.3845 55.59 89.2319 58.6418 89.2637C58.6377 89.2265 58.6337 89.1892 58.6297 89.1519C57.3818 89.2414 54.0829 89.1819 51.8001 89.2081ZM230.618 6.17427C231.052 6.18811 231.487 6.20194 231.922 6.21578C230.154 6.41614 229.837 6.27494 227.838 6.29439C227.717 6.2956 227.759 6.34147 227.717 6.34175C227.228 6.34484 226.775 6.28964 226.334 6.29048C225.481 6.29217 224.786 6.34812 223.276 6.34614C222.108 6.34443 222.097 6.25649 221.687 6.25874C221.337 6.26092 217.872 6.50285 215.642 6.39839C211.401 6.19943 229.323 6.15567 230.618 6.17427ZM243.188 6.3398C242.768 6.34061 242.349 6.34142 241.93 6.34224C243.191 6.20706 240.646 6.2276 238.778 6.23042C238.836 6.10079 242.787 6.15624 244.555 6.11764C244.099 6.19169 243.643 6.26574 243.188 6.3398ZM190.15 6.06197C191.791 6.04876 191.517 6.21056 191.449 6.25874C190.926 6.25874 190.404 6.25874 189.882 6.25874C189.971 6.19315 190.06 6.12756 190.15 6.06197ZM202.493 6.00582C201.982 6.11573 198.419 6.16379 196.73 6.17281C196.657 6.17283 197.121 6.11251 195.926 6.11812C195.568 6.11988 192.04 6.33936 192.816 6.09029C196.04 6.06214 199.264 6.03398 202.488 6.00582C202.489 6.00582 202.491 6.00582 202.493 6.00582ZM206.091 6.07076C205.42 6.10527 204.748 6.13977 204.077 6.17427C203.73 6.12268 203.383 6.07109 203.036 6.01949C203.8 6.00647 204.564 5.99345 205.328 5.98043C205.582 6.01054 205.837 6.04065 206.091 6.07076ZM218.789 89.2401C218.695 89.3764 218.601 89.5127 218.507 89.6489C218.393 89.9908 218.157 91.1549 218.045 91.8566L220.417 90.0421C219.935 90.0935 219.675 90.1443 220.053 90.1631C220.174 90.1597 220.296 90.1562 220.417 90.1528L218.151 91.8856C218.364 91.0038 218.576 90.1219 218.789 89.2401ZM222.152 77.2808C222.339 76.6976 222.526 76.1144 222.713 75.5312C222.807 74.8277 222.901 74.1241 222.995 73.4206C222.134 76.3539 221.213 79.4734 221.616 79.0395C221.433 79.7147 221.25 80.3898 221.067 81.065C221.111 80.4666 221.054 80.5332 220.505 82.2813C220.553 82.7093 219.98 84.5152 219.446 86.6158C219.868 85.097 220.289 83.5782 220.711 82.0594C220.738 82.0667 220.765 82.074 220.792 82.0814C219.862 85.4695 221.177 81.3017 221.668 79.0637C221.752 78.8994 221.835 78.7351 221.918 78.5709C221.996 78.1408 222.074 77.7108 222.152 77.2808ZM8.91989 67.5607C8.89173 67.9962 8.86358 68.4317 8.83542 68.8672C9.20215 70.555 8.85427 67.1188 9.14449 64.6724C8.92402 65.4806 8.93323 61.7511 8.91842 61.5377C8.84421 61.9668 8.76999 62.3958 8.69578 62.8249C8.77048 64.4035 8.84518 65.9821 8.91989 67.5607ZM8.66697 79.9062C8.84986 78.3961 8.86107 85.8144 8.82077 88.3031C8.81086 88.9083 8.71044 89.9869 8.72312 90.4235C8.76023 90.6883 8.79733 90.9532 8.83444 91.218C8.79643 91.311 8.78235 91.8034 8.78315 92.5L6.55469 90.2715C8.20846 90.2696 11.0136 90.1838 12.3607 90.1353C12.541 90.182 12.7214 90.2287 12.9017 90.2754C13.5996 90.2569 14.2976 90.2383 14.9955 90.2198C14.9077 90.2663 14.82 90.3129 14.7323 90.3594C15.2603 90.3034 15.7884 90.2474 16.3165 90.1914C18.3896 90.1292 17.1112 90.3829 18.6687 90.3037C20.3998 90.2158 17.5631 90.0647 17.6158 89.9663C16.2107 89.9917 13.0162 90.0485 11.5903 90.0513C10.7716 90.0528 11.6996 89.8766 8.17071 90.0791C7.63206 90.0463 7.09336 90.0134 6.55469 89.9805L9.07415 92.5C9.08848 92.2651 9.10282 92.0301 9.11715 91.7952C9.04212 90.3752 8.96709 88.9552 8.89206 87.5352C8.95732 87.2703 9.02259 87.0055 9.08785 86.7406C9.09807 86.589 8.94988 83.3049 8.90085 83.4804C9.02561 82.1501 9.04785 79.4189 9.05416 76.5421C9.01868 76.2652 8.9832 75.9882 8.94772 75.7113C9.02435 78.4938 8.91018 76.5967 8.84225 77.426C8.80308 77.9048 8.72615 79.3695 8.66697 79.9062ZM203.752 90.2188C208.424 90.0596 205.531 90.1909 210.581 90.1909C210.229 90.1066 209.876 90.0223 209.524 89.938C207.041 90.0921 202.955 89.9896 203.747 90.2188C203.749 90.2188 203.75 90.2188 203.752 90.2188ZM226.518 60.2184C225.868 62.811 226.345 61.551 225.499 64.8314C225.499 64.833 225.498 64.8345 225.498 64.8361C225.965 63.148 226.433 61.4598 226.901 59.7717C226.773 59.9206 226.645 60.0695 226.518 60.2184ZM96.9412 90.0406C94.3789 90.0039 94.8832 90.0695 92.558 89.9385C89.096 90.0975 92.0267 90.075 92.0267 90.2193C92.818 90.1769 93.6093 90.1346 94.4006 90.0923C96.3191 90.2272 94.4996 90.2952 94.4996 90.3081C94.5013 90.3081 94.5029 90.3081 94.5045 90.3081C94.5044 90.3514 94.4423 90.3606 95.1783 90.3867C95.7659 90.2713 96.3535 90.156 96.9412 90.0406ZM85.9747 90.2188C86.8534 90.123 87.2486 89.9999 84.9387 89.9385C84.9371 89.9385 84.9355 89.9385 84.9338 89.9385C84.7484 90.1527 82.5338 89.9798 81.5239 89.9942C81.259 90.0174 80.9942 90.0407 80.7293 90.064C82.4778 90.1156 84.2262 90.1672 85.9747 90.2188ZM47.3347 90.4156C47.3249 90.179 49.2636 90.1565 46.5354 89.9385C46.0057 89.9427 45.476 89.947 44.9463 89.9512C44.5985 90.0031 44.2508 90.055 43.903 90.107C37.184 89.6789 35.1808 90.4078 46.5354 90.1353C46.537 90.1351 46.5386 90.135 46.5402 90.1348C46.805 90.2284 47.0699 90.322 47.3347 90.4156ZM59.1682 90.3955C59.2535 90.2713 59.3389 90.1472 59.4242 90.023C60.908 90.3225 62.8249 90.0367 65.7346 90.2481C65.9978 90.2103 66.2611 90.1726 66.5243 90.1348C67.6117 90.2179 78.293 90.2418 75.979 90.0508C74.9688 89.9674 72.7681 90.0807 72.5787 90.0782C71.9369 90.0688 71.0999 89.9621 70.0164 89.9683C69.3902 89.972 68.0703 90.0974 66.7924 90.0972C63.9354 90.0966 58.7205 89.76 54.9637 90.0787C54.6932 90.0412 54.4228 90.0038 54.1523 89.9663C51.3646 89.9892 52.2952 90.1078 49.7014 89.9663C47.9095 90.5562 60.1283 89.9372 57.584 90.4156C57.5856 90.4156 57.5872 90.4156 57.5888 90.4156C58.1153 90.4089 58.6418 90.4022 59.1682 90.3955ZM135.924 90.2188C136.092 90.3247 139.326 90.1613 138.566 90.4151C139.621 90.3267 140.677 90.2383 141.732 90.1499C141.724 90.1263 141.716 90.1027 141.708 90.0791C140.659 90.0977 139.61 90.1162 138.561 90.1348C138.557 90.0974 138.553 90.0599 138.549 90.0225C136.986 90.1579 130.463 90.0989 130.662 89.9663C130.313 90.0223 129.965 90.0783 129.616 90.1343C126.496 89.9818 123.812 90.144 120.413 89.9952C120.149 90.0415 119.886 90.0879 119.623 90.1343C119.451 90.0969 119.28 90.0594 119.108 90.022C117.87 90.0173 116.632 90.0126 115.394 90.0079C111.36 90.1586 119.199 90.3537 120.149 90.3316C120.276 90.3285 120.256 90.2316 121.045 90.2163C122.447 90.1896 130.293 90.2861 132.719 90.2222C132.74 90.2865 132.761 90.3508 132.782 90.4151C133.829 90.3496 134.877 90.2842 135.924 90.2188ZM32.3424 90.1626C32.1653 90.0972 31.9882 90.0318 31.8111 89.9663C28.7547 90.0317 26.8302 89.9746 27.6139 90.1909C27.6155 90.1909 27.6171 90.1909 27.6187 90.1909C29.1933 90.1815 30.7679 90.1721 32.3424 90.1626ZM118.905 5.89303C118.825 5.76297 117.363 5.71435 115.475 5.80759C115.566 5.84535 115.657 5.8831 115.748 5.92086C116.732 5.81011 117.96 6.00315 120.996 5.9775C120.996 5.91208 120.996 5.84665 120.996 5.78122C120.299 5.81849 119.602 5.85576 118.905 5.89303ZM34.9796 90.1909C35.9112 90.2681 38.5257 90.034 36.8053 90.0225C35.4899 90.0138 34.4798 90.1495 34.9796 90.1909ZM229.392 50.1055C229.198 50.7686 229.004 51.4316 228.81 52.0946C228.769 52.4565 228.729 52.8184 228.688 53.1802C228.689 53.1786 228.689 53.1771 228.69 53.1755C228.924 52.1522 229.158 51.1289 229.392 50.1055ZM105.7 90.0298C103.358 90.038 101.015 90.0461 98.6728 90.0542C98.6494 90.0905 98.6261 90.1268 98.6027 90.1631C100.949 90.0307 101.893 90.1734 102.44 90.1822C102.438 90.1822 102.435 90.1822 102.433 90.1822C104.19 90.2109 105.864 90.232 107.526 90.2754C106.918 90.1936 106.309 90.1117 105.7 90.0298ZM113.73 90.2588C113.336 90.0024 112.82 89.9725 109.221 90.1529C109.364 90.1844 109.506 90.216 109.649 90.2476C111.514 90.2287 112.601 90.1695 112.274 90.3033C112.759 90.2884 113.245 90.2736 113.73 90.2588ZM77.0465 90.1768C77.4784 90.2584 80.9059 90.1764 80.7197 90.1353C80.646 90.1189 76.2046 90.0167 77.0465 90.1768ZM144.926 5.83639C144.137 5.81768 143.347 5.79896 142.557 5.78024C143.608 5.75241 144.658 5.72458 145.709 5.69675C145.448 5.7433 145.187 5.78985 144.926 5.83639ZM153.596 5.47166C154.159 5.50435 152.329 5.73491 155.695 5.7944C153.245 5.79929 150.796 5.80417 148.346 5.80905C149.495 5.77178 150.643 5.73451 151.792 5.69724C151.592 5.631 151.391 5.56476 151.191 5.49851C151.993 5.48956 152.794 5.48061 153.596 5.47166ZM156.226 5.6406C154.907 5.46536 161.853 5.4522 162.5 5.47361C162.644 5.4787 163.33 5.61156 163.582 5.64011C162.533 5.64027 161.484 5.64044 160.435 5.6406C160.786 5.68243 161.137 5.72426 161.488 5.76608C160.261 5.78041 159.033 5.79473 157.806 5.80905C158.33 5.76706 158.855 5.72507 159.38 5.68308C158.329 5.66892 157.277 5.65476 156.226 5.6406ZM128.357 5.68308C129.235 5.68747 130.114 5.69187 130.992 5.69626C130.816 5.63083 130.641 5.56541 130.465 5.49998C129.94 5.49998 129.414 5.49998 128.888 5.49998C128.711 5.56101 128.534 5.62205 128.357 5.68308ZM146.252 5.59861C144.974 5.91363 141.489 5.22494 145.562 5.47996C145.972 5.50589 146.373 5.56817 146.252 5.59861ZM165.104 5.51121C167.834 5.28153 167.218 5.78862 164.64 5.64011C164.51 5.63221 164.899 5.52817 165.104 5.51121ZM185.578 5.50388C185.799 5.50559 186.186 5.66978 188.297 5.51365C188.646 5.53237 188.994 5.55108 189.343 5.5698C188.527 5.64609 181.549 5.69147 182.513 5.52879C183.581 5.52625 184.473 5.49881 185.578 5.50388ZM178.821 4.89648C177.774 4.90104 176.726 4.9056 175.679 4.91015C176.024 4.96158 176.37 5.01301 176.715 5.06445C176.2 5.07844 175.685 5.09244 175.169 5.10644C174.289 5.01773 173.408 4.92903 172.527 4.84033C174.804 4.82617 177.08 4.81201 179.357 4.79785C179.178 4.83073 179 4.8636 178.821 4.89648ZM150.976 4.76953C152.991 4.83407 155.46 4.76538 158.733 4.77637C158.735 4.77653 158.736 4.77669 158.738 4.77686C158.901 4.77761 159.19 4.84826 159.716 4.85107C160.164 4.85332 169.002 4.77574 168.313 4.8955C164.893 5.00286 163.616 4.83964 162.795 5.10595C162.628 5.0498 162.462 4.99365 162.295 4.9375C159.006 4.84027 158.068 5.03465 156.221 5.10595C156.229 5.06363 156.236 5.02131 156.243 4.979C155.01 4.97477 153.776 4.97054 152.543 4.9663C152.717 4.99413 152.891 5.02197 153.065 5.0498C152.629 5.0498 152.192 5.0498 151.756 5.0498C150.693 4.92441 149.346 4.89518 150.976 4.76953ZM183.571 4.9663C184.539 4.64533 193.974 4.86519 198.283 4.79785C196.021 4.99112 192.516 4.85793 190.048 4.85596C185.278 4.85231 188.575 4.9706 187.766 5.02245C187.366 5.0481 184.66 4.84231 183.571 4.9663ZM143.615 4.82568C145.993 4.85161 147.325 4.77771 149.382 4.8955C149.21 4.91894 149.038 4.94238 148.865 4.96582C148.161 4.94436 142.416 4.87666 143.615 4.82568ZM204.599 4.88183C200.005 4.76657 202.271 5.05719 199.882 4.83935C201.454 4.82552 203.026 4.81169 204.599 4.79785C204.599 4.82585 204.599 4.85384 204.599 4.88183ZM40.2371 91.3984C42.1728 91.4058 44.3346 91.4643 45.4921 91.3433C44.1767 91.3245 42.8613 91.3058 41.546 91.2871C41.1097 91.3242 40.6734 91.3613 40.2371 91.3984ZM6.47319 70.9803C6.44416 71.4223 6.52983 73.1701 6.52983 73.3543C6.52983 73.6965 6.48763 73.603 6.4766 73.6079C6.48425 75.8476 6.61513 73.7813 6.64359 75.4384C6.64829 75.7218 6.58359 79.6147 6.58891 81.1982C6.59708 83.6343 6.5886 86.067 6.59086 86.9773C6.59388 88.2362 6.66032 90.3782 6.68703 92.5L6.55469 92.3677C7.02269 92.3618 7.48976 92.3578 7.94612 92.3569C8.98723 92.355 9.3506 92.4336 10.3973 92.4316C17.1165 92.4184 30.344 92.3104 36.3054 92.3603C37.7783 92.3727 39.1829 92.4756 39.9618 92.4672C40.576 92.4296 41.1902 92.3921 41.8044 92.3545C43.6933 92.6929 44.3252 92.3919 46.3615 92.3603C47.655 92.3404 48.2598 92.4406 48.4336 92.4404C49.5856 92.4384 50.154 92.3907 51.0587 92.3828C52.0742 92.374 53.5332 92.4193 53.8963 92.4111C54.1191 92.4056 53.4074 92.2723 57.3473 92.2749C61.3626 92.2775 65.3267 92.2916 69.4102 92.2978C68.0481 91.8954 66.8753 92.1708 65.2081 92.1855C64.7609 92.1895 65.0445 92.1256 64.6551 92.1284C63.5553 92.136 61.4502 92.1988 60.5399 92.1836C59.5571 92.1672 59.893 92.0191 58.6466 92.0737C58.5835 92.0765 58.7828 92.1377 58.4896 92.1479C55.5431 92.2491 54.5786 92.1427 50.8534 92.1396C48.3851 92.1374 33.3954 92.1981 32.881 92.1582C30.1975 91.944 45.9926 91.9425 47.8395 91.9594C48.486 91.9654 47.8081 92.0329 48.3973 92.0459C48.6471 92.051 50.8924 91.9223 53.1114 91.9116C55.7948 91.8986 61.1874 91.9865 63.7446 91.9834C85.7275 91.9566 107.406 92.0344 129.367 92.0361C129.836 92.0361 130.452 91.959 131.978 91.959C160.454 91.9604 189.968 92.0212 218.807 91.9848C219.344 91.9842 219.88 91.983 220.417 91.9815L219.916 92.3643C221.404 86.8169 222.845 81.2897 224.415 75.7024C224.567 74.9278 224.718 74.1533 224.87 73.3787C224.386 75.3339 223.297 78.862 223.208 79.1859C223.175 79.3025 223.037 80.0561 222.711 81.2432C222.254 82.9128 222.002 83.6311 221.965 83.7682C221.849 84.1931 221.981 83.93 221.871 84.3358C221.065 87.2984 220.455 89.6093 219.723 92.3118L220.417 91.7812C220.357 91.7812 220.297 91.7812 220.237 91.7812C216.985 91.7818 215.337 91.6727 212.97 91.7925C212.702 91.7458 212.434 91.699 212.166 91.6523C210.397 91.8543 199.863 91.832 195.596 91.8213C194.25 91.8179 194.486 91.7358 194.034 91.7358C193.745 91.7359 193.859 91.8433 190.336 91.8223C188.563 91.8115 188.098 91.7333 187.209 91.7358C186.726 91.7373 186.804 91.8149 186.11 91.8149C182.096 91.8149 178.818 91.7897 174.888 91.7754C173.783 91.7714 173.771 91.7067 173.523 91.7075C172.613 91.7104 171.029 91.8201 168.715 91.8198C164.906 91.8192 157.313 91.8189 154.198 91.7656C153.741 91.7577 153.361 91.68 153.025 91.6811C152.515 91.6831 152.315 91.7642 152.225 91.7646C150.521 91.766 151.546 91.6907 150.404 91.709C149.789 91.7188 149.147 91.8113 147.717 91.8218C145.828 91.8356 146.199 91.7258 145.41 91.7368C145.327 91.7385 145.302 91.8148 144.526 91.8174C141.585 91.8264 137.319 91.844 134.535 91.8437C133.736 91.8437 133.141 91.7924 132.026 91.7915C129.78 91.7898 117.009 91.8225 115.962 91.793C115.851 91.7898 116.987 91.6773 115.177 91.6806C114.651 91.7275 114.126 91.7744 113.6 91.8213C112.721 91.7462 111.842 91.6712 110.963 91.5962C110.994 91.8554 105.823 91.8955 105.874 91.6304C105.308 91.6196 104.742 91.6089 104.177 91.5981C102.998 91.7813 102.214 91.7137 99.9358 91.8213C99.5808 91.7651 99.2258 91.709 98.8708 91.6528C98.7814 91.6903 98.6921 91.7277 98.6027 91.7651C97.3873 91.5623 95.3937 91.7659 95.1517 91.7671C94.2208 91.7716 93.5212 91.72 93.0845 91.7217C91.4535 91.727 87.923 91.7981 86.0182 91.7651C85.9287 91.7634 86.0168 91.6767 85.4748 91.666C84.4973 91.6467 84.4019 91.7736 83.0984 91.6245C82.8352 91.6619 82.572 91.6994 82.3087 91.7368C82.0294 91.7174 81.7501 91.6981 81.4707 91.6787C79.8221 91.6886 78.1735 91.6986 76.5248 91.7085C78.0244 91.5617 76.2988 91.4797 74.6677 91.5952C74.1157 91.6344 74.6054 91.7238 74.4214 91.7373C74.1688 91.7556 66.7698 91.7101 66.2804 91.6523C65.9302 91.6805 65.5801 91.7086 65.2299 91.7368C65.0528 91.6805 64.8757 91.6242 64.6986 91.5679C64.5054 91.5876 64.3122 91.6072 64.119 91.6269C62.1935 91.5278 57.1955 91.7553 56.2896 91.7373C55.8055 91.7277 56.2408 91.4877 53.9204 91.5122C53.84 91.5781 53.7594 91.644 53.6789 91.7099C53.1476 91.7194 52.6163 91.7288 52.085 91.7383C51.088 91.7324 49.6368 91.6181 49.5904 91.54C49.2788 91.5869 48.9673 91.6338 48.6557 91.6806C47.8192 91.5279 43.3575 91.5821 41.5629 91.6787C41.038 91.6326 40.5132 91.5866 39.9883 91.5405C39.2831 91.5965 38.578 91.6525 37.8728 91.7085C36.2392 91.7253 37.9649 91.6323 37.6168 91.6245C36.8801 91.6084 33.1263 91.7657 33.3736 91.5698C32.8617 91.5693 32.3497 91.5688 31.8377 91.5684C31.5744 91.6243 31.3113 91.6803 31.048 91.7363C30.1691 91.5433 28.6486 91.6114 25.5297 91.541C25.2681 91.5854 25.0065 91.6299 24.7448 91.6743C23.7805 91.6112 22.8161 91.548 21.8517 91.4849C21.6537 91.5584 21.4556 91.632 21.2576 91.7056C20.8382 91.7161 20.4188 91.7267 19.9994 91.7373C19.1473 91.5725 17.6172 91.7506 16.8381 91.6826C15.7016 91.5834 16.5805 91.4652 18.6904 91.4424C18.5327 91.3224 12.2475 91.3775 10.7982 91.3862C10.894 91.4097 10.9898 91.4331 11.0856 91.4565C12.5676 91.438 14.0496 91.4194 15.5316 91.4009C16.7734 91.7027 12.7489 91.6217 10.9021 91.6606C10.7333 91.6644 9.77608 91.7787 7.91472 91.7681C7.65924 91.7665 7.1411 91.7446 6.55469 91.7164L7.33824 92.5C7.38951 91.4319 7.46129 90.1372 7.4673 89.7908C7.54362 85.4566 7.3048 88.6435 7.51417 84.4029C7.35382 85.2869 7.48707 82.8504 7.45607 80.3143C7.45077 79.8826 7.32078 76.2218 7.3174 75.9746C7.29655 74.433 7.43828 76.1112 7.40138 73.8808C7.36411 73.6127 7.32684 73.3446 7.28957 73.0766C7.28957 72.5573 7.28957 72.0381 7.28957 71.5189C7.62172 68.3681 7.37712 67.6352 7.34572 66.515C7.33304 66.0625 7.4197 66.6451 7.40138 65.4717C7.39457 65.0299 7.32247 64.54 7.3174 63.3514C7.30165 59.6319 7.61027 58.3692 7.28908 54.9496C7.33563 54.4247 7.38218 53.8999 7.42872 53.375C7.3729 53.0208 7.31707 52.6666 7.26125 52.3124C7.42324 49.6033 7.25732 50.5814 7.2593 49.6028C7.26437 47.0192 7.29613 41.7316 7.4297 41.2686C7.12287 39.0381 7.46901 36.3712 7.45704 35.4919C7.41977 34.9695 7.3825 34.4471 7.34523 33.9246C7.38266 33.3104 7.4201 32.6962 7.45753 32.082C7.15622 32.3806 7.45252 29.1995 7.45704 28.8942C7.46155 28.5417 7.37238 23.6492 7.37404 21.8279C7.37573 20.0092 7.45737 16.8398 7.45753 16.5608C7.45753 16.2398 7.37563 13.1441 7.37648 10.7237C7.37689 9.75009 7.40169 6.57259 7.41533 3.5L6.55469 4.36064C10.166 4.37667 13.6323 4.37727 13.2051 4.3047C12.3843 4.2675 11.2159 4.23526 10.2057 4.21779C9.55683 4.20671 8.25429 4.19499 6.55469 4.18318L7.23786 3.5C7.19257 10.015 7.14591 22.3645 7.12893 26.0952C7.08638 35.5288 7.09427 45.3676 7.06497 54.8433C7.06328 55.4008 6.98518 55.4856 6.98343 55.9639C6.98117 56.69 7.05933 58.5327 7.05764 59.2483C7.05088 61.9211 7.03813 65.1733 7.03616 66.6044C7.03221 69.8029 6.98518 71.9968 6.97757 74.4169C6.97531 75.1745 7.07212 79.0049 7.03128 81.6305C7.0093 82.1062 6.98733 82.582 6.96536 83.0577C6.93971 81.7055 6.87336 78.1576 6.86575 76.5107C6.85478 74.0597 6.91812 72.7812 6.91702 71.8763C6.91618 71.1188 6.84403 67.2469 6.84232 65.4838C6.84175 64.9366 6.92365 64.8243 6.92337 64.356C6.9214 61.8147 6.91921 58.4677 6.8389 56.2633C6.86511 57.1631 6.91535 51.5445 6.91507 51.2498C6.91504 50.7448 6.83841 50.1968 6.83841 49.1657C6.83845 47.1828 6.99874 47.4343 6.83841 44.9563C6.88512 44.3429 6.93183 43.7295 6.97854 43.1161C6.765 43.0784 7.05546 35.3274 6.79593 33.1228C6.76662 33.065 6.68346 43.1373 6.67924 43.9686C6.6536 48.9563 6.70596 56.3373 6.66849 61.1779C6.65723 62.6347 6.52741 67.2151 6.52983 67.5607C6.53349 68.118 6.60775 67.6146 6.61039 67.8553C6.66561 72.7838 6.51636 70.325 6.47319 70.9803ZM156.221 4.62891C154.724 4.62012 153.227 4.61133 151.729 4.60255C151.838 4.55567 151.947 4.5088 152.055 4.46192C152.741 4.48015 153.427 4.49838 154.113 4.51661C154.64 4.48862 155.168 4.46062 155.695 4.43263C155.87 4.49806 156.046 4.56348 156.221 4.62891ZM159.911 4.43263C161.21 4.40903 161.273 4.50787 161.573 4.5127C162.467 4.52735 163.241 4.48739 164.109 4.48878C163.109 4.72358 160.98 4.61597 159.911 4.43263ZM133.093 4.34816C133.386 4.35939 135.34 4.61217 137.563 4.37697C139.226 4.45167 140.889 4.52638 142.552 4.60108C139.727 4.48695 135.817 4.60559 134.433 4.60108C133.908 4.59937 133.807 4.52178 133.387 4.52052C130.967 4.51432 128.614 4.69013 128.367 4.43312C130.656 4.5078 132.719 4.33435 133.093 4.34816ZM147.699 4.43946C148.086 4.49317 148.473 4.54688 148.86 4.60059C147.461 4.60059 146.062 4.60059 144.663 4.60059C145.041 4.54623 145.42 4.49187 145.798 4.43751C146.432 4.43816 147.065 4.43881 147.699 4.43946ZM40.0647 4.26174C40.9277 4.26239 41.7906 4.26304 42.6536 4.26369C42.6063 4.22454 41.619 4.2247 41.2553 4.19826C41.2569 4.19826 41.2585 4.19826 41.2602 4.19826C40.855 4.16839 41.0284 4.11799 40.2917 4.09572C40.2161 4.15106 40.1404 4.2064 40.0647 4.26174ZM225.306 72.4134C225.687 71.0181 229.184 58.126 228.748 59.1869C228.53 59.7217 227.394 64.1473 227.04 65.447C226.563 67.1992 225.131 71.8916 225.306 72.4134ZM231.525 49.5882C231.449 49.3276 229.241 57.3789 229.052 58.1731C229.117 58.0112 229.23 57.7652 229.3 57.545C229.643 56.4711 231.017 51.315 231.525 49.5882ZM6.90579 18.3165C6.97773 17.6435 7.04967 16.9705 7.1216 16.2975C7.02802 16.4746 6.93444 16.6518 6.84085 16.8288C6.8625 17.3247 6.88414 17.8206 6.90579 18.3165ZM7.00881 83.5987C7.00761 86.5658 7.0064 89.5329 7.0052 92.5L6.55469 92.0495C14.7988 92.0528 23.0429 92.0562 31.2871 92.0595C30.301 92.0984 29.3148 92.1373 28.3287 92.1762C21.2039 92.1661 13.7298 92.142 6.55469 92.1541L6.90059 92.5C6.89627 89.9466 6.88737 87.431 6.87161 84.9825C6.91735 84.5212 6.96308 84.06 7.00881 83.5987ZM129.934 3.92678C127.061 3.92539 124.662 3.99413 121.537 3.88479C124.515 3.77883 125.99 3.94277 128.884 3.78665C128.885 3.78665 128.887 3.78665 128.888 3.78665C129.237 3.83336 129.585 3.88007 129.934 3.92678ZM65.8014 3.89847C66.6748 3.83304 67.5482 3.76761 68.4216 3.70218C67.3711 3.70218 66.3206 3.70218 65.2701 3.70218C65.4472 3.76761 65.6243 3.83304 65.8014 3.89847ZM95.4463 92.4096C98.4509 92.2668 106.137 92.5253 108.579 92.3535C108.737 92.3422 107.285 92.2697 109.632 92.1294C107.859 92.1581 106.608 92.1874 106.476 92.2978C105.949 92.2604 105.423 92.223 104.896 92.1855C104.023 92.2138 103.149 92.2422 102.276 92.2705C102.371 92.1606 102.301 92.1664 100.96 92.2417C100.348 92.2138 99.7362 92.186 99.1244 92.1582C98.8652 92.2047 98.606 92.2513 98.3467 92.2978C97.817 92.2327 97.2874 92.1676 96.7577 92.1025C94.693 92.1731 95.9505 92.2993 95.4463 92.4096ZM84.929 92.3828C85.4175 92.407 99.3478 92.328 93.0168 92.1089C91.3714 92.1159 89.726 92.1229 88.0806 92.1299C89.4434 92.4928 84.9592 92.1682 84.5909 92.1606C82.8287 92.1252 80.583 92.2115 79.3045 92.207C78.2049 92.2031 77.5518 92.1379 76.7784 92.1396C74.1441 92.1452 69.9829 92.1476 69.4102 92.2978C71.4579 92.3009 73.5381 92.3026 75.6675 92.2988C77.9195 92.2948 79.8993 92.4366 84.1296 92.2422C85.1757 92.2631 84.8028 92.3766 84.929 92.3828ZM71.0516 3.71732C70.9465 3.86818 76.2629 3.83211 76.2969 3.77249C76.3075 3.73755 74.576 3.73838 74.3287 3.72513C74.3271 3.72513 74.3255 3.72513 74.3239 3.72513C74.2208 3.71934 74.7439 3.66159 73.9302 3.64554C72.9707 3.66947 72.0111 3.69339 71.0516 3.71732ZM220.307 92.2983C220.329 92.3009 220.366 92.3034 220.417 92.3058L220.229 92.4492C220.722 90.9199 224.734 76.0143 224.819 75.5517C224.842 75.4219 224.758 75.589 224.751 75.5334C223.864 79.2612 222.302 84.4792 221.342 87.9856C221.074 88.9631 221.211 88.6865 221.197 88.7422C221.196 88.7445 221.196 88.7468 221.195 88.7491C221.051 89.28 220.294 91.5596 220.202 92.4417L220.417 92.2771C220.377 92.2836 220.34 92.2906 220.307 92.2983ZM113.837 92.2846C113.139 92.261 112.441 92.2374 111.743 92.2138C111.566 92.2605 111.389 92.3073 111.211 92.354C111.213 92.354 111.215 92.354 111.216 92.354C112.09 92.3309 112.963 92.3077 113.837 92.2846ZM138.018 92.4384C137.848 92.4056 137.678 92.3727 137.508 92.3398C135.751 92.3353 133.994 92.3307 132.236 92.3261C132.414 92.3076 132.591 92.289 132.768 92.2705C130.111 92.2209 129.01 92.3364 127.595 92.3198C127.596 92.3198 127.598 92.3198 127.6 92.3198C127.447 92.3179 127.263 92.2494 126.696 92.247C125.397 92.2417 121.674 92.2162 121.224 92.2851C120.272 92.4322 127.765 92.3624 129.162 92.3691C129.793 92.3722 130.553 92.4321 130.937 92.4336C131.358 92.4349 131.931 92.3539 132.956 92.3564C133.256 92.3573 136.581 92.4525 138.018 92.4384ZM169.036 92.3403C168.494 92.2662 167.363 92.3378 166.947 92.3256C166.848 92.3228 167.62 92.2607 166.684 92.2422C166.419 92.2845 166.154 92.3268 165.889 92.3691C166.938 92.3595 167.987 92.3499 169.036 92.3403ZM79.9846 3.64603C79.8317 3.63013 76.9775 3.63595 76.8403 3.64603C75.1303 3.7813 81.0422 3.76665 79.9846 3.64603ZM152.017 3.49125C150.704 3.29464 166.282 3.48793 167.792 3.47758C167.716 3.60114 164.01 3.47691 165.951 3.64652C164.099 3.55324 158.979 3.60277 157.774 3.57572C157.043 3.55937 156.858 3.45264 156.748 3.44926C156.314 3.43724 152.48 3.56055 152.017 3.49125ZM180.663 3.56156C179.183 3.53812 177.703 3.51469 176.222 3.49125C177.969 3.47725 179.716 3.46326 181.463 3.44926C181.196 3.48669 180.93 3.52413 180.663 3.56156ZM182.525 3.50541C182.478 3.38564 187.503 3.47688 188.824 3.44926C187.335 3.653 184.851 3.46092 182.525 3.50541ZM98.9182 3.33696C96.6031 3.25777 95.6082 3.62285 98.4232 3.46391C98.5088 3.45865 99.0148 3.34116 98.9182 3.33696ZM96.1612 92.9233C96.5558 92.9255 101.465 93.0439 101.749 92.9853C102.648 92.7983 99.4263 92.8733 98.3467 92.8027C96.6051 92.6883 99.1665 92.594 94.915 92.663C95.0889 92.6256 95.2628 92.5882 95.4367 92.5507C92.9485 92.5383 93.7629 92.7977 93.3163 92.831C93.1796 92.8411 91.624 92.8193 91.3432 92.8359C87.8369 93.0448 95.7951 92.9215 96.1612 92.9233ZM41.6079 3.30913C36.9988 3.19922 38.9817 3.36049 34.2518 3.35063C34.094 3.43292 41.0081 3.38127 41.6079 3.30913ZM51.2808 92.7753C56.0476 92.743 59.9677 92.8506 64.4136 92.706C64.1242 92.4834 50.0443 92.7178 51.2808 92.7753ZM235.254 39.7072C230.443 56.0555 225.432 74.8384 220.646 92.5622L220.601 92.7352L220.417 92.7375C218.791 92.7393 217.173 92.7407 215.566 92.7412C213.414 92.7417 213.208 92.6535 212.429 92.663C211.919 92.6692 212.008 92.7403 211.33 92.7407C186.827 92.7522 163.364 92.8452 139.892 92.8027C138.413 92.7999 131.221 92.6472 129.684 92.8774C128.521 93.052 133.689 92.9159 134.55 92.9174C135.197 92.9186 135.225 93.0006 135.656 93.0009C136.114 93.0012 135.736 92.9451 136.267 92.9443C138.519 92.9403 140.976 92.9623 143.012 92.9575C162.98 92.9115 182.406 92.9247 202.269 92.9326C204.673 92.9334 204.179 92.9992 204.3 92.9995C204.302 92.9993 204.303 92.9991 204.305 92.999C209.445 93.0014 214.877 92.9795 220.417 92.9557L220.771 92.9512L220.857 92.6193C223.008 84.5498 225.219 76.2439 227.401 68.3299C229.961 59.0621 232.522 49.7943 235.082 40.5264C235.139 40.2533 235.197 39.9803 235.254 39.7072ZM85.9819 92.6914C87.1816 92.9393 87.4497 92.6893 91.7538 92.7905C92.1039 92.7482 92.4542 92.7058 92.8043 92.6635C90.5277 92.6728 88.2513 92.6821 85.9747 92.6914C85.9771 92.6914 85.9795 92.6914 85.9819 92.6914ZM114.409 92.7817C115.136 93.1166 124.761 92.8799 129.094 92.9438C129.889 92.7756 123.589 92.8512 122.103 92.8334C121.361 92.8247 117.388 92.6517 114.368 92.7475C114.382 92.7589 114.395 92.7703 114.409 92.7817ZM135.718 2.99908C135.018 3.00884 134.317 3.01861 133.617 3.02837C135.369 3.06548 137.122 3.10259 138.874 3.1397C136.079 3.11577 133.283 3.09185 130.487 3.06792C131.008 2.99843 131.529 2.92893 132.05 2.85943C133.272 2.90598 134.495 2.95253 135.718 2.99908ZM126.647 3.03472C131.543 3.00855 126.432 3.1946 125.21 3.11187C124.479 3.06227 126.147 3.03754 126.647 3.03472ZM113.913 2.9151C116.196 2.79309 120.811 2.78469 119.17 3.02837C116.703 2.91424 115.112 3.00908 111.534 2.94342C112.057 2.89671 112.579 2.84999 113.102 2.80328C113.104 2.80328 113.106 2.80328 113.109 2.80328C113.377 2.84056 113.645 2.87783 113.913 2.9151ZM128.884 2.88727C132.09 3.02727 122.807 2.9794 125.725 2.88727C125.861 2.88304 128.757 2.88191 128.884 2.88727ZM230.13 59.5616C230.154 59.1679 229.51 61.5486 229.29 62.339C228.337 65.7654 227.176 70.1768 226.197 73.7436C226.295 73.4817 226.394 73.2197 226.492 72.9577C227.705 68.4924 228.917 64.027 230.13 59.5616ZM223.168 84.9103C222.503 87.3631 221.838 89.8159 221.173 92.2687C221.152 92.3444 221.114 92.5147 221.08 92.6798L220.951 93.1803L220.417 93.187C220.077 93.2085 219.764 93.2427 220.316 93.2538C220.35 93.2535 220.383 93.2531 220.417 93.2528L221.002 93.2454L221.143 92.6971C221.818 90.1015 222.493 87.5059 223.168 84.9103ZM69.9391 93.1689C71.8877 93.2135 66.2766 93.442 66.5291 93.1972C67.6658 93.1878 68.8025 93.1783 69.9391 93.1689ZM51.8073 93.2665C53.0293 93.2433 54.2513 93.22 55.4733 93.1967C55.4749 93.2249 55.4765 93.253 55.4781 93.2812C54.2545 93.2763 53.0309 93.2714 51.8073 93.2665ZM232.799 49.9338C232.368 51.1578 231.574 54.1419 231.068 56C231.495 54.7416 232.283 51.6797 232.799 49.9338ZM99.134 93.2675C98.9762 93.2019 106.727 93.2184 104.044 93.3339C102.407 93.3118 100.771 93.2896 99.134 93.2675ZM114.877 93.3647C113.215 93.379 111.927 93.3565 112.269 93.2534C113.151 93.2578 114.032 93.2621 114.914 93.2665C114.902 93.2993 114.889 93.332 114.877 93.3647ZM105.221 2.71881C102.42 2.72809 99.6186 2.73737 96.8172 2.74665C96.921 2.71849 97.0249 2.69033 97.1287 2.66218C99.8295 2.65306 102.53 2.64395 105.231 2.63483C105.228 2.66283 105.225 2.69082 105.221 2.71881ZM233.458 48.471C233.944 46.6093 234.43 44.7476 234.916 42.8859C234.394 44.7394 233.871 46.5929 233.349 48.4464C233.385 48.4562 233.421 48.466 233.457 48.4758C233.458 48.4742 233.458 48.4726 233.458 48.471ZM143.598 2.35408C135.04 2.22277 145.96 2.08396 148.218 2.27693C148.22 2.27677 148.223 2.27661 148.225 2.27644C148.423 2.2935 148.005 2.37598 148.334 2.40925C147.463 2.37198 146.592 2.33471 145.721 2.29744C144.926 2.34383 144.132 2.39021 143.337 2.4366C143.076 2.41837 142.814 2.40014 142.552 2.38191C142.901 2.37263 143.25 2.36336 143.598 2.35408ZM178.137 2.28084C185.897 2.29607 177.957 2.50231 174.116 2.33943C174.144 2.30174 177.423 2.27943 178.137 2.28084ZM157.801 2.32527C156.578 2.34399 155.355 2.36271 154.132 2.38142C153.976 2.35782 153.82 2.33422 153.664 2.31062C154.602 2.28719 155.541 2.26375 156.48 2.24031C156.92 2.26863 157.36 2.29695 157.801 2.32527ZM117.586 1.96102C115.618 1.9351 113.108 2.19751 119.426 2.1285C119.423 2.10034 119.42 2.07219 119.417 2.04403C119.165 2.04853 118.426 2.07494 118.386 2.07284C118.27 2.06579 118.406 1.97177 117.586 1.96102ZM192.507 1.53916C192.728 1.52845 192.848 1.23145 195.146 1.53867C195.841 1.51996 196.536 1.50124 197.23 1.48252C197.41 1.54795 197.589 1.61338 197.769 1.67881C195.08 1.62808 194.795 1.76046 194.6 1.76328C193.707 1.77566 194.368 1.70757 193.791 1.70664C192.303 1.70438 188.919 1.75011 190.454 1.55576C191.006 1.48616 192.286 1.54987 192.507 1.53916ZM187.249 1.37022C187.575 1.39501 186.525 1.48189 186.771 1.50645C186.987 1.52786 190.227 1.6165 189.35 1.76328C188.818 1.75709 188.286 1.75091 187.754 1.74472C187.574 1.70452 187.393 1.66432 187.213 1.62412C186.698 1.66123 186.183 1.69834 185.667 1.73545C184.799 1.63625 182.952 1.50774 185.146 1.42686C184.339 1.43532 183.533 1.44379 182.726 1.45225C182.308 1.49978 181.89 1.5473 181.473 1.59483C181.692 1.5224 181.91 1.44997 182.129 1.37755C183.836 1.37511 185.543 1.37266 187.249 1.37022ZM212.254 1.39805C212.156 1.43549 212.058 1.47292 211.959 1.51036C214.922 1.44076 219.535 1.4143 216.915 1.64902C212.902 1.66855 208.889 1.68808 204.876 1.70761C204.61 1.67946 204.343 1.6513 204.077 1.62314C207.071 1.73163 206.145 1.27 208.75 1.40245C209.189 1.4249 207.915 1.58633 210.675 1.48301C210.576 1.44542 210.478 1.40782 210.38 1.37022C211.005 1.3795 211.629 1.38878 212.254 1.39805ZM237.72 1.4542C232.648 1.4001 238.235 1.26349 239.172 1.37706C239.17 1.37706 239.168 1.37706 239.167 1.37706C241.734 1.68783 236.214 1.53768 235.878 1.53965C235.43 1.5424 234.388 1.76489 231.953 1.44053C233.876 1.44509 235.798 1.44965 237.72 1.4542ZM221.161 1.39854C221.587 1.39122 221.351 1.44772 221.535 1.44688C221.537 1.44688 221.538 1.44688 221.54 1.44688C224.255 1.43476 230.712 1.38417 231.412 1.56651C229.403 1.58172 220.41 1.62112 219.866 1.49717C220.298 1.4643 220.729 1.43142 221.161 1.39854ZM202.056 1.53428C200.389 1.41623 204.141 1.40051 205.125 1.45518C205.311 1.46702 203.782 1.65657 202.056 1.53428ZM74.1983 1.2296C70.5309 1.30062 75.3494 1.37149 73.6815 1.48252C74.3819 1.47308 75.0822 1.46364 75.7825 1.4542C75.2545 1.37934 74.7264 1.30447 74.1983 1.2296ZM17.111 94.9945C17.9659 95.0076 17.5609 94.9398 17.6351 94.9389C18.1966 94.9407 18.7261 94.996 18.9416 94.9901C22.9259 94.8786 20.2762 94.8217 20.236 94.8085C20.1519 94.7414 21.1991 94.663 19.7482 94.5863C18.8675 94.6101 17.9869 94.6339 17.1062 94.6576C16.6691 94.6203 16.232 94.5831 15.7949 94.5458C14.0452 94.6258 16.3348 94.6477 16.5942 94.7538C16.6942 94.7955 15.0484 94.8454 17.111 94.9945ZM67.6271 1.005C67.0325 1.1228 65.5753 1.27139 67.0064 1.38975C67.008 1.38975 67.0097 1.38975 67.0113 1.38975C67.2759 1.41141 68.3537 1.42332 68.6849 1.45372C71.0458 1.29678 70.1413 1.13461 67.6271 1.005ZM3.84924 87.2598C3.87675 85.8398 3.90426 84.4198 3.93176 82.9998C4.0024 83.0239 4.07303 83.0481 4.14367 83.0722C4.12463 83.8322 4.10558 84.5921 4.08654 85.352C4.11877 85.6185 4.15099 85.8849 4.18322 86.1514C4.26378 85.2079 4.34435 84.2644 4.42491 83.321C4.39675 82.1843 4.3686 81.0477 4.34044 79.911C4.30317 80.4334 4.2659 80.9559 4.22863 81.4783C4.18748 78.7002 4.35925 79.3051 4.42491 77.0058C4.35948 76.2185 4.29405 75.4312 4.22863 74.6439C4.29438 73.504 4.36013 72.3641 4.42589 71.2243C4.39517 69.309 4.34509 69.1406 4.27013 70.4297C4.18447 69.4775 4.3192 68.4347 4.28429 67.2878C4.28147 67.1932 4.20079 67.3715 4.19982 67.2878C4.14543 61.3579 4.3573 61.6734 4.36632 60.7263C4.37251 60.0579 4.22953 57.3898 4.18078 57.3477C4.11508 57.2963 3.85602 62.8456 3.84924 54.1551C3.67005 58.6481 3.85246 63.7562 4.11535 60.4534C4.08889 61.8754 4.15449 68.1462 4.1466 68.546C4.13469 69.1289 4.03495 68.9244 4.03234 69.6545C4.03093 70.086 4.25893 71.2291 4.05969 74.6439C4.09712 75.0802 4.13455 75.5165 4.17199 75.9528C4.14123 76.3618 4.11047 76.7707 4.07971 77.1796C3.97001 76.3376 3.86031 75.4956 3.75061 74.6536C3.86981 77.9891 3.64589 80.7563 3.8346 82.7873C3.81263 84.5432 3.79092 85.3964 3.69446 84.642C3.69446 85.1693 3.69446 85.6965 3.69446 86.2238C3.74606 86.5692 3.79765 86.9145 3.84924 87.2598ZM56.8514 1.17345C55.1062 1.06393 54.4787 1.30021 54.7503 1.31358C56.2809 1.38711 57.7596 1.23043 56.8514 1.17345ZM13.9426 94.869C12.017 94.8082 10.0914 94.7473 8.16588 94.6864C8.16588 94.7611 8.16588 94.8358 8.16588 94.9105C10.0914 94.8967 12.017 94.8829 13.9426 94.869ZM74.7344 1.06164C74.9115 1.11763 75.0887 1.17361 75.2657 1.2296C77.3749 1.02509 79.4689 1.31852 80.5111 1.25792C80.7373 1.24468 80.2807 1.14582 79.8494 1.12462C79.5811 1.11138 75.108 1.04276 74.7344 1.06164ZM162.537 1.08849C161.751 1.12609 160.965 1.16369 160.179 1.20128C160.223 1.1383 160.266 1.07531 160.31 1.01232C160.698 1.0006 161.086 0.988887 161.474 0.977168C161.828 1.01428 162.182 1.05138 162.537 1.08849ZM153.596 1.18859C152.195 1.18354 150.793 1.1785 149.392 1.17345C154.737 1.11568 150.35 1.08749 153.596 1.00549C153.596 1.06652 153.596 1.12755 153.596 1.18859ZM139.41 1.06115C139.583 1.02355 139.755 0.985957 139.927 0.94836C141.329 0.94836 142.73 0.94836 144.132 0.94836C143.246 0.817831 142.359 0.687301 141.473 0.556771C140.959 0.556445 140.446 0.55612 139.932 0.555794C139.758 0.724246 139.584 0.892698 139.41 1.06115ZM54.9686 95.2753C55.8157 95.2775 58.7632 95.1635 58.6369 95.1215C57.4125 95.0699 56.1881 95.0183 54.9637 94.9667C54.9581 95.0415 54.9525 95.1164 54.9468 95.1913C54.7737 95.154 54.6007 95.1167 54.4276 95.0795C53.7312 95.1075 53.035 95.1355 52.3386 95.1635C51.9876 95.098 51.6366 95.0326 51.2857 94.9672C50.9331 95.0419 50.5805 95.1166 50.2279 95.1913C53.59 95.3237 53.4743 95.1914 54.174 95.1927C54.5289 95.1934 54.7533 95.2397 54.8792 95.2631C54.909 95.2671 54.9388 95.2712 54.9686 95.2753ZM12.6119 95.3456C16.6264 95.3642 18.9208 95.1671 21.8251 95.3319C20.2898 95.0425 11.8494 95.238 6.55469 95.1518L3.93686 95.1848L3.90293 92.5C3.92133 91.3705 3.95255 90.3842 4.00402 89.6386C3.94771 89.1983 3.8914 88.7579 3.83508 88.3176C3.87372 90.0969 3.81373 91.4552 3.77653 92.5L3.81208 95.3128L6.55469 95.2782C6.86585 95.2892 7.14919 95.2983 7.40758 95.3021C8.30204 95.3154 8.20858 95.2564 8.27698 95.2572C8.2802 95.2572 8.28339 95.2572 8.28663 95.2572C10.3806 95.2814 11.0284 95.3382 12.6119 95.3456ZM77.717 0.786256C76.6382 0.697283 74.7507 0.706181 74.7296 0.836059C75.7801 0.873656 76.8307 0.911252 77.8812 0.948849C77.6655 0.915595 77.9011 0.801474 77.717 0.786256ZM137.78 0.698368C136.939 0.656097 134.95 0.693138 135.807 0.805299C135.962 0.825205 137.942 0.746365 136.781 0.948849C138.711 0.945718 138.259 0.722665 137.78 0.698368ZM3.97522 29.9568C3.97147 29.2484 3.96773 28.54 3.96399 27.8316C3.91158 27.6666 3.85917 27.5015 3.80676 27.3365C3.86292 28.2099 3.91907 29.0834 3.97522 29.9568ZM86.8215 0.696415C87.7633 0.952894 89.3722 0.7033 91.1395 0.914182C91.7924 0.915809 92.4452 0.917437 93.0981 0.919065C93.0997 0.919065 93.1013 0.919065 93.1029 0.919065C93.1206 0.84908 93.1383 0.779095 93.156 0.70911C91.0445 0.704878 88.933 0.700647 86.8215 0.696415ZM3.84876 74.1271C3.88131 73.6908 3.91386 73.2545 3.94641 72.8182C3.90849 72.0413 3.87056 71.2645 3.83264 70.4877C3.80546 70.9079 3.77828 71.3281 3.7511 71.7483C3.78365 72.5412 3.8162 73.3342 3.84876 74.1271ZM98.2976 0.674443C96.014 0.642317 95.1552 0.865279 98.0754 0.865844C99.3064 0.865844 100.69 0.708012 98.2976 0.674443ZM98.5931 95.1923C97.8106 95.1732 97.0281 95.1542 96.2457 95.1351C95.9792 95.182 95.7128 95.2289 95.4463 95.2758C96.4952 95.2479 97.5441 95.2201 98.5931 95.1923ZM148.609 0.723758C148.517 0.770632 148.426 0.817505 148.334 0.864379C147.636 0.854939 146.938 0.845499 146.24 0.836059C146.416 0.789511 146.591 0.742963 146.767 0.696415C147.381 0.705529 147.995 0.714644 148.609 0.723758ZM93.3284 95.1635C92.7029 95.1545 92.0774 95.1455 91.4519 95.1366C91.0317 95.1594 90.6115 95.1822 90.1913 95.205C90.7765 95.2276 91.3618 95.2502 91.947 95.2728C92.4075 95.2364 92.8679 95.1999 93.3284 95.1635ZM119.943 0.695927C119.065 0.639567 115.555 0.815167 118.716 0.859984C120.731 0.888437 120.075 0.7045 119.943 0.695927ZM124.679 0.639776C121.333 0.532407 123.842 1.07735 127.835 0.724246C123.815 0.772659 124.876 0.64626 124.679 0.639776ZM154.106 0.358535C154.19 0.358816 154.259 0.437173 154.932 0.440075C157.352 0.45022 160.547 0.481181 162.278 0.485972C166.44 0.497525 179.187 0.355877 180.678 0.582649C180.988 0.630275 180.274 0.772582 180.4 0.779909C180.771 0.800346 182.903 0.731297 182.509 0.836059C180.416 0.835245 178.324 0.834432 176.232 0.833618C176.746 0.759727 177.259 0.685836 177.773 0.611945C172.56 0.65139 174.285 0.646837 172.786 0.80774C171.903 0.745404 171.021 0.683069 170.139 0.620734C168.218 0.683395 166.297 0.746055 164.377 0.808716C164.812 0.762006 165.248 0.715295 165.683 0.668584C162.79 0.582073 163.593 0.638803 162.01 0.752077C162.007 0.705367 162.004 0.658656 162 0.611945C159.206 0.725796 158.662 0.585805 158.052 0.584114C156.8 0.581363 155.204 1.13403 150.428 0.584114C148.414 0.848596 148.46 0.310538 147.276 0.584114C143.868 0.286291 150.35 0.39408 153.417 0.403944C153.419 0.403944 153.421 0.403944 153.422 0.403944C153.654 0.404789 153.286 0.354638 154.106 0.358535ZM136.597 0.632452C138.66 0.389673 130.509 0.366947 133.206 0.717411C133.608 0.728803 134.01 0.740196 134.411 0.751589C135.142 0.711877 135.872 0.672164 136.602 0.632452C136.6 0.632452 136.599 0.632452 136.597 0.632452ZM60.003 0.471324C52.4525 0.571085 56.7454 0.710744 59.3026 0.574348C59.8128 0.547296 60.0924 0.510207 60.003 0.471324ZM18.3475 95.5321C18.4578 95.503 18.5681 95.4738 18.6784 95.4447C16.1463 95.472 11.2502 95.3596 11.3175 95.556C13.6608 95.548 16.0042 95.5401 18.3475 95.5321ZM3.39418 84.2628C3.38233 84.8066 3.35436 87.0281 3.42787 86.7599C3.47995 85.7972 3.53203 84.8344 3.58412 83.8716C3.55156 83.4232 3.51901 82.9748 3.48646 82.5265C3.47539 83.1526 3.39728 84.1156 3.39418 84.2628Z" fill="#171717"/>
</g>
<path d="M20.1606 0.0254245C28.7534 -0.0397074 40.0172 0.0299344 48.5776 0.125522C51.2604 0.155168 49.9019 0.287688 51.7539 0.31412C55.376 0.365646 58.7505 0.300652 62.3299 0.362032C63.5161 0.383023 62.0395 0.592935 63.2833 0.610139C70.0994 0.702908 76.5477 0.649441 83.4525 0.694062C117.463 0.914213 150.895 0.993012 185.322 1.08865C196.674 1.12001 210.473 1.31051 222.198 1.2272C223.566 1.21729 222.75 1.03304 223.011 1.01785C227.095 0.785374 225.737 1.15734 228.404 1.20676C238.989 1.40188 250.759 1.41886 260.945 1.34775C265.279 1.31696 260.934 0.950988 265.297 1.1564C265.6 1.17028 264.5 1.36594 265.689 1.38681C268.384 1.43375 273.497 1.39877 275.586 1.41428C279.612 1.44514 280.278 1.44317 284.086 1.4454C289.291 1.45015 295.482 1.54741 301.067 1.50308C302.259 1.49304 300.681 1.29246 302.582 1.25833C304.485 1.22425 309.519 1.24126 311.216 1.28854C312.913 1.33585 312.191 1.4935 312.491 1.52963C314.962 1.83462 320.785 1.41221 321.534 1.40176C335.195 1.22377 346.909 1.4644 359.732 1.46371C369.466 1.46268 379.875 1.38324 389.138 1.39413C400.172 1.40789 409.525 1.51658 420.245 1.49789C421.377 1.49615 420.051 1.26032 421.433 1.25772C436.114 1.23028 450.692 1.25599 465.31 1.41519C466.776 1.43136 464.887 1.63842 466.351 1.66696C475.319 1.83712 489.507 2.24589 494.833 1.34439C500.907 1.37959 508.281 1.41596 513.715 1.59769C517.219 1.71464 513.816 1.94021 518.12 1.84396C519.09 1.82252 517.828 1.62498 519.284 1.60776C525.413 1.53544 532.109 1.59965 538.172 1.49759C539.405 1.47636 539.068 1.29936 539.418 1.26749C542.355 1.00935 547.243 1.43606 548.309 1.46707C556.425 1.69829 562.351 1.6073 569.911 1.61294C571.666 1.61435 569.592 1.3766 571.28 1.36941C580.036 1.33534 589.106 1.35577 597.679 1.46127C599.586 1.48531 597.833 1.68783 598.744 1.70968C602.762 1.80356 603.653 1.42104 607.506 1.50369C608.319 1.52062 607.861 1.694 608.01 1.71304C610.329 2.01194 612.344 1.58842 612.941 1.57907C620.487 1.45131 625.311 1.89345 632.601 1.83084C633.473 1.8229 631.507 1.60353 633.958 1.59463C648.227 1.54173 663.215 1.58104 677.555 1.70882C679.978 1.69503 682.24 3.37331 682.967 5.61314C683.374 7.00154 683.185 7.23328 683.162 7.10117C683.112 6.97452 683.002 6.53269 683.003 6.62138C683.018 6.92867 683.013 7.2212 682.995 7.5C682.842 9.62697 683.182 11.0344 683.197 11.7659C683.312 18.2318 682.955 24.2719 683.462 28.6652C683.338 48.0032 683.443 67.2785 683.356 86.5C683.418 89.594 680.618 92.3497 677.555 92.2538C672.18 92.2126 666.81 92.1517 661.444 92.062C661.099 92.0568 661.717 91.8473 661.029 91.8377C652.734 91.7201 654.327 92.0457 648.838 92.4438C647.456 92.5438 643.25 92.0631 642.877 92.0279C641.522 91.898 642.928 91.5864 642.474 91.5613C638.717 91.3638 639.329 92.3944 634.261 92.3947C634.103 92.393 634.768 92.2033 634.343 92.1844C633.022 92.1252 631.711 92.2006 630.418 92.1353C627.458 91.9842 626.404 91.4834 621.883 91.7749C621.311 91.8127 622.185 92.3973 617.66 92.3697C615.856 92.3582 607.871 92.3682 605.633 92.3303C603.398 92.2925 604.933 92.1041 604.774 92.0959C598.751 91.8468 601.035 91.7436 598.017 91.3748C595 91.0074 595.837 91.8837 594.607 91.9815C593.375 92.079 588.959 91.8735 587.874 91.802C586.79 91.7306 588.142 91.6109 587.178 91.5704C580.784 91.3061 584.372 92.0054 582.265 92.1444C577.297 92.4738 573.428 91.8239 568.881 91.7602C567.65 91.743 568.654 91.891 567.559 91.9049C563.219 91.9577 560.609 91.755 555.673 91.9409C554.865 91.9712 550.874 92.3619 548.291 92.0752C547.925 92.0338 548.964 91.8719 547.115 91.8356C544.352 91.7812 539.374 91.7458 536.404 91.7999C534.212 91.84 536.725 92.1068 533.965 92.0239C532.739 91.9869 535.012 91.8308 532.707 91.7743C530.415 91.7178 524.555 91.7246 522.324 91.73C520.098 91.7355 521.317 91.9379 521.137 91.9516C520.048 92.0297 515.776 92.1273 515.399 92.127C496.356 92.1518 478.796 91.8106 460.255 91.9235C458.8 91.9321 459.769 92.1455 459.547 92.149C454.566 92.2384 458.493 91.6709 455.014 91.481C455.517 91.9141 453.463 91.8357 449.954 91.8832C448.263 91.9065 449.184 92.0742 449.03 92.0913C446.522 92.3461 444.776 92.0171 444.327 91.9497C442.666 91.7021 440.859 91.9947 439.729 91.8292C438.6 91.6649 441.199 91.4214 437.834 91.4245C436.89 91.5796 439.388 91.9848 436.833 92.0504C427.194 92.2989 409.2 91.9809 401.45 91.9479C393.715 91.9149 391.216 91.9435 386.709 91.8875C378.567 91.7862 381.551 92.0868 376.496 92.2244C371.425 92.362 373.89 91.6223 373.161 91.4633C372.446 91.3044 371.665 91.468 370.775 91.3806C369.888 91.2932 371.808 91.1851 369.722 91.1523C367.634 91.1196 361.927 91.4023 361.187 91.5686C359.623 91.9208 362.195 92.2905 356.671 92.1606C356.354 92.1529 357.385 91.9584 356.168 91.9388C346.507 91.789 336.471 91.7797 326.821 91.6473C325.495 91.6288 326.681 91.4124 325.909 91.3992C317.866 91.2608 320.741 91.6256 316.333 92.0309C317.323 91.4916 314.885 91.1616 308.781 91.1584C305.112 91.1563 305.744 91.3919 303.371 91.5579C302.658 91.6079 300.062 91.4462 299.592 91.557C298.04 91.9191 300.486 92.3245 294.193 92.1631C293.917 92.1554 294.796 91.9572 293.842 91.9452C287.675 91.8666 286.937 92.2454 280.271 92.2912C275.046 92.3272 265.753 92.0963 259.803 92.0587C259.928 91.4523 254.309 91.5912 252.029 92.0092C248.168 91.9921 243.998 92.0158 240.266 91.958C238.981 91.9383 239.825 91.7627 239.663 91.7437C237.18 91.4462 235.501 91.8529 234.668 91.8689C225.635 92.0239 218.276 91.7156 209.655 92.0169C209.349 92.0277 208.854 92.4489 206.549 92.1414C206.4 92.1202 209.247 91.9286 205.192 91.9137C201.136 91.8989 193.49 91.6731 187.86 91.8683C186.497 91.9152 183.051 92.2572 180.285 91.99C179.916 91.9537 180.319 91.8329 179.787 91.7657C178.068 91.5515 177.129 91.9773 175.108 91.6156C173.087 91.2539 168.882 90.983 163.204 91.2326C163.023 91.2398 161.679 91.5773 159.893 91.5719C157.042 91.5631 152.996 91.4928 150.019 91.495C148.594 91.4962 149.506 91.7057 149.259 91.7096C139.676 91.827 132.856 91.6402 122.591 91.5591C120.709 91.5438 115.301 91.8296 111.658 91.6037C107.658 91.3564 111.768 90.3277 102.574 90.5728C98.8649 90.6708 94.1699 91.9759 87.5051 91.2997C74.5796 91.4673 62.626 91.1212 49.6645 91.3605C49.0816 91.371 47.2385 91.7353 45.8682 91.7303C43.8338 91.7223 42.7172 91.552 41.2646 91.5408C35.1778 91.4895 29.6079 91.6352 23.7394 91.6125C21.5114 91.6043 22.2904 91.4283 19.633 91.4184C16.9773 91.4088 15.2064 91.6405 11.6074 91.5286C9.69344 91.4685 7.77933 91.2158 5.55468 91.0522C4.7024 90.9841 3.83949 90.694 3.06933 90.1487C2.92124 90.4174 0.839613 89.6301 0.615754 86.5C0.598866 85.8433 0.581193 85.124 0.559352 84.3442C0.535417 83.4977 0.372766 84.4055 0.353054 84.0049C0.269223 82.3752 0.404026 80.8669 0.312771 79.3195C0.290854 78.943 0.131262 78.9253 0.104337 78.6175C-0.130692 76.0006 0.228294 71.6893 0.290798 70.9488C0.528178 68.1108 0.32061 66.7846 0.414089 64.6079C0.507556 62.4347 0.624398 65.6841 0.681117 63.1455C0.798434 57.8835 0.77266 51.1224 0.779994 45.7782C0.781935 43.6459 0.568904 45.1007 0.564235 44.7955C0.510204 40.3862 0.736808 35.9274 0.312466 33.4825C1.40966 30.4254 0.206044 30.8236 0.425686 24.521C0.44345 24.0246 0.962304 23.393 1.03848 25.299C1.11458 27.205 0.952391 30.0952 1.07113 32.7396C1.099 33.3659 1.58519 36.9532 1.61465 37.4427C1.84482 41.2767 1.06947 41.8199 1.02688 42.0228C0.567302 44.3231 1.09109 48.7068 1.12728 49.8612C1.29312 55.1423 1.18408 59.6292 1.30245 64.0463C1.37896 66.9353 1.88685 67.2179 1.8713 69.4864C1.82056 76.9326 1.12912 79.5928 1.70318 86.5C1.71049 86.5686 1.71978 86.6367 1.73107 86.7046C1.84542 87.2825 2.03639 87.2451 2.22325 87.5489C2.4819 87.7941 2.4554 88.6424 4.08301 89.7641C4.17266 89.813 4.70764 90.1736 5.55468 90.2427C6.99124 90.3312 8.85454 90.3959 10.1743 90.2536C10.4684 90.2217 10.4592 90.06 10.847 90.0464C13.4468 89.9585 15.1806 90.0873 18.0127 90.0256C20.8445 89.9639 24.2496 89.8719 27.4831 89.9267C29.4316 89.9595 31.9318 90.261 32.8646 90.3348C35.4985 90.5473 38.3224 90.1988 39.9543 90.4562C41.5996 90.7149 38.3829 91.1078 42.6977 91.275C42.8574 90.8547 43.2245 90.4233 43.4816 90.0006C52.9374 90.0154 62.2415 90.1513 71.729 90.1327C72.9052 90.13 71.7023 89.904 72.9632 89.8953C78.2831 89.8594 82.93 90.0205 88.4469 89.9563C92.7175 89.9058 97.4003 89.6666 101.866 89.6063C104.593 90.0873 111.22 89.924 116.033 89.9679C117.719 89.9831 117.607 90.1116 118.806 90.1535C123.33 90.3085 121.21 89.8835 122.45 89.8166C127.771 89.5311 128.227 90.4931 134.5 90.4693C134.833 90.4684 138.895 89.9556 139.455 89.9237C143.01 89.7155 140.043 90.1022 142.268 90.1401C146.331 90.2093 149.154 90.3318 153.921 90.1816C155.311 90.1371 158.645 89.8175 161.344 90.0647C161.699 90.097 161.503 90.2665 161.788 90.2765C166.961 90.4419 167.098 89.9094 170.054 89.729C173.01 89.5487 177.577 89.9163 178.506 90.0223C180.938 90.2964 176.643 90.1394 176.512 90.1663C174.965 90.4864 178.296 90.4313 180.84 90.4584C181.209 90.9805 184.768 90.9492 183.478 90.4843C183.332 90.4335 181.351 90.4822 180.84 90.4584C183.074 89.946 186.985 89.8804 191.305 90.3592C193.327 90.5836 191.416 90.8452 197.558 90.7495C200.346 90.7063 199.269 90.3467 201.729 90.2487C207.349 90.025 214.653 90.3604 220.448 90.3076C222.55 90.2884 220.502 90.0916 221.939 90.0717C225.753 90.0183 229.117 90.166 232.948 90.0903C233.295 90.0832 232.447 89.8772 233.638 89.8745C242.669 89.8506 250.532 89.9826 259.961 89.9862C264.517 89.9879 272.662 89.8743 277.381 89.8971C285.56 89.9355 295.623 90.2351 302.61 90.1623C307.167 90.1157 306.168 89.9097 308.12 89.7693C311.889 89.4971 318.559 89.9846 319.457 90.0601C319.484 90.0626 315.563 90.1112 317.655 90.217C318.872 90.4374 319.412 90.0611 319.457 90.0601C320.046 90.1089 327.881 90.1556 329.436 90.1162C330.281 90.0947 329.808 89.8995 330.249 89.8919C340.724 89.7172 351.218 89.6676 361.842 89.7589C362.029 89.7628 361.748 89.9812 362.188 89.9878C368.338 90.0849 372.277 89.8177 377.35 89.6591C382.422 89.5005 386.444 89.5537 389.446 89.9286C393.273 89.8814 398.764 90.0471 401.923 90.1477C405.083 90.2483 405.524 89.8231 405.802 89.8147C414.472 89.5457 419.485 89.7891 428.48 89.8269C432.757 89.8457 441.24 89.784 445.871 89.7375C449.531 89.7001 451.735 89.7997 455.107 89.736C455.564 89.7275 455.103 89.5382 455.242 89.5309C459.005 89.3045 457.197 89.7672 457.974 89.8498C460.791 90.1504 462.531 90.3104 467.35 90.169C468.462 90.1367 471.7 89.4704 473.726 89.4314C476.361 89.382 475.367 89.6208 478.125 89.563C478.361 89.5582 478.312 89.4109 480.015 89.4174C487.918 89.4456 496.534 89.5313 504.747 89.5166C505.868 89.5151 504.43 89.2814 506.051 89.2755C513.657 89.2478 521.993 89.2564 529.402 89.3658C531.226 89.3935 530.083 89.5571 530.479 89.6057C532.909 89.8997 536.356 89.4725 536.925 89.4644C550.491 89.2591 560.874 89.6457 574.701 89.4616C575.454 89.4508 581.247 88.993 583.832 89.3857C584.009 89.4118 586.567 89.8136 588.828 89.5389C588.968 89.5217 587.375 89.3148 590.156 89.3359C592.937 89.357 597.412 89.2188 601.235 89.4461C602.445 89.5177 605.305 89.9185 608.915 89.599C609.15 89.5767 614.723 88.8543 616.712 89.3527C617.035 89.4347 616.697 89.9622 621.006 89.6917C621.829 89.6393 620.335 89.5217 622.504 89.4482C625.826 89.335 630.229 89.4763 634.314 89.2413C635.026 89.1997 638.058 88.8417 640.491 89.1134C640.872 89.156 640.148 89.3321 641.433 89.3518C647.541 89.4463 653.937 89.3285 660.139 89.4504C662.336 89.4932 661.213 89.7778 663.503 89.8541C665.793 89.9304 670.407 90.0037 672.804 89.8736C675.201 89.7435 672.582 89.2898 676.173 89.2535C676.634 89.2489 677.094 89.2446 677.555 89.2407C679.014 89.2536 680.299 87.9344 680.259 86.5C680.247 74.0113 680.424 61.5825 680.456 49.0742C680.461 46.7623 680.299 48.6789 680.296 45.272C680.286 35.1358 680.185 19.0573 680.328 7.5C680.383 5.92008 679.042 4.72509 677.837 4.59135C677.74 4.57684 677.646 4.56749 677.555 4.56225C669.715 4.29373 680.164 4.08925 673.618 3.97896C670.398 3.92533 666.914 4.45278 666.136 4.46938C658.542 4.63806 653.264 4.40441 646.429 4.47609C645.018 4.49097 646.402 4.70475 645.201 4.71505C641.098 4.75212 636.785 4.6567 632.864 4.67415C631.105 4.68247 631.429 4.84575 629.811 4.83315C625.938 4.80488 622.513 4.73624 618.738 4.58321C618.393 4.56927 620.714 4.36616 617.848 4.3586C613.211 4.34695 607.455 4.19599 602.119 4.35189C600.536 4.39879 600.474 4.77195 597.071 4.51424C596.357 4.46042 597.268 4.01233 593.304 4.3995C592.637 4.46383 585.978 4.98605 582.71 4.64943C581.848 4.56084 579.648 4.19417 577.744 4.25179C577.486 4.26099 578.52 4.46143 576.943 4.48098C571.383 4.54639 565.556 4.52501 559.844 4.58779C558.319 4.60495 560.591 4.81236 558.318 4.83132C552.066 4.88374 544.261 4.83093 538.148 4.76601C535.895 4.74168 537.453 4.56986 537.289 4.55117C534.651 4.24704 533.092 4.65754 532.217 4.68148C526.773 4.8248 522.628 4.63197 517.611 4.683C516.226 4.69656 517.208 4.89229 516.932 4.90975C514.074 5.08027 516.203 4.72877 514.394 4.69002C509.324 4.58031 503.674 4.59604 498.547 4.62105C496.664 4.63053 498.781 4.85748 497.091 4.86336C487.089 4.90247 476.691 4.88075 466.93 4.75563C465.093 4.73166 466.249 4.5569 465.866 4.51699C463.226 4.23773 459.357 4.61864 458.466 4.65493C454.418 4.8206 452.846 4.66606 449.271 4.6949C431.807 4.83852 410.244 4.73617 393.759 4.67293C372.277 4.59155 355.608 4.42529 335.123 4.46846C333.821 4.47099 335.134 4.70348 334.011 4.70864C319.521 4.76468 305.256 4.67384 290.737 4.74099C289.545 4.74608 291.263 4.96648 289.35 4.98207C285.428 5.0156 280.459 5.00362 276.493 4.93325C274.559 4.89934 277.153 4.71022 275.206 4.67995C270.672 4.60905 265.812 4.59335 261.156 4.62868C259.174 4.6442 262.164 4.86961 259.588 4.87221C242.041 4.89457 224.808 4.9334 207.077 4.6415C205.861 4.62145 204.794 4.16333 202.21 4.25118C202.015 4.37832 202.026 4.52788 201.941 4.66378C176.397 4.73698 151.114 4.57816 125.499 4.55361C124.419 4.55263 126.285 4.79536 124.195 4.7947C112.093 4.79111 100.341 4.85835 87.9625 4.61708C86.7343 4.59349 87.3645 4.16645 83.745 4.23104C83.1066 4.24282 77.6553 4.29978 76.2459 4.39248C76.0545 4.40646 77.049 4.60578 75.2924 4.61159C65.0843 4.64186 54.3868 4.59635 44.1963 4.47457C42.5517 4.45453 44.3031 4.24227 43.1317 4.22616C34.8223 4.11348 25.7841 4.27484 17.8442 4.08211C12.5294 3.95235 14.4971 3.58543 11.6729 3.22427C11.2734 3.17331 7.98239 3.16524 7.8122 2.9551C7.37527 2.4267 8.96935 1.84811 8.31526 1.28488C8.17707 1.16357 3.7695 1.29423 6.37907 1.00107C6.56137 0.981448 9.75688 0.88415 10.5439 0.784699C11.0919 0.715941 10.1044 0.502235 11.2225 0.414217C12.3404 0.326282 13.5689 0.505422 15.4224 0.40201C17.2752 0.297318 16.4605 0.0542033 20.1606 0.0254245ZM416.15 90.5972C419.075 90.8014 419.507 90.0536 416.343 90.2325C416.189 90.2421 415.999 90.5872 416.15 90.5972ZM62.1884 90.7153C66.0129 91.0451 68.6302 90.5602 65.932 90.3055C63.2344 90.051 61.023 90.6153 62.1884 90.7153ZM22.5285 90.9561C26.9984 91.2161 27.7022 90.1558 22.9146 90.3702C22.6361 90.3823 22.2673 90.941 22.5285 90.9561ZM24.77 3.12142C24.7296 3.11149 22.3639 3.10182 22.3073 3.11166C21.0476 3.34914 25.7781 3.36832 24.77 3.12142ZM0.836451 71.9725C0.69302 73.3678 0.858594 77.3857 1.03695 75.6518C1.18043 74.2561 1.01487 70.2346 0.836451 71.9725ZM568.758 91.3952C568.804 91.4064 570.5 91.4164 570.466 91.3534C570.351 91.1506 567.991 91.2078 568.758 91.3952ZM1.36519 5.30117C0.992806 6.00013 0.8104 6.76393 0.79726 7.5C0.643105 15.8596 -0.0831815 20.0471 0.00729102 10.1955C0.0251729 8.24663 0.286601 14.3958 0.365566 11.9153C0.416853 10.2972 0.379962 8.87289 0.324599 7.5C0.16671 4.96446 2.17957 2.1056 5.46433 2.20025C5.92219 2.24736 4.57925 2.25248 3.39356 2.99709C2.16218 3.6961 1.45687 5.07674 1.35858 5.31644C1.36078 5.31134 1.36298 5.30626 1.36519 5.30117ZM417.834 91.4953C417.893 91.5052 420.241 91.5146 420.297 91.5048C421.568 91.2674 416.838 91.2484 417.834 91.4953ZM667.726 91.8576C667.856 91.8786 673.305 91.8984 673.482 91.8789C676.325 91.4908 665.309 91.4498 667.726 91.8576ZM259.71 92.0425C257.148 92.2813 254.083 92.3094 252.041 92.0096C254.587 92.0255 257.15 92.0278 259.71 92.0425Z" fill="#171717"/>
<defs>
<clipPath id="clip0_1506_2125">
<path d="M0.554688 7.5C0.554688 4.73858 2.79326 2.5 5.55469 2.5H677.555C680.316 2.5 682.555 4.73858 682.555 7.5V86.5C682.555 89.2614 680.316 91.5 677.555 91.5H5.55468C2.79326 91.5 0.554688 89.2614 0.554688 86.5V7.5Z" fill="white"/>
</clipPath>
</defs>
</svg>
