<svg width="321" height="72" viewBox="0 0 321 72" fill="none" xmlns="http://www.w3.org/2000/svg">
<path d="M28.8145 8.27157C30.5683 5.06357 33.9329 3.06836 37.589 3.06836H307.125C312.648 3.06836 317.125 7.54551 317.125 13.0684V58.0684C317.125 63.5912 312.648 68.0684 307.125 68.0684H12.9885C5.39374 68.0684 0.571025 59.9355 4.21406 53.2716L28.8145 8.27157Z" fill="#171717"/>
<path d="M7.99012 53.0909C9.08998 51.8311 6.2675 56.501 8.47668 53.5831C8.21904 54.1136 7.96064 54.647 7.70267 55.1787C7.6593 55.2749 7.61904 55.3705 7.58174 55.4655C7.35134 55.4828 7.11717 55.5169 6.88393 55.5574C6.95801 55.3269 7.04287 55.1025 7.14428 54.8735C7.42536 54.2802 7.70685 53.6861 7.98926 53.0904C7.98954 53.0906 7.98983 53.0907 7.99012 53.0909ZM6.46142 50.6777C6.51515 51.7659 5.23242 54.4286 7.22277 51.8826C7.17296 51.5666 7.12615 51.2451 7.07635 50.929C7.74031 50.0303 8.40749 49.1256 9.07073 48.2264C9.19636 47.8414 9.3217 47.4567 9.44806 47.0721C9.98906 46.79 10.5287 46.5123 11.0705 46.2307C10.8109 46.6019 10.5477 46.9779 10.2882 47.3491C9.67639 49.0429 8.98295 50.4685 7.86905 52.613C8.04128 52.4654 8.21313 52.317 8.38535 52.1694C7.81346 52.9855 7.24156 53.8012 6.67097 54.6147C6.5639 54.7558 6.46263 54.8985 6.36695 55.0428C6.41096 54.8783 6.46303 54.708 6.5237 54.5342C6.84124 53.7268 7.17114 52.8885 7.45439 52.1664C6.92345 52.6553 6.42099 53.4185 5.97369 54.2335C5.49057 55.0985 5.32308 56.0912 5.28077 56.7226C5.23887 58.2426 5.03839 57.9001 5.22876 59.028C5.27027 59.206 5.46461 59.1971 5.53394 59.538C5.70899 61.348 8.0232 64.1435 6.3419 62.7712C4.62923 60.2161 4.02155 57.125 5.56128 54.3232C5.16792 54.5611 5.0608 54.3586 5.19769 53.8093C5.39061 53.1302 5.88394 51.9972 6.46142 50.6777ZM59.1561 65.6366C57.9973 65.8965 55.6374 65.7917 54.0386 65.6112C54.0367 65.6112 54.0349 65.6112 54.033 65.6112C53.6812 65.5715 52.8844 65.2261 54.033 65.2402C55.9056 65.2643 56.811 65.808 57.7939 65.4389C58.2338 65.5076 58.6955 65.5688 59.1561 65.6366ZM63.2258 65.6044C64.3744 65.7377 63.8534 66.1474 62.4151 66.0365C62.4151 66.0368 62.4151 66.0372 62.4151 66.0375C61.8149 65.9911 62.9932 65.6673 60.8407 65.996C60.4011 65.7403 59.9682 65.5076 59.5338 65.2602C60.0609 65.2561 60.5415 65.2493 61.0944 65.246C60.7224 65.6664 62.0774 65.4722 63.2258 65.6044ZM7.53309 63.8048C7.90427 63.6248 7.43088 63.2413 7.08543 62.3163C7.59341 63.0477 8.23299 63.6859 8.95958 64.1829C8.48827 64.1102 8.01185 63.9867 7.53309 63.8048ZM13.5143 40.7383C13.5152 40.7367 13.5161 40.7351 13.517 40.7335C13.6558 40.3553 13.7949 39.976 13.932 39.6028C14.1646 39.4587 14.3953 39.3167 14.6279 39.1725C15.1919 37.8769 15.7594 36.5746 16.3226 35.2786C16.6023 35.6264 15.3317 37.8108 14.9169 39.1702C13.8152 40.9265 13.1269 41.6867 12.7558 41.6372C13.0077 41.3386 13.26 41.0414 13.5143 40.7383ZM314.033 64.5821C314.257 64.1784 314.443 63.7692 314.599 63.3516C314.226 63.7886 313.826 64.1927 313.375 64.5443C312.578 65.9012 312.175 65.7352 310.42 66.5407C308.987 67.1124 307.927 67.2403 307.125 67.3182C304.599 67.5207 304.434 67.733 299.979 66.8919C304.784 66.9457 302.938 66.4147 305.835 66.0058C306.435 66.3171 303.564 67.0192 305.51 67.1649C306.051 67.1117 306.588 67.0592 307.125 67.0075C309.621 66.7367 311.878 65.478 313.419 63.3986C313.32 63.4322 313.221 63.4631 313.122 63.4922C312.827 63.8691 312.499 64.2198 312.138 64.5429C312.461 64.1092 312.727 63.6622 312.95 63.1889C312.774 63.8978 313.697 62.5136 313.849 62.8931C313.933 63.0735 313.634 63.8389 313.397 64.29C314.333 63.4724 315.119 62.411 315.644 61.233C315.537 61.9046 315.349 62.5776 315.084 63.2303C314.777 63.7096 314.429 64.1576 314.042 64.5755C314.039 64.5777 314.036 64.5799 314.033 64.5821ZM73.6497 5.3121C75.4296 4.92297 78.6641 4.85858 80.3664 5.29159C78.126 5.29822 75.8901 5.30548 73.6497 5.3121ZM12.4383 41.6175C12.593 41.4724 12.7441 41.3325 12.8988 41.1874C12.5795 42.0269 12.2569 42.8705 11.9376 43.71C11.688 43.7681 11.4365 43.8296 11.1851 43.8926C11.6016 43.1358 12.0217 42.3743 12.4383 41.6175ZM35.0217 66.2294C34.3707 66.241 34.3131 66.2347 33.5024 66.2074C33.5033 66.2076 33.5043 66.2077 33.5052 66.2079C33.1838 66.1977 30.4951 66.0861 30.7948 65.9389C32.1297 65.9364 33.5536 65.9389 34.9197 65.9389C34.961 66.0357 34.97 66.1317 35.0217 66.2294ZM19.308 66.1435C19.3062 66.1431 19.3043 66.1428 19.3025 66.1425C18.8166 66.1201 18.3563 66.0746 17.8549 66.0663C19.6602 65.8347 19.9454 66.2503 21.5855 66.1327C23.2254 66.0143 24.2389 65.785 25.6304 66.3544C25.113 66.4397 24.5559 66.5616 24.0229 66.661C21.6948 66.4333 21.0678 66.6476 19.2005 66.8719C19.2367 66.6286 19.2718 66.3868 19.308 66.1435ZM285.765 66.4115C285.32 66.693 284.824 66.4168 284.772 66.4135C284.773 66.4131 284.774 66.4128 284.775 66.4125C280.834 66.6732 285.288 66.2567 281.568 66.2128C282.122 66.1424 282.666 66.0681 283.214 65.997C284.063 66.1327 284.937 66.2865 285.765 66.4115ZM157.709 66.3851C157.673 66.3032 157.629 66.221 157.593 66.1391C159.828 66.1581 160.398 65.8354 162.256 66.1293C160.74 66.2154 159.225 66.3009 157.709 66.3861C157.709 66.3858 157.709 66.3855 157.709 66.3851ZM46.2879 66.8255C43.8095 66.982 41.9761 67.051 39.596 66.8026C39.5941 66.8023 39.5923 66.8019 39.5905 66.8016C39.4532 66.7863 40.117 66.6148 39.9379 66.5717C39.4467 66.5973 38.9397 66.6367 38.4434 66.6674C38.3762 66.53 38.3122 66.3927 38.2449 66.2562C39.6418 66.2951 41.0395 66.334 42.4415 66.3729C42.2345 66.2926 42.0226 66.213 41.8156 66.1327C43.0055 66.0913 44.1909 66.0501 45.3807 66.0087C44.9669 66.2338 44.5541 66.459 44.1455 66.6849C44.8592 66.7321 45.5742 66.7775 46.2879 66.8255ZM194.921 67.2821C194.528 67.1926 195.256 67.0427 194.645 66.9657C194.035 66.8897 192.909 67.0565 193.173 66.8041C193.995 66.7701 194.858 66.7312 195.696 66.6957C193 66.2404 190.311 66.6524 190.27 66.0902C192.857 66.2359 194.984 66.1682 197.488 66.0126C197.385 66.4588 194.88 66.8446 196.457 67.2635C195.95 67.2693 195.418 67.2778 194.927 67.2811C194.925 67.2814 194.923 67.2817 194.921 67.2821ZM24.897 7.16264C25.0234 6.94308 25.1706 6.67321 25.3335 6.36857C26.3858 4.16204 29.224 1.38986 31.3931 0.673097C32.0274 0.373752 34.3115 0.490076 34.3079 0.639746C34.3181 0.996864 32.0835 1.76468 34.5835 1.24873C33.759 1.4615 32.9848 1.76192 32.2307 2.13853C32.4754 2.29426 32.7121 2.45639 32.9367 2.6264C33.802 2.1998 34.7272 1.88085 35.6816 1.68263C35.7422 1.75558 35.8018 1.8292 35.8605 1.90305C34.1699 2.20352 33.89 2.50024 33.7917 2.63617C33.7026 2.79852 33.7925 2.90106 33.0849 3.37864C34.551 2.85934 36.1113 2.67829 37.589 2.82931C36.7352 2.8044 35.7277 2.93259 34.9921 3.10882C35.002 3.50801 36.689 3.08912 36.9998 3.19103C37.848 3.40589 36.1082 3.35071 34.3069 4.10546C32.4661 4.80055 30.9037 6.4527 30.9462 6.89784C31.8428 6.02777 32.9637 5.32226 34.1406 4.90133C33.8403 5.10989 33.5527 5.33712 33.2879 5.57613C31.8758 6.11867 30.5178 7.19929 29.5641 8.68135C28.6904 10.0509 27.8029 11.4734 26.8804 12.9102C26.7345 13.2134 26.5886 13.5174 26.4444 13.8157C26.6579 13.8204 26.8681 13.8294 27.0815 13.834C26.8579 14.2897 26.6311 14.7508 26.4075 15.2065C26.577 13.5952 25.5913 15.4159 24.0584 17.426C24.5037 16.1542 25.4071 14.7789 24.9942 14.6821C23.0813 18.8368 20.128 23.3127 18.3102 27.3779C17.8586 28.3869 18.323 28.6367 17.0375 30.8867C17.0289 30.7817 16.9443 30.7183 16.9047 30.6318C14.9769 34.6847 13.8053 37.1425 11.3457 41.1051C11.6409 40.96 11.9348 40.8192 12.2301 40.6741C12.6213 39.7617 13.012 38.8471 13.4008 37.9392C13.9979 37.4993 13.6424 38.4376 15.0541 35.8483C16.211 33.7269 15.3997 34.9228 15.6336 34.3017C15.9493 33.4602 16.5424 32.8945 16.8773 31.9869C17.1371 31.2857 16.5266 31.8642 17.5097 30.2021C17.4309 31.0436 17.3542 31.904 17.2765 32.7519C16.9846 33.1289 16.6933 33.5023 16.4006 33.8789C16.5505 33.4183 16.6975 32.9654 16.8474 32.5048C16.1843 34.0527 15.5574 35.5151 14.872 37.1157C14.7183 36.3889 14.018 38.0479 13.6015 38.9288C12.9531 40.3012 13.2838 39.0025 12.856 39.9007C12.4289 40.7994 12.2412 41.9178 11.3102 43.4551C11.5829 42.5075 10.7857 43.5635 10.7327 43.2462C10.68 42.9285 11.5523 41.241 10.487 42.7379C8.94881 45.895 11.4386 42.9178 10.4097 45.0556C9.17401 47.6231 7.76707 47.6257 7.94129 46.7543C8.0784 46.0685 9.2169 44.0734 9.35721 43.3835C7.05504 46.8129 7.68755 47.1994 7.47713 47.8863C6.71384 50.3819 6.30235 48.2003 5.29724 51.1003C5.09358 50.9241 4.90797 50.7701 4.71376 50.599C4.50538 51.0803 4.39505 51.4151 4.12579 51.987C5.46832 50.6004 4.71848 51.9262 4.34427 52.6124C3.75501 53.6937 4.8869 52.1448 4.78721 52.4618C4.69339 52.7584 4.54346 53.0946 4.41308 53.3804C4.17347 53.9142 4.04476 54.2657 4.40365 53.8489C4.14785 54.1281 3.89059 54.4602 3.66183 54.7921C3.18935 56.275 4.19618 59.3596 4.24331 56.5001C4.59018 56.8318 4.28223 57.671 4.25833 58.3907C4.23837 59.104 4.50087 59.0611 4.55725 59.6681C5.00312 62.0742 4.16187 60.7199 3.7003 60.3525C4.30963 62.0429 4.52713 61.9561 4.67359 62.1188C4.88859 62.2304 4.93711 62.7251 6.65168 64.4648C7.14558 64.5829 5.93475 62.8394 7.24386 63.9943C7.13323 64.5066 7.78852 65.9832 10.413 66.9733C10.7009 66.9373 10.9842 66.8866 11.2586 66.8237C12.2026 67.2998 12.1585 67.6056 12.9885 67.6074C13.3715 67.5989 13.9342 67.5233 14.8578 67.3504C13.2384 68.3895 14.3517 67.7247 17.0526 68.1477C17.601 68.233 16.3337 68.4486 17.0995 68.5579C17.4466 68.6072 18.2893 68.4444 19.1371 68.5701C19.5509 68.6322 21.4862 69.0328 22.8263 68.8425C21.8432 68.3391 24.3894 67.9109 22.2059 67.4945C26.2417 67.5971 29.0664 67.3554 24.5441 68.0418C25.5686 68.1941 26.5939 68.3458 27.6184 68.4973C28.3324 68.3773 29.0526 68.2582 29.7718 68.139C29.8804 68.5527 29.7713 68.6687 32.5842 68.596C31.3637 68.6936 30.1483 68.7929 28.9226 68.8914C28.8812 68.9749 28.7107 69.0617 28.7517 69.1428C30.2528 68.9839 34.4799 68.9155 35.5042 68.8054C36.5287 68.6953 34.5503 68.6652 34.8452 68.5584C37.3024 67.6777 37.1076 68.3272 38.8708 68.1761C39.9056 68.0866 37.4348 67.9895 37.9885 67.9515C40.0413 67.8119 40.9936 68.28 42.8137 68.2859C42.1671 68.0202 41.5257 67.7504 40.8947 67.4823C42.8039 67.4963 44.9323 67.4987 46.707 67.4134C47.4036 67.3801 46.8772 67.1825 46.991 67.1693C47.5554 67.1014 49.8526 66.9938 50.0957 66.993C51.9263 66.9914 51.9786 67.2651 53.7573 67.2801C53.0591 67.3033 52.4024 67.3242 51.7197 67.3465C51.4093 67.7902 51.0926 68.2339 50.7822 68.6785C52.5256 68.7108 54.2697 68.7424 56.0183 68.7747C54.7404 68.6265 53.458 68.479 52.1802 68.3308C54.1774 67.9724 56.1745 67.6131 58.1717 67.2537C59.2117 67.474 60.2475 67.6941 61.2874 67.9144C64.1117 67.8563 63.5429 66.9623 64.8829 67.7454C65.7155 67.6792 66.5483 67.6131 67.381 67.5477C67.262 67.6594 67.1442 67.7714 67.0253 67.8831C68.029 67.8144 69.0325 67.7461 70.0362 67.6766C68.9808 67.2809 67.9463 66.8645 66.9012 66.4803C68.8765 66.3944 68.9144 66.7301 69.209 66.8138C69.9903 67.0357 71.5412 66.7364 72.1621 66.9417C72.3719 67.0122 70.4362 67.2332 71.1033 67.4881C71.2336 67.5375 73.8254 68.4744 75.4791 68.2581C75.448 68.0884 75.3203 67.8802 75.253 67.6956C77.477 67.5925 78.6112 68.4785 78.3163 68.7268C79.5012 68.553 81.2329 68.5384 81.4761 68.2669C82.0815 68.2603 82.6822 68.254 83.2876 68.2474C82.6569 68.9087 85.1818 68.7878 85.3473 68.219C84.3073 68.205 83.2661 68.1901 82.2261 68.1761C83.0126 67.479 79.8521 67.0582 86.4282 67.7039C87.6855 68.0666 84.1932 67.6545 85.2177 67.9261C86.9975 68.0841 88.6683 67.9519 90.36 68.2044C92.4653 68.5198 89.8751 68.8232 94.7799 68.4217C83.9609 67.4157 96.2638 67.7421 101.345 67.43C102.742 68.4235 107.033 68.7382 112.942 68.4426C112.326 68.1661 110.467 68.3086 109.396 68.2176C108.325 68.1265 109.484 67.9625 108.15 67.8333C106.815 67.7042 103.981 67.5287 102.63 67.3333C103.774 67.1768 109.422 66.8068 105.688 67.2513C108.476 67.5253 109.785 67.8068 113.24 67.8582C114.275 67.4269 114.198 67.1583 117.566 67.1458C115.574 67.7452 119.401 68.1618 118.559 68.781C116.17 68.6368 117.505 68.035 116.124 67.7469C115.982 67.7181 113.757 67.869 113.24 67.8582C115.485 68.3988 116.262 68.6001 114.88 69.2434C116.469 69.1871 117.457 69.2679 117.602 68.9607C117.933 69.0939 118.266 69.2273 118.592 69.3606C119.109 69.3573 119.574 69.3449 120.122 69.3474C119.367 68.884 120.83 69.1693 121.87 68.9592C122.91 68.7489 121.515 68.3832 124.371 68.3782C123.419 68.2697 122.549 68.1767 121.627 68.074C123.469 67.9548 125.317 67.8348 127.159 67.7156C125.865 67.4325 123.062 67.012 123.138 66.6395C123.987 66.7801 126.893 66.533 127.211 66.5228C128.442 66.4847 127.771 66.7197 127.864 66.7255C129.799 66.8396 131.393 66.7596 132.127 67.1156C133.581 66.955 134.677 67.0465 136.219 67.0374C137.067 67.0325 136.902 66.771 137.399 66.8207C140.7 67.1518 137.555 67.4897 143.923 66.8465C143.152 66.6644 142.391 66.4781 141.62 66.2943C142.34 66.2256 143.055 66.1565 143.774 66.0878C144.255 66.1209 144.732 66.1543 145.213 66.1874C145.203 66.5823 145.19 66.978 145.18 67.3729C145.708 67.3944 146.238 67.4153 146.765 67.4368C145.86 67.4758 144.952 67.5146 144.047 67.5535C143.964 67.623 143.887 67.6925 143.804 67.762C145.149 67.8697 146.49 67.9783 147.835 68.0867C147.861 67.9493 147.887 67.811 147.912 67.6736C150.944 67.8649 151.017 67.9812 153.899 67.6029C156.118 67.607 157.926 67.0326 159.209 66.7909C159.669 66.8679 160.13 66.9458 160.596 67.0228C160.891 66.9085 161.189 66.7948 161.484 66.6805C162.068 66.8395 162.661 66.9985 163.246 67.1566C163.572 66.7958 163.74 66.6832 161.459 66.5565C162.24 66.1078 166.257 66.3057 167.892 66.4564C169.132 66.5708 167.756 66.945 167.911 66.9906C168.429 67.1452 170.473 67.0118 170.903 67.0374C172.719 67.1442 173.991 67.1255 175.631 67.2083C175.951 67.2249 176.843 67.4621 176.919 67.4696C177.509 67.5101 178.965 67.6254 179.13 67.6287C187.671 67.8058 178.545 66.7767 186.487 66.8851C186.249 66.7494 186.03 66.6146 185.797 66.4789C186.397 66.4706 187.003 66.4627 187.603 66.4545C188.364 66.5679 187.444 66.7742 188.954 66.6078C188.856 66.775 188.757 66.9423 188.654 67.1087C189.311 67.0185 189.944 66.929 190.617 66.8387C191.673 67.4191 195.526 67.5509 195.252 68.2322C195.159 68.464 192.427 68.7019 193.871 68.9495C195.044 68.9982 194.25 68.7213 194.728 68.7068C198.185 68.6058 197.984 68.9939 199.396 68.8904C199.619 68.7241 199.852 68.5545 200.08 68.3865C200.613 68.4353 201.147 68.4842 201.685 68.533C201.809 68.4212 201.938 68.3093 202.062 68.1975C201.561 68.1901 200.995 68.1825 200.535 68.1751C201.177 67.7422 207.074 67.5477 204.825 67.9168C203.91 68.0666 202.232 68.003 203.292 68.5144C204.87 68.4407 206.661 68.3655 208.321 68.2918C208.373 68.4019 208.421 68.5122 208.473 68.6223C210.711 68.551 208.676 68.1108 208.68 67.8748C209.192 67.8682 209.709 67.8624 210.221 67.8558C210.438 67.9625 210.645 68.0741 210.872 68.1775C210.893 68.0077 211.18 67.6131 212.706 67.7596C213.687 67.8549 212.142 68.2833 214.012 68.2239C213.873 67.959 213.197 67.6364 215.281 67.5511C215.488 67.8276 215.774 68.0808 215.934 68.3714C218.526 68.1058 219.705 68.5327 222.747 68.2239C224.677 68.0285 227.321 67.3349 228.568 68.4036C229.98 68.4317 229.532 68.1656 229.949 68.1058C231.921 67.8226 233.387 68.3294 233.755 68.3592C236.097 68.5502 237.148 68.3748 239.057 68.614C238.953 68.4162 238.897 68.2288 238.814 68.0359C237.065 68.3323 236.18 68.3184 233.727 68.2547C234.549 68.2149 235.372 68.1743 236.195 68.1346C236.06 67.974 235.927 67.8134 235.798 67.6536C228.212 68.2862 229.982 67.2868 236.341 67.0682C236.889 67.3654 237.458 67.6618 238.001 67.9598C241.674 67.5094 243.403 67.9004 247.557 67.9939C248.051 68.0046 249.85 67.8335 250.623 67.825C250.611 67.8239 250.598 67.8227 250.585 67.8216C251.066 67.541 250.414 67.4118 250.337 67.161C250.756 67.1295 251.175 67.0982 251.594 67.0667C252.53 67.2579 252.201 67.415 254.042 67.3695C253.794 67.1791 253.549 66.9886 253.301 66.7982C255.319 66.7916 256.639 66.9985 258.518 66.909C258.202 66.9811 257.89 67.0533 257.575 67.1253C261.662 67.3091 258.409 68.4286 261.498 67.8714C261.695 67.9691 261.886 68.0677 262.083 68.1653C260.81 68.1893 259.537 68.2126 258.269 68.2366C258.244 68.3748 258.216 68.5124 258.195 68.6507C259.556 68.6093 260.923 68.5666 262.284 68.5252C261.29 68.6179 260.291 68.7107 259.298 68.8035C260.876 68.8697 262.454 68.936 264.032 69.0022C262.356 68.494 264.529 68.4318 264.12 67.9285C266.914 68.3475 269.109 68.8997 273.44 68.5462C274.298 68.4757 273.832 68.124 276.269 68.552C275.679 67.9924 278.732 67.7298 278.34 67.1976C277.491 67.2233 276.611 67.2394 275.789 67.2708C276.726 67.4555 276.881 67.9633 275.458 68.1141C273.642 68.3061 270.993 67.9541 271.102 68.5178C270.378 68.4914 269.704 68.4757 269.001 68.4534C269.29 68.3136 269.574 68.1728 269.858 68.033C267.857 68.2522 266.599 68.1809 265.637 67.8284C268.022 67.7473 270.401 67.667 272.786 67.5867C272.435 67.5628 272.079 67.5386 271.728 67.5154C273.533 67.1553 271.671 66.8142 275.039 66.7372C275.018 66.9019 275.002 67.0667 274.981 67.2323C276.207 66.7918 279.565 66.7942 278.494 66.2875C279.508 66.4431 279.715 66.5416 280.289 66.2684C282.964 66.6534 284.682 67.1403 283.73 67.7215C284.723 67.628 285.717 67.5343 286.705 67.4408C286.131 67.2818 285.556 67.1236 284.982 66.9647C286.71 66.9746 288.451 66.9844 290.174 66.9935C290.339 67.4637 286.847 67.1362 287.855 67.5565C288.056 67.6408 288.986 67.4601 289.231 67.5076C291.807 68.0217 287.762 67.6503 288.522 68.0442C292.361 68.1659 289.289 68.826 294.577 68.2713C294.717 68.407 294.867 68.5455 294.996 68.6804C296.832 68.6886 296.683 68.382 298.261 68.324C299.249 68.288 300.489 68.8264 301.581 68.4597C301.775 68.3921 299.939 67.734 303.797 67.763C306.767 67.7853 305.565 68.243 307.125 68.4112C307.138 68.4126 307.152 68.4139 307.166 68.4152C308.972 68.7481 312.276 66.7718 313.501 66.5343C312.73 67.0035 311.711 67.5187 310.764 67.7811C310.442 68.0536 310.107 68.3059 309.745 68.5422C311.951 67.8425 314.077 66.5445 314.848 65.1637C317.468 63.2401 317.596 59.394 316.823 60.2546C316.669 61.1856 317.21 60.2706 316.649 61.4872C316.474 61.569 316.297 61.6522 316.121 61.7214C316.944 59.7038 316.828 58.1093 317.202 59.1704C317.249 58.8226 317.279 58.475 317.291 58.1219C317.204 58.1031 317.117 58.0854 317.029 58.0684C316.815 58.0263 316.6 57.9857 316.386 57.9415C316.352 57.5276 316.318 57.1119 316.284 56.698C316.35 56.2378 316.417 55.7765 316.484 55.3111C316.961 55.9372 316.977 57.0036 317.243 53.4748C317.079 53.4644 316.915 53.4493 316.75 53.4389C316.959 50.4846 317.358 50.4067 317.344 46.6974C317.916 49.5431 316.902 51.1001 318.049 51.0897C317.974 51.8038 317.897 52.5236 317.822 53.2376C317.988 53.3463 318.155 53.454 318.322 53.5575C318.234 49.7238 317.139 43.3554 317.865 40.7886C317.776 40.4782 317.699 40.1666 317.604 39.8511C318.042 37.3364 317.059 36.2505 317.625 33.6997C317.685 33.4365 318.609 33.9872 318.575 30.6667C318.455 30.7494 318.253 30.7924 318.102 30.8597C318.175 30.1407 318.253 29.4255 318.328 28.7118C318.217 28.5824 318.106 28.4468 317.994 28.3175C317.951 29.5438 317.908 30.7666 317.865 31.9929C317.826 30.974 317.788 29.9485 317.75 28.9296C317.569 30.2589 317.567 30.8586 317.277 30.0573C317.259 28.9035 317.241 27.748 317.223 26.5942C317.149 26.4753 317.074 26.3573 316.999 26.2385C316.777 26.7972 316.56 27.3616 316.335 27.9204C316.517 24.9144 316.526 22.3009 316.963 19.9933C317.036 19.6001 317.325 20.9907 317.065 18.3113C317.218 18.2699 317.342 18.198 317.484 18.1514C317.191 15.9127 317.158 14.6999 317.264 13.0684C317.311 12.2992 317.322 11.4211 317.121 10.3071C317.323 12.5994 317.123 10.5525 316.781 10.0597C316.579 9.71771 316.991 11.1716 316.825 11.0318C316.705 10.8538 315.734 9.22751 316.129 10.7455C316.566 11.5736 316.744 12.3587 316.782 13.0684C316.904 15.4219 316.347 17.0291 316.683 21.0493C316.565 20.2369 316.446 19.4187 316.327 18.6064C316.247 18.9889 316.174 19.3315 316.089 19.7451C316.269 16.8016 316.152 18.2332 316.011 17.0237C315.897 16.0485 315.796 14.4313 315.741 13.0684C315.728 12.7824 315.703 12.5132 315.673 12.2686C315.613 11.8725 315.893 12.2711 315.757 11.3587C315.688 10.7056 314.791 9.26181 314.878 8.76447C314.917 8.58848 315.415 9.04758 315.665 9.15069C315.882 9.27082 316.083 8.84709 314.845 7.12263C314.542 6.3372 315.711 8.03381 315.715 8.08527C316.199 8.2806 314.844 5.80809 313.644 5.22354C313.56 5.17511 314.157 5.96154 313.301 5.34979C311.218 4.00785 309.926 3.44135 308.318 2.877C308.221 3.03335 307.776 3.15242 307.125 3.29107C306.225 3.47977 304.885 3.59764 303.374 3.51531C303.24 3.6262 303.112 3.73806 302.977 3.84977C303.385 3.79108 303.793 3.73318 304.201 3.67448C304.646 3.74403 305.118 3.79466 305.552 3.87662C302.909 3.97191 302.535 4.50591 301.268 4.70129C296.93 5.36871 299.559 3.9569 300.341 3.71355C300.905 3.81207 301.451 3.92205 302.009 4.02554C301.947 3.89059 301.884 3.75461 301.827 3.61882C295.334 3.62295 300.839 2.74279 297.543 2.49193C296.694 3.15589 294.273 3.21988 291.19 2.79855C290.848 2.80186 290.506 2.80271 290.164 2.80685C290.107 2.90366 290.108 3.05164 290.015 3.11543C286.3 3.22803 285.638 2.20551 285.287 2.10864C283.724 1.67902 282.507 2.27346 282.047 2.27856C280.107 2.29926 279.543 2.03531 277.696 2.14868C275.709 2.27119 277.068 2.47372 276.463 2.655C275.978 2.79897 274.411 2.82461 273.764 2.97384C274.021 2.85179 274.307 2.7321 274.564 2.6096C272.505 2.44321 270.822 2.28104 268.484 2.24047C265.845 3.1335 263.6 1.62708 264.511 2.84884C266.725 2.93246 267.963 3.07169 269.148 3.383C267.695 3.42273 266.24 3.46142 264.786 3.50115C264.362 3.36706 264.061 3.23638 263.559 3.09981C262.473 3.38456 259.954 3.26237 258.966 3.34589C254.335 3.7375 255.767 4.22321 251.54 3.40692C254.587 3.32738 254.582 2.93092 257.604 2.98555C256.952 2.70241 255.416 2.76107 256.41 2.42162C253.487 2.50523 254.432 2.80829 253.294 3.07735C252.313 3.30929 250.337 3.32228 250.448 3.62371C250.246 3.45798 250.09 3.29754 249.889 3.13203C247.995 3.13369 246.102 3.13379 244.209 3.13545C245.016 2.96244 245.823 2.78911 246.63 2.61692C246.02 2.55157 245.409 2.48648 244.799 2.42113C240.142 2.95928 232.112 1.97299 233.395 3.32489C231.149 3.36794 230.868 3.19838 229.648 2.94259C229.513 3.04522 229.382 3.13059 229.248 3.24482C227.799 3.13738 226.688 3.52271 225.41 3.42254C224.132 3.32315 223.815 2.95918 223.629 3.57097C222.801 3.39548 221.978 3.2497 221.155 3.08662C220.659 3.22561 220.163 3.36299 219.672 3.50115C218.896 3.4283 218.118 3.35575 217.342 3.2829C216.927 3.57494 213.876 3.44906 212.531 3.64519C211.254 3.33039 211.289 2.33921 208.284 2.51683C208.362 2.76266 208.438 3.00778 208.516 3.25361C207.828 3.20229 207.138 3.15113 206.445 3.09981C206.404 3.01957 206.368 2.93933 206.327 2.8591C206.678 2.88393 207.025 2.90863 207.377 2.93429C207.072 2.79851 206.773 2.66335 206.473 2.52757C205.423 2.72872 204.371 2.9299 203.316 3.13105C204.738 3.28336 206.161 3.43576 207.584 3.58806C205.799 3.76855 204.556 3.58852 203.004 3.78971C201.654 3.45032 202.153 3.25475 202.701 2.88644C202.199 2.91789 201.692 2.94825 201.19 2.9797C201.521 2.61133 200.672 2.39184 203.605 2.42162C203.404 2.31655 203.198 2.21638 203.001 2.10718C202.52 2.12374 202.208 2.03493 201.681 2.07544C200.242 2.18639 199.139 2.8334 199.238 3.06026C199.291 3.17909 200.709 2.95183 200.652 3.11982C200.512 3.52949 197.258 3.34556 201.951 3.757C200.393 4.0178 200.046 3.82112 198.328 3.74577C198.462 3.88228 198.593 4.01793 198.722 4.15444C197.926 4.09154 197.128 4.02887 196.332 3.96597C197.439 3.26474 191.566 3.00137 196.853 2.38793C195.29 2.35647 193.733 2.32485 192.176 2.29174C192.497 2.21973 192.818 2.14843 193.139 2.07642C193.842 2.1145 194.542 2.15195 195.245 2.18921C194.418 2.05761 193.589 1.92678 192.761 1.79518C190.805 1.95829 190.038 2.20914 189.143 2.51878C191.419 2.74474 190.676 2.43609 192.449 2.37474C192.387 2.57084 192.469 2.75121 192.314 2.95724C191.398 2.55105 188.408 2.84655 187.715 2.86642C185.605 2.92675 187.26 2.52766 185.848 2.51927C184.436 2.51099 182.77 2.74853 181.616 2.35277C181.637 2.57459 181.729 2.80409 181.812 3.00606C179.613 3.07892 180.051 2.81687 179.824 2.78293C176.192 2.22492 174.221 2.69602 170.066 2.75314C170.594 2.82185 171.127 2.88388 171.66 2.94845C168.525 3.41941 170.637 3.2752 173.358 3.43084C170.807 3.38365 169.346 3.78474 167.546 3.90397C165.745 4.02298 162.658 3.81699 161.529 3.65642C164.111 3.3981 166.896 3.56845 169.763 3.49725C169.437 3.27128 169.12 3.08004 168.784 2.83175C167.04 3.30602 166.03 2.98891 165.456 2.92599C163.769 2.74145 163.822 3.14851 162.803 2.71067C162.845 2.86129 162.875 2.98793 162.916 3.12861C159.434 3.06569 155.678 2.79941 153.412 3.35565C153.205 2.99388 153.049 2.64534 152.811 2.27612C151.336 2.54844 150.074 2.26957 148.832 2.33324C147.596 2.39699 148.066 2.68936 146.613 2.80197C146.343 2.82267 145.783 2.63967 145.121 2.77463C144.452 2.91029 141.986 3.91903 141.691 3.0378C140.444 3.03365 139.264 3.00143 138.043 2.98653C139.233 2.93686 140.423 2.88875 141.608 2.83908C140.594 2.6255 139.586 2.41255 138.572 2.19897C138.443 2.3894 138.313 2.58327 138.189 2.77121C135.457 3.00303 133.475 2.69168 130.717 2.76535C130.256 2.77777 131.343 3.15426 129.3 3.0583C127.256 2.96227 125.739 2.25957 122.258 2.53099C122.082 2.54506 121.051 3.08324 119.804 2.71067C119.52 2.62622 120.714 2.50128 120.063 2.39037C119.411 2.27942 116.502 2.1882 116.274 1.92408C116.305 2.01761 116.487 2.11453 116.575 2.20971C116.078 2.25441 115.577 2.29914 115.075 2.34301C115.028 2.17827 114.978 2.01329 114.932 1.84938C112.075 2.2327 110.599 2.858 106.367 2.6511C107.557 2.89035 108.748 3.13056 109.933 3.36981C110.259 3.20174 110.585 3.03254 110.906 2.86447C112.856 2.93152 114.812 2.99809 116.762 3.06514C117.083 2.87389 117.398 2.68318 117.719 2.49193C118.236 2.51676 118.749 2.54082 119.266 2.56565C119.137 2.70391 119.006 2.84144 118.872 2.9797C119.896 2.94576 120.921 2.9111 121.94 2.87716C119.866 3.69326 116.147 2.80774 116.415 3.49041C115.955 3.38449 115.494 3.27784 115.034 3.17109C114.832 3.50211 113.896 3.40684 112.246 3.35468C112.624 3.51778 113.041 3.67866 113.387 3.84342C111.783 3.61328 108.938 3.63563 107.277 3.54705C106.548 3.50814 107.276 3.26815 107.06 3.23994C105.947 3.09256 103.821 3.51132 103.376 3.47821C100.716 3.28112 98.9882 2.48721 96.0856 3.01046C99.0814 3.13961 97.4516 3.08506 98.5175 3.37567C98.8512 3.46678 102.721 3.65686 97.8751 3.57244C97.3069 3.56188 88.5131 3.01334 91.4037 2.593C89.9808 2.72712 88.8668 2.88221 87.5629 3.02461C84.3756 1.91683 85.4786 2.95751 86.4048 3.53045C85.8822 3.53293 85.3851 3.53875 84.847 3.53875C85.9905 2.93684 80.1647 2.89946 78.1882 3.20332C77.5259 3.30432 79.3777 3.49699 77.8463 3.58806C77.117 3.54585 76.2897 3.4912 75.5191 3.44403C76.6367 3.82485 74.4434 3.97161 74.4741 4.35902C73.072 4.0138 71.9996 3.28207 72.7701 2.88546C71.6113 3.04605 70.4465 3.20644 69.2877 3.36786C69.8258 3.45976 70.3709 3.55085 70.909 3.64275C67.1215 3.39933 62.2515 3.95322 61.4598 3.13936C60.9579 3.14515 60.4507 3.15016 59.9488 3.15596C59.7936 3.29339 59.6436 3.43109 59.4884 3.56853C57.2174 3.44934 54.9516 3.32935 52.6807 3.21015C54.7027 3.12486 55.1841 2.92924 57.3046 3.08809C56.4874 2.93002 55.6551 2.77108 54.8534 2.61301C51.661 3.03857 51.2255 3.31825 46.4189 3.1916C46.2016 3.1858 42.5699 2.82893 42.4457 2.79416C41.8768 2.63521 42.7404 2.40429 42.4871 2.32397C41.7834 2.09877 37.5074 1.53331 37.5902 1.44803C38.6354 0.401517 53.0221 0.387646 56.9131 0.33383C97.2715 -0.22417 136.741 0.522364 176.846 0.394862C177.258 0.392889 177.078 0.238401 177.254 0.231785C178.346 0.192984 179.418 0.433755 179.821 0.443688C180.683 0.46416 180.209 0.241708 180.838 0.24155C187.348 0.244034 193.49 0.374843 200.004 0.33676C200.429 0.334276 199.995 0.512257 200.74 0.480796C201.125 0.463569 202.329 0.190511 203.197 0.186377C206.229 0.172308 208.776 0.259849 211.974 0.255709C213.722 0.253238 216.346 0.276449 218.301 0.27231C219.165 0.27055 220.065 0.145631 220.918 0.141457C222.129 0.135662 221.882 0.388897 222.068 0.404628C222.885 0.47333 222.999 0.195387 223.775 0.202001C225.218 0.215248 225.296 0.40082 227.127 0.385097C228.437 0.373506 231.433 0.226989 233.083 0.183935C236.943 0.399179 241.807 0.313727 245.408 0.242526C247.54 0.200319 247.737 0.46014 248.607 0.459312C251.669 0.45428 253.994 0.122436 256.87 0.111673C260.688 0.0976524 264.071 0.317078 267.77 0.332854C268.369 0.335336 268.232 0.0972743 268.82 0.0911665C270.999 0.0688121 273.784 0.0254843 275.724 0.0594299C277.887 0.0967343 278.684 0.442284 280.8 0.371914C281.421 0.35102 281.603 0.0480385 282.642 0.0091393C284.303 -0.0520318 286.124 0.215146 287.283 0.244967C288.871 0.284709 287.49 -0.0239573 289.632 0.0174396C289.72 0.0192266 290.04 0.239871 290.501 0.229343C291.841 0.199538 291.708 0.0257819 293.669 0.0423408C293.857 0.0446274 296.457 0.254867 296.715 0.255709C298.237 0.259021 301.299 0.332627 302.2 0.287934C305.418 0.128969 302.884 -0.202893 305.621 0.517415C306.122 0.44417 306.621 0.370511 307.125 0.297139C308.026 0.194087 308.967 0.184268 309.944 0.296461C309.379 0.267096 310.209 0.497658 311.146 0.888305C312.092 1.26664 313.111 1.86404 313.246 1.93644C315.449 3.21627 314.488 1.9974 316.837 4.34278C315.062 3.02448 315.881 3.73617 317.096 5.08372C318.342 6.42953 319.499 8.84831 319.699 9.80142C319.988 10.8772 320.13 11.9798 320.133 13.0684C320.158 19.242 320.033 25.0356 320.037 31.3615C320.038 33.7674 320.175 36.9915 320.172 39.5368C320.172 40.1301 320.019 39.6818 320.015 40.204C320.013 40.725 320.185 40.147 320.176 40.7417C320.116 44.441 319.792 47.3396 320.197 50.7285C320.139 50.8935 320.092 50.8882 320.028 51.1614C320.26 52.9298 320.145 55.742 320.014 58.0684C319.945 59.7719 319.505 61.2193 319.187 62.0855C317.637 65.7394 316.91 66.6341 314.639 68.4348C311.453 71.0309 305.43 70.3588 308.097 71.081C307.771 71.1081 307.45 71.1225 307.125 71.1249C305.32 71.1421 303.558 71.1396 301.721 71.0748C301.489 71.0665 301.649 70.8651 301.556 70.861C300.966 70.8321 300.774 71.0124 300.376 71.0207C299.296 71.0429 301.058 70.827 299.518 70.8874C298.706 70.9196 298.245 71.0769 295.989 71.0802C282.391 71.0976 267.629 71.0413 253.69 71.0148C252.732 71.0131 253.362 71.2079 252.162 71.1954C247.992 71.1524 240.527 70.8246 236.931 70.8693C233.335 70.914 234.146 71.1988 231.896 71.318C231.461 71.3412 231.818 71.1789 231.425 71.1764C228.781 71.1615 225.628 70.9083 223.486 70.8703C222.07 70.8447 222.183 71.1001 221.201 71.1183C219.736 71.1448 218.229 70.8868 217.448 70.8786C213.775 70.8422 211.25 71.05 207.82 70.944C207.954 71.0002 208.042 71.0522 208.156 71.1076C204.095 71.0984 200.039 71.0893 195.977 71.0802C196.169 71.1315 196.354 71.1833 196.545 71.2355C191.78 71.2073 192.324 70.651 192.743 71.8258C192.396 71.8672 192.029 71.9151 191.698 71.9532C191.832 71.348 188.95 70.9052 185.282 70.7511C185.013 70.7395 183.207 71.3296 183.404 70.6325C182.933 70.803 182.653 70.9206 182.254 71.0704C181.478 70.8594 180.692 70.6508 179.916 70.4406C179.497 70.4721 179.072 70.5024 178.653 70.5339C178.591 70.6705 178.639 70.8123 178.504 70.9464C176.559 70.9671 172.569 70.7982 171.032 70.8156C167.214 70.8595 163.326 71.2288 160.356 70.8297C158.909 70.8704 160.346 71.1385 158.194 71.1046C157.951 70.9689 157.723 70.8388 157.469 70.6989C155.711 71.3054 155.343 70.9364 152.933 70.8097C151.304 70.7236 150.237 70.8719 148.685 70.8429C148.291 70.8355 148.347 70.6574 148.078 70.6632C147.177 70.6816 144.606 70.9266 143.97 70.9333C138.206 70.9978 133.255 70.9703 127.765 70.9049C127.175 70.8983 127.94 71.074 127.329 71.0665C126.347 71.0548 126.925 70.7849 126.356 70.7716C124.769 70.7362 124.757 71.0209 122.543 71.0358C115.253 71.0846 106.871 70.8708 99.255 70.8517C99.017 70.8517 99.0311 71.0185 98.7725 71.0202C97.0862 71.0283 95.3791 70.8029 93.848 70.8053C91.3075 70.8086 89.3981 71.043 86.8886 71.0421C81.9836 71.0413 77.6011 70.9213 72.5564 70.9147C68.4274 70.9089 64.8414 70.9312 60.3141 70.9303C44.6804 70.9277 28.7943 71.258 12.9885 71.2574C7.43931 71.3769 2.11224 67.3973 0.535886 62.1701C0.341051 61.5358 0.567415 61.7509 0.503774 61.5607C-0.0288286 59.7394 -0.15142 59.5362 0.194326 58.8407C0.0683165 56.466 -0.193733 55.5383 0.917508 52.7796C1.26213 52.0355 1.43128 52.041 1.63017 51.859C1.79227 51.7399 1.98018 51.4993 2.3444 50.5827C3.02897 48.8593 1.82153 50.514 4.68529 45.8416C4.76134 45.718 5.36278 45.234 5.84121 44.1984C6.32288 43.1585 5.50229 44.2184 6.76674 41.7725C9.7358 36.0308 13.8836 28.976 17.4183 22.3464C17.6398 21.9309 19.6763 17.8763 20.0417 17.0559C20.7484 15.468 20.3821 15.6802 21.4141 13.6802C22.2117 12.1349 23.1181 10.9956 24.0549 9.17846C24.1638 8.96667 24.1305 8.49406 24.897 7.16264ZM316.124 58.1209C316.113 58.104 316.101 58.0865 316.087 58.0684C315.794 57.6313 314.961 56.8238 315.23 54.3709C315.256 54.1277 315.892 55.4404 315.993 54.0235C316.059 55.3905 316.081 56.7222 316.123 58.0684C316.124 58.0859 316.124 58.1034 316.125 58.1209C316.124 58.1209 316.124 58.1209 316.124 58.1209ZM37.1923 5.00151C35.6411 5.02813 34.0831 5.52057 32.7778 6.40928C33.5942 5.68082 34.5777 5.10403 35.6512 4.7394C36.1866 4.77722 36.7004 4.86737 37.1923 5.00151ZM169.728 66.5839C169.726 66.5839 169.724 66.5839 169.722 66.5839C171.74 66.4646 173.76 66.3452 175.777 66.226C175.565 66.3137 175.353 66.4019 175.141 66.4896C173.547 66.6279 171.953 66.7659 170.365 66.9042C170.153 66.7974 169.94 66.6906 169.728 66.5839ZM153.785 67.513C152.497 67.4087 152.812 67.2328 152.104 67.0614C152.104 67.0617 152.104 67.062 152.104 67.0624C151.916 67.0177 151.045 66.9787 150.708 66.972C150.833 67.0821 150.993 67.1908 151.127 67.3001C148.121 67.5667 142.242 66.6194 149.854 66.2377C149.74 66.3767 149.631 66.5151 149.517 66.6542C153.3 66.6153 157.516 66.9169 153.785 67.513ZM315.724 27.7136C315.268 24.4849 315.172 23.4496 315.484 19.5328C315.613 20.0861 315.742 20.6394 315.871 21.1927C315.74 21.8395 315.609 22.4815 315.477 23.1283C315.477 23.1301 315.477 23.132 315.477 23.1338C315.616 23.2632 315.754 23.3929 315.892 23.5171C315.836 24.9139 315.78 26.3167 315.724 27.7136ZM30.1937 67.1839C29.2938 66.2745 29.5534 66.8031 32.1238 66.598C33.0137 66.5268 32.1465 66.3677 32.7001 66.3412C35.6897 66.1965 35.9289 66.8058 35.2616 67.1229C33.5696 67.1444 31.8601 67.1641 30.1992 67.1839C30.1974 67.1839 30.1955 67.1839 30.1937 67.1839ZM23.8399 18.8212C23.8408 18.8196 23.8417 18.818 23.8426 18.8164C24.0744 18.8547 23.5487 19.9408 24.3851 18.849C23.8883 19.7559 23.3907 20.6624 22.8915 21.5739C23.0196 21.2966 23.1516 21.014 23.2797 20.7366C23.0838 20.9361 22.8867 21.1359 22.6908 21.3354C22.7384 21.78 22.4446 22.0084 21.8487 22.9207C22.2316 22.788 22.614 22.6567 22.997 22.5241C22.3204 23.5927 21.6413 24.6652 20.9646 25.7338C20.897 25.7145 20.829 25.6954 20.7614 25.6761C20.6101 26.1357 20.4619 26.5916 20.3107 27.0512C20.1767 27.1253 20.0457 27.1957 19.9118 27.2699C19.6908 27.8034 19.4694 28.3377 19.2492 28.8717C18.9912 28.9298 19.5229 27.7783 18.4912 29.7708C18.6425 29.0694 18.7937 28.3695 18.9476 27.6635C20.5778 24.716 22.209 21.7684 23.8399 18.8212ZM53.5781 66.9042C49.8684 66.9422 50.9132 66.7984 51.7721 66.348C52.3721 66.5334 52.9781 66.7188 53.5781 66.9042ZM244.706 67.305C245.783 66.9978 246.863 66.6937 247.965 66.3973C250.159 66.226 252.354 66.7858 250.703 67.0052C248.717 67.2685 246.641 66.9738 244.706 67.305ZM294.674 67.1683C291.989 67.0259 294.515 66.6609 295.12 66.4481C295.863 66.7901 296.898 66.7599 298.561 66.7997C297 66.8218 295.117 67.1925 294.674 67.1693C294.674 67.169 294.674 67.1686 294.674 67.1683ZM201.511 66.9598C200.435 66.969 199.365 67.0548 198.404 66.9505C198.694 66.6568 200.618 66.924 199.242 66.4886C199.93 66.4812 200.619 66.474 201.301 66.4657C200.868 66.6461 201.451 66.7809 201.508 66.9588C201.509 66.9592 201.51 66.9595 201.511 66.9598ZM89.5218 66.558C91.6329 66.9057 92.033 66.7569 94.1595 66.516C94.4592 66.7991 91.9237 67.2734 90.3352 67.3778C90.0662 67.1046 89.7961 66.8312 89.5218 66.558ZM101.812 4.43372C102.319 4.07284 106.059 4.02578 107.917 4.13247C107.696 4.18599 107.474 4.24023 107.253 4.29457C105.442 4.34094 103.623 4.38736 101.812 4.43372ZM299.353 66.8241C299.074 66.8135 298.81 66.8056 298.561 66.7997C298.838 66.7957 299.106 66.8019 299.353 66.8241ZM278.917 2.74631C279.802 2.40606 277.173 2.29175 280.365 2.42504C280.365 2.42471 280.365 2.42438 280.365 2.42406C282.476 2.51182 282.942 2.53525 284.898 2.56175C284.194 2.99883 280.226 3.15507 285.695 3.24531C285.767 3.24571 285.623 2.98562 286.497 3.0212C286.767 3.03226 287.63 3.24571 288.943 3.3078C289.367 3.32767 292.555 3.3935 288.209 3.39764C288.339 3.70232 288.105 4.01071 288.115 4.30629C286.419 4.39219 285.115 3.79558 283.321 3.81022C280.656 3.8334 279.3 4.4367 278.788 3.64519C281.028 3.45072 284.876 3.44605 285.378 3.92203C287.545 3.92783 288.168 3.53785 286.42 3.34491C278.933 3.58998 284.364 2.76605 277.809 3.07735C277.731 3.18743 277.462 3.30589 277.503 3.40936C275.502 3.02198 278.602 2.868 278.917 2.74631ZM294.573 3.58806C293.279 3.82071 291.99 4.05523 290.702 4.28871C290.702 3.90953 291.412 3.56926 293.451 3.35565C293.823 3.43341 294.201 3.51113 294.573 3.58806ZM185.76 3.68767C185.574 3.89382 185.077 4.08273 184.715 4.27895C184.322 4.10509 175.008 3.93829 179.747 3.76774C180.435 3.7429 184.632 4.10743 185.76 3.68767ZM74.8642 66.8685C75.9612 67.0068 77.0536 67.1453 78.1453 67.2835C76.4648 67.3712 74.7829 67.4612 73.1023 67.5506C73.6912 67.3233 74.2753 67.0958 74.8642 66.8685ZM262.562 67.6668C262.099 67.6591 263.638 67.3756 261.812 67.4202C263.173 67.2389 264.448 67.0854 265.777 66.9149C266.176 67.049 266.578 67.1826 266.977 67.3167C267.287 67.2306 267.604 67.145 267.914 67.0589C267.728 67.2543 267.562 67.4452 267.366 67.6439C265.125 67.2249 264.611 67.6999 262.562 67.6668ZM195.944 68.4309C195.541 68.0063 198.785 67.7538 195.594 67.6859C196.199 67.4069 197.173 67.2605 199.04 67.2357C199.34 67.3424 199.64 67.4483 199.939 67.555C199.981 67.2695 200.461 67.1634 201.511 66.9598C201.512 66.9601 201.513 66.9605 201.514 66.9608C204.353 66.9401 204.184 67.0353 204.867 67.5047C201.86 67.2398 201.771 67.6686 199.722 67.9236C198.314 68.099 196.477 68.0196 195.944 68.4309ZM195.684 3.68279C193.558 4.04125 195.466 4.3756 191.694 3.99478C191.937 3.90371 192.181 3.81341 192.425 3.72233C193.511 3.70826 194.597 3.6952 195.684 3.68279ZM185.453 66.9754C185.696 67.6328 187.697 68.1445 188.039 67.075C186.088 66.8573 187.041 67.4631 185.453 66.9754ZM293.758 68.1975C290.007 68.1669 290.716 67.425 292.258 67.0541C292.496 67.189 292.734 67.3242 292.967 67.4583C293.624 67.3971 294.281 67.3357 294.938 67.2752C294.545 67.5824 294.151 67.8904 293.758 68.1975ZM119.325 67.6976C122.192 67.2281 116.231 67.4365 118.233 67.1434C119.832 66.9091 121.939 67.3821 121.142 67.6785C120.589 67.6868 119.972 67.6926 119.331 67.6976C119.329 67.6976 119.327 67.6976 119.325 67.6976ZM135.913 67.5633C135.442 67.0617 136.121 67.2079 133.856 67.2982C133.209 67.3238 128.07 67.1355 130.227 67.5511C132.064 67.5511 134.004 67.5583 135.913 67.5633ZM316.52 43.7857C316.739 43.7512 317.218 47.7087 317.098 48.2167C317.099 48.2167 317.099 48.2167 317.099 48.2167C316.772 49.5878 316.726 45.4133 316.277 47.224C316.672 43.2143 315.717 42.0146 316.975 42.2941C317.031 44.6561 316.771 43.5378 316.52 43.7857ZM52.711 3.40546C52.7092 3.40546 52.7073 3.40546 52.7055 3.40546C52.9713 3.41573 55.1611 3.73629 54.8948 3.84733C52.2614 3.75213 52.7307 3.54112 50.2791 3.88785C50.1447 3.77618 50.0295 3.66785 49.8848 3.55535C50.8576 3.48911 51.3968 3.35495 52.711 3.40546ZM175.691 3.24726C176.658 3.19013 178.424 3.42685 179.526 3.41278C176.018 4.32184 171.826 3.47413 175.691 3.24726ZM6.46453 50.67C6.46349 50.6725 6.46245 50.6751 6.46142 50.6777C6.46138 50.6767 6.46149 50.6755 6.46145 50.6746C6.46248 50.673 6.4635 50.6715 6.46453 50.67ZM250.669 3.79264C250.544 3.73363 250.474 3.68237 250.448 3.63738C250.448 3.63315 250.448 3.62891 250.448 3.62468C250.516 3.67994 250.588 3.73582 250.669 3.79264ZM316.454 35.5608C316.759 33.9125 317.243 39.4043 317.128 41.1801C316.989 41.056 316.863 41.0366 316.703 40.7472C317.063 39.3139 316.403 35.835 316.454 35.5608ZM220.134 67.5096C224.475 67.5179 218.825 68.7206 218.592 67.761C218.601 67.7425 220.021 67.5112 220.134 67.5096ZM310.792 66.7866C310.375 67.1524 310.657 67.1604 310.658 67.2278C310.65 67.268 310.374 67.5235 308.641 67.8057C308.426 67.7435 308.214 67.6742 308.009 67.5982C308.977 67.4717 309.92 67.1957 310.792 66.7866ZM248.572 69.0886C254.036 68.8858 259.261 68.5279 255.702 67.5238C255.289 67.556 254.87 67.5872 254.456 67.6195C254.394 68.1094 252.868 67.8419 250.634 67.826C250.316 68.0205 249.077 68.0655 248.845 68.2308C248.396 68.5502 249.819 68.7749 248.572 69.0886ZM17.9018 68.2913C17.9898 68.2077 18.0758 68.1236 18.1637 68.0408C19.0278 67.9464 19.8943 67.8525 20.7583 67.7581C20.6187 67.9186 20.4789 68.0791 20.3392 68.2395C19.5273 68.2569 18.7193 68.2744 17.9073 68.2918C17.9055 68.2916 17.9036 68.2915 17.9018 68.2913ZM299.897 2.55442C299.401 3.47484 301.135 3.30532 304.654 2.84005C303.07 2.74484 301.481 2.64963 299.897 2.55442ZM160.775 68.7156C160.661 68.4541 160.549 68.1934 160.43 67.9319C158.563 68.2043 158.909 68.5038 159.805 68.8499C160.13 68.8052 160.449 68.7603 160.775 68.7156ZM133.87 68.8269C134.645 68.8815 134.249 68.6703 134.33 68.6746C136.291 68.7855 136.567 68.8824 138.973 68.7234C139.268 68.6679 139.558 68.6096 139.853 68.5525C138.741 68.0046 137.933 68.3032 135.579 67.9812C136.004 68.1692 136.426 68.3574 136.85 68.5462C135.542 68.5064 134.238 68.4672 132.93 68.4275C132.774 68.4855 132.619 68.5429 132.464 68.6008C132.929 68.6753 133.409 68.759 133.87 68.8269ZM8.12794 66.8067C7.02832 66.1696 6.05545 65.3125 5.28035 64.3153C5.1463 64.3641 5.01178 64.4132 4.87594 64.4586C5.80443 65.4607 6.9223 66.2652 8.12794 66.8067ZM273.764 2.97384C273.663 3.02171 273.565 3.06987 273.477 3.11885C273.486 3.05915 273.596 3.01255 273.764 2.97384ZM49.3527 2.66526C47.9093 2.57089 45.8294 2.63285 44.2462 2.61301C44.3707 2.95155 48.3946 2.85797 49.8076 3.06319C50.0347 3.00244 49.9628 2.70497 49.3527 2.66526ZM288.569 68.1678C288.207 68.3366 287.845 68.5047 287.488 68.6736C286.614 68.6554 285.737 68.6362 284.858 68.6179C284.832 68.7562 284.806 68.8957 284.78 69.0339C288.655 68.8543 287.762 69.253 289.68 69.6462C289.308 69.1537 288.941 68.6611 288.569 68.1678ZM15.3801 31.049C14.1195 33.55 13.7966 34.5051 14.9174 33.3194C15.3078 32.4069 15.7009 31.4893 16.0913 30.5768C15.8535 30.7356 15.6154 30.8947 15.3801 31.049ZM222.785 2.66135C220.442 2.81634 220.403 2.25968 218.114 2.57054C219.34 2.67318 220.566 2.77696 221.787 2.8796C222.117 2.80703 222.455 2.73393 222.785 2.66135ZM319.061 27.9039C319.254 26.9156 318.334 25.0683 319.013 22.2901C318.811 21.628 318.617 21.213 318.418 20.644C318.634 20.3128 318.853 19.9367 319.068 19.621C319.068 19.6192 319.068 19.6174 319.068 19.6155C318.995 17.0957 318.724 18.7295 318.494 18.6725C318.399 18.6458 318.558 16.7757 318.351 17.3601C317.996 18.3691 318.2 22.1391 317.767 22.1495C317.909 20.8249 317.791 18.2384 317.502 19.0034C317.185 19.8416 317.716 22.2791 317.453 23.8314C318.145 21.607 317.931 26.2012 317.4 26.7238C317.808 29.4195 317.974 26.9418 317.955 24.1788C318.363 25.8655 318.143 23.3827 318.481 22.9739C318.686 24.7132 318.515 30.6821 319.061 27.9039ZM225.816 69.2536C227.68 69.2274 230.59 69.4602 231.866 69.1164C232.609 68.9162 229.691 68.7611 231.703 68.4466C229.888 68.4772 229.474 68.6001 229.784 68.8757C229.37 68.9088 228.951 68.9411 228.538 68.9734C228.346 68.9196 228.15 68.8665 227.959 68.8128C227.741 68.9262 227.523 69.0387 227.311 69.1521C226.871 69.1298 226.427 69.1074 225.987 69.0842C225.936 69.1413 225.848 69.1909 225.816 69.2536ZM155.527 2.67844C156.044 2.67513 156.556 2.67184 157.074 2.6677C157.017 2.60056 156.949 2.53065 156.883 2.46165C156.836 2.40713 156.79 2.35261 156.743 2.29809C157.042 2.49288 159.507 2.81665 160.545 2.60862C161.067 2.50426 159.879 2.13377 162.092 2.0691C160.488 2.08815 159.003 2.13871 157.446 2.17017C157.586 2.06005 157.72 1.94875 157.859 1.83864C157.858 1.83848 157.858 1.83831 157.857 1.83815C157.339 1.81332 156.816 1.7873 156.299 1.76247C156.04 2.06798 155.785 2.37293 155.527 2.67844ZM162.292 69.2327C164.056 69.0166 164.647 68.9043 163.814 68.555C163.812 68.5548 163.81 68.5546 163.808 68.5545C163.151 68.7093 162.494 68.864 161.837 69.0188C161.987 69.09 162.136 69.1614 162.292 69.2327ZM258.566 1.82057C254.815 3.14772 263.262 2.33416 261.654 1.88209C261.582 1.86139 258.918 1.96712 258.566 1.82057ZM294.448 68.6057C293.418 68.6165 292.386 68.6262 291.351 68.637C291.589 68.8001 291.833 68.9626 292.071 69.1257C292.862 68.9527 293.656 68.7788 294.448 68.6057ZM9.00557 41.4536C8.16607 42.2297 6.71588 44.6073 6.41141 45.9902C6.79461 45.3859 7.17798 44.7814 7.56117 44.1771C6.9536 45.3834 6.3573 46.5786 5.74259 47.7928C6.15317 48.0998 6.64678 46.5831 7.90133 44.5799C8.09635 44.2702 9.76942 42.5231 9.73962 41.5877C9.73182 41.3986 8.48184 43.5467 9.06108 41.8956C8.67932 42.5473 8.37108 43.1215 8.01787 43.7417C7.88698 43.7292 7.75621 43.7161 7.62284 43.708C8.08456 42.9547 8.54387 42.2069 9.00557 41.4536ZM236.663 69.2141C239.223 69.2421 239.539 69.0393 240.071 68.6809C238.881 68.7215 237.691 68.7614 236.501 68.802C236.558 68.9391 236.607 69.0762 236.663 69.2141ZM2.93724 63.8205C3.7383 65.2315 3.62654 64.4703 4.03895 64.9568C5.68155 66.6802 6.93727 67.8533 9.20242 68.5817C9.03563 68.5819 8.88156 68.5794 8.71973 68.5729C8.72166 68.5737 8.72359 68.5745 8.72553 68.5752C10.5194 69.3365 11.9922 69.4448 12.9885 69.4482C15.5998 69.4402 14.9835 69.275 12.9885 69.1665C11.5682 69.1107 9.50144 68.7358 7.61469 67.7018C7.5332 67.5319 7.46288 67.3646 7.39153 67.1942C4.79447 65.8756 3.31956 63.4391 2.93724 63.8205ZM291.893 1.77517C291.779 1.70728 292.747 1.27584 290.931 1.47782C289.493 2.10773 291.851 1.79508 292.442 2.03736C291.95 2.0978 291.447 2.1566 290.961 2.21704C293.9 2.39504 294.329 2.24527 293.258 1.78493C293.181 1.75399 292.007 1.84284 291.893 1.77517ZM272.578 1.46463C272.175 2.39275 275.884 1.9754 275.749 1.68728C275.237 1.67579 274.839 1.83294 274.296 1.76345C273.748 1.69391 273.607 1.47712 272.578 1.46463ZM312.281 68.2121C312.392 68.1812 313.68 67.863 313.404 67.6634C311.795 68.0032 309.098 69.149 309.623 69.2546C310.628 69.0055 311.243 68.6834 312.281 68.213C312.281 68.2127 312.281 68.2124 312.281 68.2121ZM16.9106 26.5374C16.8631 26.5703 15.4191 28.8849 15.3782 29.2631C15.3831 29.5959 15.4682 29.8063 15.5129 30.0784C16.0947 28.6863 17.6567 26.0788 16.908 26.5422C16.9088 26.5406 16.9097 26.539 16.9106 26.5374Z" fill="#171717"/>
</svg>
