<svg width="1340" height="269" viewBox="0 0 1340 269" fill="none" xmlns="http://www.w3.org/2000/svg">
<path d="M1310.31 206.144C1282.65 232.822 1263.68 227.028 1237.93 231.86C1181.14 244.263 1106.59 265.532 1048.17 268.161C1034.85 268.786 1021.31 268.901 1007.86 268.547C976.814 267.734 945.735 266.294 915.043 264.827C912.792 264.721 911.373 261.887 910.354 261.836C900.717 261.369 884.63 263.628 875.11 263.055C854.894 261.898 820.155 261.4 801.555 258.221C793.895 256.886 785.619 256.162 782.431 249.539C779.56 249.118 778.179 254.957 777.446 255.252C777.438 255.246 777.429 255.239 777.421 255.233C775.049 256.144 768.977 251.812 767.664 252.024C767.462 252.057 768.838 256.353 765.486 254.953C765.189 254.832 765.374 251.952 762.597 251.815C761.856 251.785 752.791 255.87 750.239 256.033C741.693 256.575 721.037 252.28 710.261 251.886C708.662 251.816 707.794 253.432 706.128 253.386C705.267 253.364 703.935 251.51 703.673 251.509C702.512 251.524 697.788 259.425 699.112 243.453C693.849 244.246 695.468 249.608 695.476 253.047C689.516 253.267 686.566 245.616 685.285 253.513C671.361 252.342 656.389 251.133 642.726 249.889C629.233 248.645 615.419 247.486 601.725 246.393C601.772 247.638 601.819 248.883 601.866 250.127C593.534 244.786 591.124 253.026 586.171 245.655C583.401 247.108 580.628 248.554 577.853 249.994C504.072 242.08 429.953 245.714 355.786 243.504C352.672 243.417 351.669 241.254 346.463 241.119C340.72 240.976 332.968 243.216 325.484 242.974C318.807 242.774 308.825 240.592 301.491 240.122C299.851 240.018 298.745 241.262 298.563 241.25C297.444 241.173 297.158 239.166 296.073 239.086C294.776 238.997 293.391 240.441 291.896 240.314C286.308 239.858 280.386 240.215 279.689 240.163C276.324 239.892 275.37 237.971 275.09 237.945C271.264 237.639 272.893 239.378 271.936 239.259C266.981 238.612 263.028 234.358 256.912 238.237C256.904 236.692 256.897 235.145 256.889 233.597C251.741 232.648 255.569 236.807 254.629 237.532C254.306 237.791 243.19 237.073 242.34 236.986C239.355 236.666 239.033 234.661 238.775 234.63C238.141 234.564 231.048 236.674 227.11 234.874C222.304 232.778 227.166 228.852 225.941 228.084C225.729 227.958 221.014 228.339 220.226 227.095C219.352 225.76 223.465 225.795 223.334 225.231C223.232 224.837 216.078 222.101 217.152 220.257C217.951 218.394 227.534 220.704 229.272 219.822C229.57 219.673 228.683 217.348 228.952 217.26C229.926 216.947 251.278 216.614 252.133 217.021C251.18 218.131 250.229 219.235 249.281 220.333C250.733 220.439 252.189 220.544 253.648 220.65C251.686 221.542 249.8 222.418 247.784 223.298C251.98 232.311 260.045 223.228 259.9 218.603C259.809 216.47 253.5 211.157 258.385 207.887C257.518 207.363 256.653 206.841 255.788 206.32C254.248 207.25 252.712 208.172 251.181 209.088C252.339 209.621 253.5 210.156 254.662 210.694C254.335 211.334 254.009 211.972 253.682 212.608C250.729 213.668 247.835 214.709 244.79 215.751C243.127 215.312 243.237 213.476 242.091 213.141C227.864 208.962 237.461 214.428 228.485 213.756C227.104 212.814 225.726 211.878 224.352 210.948C225.338 214.885 220.967 212.494 216.374 214.266C216.789 212.994 217.205 211.72 217.622 210.441C210.674 211.236 196.069 205.378 200.667 212.069C198.973 211.527 197.286 210.989 195.606 210.456C194.392 211.59 193.183 212.715 191.979 213.833C190.102 213.744 188.235 213.655 186.378 213.566C186.293 212.981 186.208 212.396 186.123 211.811C187.59 211.775 189.064 211.738 190.544 211.7C189.199 209.929 187.858 208.167 186.521 206.416C185.475 206.748 184.432 207.077 183.393 207.405C188.144 208.956 182.525 211.88 181.403 214.225C177.738 215.143 174.719 212.208 173.421 212.107C172.784 212.074 166.304 217.44 168.352 211.648C164.746 212.438 161.249 213.202 157.672 213.96C156.135 213.565 154.607 213.172 153.088 212.782C155.904 210.085 146.306 207.286 152.919 205.965C157.929 204.948 159.383 207.364 161.726 207.272C163.829 207.192 164.724 205.482 167.029 205.32C182.804 204.242 195.488 204.077 210.259 204.401C213.2 204.467 215.766 203.48 217.768 203.536C220.03 203.605 217.507 206.007 220.299 205.354C223.248 204.663 223.631 202.742 224.399 202.678C224.877 202.639 226.617 204.304 228.027 204.262C233.807 204.091 242.236 202.117 243.084 202.094C244.162 202.057 260.647 203.175 261.543 203.456C261.984 203.602 261.906 210.333 264.717 203.081C265.846 202.914 266.976 202.747 268.109 202.579C268.083 203.933 268.057 205.286 268.031 206.639C274.249 201.34 272.171 204.263 278.597 203.693C294.027 202.277 317.176 202.871 333.983 201.996C337.762 201.792 339.018 199.988 343.512 199.747C347.741 199.508 359.056 204.677 355.943 197.258C365.865 203.541 366.22 192.244 371.595 199.184C372.056 198.143 372.516 197.099 372.977 196.054C378.44 200.368 379.587 196.446 385.024 195.767C387.368 195.474 385.106 200.319 389.366 194.886C390.319 195.261 391.272 195.638 392.226 196.015C392.126 197.182 392.026 198.348 391.927 199.514C397.151 198.464 397.558 199.061 396.528 194.705C399.182 195.441 401.815 196.186 404.442 196.938C404.622 195.487 404.802 194.034 404.983 192.58C403.487 189.831 345.712 195.543 337.679 196.976C327.862 194.224 309.09 198.58 301.371 198.098C298.262 197.915 296.665 195.06 292.071 194.889C287.51 194.72 282.168 197.51 279.804 197.677C272.05 198.22 234.18 199.15 259.368 194.739C258.47 193.432 257.573 192.129 256.677 190.831C247.054 195.841 250.523 192.848 241.937 192.803C238.304 192.792 230.212 196.045 229.968 190.209C236.358 188.771 243.873 190.256 249.441 189.905C249.998 189.875 256.422 186.769 260.029 187.331C263.284 187.847 261.779 193.818 267.936 186.894C273.79 193.097 275.994 187.109 277.269 186.396C279.46 185.185 280.091 188.4 282.461 188.671C285.045 188.972 286.549 186.727 286.895 186.694C290.464 186.466 308.381 185.312 309.401 186.634C308.738 187.262 308.077 187.89 307.416 188.515C312.226 189.275 310.863 185.875 312.056 185.405C312.981 185.375 313.907 185.345 314.834 185.315C314.547 186.05 314.26 186.783 313.973 187.516C319.523 187.123 315.049 184.806 322.886 184.517C327.857 184.331 333.327 186.908 333.791 186.685C333.928 186.618 332.149 184.797 334.162 184.456C337.492 183.892 343.366 183.681 344.301 186.26C345.926 185.826 345.518 183.279 345.729 183.211C346.637 182.924 363.015 181.347 365.988 181.067C374.222 180.292 383.27 180.498 392.151 179.705C393.062 179.624 392.645 181.371 393.557 181.281C395.028 181.143 402.307 178.139 403.404 177.9C406.16 177.316 413.652 178.135 414.743 177.293C414.899 177.172 412.242 174.887 415.022 174.036C418.109 173.092 416.702 176.371 416.877 176.395C423.419 177.26 427.278 174.875 431.616 174.275C433.023 174.082 435.862 176.448 437.804 175.655C438.027 175.564 437.37 173.303 437.587 173.183C440.514 171.875 443.722 176.019 445.058 176.256C448.329 176.829 446.31 173.741 446.475 173.714C448.605 173.54 451.596 174.582 454.825 174.331C469.248 173.206 481.082 172.658 496.496 172.504C498.432 172.482 500.897 174.748 501.192 174.745C502.105 174.709 501.645 171.988 504.292 171.988C509.873 172.003 515.045 171.763 520.564 171.711C521.676 171.7 522.323 174.256 523.173 174.298C526.022 174.422 535.244 167.489 535.957 175.924C541.13 168.37 545.285 174.766 549.805 174.66C560.475 174.392 577.297 172.729 587.957 173.734C590.228 173.947 591.395 176.189 592.655 176.313C594.928 176.537 607.689 175.345 608.361 175.71C609.706 176.401 609.302 186.376 615.705 177.746C619.671 177.165 619.348 181.275 620.179 181.508C626.638 183.261 632.52 174.133 631.637 182.578C635.284 181.5 638.261 179.818 640.731 179.389C643.115 178.957 645.083 179.797 646.715 183.834C646.569 179.943 649.962 177.669 654.474 179.235C650.257 185.603 650.567 189.759 640.989 188.523C640.82 188.502 640.648 188.479 640.472 188.454C640.309 188.432 640.539 185.633 640.376 185.61C638.899 185.387 635.865 186.733 633.34 186.528C630.813 186.324 632.152 184.443 631.142 184.46C630.217 184.481 630.335 187.152 628.996 187.163C624.65 187.182 620.807 187.849 618.318 187.854C616.753 187.855 614.892 185.499 613.696 185.483C609.041 185.435 599.194 187.123 593.183 186.819C591.931 186.75 592.337 184.175 589.588 183.944C589.264 183.918 588.231 186.594 585.887 187.131C583.539 187.668 581.628 186.329 580.112 186.598C578.845 186.822 579.501 189.194 576.886 189.325C574.712 189.406 549.796 187.665 548.426 187.322C546.454 186.79 545.331 183.539 544.169 183.942C543.965 184.028 543.806 187.171 543.097 187.398C531.409 191.105 504.767 187.045 491.119 187.308C462.594 187.761 436.453 190.03 407.668 191.371C407.202 191.872 406.735 192.372 406.268 192.871C409.176 192.823 412.087 192.776 415.002 192.731C415.144 194.06 415.286 195.389 415.427 196.719C419.384 196.86 418.573 193.713 418.286 191.812C419.819 192.587 421.353 193.366 422.887 194.149C423.735 189.452 433.707 192.35 438.71 192.262C441.963 192.203 445.682 190.315 447.413 190.422C451.07 190.644 451.227 193.606 451.516 193.648C452.009 193.71 456.846 191.013 460.502 191.052C465.908 191.103 466.864 195.712 473.932 191.693C483.59 193.973 493.963 192.671 504.115 192.184C502.495 196.579 511.315 192.375 515.441 192.416C540.53 192.698 571.503 194.721 596.825 196.987C600.091 197.269 602.661 200.07 604.461 200.015C605.437 199.988 605.727 196.74 607.103 197.196C607.345 197.284 607.64 200.333 610.179 200.847C616.437 202.144 632.073 197.389 636.148 203.452C637.905 203.43 639.659 203.409 641.41 203.39C661.521 203.176 681.375 202.885 701.731 202.522C702.31 203.839 702.891 205.157 703.474 206.475C707.388 199.922 724.181 204.231 732.143 204.105C746.51 203.869 764.616 202.122 776.78 202.112C779.467 202.11 781.739 204.092 784.312 204.099C785.42 204.099 786.73 201.603 787.89 201.609C800.655 201.636 818.363 204.522 831.105 204.648C860.575 204.932 888.179 205.621 917.972 205.725C947.419 205.819 976.729 205.511 1006.06 205.026C1076.72 203.778 1146.73 197.121 1216.92 187.559C1218.26 187.376 1218.26 189.617 1219.3 189.468C1225.35 188.603 1238.86 184.6 1245.74 183.516C1250.97 182.692 1259.98 183.978 1261.76 180.698C1242.17 179.781 1221.67 182.87 1201.43 183.916C1200 183.986 1199.76 181.765 1199.58 181.744C1196.28 181.337 1198.45 184.197 1193.67 184.905C1191.97 185.226 1177.2 179.264 1179.16 186.564C1175.63 184.034 1150.72 184.665 1146.01 186.063C1144.56 186.505 1145.66 188.803 1145.38 188.947C1144.13 189.583 1143.47 186.338 1142.34 186.339C1139.3 186.366 1131.77 189.655 1130.38 189.75C1127.11 189.993 1117.1 187.903 1112.68 188.819C1108.65 189.671 1109.45 193.245 1106.05 193.804C1103.35 194.228 1106.22 190.996 1100.13 190.416C1097.12 190.134 1086.57 192.901 1083.96 193.022C1081.35 193.147 1078.44 191.043 1074.92 191.358C1069.86 191.817 1058.76 193.466 1053.52 194.341C1053.21 194.391 1052.53 197.373 1051.75 197.334C1050.17 197.257 1050.54 193.584 1049.34 193.244C1048.17 192.936 1027.44 193.792 1023.86 193.754C1021.41 193.759 1019.82 195.975 1018.48 195.966C1017.43 195.954 1017.23 192.875 1016.15 192.847C1015.82 192.849 1013.07 195.542 1010.24 195.488C1009.36 195.47 1007.68 195.187 1005.77 194.811C1001.84 194.036 996.932 192.875 996.138 192.858C995.369 192.847 996.273 195.038 994 194.984C991.928 194.929 990.5 192.084 989.322 192.041C986.591 191.946 983.609 194.366 980.713 194.373C972.385 194.389 972.713 190.867 972.21 190.752C970.815 190.431 970.35 193.654 969.897 193.72C967.983 193.986 963.293 194.568 961.582 194.688C959.451 194.837 958.461 191.772 956.193 191.754C954.503 191.751 951.175 194.725 947.328 194.854C938.665 195.163 928.335 195.674 919.793 195.509C917.249 195.462 916.781 192.674 916.002 192.597C911.909 192.191 909.719 195.289 908.555 195.24C900.249 194.904 885.175 189.921 877.527 189.449C874.414 189.262 860.569 191.385 852.874 190.905C851.991 190.855 852.755 188.7 851.783 189.029C849.46 189.818 849.803 194.221 848.611 194.075C848.036 193.991 846.662 191.497 844.941 191.233C836.065 189.864 830.133 191.72 826.167 191.54C787.77 189.816 748.955 188.103 712.914 187.084C708.845 186.975 703.937 189.388 698.024 186.841C697.807 185.531 697.59 184.221 697.374 182.911C697.206 184.191 697.039 185.471 696.871 186.751C689.956 187.317 687.269 188.906 680.402 187.139C679.811 186.989 677.863 181.039 676.984 188.361C669.864 182.902 673.778 188.341 668.592 188.721C663.282 189.101 659.002 187.36 653.535 186.886C652.096 185.555 654.256 183.453 656.974 181.676C659.426 179.9 662.327 178.451 662.702 178.467C663.879 178.511 665.217 182.165 666.38 182.381C669.817 183.027 673.178 180.195 674.073 183.464C678.546 180.104 672.908 181.722 673.384 178.633C676.611 179.966 679.228 181.303 682.236 182.644C683.28 172.077 700.448 186.186 698.866 178.067C700.175 179.711 701.493 181.358 702.82 183.007C708.126 172.901 711.863 180.118 719.559 183.301C718.989 181.98 718.42 180.659 717.852 179.34C717.973 178.796 724.47 176.791 722.283 182.352C728.841 175.072 728.911 187.363 734.875 178.553C738.53 177.459 736.567 182.606 743.073 182.613C746.861 182.62 751.553 179.968 755.906 179.832C756.909 179.81 757.432 182.833 758.328 182.846C759.225 182.857 759.58 179.901 760.669 179.84C762.901 179.707 765.98 181.825 767.279 181.642C768.495 181.487 770.165 178.89 773.124 178.511C783.5 177.169 780.488 180.886 782.173 182.177C784 183.55 785.143 178.614 788.756 179.226C789.119 179.291 788.272 182.37 789.443 182.262C790.37 182.178 790.832 178.824 793.823 178.229C794.968 177.992 814.002 177.453 817.01 177.414C821.484 177.361 831.352 180.318 836.006 180.338C837.789 180.353 839.621 177.64 841.525 177.672C847.929 177.783 857.707 178.088 865.717 178.274C872.948 178.442 885.56 184.598 889.33 179.134C899.343 178.476 901.946 183.184 902.704 183.253C904.775 183.441 905.608 180.332 908.175 180.2C937.548 178.749 975.184 180.252 1005.36 180.438C1009.43 180.463 1013.36 180.455 1017.11 180.405C1090.47 179.326 1163.9 173.998 1237.43 167.53C1237.61 166.541 1237.78 165.555 1237.95 164.57C1228.85 164.761 1219.31 163.813 1210.29 163.991C1199.2 164.165 1181.94 170.175 1173.53 162.67C1176.92 161.814 1182.47 164.518 1182.26 160.502C1176.27 160.514 1170.17 160.498 1163.96 160.456C1164.2 162.382 1164.44 164.307 1164.68 166.229C1158.17 167.141 1151.97 167.053 1145.52 167.646C1144.41 167.748 1145.25 169.531 1144.28 169.59C1143.2 169.652 1143.88 167.756 1143.68 167.751C1140.93 167.861 1140.14 169.792 1139.81 169.782C1138.94 169.749 1139.56 167.917 1137.05 167.521C1132.37 166.767 1129.38 171.764 1130.19 163.623C1128.73 163.676 1127.27 163.729 1125.8 163.78C1125.48 166.012 1125.17 168.248 1124.85 170.487C1115.56 161.814 1111.71 177.945 1106.33 165.371C1104.75 167.375 1103.17 169.39 1101.59 171.415C1100.6 169.158 1099.61 166.893 1098.61 164.62C1098.49 166.597 1098.36 168.575 1098.24 170.554C1089.36 169.386 1079.72 172.043 1071.33 172.025C1065.41 172.005 1063.96 171.23 1058.68 171.486C1046.93 172.041 1058.47 167.8 1048.61 163.539C1049.19 166.049 1049.76 168.556 1050.34 171.061C1048.76 172.008 1047.19 172.955 1045.61 173.903C1044.44 171.866 1043.26 169.825 1042.09 167.78C1037.43 178.522 1033.96 169.934 1033.28 169.934C1032.73 169.955 1031.04 176.435 1024.97 171.009C1027.68 179.825 1020.45 171.093 1019.92 171.039C1019.39 171.007 1012.72 173.011 1009.98 172.931C1008.85 172.9 1007.05 172.367 1005.12 171.876C1003.36 171.427 1001.49 171.015 999.96 171.059C997.124 171.141 997.496 174.147 997.29 174.178C993.801 174.426 995.926 172.092 993.395 171.976C990.866 171.861 988.991 174.421 988.44 174.191C988.163 174.069 988.998 171.271 987.738 171C984.356 170.26 978.342 172.705 974.486 172.627C973.119 172.603 971.33 170.227 969.807 170.153C967.471 170.046 966.47 173.196 965.112 173.1C964.64 173.058 961.492 168.186 957.771 168.928C957.064 169.077 955.264 179.367 952.074 164.777C951.918 166.829 951.762 168.881 951.606 170.933C939.201 175.98 935.283 159.321 930.098 174.078C920.923 172.399 927.027 166.669 925.999 165.784C925.336 165.226 922.408 166.799 922.079 166.708C921.496 166.53 921.543 164.685 920.91 164.694C909.315 165.005 914.568 168.499 910.96 170.692C902.406 175.902 895.259 164.24 910.522 167.786C910.493 166.758 910.464 165.729 910.435 164.701C906.749 165.673 897.199 165.176 900.236 159.978C902.664 155.883 925.195 158.603 912.295 152.815C909.365 151.508 907.982 155.36 902.772 148.125C899.421 147.73 899.203 157.088 894.587 153.324C895.42 156.588 896.254 159.854 897.089 163.12C891.052 167.353 883.338 161.624 878.711 163.433C877.151 164.053 871.813 179.531 872.719 164.035C870.018 164.99 857.237 162.086 854.947 163.462C854.393 163.795 853.89 172.016 845.671 169.098C845.065 168.065 844.46 167.033 843.856 166.001C851.352 163.046 837.884 159.946 841.297 152.175C842.641 155.677 848.663 157.835 849.641 159.602C851.347 162.644 846.629 166.532 852.753 165.496C856.264 152.466 845.344 158.429 846.692 146.064C838.671 151.824 837.683 146.315 835.83 146.086C827.883 145.147 823.093 146.445 815.602 145.001C813.928 147.519 827.337 151.196 828.987 150.11C823.134 159.06 833.647 159.511 837.991 154.187C838.443 156.905 838.897 159.624 839.35 162.344C833.47 160.843 827.801 160.067 822.18 162.26C821.781 161.246 821.383 160.232 820.985 159.218C822.215 157.7 823.448 156.18 824.683 154.659C819.865 152.147 822.984 160.047 816.415 153.114C816.302 156.158 816.188 159.202 816.074 162.246C809.86 161.203 803.712 160.162 797.638 159.125C794.745 165.186 782.799 162.842 784.75 155.019C779.954 154.445 785.969 158.644 781.55 160.527C779.627 161.343 775.862 161.55 774.877 159.441C775.06 152 780.682 151.094 782.267 145.973C781.11 144.327 755.15 149.571 757.142 140.916C754.997 139.874 756.087 144.336 752.327 145.47C742.076 148.606 724.897 139.863 717.063 150.758C727.004 156.881 729.841 150.456 737.663 150.217C742.429 150.068 772.615 149.106 766.046 156.937C767.094 155.945 768.146 154.953 769.201 153.959C770.362 156.303 771.527 158.648 772.694 160.997C769.571 161.314 766.628 161.63 763.4 161.945C762.571 159.611 761.743 157.279 760.917 154.948C760.614 156.608 760.31 158.267 760.007 159.926C758.678 160.248 757.355 160.569 756.037 160.889C756.353 158.898 756.67 156.906 756.988 154.913C754.927 154.562 752.879 154.212 750.845 153.862C751.465 156.525 752.087 159.189 752.709 161.854C743.203 162.455 746.392 160.808 741.046 155.818C737.04 155.287 743.983 160.427 735.459 161.659C725.667 163.081 731.777 155.06 719.392 156.707C719.252 158.018 719.112 159.329 718.972 160.64C716.319 159.307 713.236 157.977 710.424 156.651C710.843 158.28 711.262 159.91 711.682 161.54C705.798 160.867 698.149 163.883 696.153 157.524C701.877 160.627 701.55 149.521 699.998 147.477C696.767 143.29 650.919 147.064 641.929 147.273C641.209 147.293 640.508 147.297 639.822 147.287C629.611 147.146 621.304 144.529 611.765 149.487C616.857 152.488 630.717 151.607 639.954 151.949C643.594 152.09 646.706 152.426 648.114 153.323C648.596 153.621 648.719 163.574 651.47 152.396C661.259 154.36 672.999 151.237 684.71 151.618C684.424 154.526 684.138 157.433 683.853 160.339C676.437 154.11 669.832 167.577 670.475 156.345C668.956 156.335 667.456 156.324 665.974 156.313C666.029 158.245 666.083 160.176 666.138 162.108C663.904 162.085 661.712 162.063 659.564 162.04C659.51 160.115 659.455 158.189 659.401 156.264C657.637 156.25 655.858 156.236 653.876 156.222C653.729 158.136 653.583 160.049 653.438 161.961C650.446 159.922 644.277 161.588 640.246 162.251C636.07 162.899 633.562 162.624 637.431 157.052C634.872 157.033 632.307 157.018 629.735 157.007C629.789 158.394 629.842 159.782 629.896 161.169C628.798 161.349 627.7 161.528 626.6 161.708C626.922 160.456 627.244 159.204 627.567 157.951C622.577 160.168 617.501 153.592 614.306 157.912C616.555 158.851 618.798 159.797 621.035 160.748C616.724 158.943 609.125 162.648 608.443 162.654C606.336 162.672 605.109 159.905 602.811 159.773C600.737 159.661 601.113 161.782 600.724 161.708C589.455 159.588 593.166 148.174 588.566 161.721C587.921 159.881 587.272 158.043 586.632 156.207C585.97 157.752 585.308 159.295 584.647 160.836C581.354 160.72 578.055 160.61 574.749 160.505C575.968 162.778 577.184 165.056 578.397 167.339C573.522 168.39 570.971 163.839 570.486 163.741C569.115 163.491 568.649 166.364 568.23 166.373C548.051 166.369 560.182 163.676 549.471 153.227C546.124 157.481 550.014 161.576 550.773 165.822C545.886 163.906 544.465 165.109 539.406 164.968C538.089 164.928 536.532 162.686 535.7 162.674C534.978 162.663 532.889 165.118 531.175 165.163C528.315 165.239 524.408 163.897 520.483 164.029C517.224 164.146 507.323 166.074 500.366 166.283C497.392 166.365 497.937 164.385 497.169 164.404C496.848 164.414 494.704 166.828 492.797 166.891C477.238 167.388 461.169 166.486 445.515 167.154C434.475 167.622 423.471 169.868 412.38 170.168C410.025 170.231 411.121 168.577 410.089 168.567C409.736 168.569 409.57 171.373 405.837 170.416C404.488 170.073 405.812 168.062 404.514 168.027C403.883 168.01 403.844 170.455 400.236 171.171C393.668 172.474 389.735 169.448 389.153 169.575C388.045 169.814 388.567 171.778 387.084 171.919C379.814 172.613 373.857 173.231 367.325 173.717C364.24 173.943 343.466 175.385 342.239 175.117C339.573 174.504 341.563 170.447 338.263 170.774C337.441 171.819 336.619 172.86 335.799 173.899C337.35 174.568 338.904 175.24 340.459 175.917C336.263 174.873 331.869 176.894 328.878 176.982C328.324 176.993 323.067 175.522 320.517 175.859C321.532 175.078 322.549 174.295 323.566 173.509C323.111 172.916 322.656 172.323 322.201 171.731C317.207 172.971 311.573 173.285 306.262 173.484C304.339 173.559 304.822 172.056 302.878 172.13C291.579 172.587 295.144 178.275 282.908 167.914C286.746 168.645 299.955 166.25 301.932 166.487C303.314 166.639 309.667 175.967 306.623 166.165C317.527 165.441 308.67 171.604 318.732 169.734C318.396 168.518 318.06 167.302 317.724 166.087C321.149 165.073 323.685 164.26 326.068 166.307C326.116 160.237 338.571 162.912 345.146 162.076C354.539 160.86 365.28 158.608 374.662 157.724C377.899 157.42 379.992 159.813 380.399 159.781C380.993 159.728 382.453 157.422 383.645 157.33C388.095 156.964 402.032 159.97 404.79 153.518C378.239 155.146 351.859 156.961 325.296 158.959C328.962 161.538 302.151 163.765 300.803 163.741C299.537 163.714 300.375 161.715 299.989 161.627C297.124 161.026 295.083 163.979 294.208 164.043C293.531 164.094 292.077 162.902 289.642 163.125C289.199 163.164 289.231 164.534 288.755 164.575C285.604 164.819 282.504 165.042 279.37 165.296C279.178 165.297 278.159 163.401 277.369 163.463C276.577 163.528 276.022 165.542 275.824 165.564C273.323 165.745 268.916 164.829 266.564 165.012C265.728 165.081 266.474 166.444 265.535 166.506C262.652 166.703 263.27 163.879 259.809 164.885C258.651 165.223 258.975 167.305 256.677 167.214C255.05 167.149 254.78 163.434 254.51 163.322C254.136 163.197 248.981 166.575 246.906 164.333C250.052 157.648 242.591 164.402 243.314 167.002C241.078 166.518 238.734 166.052 236.458 165.588C235.788 166.321 235.118 167.051 234.45 167.779C225.177 165.589 220.294 167.843 211.311 167.767C210.873 167.759 203.384 167.044 203.62 166.129C207.776 164.174 212.165 163.638 215.366 166.247C219.403 160.294 219.875 164.674 227.214 163.235C229.667 162.746 229.659 161.203 229.942 161.156C239.678 159.44 254.905 157.211 262.11 161.3C263.806 159.867 257.112 159.972 259.58 158.808C261.069 158.147 294.3 153.563 284.243 160.085C285.346 159.836 286.45 159.587 287.556 159.337C288.094 153.974 293.763 154.67 293.73 160.023C294.128 158.898 294.526 157.771 294.924 156.641C295.85 155.635 297.014 155.035 298.696 154.592C305.148 152.844 344.67 151.486 346.65 150.563C346.557 149.219 346.463 147.876 346.37 146.532C328.832 146.52 312.331 151.183 293.089 149.342C293.767 150.467 294.446 151.595 295.125 152.725C287.506 151.749 279.576 150.863 271.928 150.017C279.605 147.15 292.232 144.01 300.727 144.956C302.25 145.125 301.346 146.894 301.71 147.062C302.663 147.499 303.298 144.522 306.489 143.92C309.683 143.312 318.043 144.606 318.74 144.488C320.143 144.237 323.608 140.487 326.041 140.29C329.239 140.041 327.327 142.356 327.973 142.339C330.646 142.299 332.918 141.027 335.021 140.988C338.158 140.919 344.961 144.133 346.516 138.375C344.289 138.325 342.094 138.276 339.848 138.234C351.513 135.076 361.695 141.468 372.875 134.827C374.853 127.632 365.238 129.506 373.152 125.75C371.67 125.995 370.189 126.241 368.71 126.486C368.507 127.969 368.303 129.449 368.1 130.928C365.434 130.136 362.718 129.359 360.034 128.59C360.902 129.795 361.77 131.004 362.638 132.216C353.559 134.054 344.528 136.189 340.658 129.797C340.643 131.442 340.628 133.087 340.613 134.73C331.85 133.627 319.921 141.673 321.328 132.586C320.98 133.097 320.632 133.608 320.284 134.119C314.999 132.861 317.572 136.269 315.708 136.878C315.21 137.038 304.959 136.25 309.116 133.187C299.153 132.312 303.072 140.05 300.436 140.682C293.806 137.366 283.34 144.498 287.332 137.784C286.372 137.656 285.413 137.529 284.456 137.403C281.954 142.597 278.319 137.445 274.823 136.034C273.697 136.058 272.573 136.083 271.451 136.109C270.896 137.804 270.341 139.495 269.788 141.18C258.54 134.837 264.176 155.034 257.335 138.341C257.963 137.22 258.593 136.095 259.223 134.967C260.943 134.251 262.708 133.529 264.376 132.813C257.171 133.265 249.897 133.753 242.796 134.256C233.296 130.778 228.519 136.566 218.171 134.348C217.296 134.915 216.423 135.48 215.552 136.043C216.025 132.25 219.734 132.23 212.765 131.606C211.888 129.117 216.384 128.066 218.697 129.751C219.257 130.167 215.261 132.788 220.042 132.153C223.309 131.724 216.976 129.46 226.923 129.166C226.479 128.576 226.036 127.986 225.592 127.397C226.659 127.255 227.729 127.112 228.8 126.97C229.936 128.324 231.073 129.685 232.213 131.052C234.377 128.535 235.498 125.25 241.033 125.086C239.657 126.262 242.049 129.024 244.78 128.589C244.646 127.479 244.512 126.37 244.378 125.261C250.933 123.569 249.03 127.192 254.286 123.822C254.951 124.637 255.616 125.454 256.282 126.273C258.948 122.156 269.666 117.979 268.317 123.914C270.773 118.001 277.626 119.514 280.598 123.656C280.653 122.472 280.708 121.287 280.764 120.102C282.044 119.687 283.326 119.271 284.611 118.854C285.421 119.459 286.247 120.064 287.043 120.675C287.873 119.845 288.704 119.012 289.537 118.177C290.222 119.279 290.908 120.383 291.594 121.49C292.903 119.882 294.216 118.265 295.532 116.641C296.542 117.465 297.553 118.293 298.565 119.124C298.372 116.633 307.31 114.854 310.032 116.181C310.704 115.349 311.384 114.516 312.049 113.682C312.543 114.837 313.038 115.994 313.533 117.152C313.979 116.117 314.425 115.08 314.872 114.041C316.251 114.839 317.632 115.642 319.015 116.45C323.58 109.821 324.324 115.027 325.513 114.846C327.715 114.505 334.89 109.76 336.187 109.787C337.479 109.821 338.321 111.928 339.351 112.009C356.411 113.417 348.948 108.341 352.207 106.975C353.973 106.233 355.475 108.15 357.063 107.725C359.806 107.006 373.369 102.539 374.197 102.714C375.398 102.975 373.652 113.291 377.173 110.289C376.764 104.889 385.394 109.411 380.873 102.304C384.273 102.572 387.68 102.851 391.093 103.14C390.101 96.7085 394.588 100.391 399.026 99.5265C405.301 98.3076 419.268 92.3313 419.35 99.2237C420.727 97.4934 422.105 95.7573 423.486 94.0156C434.078 95.0472 444.16 91.7095 454.503 90.5765C485.276 87.2122 518.89 85.9156 549.87 85.3945C551.356 85.3705 551.286 87.8557 552.354 87.8428C557.946 87.7572 572.536 85.1245 580.402 85.2691C582.927 85.3107 584.266 87.7084 585.081 87.7819C587.831 88.0474 587.034 84.8337 588.297 84.8638C590.295 84.9042 600.897 87.4478 604.493 87.6304C606.277 87.7162 608.276 85.0218 610.386 85.745C610.567 85.8035 610.342 88.5089 610.495 88.5501C614.321 88.7368 611.94 86.4931 613.239 86.5669C621.227 87.0226 629.619 86.8999 638.118 87.0638C639.392 87.0905 640.694 87.1237 642.02 87.1671C644.364 87.2465 648.153 89.0862 650.323 89.2192C651.151 89.2643 649.6 87.2152 652.475 87.3192C653.45 87.3545 653.937 90.0612 654.971 90.2127C659.363 90.8534 660.634 82.0555 664.782 89.0091C672.863 88.3714 685.253 85.8012 692.689 85.5947C694.327 85.5494 695.107 87.1643 696.639 87.1018C697.72 87.059 699.564 84.4834 701.281 84.4135C702.997 84.3448 705.79 86.7034 709.176 86.5469C712.773 86.3861 717.13 84.8544 717.856 84.8464C718.789 84.8264 719.312 87.8883 720.249 87.8313C723.064 87.6784 730.705 84.5013 734.51 84.0984C738.644 83.6717 740.95 85.1262 742.306 85.0712C743.547 85.0067 744.929 82.3642 745.5 82.3296C746.389 82.2722 746.685 85.3259 747.818 85.28C749.671 85.1967 751.535 83.236 754.35 83.1331C804.871 81.2502 854.081 82.3163 903.248 84.2894C908.696 84.5109 911.709 82.2653 919.793 83.2319C923.073 83.6272 921.789 86.9116 924.317 86.2783C925.444 85.9924 925.084 83.4164 926.516 83.2838C932.864 82.7093 940.262 85.0738 943.012 85.0218C944.099 85.0051 945.259 82.0677 947.488 82.016C964.13 81.6156 983.767 82.3977 1001.69 81.888C1001.98 81.8798 1002.28 81.8703 1002.57 81.8598C1012.02 81.5164 1025.8 80.2456 1036.35 80.3081C1066.47 80.4247 1098.59 82.8877 1126.24 84.9255C1167.42 87.8563 1209.35 91.315 1250.4 100.512C1231.09 92.4977 1204.7 88.2921 1182.87 84.8545C1124.48 74.9593 1062.25 73.855 1002.36 74.2978C998.482 74.3175 994.605 74.3256 990.733 74.3198C968.603 74.2862 940.696 74.5507 916.375 73.0911C915.273 73.0266 913.059 75.2919 910.68 75.0713C910.173 75.0185 903.816 70.9692 901.719 70.9476C903.937 78.2116 895.448 71.7922 892.894 71.9944C889.669 72.2544 883.043 75.9462 875.495 73.9739C868.659 72.1929 870.403 69.387 870.036 69.2155C867.565 68.1148 866.843 72.6161 864.993 73.0908C857.412 74.969 818.536 72.9011 807.557 72.945C804.73 72.951 804.575 70.1358 803.939 70.1368C802.259 70.1483 799.953 72.9702 797.285 72.9979C792.481 73.0409 786.914 70.4975 784.16 70.5406C777.598 70.6365 765.992 73.9878 757.489 74.2184C755.129 74.2849 755.195 71.3918 754.132 71.4251C749.349 71.5805 737.826 75.2447 731.754 75.4036C722.265 75.6639 712.878 74.0573 703.187 75.2379C702.549 73.9875 701.913 72.738 701.279 71.4896C700.373 72.8428 699.471 74.1947 698.574 75.5451C682.462 74.9604 666.031 78.2388 650.167 78.5158C648.179 78.5467 639.182 76.4738 637.819 76.5062C637.816 76.5063 637.812 76.5063 637.809 76.5064C636.521 76.5472 635.343 79.6286 633.42 79.2406C630.723 78.7066 633.07 72.8375 628.734 74.6472C627.568 75.1364 628.791 77.5667 626.447 78.4198C625.689 78.6929 610.453 80.2804 609.651 80.1567C608.29 79.9278 606.874 74.7457 606.519 74.6503C604.676 74.1459 604.916 78.1566 603.712 78.5782C600.161 79.8355 595.331 77.3783 594.745 77.4696C587.646 78.5685 574.625 82.4466 567.114 81.0444C566.075 80.8482 566.041 77.9183 565.856 77.8347C564.66 77.3039 564.116 80.6744 563.014 80.82C557.053 81.5636 547.677 79.9647 541.668 79.8453C540.977 79.8345 539.622 81.5144 538.387 81.451C531.394 81.0777 533.484 78.4029 533.084 78.3225C532.131 78.1286 530.66 81.0259 528.183 81.3873C521.832 82.3306 509.555 82.9316 502.689 83.3193C497.548 83.595 497.407 80.4966 497.065 80.4647C496.338 80.4196 494.522 83.0691 491.172 83.6522C484.728 84.7905 485.286 82.3151 482.628 82.671C482.404 82.6922 482.972 85.0106 480.035 85.529C474.364 86.5174 461.359 85.4881 455.273 86.2503C452.931 86.536 452.566 88.8084 450.171 89.0965C446.384 89.5546 437.576 88.0987 436.902 88.1849C436.712 88.2058 436.503 90.7663 435.387 90.8854C434.16 91.0161 432.841 89.8568 431.927 89.9657C426.718 90.5765 418.168 95.8994 419.858 86.779C418.392 89.1572 416.921 91.5268 415.446 93.888C404.462 94.6877 394.088 96.7869 383.293 98.5185C380.876 98.9053 378.696 97.5439 376.661 97.8768C374.621 98.2133 365.906 101.97 364.421 102.203C361.721 102.618 346.47 104.835 344.582 104.903C340.85 105.028 336.964 102.15 335.492 103.015C334.332 103.706 335.655 105.441 333.394 106.282C329.478 107.727 322.449 106.247 321.241 106.458C320.726 106.544 321.847 107.857 317.014 108.623C314.413 109.039 312.845 107.656 311.903 107.797C311.608 107.847 312.345 110.336 307.078 110.714C303.446 110.971 301.702 109.244 301.324 109.291C300.758 109.36 299.624 111.624 297.354 111.87C292.052 112.426 282.168 111.496 277.065 112.091C276.088 112.202 276.694 114.578 272.796 114.927C270.011 115.177 270.273 113.193 269.23 113.273C267.58 113.407 265.415 116.107 261.821 116.571C257.123 117.108 223.04 120.124 221.215 119.893C219.994 119.693 218.636 119.895 217.939 119.03C218.319 118.024 218.7 117.016 219.081 116.005C224.637 118.376 222.1 115.013 223.441 114.534C225.377 113.845 233 113.04 234.751 111.887C235.356 111.47 233.672 109.704 236.968 108.057C240.519 106.283 242.615 109.647 243.493 104.399C249.438 109.038 253.854 102.233 247.508 101.728C243.977 101.39 210.321 105.706 203.315 106.835C197.648 107.701 187.722 111.091 180.676 112.124C176.589 112.721 166.845 114.481 166.963 112.063C163.389 112.51 167.454 114.051 166.747 114.532C165.242 115.519 153.832 116.236 151.813 116.746C141.614 119.241 129.049 124.38 118.424 123.905C118.815 123.234 119.206 122.562 119.599 121.887C121.819 120.312 132.347 119.537 133.139 116.463C118.032 119.872 102.456 123.433 87.47 127.028C87.8554 129.155 69.3189 133.5 68.0592 132.834C68.2489 131.756 68.4393 130.675 68.6306 129.591C80.0862 130.783 77.9873 125.955 85.7384 126.946C88.7386 126.279 87.5908 124.759 89.0333 124.073C102.563 117.313 89.6622 127.625 100.361 123.452C96.5807 121.67 105.852 118.509 109.56 117.226C110.383 116.932 122.552 114.736 124.083 114.355C131.803 112.26 145.771 107.423 153.761 107.212C160.033 105.985 163.518 103.078 168.98 101.3C173.227 99.9441 172.197 101.729 174.234 101.292C178.526 100.39 179.356 95.4006 182.98 101.295C185.861 99.844 188.624 98.3958 191.394 96.9382C191.526 97.9648 191.657 98.9914 191.788 100.018C193.599 99.6289 195.418 99.2404 197.247 98.8525C197.653 97.7058 198.061 96.5562 198.469 95.4039C204.48 95.5675 202.37 98.6159 203.835 101.349C205.128 101.296 206.425 101.244 207.726 101.193C208.418 98.7067 209.149 96.2056 209.809 93.7011C215.352 92.7071 220.969 91.725 226.655 90.7556C227.154 91.7638 227.654 92.7739 228.154 93.7859C228.032 92.6983 227.911 91.6107 227.79 90.523C237.396 88.3316 246.649 86.2035 256.335 84.0679C258.667 81.7279 243.107 83.4714 241.98 83.6173C235.597 84.3497 218.588 89.7095 218.144 85.9072C214.558 89.6199 202.449 91.4866 198.269 89.0464C203.969 87.9581 209.762 86.8816 215.353 85.8452C215.013 84.6118 214.673 83.3795 214.333 82.1484C221.996 85.6962 222.999 85.2808 229.743 78.6968C229.963 80.4435 230.183 82.1902 230.404 83.937C234.733 76.7188 244.866 85.2754 244.23 77.5777C247.007 77.6205 249.799 77.6728 252.604 77.7348C258.396 75.5728 248.546 71.4518 271.677 69.0009C273.281 68.839 273.184 70.9422 275.557 70.3154C276.231 70.1388 279.891 66.3383 287.348 65.1178C288.52 64.9292 288.812 66.7133 290.05 66.6993C292.906 66.686 298.116 61.976 296.224 68.3431C307.588 67.9029 302.43 63.9549 305.695 61.3349C307.85 59.5928 307.767 63.2044 309.661 62.0187C312.011 60.5509 309.794 57.3229 319.852 57.0384C318.768 57.499 317.686 57.9592 316.605 58.419C317.267 59.2855 317.93 60.1541 318.593 61.0248C323.986 57.5945 323.827 61.1493 325.908 55.1007C330.308 56.7787 333.882 56.32 339.426 54.819C350.244 51.927 344.001 46.7662 357.383 52.7997C359.315 51.2685 361.184 49.7363 363.09 48.1961C366.656 50.0793 364.277 53.6518 369.299 53.4251C364.804 47.9556 375.502 48.3778 376.751 42.538C377.065 43.8219 377.38 45.1066 377.695 46.392C378.809 46.199 379.924 46.0066 381.04 45.8148C380.94 44.7536 380.841 43.6925 380.742 42.6314C382.306 43.1654 383.87 43.7041 385.436 44.2474C386.448 43.0005 387.455 41.7511 388.466 40.4986C390.506 42.4162 392.547 44.3476 394.589 46.2926C395.753 46.2567 396.917 46.2219 398.082 46.1884C397.568 44.6422 397.054 43.0978 396.539 41.5551C398.069 41.8428 399.599 42.1338 401.131 42.4283C399.163 40.0721 399.954 36.7965 404.584 36.0947C408.408 35.5211 404.61 41.7782 412.616 38.1292C413.177 37.8726 413.815 33.7247 421.509 31.8331C430.747 29.5773 426.484 33.2325 428.151 33.067C428.478 33.0329 431.147 30.548 433.792 29.8324C435.292 29.4256 436.893 30.8488 437.093 30.8139C438.022 30.5936 438.096 28.2115 439.386 27.9235C442.656 27.205 447.161 27.6781 450.375 27.0741C451.836 26.8018 453.101 25.1904 453.754 25.074C454.768 24.9035 456.231 26.8591 457.257 26.6994C461.041 26.1054 466.246 18.0555 468.794 27.807C471.726 18.066 480.247 28.1602 479.213 22.0312C489.13 23.0138 514.8 11.838 514.753 22.6834C519.703 12.8262 519.65 19.5325 521.969 19.1208C524.566 18.6582 523.093 17.0292 525.181 16.8619C530.055 16.4722 534.747 16.711 539.585 16.2073C538.915 17.7868 538.247 19.3645 537.579 20.9404C542.679 20.8658 540.724 17.576 545.86 16.3385C555.307 14.0851 551.452 17.3156 553.084 21.1171C552.49 17.3391 563.82 16.7845 564.992 17.1878C565.693 17.4318 562.957 22.6644 569.772 20.4175C569.316 18.9251 568.86 17.4337 568.403 15.9435C571.662 17.7263 580.047 14.2815 581.545 14.668C582.234 14.8391 586.394 26.9699 589.225 16.8471C589.69 18.3584 590.156 19.8709 590.62 21.3845C594.176 19.2297 597.733 17.0734 601.292 14.9164C601.987 17.6717 602.681 20.4298 603.373 23.1907C604.523 23.1056 605.673 23.0215 606.822 22.9383C605.961 20.4997 605.099 18.0645 604.234 15.6328C611.369 16.2141 620.103 11.6428 621.845 20.0246C623.327 18.3535 624.811 16.6806 626.296 15.0061C627.386 17.7674 628.472 20.5336 629.555 23.3047C633.005 22.7508 634.779 22.0184 636.249 21.0247C637.632 19.9856 638.717 18.6621 640.985 16.9688C640.871 19.2017 640.757 21.4339 640.643 23.6656C643.745 20.3534 650.492 17.0711 655.168 16.3901C657.412 16.0701 661.51 18.9328 662.067 18.6235C662.6 18.3051 667.89 5.81297 668.833 16.327C676.804 11.1997 680.329 15.79 683.701 15.5047C685.869 15.3141 686.794 12.7114 689.287 12.319C692.857 11.7541 696.115 12.8118 698.127 12.5342C699.253 12.3682 699.395 9.85545 700.175 9.73597C703.883 9.16208 701.764 11.8327 705.721 11.4687C706.087 11.4225 708.906 8.21594 712.262 8.44733C714.078 8.5727 718.712 11.8022 719.135 11.7761C720.948 11.6333 719.271 4.77273 725.752 12.4801C725.533 11.1709 725.313 9.86193 725.094 8.55323C732.781 4.83971 734.261 10.6732 735.868 11.013C736.109 11.038 737.849 8.67368 738.972 8.93707C740.854 9.38899 741.703 12.4822 742.122 12.6019C743.596 13.0179 748.528 11.425 751.915 14.324C750.919 5.43406 762.593 1.74181 765.244 11.7961C767.187 9.71468 769.141 7.63057 771.105 5.54394C772.067 7.18197 773.031 8.82159 773.996 10.4628C774.508 8.77159 775.02 7.07967 775.532 5.38704C778.603 8.95118 781.696 12.527 784.809 16.1141C784.896 12.413 784.983 8.71148 785.07 5.00933C785.92 5.3987 786.8 5.78855 787.611 6.17885C788.329 9.09344 789.049 12.0097 789.77 14.9276C790.774 14.3315 791.781 13.7352 792.79 13.1386C792.984 11.0008 793.177 8.86253 793.371 6.72386C798.838 4.06533 796.525 24.517 806.677 6.26832C808.388 7.89857 810.104 9.5316 811.825 11.1673C813.524 2.89783 817.065 7.75823 819.845 6.74989C821.798 6.03689 821.596 2.77077 824.289 2.61443C826.987 2.45968 826.982 5.59347 827.193 5.60751C829.404 5.73533 830.995 2.92481 832.638 3.42797C832.886 3.50261 833.604 7.20656 835.689 7.38589C837.773 7.56475 838.93 3.56701 842.043 4.23024C843.612 4.5664 844.152 7.69719 845.546 7.93924C852.187 9.13082 858.448 -7.00527 864.007 11.8231C865.079 9.3998 873.041 0.805252 876.509 1.21254C881.946 1.86963 879.966 5.64153 882.141 6.2802C882.455 6.37753 884.069 5.08387 888.643 5.22357C889.462 5.24921 889.213 3.14607 889.329 3.1159C894.678 3.05298 905.041 4.54042 910.874 4.75524C911.397 4.77972 913.957 -1.15611 918.817 6.70615C925.542 0.748421 938.793 13.1967 947.598 4.27682C948.848 4.07849 950.432 6.17902 950.985 6.10251C955.755 5.41155 953.822 -1.00312 964.906 8.32853C963.937 5.05916 966.385 2.08648 969.967 2.31681C975.352 2.66468 971.708 8.79159 976.012 8.27377C975.963 6.54929 975.915 4.82481 975.866 3.10032C985.928 7.70198 987.692 0.323099 997.684 0.272796C998.482 0.270127 999.371 0.457155 1000.28 0.74987C1003.45 1.77183 1006.87 4.11826 1007.53 4.13423C1007.86 4.12332 1011.66 0.0234758 1012.03 0.00274738C1014.14 -0.081966 1015.38 1.86141 1017.19 1.91864C1023.26 2.10322 1030.3 -2.94502 1029.28 6.77408C1030.88 4.78157 1032.47 2.79853 1034.07 0.825843C1040.62 11.5617 1044.86 -2.42937 1046.45 7.7404C1047.53 5.73879 1048.6 3.74362 1049.67 1.7553C1076.54 4.88592 1103.68 9.66483 1130.47 15.9764C1131.5 13.1896 1143.4 16.7548 1144 17.3572C1146.82 20.0142 1144.09 25.6796 1149.66 25.454C1150.21 22.8454 1150.75 20.2475 1151.29 17.6602C1158.28 18.465 1154.93 20.3616 1157.82 22.8569C1159.01 22.8036 1158.56 20.6203 1160.17 20.8593C1168.96 22.0937 1186.37 26.8601 1195.95 29.6257C1197.84 30.1727 1197.6 31.8669 1198.19 32.0493C1199.8 32.517 1202.89 31.2822 1206.06 32.3362C1226.49 38.7188 1255.07 50.6044 1275.48 60.526C1276.88 61.1981 1277.09 62.8318 1278.03 63.2894C1279.32 63.9117 1282.11 63.874 1283.4 64.5838C1284.65 65.2435 1285.34 66.7243 1286.87 67.4286C1293.64 70.6071 1301.42 72.6252 1308.54 78.5226C1309.08 79.0707 1316.06 87.0895 1316.43 87.4188C1317.36 89.6219 1311.31 90.4711 1321.55 96.8517C1312.56 95.9877 1315.49 101.678 1327.48 106.966C1324.11 106.352 1321.58 105.769 1318.56 105.216C1317.05 104.94 1315.45 104.671 1313.8 104.41C1312.46 104.148 1311.06 103.895 1309.62 103.649C1309.63 104.185 1309.63 104.723 1309.64 105.26C1310.98 106.267 1312.27 107.145 1313.55 107.931C1314.94 108.717 1316.65 109.411 1318.19 110.047C1321.32 111.319 1324.42 112.362 1328.8 113.443C1328.56 113.812 1328.32 114.183 1328.08 114.557C1320.59 115.115 1312.03 113.828 1306.65 116.375C1314.61 120.294 1322.69 123.831 1331 126.934C1330.66 127.218 1330.31 127.505 1329.95 127.796C1325.91 128.228 1317.92 127.952 1314.21 128.606C1308.52 129.867 1311.11 130.822 1314.56 131.536C1318.86 132.271 1323.32 132.848 1321.56 133.756C1308.46 133.005 1295.65 132.273 1282.62 131.563C1282.13 133.865 1332.03 139.923 1331.65 143.415C1329.94 143.615 1327.9 143.822 1325.56 144.036C1323.46 144.25 1321.81 144.472 1319.69 144.7C1321.57 145.805 1323.31 146.86 1324.92 147.862C1324.49 148.249 1324.06 148.64 1323.61 149.036C1316.91 150.423 1310.37 151.944 1303.01 153.586C1323.89 150.675 1334.13 150.913 1338.65 157.793C1338.66 157.942 1338.5 158.091 1338.2 158.242C1338.04 158.317 1337.85 158.393 1337.62 158.468C1337.4 158.544 1337.06 158.62 1337.03 158.696C1332.76 154.607 1311.51 158.83 1300.08 161.87C1301.88 163.482 1312.77 160.516 1314.38 161.264C1314.93 161.468 1313.05 163.044 1314.34 163.437C1315.88 163.943 1321.51 163.985 1324.92 164.068C1329.43 164.163 1332.32 164.301 1331.34 165.422C1329.61 166.806 1305.49 174.445 1300.46 175.406C1312.25 175.314 1322.83 172.984 1334.92 171.997C1328.11 177.399 1321.17 184.213 1308.7 189.008C1304.81 192.809 1332.49 185.138 1332.84 185.535C1330.91 187.052 1328.21 188.593 1325.72 190.155C1323.64 191.718 1321.33 193.303 1318.8 194.908C1323.12 192.87 1326.57 190.826 1330.92 188.781C1330.94 189.129 1330.96 189.477 1330.98 189.825C1320.59 196.053 1311.09 203.985 1299.26 209.056C1299.68 211.286 1306.64 207.759 1310.31 206.144ZM148.239 102.544C147.72 100.522 152.062 99.8085 154.527 99.259C154.107 98.9639 153.688 98.6697 153.269 98.3762C158.558 97.4881 168.495 96.0037 168.234 91.7125C171.855 90.2809 170.706 94.3527 171.954 94.485C172.441 94.5489 177.013 91.2233 181.309 92.9497C182.246 92.7225 183.186 92.4953 184.128 92.2683C184.128 90.8096 184.128 89.3496 184.128 87.8882C185.695 89.2955 187.134 90.7282 188.642 92.1663C175.058 95.5737 161.682 99.0238 148.258 102.54C148.252 102.541 148.245 102.543 148.239 102.544ZM283.025 70.9253C288.038 70.8639 295.813 70.8859 293.765 66.6062C290.655 67.4698 287.558 68.3342 284.475 69.1992C283.991 69.7755 283.508 70.3508 283.025 70.9253ZM784.389 22.1389C788.873 28.3321 792.323 22.7375 798.807 23.6851C798.761 22.3438 798.714 21.0026 798.668 19.6613C796.091 22.9627 789.294 21.0387 784.389 22.1389ZM28.5561 144.191C27.6318 144.205 26.7272 144.219 25.8425 144.233C28.8888 140.323 29.9176 142.258 34.2015 140.903C34.4317 140.824 34.2439 140.141 34.3246 140.115C35.2651 139.818 36.2882 140.437 37.1729 140.198C38.8883 139.737 40.1574 138.507 43.4048 137.735C45.9681 137.136 46.1226 138.537 46.9375 138.295C47.5673 138.115 54.0478 132.416 59.1252 132.935C68.4162 134.092 31.4349 143.75 28.5561 144.191ZM2.16556 148.494C2.61258 148.371 3.22359 148.225 3.68895 148.1C4.04231 147.989 4.41796 147.875 4.81622 147.759C3.81712 149.029 4.39834 149.269 5.84975 149.052C6.58627 148.942 7.58954 148.71 8.77381 148.425C9.63285 148.182 10.6057 147.894 11.5573 147.637C11.89 149.499 3.35202 150.819 0.00529977 152.28C-0.0274432 151.996 0.107002 151.688 0.404487 151.357C0.533663 151.195 0.807917 151.013 0.91337 150.853C0.973831 150.7 1.03906 150.546 1.10883 150.391C1.38792 149.77 1.7405 149.138 2.16556 148.494ZM112.644 126.532C109.328 127.515 109.476 124.386 109.486 123.456C110.544 123.212 111.608 122.968 112.679 122.723C112.667 123.994 112.656 125.264 112.644 126.532ZM87.2246 133.212C88.1713 131.023 95.1638 128.502 98.6786 127.537C98.8333 127.503 98.0182 128.814 100.494 128.154C101.211 127.972 108.158 122.237 107.154 127.21C100.234 129.247 93.9871 131.203 87.2348 133.209C87.2316 133.21 87.228 133.211 87.2246 133.212ZM79.5563 133.768C80.8429 132.854 82.1442 131.934 83.4601 131.006C84.3151 131.741 85.1745 132.482 86.0381 133.226C84.4562 133.814 82.8934 134.399 81.3501 134.979C80.7498 134.573 80.1519 134.169 79.5563 133.768ZM1147.21 61.2038C1146.83 59.3586 1146.45 57.5103 1146.07 55.6589C1144.76 54.3287 1138.72 61.3397 1140.75 63.1577C1142.91 62.4884 1145.07 61.8369 1147.21 61.2038ZM1173.66 68.9364C1174.97 70.0066 1176.28 71.0714 1177.59 72.1308C1178.98 69.5087 1180.36 66.9198 1181.74 64.3653C1175.36 61.2544 1168.36 57.7291 1169.72 66.5304C1168.23 66.2884 1166.74 66.0496 1165.24 65.8139C1166.4 62.4277 1166.21 61.2401 1162.2 58.2867C1161.48 63.1647 1157.3 59.9461 1152.85 60.352C1156.14 61.1652 1159.48 61.9897 1162.91 62.8249C1162.93 63.709 1162.96 64.593 1162.98 65.4771C1155.39 64.0204 1165 71.0129 1169.75 68.2903C1170.16 69.5114 1170.58 70.7298 1170.99 71.9454C1171.88 70.9341 1172.77 69.931 1173.66 68.9364ZM637.416 60.0459C638.301 60.9633 639.198 61.8822 640.104 62.8025C642.027 54.9558 640.126 56.7031 637.262 56.7979C635.368 56.8551 633.055 56.3103 630.942 52.7115C632.923 60.0826 624.828 60.118 624.378 60.6409C625.393 63.0972 626.405 65.5576 627.414 68.0221C630.726 65.3852 634.04 62.7439 637.355 60.0988C637.375 60.0812 637.395 60.0635 637.416 60.0459ZM663.447 67.7246C660.007 61.5671 675.974 60.6205 681.02 61.8408C682.297 62.1395 684.686 65.5414 685.61 65.0742C686.141 63.7715 686.673 62.4679 687.207 61.1634C688.125 65.5866 698.096 60.263 702.03 57.7195C702.455 59.3358 702.881 60.9529 703.308 62.5707C704.762 61.8784 706.227 61.1855 707.703 60.4917C707.561 62.1239 707.419 63.7559 707.278 65.3874C708.351 63.3991 709.43 61.4085 710.515 59.4155C714.917 57.1 712.523 66.0683 715.654 63.1991C719.105 60.0081 713.204 54.8916 713.11 51.449C710.057 52.4378 703.291 54.6467 700.333 54.8463C698.64 54.9556 700.335 48.7598 693.301 56.061C691.737 54.4772 689.868 52.8971 688.177 51.3208C685.176 54.0331 682.23 56.7372 679.344 59.4327C678.728 57.1977 678.114 54.9643 677.502 52.7326C677.136 52.3949 670.683 57.7605 670.941 59.4307C667.881 55.2368 661.931 54.6987 656.1 54.7237C655.573 55.9599 655.048 57.1951 654.527 58.4294C660.085 55.5853 656.354 59.6415 658.109 61.9004C659.122 63.2031 662.246 65.7309 663.447 67.7246ZM1106.2 61.0486C1116.03 56.5562 1110.01 60.4519 1120.71 61.618C1119.88 58.6656 1119.06 55.7047 1118.23 52.7356C1113.13 57.3509 1104.26 52.9277 1106.19 61.0476C1106.19 61.048 1106.19 61.0483 1106.2 61.0486ZM1210.77 68.6143C1204.96 68.8175 1208.02 73.1023 1200.96 72.9145C1200.96 72.9138 1200.96 72.9132 1200.95 72.9125C1204.61 73.8941 1208.25 74.8869 1212.12 75.8902C1211.67 73.4728 1211.22 71.0475 1210.77 68.6143ZM880.438 50.1694C875.014 48.905 876.145 51.2867 871.134 46.572C863.932 52.49 870.143 51.5733 870.293 56.8464C871.95 55.2774 873.533 53.7075 875.156 52.1369C879.321 57.0158 875.573 59.5521 875.587 60.0252C875.59 60.0251 875.594 60.0251 875.597 60.0251C875.642 61.6088 875.52 61.9434 877.092 62.8821C878.206 58.6467 879.322 54.4091 880.438 50.1694ZM857.465 57.0134C859.222 53.4933 859.924 48.9894 854.991 46.8343C854.988 46.8343 854.985 46.8344 854.981 46.8344C854.81 54.6434 849.974 48.4243 847.876 48.9872C847.345 49.844 846.815 50.7006 846.285 51.5569C849.995 53.3695 853.722 55.1885 857.465 57.0134ZM776.114 65.6329C775.854 57.1781 779.924 56.2628 773.945 48.6195C772.834 48.8007 771.727 48.982 770.622 49.1633C769.946 51.037 769.272 52.9096 768.599 54.781C754.068 39.9191 750.71 65.96 774.144 55.6524C774.148 55.6465 774.151 55.6406 774.154 55.6347C774.806 58.9657 775.46 62.2985 776.114 65.6329ZM801.069 64.4014C801.122 59.9268 801.175 55.4516 801.229 50.9758C804.664 61.6982 808.425 51.3063 814.875 58.814C815.41 57.4391 815.903 56.0637 816.416 54.6878C818.695 57.6351 841.295 58.106 836.217 51.2584C833.982 48.2708 829.446 52.4714 829.046 52.3861C827.683 52.072 825.81 48.242 823.543 48.5143C822.233 48.6776 819.597 53.2716 816.935 53.3174C810.899 53.404 799.402 41.546 791.939 53.195C791.337 51.8637 790.737 50.5331 790.137 49.2032C784.326 50.1705 786.327 54.3688 780.676 49.4397C777.54 70.6533 802.635 47.8742 797.758 65.1871C797.761 65.187 797.765 65.1869 797.768 65.1869C798.866 64.9251 799.966 64.6632 801.069 64.4014ZM962.91 56.0004C963.376 59.9068 970.032 53.8509 968.693 63.2234C970.828 59.9546 972.964 56.6856 975.098 53.4168C975.057 52.5456 975.015 51.6745 974.973 50.8033C972.779 51.4949 970.585 52.187 968.39 52.8798C968.342 51.4983 968.294 50.1168 968.247 48.7353C965.09 53.7427 951.252 51.6317 951.533 46.7438C950.856 48.8126 950.178 50.8813 949.501 52.9497C942.755 47.3684 937.26 53.379 929.95 47.9576C929.443 49.6698 928.932 51.3819 928.423 53.0937C928.021 51.7187 927.619 50.3438 927.217 48.9692C924.591 48.8176 921.967 48.6673 919.347 48.5184C910.981 54.1373 927.745 61.169 929.744 60.3464C930.008 60.2304 929.867 56.6631 931.512 56.0904C934.43 55.0801 951.084 58.5334 956.146 56.1565C956.257 58.5275 956.369 60.8985 956.48 63.2695C958.624 60.8466 960.767 58.4235 962.91 56.0004ZM744.256 57.4104C743.821 55.1041 743.387 52.7987 742.953 50.4942C736.776 52.9996 732.423 51.1056 734.359 58.6912C734.362 58.6911 734.366 58.691 734.369 58.6909C737.84 58.2634 740.958 57.8366 744.256 57.4104ZM261.723 101.192C262.262 104.325 265.43 105.018 269.111 102.07C268.812 101.173 268.514 100.277 268.216 99.3814C266.465 102.45 263.401 98.1496 257.108 99.9015C257.296 101.485 257.483 103.068 257.67 104.652C259.056 103.5 260.382 102.349 261.723 101.192ZM749.813 58.2626C751.848 60.9507 757.184 52.4879 753.51 52.1774C750.705 51.9474 748.719 56.8223 749.813 58.2626ZM1233.2 77.0564C1231.71 76.3632 1230.09 75.6675 1228.68 74.9695C1227.98 76.2591 1227.28 77.5615 1226.58 78.8765C1226.58 78.8773 1226.59 78.878 1226.59 78.8787C1228.69 78.238 1230.93 77.6302 1233.2 77.0564ZM898.941 49.5413C893.976 49.8975 889.028 50.2573 884.099 50.6206C884.087 51.9502 884.076 53.2797 884.064 54.6092C888.874 49.6954 891.022 54.9008 892.188 55.2083C892.183 55.2084 892.178 55.2084 892.173 55.2085C895.912 56.2187 899.527 56.9556 903.047 58.5124C901.682 55.5203 900.323 52.5299 898.941 49.5413ZM916.094 57.7785C914.996 48.3578 913.87 47.2739 906.483 53.9763C906.816 55.1327 907.148 56.2893 907.481 57.446C911.386 56.7147 913.62 54.5176 913.069 59.4391C914.077 58.8856 915.085 58.3321 916.094 57.7785ZM838.616 55.7921C839.638 58.7412 846.789 55.6419 846.338 54.1505C846.208 53.5556 836.665 50.0098 838.616 55.7921ZM207.432 112.214C209.142 112.329 210.922 112.441 212.583 112.569C210.498 113.593 208.299 114.622 206.175 115.639C206.593 114.5 207.013 113.358 207.432 112.214ZM190.411 123.517C189.132 123.026 192.391 117.285 185.078 117.331C190.358 116.243 195.175 115.208 200.326 114.147C198.032 115.417 195.753 116.678 193.488 117.929C194.087 119.302 194.686 120.679 195.287 122.058C193.654 122.546 192.029 123.032 190.411 123.517ZM184.385 120.853C187.626 124.142 173.112 126.99 171.779 126.78C171.468 126.725 169.696 124.195 169.102 123.696C171.246 123.288 173.406 122.881 175.58 122.473C174.736 121.722 173.895 120.974 173.055 120.23C175.548 119.442 178.062 118.65 180.595 117.855C179.611 118.963 178.631 120.065 177.655 121.163C179.883 121.055 182.127 120.952 184.385 120.853ZM242.489 109.616C240.65 109.823 238.816 110.032 236.989 110.242C237.539 111.715 238.088 113.19 238.638 114.669C239.725 114.489 240.815 114.309 241.908 114.13C242.101 112.628 242.295 111.123 242.489 109.616ZM205.307 118.034C207.103 110.487 216.439 124.695 207.097 120.432C206.158 119.999 205.138 118.757 205.307 118.034ZM166.282 126.974C161.129 132.777 161.031 122.058 166.914 124.107C167.212 124.221 166.671 126.543 166.282 126.974ZM123.631 135.132C123.163 135.183 121.886 132.23 117.9 136.048C117.127 135.836 116.356 135.625 115.589 135.416C117.001 133.662 131.651 129.85 129.967 133.422C127.835 133.89 125.987 134.782 123.631 135.132ZM139.269 144.405C141.443 143.956 143.636 143.504 145.849 143.051C144.977 142.145 144.107 141.243 143.239 140.345C144.289 139.882 145.344 139.418 146.404 138.951C148.563 140.4 150.541 141.89 152.601 143.391C148.105 144.412 143.058 145.492 138.416 146.527C138.7 145.821 138.985 145.114 139.269 144.405ZM197.775 137.976C193.476 137.179 188.417 139.458 181.521 140.251C181.517 140.248 181.514 140.245 181.51 140.242C181.166 140.277 180.365 138.864 179.262 138.974C178.361 139.072 160.102 143.544 161.194 140.866C168.101 137.489 171.27 140.472 172.188 134.612C172.685 135.734 173.183 136.859 173.681 137.986C180.738 138.967 182.193 134.537 185.884 132.362C185.987 133.275 186.089 134.189 186.192 135.102C188.803 134.784 191.476 134.464 193.987 134.163C193.551 133.612 193.115 133.062 192.68 132.513C193.577 132.369 194.475 132.226 195.376 132.083C197.921 134.475 200.806 134.714 197.775 137.976ZM129.311 144.686C127.949 151.217 107.907 150.214 98.9974 153.036C103.088 148.753 111.102 149.852 116.004 149.074C125.901 147.484 118.755 146.393 120.297 145.129C121.043 144.487 127.336 147.452 129.311 144.686ZM213.066 134.462C207.943 134.622 205.354 136.667 200.733 134.708C201.026 134.137 201.319 133.564 201.613 132.991C203.11 133.228 215.453 132.932 213.066 134.462ZM85.6234 153.816C95.5671 154.173 90.2705 149.819 95.6276 152.851C92.6214 153.634 89.0197 154.483 85.8345 155.282C85.7642 154.793 85.6938 154.305 85.6234 153.816ZM762.242 100.957C766.362 101.167 770.843 103.208 773.173 98.854C770.393 98.2193 767.633 97.587 764.893 96.957C764.033 98.2913 763.154 99.6246 762.242 100.957ZM646.722 142.942C647.661 143.931 651.328 141.019 651.741 141.018C652.488 141.018 652.325 142.457 652.346 142.832C657.268 142.577 652.616 138.11 656.207 137.135C656.728 136.972 664.762 139.178 668.221 138.996C673.606 138.712 678.534 139.001 680.432 138.922C683.589 138.796 689.613 135.39 695.083 135.2C697.204 135.128 698.029 137.86 700.195 137.79C714.436 137.329 742.325 133.47 754.797 135.212C757.935 135.645 761.054 139.304 762.725 139.005C764.022 137.667 765.279 136.326 766.504 134.985C770.764 147.045 771.779 136.318 776.029 135.179C778.733 134.461 780.121 138.047 780.489 138.038C782.931 137.966 784.096 136.256 786.022 135.97C788.184 135.654 791.378 137.273 792.089 136.979C792.554 136.782 790.906 132.001 799.154 132.073C807.528 132.15 816.23 132.642 824.658 132.853C821.375 118.299 819.278 128.277 815.728 128.812C814.774 128.957 815.316 126.648 814.486 126.753C812.139 127.036 807.726 129.313 805.788 128.77C803.693 128.184 804.25 122.849 801.68 124.827C801.55 124.929 802.032 127.129 801.425 127.499C795.278 131.158 793.414 127.337 785.336 127.257C780.027 127.199 748.476 129.473 747.38 128.063C741.445 120.517 774.902 120.248 778.743 120.835C780.118 121.04 778.751 123.464 780.012 123.921C780.546 124.105 785.179 119.471 789.949 119.058C795.483 118.557 806.918 121.658 812.393 121.525C858.85 120.336 904.55 123.051 950.96 123.068C951.949 123.067 953.17 120.221 956.393 120.217C972.041 120.212 987.757 120.365 1003.67 120.573C1048.91 121.187 1094.53 122.737 1139.79 123.117C1153.1 123.209 1166.26 121.424 1179.63 123.739C1181.22 122.085 1182.8 120.452 1184.38 118.841C1180.28 119.988 1172.41 115.679 1171.69 115.564C1171.43 115.531 1169.87 117.423 1167.25 117.192C1163.55 116.873 1161.85 115.046 1161.55 115.029C1160.6 114.975 1161.27 116.868 1160.36 116.817C1153.8 116.419 1148.77 116.731 1142.65 116.5C1135.72 116.252 1132.06 112.433 1127.26 116.28C1126.66 114.682 1126.05 113.08 1125.45 111.475C1121.97 118.12 1099.56 116.764 1090.61 116.168C1087.76 115.979 1088.18 113.082 1087.22 113.057C1086.6 113.045 1086.97 116.858 1079.43 115.948C1075.66 115.488 1074.64 112.659 1072.77 112.708C1071.76 112.739 1072 115.533 1070.54 115.506C1062.12 115.348 1055.08 114.326 1046.77 113.69C1044.45 113.517 1044.36 111.147 1043.84 111.171C1041.93 111.25 1038.71 115.229 1033.82 115.179C1025.89 115.083 1010.29 115.008 1003.46 113.148C1003.34 113.115 1003.22 113.082 1003.11 113.048C1002.13 112.757 1001.25 109.887 1000.54 109.929C999.467 110.002 999.129 112.997 998.94 113.013C995.337 113.065 997.427 110.281 995.031 110.958C993.741 111.323 992.47 114.738 989.466 115.125C985.499 115.637 986.168 111.584 984.515 111.991C984.341 112.054 984.369 114.872 982.735 114.967C976.542 115.304 967.551 115.963 961.675 115.96C959.986 115.962 958.676 114.069 956.32 114.04C951.561 113.983 924.676 115.245 922.404 114.165C922.167 114.052 924.45 109.903 920.628 110.04C919.567 111.767 918.505 113.493 917.444 115.22C915.511 112.466 913.579 109.715 911.649 106.965C911.976 116.492 901.162 117.987 900.972 108.263C899.759 107.873 898.547 107.485 897.336 107.096C895.028 113.823 893.293 111.35 888.594 115.31C887.787 113.256 886.979 111.203 886.173 109.15C886.023 110.522 885.873 111.893 885.724 113.264C882.95 105.849 878.971 113.324 878.465 113.366C876.515 113.538 874.996 111.66 874.083 111.725C870.642 111.937 863.196 114.564 859.151 113.382C858.961 113.321 859.057 110.159 857.903 109.775C855.822 109.082 855.752 113.707 852.858 108.292C852.344 109.659 851.83 111.025 851.316 112.39C850.71 111.688 850.104 110.987 849.499 110.285C846.074 110.667 842.587 111.048 839.08 111.43C842.122 106.077 838.358 103.125 835.02 107.343C833.891 108.773 835.02 112.008 834.644 112.502C834.099 113.168 818.505 111.615 817.46 109.538C816.771 110.561 816.034 111.583 815.316 112.605C814.879 110.574 814.442 108.543 814.006 106.512C813.613 107.227 813.22 107.941 812.828 108.655C808.594 105.111 798.287 113.392 796.392 112.754C795.373 112.417 796.026 103.781 791.226 104.71C791.126 107.078 791.026 109.445 790.926 111.813C789.853 112.16 788.692 112.507 787.567 112.854C785.42 112.658 782.211 108.592 782.034 105.796C781.419 107.481 780.804 109.165 780.191 110.848C778.244 105.396 768.917 107.433 765.323 110.909C764.204 109.277 763.03 107.648 761.849 106.02C760.386 108.029 758.929 110.035 757.479 112.038C754.012 112.668 757.599 109.328 756.848 109.059C755.242 108.507 747.487 114.157 747.821 107.211C746.748 107.206 745.679 107.201 744.613 107.195C744.121 109.183 743.631 111.17 743.141 113.155C741.154 106.346 738.011 108.789 731.238 106.383C730.724 107.955 730.212 109.526 729.7 111.097C727.589 108.894 725.495 106.697 723.417 104.505C723.076 107.095 722.736 109.684 722.397 112.271C721.534 112.652 720.674 113.032 719.817 113.412C717.893 107.652 714.935 113.929 713.121 111.566C710.537 108.122 712.429 103.968 716.828 103.104C716.501 98.9001 702.886 101.037 699.997 101.387C700.22 102.2 700.442 103.014 700.665 103.827C703.735 103.135 706.854 102.442 710.021 101.747C712.985 112.267 704.253 109.538 700.484 110.94C700.139 111.075 698.243 115.077 694.44 114.746C692.925 114.611 686.607 108.886 685.49 108.583C676.294 106.073 683.148 114.219 674.254 107.123C676.298 112.621 670.903 108.101 665.488 109.244C664.53 109.442 657.084 113.993 656.632 114.111C653.532 114.863 656.905 109.979 652.052 111.302C651.499 112.581 650.95 113.858 650.405 115.135C649.28 115.148 648.168 115.161 647.07 115.174C642.269 107.441 640.315 109.029 638.798 111.098C638.069 112.03 637.442 113.064 636.716 113.404C635.769 113.847 636.919 110.896 634.448 111.555C633.517 111.801 632.553 114.252 630.033 114.464C622.152 115.113 619.054 104.853 612.135 115.772C610.965 114.243 609.793 112.718 608.618 111.195C607.942 113.078 607.266 114.958 606.591 116.837C600.624 111.597 602.925 117.065 600.847 117.053C595.369 117.025 583.999 116.339 582.84 111.995C578.617 122.236 572.392 111.099 570.534 111.586C569.487 112.848 568.441 114.109 567.395 115.369C566.024 114.203 564.65 113.042 563.275 111.884C564.453 121.641 557.132 112.315 556.489 112.211C555.735 112.101 545.537 115.471 541.668 115.612C537.808 115.746 530.905 113.508 530.31 113.54C529.63 113.58 523.249 116.539 518.122 116.806C513.633 116.988 486.799 115.105 488.788 119.155C490.61 120.187 493.155 121.026 495.33 121.436C502.072 122.608 541.183 122.718 551.179 123.068C571.226 123.599 592.139 122.682 612.2 123.265C613.383 123.298 613.671 125.906 614.692 125.947C616.244 125.997 620.075 123.313 621.6 123.345C627.299 123.481 634.192 123.836 637.21 123.877C637.881 123.885 638.53 123.907 639.162 123.941C644.537 124.251 648.825 125.541 653.643 125.745C655.552 125.814 662.887 122.44 668.722 123.798C669.772 124.546 670.829 125.294 671.895 126.044C668.912 126.946 661.445 129.262 658.154 129.537C653.227 129.936 650.02 127.792 648.187 127.842C647.057 127.869 642.81 129.088 639.329 129.848C637.701 130.18 636.17 130.427 635.042 130.452C633.889 130.479 633.568 127.714 632.579 127.732C627.217 127.844 620.109 128.016 615.513 130.773C617.369 129.86 605.437 128.381 604.816 128.412C603.749 128.434 602.699 131.004 600.519 131.046C596.325 131.127 596.618 125.817 591.6 131.238C590.227 129.726 588.851 128.218 587.472 126.715C587.706 133.727 570.897 124.684 566.657 133.306C566.62 134.235 587.944 136.407 589.748 136.537C600.378 137.161 615.805 135.19 626.143 136.378C629.173 136.715 638.546 140.881 639.645 141.012C639.67 141.014 639.691 141.015 639.707 141.013C640.806 140.889 639.738 138.373 640.213 138.283C650.145 136.397 645.358 141.474 646.722 142.942ZM187.213 142.632C190.419 142.364 193.59 142.106 196.684 141.862C196.591 142.919 196.498 143.976 196.404 145.031C194.931 144.827 193.496 144.622 192.002 144.428C190.956 145.191 189.913 145.95 188.874 146.706C188.32 145.345 187.766 143.987 187.213 142.632ZM180.015 147.923C177.378 148.796 176.979 146.725 176.345 146.712C174.455 146.668 172.975 147.735 171.196 147.959C172.589 142.758 177.276 144.328 180.015 147.923ZM236.419 142.428C235.767 142.226 230.903 136.924 226.923 142.944C223.23 141.671 219.565 140.427 215.928 139.212C222.06 141.002 229.921 137.21 232.864 136.91C233.978 136.801 234.412 138.577 235.304 138.491C240.507 137.975 244.757 133.185 246.04 139.198C241.073 138.043 237.278 142.657 236.419 142.428ZM205.533 144.3C204.57 143.217 203.609 142.138 202.649 141.064C205.57 140.654 208.513 140.245 211.478 139.836C210.829 141.166 210.183 142.491 209.537 143.812C208.198 143.975 206.863 144.137 205.533 144.3ZM432.154 124.593C430.333 124.719 428.513 124.847 426.694 124.975C426.896 126.112 428.974 125.941 429.809 126.656C429.806 126.656 429.802 126.657 429.799 126.657C430.73 127.466 430.495 128.973 432.105 129.51C432.121 127.872 432.137 126.233 432.154 124.593ZM1186.78 123.997C1190.09 124.187 1218 125.41 1215.66 121.407C1214.35 119.355 1204.63 120.496 1201.91 120.323C1198.16 120.106 1187.53 114.857 1186.78 123.997ZM1236.9 127.029C1237.12 123.439 1219.7 121.699 1217.93 122.291C1218.32 122.87 1218.92 124.137 1219.42 124.441C1221.91 125.894 1232.79 125.83 1236.9 127.029ZM535.157 130.917C533.588 128.685 532.011 126.461 530.442 124.245C531.007 127.2 531.573 130.158 532.139 133.118C533.145 132.385 534.151 131.651 535.157 130.917ZM673.045 124.541C696.594 124.534 720.128 124.55 743.961 124.587C741.927 125.974 740.045 127.359 737.885 128.74C717.283 128.326 695.666 127.079 676.057 129.249C675.056 127.678 674.157 126.108 673.045 124.541ZM244.229 151.532C250.195 150.928 255.025 148.723 261.956 150.668C255.957 153.861 252.393 150.276 246.811 154.606C246.808 154.607 246.805 154.607 246.801 154.607C245.943 153.578 245.085 152.553 244.229 151.532ZM378.916 139.405C377.262 141.38 375.61 143.346 373.961 145.302C376.162 145.131 378.366 144.962 380.573 144.794C380.021 142.995 379.469 141.199 378.916 139.405ZM879.749 136.866C885.875 131.632 902.501 141.097 907.419 134.791C907.739 134.376 904.61 131.72 909.401 126.559C905.7 127.62 903.104 128.7 902.941 132.751C901.787 131.379 900.628 130.007 899.472 128.635C897.648 129.677 895.826 130.718 894.007 131.758C894.094 127.729 893.952 127.945 891.193 130.706C889.871 129.688 888.55 128.67 887.231 127.653C886.733 129.359 886.234 131.064 885.736 132.769C884.552 130.387 883.369 128.006 882.188 125.626C877.919 128.219 880.694 132.828 879.749 136.866ZM857.491 135.9C858.535 136.785 887.908 133.87 874.342 125.876C870.87 126.14 867.36 126.404 863.888 126.667C867.146 139.905 857.325 128.077 856.55 127.806C852.8 126.524 848.185 129.677 845.513 129.519C843.176 129.38 841.704 127.018 840.063 127.084C834.45 127.303 825.698 127.417 824.658 132.853C828.954 132.959 833.345 133.011 837.864 132.868C842.663 132.713 846.989 137.872 855.663 130.779C857.887 131.536 857.219 135.674 857.491 135.9ZM368.417 145.314C368.217 141.129 357.095 143.072 357.199 144.697C357.274 145.65 360.917 145.33 361.476 145.651C361.479 145.651 361.483 145.651 361.486 145.65C361.72 145.792 360.778 147.458 362.538 147.763C364.495 146.95 366.457 146.133 368.417 145.314ZM1143.28 133.53C1144.86 136.341 1179.6 135.613 1180.46 134.437C1180.72 134.098 1180.31 132.959 1180.39 132.307C1172.64 135.844 1160.51 131.309 1153.12 130.824C1151 130.704 1151.68 132.661 1151.57 132.695C1151.56 132.695 1151.56 132.695 1151.55 132.695C1150.35 132.699 1144.74 127.79 1143.28 133.53ZM918.426 132.253C916.928 131.387 915.431 130.521 913.935 129.656C913.611 131.373 913.286 133.089 912.961 134.806C912.964 134.806 912.968 134.806 912.971 134.806C914.788 133.955 916.606 133.105 918.426 132.253ZM969.648 137.899C969.256 136.686 968.863 135.473 968.47 134.259C964.755 134.092 961.039 133.925 957.322 133.759C957.677 133.074 958.031 132.39 958.386 131.705C952.721 129.879 950.519 134.141 947.514 133.529C947.517 133.529 947.52 133.529 947.524 133.529C947.2 133.458 946.74 130.933 945.542 130.848C942.794 130.653 934.918 129.721 934.044 132.259C932.188 137.675 947.912 135.099 950.874 135.345C952.21 135.459 953.877 137.669 954.69 137.721C955.58 137.769 956.706 134.784 958.874 134.875C959.509 134.905 966.63 138.418 969.648 137.899ZM1035.04 134.305C1033.82 131.579 1031.5 134.204 1030.61 133.757C1030.4 133.651 1031.97 131.374 1029.97 130.684C1029.45 132.24 1028.94 133.796 1028.42 135.353C1030.63 135.002 1032.84 134.653 1035.04 134.305ZM349.813 148.758C350.176 149.161 356.148 148.528 356.41 148.231C359.622 144.254 347.252 145.688 349.813 148.758ZM199.202 166.241C202.58 170.237 169.497 169.254 166.169 169.897C165.975 167.336 174.197 169.065 169.602 165.988C173.911 167.482 184.177 165.349 186.868 165.649C188.453 165.837 189.142 168.091 189.384 168.14C190.341 168.315 198.105 164.821 199.202 166.241ZM139.009 171.108C142.139 171.225 145.309 171.348 148.52 171.477C144.844 172.153 141.222 172.82 137.657 173.477C138.106 172.69 138.557 171.9 139.009 171.108ZM135.323 172.623C135.878 174.915 124.844 174.316 122.22 175.144C124.729 170.958 130.706 173.981 135.323 172.623ZM310.946 160.055C316.06 161.732 317.127 152.103 311.628 156.701C311.462 156.853 310.73 159.964 310.946 160.055ZM881.783 155.657C882.607 155.74 893.087 160.102 893.634 157.956C895.341 151.107 888.604 153.842 886.259 151.253C882.474 147.059 887.76 143.615 878.895 146.133C879.222 144.765 879.548 143.396 879.874 142.027C874.638 141.573 876.619 151.052 875.716 152.269C875.453 152.639 872.125 151.836 871.543 152.439C864.324 160.05 881.045 155.594 881.783 155.657ZM431.377 152.776C441.342 155.482 436.757 150.962 446.737 150.711C446.857 148.241 432.442 150.596 431.377 152.776ZM786.895 150.04C797.014 148.9 805.16 152.805 814.56 147.609C813.555 139.576 784.403 147.993 786.895 150.04ZM1259.84 151.925C1220.13 144.163 1175.45 147.049 1133.58 148.245C1129.11 148.326 1128.58 145.349 1126.97 145.686C1125.9 145.904 1126.16 148.311 1124.74 148.34C1083.66 149.114 1044 151.628 1004.55 151.754C994.339 151.784 984.17 151.67 973.985 151.343C970.863 151.237 955.511 145.6 952.506 154.085C950.233 160.522 961.005 155.513 962.826 155.571C964.194 155.613 964.338 158.642 965.249 158.653C966.216 158.664 965.359 156.595 966.48 156.564C971.231 156.423 976.441 157.235 980.732 157.06C988.734 156.741 996.724 156.499 1004.68 156.318C1038.52 155.543 1071.78 155.624 1105.73 155.232C1110.79 155.17 1109.85 157.464 1110.1 157.469C1110.1 157.464 1110.1 157.458 1110.11 157.452C1137.27 156.971 1168.34 151.446 1197.17 152.287C1217.21 152.942 1237.94 153.272 1258.08 153.173C1258.67 152.754 1259.26 152.338 1259.84 151.925ZM860.031 147.147C862.824 156.193 863.112 147.075 872.37 150.782C873.069 149.238 873.78 147.693 874.47 146.147C869.64 146.481 864.809 146.815 860.015 147.147C860.02 147.147 860.025 147.147 860.031 147.147ZM920.152 150.528C922.042 162.847 942.122 154.174 951.331 156.532C952.831 150.333 939.612 153.107 936.467 152.45C934.91 152.125 926.307 145.753 920.03 149.272C920.07 149.69 920.111 150.109 920.152 150.528ZM234.713 174.303C236.161 173.964 237.613 173.623 239.069 173.281C235.249 172.705 231.458 172.144 227.695 171.598C233.57 171.665 239.666 171.733 245.533 171.845C244.646 173.563 243.791 175.27 242.879 176.975C240.143 176.072 237.421 175.181 234.713 174.303ZM253.627 172.016C243.484 173.417 253.605 168.186 256.42 169.945C258.098 171.013 254.663 171.871 253.627 172.016ZM280.678 172.997C276.222 176.334 266.675 177.145 269.381 170.994C274.835 173.409 277.875 170.851 285.601 171.953C284.633 173.19 283.667 174.423 282.703 175.65C282.698 175.65 282.693 175.651 282.687 175.651C282.017 174.764 281.347 173.879 280.678 172.997ZM249.38 175.854C242.288 173.04 261.82 172.739 255.982 175.388C255.702 175.509 249.653 175.962 249.38 175.854ZM1216.78 160.985C1217.54 158.738 1212.26 159.084 1210.46 159.03C1203.09 158.78 1193.58 160.295 1185.54 160.365C1186.14 161.126 1186.79 161.884 1187.4 162.638C1197.55 162.135 1206.57 161.584 1216.78 160.985ZM1161.16 161.49C1155.89 161.722 1150.6 161.942 1145.21 162.151C1144.71 162.167 1142.42 164.516 1144.19 164.99C1149.92 163.809 1155.55 162.641 1161.16 161.49ZM826.66 164.386C830.79 166.029 819.266 174.217 819.558 165.369C821.916 165.043 824.283 164.715 826.66 164.386ZM788.522 167.655C791.157 166.84 793.639 166.024 796.171 165.205C796.203 166.216 796.235 167.228 796.267 168.24C793.703 168.045 791.189 167.85 788.522 167.655ZM1237.86 160.967C1234.95 158.703 1228.48 159.503 1224.52 159.725C1227.34 161.764 1233.81 160.19 1237.86 160.967ZM888.401 168.277C887.985 165.873 904.421 166.536 898.856 170.753C895.362 169.927 891.877 169.102 888.401 168.277ZM921.748 171.967C918.251 172.484 915.513 171.645 916.126 167.857C917.99 168.024 919.856 168.192 921.723 168.359C921.731 169.562 921.74 170.764 921.748 171.967ZM299.491 176.745C305.309 176.165 311.17 175.582 317.071 174.997C316.931 175.739 316.792 176.48 316.653 177.221C310.968 177.773 305.319 178.324 299.711 178.872C299.638 178.163 299.564 177.454 299.491 176.745ZM1241.42 167.124C1245.49 166.235 1249.36 165.358 1253.34 164.494C1249.34 164.458 1245.44 164.389 1241.33 164.287C1241.36 165.237 1241.38 166.187 1241.41 167.137C1241.41 167.133 1241.42 167.128 1241.42 167.124ZM220.086 190.107C238.295 192.162 215.9 196.408 210.528 192.364C210.523 192.368 210.518 192.372 210.514 192.376C210.051 192.021 210.696 190.144 209.912 189.447C211.845 190.166 213.786 190.892 215.735 191.625C217.287 190.498 218.845 189.361 220.409 188.216C221.025 188.593 221.612 188.975 222.205 189.357C221.517 189.606 220.805 189.856 220.086 190.107ZM147.719 195.807C131.497 196.488 147.373 191.416 156.118 194.124C156.19 194.884 149.206 195.749 147.719 195.807ZM190.287 192.419C192.814 191.871 195.36 191.317 197.923 190.756C198.325 191.248 198.72 191.742 199.105 192.237C197.199 192.856 195.236 193.476 193.317 194.087C192.305 193.528 191.294 192.972 190.287 192.419ZM275.734 196.848C279.917 197.349 284.381 190.663 271.428 192.914C271.516 193.598 271.603 194.283 271.691 194.967C272.2 194.838 273.659 194.133 273.75 194.181C274.011 194.343 273.995 196.646 275.734 196.848ZM119.612 211.342C119.219 211.562 119.658 217.027 113.948 211.536C112.514 211.926 111.092 212.312 109.682 212.692C109.138 211.519 108.594 210.348 108.052 209.18C113.815 209.898 114.137 207.45 114.535 207.38C116.422 207.072 115.177 208.382 116.421 208.35C119.723 208.254 126.413 207.17 123.789 210.911C122.823 212.244 120.032 211.129 119.612 211.342ZM130.989 214.224C130.232 213.772 132.232 212.063 131.645 211.61C131.11 211.21 124.085 209.757 125.54 206.942C126.666 207.015 127.799 207.088 128.937 207.161C129.423 207.907 129.91 208.655 130.398 209.405C131.391 208.663 132.389 207.917 133.394 207.164C135.51 208.978 139.844 211.345 135.327 213.03C137.043 212.82 138.759 212.608 140.37 212.407C141.104 211.466 141.84 210.52 142.58 209.569C142.319 210.992 142.059 212.411 141.799 213.827C138.375 213.94 134.571 214.094 130.989 214.224ZM78.2608 215.055C78.3758 214.421 78.4913 213.787 78.607 213.152C72.6849 214.495 62.8413 215.238 67.9206 211.213C76.1447 210.587 84.8871 209.887 93.0205 209.243C93.6519 209.712 94.2858 210.182 94.9222 210.655C88.3507 209.007 91.4345 216.92 85.7934 214.761C84.8105 214.404 87.1396 211.565 81.4152 213.523C81.7193 214.152 82.0239 214.782 82.3289 215.413C80.9567 215.294 79.6006 215.174 78.2608 215.055ZM24.577 215.802C35.2753 216.254 23.9533 218.577 21.6615 217.012C21.6648 217.012 21.6679 217.012 21.6712 217.011C18.8397 214.863 20.0889 214.275 22.3694 214.159C23.5049 214.104 25.0321 214.157 26.2156 214.236C27.2318 214.336 28.0733 214.44 28.2404 214.427C29.0517 214.387 30.9858 210.939 36.7575 215.597C32.7824 215.649 28.6658 215.724 24.577 215.802ZM59.5791 215.558C58.7327 215.696 59.0763 214.785 58.7063 214.808C58.703 214.808 58.6999 214.808 58.6966 214.808C52.8465 215.207 39.413 216.351 37.5592 213.677C41.8058 213.291 60.7828 211.911 62.0019 213.904C61.1844 214.461 60.3769 215.012 59.5791 215.558ZM99.4817 212.065C103.395 214.044 95.2932 214.558 93.1315 213.658C92.7147 213.472 95.4278 210.046 99.4817 212.065ZM368.717 213.925C376.221 211.923 365.903 210.063 369.096 206.989C367.652 207.267 366.208 207.545 364.767 207.821C366.083 209.848 367.4 211.883 368.717 213.925ZM716.993 227.487C718.868 228.006 717.92 225.604 718.08 225.574C719.343 225.679 720.407 227.65 720.863 227.46C728.996 223.82 723.456 221.639 723.356 221.176C723.116 218.819 725.207 216.125 722.126 213.352C720.318 214.135 718.593 214.916 716.649 215.694C715.662 214.363 714.679 213.033 713.699 211.704C710.016 214.396 714.958 215.298 715.633 219.028C715.891 220.496 712.374 222.128 716.993 227.487ZM383.078 220.092C383.991 216.828 386.623 212.663 383.31 209.393C383.306 209.393 383.303 209.393 383.3 209.393C382.688 208.795 380.407 208.487 379.633 207.653C375.151 212.054 377.484 216.476 383.078 220.092ZM683.699 233.6C680.646 232.53 678.009 231.461 674.721 230.395C674.705 227.968 674.69 225.54 674.674 223.112C676.413 223.826 677.956 224.541 679.528 225.257C680.041 224.167 680.557 223.076 681.075 221.984C679.006 219.134 677.205 216.29 674.948 213.454C672.469 214.345 670.038 215.232 667.656 216.115C668.8 217.431 669.954 218.749 671.118 220.069C665.209 221.269 666.334 215.422 661.524 213.013C659.937 215.194 658.595 217.37 656.8 219.541C654.202 217.207 651.669 214.88 649.204 212.56C645.226 213.464 644.964 215.145 647.691 217.794C645.928 220.427 643.86 216.589 641.793 216.912C641.631 216.937 641.469 216.985 641.307 217.062C641.118 217.15 641.558 219.897 641.389 219.923C629.402 221.27 629.766 214.177 627.82 213.806C626.441 213.554 621.117 218.17 621.091 219.797C621.08 221.979 632.754 231.137 614.959 230.641C624.394 237.008 634.59 231.354 627.549 222.225C629.844 223.001 638.047 222.146 641.933 221.875C643.016 221.797 643.777 221.766 643.957 221.832C645.145 222.286 644.823 225.652 646.319 225.805C647.236 225.897 649.22 218.231 656.964 225.305C657.917 224.065 658.802 222.823 659.63 221.579C660.485 222.663 661.346 223.748 662.214 224.834C660.543 228.516 659.172 232.189 657.284 235.853C664.111 232.089 670.031 240.02 674.349 233.719C678.35 234.628 679.843 235.453 678.462 238.708C679.534 238.756 680.614 238.804 681.701 238.852C682.364 237.103 683.029 235.352 683.699 233.6ZM405.136 215.364C409.063 218.484 409.736 211.742 409.134 211.36C405.744 209.283 403.092 213.751 405.136 215.364ZM710.051 222.881C705.891 220.625 701.813 218.376 697.821 216.135C697.895 218.731 697.968 221.326 698.042 223.922C701.96 223.58 705.965 223.233 710.051 222.881ZM368.062 218.523C367.534 216.993 367.006 215.465 366.478 213.939C362.629 219.528 357.435 211.578 355.432 213.245C354.998 213.605 356.228 216.264 357.187 216.835C357.779 217.185 367.326 219.036 368.062 218.523ZM183.807 218.987C185.333 218.182 186.866 217.369 188.407 216.549C188.49 217.886 188.574 219.223 188.657 220.559C187.877 220.813 187.099 221.066 186.323 221.317C185.483 220.537 184.644 219.761 183.807 218.987ZM202.38 216.62C205.288 216.695 208.217 216.771 211.167 216.846C200.181 218.239 209.393 218.766 202.892 220.6C202.721 219.273 202.551 217.946 202.38 216.62ZM232.473 219.157C232.22 220.018 231.967 220.877 231.714 221.735C228.767 221.746 225.965 221.743 222.919 221.764C225.197 224.686 227.397 227.642 229.606 230.625C230.674 230.645 231.744 230.665 232.817 230.684C232.702 226.848 232.587 223.006 232.473 219.157ZM797.231 239.86C798.992 239.991 805.068 236.048 804.764 234.527C802.132 232.607 799.513 230.69 796.907 228.775C796.972 231.464 797.036 234.153 797.1 236.842C796.702 235.494 796.303 234.146 795.905 232.798C794.483 233.767 793.076 234.734 791.588 235.699C790.767 233.333 789.948 230.968 789.129 228.605C788.45 231.264 787.771 233.922 787.094 236.577C794.435 241.518 794.035 236.764 795.492 236.852C796.231 236.894 796.746 238.572 797.032 239.416C797.099 239.564 797.165 239.712 797.231 239.86ZM707.701 239.41C716.246 240.398 721.047 233.658 727.186 239.666C723.075 227.222 698.159 238.961 688.558 228.443C687.676 230.358 686.799 232.269 685.927 234.179C690.741 232.637 694.354 236.786 696.843 237.463C698.757 237.999 698.457 235.94 698.609 235.975C698.616 235.976 698.622 235.976 698.629 235.976C702.945 236.99 704.362 239.022 707.701 239.41ZM362.59 226.005C365.092 228.437 369.02 228.243 368.702 224.689C366.395 223.649 364.091 222.616 361.79 221.591C362.334 222.495 362.162 225.59 362.59 226.005ZM236.916 227.461C238.8 228.445 242.894 227.614 240.765 225.013C240.38 224.553 236.437 226.366 238.306 221.703C234.257 221.793 235.844 226.894 236.916 227.461ZM565.084 224.879C563.621 224.962 562.183 225.045 560.731 225.129C560.489 226.813 560.248 228.495 560.006 230.177C561.698 228.417 563.378 226.651 565.084 224.879ZM343.812 228.264C341.106 221.449 338.439 228.03 334.147 222.464C332.778 222.419 331.411 222.374 330.045 222.329C330.042 222.329 330.039 222.329 330.035 222.329C330.198 224.158 330.36 225.988 330.523 227.817C334.934 227.964 339.365 228.113 343.812 228.264ZM656.022 232.455C655.028 231.305 654.043 230.156 653.068 229.008C651.425 230.23 649.813 231.449 648.233 232.664C649.133 233.627 650.043 234.592 650.963 235.557C652.617 234.526 654.304 233.492 656.022 232.455ZM319.861 228.626C324.77 229.505 325.95 223.713 319.783 223.691C317.188 223.693 314.727 227.721 319.861 228.626ZM889.254 238.744C887.584 238.023 885.916 237.302 884.25 236.58C883.738 238.287 883.227 239.993 882.715 241.699C884.891 240.716 887.071 239.731 889.254 238.744ZM214.073 226.777C214.134 225.741 214.195 224.703 214.257 223.665C215.751 223.873 217.251 224.081 218.756 224.291C218.515 225.33 218.275 226.367 218.035 227.402C216.71 227.193 215.39 226.984 214.073 226.777ZM878.154 237.522C876.843 237.174 875.492 236.826 874.152 236.477C873.281 237.295 872.411 238.113 871.542 238.93C872.809 239.777 874.077 240.624 875.347 241.471C876.293 240.155 877.229 238.839 878.154 237.522ZM274.461 227.739C276.44 229.136 283.248 224.875 276.538 223.761C272.273 223.064 274.165 227.527 274.461 227.739ZM264.61 229.026C271.986 231.645 265.091 218.569 257.746 226.969C266.028 225.857 264.183 228.867 264.61 229.026ZM203.629 234.644C203.448 234.635 203.079 232.932 201.632 232.852C196.416 232.565 189.611 231.814 186.007 231.662C177.205 231.359 150.66 233.75 146.933 229.283C146.158 228.349 147.27 225.578 146.987 225.432C146.15 225.035 141.916 226.362 142.456 224.334C146.778 224.353 151.181 224.364 155.66 224.369C154.76 225.842 153.864 227.306 152.972 228.759C164.029 228.036 160.31 228.114 163.008 224.882C165.004 226.144 167.013 227.418 169.034 228.705C172.893 227.458 176.806 226.177 180.77 224.861C179.961 225.838 179.154 226.809 178.349 227.776C184.8 229.603 182.817 228.438 185.829 226.064C185.965 227.048 186.101 228.033 186.236 229.017C191.744 226.657 193.305 229.628 194.595 229.682C197.201 229.827 199.268 217.737 210.654 229.83C214.125 224.026 215.549 235.931 217.275 229.893C225.328 236.625 211.275 234.009 204.942 233.682C204.939 233.682 204.936 233.682 204.932 233.682C204.446 233.656 205.369 234.759 203.629 234.644ZM239.591 228.994C235.911 234.525 253.241 235.314 246.523 227.068C245.637 226.799 244.752 226.531 243.869 226.264C242.435 227.181 241.006 228.091 239.581 228.994C239.585 228.994 239.588 228.994 239.591 228.994ZM400.464 235.203C415.926 232.657 406.616 228.518 401.649 232.315C400.655 233.064 400.171 234.101 400.464 235.203ZM720.18 246.409C720.378 245.397 720.575 244.386 720.773 243.374C715.379 244.119 704.795 239.786 705.19 246.633C710.066 246.565 715.147 246.49 720.18 246.409ZM677.986 249.015C679.084 249.478 683.691 250.667 683.071 248.102C681.015 246.21 679.031 244.321 676.985 242.437C676.022 243.515 675.066 244.591 674.117 245.666C675.479 246.108 677.756 248.893 677.986 249.015Z" fill="black"/>
<path d="M709.543 48.6681C680.287 48.6593 647.232 49.7667 618.247 48.1698C579.017 50.0784 412.45 47.8794 373.231 48.566C341.322 49.1234 318.42 72.9503 318.447 104.864C318.459 119.765 318.458 134.666 318.441 149.567C318.399 188.311 349.423 220.032 388.167 220.067C401.299 220.079 414.431 220.036 427.562 219.938C444.724 219.915 572.162 218.834 609.722 220.492C615.453 220.745 621.172 220.778 626.899 220.461C675.536 217.763 835.57 219.736 868.3 219.871L1141.33 219.45L1164.18 219.821C1171.97 219.822 1180.7 219.998 1189.8 220.198C1226.42 221.003 1254.76 191.829 1254.69 155.2C1254.66 144.068 1254.63 132.927 1254.61 121.806C1254.55 81.6206 1221.59 48.9306 1181.41 49.285C1079.4 50.1846 976.04 48.6988 874.702 48.6946L709.543 48.6681Z" fill="black"/>
<path d="M638.488 36.9782C650.076 36.901 665.395 37.151 677.122 37.4895C680.796 37.5958 678.943 38.2516 681.481 38.353C686.45 38.5499 691.079 38.1877 696.011 38.4435C697.646 38.5317 695.62 39.5571 697.333 39.6268C701.464 39.7925 705.502 39.8331 709.546 39.8583C714.652 39.8898 719.758 39.8628 725.06 39.9839C771.702 41.0503 817.55 41.4367 864.762 41.9043C867.952 41.9357 871.284 41.9993 874.703 42.0771C887.974 42.3769 902.561 42.9204 915.35 42.6439C917.228 42.6023 916.112 41.7124 916.469 41.6405C922.076 40.5413 920.209 42.3242 923.865 42.5753C938.382 43.5678 954.525 43.7297 968.498 43.4629C974.442 43.3469 968.493 41.5543 974.471 42.5749C974.886 42.6439 973.373 43.5768 975.003 43.6861C978.699 43.9321 985.711 43.8028 988.576 43.8934C994.095 44.0727 995.009 44.0684 1000.23 44.1082C1007.37 44.1707 1015.86 44.6851 1023.51 44.5114C1025.15 44.4715 1022.99 43.4956 1025.6 43.3449C1028.21 43.1945 1035.11 43.3105 1037.44 43.5487C1039.76 43.7873 1038.77 44.5409 1039.18 44.7166C1042.56 46.1999 1050.55 44.2028 1051.58 44.1565C1070.31 43.3775 1086.37 44.5801 1103.94 44.5878C1117.29 44.5911 1131.55 44.1898 1144.25 44.1945C1157.45 44.2026 1168.9 44.5384 1181.37 44.4717C1183.31 44.461 1185.25 44.5134 1187.25 44.6356C1188.9 44.7485 1187.05 43.4643 1189.08 43.6203C1210.87 45.3195 1231.47 57.1236 1243.84 74.7302C1245.08 76.4923 1242.63 74.8855 1243.79 76.6709C1251.53 87.5868 1255.35 107.175 1259.83 114.581C1260 116.883 1260.08 119.31 1260.03 121.797C1259.88 128.442 1259.63 135.443 1258.99 140.978C1258.44 145.785 1257.35 141.12 1257.82 147.022C1257.93 148.353 1258.88 146.619 1258.96 148.616C1259.06 150.766 1259.11 152.967 1259.14 155.191C1259.25 162.092 1258.17 169.157 1256.67 175.623C1256.25 177.388 1257.2 177.169 1257.19 177.713C1257.12 182.383 1252.09 188.278 1251.17 189.49C1244.41 199.372 1238.77 206.109 1229.72 212.571C1227.59 214.016 1230.77 213.253 1228.7 214.673C1217.87 222.024 1204.13 225.768 1191.5 225.21C1188.69 225.077 1191.28 224.125 1189.95 224.003C1189.87 223.996 1189.79 223.988 1189.72 223.982C1184.41 223.48 1183.11 225.237 1177.92 224.752C1176.81 224.651 1177.45 223.828 1177.25 223.733C1174.1 222.242 1171.32 224.248 1170.51 224.285C1168.24 224.398 1166.15 224.389 1164.18 224.313L1164.1 224.313C1157.06 223.931 1151.34 222.597 1143.54 222.705C1142.35 222.724 1145.03 223.823 1141.66 223.811C1141.53 223.81 1141.4 223.81 1141.26 223.809L1141.34 223.81C1119.06 224.127 1095.52 223.872 1073.48 223.067C1070.03 222.942 1072.49 222.146 1072.28 222.048C1068.74 220.527 1066.45 222.576 1065.33 222.655C1056.46 223.223 1048.18 221.521 1042.16 223.966C1004.6 223.179 967.221 224.605 929.974 222.479C929.5 222.455 930.348 221.446 929.403 221.401C918.026 220.853 920.214 222.415 912.69 224.342C910.794 224.826 905.023 222.523 904.512 222.354C902.652 221.732 904.578 220.23 903.955 220.11C898.802 219.168 899.649 224.124 892.699 224.137C892.481 224.129 893.393 223.215 892.809 223.125C890.997 222.843 889.2 223.208 887.426 222.897C883.366 222.176 881.917 219.77 875.719 221.181C874.935 221.365 876.138 224.175 869.932 224.051C869.562 224.044 869.002 224.038 868.307 224.035L868.283 224.035C864.365 223.993 855.975 223.939 853.475 223.764C850.377 223.558 852.513 222.668 852.295 222.627C844.088 221.363 847.08 220.89 843.04 219.083C838.954 217.282 840.029 221.506 838.303 221.962C836.711 222.418 830.483 221.378 829.108 221.024C827.639 220.668 829.481 220.107 828.172 219.902C819.31 218.56 824.291 221.963 821.4 222.609C814.549 224.139 809.218 220.973 803.059 220.624C801.367 220.529 802.745 221.251 801.232 221.307C795.283 221.52 791.669 220.52 784.93 221.374C783.805 221.513 778.342 223.361 774.797 221.963C774.293 221.762 775.731 220.99 773.182 220.803C769.41 220.521 762.555 220.319 758.498 220.564C755.489 220.745 758.934 222.042 755.145 221.629C753.46 221.445 756.588 220.705 753.421 220.422C750.287 220.139 742.239 220.15 739.182 220.171C736.13 220.192 737.799 221.168 737.552 221.234C736.064 221.606 730.193 222.068 729.678 222.067C703.539 222.178 679.541 220.587 654.054 221.605C652.058 221.686 653.409 222.686 653.105 222.709C646.423 223.283 651.638 220.437 646.818 219.636C647.507 221.706 644.887 221.382 639.937 221.764C637.658 221.949 638.931 222.716 638.724 222.805C635.373 224.141 632.866 222.664 632.304 222.364C630.391 221.477 628.383 222.323 627.001 222.289C626.646 222.282 626.315 222.228 626.013 222.092C624.422 221.37 627.929 220.059 623.328 220.251C622.047 221.035 625.575 222.885 622.027 223.298C618.523 223.69 614.205 223.782 609.585 223.589C596.939 223.095 581.226 222.104 573.45 221.904C562.846 221.653 559.45 221.782 553.242 221.484C542.055 220.957 546.19 222.418 539.233 223.065C532.292 223.717 535.665 220.164 534.668 219.398C533.685 218.632 532.609 219.418 531.392 218.997C530.177 218.577 532.809 218.058 529.95 217.899C527.084 217.739 519.252 219.103 518.241 219.905C516.096 221.602 519.62 223.375 512.05 222.76C511.616 222.724 513.024 221.786 511.361 221.694C498.093 220.996 484.328 221.001 471.094 220.425C469.303 220.344 470.898 219.296 469.858 219.237C458.831 218.625 462.722 220.362 456.71 222.342C458.053 219.741 454.721 218.171 446.322 218.202C441.357 218.22 442.065 219.349 438.944 220.165C437.863 220.411 434.446 219.652 433.704 220.188C431.731 221.852 434.568 223.689 427.567 223.223L427.587 223.223C427.216 223.2 426.817 223.171 426.389 223.136C426.01 223.102 427.21 222.139 425.9 222.091C417.437 221.77 416.435 223.598 407.286 223.852C402.423 223.985 394.989 223.524 388.164 223.144C384.773 222.966 381.586 222.565 378.88 222.154C379.365 219.349 371.789 218.771 368.115 219.662C362.875 218.068 357.342 215.82 352.89 212.948C351.363 211.958 352.825 211.826 352.671 211.632C350.447 208.668 347.51 208.951 346.488 208.312C335.735 201.249 330.141 192.121 323.432 181.979C323.212 181.62 321.001 181.841 321.057 178.193C321.082 177.969 323.452 181.317 321.353 175.997C319.195 170.619 317.746 160.001 316.712 152.158C316.62 151.553 316.381 150.654 316.164 149.564C315.697 147.311 315.213 144.29 316.091 141.704C316.266 141.198 316.847 141.752 317.171 141.023C318.203 138.665 316.156 137.376 317.897 134.606C319.638 131.835 320.943 126.069 319.74 118.281C319.706 118.033 318.082 116.19 318.107 113.741C318.133 111.192 318.284 107.946 318.382 104.864C318.434 103.203 318.535 101.623 318.633 100.2C318.779 98.2583 317.678 99.4139 317.686 99.0745C318.559 85.7561 323.013 76.2678 332.564 65.9224C334.231 64.0323 339.03 57.8228 344.061 56.2022C349.491 54.677 346.719 60.9491 357.007 55.6972C360.677 54.0585 365.288 47.6943 373.235 48.8077C374.048 48.9429 374.942 49.1643 375.924 49.4893C393.629 48.5036 410.164 50.2671 427.841 49.1746C428.638 49.1268 431.232 47.3855 433.065 47.4174C435.835 47.4682 437.379 48.2941 439.401 48.3574C447.673 48.6423 455.431 47.9808 463.42 48.1298C466.478 48.1847 465.437 49.0262 469.055 49.0916C472.678 49.1562 475.157 48.0537 480.066 48.616C483.791 49.0444 487.515 51.3411 492.46 51.629C492.658 49.3819 496.062 49.4441 502.104 48.8756C503.265 48.7653 502.024 47.9778 502.574 47.8852C504.806 47.4911 506.878 48.1477 509.005 47.7167C509.522 47.6133 509.549 46.8457 509.972 46.7178C513.555 45.6008 519.48 47.3468 520.49 47.6502C524.361 48.8036 526.204 47.81 529.19 48.2667C532.165 48.7231 527.715 49.2751 531.189 49.5556C538.417 50.1361 547.681 50.0221 555.025 50.0514C557.958 50.0582 555.956 49.0352 556.376 49.0124C562.369 48.7474 568.464 49.8199 571.893 47.7642C576.09 53.0221 575.583 47.2426 584.145 48.2379C584.837 48.3179 585.667 50.8076 583.125 51.1934C580.582 51.5786 576.486 50.8231 572.931 51.4092C572.077 51.5477 567.108 53.9037 566.473 54.0464C561.235 55.1675 560.397 51.437 560.152 51.233C557.073 49.0282 550.94 51.5502 549.417 51.7236C542.153 52.5203 535.983 51.9857 529.949 52.5416C525.994 52.9003 525.552 55.3419 522.469 55.2585C512.113 54.9801 508.514 51.5577 498.759 54.4721C496.665 55.0932 498.731 57.7729 491.246 55.6398C490.775 55.5054 485.229 53.559 482.002 54.7584C481.597 54.9096 481.606 55.6878 481.074 55.7506C477.513 56.1563 475.129 55.5246 471.24 55.8022C467.383 56.08 462.651 56.4988 458.259 56.2129C455.579 56.0416 452.137 54.5747 450.874 54.2136C447.322 53.1735 443.343 54.831 441.156 53.5826C438.913 52.3277 443.356 50.4582 437.405 49.6268C437.175 51.6475 436.658 53.7203 436.295 55.7519C423.277 55.6234 410.688 54.9182 397.563 55.0048C395.943 55.018 397.591 56.1046 395.871 56.1471C388.58 56.3264 382.209 55.5578 374.724 55.9681C374.257 55.9952 373.802 56.0289 373.362 56.0682C368.509 56.4937 363.62 58.2276 359.227 59.8704C355.475 58.4729 348.353 62.4374 343.888 65.8505C342.286 67.0242 342.001 66.4781 340.785 67.2784C336.311 70.4988 339.649 70.2029 338.866 71.4511C336.004 76.9394 331.79 74.6061 328.291 81.7582C328.04 82.1645 328.516 87.6845 328.54 88.3282C328.291 92.6628 327.488 88.7386 326.61 91.299C325.193 95.8544 324.156 99.2762 324.717 104.859C324.739 105.084 324.763 105.313 324.789 105.545C325.005 107.452 326.545 112.025 325.357 115.728C325.202 116.215 324.387 115.946 324.339 116.338C323.545 123.434 326.106 123.621 326.974 127.676C327.841 131.733 326.069 137.997 325.558 139.271C324.238 142.606 324.996 136.715 324.867 136.535C323.328 134.412 323.591 138.981 323.458 142.471C320.946 142.975 321.092 147.856 323.33 146.09C323.575 145.889 323.343 143.172 323.458 142.471C324.852 144.207 325.557 146.68 325.486 149.575C325.432 151.585 325.016 153.807 324.258 156.261C323.537 158.926 321.691 156.705 323.689 164.481C324.737 167.953 326.067 166.182 327.391 169.004C330.394 175.354 333.193 184.221 338.037 189.848C339.764 191.853 338.885 189.261 340.091 190.582C343.304 194.015 345.83 197.451 349.81 200.108C350.168 200.341 349.954 198.928 351.114 199.801C359.96 206.241 368.855 210.719 380.353 212.292C382.472 212.566 385.231 212.712 388.174 212.621C393.492 212.478 399.292 212.288 403.294 212.347C410.884 212.455 419.663 213.115 427.513 213.386L427.554 213.386C431.088 213.536 434.836 213.586 437.828 213.458C444.041 213.2 442.732 212.215 445.365 211.525C450.51 210.187 459.762 212.483 460.935 212.84C460.957 212.852 455.652 213.113 458.495 213.607C460.132 214.659 460.877 212.845 460.935 212.84C461.812 213.07 472.486 213.243 474.645 213.044C475.819 212.936 475.158 211.999 475.771 211.96C490.102 211.057 504.543 210.773 519.132 211.199C519.388 211.218 519.003 212.269 519.606 212.3C528.043 212.76 533.472 211.479 540.424 210.728C547.416 209.978 552.9 210.254 557.053 212.078C562.245 211.874 569.911 212.725 574.17 213.251C578.576 213.778 579.15 211.743 579.537 211.706C591.273 210.597 598.008 211.746 610.077 212.439C610.33 212.455 610.585 212.471 610.842 212.485C614.658 212.713 620.981 212.693 626.442 212.22C629.098 212 631.978 211.796 633.946 211.647C639.113 211.269 642.173 211.665 646.74 211.242C647.373 211.186 646.71 210.291 646.903 210.251C652.204 209.037 649.645 211.325 650.739 211.697C654.6 213.062 657.02 213.781 663.688 213.001C665.222 212.822 669.565 209.559 672.425 209.341C675.999 209.064 674.647 210.227 678.458 209.912C678.78 209.887 678.729 209.178 681.07 209.189C691.947 209.233 703.79 209.599 715.062 209.514C716.609 209.505 714.634 208.383 716.854 208.352C727.307 208.208 738.746 208.266 748.927 208.823C751.43 208.964 749.858 209.746 750.401 209.981C753.723 211.405 758.48 209.369 759.256 209.333C777.867 208.422 792.116 210.371 811.127 209.625C812.136 209.581 820.186 207.44 823.619 209.356C823.862 209.484 827.452 211.445 830.48 210.148C830.688 210.067 828.479 209.054 832.324 209.187C836.204 209.32 842.238 208.706 847.55 209.843C849.171 210.2 853.096 212.161 858.079 210.662C858.362 210.561 865.525 207.39 868.344 209.297L868.284 209.297C868.399 209.371 868.508 209.452 868.61 209.541C869.053 209.935 868.594 212.473 874.501 211.163C875.629 210.909 873.579 210.347 876.553 209.989C881.109 209.437 887.147 210.107 892.747 208.968C893.724 208.767 897.88 207.039 901.218 208.34C901.74 208.544 900.749 209.393 902.511 209.485C910.889 209.927 919.659 209.346 928.166 209.919C931.179 210.121 929.641 211.492 932.781 211.854C935.923 212.216 942.251 212.559 945.536 211.929C948.823 211.298 945.228 209.121 950.153 208.939C971.559 208.147 992.768 209.395 1014.14 209.549C1017.32 209.572 1014.69 208.795 1019.36 208.773C1036.58 208.689 1066.32 207.911 1081.27 209.547C1093.25 210.857 1078.18 211.892 1087.33 212.419C1091.75 212.67 1096.52 210.126 1097.59 210.044C1108 209.217 1115.24 210.33 1124.62 209.97C1126.55 209.896 1124.65 208.87 1126.3 208.818C1131.27 208.653 1136.47 208.985 1141.32 209.001L1141.5 209.002C1142.14 209.016 1142.78 209.024 1143.4 209.024C1145.82 209.023 1145.38 208.231 1147.6 208.328C1152.91 208.55 1157.6 208.956 1162.77 209.777C1163.24 209.851 1160.04 210.776 1163.97 210.877C1164.09 210.88 1164.2 210.883 1164.32 210.886L1164.18 210.885C1170.59 210.961 1178.36 211.781 1185.58 211.197C1187.27 211.057 1187.73 209.944 1190.02 210.084C1190.59 210.122 1191.28 210.255 1192.17 210.518C1192.98 210.732 1192.05 213.044 1196.62 210.827C1197.49 210.535 1204.46 206.907 1208.37 207.124C1209.41 207.232 1212.49 207.985 1214.44 206.761C1214.69 206.592 1213.2 206.233 1214.81 205.363C1220.47 202.286 1226.02 198.292 1230.26 193.211C1231.37 191.855 1228.91 193.121 1230.54 191.132C1235.01 185.681 1239.42 177.929 1241.57 171.235C1242.37 168.776 1242.7 170.707 1242.83 170.555C1245.05 167.906 1243.41 165.643 1243.46 164.657C1243.63 161.186 1243.92 158.218 1244.06 155.222C1244.16 152.329 1244.28 149.465 1244.17 146.357C1244.1 144.459 1243.16 145.807 1243.07 145.429C1242.24 141.512 1243.94 144.427 1244.12 141.946C1244.59 135.522 1244.55 128.416 1244.44 121.822C1244.43 121.352 1244.41 120.886 1244.39 120.425C1244.27 118.213 1243.27 120.724 1243.16 118.77C1242.43 107.197 1238.4 95.6013 1232.21 86.0092C1231.03 84.2069 1232.5 84.7962 1232.39 84.3186C1231.59 80.9269 1227.02 78.6852 1226.17 78.1206C1222.23 75.3594 1221.3 73.6524 1217.82 71.2747C1207.87 64.5699 1194.63 60.0292 1181.5 60.1141C1170.62 60.1172 1160.04 60.0239 1150.65 59.9398C1121.15 59.6737 1098.27 58.8512 1070.16 58.9759C1068.38 58.9824 1070.18 60.1064 1068.64 60.1263C1048.75 60.3316 1029.18 59.796 1009.26 60.0103C1007.63 60.0259 1009.98 61.0989 1007.36 61.1595C1001.98 61.2913 995.161 61.1956 989.725 60.8267C987.073 60.6488 990.637 59.759 987.967 59.5985C981.751 59.2228 975.087 59.1103 968.702 59.2459C965.984 59.3059 970.078 60.4121 966.546 60.4058C942.487 60.3852 918.871 60.462 894.576 59.0141C892.911 58.9148 891.451 56.7085 887.909 57.1266C887.641 57.7378 887.655 58.4572 887.538 59.1108C883.257 59.1487 878.972 59.1722 874.701 59.185C844.024 59.2724 813.547 58.6665 782.719 58.5579C781.238 58.553 783.797 59.721 780.93 59.7173C764.334 59.6974 748.218 60.0183 731.242 58.855C729.557 58.7412 730.422 56.6873 725.458 56.9972C724.583 57.0537 717.107 57.3264 715.174 57.772C714.911 57.8393 716.275 58.7982 713.866 58.8258C712.431 58.8405 710.989 58.8514 709.541 58.8584C696.983 58.9194 683.889 58.8868 671.303 58.4625C669.039 58.3842 671.441 57.3441 669.828 57.2792C658.398 56.8281 645.906 57.6109 634.908 56.4198C627.551 55.6028 630.33 53.9066 626.497 52.037C625.952 51.7765 621.414 51.5417 621.232 50.5159C620.76 47.949 623.062 45.2715 622.298 42.5235C622.14 41.9402 616.161 42.2503 619.751 41.0303C620 40.9537 624.338 40.6919 625.413 40.2511C626.165 39.9502 624.876 38.8703 626.398 38.5067C627.916 38.1418 629.539 39.0629 632.056 38.638C634.566 38.2009 633.498 37.0141 638.488 36.9782ZM593.743 215.684C597.729 216.748 598.377 213.165 594.046 213.936C593.832 213.977 593.533 215.632 593.743 215.684ZM410.644 52.2204C405.55 50.6216 401.74 52.9507 405.525 54.1812C409.257 55.4114 412.222 52.7054 410.644 52.2204ZM465.071 51.2956C458.933 50.0141 457.949 55.1094 464.525 54.1114C464.908 54.055 465.431 51.3701 465.071 51.2956ZM644.55 51.9621C644.496 51.9152 641.239 51.8263 641.162 51.8709C639.409 52.9901 645.926 53.1688 644.55 51.9621ZM519.078 50.2705C517.16 49.5749 511.644 50.3521 514.018 51.2183C515.928 51.9154 521.464 51.1362 519.078 50.2705ZM802.903 218.867C802.968 218.921 805.287 218.986 805.241 218.682C805.096 217.705 801.856 217.958 802.903 218.867ZM610.9 49.739C597.311 49.8868 589.07 45.7234 603.748 45.9767C606.35 46.0149 598.125 47.4218 601.484 47.742C607.726 48.3165 611.74 45.5968 618.071 46.7312C619.307 46.9493 611.714 49.7547 610.875 49.7455C610.884 49.7433 610.892 49.7411 610.9 49.739ZM595.955 220.051C595.985 220.098 599.292 220.219 599.353 220.175C601.143 219.074 594.589 218.83 595.955 220.051ZM938.588 221.482C938.766 221.583 946.238 221.667 946.482 221.573C950.377 219.7 935.27 219.526 938.588 221.482ZM378.758 222.059C374.994 222.748 370.508 221.885 368.131 219.668C371.584 220.753 375.158 221.516 378.758 222.059Z" fill="black"/>
</svg>
