<svg width="328" height="93" viewBox="0 0 328 93" fill="none" xmlns="http://www.w3.org/2000/svg">
<g filter="url(#filter0_d_1506_2067)">
<path d="M137.942 7.98121C128.355 7.97795 117.522 8.38699 108.023 7.79716C95.167 8.50209 40.5804 7.68988 27.7277 7.9435C17.2086 8.15058 9.76184 15.9343 9.77218 26.4555C9.77551 29.8382 9.77706 33.2208 9.77682 36.6035C9.77549 55.7186 25.0645 71.3942 44.1791 71.2518C44.6304 71.2485 45.0817 71.2449 45.533 71.2411C50.6825 71.2335 86.1292 70.8979 101.523 71.3116C105.874 71.4285 110.232 71.4184 114.581 71.2546C133.72 70.5336 179.971 71.1699 189.97 71.2163L279.447 71.0609L286.933 71.1981C303.681 71.1994 316.62 58.4021 316.583 41.6537C316.542 23.1527 301.301 8.18619 282.801 8.28238C252.558 8.43962 222.043 7.9924 192.068 7.99098L137.942 7.98121Z" fill="#880404"/>
<path d="M114.765 0.0395694C118.486 -0.0861611 123.46 0.108749 127.306 0.373652C128.51 0.456304 127.906 0.892676 128.739 0.968809C130.371 1.117 131.892 0.887962 133.521 1.07235C134.061 1.13568 133.396 1.82189 133.962 1.87285C135.306 1.99213 136.623 2.02627 137.945 2.04339C139.64 2.0655 141.335 2.04576 143.095 2.12798C158.41 2.84439 173.465 3.10255 188.967 3.41538C189.964 3.43538 191.003 3.47501 192.068 3.52386C196.473 3.72464 201.332 4.09367 205.587 3.89221C206.204 3.86237 205.838 3.26374 205.956 3.21495C207.799 2.46847 207.183 3.67187 208.384 3.83707C213.151 4.48973 218.452 4.57457 223.042 4.372C224.994 4.2841 223.045 3.08581 225.006 3.76375C225.142 3.80958 224.643 4.44077 225.178 4.51172C226.391 4.67135 228.694 4.57244 229.634 4.62861C231.446 4.74007 231.746 4.7356 233.461 4.75356C235.804 4.78363 238.59 5.11609 241.105 4.98698C241.642 4.95753 240.935 4.30325 241.791 4.19755C242.649 4.09209 244.914 4.15979 245.677 4.31704C246.44 4.47443 246.112 4.98373 246.247 5.10158C247.354 6.09622 249.982 4.73967 250.319 4.70724C256.469 4.1585 261.736 4.95487 267.505 4.95616C271.884 4.95546 276.564 4.6903 280.729 4.70739C281.427 4.71065 282.11 4.71977 282.782 4.73272C287.332 4.82967 291.344 5.77702 295.631 7.27054C296.159 7.46057 295.806 6.51128 296.46 6.75003C303.409 9.30798 309.478 14.168 313.273 20.4048C313.649 21.0289 312.565 20.6537 312.899 21.2932C315.124 25.2412 316.152 31.7268 319.449 33.6912C319.92 36.1814 320.144 39.1851 319.767 41.6467C319.693 42.1476 319.598 42.623 319.482 43.0649C319.011 44.7616 318.401 43.0604 318.537 45.146C318.557 45.6214 319.261 45.0759 319.236 45.7944C319.122 48.8342 318.072 52.0197 317.179 54.9219C316.997 55.5162 317.586 55.5945 317.608 55.7998C317.762 57.5628 315.277 59.1101 314.907 59.4701C312.081 62.4715 310.323 64.7845 307.379 67.1393C306.687 67.6709 307.982 67.6462 307.317 68.1838C303.842 70.9646 299.49 72.8996 295.238 73.5737C294.297 73.7179 294.994 72.8784 294.542 72.9112C292.576 73.0239 292.343 74.3132 290.391 74.26C289.985 74.2434 290.16 73.6621 290.082 73.6075C288.897 72.7439 288.008 74.1383 287.7 74.1752C287.439 74.21 287.184 74.2326 286.933 74.2447L286.877 74.2441C284.089 74.3404 282.109 73.265 279.407 73.2099L279.451 73.2103C279.234 73.2102 279.012 73.2168 278.786 73.2312C278.393 73.2576 279.28 73.9672 278.176 73.998C270.821 74.207 263.043 74.0252 255.762 73.4691C254.63 73.3836 255.437 72.8479 255.365 72.7822C254.203 71.7553 253.454 73.1353 253.085 73.1878C250.174 73.5666 247.452 72.4152 245.477 74.0607C233.145 73.5123 220.872 74.4557 208.64 73.0058C208.484 72.9891 208.762 72.3096 208.452 72.2791C204.716 71.9043 205.435 72.9583 202.966 74.2533C202.344 74.5784 200.447 73.0235 200.279 72.9096C199.668 72.4897 200.299 71.4785 200.095 71.3973C198.402 70.7602 198.683 74.1003 196.401 74.1054C196.33 74.0999 196.629 73.4845 196.437 73.4237C195.842 73.2328 195.252 73.4782 194.669 73.2675C193.336 72.7801 192.858 71.1576 190.824 72.1059C190.625 72.201 190.817 73.3535 189.974 73.833L189.958 73.8329C189.732 73.9725 189.41 74.053 188.903 74.0293C188.123 73.9879 184.458 73.9882 183.499 73.8562C182.468 73.724 183.183 73.12 183.11 73.0928C180.432 72.2605 181.412 71.9349 180.096 70.7271C178.747 69.5235 179.072 72.3672 178.534 72.6793C177.996 72.9905 175.987 72.3059 175.514 72.0701C175.027 71.834 175.641 71.4515 175.206 71.3164C172.325 70.4342 173.933 72.7152 172.977 73.1577C170.719 74.2057 169.015 72.0852 166.952 71.8629C166.395 71.8029 166.846 72.2861 166.355 72.3273C164.406 72.4841 163.236 71.8184 161.002 72.4068C160.646 72.5027 158.826 73.7581 157.678 72.8224C157.514 72.6875 157.985 72.1651 157.153 72.043C155.905 71.8597 153.67 71.7345 152.329 71.905C151.342 72.0311 152.47 72.9002 151.229 72.6271C150.677 72.5052 151.703 72.0026 150.665 71.8159C149.632 71.629 146.996 71.6448 145.989 71.6611C144.987 71.6775 145.535 72.3344 145.454 72.3785C144.965 72.6308 143.04 72.946 142.87 72.9454C134.308 73.03 126.378 71.9473 118.068 72.5185C117.406 72.5638 117.866 73.2438 117.766 73.2578C115.558 73.6112 117.278 71.7196 115.664 71.1545C115.864 72.1547 115.423 72.323 114.625 72.4164C114.293 72.454 113.896 72.479 113.446 72.5367C112.683 72.6353 113.116 73.1659 113.047 73.2238C111.928 74.0824 111.107 73.0295 110.901 72.8152C110.135 72.0266 109.33 72.984 108.812 72.4512C108.299 71.9219 109.464 71.1262 107.95 71.1441C107.525 71.6479 108.661 72.9584 107.502 73.1741C105.873 73.4763 103.712 73.5014 101.468 73.3736C97.7595 73.1625 93.7495 72.6934 91.5627 72.6068C88.0773 72.4719 86.9643 72.5623 84.9272 72.3726C81.2655 72.0335 82.609 73.0121 80.3304 73.4548C78.0511 73.8991 79.1591 71.5023 78.8316 70.9866C78.5087 70.4713 78.1569 71.0016 77.7563 70.7184C77.3567 70.4353 78.2217 70.0847 77.2818 69.9786C76.3401 69.8723 73.7727 70.7921 73.4377 71.3319C72.7348 72.4752 73.8949 73.6709 71.4084 73.2553C71.265 73.2307 71.7289 72.5991 71.1796 72.5367C66.8303 72.0619 62.3113 72.0519 57.9614 71.6469C57.3734 71.5901 57.8998 70.8858 57.5476 70.8449C53.9076 70.4172 55.2429 71.5923 53.2397 72.9182C53.6731 71.1672 52.5705 70.1043 49.8269 70.1113C48.1777 70.1146 48.4576 70.8766 47.387 71.4209C47.0745 71.585 45.9088 71.0663 45.6847 71.4255C45.6149 71.5512 45.5682 71.6784 45.5339 71.8048C45.2551 72.7106 45.6669 73.5695 44.196 73.516C43.9322 73.507 43.6125 73.4699 43.2279 73.3956C43.0981 73.3682 43.5238 72.7341 43.0767 72.686C40.2142 72.3042 39.7539 73.5121 36.5295 73.0662C33.9816 72.7191 29.9534 70.5418 27.5554 69.0878C28.4808 67.3715 26.1054 66.5812 24.4632 67.09C22.9712 66.047 21.3634 64.8905 20.19 63.5692C19.7878 63.1152 20.4663 62.9642 20.4515 62.8675C20.2795 61.3965 18.8331 61.7888 18.5173 61.5344C15.2275 58.7592 14.1381 55.3538 11.5406 52.1574C11.4531 52.047 10.0924 52.3891 10.5744 50.9728C10.6147 50.8867 11.695 51.8717 11.015 50.1007C10.3177 48.3028 10.0137 44.7498 9.02351 42.2763C8.77139 41.6949 7.45802 40.168 8.25263 38.7947C8.36012 38.6148 8.76147 38.7803 8.96567 38.5221C9.56169 37.7811 8.46282 37.3881 9.14506 36.6034C9.21248 36.5291 9.29708 36.4514 9.40219 36.3698C10.5746 35.4599 11.4527 33.566 10.6425 31.0091C10.6189 30.9276 9.52477 30.3229 9.54153 29.5188C9.56047 28.6409 9.67233 27.5109 9.73833 26.4555C9.76881 25.962 9.80609 25.4989 9.83056 25.0724C9.87133 24.4333 9.16585 24.7894 9.16134 24.6769C9.21984 20.1967 10.9881 17.0381 14.1986 13.6994C14.7413 13.1029 16.042 10.6394 17.9245 10.3888C19.9077 10.2218 19.9001 13.7829 22.7536 11.7953C23.7343 11.1534 24.9524 7.1679 27.7321 8.16518C27.9553 8.26074 28.1969 8.39692 28.4583 8.58019C34.2802 7.96725 39.6926 9.12654 45.5013 8.37215C45.7601 8.33895 46.6231 7.16225 47.2217 7.18126C48.1297 7.21184 48.6347 7.76627 49.2977 7.80605C52.0166 7.98641 54.5613 7.52872 57.1867 7.61699C58.1904 7.64934 57.8461 8.218 59.0357 8.2566C60.2242 8.29464 61.0422 7.54787 62.6519 7.91957C63.8735 8.20284 65.0924 9.74519 66.7158 9.93246C66.7852 8.41789 67.9026 8.45498 69.888 8.06435C70.2694 7.98853 69.8632 7.45939 70.0438 7.39632C70.7778 7.12796 71.4564 7.56796 72.1556 7.27512C72.3256 7.20479 72.3358 6.6875 72.4747 6.6008C73.6532 5.84398 75.5949 7.01478 75.9267 7.21845C77.197 7.99225 77.8016 7.32115 78.7822 7.62682C79.7592 7.93233 78.2969 8.30735 79.4376 8.4941C81.8095 8.8804 84.8544 8.80063 87.265 8.82221C88.2285 8.82762 87.5704 8.13766 87.7084 8.1224C89.6732 7.94542 91.682 8.67351 92.8014 7.29264C94.1907 10.842 94.0103 6.94409 96.8251 7.63352C97.0492 7.68909 97.3347 9.36873 96.4994 9.6228C95.6631 9.87659 94.3173 9.35992 93.149 9.75034C92.8678 9.84233 91.2399 11.4248 91.0302 11.5206C89.307 12.2719 89.0318 9.75811 88.9503 9.62038C87.9366 8.13271 85.9251 9.83155 85.4235 9.94858C83.0356 10.4858 81.0091 10.1285 79.0276 10.5072C77.7269 10.7518 77.5809 12.3976 76.5671 12.344C73.1634 12.1658 71.9892 9.86376 68.779 11.8401C68.0902 12.2614 68.7634 14.0644 66.3092 12.637C66.1548 12.5471 64.3365 11.2432 63.2747 12.0561C63.1416 12.1587 63.1429 12.6831 62.968 12.7262C61.7982 13.0048 61.0152 12.5827 59.7383 12.7756C58.4723 12.9686 56.9153 13.2581 55.4756 13.0721C54.5922 12.9607 53.4693 11.9774 53.0549 11.7359C51.886 11.0403 50.5818 12.1631 49.8664 11.3249C49.1321 10.4824 50.5981 9.21632 48.6405 8.66433C48.5611 10.0264 48.3877 11.424 48.2648 12.7936C43.992 12.7245 39.8677 12.265 35.5603 12.3247C35.0324 12.3336 35.5696 13.0659 35.0095 13.0945C32.6247 13.2137 30.5206 12.6942 28.1195 12.941C28.0199 12.952 27.9223 12.9649 27.8271 12.9797C26.4003 13.2214 25.0858 14.1423 23.9528 14.6996C22.6632 13.4355 20.7877 14.8474 19.5674 15.7013C19.1192 15.9998 18.8781 15.6636 18.488 15.8311C17.0378 16.5381 18.5516 17.004 18.4425 17.4276C18.167 19.2106 15.4862 17.4967 14.4938 19.6808C14.4159 19.8204 15.4646 21.7406 15.5403 21.9123C15.8687 23.2174 14.9234 21.9321 14.6129 22.6462C14.1127 23.8852 13.6175 24.8744 13.9684 26.4514C13.9914 26.5731 14.0174 26.6976 14.0464 26.8253C14.1912 27.4512 15.2286 28.9526 14.4279 30.1691C14.323 30.3292 13.7736 30.2411 13.7415 30.3698C13.2063 32.7005 14.9326 32.7611 15.5176 34.0929C15.8459 34.8407 15.6144 35.8172 15.2873 36.6039C15.0314 37.1261 14.7322 37.5639 14.5874 37.7282C13.7374 38.718 14.18 37.0071 14.1021 36.9557C13.0616 36.3405 13.2355 37.6888 13.2233 38.7293C11.535 38.9874 11.781 40.5045 13.2282 39.8069C13.3838 39.7325 13.157 38.9445 13.2233 38.7293C14.942 39.5433 15.2793 40.8847 14.1015 42.8834C13.5724 43.8311 12.5145 43.2668 13.4849 45.6794C13.9529 46.7557 14.9342 45.9851 15.5471 46.8108C16.9319 48.6486 17.2089 51.7024 18.6565 53.5851C19.1709 54.2513 19.2519 53.2201 19.6197 53.653C20.5941 54.7759 21.0373 56.1121 22.2326 57.065C22.3402 57.1484 22.6134 56.4591 22.9279 56.788C25.3296 59.233 27.4778 61.4476 30.7021 63.1519C32.2542 64.0012 35.3028 64.7611 37.0263 65.2226C39.1733 65.8588 41.7626 66.7074 44.1465 66.8778C44.6098 66.9085 45.0613 66.9292 45.4967 66.936L45.5267 66.9359C46.0079 66.948 46.5591 66.9373 47.0243 66.8989C49.0589 66.7365 48.6277 66.0705 49.4923 65.6101C51.1922 64.7172 54.2012 66.2787 54.6109 66.5211C54.6415 66.529 52.8423 66.6975 53.7997 67.0345C54.3709 67.7455 54.5882 66.5243 54.6109 66.5211C54.8701 66.6774 58.4105 66.8086 59.1104 66.6774C59.4965 66.6055 59.2769 65.9738 59.4791 65.9483C64.1878 65.3571 68.9297 65.1771 73.7237 65.4652C73.8083 65.4778 73.6821 66.1859 73.8811 66.2068C76.6546 66.5175 78.435 65.6513 80.7243 65.1395C83.0189 64.6283 84.8311 64.8063 86.1901 66.0273C87.92 65.8811 90.3987 66.4342 91.8283 66.7733C93.2494 67.112 93.4659 65.7371 93.5941 65.711C96.76 65.0467 98.8604 65.4478 101.673 65.7575C102.34 65.8337 103.051 65.9 103.83 65.9374C105.708 66.0376 109.428 65.835 111.446 65.6319C112.607 65.5178 113.437 65.6387 114.369 65.611C114.721 65.6003 115.095 65.5699 115.519 65.4997C115.73 65.4651 115.495 64.8589 115.559 64.8332C117.294 64.0438 116.48 65.5709 116.847 65.8276C118.165 66.765 118.958 67.2622 121.143 66.7604C121.632 66.6456 123.092 64.4599 123.996 64.3207C125.193 64.1433 124.773 64.9231 126.002 64.72C126.109 64.7034 126.077 64.2259 126.853 64.2381C130.443 64.2889 134.346 64.545 138.058 64.4884C138.568 64.4826 137.914 63.7265 138.649 63.7056C142.089 63.6087 145.852 63.6402 149.198 64.0042C150.021 64.0962 149.504 64.6251 149.682 64.7831C150.777 65.7392 152.337 64.3605 152.593 64.3352C158.722 63.6949 163.408 64.9794 169.634 64.4327C169.987 64.4004 172.603 62.938 173.759 64.2213C173.828 64.3065 174.987 65.6191 176.008 64.7379C176.07 64.6827 175.37 64.0059 176.603 64.0854C177.881 64.1651 179.885 63.736 181.602 64.4887C182.147 64.7259 183.432 66.0372 185.053 65.0161C185.189 64.9452 187.647 62.6251 188.566 64.2469C188.686 64.4905 188.588 65.939 189.996 65.5267L189.96 65.5266C190.098 65.4867 190.25 65.43 190.417 65.3539C190.788 65.1833 190.114 64.8031 191.09 64.5633C192.586 64.1937 194.569 64.6482 196.407 63.8834C196.728 63.748 198.091 62.5851 199.188 63.464C199.36 63.6017 199.035 64.173 199.614 64.2359C202.365 64.5375 205.244 64.1507 208.038 64.5408C209.027 64.6778 208.523 65.6015 209.555 65.8469C210.587 66.0923 212.665 66.3265 213.743 65.903C214.822 65.4793 213.64 64.0107 215.257 63.8902C222.285 63.3669 229.25 64.2175 236.269 64.3315C237.311 64.3485 236.447 63.8238 237.981 63.8111C243.637 63.7622 253.401 63.2518 258.311 64.3615C262.245 65.2502 257.298 65.9407 260.303 66.2999C261.754 66.4713 263.32 64.7588 263.67 64.7043C267.088 64.1516 269.466 64.9049 272.544 64.6671C273.179 64.6178 272.555 63.9259 273.096 63.8916C274.943 63.7682 276.886 64.0742 278.651 64.0145C279.109 63.9981 279.253 63.8144 279.434 63.6699L279.582 63.6712C279.716 63.5684 279.87 63.487 280.177 63.5098C281.919 63.6334 283.457 63.8841 285.147 64.4113C285.301 64.4593 284.245 65.0985 285.534 65.1466C286.013 65.1641 286.519 65.2058 287.042 65.2542L286.934 65.2532C288.369 65.3872 290.026 65.453 291.434 64.8048C291.977 64.5465 291.739 63.3802 293.088 63.91C293.366 64.0117 293.461 65.5184 294.478 63.9003C294.702 63.6322 296.177 61.2953 297.604 61.7557C297.986 61.8868 299.254 62.5606 299.758 62.0341C299.819 61.9611 299.174 61.5955 299.612 61.2517C301.145 60.0493 302.759 58.808 303.943 57.2193C304.251 56.7974 303.243 56.9128 303.7 56.3088C304.95 54.6582 306.452 52.5788 307.438 50.7541C307.803 50.0837 308.117 50.7775 308.194 50.7516C309.461 50.2552 308.384 49.2586 308.398 48.9664C308.509 47.0741 309.386 45.8159 309.399 44.0392C309.398 43.5575 308.735 43.8426 308.687 43.7432C308.207 42.742 309.294 43.5426 309.455 42.918C309.556 42.5185 309.626 42.1006 309.669 41.6689C309.813 40.2073 309.635 38.6737 309.335 37.2975C309.189 36.6436 308.597 37.5072 308.472 36.9331C307.706 33.5555 306.386 30.2251 304.781 27.1581C304.478 26.5804 305.173 26.5915 305.201 26.4051C305.385 25.0745 303.5 24.7193 303.213 24.5773C301.863 23.8513 301.839 23.1222 300.835 22.3182C296.02 18.3612 288.811 15.3592 282.857 15.326C282.85 15.3258 282.844 15.3256 282.837 15.3254C273.145 15.1091 265.629 14.5635 256.399 14.6732C255.812 14.6793 256.402 15.435 255.895 15.45C249.36 15.6082 242.931 15.2774 236.39 15.4549C235.853 15.4682 236.622 16.1874 235.76 16.2326C233.993 16.3304 231.755 16.2775 229.971 16.0381C229.1 15.9227 230.273 15.317 229.397 15.2134C227.357 14.9707 225.169 14.9061 223.072 15.0079C222.18 15.0528 223.521 15.7916 222.362 15.7931C214.464 15.818 206.715 15.9029 198.748 14.9402C198.202 14.8741 197.725 13.388 196.562 13.6711C196.474 14.0831 196.478 14.5679 196.44 15.0084C194.981 15.0365 193.522 15.0534 192.067 15.0616C182.049 15.1167 172.095 14.7139 162.027 14.6426C161.54 14.6393 162.381 15.4263 161.439 15.424C155.99 15.4114 150.698 15.6284 145.124 14.8453C144.571 14.7687 144.855 13.3845 143.225 13.5935C142.937 13.6317 140.483 13.8158 139.848 14.1162C139.762 14.1615 140.209 14.8077 139.418 14.8264C138.928 14.8368 138.436 14.8444 137.941 14.8492C133.883 14.889 129.61 14.806 125.477 14.491C124.73 14.4329 125.519 13.7377 124.987 13.6902C121.219 13.3588 117.075 13.8849 113.416 13.1613C110.971 12.6685 111.919 11.5052 110.675 10.2855C110.499 10.1147 108.996 10.0154 108.958 9.32924C108.857 7.60858 109.665 5.77332 109.471 3.93473C109.431 3.54183 107.492 3.84949 108.68 2.9691C108.762 2.912 110.166 2.67151 110.52 2.36292C110.767 2.15095 110.372 1.43987 110.867 1.17626C111.359 0.912257 111.866 1.51417 112.681 1.20526C113.494 0.890045 113.162 0.0958371 114.765 0.0395694ZM98.2455 68.3125C99.5666 68.999 99.8187 66.5798 98.3523 67.1321C98.2838 67.1618 98.1791 68.2789 98.2455 68.3125ZM39.8529 10.4424C38.177 9.36884 36.9344 10.9397 38.1692 11.7672C39.4054 12.5942 40.3657 10.768 39.8529 10.4424ZM57.7217 9.74794C55.7101 8.89362 55.3762 12.3289 57.5364 11.6463C57.6624 11.6077 57.8396 9.79755 57.7217 9.74794ZM116.645 10.1083C116.627 10.0765 115.553 10.0294 115.527 10.0603C114.941 10.8215 117.094 10.9157 116.645 10.1083ZM75.4594 8.98562C74.83 8.51854 73.0185 9.04814 73.7964 9.62936C74.4216 10.097 76.2424 9.56676 75.4594 8.98562ZM166.905 70.6794C166.927 70.7156 167.697 70.7541 167.683 70.5498C167.637 69.8918 166.56 70.0692 166.905 70.6794ZM105.627 8.77151C101.148 8.76815 98.4341 5.94702 103.241 6.18563C104.095 6.22592 101.409 7.12839 102.513 7.36235C104.568 7.7852 105.853 5.97544 107.936 6.82636C108.351 6.98555 105.9 8.78331 105.619 8.77572C105.622 8.77432 105.624 8.77291 105.627 8.77151ZM98.9579 71.2377C98.9901 71.2701 100.031 71.3222 100.056 71.2913C100.641 70.5339 98.5316 70.4279 98.9579 71.2377ZM211.468 72.3381C211.526 72.4063 213.98 72.4659 214.06 72.4029C215.338 71.1423 210.377 71.018 211.468 72.3381ZM27.5402 69.0209C26.1059 69.1538 24.7352 68.4395 24.4672 67.0939C25.444 67.7979 26.4873 68.4196 27.5402 69.0209Z" fill="#8A0000"/>
</g>
<defs>
<filter id="filter0_d_1506_2067" x="0" y="0" width="327.957" height="92.2979" filterUnits="userSpaceOnUse" color-interpolation-filters="sRGB">
<feFlood flood-opacity="0" result="BackgroundImageFix"/>
<feColorMatrix in="SourceAlpha" type="matrix" values="0 0 0 0 0 0 0 0 0 0 0 0 0 0 0 0 0 0 127 0" result="hardAlpha"/>
<feOffset dy="10"/>
<feGaussianBlur stdDeviation="4"/>
<feComposite in2="hardAlpha" operator="out"/>
<feColorMatrix type="matrix" values="0 0 0 0 0 0 0 0 0 0 0 0 0 0 0 0 0 0 0.65 0"/>
<feBlend mode="normal" in2="BackgroundImageFix" result="effect1_dropShadow_1506_2067"/>
<feBlend mode="normal" in="SourceGraphic" in2="effect1_dropShadow_1506_2067" result="shape"/>
</filter>
</defs>
</svg>
