<svg width="374" height="5" viewBox="0 0 374 5" fill="none" xmlns="http://www.w3.org/2000/svg">
<path d="M3.55552 0.0254245C5.64728 -0.0397072 8.38924 0.0299344 10.4731 0.125522C11.1262 0.155168 10.7955 0.287689 11.2463 0.31412C12.128 0.365646 12.9495 0.300653 13.8208 0.362032C14.1096 0.383023 13.7501 0.592935 14.0529 0.610139C15.7122 0.702909 17.2819 0.649442 18.9627 0.694063C27.242 0.914213 35.3803 0.993012 43.7609 1.08865C46.5242 1.12001 49.8833 1.31051 52.7375 1.2272C53.0707 1.21729 52.8721 1.03304 52.9355 1.01785C53.9297 0.785374 53.5992 1.15734 54.2483 1.20676C56.825 1.40188 59.6902 1.41886 62.1698 1.34775C63.2247 1.31696 62.167 0.950988 63.2292 1.1564C63.303 1.17028 63.0353 1.36594 63.3246 1.38681C63.9807 1.43375 65.2255 1.39877 65.734 1.41428C66.7139 1.44514 66.8761 1.44317 67.803 1.4454C69.0701 1.45015 70.5772 1.54741 71.9367 1.50308C72.2269 1.49304 71.8427 1.29246 72.3055 1.25833C72.7688 1.22425 73.9942 1.24126 74.4073 1.28854C74.8205 1.33585 74.6446 1.4935 74.7177 1.52963C75.3193 1.83462 76.7368 1.41221 76.9192 1.40176C80.2445 1.22377 83.0961 1.4644 86.2176 1.46371C88.5872 1.46268 91.1211 1.38324 93.3758 1.39413C96.0621 1.40789 98.3388 1.51658 100.948 1.49789C101.224 1.49615 100.901 1.26032 101.237 1.25772C104.811 1.23028 108.36 1.25599 111.919 1.41519C112.275 1.43136 111.816 1.63842 112.172 1.66696C114.355 1.83712 117.809 2.24589 119.105 1.34439C120.584 1.37959 122.379 1.41596 123.702 1.59769C124.555 1.71464 123.726 1.94021 124.774 1.84396C125.01 1.82252 124.703 1.62498 125.057 1.60776C126.549 1.53544 128.179 1.59965 129.655 1.49759C129.956 1.47636 129.874 1.29936 129.959 1.26749C130.674 1.00935 131.864 1.43606 132.123 1.46707C134.099 1.69829 135.541 1.6073 137.382 1.61294C137.809 1.61435 137.304 1.3766 137.715 1.36941C139.846 1.33534 142.054 1.35577 144.141 1.46127C144.605 1.48531 144.179 1.68783 144.4 1.70968C145.379 1.80356 145.595 1.42104 146.534 1.50369C146.731 1.52062 146.62 1.694 146.656 1.71304C147.221 2.01194 147.711 1.58842 147.856 1.57907C149.693 1.45131 150.868 1.89345 152.642 1.83084C152.855 1.8229 152.376 1.60353 152.973 1.59463C156.949 1.53407 161.154 1.59434 165.089 1.7698C165.701 1.79679 165.264 1.96159 165.303 1.9819C165.93 2.29932 166.336 1.87402 166.536 1.858C168.11 1.7427 169.58 2.09937 170.65 1.5928C177.316 1.7686 183.951 1.48413 190.562 1.93796C190.646 1.94321 190.496 2.15267 190.663 2.16226C192.683 2.27987 192.295 1.95433 193.631 1.55618C193.967 1.4562 194.991 1.9369 195.082 1.97213C195.412 2.10198 195.07 2.4136 195.18 2.43875C196.095 2.63621 195.946 1.60565 197.179 1.60531C197.218 1.60703 197.056 1.79672 197.159 1.81558C197.481 1.87479 197.8 1.79942 198.115 1.86471C198.835 2.0158 199.092 2.51656 200.192 2.22512C200.332 2.1873 200.119 1.60272 201.221 1.63034C201.66 1.64184 203.603 1.63182 204.148 1.66971C204.692 1.70754 204.319 1.89592 204.358 1.90408C205.824 2.15318 205.268 2.25642 206.002 2.62521C206.737 2.99261 206.533 2.11633 206.832 2.01852C207.132 1.92099 208.207 2.12652 208.471 2.19796C208.735 2.26944 208.406 2.38914 208.641 2.42959C210.197 2.69386 209.324 1.99464 209.837 1.85556C211.046 1.52624 211.988 2.1761 213.095 2.23977C213.394 2.25697 213.15 2.10896 213.417 2.09512C214.473 2.04226 215.108 2.24503 216.31 2.05911C216.507 2.02881 217.478 1.6381 218.107 1.92483C218.196 1.96618 217.943 2.12812 218.393 2.16439C219.066 2.21883 220.278 2.25423 221.001 2.2001C221.534 2.16005 220.923 1.89321 221.594 1.9761C221.893 2.01312 221.34 2.16922 221.901 2.22573C222.459 2.28223 223.885 2.27538 224.428 2.26999C224.97 2.26448 224.673 2.06206 224.717 2.04843C224.982 1.97032 226.022 1.87271 226.114 1.87295C230.75 1.84824 235.024 2.18943 239.538 2.0765C239.892 2.06794 239.656 1.85449 239.71 1.85098C240.923 1.76155 239.967 2.32906 240.814 2.51901C240.691 2.08586 241.191 2.16429 242.045 2.11679C242.457 2.09354 242.233 1.92583 242.27 1.90866C242.881 1.65392 243.306 1.98295 243.415 2.05026C243.819 2.29786 244.259 2.0053 244.534 2.1708C244.809 2.33507 244.177 2.57858 244.996 2.57547C245.226 2.42041 244.617 2.01522 245.239 1.94955C247.586 1.70115 251.966 2.01907 253.853 2.05209C255.736 2.08509 256.344 2.05648 257.441 2.11252C259.423 2.21383 258.697 1.91321 259.927 1.7756C261.162 1.63801 260.562 2.3777 260.739 2.53671C260.913 2.69565 261.103 2.53204 261.32 2.61941C261.536 2.70676 261.068 2.81488 261.576 2.84768C262.085 2.88045 263.474 2.59769 263.654 2.43142C264.035 2.07918 263.409 1.70948 264.753 1.83938C264.831 1.84709 264.579 2.04159 264.876 2.06125C267.228 2.21098 269.671 2.22026 272.02 2.35269C272.343 2.3712 272.054 2.58757 272.242 2.60079C274.2 2.73919 273.5 2.37436 274.573 1.96908C274.332 2.50842 274.925 2.83839 276.411 2.84158C277.304 2.84368 277.15 2.60812 277.728 2.4421C277.902 2.39206 278.534 2.5538 278.648 2.44302C279.026 2.0809 278.431 1.67553 279.962 1.83694C280.03 1.84461 279.816 2.04283 280.048 2.05484C281.549 2.13341 281.729 1.75464 283.351 1.70877C284.623 1.67278 286.886 1.90375 288.334 1.94131C288.303 2.54769 289.671 2.40883 290.226 1.99075C291.166 2.00787 292.181 1.98423 293.09 2.04202C293.403 2.06172 293.197 2.23728 293.237 2.25625C293.841 2.55383 294.25 2.14708 294.453 2.13113C296.651 1.97612 298.443 2.2844 300.541 1.98312C300.616 1.97227 300.737 1.55106 301.298 1.85861C301.334 1.87981 300.641 2.07145 301.628 2.08627C302.615 2.10112 304.477 2.32692 305.847 2.13174C306.179 2.08475 307.018 1.74282 307.691 2.00998C307.781 2.04625 307.683 2.16706 307.812 2.23428C308.231 2.44848 308.459 2.02274 308.951 2.38443C309.443 2.74609 310.467 3.01696 311.849 2.76742C311.893 2.76017 312.22 2.42273 312.655 2.42807C313.349 2.43687 314.334 2.50717 315.059 2.50497C315.406 2.5038 315.184 2.29426 315.244 2.29043C317.576 2.17302 319.237 2.35981 321.736 2.44088C322.194 2.45616 323.51 2.17043 324.397 2.39633C325.371 2.64361 324.37 3.67228 326.608 3.42721C327.511 3.32918 328.654 2.02413 330.277 2.70028C333.423 2.53274 336.333 2.87879 339.488 2.63955C339.63 2.62895 340.079 2.26472 340.412 2.26968C340.907 2.27774 341.179 2.44798 341.533 2.45919C343.015 2.51047 344.37 2.36482 345.799 2.38748C346.341 2.39571 346.152 2.57173 346.799 2.58157C347.445 2.59124 347.876 2.35946 348.752 2.4714C349.414 2.55673 350.076 3.03049 350.954 3.08572C350.987 2.6184 351.59 2.62803 352.663 2.50466C352.869 2.48073 352.648 2.31808 352.745 2.29837C353.142 2.21454 353.509 2.34934 353.886 2.25808C353.977 2.23617 353.982 2.07657 354.057 2.04965C354.694 1.81462 355.743 2.17361 355.923 2.23611C356.614 2.47349 356.937 2.26592 357.467 2.3594C357.996 2.45287 357.205 2.56971 357.823 2.62643C359.104 2.74375 360.75 2.71797 362.051 2.72531C362.57 2.72725 362.216 2.51422 362.29 2.50955C363.363 2.45552 364.449 2.68212 365.044 2.25778C365.788 3.35497 365.691 2.15136 367.225 2.371C367.346 2.38876 367.5 2.90762 367.036 2.98379C366.572 3.05989 365.868 2.8977 365.225 3.01644C365.072 3.04431 364.199 3.53051 364.08 3.55996C363.147 3.79013 363.014 3.01478 362.965 2.97219C362.405 2.51261 361.338 3.0364 361.057 3.0726C359.771 3.23843 358.679 3.12939 357.604 3.24777C356.9 3.32427 356.832 3.83216 356.279 3.81661C354.444 3.76523 353.803 3.05672 352.073 3.67104C351.702 3.80207 352.071 4.35717 350.742 3.92068C350.658 3.89316 349.671 3.49384 349.101 3.74642C349.03 3.77827 349.032 3.94004 348.937 3.95363C348.305 4.04154 347.883 3.91266 347.193 3.97439C346.504 4.03611 345.675 4.12813 344.888 4.07326C344.413 4.04045 343.805 3.73904 343.578 3.66524C342.936 3.45266 342.249 3.80121 341.852 3.54378C341.451 3.28507 342.234 2.89216 341.184 2.725C341.145 3.14531 341.056 3.57672 340.993 3.99941C338.691 3.98461 336.426 3.8487 334.117 3.86727C333.831 3.86999 334.123 4.09595 333.816 4.1047C332.521 4.14059 331.39 3.97951 330.047 4.04366C329.008 4.09418 327.868 4.33342 326.781 4.3937C326.117 3.91274 324.504 4.07602 323.332 4.03206C322.921 4.01688 322.949 3.88842 322.657 3.84652C321.556 3.69153 322.072 4.11655 321.77 4.18343C320.474 4.46889 320.364 3.50689 318.836 3.53066C318.755 3.5316 317.767 4.04438 317.63 4.07631C316.765 4.28454 317.487 3.89783 316.945 3.85995C315.956 3.79071 315.269 3.66825 314.109 3.81844C313.77 3.86293 312.959 4.18254 312.302 3.93532C312.216 3.90295 312.263 3.73346 312.194 3.72353C310.934 3.55807 310.901 4.09065 310.182 4.27102C309.462 4.45135 308.35 4.0837 308.124 3.97774C307.532 3.70363 308.578 3.8606 308.61 3.8337C308.986 3.51358 308.175 3.5687 307.556 3.54165C307.466 3.01945 306.6 3.0508 306.914 3.51571C306.949 3.56649 307.431 3.51779 307.556 3.54165C307.012 4.05399 306.06 4.11961 305.008 3.64083C304.516 3.41643 304.981 3.1548 303.486 3.25051C302.808 3.29372 303.07 3.65328 302.471 3.7513C301.103 3.97496 299.325 3.63956 297.914 3.69241C297.402 3.71159 297.901 3.90841 297.551 3.92831C296.623 3.98172 295.804 3.83404 294.871 3.90969C294.787 3.91679 294.993 4.12282 294.703 4.12545C292.505 4.14938 290.591 4.01741 288.295 4.01375C287.186 4.01208 285.204 4.12571 284.055 4.10287C282.064 4.06449 279.614 3.76489 277.913 3.83767C276.804 3.88426 277.047 4.09033 276.572 4.23073C275.655 4.5029 274.031 4.01539 273.812 3.9399C273.806 3.9374 274.76 3.88882 274.251 3.78304C273.955 3.56263 273.823 3.93895 273.812 3.9399C273.669 3.89114 271.762 3.84436 271.383 3.88375C271.177 3.90528 271.292 4.10052 271.185 4.10805C268.635 4.28278 266.081 4.3324 263.494 4.24111C263.449 4.23717 263.517 4.01878 263.41 4.01223C261.913 3.91513 260.954 4.18229 259.719 4.3409C258.485 4.49945 257.506 4.44635 256.775 4.07143C255.843 4.11864 254.507 3.95289 253.737 3.85232C252.968 3.75175 252.861 4.17686 252.793 4.18526C250.683 4.45425 249.462 4.21092 247.273 4.17306C246.232 4.15432 244.167 4.21598 243.039 4.26247C242.148 4.29992 241.612 4.20029 240.791 4.264C240.68 4.2725 240.792 4.46179 240.758 4.46907C239.842 4.69554 240.282 4.23281 240.093 4.15017C239.407 3.84964 238.984 3.68958 237.811 3.83095C237.54 3.86333 236.752 4.5296 236.258 4.56856C235.617 4.618 235.859 4.37918 235.188 4.43703C235.13 4.44176 235.142 4.5891 234.728 4.5826C232.804 4.55438 230.706 4.46865 228.707 4.48342C228.434 4.48487 228.784 4.71856 228.39 4.72451C226.538 4.75221 224.509 4.74356 222.705 4.63417C222.261 4.60652 222.54 4.44289 222.443 4.39431C221.852 4.10035 221.012 4.52746 220.874 4.5356C217.571 4.74086 215.044 4.35432 211.678 4.53835C211.495 4.54915 210.085 5.00703 209.455 4.61434C209.412 4.58821 208.79 4.18644 208.239 4.46114C208.205 4.47833 208.593 4.68516 207.916 4.66408C207.239 4.64305 206.15 4.78117 205.219 4.55391C204.924 4.48232 204.228 4.08155 203.349 4.40102C203.292 4.42332 201.935 5.1457 201.451 4.6473C201.373 4.56526 201.455 4.03783 200.406 4.30825C200.206 4.36067 200.569 4.47832 200.042 4.55178C199.233 4.665 198.161 4.52373 197.167 4.75869C196.993 4.80028 196.255 5.15826 195.663 4.88655C195.57 4.844 195.746 4.66792 195.434 4.64821C193.947 4.55369 192.39 4.67147 190.88 4.54964C190.345 4.50683 190.618 4.22218 190.061 4.14589C189.503 4.06964 188.38 3.99628 187.797 4.12636C187.213 4.2565 187.851 4.71018 186.977 4.74648C183.177 4.90415 179.412 4.63801 175.618 4.59908C175.055 4.59327 175.522 4.7556 174.692 4.75869C171.635 4.77076 166.355 4.92297 163.702 4.57802C161.576 4.30174 164.252 4.0914 162.627 3.97896C161.843 3.92533 160.995 4.45277 160.806 4.46938C158.957 4.63806 157.672 4.40441 156.008 4.47609C155.665 4.49097 156.002 4.70475 155.709 4.71505C154.711 4.75212 153.661 4.6567 152.706 4.67415C152.278 4.68247 152.357 4.84575 151.963 4.83315C151.02 4.80488 150.187 4.73624 149.268 4.58321C149.184 4.56927 149.749 4.36616 149.051 4.3586C147.922 4.34695 146.521 4.19599 145.222 4.35189C144.837 4.39879 144.822 4.77195 143.993 4.51424C143.819 4.46042 144.041 4.01233 143.076 4.3995C142.914 4.46383 141.293 4.98605 140.497 4.64943C140.288 4.56084 139.752 4.19417 139.288 4.25179C139.226 4.26099 139.477 4.46143 139.093 4.48098C137.74 4.54639 136.322 4.52501 134.931 4.58779C134.56 4.60495 135.113 4.81236 134.559 4.83132C133.038 4.88374 131.138 4.83093 129.65 4.76601C129.101 4.74168 129.48 4.56986 129.44 4.55117C128.798 4.24704 128.419 4.65754 128.206 4.68148C126.881 4.8248 125.872 4.63197 124.65 4.683C124.313 4.69656 124.552 4.89229 124.485 4.90975C123.789 5.08027 124.307 4.72877 123.867 4.69002C122.633 4.58031 121.257 4.59604 120.009 4.62105C119.551 4.63053 120.066 4.85748 119.655 4.86336C117.22 4.90247 114.689 4.88075 112.313 4.75563C111.866 4.73166 112.147 4.5569 112.054 4.51699C111.411 4.23773 110.469 4.61864 110.253 4.65493C109.267 4.8206 108.884 4.66606 108.014 4.6949C103.763 4.83852 98.5137 4.73617 94.5007 4.67293C89.2715 4.59155 85.2137 4.42529 80.227 4.46846C79.91 4.47099 80.2296 4.70348 79.9564 4.70864C76.4291 4.76468 72.9565 4.67384 69.422 4.74099C69.132 4.74608 69.5501 4.96648 69.0845 4.98207C68.1297 5.0156 66.9201 5.00362 65.9547 4.93325C65.4838 4.89934 66.1154 4.71022 65.6414 4.67995C64.5378 4.60905 63.3547 4.59335 62.2211 4.62868C61.7386 4.6442 62.4665 4.86961 61.8395 4.87221C57.568 4.89457 53.3731 4.9334 49.0566 4.6415C48.7607 4.62145 48.501 4.16333 47.8719 4.25118C47.8245 4.37832 47.8271 4.52788 47.8064 4.66378C41.5883 4.73698 35.4337 4.57816 29.1981 4.55361C28.9352 4.55263 29.3896 4.79536 28.8806 4.7947C25.9346 4.79111 23.074 4.85835 20.0606 4.61708C19.7616 4.59349 19.915 4.16645 19.0339 4.23104C18.8785 4.24282 17.5515 4.29978 17.2084 4.39248C17.1618 4.40646 17.4039 4.60578 16.9763 4.61159C14.4913 4.64186 11.8872 4.59635 9.40655 4.47457C9.0062 4.45453 9.43255 4.24227 9.14739 4.22616C7.12464 4.11348 4.92447 4.27484 2.99163 4.08211C1.69786 3.95235 2.17685 3.58543 1.48936 3.22427C1.39212 3.17331 0.590978 3.16524 0.549548 2.9551C0.443186 2.4267 0.831234 1.84811 0.672008 1.28488C0.638369 1.16357 -0.434568 1.29423 0.200679 1.00107C0.245058 0.981448 1.02294 0.88415 1.21454 0.784699C1.34793 0.715941 1.10755 0.502234 1.37971 0.414217C1.65186 0.326282 1.95091 0.505423 2.40211 0.40201C2.85312 0.297318 2.65481 0.0542035 3.55552 0.0254245ZM250.274 3.40279C249.562 3.19864 249.457 3.94638 250.227 3.76748C250.265 3.75794 250.311 3.41281 250.274 3.40279ZM336.439 3.28469C335.508 2.95489 334.871 3.43983 335.528 3.69454C336.185 3.94898 336.723 3.38467 336.439 3.28469ZM346.094 3.04391C345.006 2.78387 344.834 3.84419 346 3.62984C346.068 3.61773 346.157 3.05901 346.094 3.04391ZM4.6776 3.12142C4.66777 3.11149 4.09187 3.10182 4.07811 3.11166C3.77146 3.34914 4.92301 3.36832 4.6776 3.12142ZM355.674 2.78176C355.335 2.63833 354.356 2.80391 354.779 2.98226C355.118 3.12575 356.097 2.96018 355.674 2.78176ZM213.125 2.60476C213.114 2.59362 212.701 2.58359 212.709 2.64657C212.737 2.84943 213.312 2.79218 213.125 2.60476ZM371.957 2.76956C369.551 2.72964 368.093 1.85377 370.713 1.9526C371.187 1.97049 369.69 2.23191 370.294 2.31088C371.399 2.45474 372.133 1.9048 373.26 2.19949C373.464 2.25343 372.094 2.77378 371.953 2.77078C371.954 2.77037 371.956 2.76996 371.957 2.76956ZM249.864 2.50466C249.85 2.49478 249.279 2.4854 249.265 2.4952C248.955 2.73259 250.107 2.75162 249.864 2.50466ZM189.033 2.14242C189.001 2.12135 187.675 2.10165 187.632 2.12106C186.94 2.50925 189.621 2.55024 189.033 2.14242ZM288.357 1.95749C288.98 1.71868 289.726 1.69056 290.223 1.99045C289.604 1.97453 288.98 1.97218 288.357 1.95749Z" fill="url(#paint0_linear_1584_7915)"/>
<defs>
<linearGradient id="paint0_linear_1584_7915" x1="0" y1="5.5" x2="373.281" y2="5.5" gradientUnits="userSpaceOnUse">
<stop stop-color="#EAD8AC" stop-opacity="0.85"/>
<stop offset="1" stop-color="#C0C0C0" stop-opacity="0.5"/>
</linearGradient>
</defs>
</svg>
