<svg width="3" height="377" viewBox="0 0 3 377" fill="none" xmlns="http://www.w3.org/2000/svg">
<path d="M2.98475 3.59095C3.02382 5.70355 2.98204 8.47283 2.92469 10.5774C2.9069 11.237 2.82739 10.903 2.81153 11.3584C2.78061 12.2489 2.81961 13.0785 2.78278 13.9585C2.77019 14.2502 2.64424 13.8871 2.63392 14.1929C2.57825 15.8687 2.61034 17.4541 2.58356 19.1517C2.45147 27.5134 2.40419 35.7329 2.34681 44.1969C2.32799 46.9878 2.21369 50.3804 2.26368 53.263C2.26963 53.5995 2.38018 53.3989 2.38929 53.4629C2.52878 54.4671 2.3056 54.1332 2.27595 54.7889C2.15887 57.3912 2.14869 60.2849 2.19135 62.7893C2.20983 63.8547 2.42941 62.7865 2.30616 63.8592C2.29783 63.9337 2.18044 63.6634 2.16791 63.9556C2.13975 64.6182 2.16074 65.8754 2.15143 66.3889C2.13291 67.3786 2.1341 67.5424 2.13276 68.4786C2.12991 69.7583 2.07155 71.2804 2.09815 72.6535C2.10418 72.9466 2.22452 72.5586 2.245 73.026C2.26545 73.4938 2.25524 74.7314 2.22687 75.1487C2.19849 75.566 2.1039 75.3883 2.08222 75.4622C1.89923 76.0698 2.15267 77.5014 2.15894 77.6855C2.26574 81.044 2.12136 83.9241 2.12177 87.0766C2.12239 89.4699 2.17006 92.029 2.16352 94.3062C2.15527 97.0192 2.09005 99.3186 2.10126 101.954C2.10231 102.232 2.24381 101.906 2.24537 102.246C2.26183 105.856 2.24641 109.44 2.15089 113.034C2.14118 113.394 2.01695 112.93 1.99982 113.29C1.89773 115.494 1.65246 118.983 2.19337 120.292C2.17224 121.785 2.15042 123.598 2.04139 124.934C1.97121 125.796 1.83587 124.959 1.89362 126.017C1.90649 126.256 2.02501 125.946 2.03535 126.303C2.07874 127.81 2.04021 129.457 2.10145 130.947C2.11418 131.25 2.22038 131.168 2.23951 131.254C2.39439 131.976 2.13836 133.177 2.11976 133.44C1.98103 135.435 2.03562 136.892 2.03223 138.751C2.03139 139.182 2.17404 138.672 2.17835 139.087C2.1988 141.24 2.18654 143.47 2.12324 145.577C2.10881 146.046 1.9873 145.615 1.97419 145.839C1.91786 146.827 2.14737 147.046 2.09779 147.994C2.08763 148.193 1.9836 148.081 1.97218 148.117C1.79283 148.687 2.04695 149.183 2.05256 149.33C2.12922 151.185 1.86393 152.371 1.9015 154.163C1.90626 154.378 2.03788 153.894 2.04322 154.497C2.07956 158.512 2.0434 162.759 1.93812 166.734C1.92193 167.352 1.82305 166.911 1.81086 166.95C1.62041 167.584 1.87559 167.994 1.8852 168.195C1.95438 169.785 1.74038 171.27 2.04432 172.35C1.93884 179.082 2.10952 185.784 1.83723 192.461C1.83407 192.546 1.7084 192.394 1.70264 192.563C1.63208 194.602 1.8274 194.211 2.06629 195.56C2.12628 195.9 1.83786 196.934 1.81672 197.026C1.73881 197.359 1.55184 197.013 1.53675 197.125C1.41828 198.048 2.03661 197.898 2.03681 199.144C2.03578 199.183 1.92197 199.019 1.91065 199.124C1.87512 199.449 1.92035 199.771 1.88117 200.089C1.79052 200.817 1.49006 201.076 1.66493 202.187C1.68762 202.328 2.03837 202.113 2.0218 203.225C2.01489 203.669 2.02091 205.632 1.99818 206.182C1.97547 206.732 1.86245 206.354 1.85755 206.394C1.70809 207.874 1.64615 207.313 1.42487 208.055C1.20444 208.796 1.7302 208.591 1.78889 208.893C1.8474 209.196 1.72409 210.282 1.68122 210.548C1.63833 210.815 1.56651 210.483 1.54224 210.72C1.38368 212.292 1.80322 211.41 1.88667 211.928C2.08425 213.149 1.69434 214.1 1.65614 215.218C1.64582 215.521 1.73462 215.274 1.74293 215.543C1.77464 216.61 1.65298 217.252 1.76453 218.465C1.78271 218.664 2.01714 219.645 1.8451 220.28C1.82029 220.37 1.72313 220.115 1.70136 220.569C1.6687 221.249 1.64746 222.473 1.67994 223.203C1.70397 223.742 1.86407 223.124 1.81434 223.802C1.79213 224.104 1.69847 223.545 1.66456 224.112C1.63066 224.675 1.63477 226.116 1.63801 226.664C1.64131 227.212 1.76276 226.912 1.77094 226.956C1.81781 227.224 1.87637 228.274 1.87623 228.367C1.89105 233.049 1.68634 237.366 1.7541 241.924C1.75924 242.282 1.88731 242.044 1.88941 242.098C1.94307 243.323 1.60257 242.358 1.4886 243.213C1.74848 243.089 1.70143 243.594 1.72993 244.457C1.74387 244.873 1.8445 244.646 1.8548 244.684C2.00765 245.301 1.81023 245.73 1.76984 245.841C1.62128 246.249 1.79682 246.693 1.69752 246.971C1.59896 247.249 1.45285 246.61 1.45472 247.437C1.54775 247.669 1.79087 247.055 1.83027 247.683C1.97931 250.053 1.78856 254.477 1.76875 256.382C1.74895 258.284 1.76611 258.898 1.73249 260.006C1.6717 262.008 1.85208 261.274 1.93464 262.517C2.01719 263.764 1.57338 263.158 1.47798 263.337C1.38261 263.513 1.48078 263.705 1.42835 263.924C1.37594 264.142 1.31107 263.67 1.29139 264.183C1.27173 264.696 1.44139 266.099 1.54115 266.281C1.75249 266.665 1.97431 266.033 1.89637 267.391C1.89174 267.469 1.77505 267.216 1.76325 267.515C1.67341 269.89 1.66785 272.358 1.58839 274.73C1.57728 275.056 1.44746 274.764 1.43952 274.954C1.35649 276.932 1.57538 276.225 1.81855 277.309C1.49495 277.065 1.29696 277.664 1.29505 279.165C1.29379 280.067 1.43513 279.912 1.53474 280.495C1.56477 280.671 1.46772 281.309 1.53419 281.424C1.75146 281.806 1.99468 281.205 1.89783 282.752C1.89323 282.82 1.7743 282.604 1.7671 282.838C1.71995 284.354 1.94722 284.536 1.97474 286.175C1.99633 287.459 1.85775 289.744 1.83521 291.207C1.47139 291.176 1.5547 292.558 1.80555 293.118C1.79528 294.067 1.80946 295.093 1.77479 296.01C1.76297 296.326 1.65763 296.118 1.64625 296.158C1.4677 296.769 1.71175 297.182 1.72132 297.386C1.81433 299.607 1.62936 301.417 1.81013 303.536C1.81664 303.611 2.06936 303.733 1.88483 304.3C1.87211 304.336 1.75713 303.636 1.74824 304.633C1.73933 305.63 1.60385 307.51 1.72096 308.895C1.74915 309.23 1.95431 310.077 1.79401 310.757C1.77225 310.848 1.69977 310.748 1.65943 310.879C1.53091 311.302 1.78635 311.533 1.56934 312.03C1.35234 312.527 1.18983 313.56 1.33955 314.956C1.3439 315.001 1.54636 315.331 1.54316 315.77C1.53788 316.471 1.4957 317.466 1.49702 318.198C1.49772 318.548 1.62344 318.324 1.62574 318.385C1.69619 320.741 1.58411 322.417 1.53547 324.941C1.5263 325.404 1.69774 326.734 1.5622 327.629C1.41383 328.613 0.796631 327.602 0.943675 329.863C1.00249 330.774 1.78552 331.929 1.37983 333.567C1.48036 336.745 1.27273 339.684 1.41627 342.871C1.42263 343.014 1.64117 343.467 1.63819 343.804C1.63335 344.304 1.53121 344.579 1.52448 344.936C1.49372 346.432 1.58111 347.802 1.56751 349.245C1.56257 349.792 1.45696 349.601 1.45106 350.254C1.44525 350.907 1.58433 351.342 1.51716 352.227C1.46596 352.895 1.1817 353.564 1.14857 354.451C1.42896 354.484 1.42318 355.094 1.4972 356.176C1.51156 356.384 1.60915 356.161 1.62098 356.26C1.67128 356.66 1.5904 357.031 1.64515 357.412C1.6583 357.504 1.75406 357.509 1.77021 357.584C1.91123 358.228 1.69584 359.288 1.65833 359.47C1.51591 360.167 1.64045 360.493 1.58436 361.029C1.52828 361.563 1.45817 360.764 1.42414 361.388C1.35375 362.682 1.36922 364.344 1.36482 365.658C1.36365 366.182 1.49147 365.825 1.49427 365.9C1.52669 366.984 1.39073 368.08 1.64533 368.681C0.987019 369.433 1.70919 369.335 1.5774 370.884C1.56674 371.006 1.25543 371.162 1.20973 370.693C1.16407 370.224 1.26138 369.514 1.19013 368.864C1.17342 368.71 0.881696 367.828 0.864024 367.707C0.725919 366.765 1.19113 366.631 1.21668 366.581C1.49243 366.016 1.17816 364.938 1.15644 364.654C1.05694 363.356 1.12236 362.253 1.05134 361.167C1.00544 360.456 0.700705 360.387 0.710033 359.829C0.740863 357.975 1.16597 357.328 0.797374 355.581C0.718761 355.206 0.385697 355.579 0.647595 354.236C0.664105 354.152 0.903693 353.155 0.752147 352.58C0.73304 352.507 0.635973 352.51 0.627819 352.414C0.575075 351.775 0.652404 351.349 0.615368 350.652C0.578332 349.956 0.523119 349.119 0.556042 348.324C0.575729 347.845 0.756577 347.23 0.800853 347.001C0.928401 346.353 0.719276 345.659 0.873729 345.258C1.02896 344.853 1.2647 345.644 1.365 344.583C1.11281 344.544 0.85397 344.454 0.600353 344.391C0.609233 342.066 0.690779 339.778 0.679638 337.446C0.678004 337.157 0.542428 337.453 0.537182 337.143C0.515644 335.835 0.612292 334.692 0.573803 333.336C0.543492 332.286 0.399946 331.135 0.363782 330.037C0.652354 329.366 0.55439 327.737 0.580761 326.553C0.589873 326.139 0.666945 326.167 0.692089 325.872C0.785081 324.76 0.530073 325.281 0.489941 324.976C0.318666 323.668 0.895864 323.556 0.881603 322.013C0.881042 321.932 0.573371 320.933 0.554211 320.795C0.429274 319.921 0.6613 320.65 0.684032 320.103C0.725575 319.105 0.799052 318.41 0.708935 317.239C0.682242 316.897 0.490474 316.077 0.638805 315.414C0.658229 315.326 0.759925 315.375 0.76588 315.304C0.865156 314.032 0.545612 313.999 0.43739 313.272C0.329192 312.545 0.549778 311.423 0.613354 311.194C0.77782 310.596 0.683641 311.652 0.699779 311.685C0.891849 312.065 0.858781 311.246 0.875011 310.62C1.18833 310.53 1.16952 309.655 0.890575 309.972C0.860106 310.008 0.889325 310.495 0.875011 310.62C0.567604 310.071 0.528235 309.11 0.815502 308.047C0.950139 307.55 1.10712 308.02 1.04969 306.51C1.02377 305.825 0.808034 306.09 0.749218 305.485C0.615021 304.103 0.816265 302.307 0.784557 300.883C0.773045 300.366 0.654954 300.869 0.643017 300.516C0.61097 299.578 0.699576 298.751 0.654186 297.809C0.649924 297.724 0.526306 297.932 0.524731 297.64C0.510375 295.419 0.589553 293.486 0.591748 291.168C0.592752 290.048 0.524574 288.045 0.538281 286.885C0.561308 284.874 0.741068 282.4 0.697399 280.682C0.669446 279.562 0.545803 279.808 0.46156 279.328C0.298262 278.401 0.590766 276.761 0.636059 276.541C0.637558 276.534 0.666706 277.498 0.730175 276.984C0.862424 276.684 0.636632 276.552 0.636059 276.541C0.665318 276.396 0.693386 274.47 0.66975 274.087C0.656834 273.879 0.539689 273.996 0.535168 273.887C0.430335 271.312 0.400561 268.732 0.455334 266.12C0.457701 266.074 0.588735 266.143 0.592663 266.035C0.650924 264.523 0.490629 263.554 0.395459 262.307C0.300332 261.06 0.332193 260.071 0.557141 259.333C0.528818 258.392 0.628267 257.042 0.68861 256.266C0.748952 255.489 0.493885 255.38 0.488843 255.312C0.327449 253.18 0.473445 251.948 0.496167 249.736C0.507406 248.685 0.470409 246.599 0.442517 245.461C0.420047 244.561 0.479823 244.019 0.441601 243.19C0.436497 243.078 0.322928 243.191 0.318555 243.157C0.182676 242.232 0.460314 242.676 0.5099 242.485C0.690218 241.793 0.786254 241.365 0.701427 240.18C0.682001 239.907 0.282241 239.111 0.258863 238.612C0.2292 237.965 0.37249 238.209 0.337781 237.531C0.334942 237.473 0.246542 237.485 0.25044 237.066C0.26737 235.123 0.318808 233.005 0.309949 230.986C0.309078 230.71 0.168863 231.064 0.165296 230.665C0.148676 228.795 0.153865 226.746 0.219495 224.924C0.236091 224.476 0.334266 224.757 0.363416 224.66C0.539793 224.062 0.283521 223.215 0.278638 223.075C0.155486 219.739 0.387409 217.187 0.27699 213.787C0.270508 213.602 -0.00422081 212.178 0.231397 211.542C0.247073 211.499 0.488134 210.87 0.323316 210.314C0.313005 210.279 0.188902 210.671 0.201551 209.988C0.214172 209.304 0.131297 208.204 0.267652 207.264C0.310606 206.966 0.551072 206.263 0.359387 205.375C0.346006 205.318 -0.0874205 203.947 0.211622 203.458C0.260847 203.379 0.577302 203.462 0.415051 202.403C0.383596 202.2 0.31301 202.568 0.268934 202.035C0.201002 201.218 0.28576 200.135 0.144788 199.131C0.119832 198.956 -0.0949589 198.21 0.0680675 197.612C0.0936003 197.519 0.199249 197.697 0.211072 197.381C0.267787 195.879 0.197118 194.307 0.270215 192.782C0.2959 192.242 0.466694 192.518 0.512463 191.955C0.558217 191.392 0.60223 190.257 0.524182 189.668C0.446099 189.079 0.173895 189.722 0.152113 188.84C0.0575113 185.002 0.217194 181.2 0.240552 177.368C0.244041 176.799 0.146638 177.27 0.144788 176.433C0.137542 173.345 0.0462162 168.013 0.253187 165.333C0.418958 163.186 0.545163 165.888 0.612621 164.247C0.644801 163.456 0.328335 162.599 0.318372 162.408C0.217167 160.541 0.357354 159.243 0.314344 157.563C0.305418 157.216 0.177152 157.556 0.170972 157.261C0.148728 156.252 0.205981 155.192 0.195509 154.228C0.190515 153.795 0.0925498 153.875 0.100111 153.477C0.117074 152.525 0.158254 151.683 0.250074 150.755C0.258441 150.67 0.380306 151.241 0.384839 150.536C0.391828 149.396 0.482408 147.981 0.388867 146.669C0.360728 146.28 0.13683 146.265 0.291456 145.428C0.32375 145.252 0.592604 145.476 0.360303 144.502C0.3217 144.338 0.00836908 142.701 0.21034 141.897C0.263496 141.685 0.4835 141.144 0.448926 140.676C0.443409 140.613 0.323145 140.867 0.311414 140.479C0.272164 139.112 0.284995 137.68 0.247327 136.276C0.237031 135.901 0.112582 136.459 0.10121 135.9C0.0697539 134.363 0.101441 132.444 0.140394 130.941C0.154992 130.387 0.258081 130.77 0.2693 130.73C0.451775 130.082 0.205475 129.698 0.191114 129.483C0.105119 128.145 0.220815 127.126 0.190198 125.892C0.182061 125.552 0.0646232 125.793 0.0541516 125.725C-0.0481642 125.022 0.162739 125.546 0.185987 125.101C0.251814 123.855 0.242376 122.466 0.227369 121.205C0.221684 120.742 0.0855118 121.263 0.0819835 120.847C0.0585187 118.388 0.0715488 115.832 0.14662 113.432C0.161002 112.98 0.265858 113.264 0.289808 113.17C0.457365 112.521 0.228815 111.57 0.207044 111.351C0.107638 110.356 0.200365 109.969 0.183057 109.09C0.0968851 104.797 0.158299 99.4952 0.196241 95.4423C0.245072 90.1609 0.344824 86.0627 0.318921 81.0264C0.317406 80.7062 0.177915 81.029 0.174818 80.7531C0.141191 77.1906 0.195698 73.6834 0.155409 70.1137C0.15235 69.8208 0.0201105 70.2431 0.0107557 69.7729C-0.00935955 68.8085 -0.00217197 67.5869 0.0400525 66.6118C0.0603972 66.1363 0.17387 66.7742 0.19203 66.2954C0.234573 65.1808 0.243991 63.986 0.222791 62.841C0.213481 62.3538 0.0782343 63.0889 0.0766735 62.4556C0.0632558 58.1416 0.0399629 53.9048 0.215101 49.5454C0.227129 49.2465 0.502005 48.9843 0.449292 48.3489C0.373007 48.301 0.283271 48.3036 0.201734 48.2827C0.157811 42.0027 0.253102 35.7867 0.267835 29.489C0.268425 29.2235 0.122782 29.6824 0.123182 29.1683C0.125335 26.193 0.0849879 23.3039 0.229749 20.2605C0.243906 19.9585 0.500128 20.1134 0.461377 19.2236C0.454306 19.0666 0.420135 17.7264 0.364514 17.3799C0.356125 17.3328 0.236531 17.5773 0.233045 17.1455C0.214884 14.6357 0.242187 12.0057 0.315259 9.50028C0.327281 9.09593 0.454639 9.52653 0.464307 9.23854C0.531913 7.19563 0.435098 4.97353 0.550732 3.02144C0.628591 1.71478 0.84874 2.19854 1.06544 1.5042C1.09601 1.40599 1.10086 0.596866 1.22694 0.555024C1.54398 0.447602 1.89114 0.839517 2.22907 0.678704C2.30186 0.644729 2.22346 -0.438898 2.39936 0.202679C2.41113 0.2475 2.46951 1.03313 2.52918 1.22664C2.57044 1.36136 2.69866 1.11858 2.75147 1.39346C2.80423 1.66832 2.69675 1.97035 2.75879 2.42605C2.82161 2.88155 2.96748 2.68126 2.98475 3.59095ZM0.958323 252.768C1.08082 252.049 0.632175 251.943 0.739513 252.721C0.745234 252.758 0.952314 252.805 0.958323 252.768ZM1.02919 339.792C1.22707 338.851 0.936101 338.208 0.783275 338.871C0.630614 339.534 0.969199 340.078 1.02919 339.792ZM1.17365 349.542C1.32968 348.443 0.693484 348.27 0.822093 349.447C0.829361 349.516 1.1646 349.606 1.17365 349.542ZM1.12715 4.7242C1.1331 4.71427 1.13891 4.13265 1.13301 4.11874C0.990518 3.80904 0.979005 4.97206 1.12715 4.7242ZM1.33094 359.218C1.417 358.875 1.31766 357.887 1.21064 358.313C1.12455 358.657 1.22389 359.645 1.33094 359.218ZM1.43714 215.248C1.44383 215.237 1.44985 214.82 1.41206 214.828C1.29034 214.857 1.32469 215.437 1.43714 215.248ZM1.33827 375.663C1.36221 373.233 1.88774 371.76 1.82844 374.406C1.81771 374.885 1.66085 373.374 1.61347 373.983C1.52716 375.099 1.85712 375.84 1.68031 376.979C1.64794 377.185 1.33573 375.802 1.33753 375.659C1.33778 375.66 1.33802 375.662 1.33827 375.663ZM1.4972 252.354C1.50313 252.34 1.50876 251.762 1.50288 251.748C1.36045 251.436 1.34903 252.599 1.4972 252.354ZM1.71455 190.916C1.72719 190.884 1.73901 189.545 1.72736 189.501C1.49445 188.802 1.46986 191.511 1.71455 190.916ZM1.82551 291.23C1.96879 291.86 1.98567 292.613 1.80573 293.115C1.81528 292.489 1.81669 291.859 1.82551 291.23Z" fill="#C0C0C0" fill-opacity="0.28"/>
</svg>
