<svg width="1043" height="5" viewBox="0 0 1043 5" fill="none" xmlns="http://www.w3.org/2000/svg">
<path d="M9.92524 0.0254245C15.7644 -0.0397072 23.4186 0.0299344 29.2357 0.125522C31.0588 0.155168 30.1356 0.287689 31.3941 0.31412C33.8554 0.365646 36.1485 0.300653 38.5808 0.362032C39.3869 0.383023 38.3835 0.592935 39.2288 0.610139C43.8606 0.702909 48.2424 0.649442 52.9345 0.694063C76.0461 0.914213 98.7643 0.993012 122.159 1.08865C129.872 1.12001 139.249 1.31051 147.217 1.2272C148.147 1.21729 147.593 1.03304 147.769 1.01785C150.545 0.785374 149.622 1.15734 151.434 1.20676C158.627 1.40188 166.625 1.41886 173.547 1.34775C176.492 1.31696 173.539 0.950988 176.505 1.1564C176.71 1.17028 175.963 1.36594 176.771 1.38681C178.602 1.43375 182.077 1.39877 183.497 1.41428C186.232 1.44514 186.685 1.44317 189.272 1.4454C192.809 1.45015 197.016 1.54741 200.812 1.50308C201.622 1.49304 200.549 1.29246 201.841 1.25833C203.134 1.22425 206.555 1.24126 207.708 1.28854C208.862 1.33585 208.37 1.4935 208.575 1.52963C210.254 1.83462 214.211 1.41221 214.72 1.40176C224.003 1.22377 231.963 1.4644 240.677 1.46371C247.291 1.46268 254.365 1.38324 260.659 1.39413C268.157 1.40789 274.513 1.51658 281.798 1.49789C282.567 1.49615 281.666 1.26032 282.605 1.25772C292.581 1.23028 302.488 1.25599 312.421 1.41519C313.417 1.43136 312.133 1.63842 313.128 1.66696C319.222 1.83712 328.864 2.24589 332.483 1.34439C336.61 1.37959 341.621 1.41596 345.314 1.59769C347.695 1.71464 345.382 1.94021 348.307 1.84396C348.967 1.82252 348.109 1.62498 349.098 1.60776C353.263 1.53544 357.813 1.59965 361.933 1.49759C362.771 1.47636 362.542 1.29936 362.78 1.26749C364.775 1.00935 368.098 1.43606 368.822 1.46707C374.337 1.69829 378.364 1.6073 383.501 1.61294C384.694 1.61435 383.284 1.3766 384.432 1.36941C390.381 1.33534 396.545 1.35577 402.371 1.46127C403.667 1.48531 402.475 1.68783 403.094 1.70968C405.825 1.80356 406.43 1.42104 409.049 1.50369C409.601 1.52062 409.29 1.694 409.39 1.71304C410.966 2.01194 412.336 1.58842 412.741 1.57907C417.869 1.45131 421.147 1.89345 426.101 1.83084C426.694 1.8229 425.357 1.60353 427.023 1.59463C438.122 1.53407 449.861 1.59434 460.846 1.7698C462.555 1.79679 461.335 1.96159 461.443 1.9819C463.195 2.29932 464.328 1.87402 464.885 1.858C469.279 1.7427 473.383 2.09937 476.369 1.5928C494.977 1.7686 513.5 1.48413 531.955 1.93796C532.189 1.94321 531.769 2.15267 532.237 2.16226C537.874 2.27987 536.791 1.95433 540.521 1.55618C541.46 1.4562 544.319 1.9369 544.571 1.97213C545.493 2.10198 544.537 2.4136 544.846 2.43875C547.399 2.63621 546.983 1.60565 550.427 1.60531C550.534 1.60703 550.082 1.79672 550.371 1.81558C551.269 1.87479 552.159 1.79942 553.038 1.86471C555.049 2.0158 555.766 2.51656 558.838 2.22512C559.226 2.1873 558.633 1.60272 561.708 1.63034C562.933 1.64184 568.359 1.63182 569.88 1.66971C571.399 1.70754 570.356 1.89592 570.464 1.90408C574.557 2.15318 573.005 2.25642 575.055 2.62521C577.106 2.99261 576.537 2.11633 577.373 2.01852C578.21 1.92099 581.211 2.12652 581.948 2.19796C582.685 2.26944 581.766 2.38914 582.421 2.42959C586.766 2.69386 584.328 1.99464 585.76 1.85556C589.136 1.52624 591.765 2.1761 594.855 2.23977C595.691 2.25697 595.009 2.10896 595.753 2.09512C598.702 2.04226 600.476 2.24503 603.83 2.05911C604.379 2.02881 607.091 1.6381 608.847 1.92483C609.095 1.96618 608.389 2.12812 609.646 2.16439C611.523 2.21883 614.906 2.25423 616.924 2.2001C618.414 2.16005 616.706 1.89321 618.581 1.9761C619.415 2.01312 617.87 2.16922 619.436 2.22573C620.994 2.28223 624.976 2.27538 626.492 2.26999C628.004 2.26448 627.176 2.06206 627.299 2.04843C628.038 1.97032 630.942 1.87271 631.198 1.87295C644.138 1.84824 656.071 2.18943 668.67 2.0765C669.659 2.06794 669 1.85449 669.151 1.85098C672.536 1.76155 669.867 2.32906 672.232 2.51901C671.89 2.08586 673.286 2.16429 675.67 2.11679C676.819 2.09354 676.193 1.92583 676.298 1.90866C678.002 1.65392 679.188 1.98295 679.494 2.05026C680.623 2.29786 681.85 2.0053 682.618 2.1708C683.386 2.33507 681.62 2.57858 683.906 2.57547C684.547 2.42041 682.85 2.01522 684.586 1.94955C691.136 1.70115 703.364 2.01907 708.631 2.05209C713.887 2.08509 715.585 2.05648 718.648 2.11252C724.18 2.21383 722.153 1.91321 725.588 1.7756C729.033 1.63801 727.358 2.3777 727.854 2.53671C728.34 2.69565 728.871 2.53204 729.475 2.61941C730.078 2.70676 728.773 2.81488 730.191 2.84768C731.609 2.88045 735.487 2.59769 735.99 2.43142C737.053 2.07918 735.306 1.70948 739.059 1.83938C739.275 1.84709 738.574 2.04159 739.401 2.06125C745.966 2.21098 752.786 2.22026 759.343 2.35269C760.245 2.3712 759.439 2.58757 759.963 2.60079C765.429 2.73919 763.475 2.37436 766.47 1.96908C765.798 2.50842 767.454 2.83839 771.602 2.84158C774.096 2.84368 773.666 2.60812 775.279 2.4421C775.763 2.39206 777.527 2.5538 777.847 2.44302C778.901 2.0809 777.239 1.67553 781.516 1.83694C781.703 1.84461 781.106 2.04283 781.754 2.05484C785.945 2.13341 786.446 1.75464 790.976 1.70877C794.527 1.67278 800.842 1.90375 804.885 1.94131C804.8 2.54769 808.618 2.40883 810.167 1.99075C812.791 2.00787 815.625 1.98423 818.161 2.04202C819.034 2.06172 818.461 2.23728 818.57 2.25625C820.258 2.55383 821.399 2.14708 821.965 2.13113C828.103 1.97612 833.104 2.2844 838.962 1.98312C839.17 1.97227 839.507 1.55106 841.073 1.85861C841.174 1.87981 839.239 2.07145 841.995 2.08627C844.751 2.10112 849.947 2.32692 853.773 2.13174C854.699 2.08475 857.041 1.74282 858.92 2.00998C859.171 2.04625 858.897 2.16706 859.258 2.23428C860.427 2.44848 861.065 2.02274 862.438 2.38443C863.812 2.74609 866.669 3.01696 870.527 2.76742C870.65 2.76017 871.564 2.42273 872.777 2.42807C874.714 2.43687 877.464 2.50717 879.487 2.50497C880.455 2.5038 879.836 2.29426 880.004 2.29043C886.515 2.17302 891.15 2.35981 898.126 2.44088C899.404 2.45616 903.079 2.17043 905.555 2.39633C908.273 2.64361 905.48 3.67228 911.728 3.42721C914.248 3.32918 917.439 2.02413 921.968 2.70028C930.751 2.53274 938.874 2.87879 947.682 2.63955C948.078 2.62895 949.33 2.26472 950.261 2.26968C951.644 2.27774 952.403 2.44798 953.39 2.45919C957.526 2.51047 961.311 2.36482 965.299 2.38748C966.813 2.39571 966.283 2.57173 968.089 2.58157C969.894 2.59124 971.097 2.35946 973.543 2.4714C975.39 2.55673 977.237 3.03049 979.688 3.08572C979.782 2.6184 981.465 2.62803 984.458 2.50466C985.033 2.48073 984.417 2.31808 984.689 2.29837C985.796 2.21454 986.821 2.34934 987.873 2.25808C988.129 2.23617 988.141 2.07657 988.35 2.04965C990.128 1.81462 993.058 2.17361 993.561 2.23611C995.489 2.47349 996.391 2.26592 997.87 2.3594C999.347 2.45287 997.138 2.56971 998.863 2.62643C1002.44 2.74375 1007.03 2.71797 1010.67 2.72531C1012.11 2.72725 1011.13 2.51422 1011.33 2.50955C1014.33 2.45552 1017.36 2.68212 1019.02 2.25778C1021.1 3.35497 1020.83 2.15136 1025.11 2.371C1025.45 2.38876 1025.88 2.90762 1024.58 2.98379C1023.29 3.05989 1021.32 2.8977 1019.53 3.01644C1019.1 3.04431 1016.66 3.53051 1016.33 3.55996C1013.72 3.79013 1013.36 3.01478 1013.22 2.97219C1011.65 2.51261 1008.67 3.0364 1007.89 3.0726C1004.3 3.23843 1001.25 3.12939 998.251 3.24777C996.288 3.32427 996.096 3.83216 994.555 3.81661C989.43 3.76523 987.641 3.05672 982.812 3.67104C981.777 3.80207 982.806 4.35717 979.096 3.92068C978.863 3.89316 976.108 3.49384 974.517 3.74642C974.317 3.77827 974.323 3.94004 974.06 3.95363C972.293 4.04154 971.115 3.91266 969.19 3.97439C967.266 4.03611 964.952 4.12813 962.755 4.07326C961.431 4.04045 959.732 3.73904 959.098 3.66524C957.308 3.45266 955.389 3.80121 954.28 3.54378C953.162 3.28507 955.348 2.89216 952.416 2.725C952.307 3.14531 952.058 3.57672 951.883 3.99941C945.458 3.98461 939.135 3.8487 932.688 3.86727C931.889 3.86999 932.706 4.09595 931.849 4.1047C928.234 4.14059 925.077 3.97951 921.328 4.04366C918.426 4.09418 915.243 4.33342 912.209 4.3937C910.355 3.91274 905.853 4.07602 902.582 4.03206C901.436 4.01688 901.512 3.88842 900.697 3.84652C897.623 3.69153 899.064 4.11655 898.221 4.18343C894.605 4.46889 894.295 3.50689 890.033 3.53066C889.807 3.5316 887.046 4.04438 886.666 4.07631C884.25 4.28454 886.266 3.89783 884.754 3.85995C881.993 3.79071 880.075 3.66825 876.836 3.81844C875.891 3.86293 873.625 4.18254 871.791 3.93532C871.55 3.90295 871.683 3.73346 871.489 3.72353C867.974 3.55807 867.882 4.09065 865.873 4.27102C863.863 4.45135 860.76 4.0837 860.129 3.97774C858.477 3.70363 861.395 3.8606 861.484 3.8337C862.535 3.51358 860.272 3.5687 858.543 3.54165C858.292 3.01945 855.874 3.0508 856.75 3.51571C856.85 3.56649 858.196 3.51779 858.543 3.54165C857.025 4.05399 854.367 4.11961 851.432 3.64083C850.058 3.41643 851.356 3.1548 847.182 3.25051C845.288 3.29372 846.02 3.65328 844.348 3.7513C840.529 3.97496 835.566 3.63956 831.628 3.69241C830.199 3.71159 831.591 3.90841 830.615 3.92831C828.023 3.98172 825.737 3.83404 823.134 3.90969C822.898 3.91679 823.474 4.12282 822.665 4.12545C816.528 4.14938 811.185 4.01741 804.777 4.01375C801.682 4.01208 796.147 4.12571 792.94 4.10287C787.382 4.06449 780.544 3.76489 775.796 3.83767C772.699 3.88426 773.378 4.09033 772.051 4.23073C769.491 4.5029 764.958 4.01539 764.348 3.9399C764.329 3.9374 766.994 3.88882 765.572 3.78304C764.745 3.56263 764.378 3.93895 764.348 3.9399C763.947 3.89114 758.623 3.84436 757.567 3.88375C756.992 3.90528 757.313 4.10052 757.014 4.10805C749.896 4.28278 742.765 4.3324 735.545 4.24111C735.418 4.23717 735.61 4.01878 735.311 4.01223C731.131 3.91513 728.455 4.18229 725.008 4.3409C721.561 4.49945 718.828 4.44635 716.787 4.07143C714.187 4.11864 710.456 3.95289 708.309 3.85232C706.162 3.75175 705.862 4.17686 705.673 4.18526C699.781 4.45425 696.375 4.21092 690.262 4.17306C687.356 4.15432 681.591 4.21598 678.445 4.26247C675.958 4.29992 674.46 4.20029 672.168 4.264C671.858 4.2725 672.171 4.46179 672.077 4.46907C669.519 4.69554 670.748 4.23281 670.22 4.15017C668.306 3.84964 667.123 3.68958 663.849 3.83095C663.093 3.86333 660.893 4.5296 659.516 4.56856C657.725 4.618 658.401 4.37918 656.527 4.43703C656.366 4.44176 656.4 4.5891 655.243 4.5826C649.872 4.55438 644.017 4.46865 638.437 4.48342C637.674 4.48487 638.651 4.71856 637.55 4.72451C632.382 4.75221 626.717 4.74356 621.682 4.63417C620.443 4.60652 621.22 4.44289 620.951 4.39431C619.299 4.10035 616.957 4.52746 616.57 4.5356C607.351 4.74086 600.296 4.35432 590.9 4.53835C590.388 4.54915 586.451 5.00703 584.695 4.61434C584.575 4.58821 582.837 4.18644 581.3 4.46114C581.205 4.47833 582.288 4.68516 580.398 4.66408C578.508 4.64305 575.467 4.78117 572.869 4.55391C572.047 4.48232 570.103 4.08155 567.65 4.40102C567.49 4.42332 563.703 5.1457 562.352 4.6473C562.132 4.56526 562.362 4.03783 559.434 4.30825C558.874 4.36067 559.89 4.47832 558.416 4.55178C556.158 4.665 553.166 4.52373 550.391 4.75869C549.907 4.80028 547.846 5.15826 546.193 4.88655C545.934 4.844 546.426 4.66792 545.553 4.64821C541.402 4.55369 537.056 4.67147 532.841 4.54964C531.349 4.50683 532.112 4.22218 530.556 4.14589C528.999 4.06964 525.864 3.99628 524.235 4.12636C522.607 4.2565 524.386 4.71018 521.946 4.74648C511.338 4.90415 500.83 4.63801 490.237 4.59908C488.666 4.59327 489.969 4.7556 487.654 4.75869C479.118 4.77076 464.381 4.92297 456.975 4.57802C451.041 4.30174 458.509 4.0914 453.974 3.97896C451.785 3.92533 449.418 4.45277 448.89 4.46938C443.729 4.63806 440.143 4.40441 435.498 4.47609C434.539 4.49097 435.48 4.70475 434.663 4.71505C431.875 4.75212 428.944 4.6567 426.28 4.67415C425.085 4.68247 425.305 4.84575 424.205 4.83315C421.573 4.80488 419.246 4.73624 416.681 4.58321C416.447 4.56927 418.023 4.36616 416.076 4.3586C412.925 4.34695 409.013 4.19599 405.388 4.35189C404.312 4.39879 404.27 4.77195 401.957 4.51424C401.472 4.46042 402.091 4.01233 399.397 4.3995C398.944 4.46383 394.419 4.98605 392.199 4.64943C391.613 4.56084 390.118 4.19417 388.824 4.25179C388.648 4.26099 389.351 4.46143 388.279 4.48098C384.501 4.54639 380.542 4.52501 376.66 4.58779C375.624 4.60495 377.168 4.81236 375.623 4.83132C371.375 4.88374 366.071 4.83093 361.917 4.76601C360.386 4.74168 361.444 4.56986 361.333 4.55117C359.541 4.24704 358.481 4.65754 357.887 4.68148C354.188 4.8248 351.371 4.63197 347.961 4.683C347.02 4.69656 347.687 4.89229 347.5 4.90975C345.557 5.08027 347.005 4.72877 345.775 4.69002C342.33 4.58031 338.49 4.59604 335.007 4.62105C333.727 4.63053 335.165 4.85748 334.017 4.86336C327.22 4.90247 320.155 4.88075 313.522 4.75563C312.273 4.73166 313.059 4.5569 312.798 4.51699C311.005 4.23773 308.375 4.61864 307.77 4.65493C305.019 4.8206 303.951 4.66606 301.522 4.6949C289.654 4.83852 275.001 4.73617 263.799 4.67293C249.201 4.59155 237.874 4.42529 223.954 4.46846C223.069 4.47099 223.961 4.70348 223.199 4.70864C213.352 4.76468 203.658 4.67384 193.792 4.74099C192.982 4.74608 194.149 4.96648 192.85 4.98207C190.184 5.0156 186.808 5.00362 184.113 4.93325C182.798 4.89934 184.561 4.71022 183.238 4.67995C180.157 4.60905 176.855 4.59335 173.69 4.62868C172.344 4.6442 174.375 4.86961 172.625 4.87221C160.701 4.89457 148.991 4.9334 136.942 4.6415C136.116 4.62145 135.391 4.16333 133.634 4.25118C133.502 4.37832 133.509 4.52788 133.452 4.66378C116.094 4.73698 98.9132 4.57816 81.5066 4.55361C80.7727 4.55263 82.041 4.79536 80.6202 4.7947C72.3966 4.79111 64.411 4.85835 55.9992 4.61708C55.1646 4.59349 55.5928 4.16645 53.1332 4.23104C52.6994 4.24282 48.9951 4.29978 48.0373 4.39248C47.9072 4.40646 48.5831 4.60578 47.3894 4.61159C40.4526 4.64186 33.1832 4.59635 26.2584 4.47457C25.1408 4.45453 26.331 4.24227 25.535 4.22616C19.8885 4.11348 13.7467 4.27484 8.35115 4.08211C4.73958 3.95235 6.07669 3.58543 4.15755 3.22427C3.88611 3.17331 1.64972 3.16524 1.53407 2.9551C1.23715 2.4267 2.32039 1.84811 1.87591 1.28488C1.78201 1.16357 -1.2131 1.29423 0.560196 1.00107C0.68408 0.981448 2.85554 0.88415 3.39038 0.784699C3.76275 0.715941 3.09173 0.502234 3.85148 0.414217C4.61116 0.326282 5.44596 0.505423 6.70551 0.40201C7.9645 0.297318 7.41091 0.0542035 9.92524 0.0254245ZM698.641 3.40279C696.654 3.19864 696.36 3.94638 698.51 3.76748C698.614 3.75794 698.744 3.41281 698.641 3.40279ZM939.171 3.28469C936.572 2.95489 934.794 3.43983 936.627 3.69454C938.461 3.94898 939.963 3.38467 939.171 3.28469ZM966.122 3.04391C963.084 2.78387 962.606 3.84419 965.859 3.62984C966.049 3.61773 966.299 3.05901 966.122 3.04391ZM13.0575 3.12142C13.0301 3.11149 11.4225 3.10182 11.3841 3.11166C10.528 3.34914 13.7426 3.36832 13.0575 3.12142ZM992.865 2.78176C991.917 2.63833 989.187 2.80391 990.365 2.98226C991.313 3.12575 994.046 2.96018 992.865 2.78176ZM594.938 2.60476C594.907 2.59362 593.755 2.58359 593.778 2.64657C593.856 2.84943 595.46 2.79218 594.938 2.60476ZM1038.32 2.76956C1031.6 2.72964 1027.53 1.85377 1034.84 1.9526C1036.17 1.97049 1031.99 2.23191 1033.68 2.31088C1036.76 2.45474 1038.81 1.9048 1041.96 2.19949C1042.53 2.25343 1038.7 2.77378 1038.31 2.77078C1038.31 2.77037 1038.31 2.76996 1038.32 2.76956ZM697.497 2.50466C697.457 2.49478 695.862 2.4854 695.823 2.4952C694.959 2.73259 698.173 2.75162 697.497 2.50466ZM527.686 2.14242C527.598 2.12135 523.895 2.10165 523.774 2.12106C521.843 2.50925 529.328 2.55024 527.686 2.14242ZM804.948 1.95749C806.689 1.71868 808.772 1.69056 810.159 1.99045C808.429 1.97453 806.688 1.97218 804.948 1.95749Z" fill="url(#paint0_linear_1506_2060)"/>
<defs>
<linearGradient id="paint0_linear_1506_2060" x1="0" y1="5.5" x2="1042.01" y2="5.5" gradientUnits="userSpaceOnUse">
<stop stop-color="#EAD8AC" stop-opacity="0.85"/>
<stop offset="1" stop-color="#C0C0C0" stop-opacity="0.5"/>
</linearGradient>
</defs>
</svg>
