<svg width="66" height="65" viewBox="0 0 66 65" fill="none" xmlns="http://www.w3.org/2000/svg">
<g clip-path="url(#clip0_3001_1169)">
<path d="M32.6785 0C14.6308 0 0 14.3934 0 32.1483C0 47.2246 10.5512 59.8756 24.7847 63.3502V41.9728H18.0464V32.1483H24.7847V27.915C24.7847 16.973 29.8185 11.9013 40.7384 11.9013C42.8089 11.9013 46.3813 12.3012 47.8427 12.6999V21.6049C47.0715 21.5252 45.7316 21.4854 44.0677 21.4854C38.7097 21.4854 36.6392 23.4824 36.6392 28.6737V32.1483H47.3133L45.4794 41.9728H36.6392V64.0613C52.8203 62.1388 65.3584 48.5851 65.3584 32.1483C65.3571 14.3934 50.7262 0 32.6785 0Z" fill="#171717"/>
</g>
<defs>
<clipPath id="clip0_3001_1169">
<rect width="65.3571" height="64.2966" fill="white"/>
</clipPath>
</defs>
</svg>
