<svg width="66" height="65" viewBox="0 0 66 65" fill="none" xmlns="http://www.w3.org/2000/svg">
<g clip-path="url(#clip0_3001_1171)">
<path d="M32.6785 5.7892C41.4098 5.7892 42.4438 5.82688 45.8776 5.97757C49.0689 6.11571 50.7921 6.64314 51.941 7.08267C53.46 7.66034 54.5578 8.36358 55.6939 9.48124C56.8428 10.6114 57.5448 11.6789 58.132 13.1733C58.5788 14.3035 59.1149 16.0114 59.2554 19.1383C59.4085 22.5289 59.4468 23.5461 59.4468 32.1232C59.4468 40.7128 59.4085 41.73 59.2554 45.1081C59.1149 48.2476 58.5788 49.9429 58.132 51.0731C57.5448 52.5675 56.83 53.6475 55.6939 54.7651C54.5451 55.8953 53.46 56.586 51.941 57.1637C50.7921 57.6032 49.0561 58.1306 45.8776 58.2688C42.431 58.4195 41.3971 58.4572 32.6785 58.4572C23.9472 58.4572 22.9133 58.4195 19.4795 58.2688C16.2882 58.1306 14.5649 57.6032 13.4161 57.1637C11.897 56.586 10.7992 55.8828 9.66314 54.7651C8.51429 53.6349 7.81221 52.5675 7.22502 51.0731C6.77824 49.9429 6.24211 48.235 6.10169 45.1081C5.94851 41.7174 5.91022 40.7002 5.91022 32.1232C5.91022 23.5336 5.94851 22.5164 6.10169 19.1383C6.24211 15.9988 6.77824 14.3035 7.22502 13.1733C7.81221 11.6789 8.52705 10.5989 9.66314 9.48124C10.812 8.35102 11.897 7.66034 13.4161 7.08267C14.5649 6.64314 16.301 6.11571 19.4795 5.97757C22.9133 5.82688 23.9472 5.7892 32.6785 5.7892ZM32.6785 0C23.8068 0 22.6963 0.0376738 19.2114 0.188369C15.7393 0.339064 13.3522 0.891613 11.2843 1.68276C9.12701 2.51159 7.30161 3.60413 5.48897 5.39991C3.66357 7.18313 2.55301 8.97892 1.71052 11.0887C0.906318 13.1356 0.344656 15.4714 0.191476 18.8871C0.0382952 22.328 0 23.4205 0 32.1483C0 40.8761 0.0382952 41.9686 0.191476 45.3969C0.344656 48.8127 0.906318 51.161 1.71052 53.1954C2.55301 55.3177 3.66357 57.1135 5.48897 58.8967C7.30161 60.6799 9.12701 61.785 11.2715 62.6013C13.3522 63.3924 15.7265 63.945 19.1986 64.0957C22.6835 64.2464 23.7941 64.284 32.6658 64.284C41.5375 64.284 42.648 64.2464 46.1329 64.0957C49.605 63.945 51.9921 63.3924 54.06 62.6013C56.2045 61.785 58.0299 60.6799 59.8426 58.8967C61.6552 57.1135 62.7785 55.3177 63.6082 53.2079C64.4124 51.161 64.9741 48.8252 65.1273 45.4095C65.2805 41.9812 65.3188 40.8886 65.3188 32.1609C65.3188 23.4331 65.2805 22.3406 65.1273 18.9122C64.9741 15.4965 64.4124 13.1482 63.6082 11.1138C62.804 8.97892 61.6935 7.18313 59.8681 5.39991C58.0555 3.61668 56.23 2.51159 54.0855 1.69532C52.0048 0.904171 49.6305 0.351622 46.1584 0.200927C42.6608 0.0376738 41.5502 0 32.6785 0Z" fill="#171717"/>
<path d="M32.6786 15.6348C23.4112 15.6348 15.8926 23.0314 15.8926 32.1484C15.8926 41.2655 23.4112 48.6621 32.6786 48.6621C41.946 48.6621 49.4647 41.2655 49.4647 32.1484C49.4647 23.0314 41.946 15.6348 32.6786 15.6348ZM32.6786 42.8604C26.6663 42.8604 21.79 38.0632 21.79 32.1484C21.79 26.2337 26.6663 21.4365 32.6786 21.4365C38.691 21.4365 43.5672 26.2337 43.5672 32.1484C43.5672 38.0632 38.691 42.8604 32.6786 42.8604Z" fill="#171717"/>
<path d="M54.0477 14.9813C54.0477 17.1161 52.2861 18.8366 50.1288 18.8366C47.9588 18.8366 46.21 17.1036 46.21 14.9813C46.21 12.8464 47.9715 11.126 50.1288 11.126C52.2861 11.126 54.0477 12.859 54.0477 14.9813Z" fill="#171717"/>
</g>
<defs>
<clipPath id="clip0_3001_1171">
<rect width="65.3571" height="64.2966" fill="white"/>
</clipPath>
</defs>
</svg>
