<svg width="51" height="51" viewBox="0 0 51 51" fill="none" xmlns="http://www.w3.org/2000/svg">
<path fill-rule="evenodd" clip-rule="evenodd" d="M24.5737 1.56955C29.9672 1.11328 35.2623 5.53059 35.9861 10.9723C37.6916 10.7657 39.0306 10.8089 40.7003 11.3121C43.5278 12.1633 45.9045 14.1296 47.3033 16.7745C48.7188 19.4431 49.0406 22.574 48.1984 25.4834C47.3448 28.4034 45.3771 30.8522 42.7369 32.2811C43.3722 33.4984 43.7649 35.191 43.8603 36.553C44.0678 39.516 43.0957 42.4679 41.2067 44.7188C39.3271 46.9636 36.6555 48.3634 33.7703 48.615C30.571 48.8665 27.8843 47.899 25.4671 45.7872L25.0916 45.447C23.849 46.6895 22.3354 47.6145 20.6746 48.146C17.904 49.0312 14.9025 48.765 12.3234 47.4061C9.67259 46.0071 7.68457 43.5813 6.80605 40.674C5.97708 37.9626 6.16302 34.8095 7.46003 32.2821C5.90539 31.3685 4.70866 30.4055 3.64969 28.8914C1.88822 26.3915 1.18611 23.2751 1.70108 20.2425C2.20313 17.2999 3.82312 14.6776 6.20973 12.9443C8.45088 11.3264 11.4678 10.4912 14.1919 10.9691C14.4024 9.88167 14.631 9.04337 15.092 8.03751C16.5865 4.77622 19.5768 2.39288 23.0493 1.72367C23.5454 1.62806 24.0655 1.59796 24.5737 1.56955ZM25.0607 3.34496C22.4349 3.40957 20.1377 4.4105 18.3448 6.37284C16.4732 8.42135 15.9197 10.479 15.7441 13.1865C13.1361 12.3965 10.6455 12.4775 8.21927 13.8189C6.04316 15.0257 4.42129 17.0578 3.70532 19.4749C2.99461 21.9282 3.2701 24.5687 4.47095 26.8149C5.3071 28.3911 6.56601 29.6924 8.10069 30.5666C8.6952 30.9004 9.35797 31.178 9.98444 31.4518C8.4195 33.8534 7.70939 36.3143 8.27911 39.1995C8.75982 41.6682 10.1777 43.8436 12.2242 45.2525C14.3002 46.6635 16.8481 47.1585 19.2879 46.6249C20.6536 46.3336 21.938 45.7343 23.0467 44.8707C23.7931 44.2813 24.4222 43.5252 25.0364 42.8003C25.0588 42.7741 25.105 42.7571 25.1381 42.7532C30.285 49.8383 40.7725 47.2127 42.013 38.5613C42.3535 36.1876 41.6604 33.352 40.2073 31.45C40.8635 31.1676 41.5532 30.8812 42.1711 30.5233C43.9734 29.4672 45.3781 27.8279 46.1625 25.8655C47.1118 23.5016 47.1063 20.8511 46.1468 18.4913C45.1839 16.1614 43.3506 14.3181 41.0515 13.3686C39.2899 12.6419 37.3518 12.4842 35.499 12.9167C35.1742 12.9907 34.7696 13.0838 34.4589 13.2056C34.2524 10.1277 33.5038 7.76162 31.1446 5.65963C29.4586 4.16262 27.2968 3.34017 25.0607 3.34496Z" stroke="url(#paint0_linear_1506_2173)" stroke-width="3.07322"/>
<path d="M25.102 15.8813C25.7766 15.8316 26.3616 16.3361 26.3768 17.0124C26.3868 17.4611 26.1498 17.7714 25.8509 18.0753C25.8438 18.7123 25.803 24.0407 25.9095 24.1999C26.1889 24.1196 29.7473 20.4305 30.2755 19.9424L30.2715 19.8924C30.2439 19.5369 30.2759 19.0963 30.5435 18.8345C31.6901 17.7124 33.3797 19.281 32.2156 20.4717C31.9128 20.7815 31.5959 20.7752 31.1902 20.7751C30.3033 21.6303 29.4222 22.557 28.5415 23.4236C28.1378 23.8208 27.1332 24.7846 26.8416 25.2169C27.5245 25.2575 28.3758 25.2328 29.0715 25.2324L32.9793 25.227C33.0062 25.1938 33.0338 25.1611 33.062 25.129C33.8871 24.1924 35.1757 24.7536 35.2001 25.8055C35.2045 26.1048 35.0897 26.3937 34.8808 26.6094C34.2702 27.2411 33.5784 27.0227 33.0172 26.4822C32.0411 26.4164 30.611 26.4746 29.6052 26.4614C28.9591 26.4528 27.3635 26.4268 26.7974 26.4985C27.0963 26.8857 27.8881 27.6313 28.2631 28.0055L31.1341 30.8759C31.2458 30.8732 31.3719 30.8714 31.4831 30.8746C31.8063 30.8852 32.1117 31.0242 32.3309 31.2604C32.5399 31.4866 32.6429 31.7959 32.625 32.1012C32.6037 32.4295 32.4519 32.7359 32.2031 32.953C31.3778 33.674 30.2044 32.9815 30.3169 31.8162L27.5909 29.0839C27.3311 28.8241 26.1475 27.5503 25.9063 27.5214C25.8049 27.6711 25.8405 33.0071 25.8512 33.63C25.8969 33.6597 25.9416 33.6907 25.9853 33.7232C26.8377 34.3635 26.4286 35.6816 25.3667 35.8144C24.0712 35.8155 23.6163 34.3074 24.6256 33.6672C24.5757 33.301 24.5983 32.4235 24.5988 32.0185L24.6027 29.2564C24.6034 28.698 24.6187 28.0144 24.5757 27.4659C24.2054 27.7249 23.2493 28.7089 22.8878 29.0772C22.0129 29.9684 20.2023 31.7842 20.2023 31.7842C20.2031 31.8848 20.2024 31.9854 20.2 32.0859C20.1711 33.1591 18.9123 33.6878 18.185 32.8787C17.9703 32.6378 17.8603 32.3223 17.8789 32.001C17.9225 31.2464 18.5622 30.8623 19.2755 30.9133C20.0824 30.1968 21.0273 29.1488 21.8196 28.3881C22.1948 28.0279 23.3876 26.8529 23.6403 26.5108C22.9299 26.4339 21.9754 26.4605 21.2377 26.4603L17.5066 26.4674C17.2334 26.7505 16.918 27.0566 16.4939 27.0643C16.1901 27.0698 15.8222 26.9008 15.6068 26.6913C15.3907 26.4799 15.2674 26.1923 15.2637 25.891C15.2596 25.2734 15.8101 24.6952 16.4404 24.6892C16.8835 24.685 17.1854 24.9562 17.485 25.2462C19.4717 25.227 21.6877 25.2862 23.6435 25.2117C23.3671 24.8072 22.4042 23.8884 22.0168 23.501C21.1208 22.5936 20.2178 21.6929 19.3079 20.7992C19.2617 20.8046 19.2154 20.8089 19.1689 20.8123C18.0138 20.8913 17.398 19.6355 18.1475 18.8555C18.3725 18.6207 18.684 18.4869 19.0104 18.485C19.3253 18.4815 19.6278 18.6069 19.8469 18.8317C20.1871 19.1789 20.1765 19.4945 20.1681 19.9313C20.39 20.0966 21.0479 20.7806 21.2714 21.0046L23.2824 23.0204C23.6616 23.4001 24.1731 23.9362 24.5772 24.2699C24.6318 23.6274 24.6056 22.7275 24.6047 22.0607C24.5982 20.739 24.6 19.4172 24.61 18.0954C24.3454 17.8753 24.1346 17.6361 24.0577 17.2918C23.9892 16.9904 24.0469 16.6742 24.2177 16.4159C24.4338 16.092 24.7329 15.9566 25.102 15.8813Z" fill="url(#paint1_linear_1506_2173)"/>
<defs>
<linearGradient id="paint0_linear_1506_2173" x1="25.0975" y1="1.53711" x2="25.0975" y2="48.6598" gradientUnits="userSpaceOnUse">
<stop stop-color="#7A706B" stop-opacity="0.1"/>
<stop offset="0.975962" stop-color="#958C88" stop-opacity="0.5"/>
</linearGradient>
<linearGradient id="paint1_linear_1506_2173" x1="25.2319" y1="3.7422" x2="25.2319" y2="47.9493" gradientUnits="userSpaceOnUse">
<stop offset="1" stop-color="#B7A8A0"/>
</linearGradient>
</defs>
</svg>
