<svg width="212" height="119" viewBox="0 0 212 119" fill="none" xmlns="http://www.w3.org/2000/svg">
<path d="M75.1846 104.277L75.7185 104.287C75.2649 105.259 74.9298 105.714 73.7827 106.065C71.8095 106.669 67.9736 107.6 66.3157 106.099C68.1368 105.804 69.6394 105.455 71.4338 105.031C72.2175 104.841 74.6971 104.469 75.1846 104.277Z" fill="#8A0000"/>
<path d="M0.257671 65.5324C-0.757885 60.7019 1.41171 45.4704 3.56841 40.8141C3.46418 43.5311 2.39411 45.2047 2.02767 47.7007C1.79946 49.2551 1.72255 50.9008 1.46577 52.5393C1.28908 53.6668 0.884018 55.6871 0.822774 56.7252C0.701011 58.7893 0.626547 60.7898 0.377989 62.8696C0.286479 63.6354 0.385103 64.7334 0.257671 65.5324Z" fill="#8A0000"/>
<path d="M111.866 81.6812L112.127 81.8215C109.497 83.7184 107.345 85.2331 104.312 86.4782C103.278 86.9024 102.438 87.5841 101.289 87.9161L100.98 87.8744C101.02 86.7267 103.445 85.87 104.378 85.0718C105.132 84.4276 107.47 82.0069 108.203 81.7917C107.506 82.6225 105.124 84.9723 104.868 85.565L104.983 85.6786C107.721 84.6179 109.491 83.3178 111.866 81.6812Z" fill="#8A0000"/>
<path d="M115.788 78.2404L116.347 77.6776L116.896 78.3059L116.278 79.0723C114.45 81.5347 110.536 85.0923 108.003 86.9641C106.788 87.8615 105.366 88.6969 104.143 89.573C104.505 88.8291 106.776 87.4672 107.591 86.8324C109.735 85.1715 111.777 83.4364 113.661 81.5052C114.232 80.9201 115.345 80.2213 115.145 79.4091L114.894 79.3554C114.246 79.6005 113.132 81.1129 112.181 81.7841L112.127 81.8215L111.866 81.6812C112.741 81.0897 113.511 80.0382 114.315 79.3621C114.8 78.9547 115.251 78.6951 115.788 78.2404Z" fill="#8A0000"/>
<path d="M115.788 78.2404L116.347 77.6776L116.896 78.3059L116.278 79.0723L115.788 78.2404Z" fill="#8A0000"/>
<path d="M32.8472 5.33318C32.5731 6.2633 32.0181 5.73844 32.1355 6.22416C32.4119 6.31328 32.4303 6.29608 32.7223 6.21522C31.4345 6.98957 30.1302 7.77707 28.8362 8.53923C28.195 8.91686 26.5222 10.3832 25.9347 10.3602L25.6625 10.1913C24.7371 10.9104 23.7565 11.701 22.7955 12.3632C22.6229 12.3217 22.5503 12.3158 22.3895 12.2389C26.2283 9.32645 28.5848 7.60396 32.8472 5.33318Z" fill="#8A0000"/>
<path d="M105.554 94.8323C105.675 97.0503 101.353 97.8925 101.431 99.8821C101.726 100.363 101.88 100.397 102.498 100.552C102.554 100.566 102.611 100.58 102.668 100.594C101.937 101.446 100.104 102.639 99.0425 103.114C99.3531 102.622 100.031 102.48 100.321 101.995C101.195 100.537 100.543 98.3759 102.488 97.6923C102.67 97.6286 103.226 97.1785 103.418 97.0207C103.538 96.6533 103.599 96.664 103.484 96.3573C103.223 96.3515 102.925 96.5977 102.138 96.5937L102.007 96.5922C102.734 96.0717 104.664 95.2454 105.554 94.8323Z" fill="#8A0000"/>
<path d="M75.9357 8.89465C76.4634 9.01872 78.3448 10.0679 79.0498 10.3957C79.2556 10.7648 79.4956 11.2227 79.7255 11.5692C79.7648 11.8767 79.8482 12.3953 79.8424 12.6869L79.3231 12.5291C78.6894 12.0147 79.3143 11.2719 78.3347 10.8677C77.5619 10.1702 76.6397 10.2823 75.9357 8.89465Z" fill="#8A0000"/>
<path d="M87.2457 107.364C87.8641 107.039 88.8294 107.264 89.3091 107.72C88.6829 108.092 88.154 108.525 87.4624 108.386C87.1559 107.997 87.2607 107.959 87.2457 107.364Z" fill="#8A0000"/>
<path d="M68.7753 96.5583C70.3886 96.3172 71.9616 95.7596 73.641 95.5029C75.5879 95.1889 77.5793 95.0511 79.5167 94.694C79.8742 94.6281 80.4376 94.1241 80.941 93.9755C80.9437 94.0097 80.9466 94.0439 80.9493 94.0781C81.1187 94.587 80.3365 95.2538 80.51 95.3565C80.874 95.5719 81.6807 95.5771 82.1033 95.7055C77.0909 97.2712 76.7402 97.3166 71.4074 97.1961C70.617 97.0421 69.332 97.2243 68.8164 96.9166L68.7753 96.5583Z" fill="#D7C4C6"/>
<path d="M14.154 62.8175L14.1382 64.4251L13.8286 64.4099C13.5889 64.7614 13.4749 64.9581 13.1417 65.2459L13.115 63.0578C13.5551 62.9405 13.7484 63.0885 14.154 62.8175Z" fill="#E5B5B9"/>
<path d="M123.849 46.0412C124.216 45.2651 123.746 44.3149 124.451 43.5965L124.696 43.7115C124.909 44.4292 124.962 44.3343 125.542 44.8769C125.521 44.857 125.844 45.977 125.872 46.0704L126.05 45.773C126.36 47.6431 126.852 53.4736 126.453 55.0529C126.279 56.5628 125.912 57.8954 125.559 59.3648C125.402 60.0174 125.389 61.3848 124.628 61.6117C124.561 61.1091 124.81 59.032 124.867 58.3848C124.995 56.9236 125 55.9824 124.957 54.5273C124.78 53.1896 124.885 51.3941 124.693 49.9919C124.523 48.7535 123.944 47.2264 123.849 46.0412Z" fill="#8A0000"/>
<path d="M124.957 54.5273L125.001 54.6465C125.417 55.7946 125.446 56.6114 125.505 57.8008C125.862 57.3843 125.86 55.3836 126.337 54.8193L126.453 55.0529C126.279 56.5628 125.912 57.8954 125.559 59.3648C125.402 60.0174 125.389 61.3848 124.628 61.6117C124.561 61.1091 124.81 59.032 124.867 58.3848C124.995 56.9236 125 55.9824 124.957 54.5273Z" fill="#8A0000"/>
<path d="M122.172 39.7896C122.703 39.2249 122.226 39.0631 122.864 38.6763C123.176 38.8244 123.288 38.9368 123.549 39.1523L123.936 39.0797C124.058 39.2651 124.26 39.5476 124.349 39.7366C124.052 40.1935 123.936 40.2522 124.088 40.8598C124.249 41.5023 124.948 43.6951 125.451 44.0007L125.615 43.7495C125.862 44.4997 125.93 45.0057 126.05 45.773L125.872 46.0704C125.844 45.977 125.521 44.857 125.542 44.8769C124.962 44.3343 124.909 44.4292 124.696 43.7115L124.451 43.5965C123.746 44.3149 124.216 45.2651 123.849 46.0412C123.673 45.4768 123.532 44.2777 123.351 43.5626C123.011 42.2186 122.586 41.0984 122.172 39.7896Z" fill="#8A0000"/>
<path d="M62.3784 7.90628C63.3897 7.81567 70.211 9.83709 71.6306 10.0762C72.0069 10.1395 73.8115 10.844 74.3736 10.9939C74.8377 11.1179 75.7225 11.2371 76.1129 11.3658C77.2493 11.4585 77.9918 11.3713 78.2705 12.6923C76.538 12.3537 75.7092 12.0085 74.0884 11.3807C70.6898 10.0476 65.028 9.24925 62.3784 7.90628Z" fill="#8A0000"/>
<path d="M123.508 65.6188C123.887 66.7578 121.174 70.4268 119.942 71.1183C119.753 69.509 122.221 66.5591 123.508 65.6188Z" fill="#8A0000"/>
<path d="M78.2978 4.88198C79.5032 5.46292 82.2454 7.09506 82.8818 8.201L82.5812 8.28037C81.4962 7.70336 80.3075 7.33332 79.2032 6.79586C78.6985 6.37204 77.9502 6.30405 77.6556 5.78217C77.764 5.27708 77.8606 5.32111 78.2978 4.88198Z" fill="#8A0000"/>
<path d="M122.172 39.7896C121.957 38.7751 120.847 35.7332 121.148 35.1531C121.992 35.4099 123.455 38.2145 123.936 39.0797L123.549 39.1523C123.288 38.9368 123.176 38.8244 122.864 38.6763C122.226 39.0631 122.703 39.2249 122.172 39.7896Z" fill="#8A0000"/>
<path d="M119.938 80.8908C119.649 81.6267 118.82 82.4586 118.181 82.9099C117.216 83.5907 113.339 87.2937 112.403 87.2751C112.767 86.636 118.994 81.3702 119.938 80.8908Z" fill="#8A0000"/>
<path d="M125.615 43.7495L125.451 44.0007C124.948 43.6951 124.249 41.5023 124.088 40.8598C123.936 40.2522 124.052 40.1935 124.349 39.7366C124.874 40.7758 125.268 42.5729 125.615 43.7495Z" fill="#8A0000"/>
<path d="M78.3347 10.8677C79.3143 11.2719 78.6894 12.0147 79.3231 12.5291L79.8424 12.6869C79.1763 12.8222 78.9551 12.7747 78.2705 12.6923C77.9918 11.3713 77.2493 11.4585 76.1129 11.3658C76.7276 11.2987 77.9358 11.2429 78.3347 10.8677Z" fill="#8A0000"/>
<path fill-rule="evenodd" clip-rule="evenodd" d="M43.21 1.64611C47.8525 0.129674 52.1518 -0.220687 56.9937 0.119195C60.9899 0.399745 63.349 0.355492 67.2807 1.38717C71.2065 2.41737 74.554 3.13096 78.2978 4.88198C77.8606 5.32111 77.764 5.27708 77.6556 5.78217C77.9502 6.30405 78.6985 6.37204 79.2032 6.79586C77.2339 6.27791 75.415 5.501 73.5263 5.00214L72.6814 4.8445C70.8486 4.53649 69.0349 3.79325 67.3926 3.45531C64.379 2.83513 58.7303 2.8398 55.8017 3.52588C59.6385 4.34935 63.1667 4.32972 66.9407 5.77898C67.3658 5.94226 71.6459 7.15965 71.8997 7.16532L72.2248 7.11695C73.9398 7.5891 74.455 7.94965 75.9357 8.89465C76.4634 9.01872 78.3448 10.0679 79.0498 10.3957C79.2556 10.7648 79.4956 11.2227 79.7255 11.5692C79.7648 11.8767 79.8482 12.3953 79.8424 12.6869L79.3231 12.5291C78.6894 12.0147 79.3143 11.2719 78.3347 10.8677C77.9358 11.2429 76.7276 11.2987 76.1129 11.3658C75.7225 11.2371 74.8377 11.1179 74.3736 10.9939C73.8115 10.844 72.0069 10.1395 71.6306 10.0762C70.211 9.83709 63.3897 7.81567 62.3784 7.90628C61.5877 8.00731 60.1696 8.02377 59.7384 8.70931C60.0678 9.70169 62.5889 10.0565 63.5816 10.5037C64.8964 12.9566 65.6952 12.4402 67.0396 13.8125C63.8717 12.5298 63.8163 12.675 60.5523 12.0073C53.7916 11.4406 47.8296 11.9659 41.843 15.2984C25.0655 24.6381 16.6626 44.2211 18.3444 62.2982C18.5658 64.6771 19.355 66.9987 19.9466 69.2556C21.1678 73.9139 23.3252 77.8444 26.4994 81.5489C28.0975 83.5052 30.3655 84.604 32.4979 85.9236C35.6182 87.8546 38.6679 90.202 42.2086 91.3956C44.7113 92.2392 47.5794 92.5792 50.1081 93.2486H50.1099L54.6443 94.8279C56.4933 96.0385 57.5729 96.4677 59.7485 97.052C60.4009 97.1198 61.5495 97.1737 62.0616 96.7657L61.8711 96.5751C61.211 96.3124 60.4134 96.3993 59.686 96.4203L59.4919 95.3663C59.4613 95.1151 59.484 94.976 59.5074 94.7232C59.9278 94.2005 60.4683 93.9842 61.0792 93.787L61.7121 93.5855L62.3587 93.5645C69.1888 93.3112 80.4779 91.9668 86.3663 89.3218C86.706 89.4252 87.4039 89.6327 87.7803 89.5284C93.0911 88.0532 98.8733 84.5716 103.373 81.5756C105.515 79.9561 107.464 77.9195 109.904 76.7012C110.169 76.5692 112.446 76.1787 112.674 76.279C112.869 77.5031 109.102 80.9167 108.203 81.7917C107.506 82.6225 105.124 84.9723 104.868 85.565L104.983 85.6786C107.721 84.6179 109.491 83.3178 111.866 81.6812C112.741 81.0897 113.511 80.0382 114.315 79.3621C114.8 78.9547 115.251 78.6951 115.788 78.2404L116.347 77.6776L116.896 78.3059L116.278 79.0723C114.45 81.5347 110.536 85.0923 108.003 86.9641C106.788 87.8615 105.366 88.6969 104.143 89.573C103.216 90.3775 99.7944 92.0088 98.5531 92.8047C98.2284 93.013 95.0029 94.93 94.7766 95.0134C93.6841 95.4163 88.3724 97.7895 87.6213 97.7059C85.4649 97.4652 84.1022 98.0685 82.042 98.7109L81.6205 98.8401C81.0011 98.9491 80.3826 99.063 79.7653 99.1827L79.3479 99.2857L78.3649 99.502C76.4965 99.8061 74.6462 100.205 72.8219 100.697C69.2525 101.64 69.2768 101.59 65.6571 101.7C59.6144 101.501 53.6508 102.144 47.9076 99.8839C45.9278 99.1049 44.1391 98.0209 42.1014 97.1561L41.6906 96.9865L41.4881 96.8909C40.3874 96.3979 38.0392 95.6928 36.8269 95.1978C35.8336 94.6384 34.2461 93.6801 33.1808 93.3647L32.9885 93.4364C33.3909 94.3621 35.0325 95.2552 35.9904 95.6406C36.1202 95.6928 36.2524 95.7399 36.3863 95.7817C37.2442 96.3941 37.6182 96.7515 38.3707 97.4873C38.6234 97.7581 39.5429 98.7893 39.7931 98.9295L40.8112 99.5703C40.7112 100.006 40.6988 100.077 40.3587 100.406C39.4267 100.114 38.3921 100.026 37.558 100.625L37.2836 100.565C36.8844 99.8923 35.3995 99.2736 34.6538 98.9004C33.9036 98.4284 33.0902 97.9586 32.3258 97.4999C29.8119 96.4129 22.1846 89.6372 20.8927 87.4392C20.0799 85.3598 18.3133 83.6548 16.6256 82.2039C16.953 82.8856 19.8329 87.6124 20.2598 87.895L20.3199 88.006C20.7038 88.726 21.0396 89.8609 21.3827 90.4042C23.3718 93.5538 28.3858 96.9102 31.8674 98.3848C32.7201 98.9504 33.7528 99.4336 34.6805 99.8969C35.4396 100.25 36.3882 100.604 37.2204 100.751C38.346 101.008 39.0502 101.223 40.2122 101.352C42.6089 101.88 43.7039 102.645 46.3941 102.653C48.0276 102.963 49.5183 103.605 51.0982 103.969C56.9231 105.309 60.223 106.312 66.3157 106.099C68.1368 105.804 69.6394 105.455 71.4338 105.031C72.2175 104.841 74.6971 104.469 75.1846 104.277L75.7185 104.287C75.9929 104.228 76.2944 104.178 76.5978 104.132C76.9011 104.086 77.2063 104.045 77.4879 104.003L78.1226 103.923C79.1786 103.59 82.0829 103.016 83.3572 102.709C85.7877 101.95 87.6004 102.254 89.236 101.769C93.264 100.576 98.2387 98.4526 102.007 96.5922C102.734 96.0717 104.664 95.2454 105.554 94.8323C105.675 97.0503 101.353 97.8925 101.431 99.8821C101.726 100.363 101.88 100.397 102.498 100.552C102.554 100.566 102.611 100.58 102.668 100.594C101.937 101.446 100.104 102.639 99.0425 103.114C98.2308 103.791 90.1057 107.653 89.3091 107.72C88.6829 108.092 88.154 108.525 87.4624 108.386C87.1559 107.997 87.2607 107.959 87.2457 107.364C87.1116 107.404 85.8092 108.126 85.5887 108.244C83.8059 109.196 82.6123 109.831 80.6839 110.502C80.5418 111.162 80.4553 111.91 80.3612 112.584C83.658 113.01 88.0038 113.076 90.9019 113.803L91.0388 114.042L90.9376 114.316C89.3388 115.711 86.8991 115.379 84.8564 115.851C81.2727 116.461 77.1323 118.16 73.5554 118.465C68.2669 118.916 62.0663 118.955 56.7514 118.692C54.5464 118.583 51.5902 118.631 49.5734 118.312C46.0402 117.754 42.2759 116.715 38.8387 115.757C37.1756 115.261 36.8661 114.797 36.222 113.402C32.4304 113.274 25.4073 109.778 22.5014 107.448C20.0405 105.475 17.6764 103.276 14.8775 101.375C11.4611 99.0543 7.88049 92.9699 6.17007 89.361C5.80328 88.5871 5.5334 86.0506 5.41215 85.0592C5.00024 84.5867 3.8415 83.7534 3.22472 83.1612C2.86926 82.0514 2.74414 80.648 2.42929 79.5337C1.17146 75.0824 0.392881 70.1695 0.257671 65.5324C-0.757885 60.7019 1.41171 45.4704 3.56841 40.8141C4.07519 38.7521 5.93629 36.4935 6.30522 34.9441C7.12335 31.5069 6.92364 31.0536 8.8225 27.779C10.9612 24.034 13.6392 20.5943 16.7792 17.5618C17.3804 16.9695 22.0351 12.4295 22.3895 12.2389C26.2283 9.32645 28.5848 7.60396 32.8472 5.33318C35.2673 3.891 35.4832 4.39565 37.8099 3.57482C39.5765 2.90904 41.4224 2.23006 43.21 1.64611ZM68.7753 96.5583C68.1827 96.557 65.5234 96.6727 65.107 96.9268C66.0044 97.2604 70.3758 97.2312 71.4074 97.1961C70.617 97.0421 69.332 97.2243 68.8164 96.9166L68.7753 96.5583ZM96.0121 90.1715C94.0655 91.0898 93.6064 90.987 91.555 91.5772C90.4644 91.8909 88.629 92.6838 87.5207 93.1183C86.9688 92.7881 87.3737 92.6066 86.8569 92.0051C86.3456 91.9551 85.5973 92.936 85.2214 93.338C84.1395 94.4948 82.0086 93.5664 80.941 93.9755C80.9437 94.0097 80.9466 94.0439 80.9493 94.0781C81.1187 94.587 80.3365 95.2538 80.51 95.3565C80.874 95.5719 81.6807 95.5771 82.1033 95.7055L82.1629 95.7703C83.1372 95.9918 85.2894 94.6839 86.1186 94.2047C86.6484 94.4183 87.2172 94.5308 87.7922 94.5354C90.219 94.5367 94.316 91.7597 96.0121 90.1715ZM13.8286 64.4099C13.5889 64.7614 13.4749 64.9581 13.1417 65.2459C13.1444 68.0613 14.2461 77.6298 16.3154 79.639L16.4738 79.5081C16.8082 77.374 15.0962 71.1558 14.5197 69.0109C14.1716 67.7153 14.1605 65.7926 14.1382 64.4251L13.8286 64.4099ZM15.9969 47.9596C13.545 52.3444 13.0013 58.1407 13.115 63.0578C13.5551 62.9405 13.7484 63.0885 14.154 62.8175C14.3772 57.8521 15.956 52.7649 15.9969 47.9596Z" fill="#8A0000"/>
<path d="M117.504 76.331C117.853 75.8006 118.448 74.9619 119.134 75.1149C118.859 75.5966 118.294 76.6027 117.883 76.929L117.504 76.331Z" fill="#8A0000"/>
<path d="M116.347 77.6776L117.504 76.331L117.883 76.929C117.588 77.3444 117.207 77.9195 116.896 78.3059L116.347 77.6776Z" fill="#8A0000"/>
<path d="M159.151 40.0572C178.526 37.1982 180.315 64.0644 164.009 66.5442C160.537 67.0374 156.391 66.5576 153.471 64.5708C147.329 60.3877 146.527 49.9765 150.851 44.4882C153 41.7623 155.551 40.5182 159.151 40.0572ZM162.373 65.0539C164.4 63.8654 165.714 62.1174 166.133 59.8579C167.067 54.8235 167.406 48.1841 164.849 43.4981C164.041 42.0132 162.396 41.5327 160.735 41.603C159.19 42.2195 158.175 43.2379 157.64 44.7327C155.683 50.1844 155.676 56.9246 157.912 62.2924C158.686 64.1508 160.253 65.1508 162.373 65.0539Z" fill="#11100C"/>
<path d="M142.609 39.2166C143.586 39.1887 145.058 39.0993 145.975 39.246C146.262 39.524 146.139 39.3733 146.17 39.9047C145.613 40.8501 144.22 39.924 143.344 40.7168C142.39 42.3354 142.816 61.0384 143.154 64.0488C144.031 64.2887 144.892 64.3594 145.806 64.5207C145.96 64.9325 145.996 64.9222 145.917 65.3412C145.436 65.4867 134.123 65.4141 132.872 65.3557L132.781 65.0549C133.247 64.3206 134.394 64.3201 135.509 64.0238C135.947 61.8568 135.791 55.5846 135.79 53.0105C133.146 53.0001 130.504 53.0031 127.863 53.0197C127.943 55.9311 127.585 61.6481 128.215 64.2072C129.182 64.3206 129.973 64.3275 130.748 64.8813L130.651 65.0895C129.166 65.5923 122.951 65.3969 121.023 65.3919C120.235 65.4027 118.083 65.5239 117.537 65.1832L117.663 64.7764C118.253 64.3024 119.091 64.511 119.744 64.1861C120.192 63.9641 120.462 63.6594 120.626 63.22C121.137 61.8585 120.993 44.9491 120.781 42.5279C120.746 42.1247 120.633 41.8289 120.449 41.4621C120.274 41.1146 120.122 40.7765 119.987 40.4145C119.248 40.3433 117.938 40.3201 117.472 39.7483C118.022 39.14 120.315 39.1795 121.123 39.2495C122.664 39.3833 130.237 38.9307 131.165 39.622C130.861 40.1321 128.889 40.2907 128.086 40.7382C127.726 43.3727 127.874 48.1244 127.883 50.9683L135.788 50.9794L135.77 44.8729C135.765 43.8609 135.816 42.0773 135.65 41.1332C134.721 39.8048 133.145 40.9465 132.779 39.4787L132.909 39.304C135.876 39.1688 139.558 39.2633 142.609 39.2166Z" fill="#11100C"/>
<path d="M78.6481 39C79.4858 39.1105 79.6853 39.1186 80.5286 39.0606C82.3778 44.129 84.9708 49.9961 86.9911 55.0862L89.1836 60.6804C89.5159 61.5272 89.8484 62.4209 90.2362 63.2441C90.5649 63.9421 91.8835 64.1484 91.8778 65.0093C91.4403 65.3313 81.0914 65.3964 80.24 65.1914C79.9987 64.8599 80.0863 65.0429 80.0903 64.5895C80.6686 63.9402 81.6078 64.2139 82.9606 63.9426C82.9389 61.526 81.8915 59.2907 80.7659 57.1076L73.4693 57.0795C73.1699 58.5575 72.2354 61.0059 71.7659 62.6271C72.8347 64.4517 72.9792 63.7738 74.8418 64.5841L74.9143 64.8267C74.5435 65.384 73.8751 65.3357 73.1982 65.2956C71.9737 65.2231 68.3182 65.5402 67.4584 64.7581C67.7998 63.9036 68.8628 64.2391 69.3246 63.6449C70.8511 61.6801 71.7526 58.1709 72.5466 55.9013L76.4462 44.7876C76.9347 43.3967 77.921 40.0471 78.6481 39ZM74.1918 55.3034C75.1842 55.3491 76.1891 55.4103 77.1818 55.3989L80.2357 55.4013C79.7495 54.2649 77.5445 48.2318 77.0101 47.6917C76.3019 48.8068 74.956 53.5754 74.1918 55.3034Z" fill="#11100C"/>
<path d="M67.7126 39.103C67.8656 39.4323 67.8655 41.8161 67.836 42.3313C67.7775 43.3511 68.2797 45.4022 67.1175 45.876C66.9419 45.7806 66.6523 45.621 66.6454 45.3749C66.5156 40.7292 63.8499 40.743 60.0762 40.6261C60.2146 43.8021 59.7977 62.4747 60.4303 63.5249C60.7663 64.0829 62.7655 64.0249 63.3836 64.9094L63.2558 65.1989C62.4952 65.3492 59.6613 65.2929 58.706 65.2921L49.3556 65.2794C50.4438 64.0615 50.2297 64.1869 51.9169 64.1684C52.2516 63.5884 52.503 63.2772 52.9132 62.7492C52.9837 58.3745 53.0178 53.9995 53.0158 49.6244C53.0167 46.7385 53.063 43.554 52.8974 40.6858L49.3672 40.7735C48.2825 41.2788 47.8845 41.6965 47.0934 42.494C46.94 43.1977 46.5785 45.5621 45.7573 45.686L45.4819 45.453C44.977 44.2465 45.2315 40.6339 45.2674 39.1386L67.7126 39.103Z" fill="#11100C"/>
<path d="M114.043 39.226C114.154 39.2835 114.73 39.5654 114.757 39.6755C115.006 40.6747 115.088 47.3523 114.715 47.6823C113.632 47.1727 112.396 43.2839 110.758 42.2739C110.175 41.7157 108.333 40.7091 107.408 40.934C101.034 42.4844 101.391 53.4632 102.107 57.9335C102.7 61.6323 103.955 64.0922 107.861 64.1057C111.623 64.1188 113.085 60.1853 114.829 59.8537L114.964 59.9944C114.55 60.9272 115.309 60.6944 114.309 62.0495C113.968 62.4597 113.603 62.8518 113.213 63.224C107.014 69.0728 96.7514 66.109 94.3469 58.42C91.4819 49.2546 96.6492 37.0709 108.972 39.8835C110.19 40.1616 111.227 40.9562 112.541 40.9618C113.168 40.7179 113.633 39.9243 113.951 39.3838L114.043 39.226Z" fill="#11100C"/>
<path d="M28.0584 39.2138C31.212 39.3193 34.6446 39.1565 37.82 39.2315C38.8645 39.2561 41.0557 39.1532 41.9411 39.3599L42.1594 39.7468C41.3963 40.4629 40.8786 40.3159 39.8561 40.2895C39.5724 40.6372 39.2539 40.966 38.9459 41.2973C38.5732 47.0682 38.9007 53.4042 38.832 59.2311C38.9712 60.5947 38.603 62.7289 39.3254 63.9343C39.5385 64.2901 41.4421 64.3573 41.9909 64.8455C41.9883 65.2446 42.0693 65.0776 41.8093 65.3783C39.9302 65.3754 29.0683 65.5683 28.0925 65.3108L28 65.1299C28.4564 64.3761 29.7954 64.1712 30.6635 64.1269C30.9347 63.6144 31.3704 62.8005 31.3847 62.2595C31.4733 58.9112 31.9313 43.9741 31.1772 41.6306L30.7644 40.3737C29.925 40.3087 29.1418 40.4662 28.4268 40.1979C28.0049 39.7997 28.1391 39.9084 28.0584 39.2138Z" fill="#11100C"/>
<path d="M173.245 72.9433C174.066 72.9104 179.135 72.9183 179.633 73.0831L179.621 73.3995L179.375 73.5392C178.862 73.5498 178.503 73.5023 178.076 73.7475C177.692 74.532 177.87 78.5399 177.886 79.6829C179.384 79.7277 181.029 79.6908 182.537 79.6856C182.541 77.8794 182.59 75.7304 182.459 73.9559C181.665 73.7159 180.879 73.3639 180.116 73.0435C182.266 72.8682 187.639 72.9341 189.819 73.0514C188.959 73.3876 188.022 73.6315 187.127 73.8873L187.087 81.8859C187.069 83.5669 186.959 86.0732 187.16 87.6842C187.33 87.7185 187.5 87.7541 187.669 87.7897C188.229 87.9097 188.677 87.944 188.982 88.3962L188.815 88.6045C188.075 88.8352 187.634 88.7561 186.854 88.7152C185.632 88.7007 181.773 88.9459 181.059 88.4252V88.1483C181.391 87.8464 181.981 87.8187 182.473 87.7396C182.525 85.5247 182.537 83.3098 182.507 81.0949C180.927 81.1186 179.419 81.1608 177.84 81.0699C177.957 83.0975 177.889 85.7251 177.896 87.7805C178.522 87.8741 178.879 87.8609 179.351 88.2116L179.364 88.4054C178.627 88.9143 172.221 88.9657 171.579 88.4015L171.614 88.1457C172.058 87.824 172.722 87.7858 173.302 87.6922C173.513 84.8761 173.368 77.2782 173.222 74.1259C173.205 73.741 171.953 73.5379 171.43 73.3481L171.363 73.1029C171.894 72.8959 172.645 72.9473 173.245 72.9433Z" fill="#11100C"/>
<path d="M158.76 72.6441C159.745 72.561 160.865 72.4437 161.816 72.7456C162.239 72.8801 164.091 73.6328 164.458 73.5564C164.767 73.4931 164.838 73.0264 165.703 72.8708C166.103 73.0343 165.999 72.9051 166.133 73.1912C165.764 74.7297 166.431 76.4634 165.946 77.3467L165.671 77.4113C163.655 76.4384 165.846 74.706 160.722 73.4549C159.892 73.6355 157.654 74.3092 158.042 75.356C158.948 77.7528 163.304 78.2986 165.1 80.0481C166.989 81.8873 167.252 85.9862 164.967 87.6777C163.487 88.7732 162.568 88.8484 160.781 88.8761C158.813 88.7798 157.892 88.4911 156.187 87.5985C155.689 88.0468 155.06 88.5267 154.528 88.9539C154.443 88.0033 154.251 83.6829 154.719 83.0184C155.073 83.2953 155.221 83.7066 155.423 84.0982C156.532 86.2511 156.948 86.7719 159.196 87.766C159.728 87.7462 160.77 87.7238 161.266 87.6447C161.889 87.5419 162.438 87.207 162.781 86.7205C164.429 84.416 159.682 82.8853 158.108 81.9822C156.644 81.1582 154.864 79.9018 154.571 78.23C154.06 75.3138 155.677 73.1609 158.76 72.6441Z" fill="#11100C"/>
<path d="M121.275 72.6375C122.717 72.5254 124.074 72.4463 125.436 72.975C126.124 73.2426 126.657 73.5181 127.386 73.6513C127.611 73.2874 127.675 73.091 128.077 72.8972C128.596 72.9447 128.388 72.8524 128.756 73.1068C128.749 73.9651 128.969 76.9829 128.425 77.4746L128.16 77.4258C127.674 76.8827 127.75 76.0784 127.424 75.5867C126.414 74.0626 125.301 73.8873 123.58 73.4971C121.485 73.8557 119.705 75.0461 121.979 76.7759C123.664 78.0586 126.331 78.5096 127.923 80.0705C129.651 81.7673 129.817 83.9321 128.975 86.0573C128.054 88.4041 125.872 88.9815 123.344 88.9051C121.521 88.797 120.686 88.2617 118.978 87.82C118.635 87.7317 118.019 88.5873 117.59 89L117.449 88.9394C117.196 87.7054 117.24 84.201 117.424 82.8919L117.656 82.7772C118.224 83.2834 118.56 85.4904 119.92 86.4898C121.672 87.7752 122.205 87.7225 124.334 87.6605C129.071 84.9605 122.271 82.7956 120.193 81.5181C116.155 79.0343 116.289 74.1444 121.275 72.6375Z" fill="#11100C"/>
<path d="M134.345 72.9381C136.419 72.7548 140.619 72.9605 142.848 73.0145C142.112 73.3098 141.383 73.6144 140.659 73.9308L140.614 81.3955C140.607 83.0316 140.292 85.7291 141.484 86.9934C142.927 88.5267 144.959 87.1292 146.17 86.0679C147.002 82.619 146.639 77.6434 146.356 74.0943C146.311 73.5208 145.241 73.8174 144.769 73.2742L144.849 73.0646C145.705 72.9104 147.244 72.9631 148.176 72.9657C148.726 72.975 149.163 72.9288 149.647 73.1503L149.526 73.3362C148.779 73.6645 148.465 73.8504 147.786 74.263C147.638 78.2762 149.484 87.9242 143.728 88.7521C132.601 90.354 137.056 79.708 135.88 73.8187L135.84 73.6223C135.306 73.5959 134.551 73.6104 134.125 73.3599L134.099 73.1569L134.345 72.9381Z" fill="#11100C"/>
<path d="M195.384 72.9367C196.79 72.9486 200.961 72.7746 202 73.1793L201.988 73.3679C201.42 73.7106 200.941 73.7265 200.263 73.8306C200.141 78.1997 200.295 82.6203 200.243 86.9947C200.237 87.4272 200.312 87.5577 200.639 87.8069C201.429 87.8649 201.424 87.7805 201.6 88.4713C201.803 88.5452 201.704 88.499 201.898 88.6124C201.417 88.8932 200.57 88.7693 199.977 88.735C198.729 88.7034 194.34 88.8603 193.578 88.6704C194.067 87.5076 194.218 88.0692 195.189 87.6131C196.061 86.4357 195.519 76.1009 195.436 73.882C194.592 73.6408 193.532 73.4193 192.643 73.1833C193.729 72.9763 194.264 72.9697 195.384 72.9367Z" fill="#11100C"/>
</svg>
