<svg width="187" height="101" viewBox="0 0 187 101" fill="none" xmlns="http://www.w3.org/2000/svg">
<path d="M63.8319 88.5317L64.2852 88.54C63.9001 89.3648 63.6156 89.7514 62.6417 90.0496C60.9665 90.5624 57.7097 91.3529 56.3022 90.0783C57.8483 89.8281 59.124 89.532 60.6474 89.1712C61.3128 89.0102 63.418 88.6945 63.8319 88.5317Z" fill="#8A0000"/>
<path d="M0.218764 55.6372C-0.643447 51.5361 1.19855 38.6045 3.02959 34.6513C2.9411 36.958 2.03261 38.3789 1.7215 40.498C1.52775 41.8177 1.46245 43.2149 1.24444 44.606C1.09444 45.5632 0.750533 47.2785 0.698538 48.1598C0.59516 49.9122 0.53194 51.6107 0.320914 53.3765C0.243221 54.0267 0.326953 54.9588 0.218764 55.6372Z" fill="#8A0000"/>
<path d="M94.9743 69.3475L95.1964 69.4666C92.9635 71.0771 91.1363 72.3631 88.5612 73.4202C87.6837 73.7803 86.9701 74.3591 85.9944 74.641L85.7321 74.6056C85.7663 73.6312 87.8247 72.9039 88.6175 72.2262C89.2575 71.6793 91.2424 69.6241 91.8644 69.4413C91.2729 70.1467 89.2509 72.1417 89.033 72.6449L89.1311 72.7414C91.455 71.8408 92.9582 70.737 94.9743 69.3475Z" fill="#8A0000"/>
<path d="M98.3042 66.4263L98.7789 65.9485L99.2452 66.4819L98.7204 67.1326C97.1687 69.2232 93.8457 72.2435 91.6945 73.8328C90.6633 74.5946 89.4559 75.3039 88.4179 76.0477C88.7253 75.4162 90.6532 74.2599 91.3447 73.7209C93.165 72.3108 94.8988 70.8377 96.4985 69.1981C96.9831 68.7013 97.9286 68.1081 97.7587 67.4186L97.5452 67.3729C96.9949 67.5811 96.0491 68.8651 95.242 69.4349L95.1964 69.4666L94.9743 69.3475C95.7175 68.8453 96.3712 67.9526 97.054 67.3787C97.4654 67.0328 97.8487 66.8123 98.3042 66.4263Z" fill="#8A0000"/>
<path d="M98.3042 66.4263L98.7789 65.9485L99.2452 66.4819L98.7204 67.1326L98.3042 66.4263Z" fill="#8A0000"/>
<path d="M27.8873 4.52789C27.6547 5.31756 27.1834 4.87195 27.2832 5.28433C27.5177 5.35999 27.5334 5.34539 27.7813 5.27674C26.688 5.93417 25.5806 6.60275 24.482 7.24983C23.9376 7.57044 22.5174 8.81538 22.0186 8.79583L21.7875 8.65243C21.0018 9.26294 20.1693 9.93417 19.3534 10.4964C19.2069 10.4612 19.1453 10.4561 19.0087 10.3908C22.2679 7.91818 24.2686 6.45578 27.8873 4.52789Z" fill="#8A0000"/>
<path d="M89.6152 80.5129C89.718 82.3959 86.0488 83.111 86.1151 84.8001C86.3656 85.208 86.4968 85.2371 87.0208 85.3691C87.0689 85.3812 87.1173 85.3929 87.1657 85.4042C86.545 86.1278 84.9884 87.1408 84.0873 87.544C84.351 87.1262 84.9267 87.0054 85.1731 86.5942C85.915 85.356 85.3609 83.5214 87.0126 82.941C87.1667 82.887 87.6391 82.5048 87.8017 82.3709C87.9043 82.0589 87.9562 82.068 87.8581 81.8076C87.6369 81.8027 87.3839 82.0117 86.7156 82.0083L86.6038 82.007C87.221 81.5651 88.8597 80.8636 89.6152 80.5129Z" fill="#8A0000"/>
<path d="M64.4696 7.55158C64.9176 7.65691 66.5149 8.54767 67.1134 8.82596C67.2882 9.13932 67.4919 9.52812 67.6872 9.82228C67.7205 10.0833 67.7914 10.5236 67.7864 10.7712L67.3455 10.6373C66.8075 10.2005 67.3381 9.56986 66.5064 9.22672C65.8502 8.63449 65.0673 8.72971 64.4696 7.55158Z" fill="#8A0000"/>
<path d="M74.0718 91.1519C74.5969 90.8767 75.4164 91.0672 75.8236 91.4546C75.292 91.7705 74.843 92.1383 74.2558 92.0204C73.9956 91.6897 74.0846 91.6571 74.0718 91.1519Z" fill="#8A0000"/>
<path d="M58.3904 81.9783C59.7601 81.7736 61.0956 81.3001 62.5214 81.0822C64.1743 80.8157 65.865 80.6986 67.5098 80.3955C67.8134 80.3395 68.2917 79.9116 68.7191 79.7854C68.7214 79.8145 68.7238 79.8435 68.7261 79.8726C68.87 80.3046 68.2059 80.8707 68.3532 80.9579C68.6622 81.1408 69.3471 81.1452 69.7059 81.2542C65.4503 82.5835 65.1526 82.622 60.6251 82.5198C59.954 82.389 58.8631 82.5437 58.4253 82.2824L58.3904 81.9783Z" fill="#D7C4C6"/>
<path d="M12.0168 53.3322L12.0034 54.6971L11.7405 54.6842C11.537 54.9826 11.4403 55.1496 11.1573 55.394L11.1347 53.5362C11.5084 53.4366 11.6724 53.5623 12.0168 53.3322Z" fill="#E5B5B9"/>
<path d="M105.148 39.0891C105.459 38.4302 105.061 37.6235 105.659 37.0135L105.867 37.1112C106.048 37.7205 106.093 37.6399 106.585 38.1006C106.567 38.0837 106.842 39.0346 106.865 39.1139L107.017 38.8614C107.28 40.4491 107.698 45.3992 107.359 46.7401C107.211 48.0219 106.9 49.1534 106.6 50.4008C106.467 50.9549 106.455 52.1159 105.81 52.3085C105.753 51.8818 105.964 50.1183 106.012 49.5689C106.121 48.3283 106.125 47.5292 106.089 46.2938C105.939 45.1581 106.028 43.6337 105.864 42.4433C105.72 41.3919 105.229 40.0953 105.148 39.0891Z" fill="#8A0000"/>
<path d="M106.089 46.2938L106.126 46.395C106.479 47.3698 106.504 48.0632 106.554 49.073C106.857 48.7194 106.856 47.0208 107.26 46.5417L107.359 46.7401C107.211 48.0219 106.9 49.1534 106.6 50.4008C106.467 50.9549 106.455 52.1159 105.81 52.3085C105.753 51.8818 105.964 50.1183 106.012 49.5689C106.121 48.3283 106.125 47.5292 106.089 46.2938Z" fill="#8A0000"/>
<path d="M103.725 33.7815C104.175 33.3021 103.77 33.1646 104.312 32.8363C104.577 32.962 104.672 33.0575 104.893 33.2404L105.222 33.1788C105.326 33.3362 105.497 33.576 105.572 33.7365C105.321 34.1244 105.222 34.1742 105.351 34.69C105.488 35.2356 106.081 37.0973 106.509 37.3567L106.647 37.1435C106.857 37.7803 106.915 38.2099 107.017 38.8614L106.865 39.1139C106.842 39.0346 106.567 38.0837 106.585 38.1006C106.093 37.6399 106.048 37.7205 105.867 37.1112L105.659 37.0135C105.061 37.6235 105.459 38.4302 105.148 39.0891C104.999 38.6099 104.879 37.5918 104.725 36.9848C104.437 35.8437 104.076 34.8927 103.725 33.7815Z" fill="#8A0000"/>
<path d="M52.9594 6.71245C53.818 6.63552 59.6093 8.35171 60.8145 8.55468C61.1341 8.6085 62.6661 9.20659 63.1434 9.33389C63.5374 9.43911 64.2886 9.54031 64.62 9.64955C65.5849 9.72832 66.2152 9.65427 66.4519 10.7758C64.9809 10.4883 64.2773 10.1952 62.9012 9.6622C60.0158 8.53042 55.209 7.85263 52.9594 6.71245Z" fill="#8A0000"/>
<path d="M104.858 55.7105C105.18 56.6775 102.877 59.7925 101.831 60.3796C101.671 59.0133 103.766 56.5088 104.858 55.7105Z" fill="#8A0000"/>
<path d="M66.475 4.14482C67.4984 4.63803 69.8266 6.02373 70.3668 6.96267L70.1117 7.03005C69.1905 6.54017 68.1813 6.22601 67.2437 5.7697C66.8152 5.40988 66.1799 5.35215 65.9298 4.90908C66.0218 4.48026 66.1039 4.51763 66.475 4.14482Z" fill="#8A0000"/>
<path d="M103.725 33.7815C103.542 32.9202 102.599 30.3376 102.855 29.8451C103.572 30.0631 104.814 32.4442 105.222 33.1788L104.893 33.2404C104.672 33.0575 104.577 32.962 104.312 32.8363C103.77 33.1646 104.175 33.3021 103.725 33.7815Z" fill="#8A0000"/>
<path d="M101.828 68.6765C101.583 69.3013 100.878 70.0076 100.336 70.3907C99.5171 70.9687 96.2254 74.1126 95.4301 74.0968C95.7395 73.5542 101.026 69.0835 101.828 68.6765Z" fill="#8A0000"/>
<path d="M106.647 37.1435L106.509 37.3567C106.081 37.0973 105.488 35.2356 105.351 34.69C105.222 34.1742 105.321 34.1244 105.572 33.7365C106.018 34.6188 106.353 36.1445 106.647 37.1435Z" fill="#8A0000"/>
<path d="M66.5064 9.22672C67.3381 9.56986 66.8075 10.2005 67.3455 10.6373L67.7864 10.7712C67.2209 10.8861 67.0331 10.8457 66.4519 10.7758C66.2152 9.65427 65.5849 9.72832 64.62 9.64955C65.1419 9.59263 66.1677 9.54526 66.5064 9.22672Z" fill="#8A0000"/>
<path fill-rule="evenodd" clip-rule="evenodd" d="M36.6854 1.39755C40.6269 0.110094 44.2771 -0.187364 48.3878 0.101196C51.7806 0.339384 53.7835 0.301814 57.1215 1.17771C60.4545 2.05235 63.2965 2.65819 66.475 4.14482C66.1039 4.51763 66.0218 4.48026 65.9298 4.90908C66.1799 5.35215 66.8152 5.40988 67.2437 5.7697C65.5718 5.32997 64.0275 4.67036 62.424 4.24683L61.7067 4.11299C60.1507 3.85149 58.6108 3.22048 57.2165 2.93356C54.6579 2.40703 49.8622 2.41099 47.3758 2.99348C50.6332 3.69261 53.6287 3.67594 56.8329 4.90636C57.1937 5.045 60.8275 6.07856 61.043 6.08338L61.319 6.04231C62.7751 6.44317 63.2125 6.74927 64.4696 7.55158C64.9176 7.65691 66.5149 8.54767 67.1134 8.82596C67.2882 9.13932 67.4919 9.52812 67.6872 9.82228C67.7205 10.0833 67.7914 10.5236 67.7864 10.7712L67.3455 10.6373C66.8075 10.2005 67.3381 9.56986 66.5064 9.22672C66.1677 9.54526 65.1419 9.59263 64.62 9.64955C64.2886 9.54031 63.5374 9.43911 63.1434 9.33389C62.6661 9.20659 61.1341 8.6085 60.8145 8.55468C59.6093 8.35171 53.818 6.63552 52.9594 6.71245C52.2881 6.79823 51.0842 6.8122 50.718 7.39423C50.9977 8.23676 53.1381 8.53797 53.9809 8.91768C55.0972 11.0002 55.7754 10.5618 56.9168 11.7269C54.2273 10.6378 54.1802 10.7611 51.409 10.1942C45.6692 9.71308 40.6074 10.1591 35.5248 12.9884C21.2806 20.9178 14.1466 37.5438 15.5745 52.8914C15.7624 54.911 16.4325 56.8821 16.9347 58.7982C17.9715 62.7531 19.8031 66.0901 22.4981 69.2352C23.8548 70.8961 25.7804 71.829 27.5908 72.9494C30.24 74.5887 32.8292 76.5818 35.8352 77.5951C37.96 78.3113 40.3951 78.6 42.5419 79.1683H42.5434L46.3932 80.5091C47.963 81.5369 48.8795 81.9013 50.7266 82.3974C51.2805 82.455 52.2557 82.5007 52.6904 82.1543L52.5287 81.9925C51.9683 81.7695 51.2911 81.8432 50.6736 81.861L50.5088 80.9662C50.4828 80.7529 50.5021 80.6349 50.5219 80.4202C50.8788 79.9764 51.3377 79.7928 51.8564 79.6254L52.3937 79.4544L52.9427 79.4365C58.7415 79.2214 68.3259 78.0801 73.3252 75.8344C73.6136 75.9223 74.2061 76.0984 74.5257 76.0098C79.0346 74.7574 83.9437 71.8015 87.7637 69.2579C89.5829 67.8829 91.2374 66.1538 93.3089 65.1195C93.5334 65.0074 95.467 64.6759 95.6604 64.761C95.8264 65.8003 92.6282 68.6985 91.8644 69.4413C91.2729 70.1467 89.2509 72.1417 89.033 72.6449L89.1311 72.7414C91.455 71.8408 92.9582 70.737 94.9743 69.3475C95.7175 68.8453 96.3712 67.9526 97.054 67.3787C97.4654 67.0328 97.8487 66.8123 98.3042 66.4263L98.7789 65.9485L99.2452 66.4819L98.7204 67.1326C97.1687 69.2232 93.8457 72.2435 91.6945 73.8328C90.6633 74.5946 89.4559 75.3039 88.4179 76.0477C87.6304 76.7308 84.7257 78.1157 83.6719 78.7914C83.3961 78.9683 80.6577 80.5958 80.4656 80.6666C79.5381 81.0086 75.0284 83.0236 74.3907 82.9525C72.5599 82.7482 71.403 83.2604 69.6539 83.8058L69.296 83.9155C68.7701 84.0081 68.245 84.1047 67.7209 84.2064L67.3666 84.2938L66.532 84.4774C64.9457 84.7356 63.3748 85.0747 61.826 85.4921C58.7955 86.2925 58.8162 86.2503 55.743 86.3435C50.6128 86.1742 45.5497 86.7206 40.6736 84.8016C38.9928 84.1403 37.4742 83.22 35.7442 82.4858L35.3954 82.3418L35.2235 82.2606C34.289 81.842 32.2954 81.2435 31.2661 80.8232C30.4228 80.3483 29.075 79.5346 28.1706 79.2669L28.0073 79.3278C28.349 80.1136 29.7427 80.8719 30.5559 81.1991C30.6662 81.2434 30.7784 81.2834 30.8921 81.3189C31.6204 81.8388 31.9379 82.1422 32.5768 82.767C32.7913 82.9969 33.572 83.8723 33.7844 83.9914L34.6488 84.5354C34.5639 84.9054 34.5534 84.966 34.2646 85.2452C33.4734 84.9972 32.595 84.922 31.8869 85.4312L31.6538 85.3795C31.3149 84.8088 30.0543 84.2835 29.4211 83.9667C28.7843 83.566 28.0937 83.1671 27.4447 82.7776C25.3104 81.8548 18.8348 76.1022 17.7379 74.2361C17.0479 72.4707 15.5481 71.0232 14.1152 69.7914C14.3931 70.3701 16.8382 74.3831 17.2006 74.6231L17.2517 74.7173C17.5776 75.3286 17.8627 76.2922 18.154 76.7534C19.8427 79.4274 24.0996 82.277 27.0555 83.529C27.7794 84.0091 28.6562 84.4194 29.4439 84.8128C30.0883 85.1124 30.8937 85.4132 31.6003 85.5375C32.5559 85.7562 33.1537 85.9382 34.1403 86.0478C36.1751 86.4961 37.1047 87.1455 39.3887 87.1523C40.7755 87.4156 42.0412 87.9612 43.3825 88.2699C48.3279 89.4077 51.1295 90.2593 56.3022 90.0783C57.8483 89.8281 59.124 89.532 60.6474 89.1712C61.3128 89.0102 63.418 88.6945 63.8319 88.5317L64.2852 88.54C64.5181 88.4902 64.7742 88.4475 65.0318 88.4085C65.2893 88.3696 65.5484 88.3346 65.7874 88.2989L66.3263 88.2312C67.2228 87.9484 69.6886 87.4605 70.7705 87.2006C72.834 86.556 74.373 86.8137 75.7616 86.4024C79.1814 85.3892 83.4049 83.5865 86.6038 82.007C87.221 81.5651 88.8597 80.8636 89.6152 80.5129C89.718 82.3959 86.0488 83.111 86.1151 84.8001C86.3656 85.208 86.4968 85.2371 87.0208 85.3691C87.0689 85.3812 87.1173 85.3929 87.1657 85.4042C86.545 86.1278 84.9884 87.1408 84.0873 87.544C83.3982 88.1186 76.5 91.3974 75.8236 91.4546C75.292 91.7705 74.843 92.1383 74.2558 92.0204C73.9956 91.6897 74.0846 91.6571 74.0718 91.1519C73.958 91.1861 72.8523 91.7995 72.665 91.8995C71.1514 92.7078 70.1381 93.2468 68.5009 93.8162C68.3802 94.3764 68.3068 95.0118 68.2269 95.5837C71.0259 95.9457 74.7155 96.0014 77.1759 96.6191L77.2922 96.8221L77.2063 97.0545C75.8489 98.2392 73.7776 97.9573 72.0433 98.3581C69.0007 98.8759 65.4855 100.318 62.4487 100.577C57.9587 100.96 52.6944 100.993 48.1821 100.77C46.31 100.678 43.8003 100.718 42.088 100.447C39.0882 99.9736 35.8923 99.091 32.9741 98.2779C31.5622 97.8571 31.2995 97.4633 30.7526 96.279C27.5335 96.1698 21.5709 93.2015 19.1038 91.2235C17.0145 89.5485 15.0073 87.6816 12.6311 86.0676C9.73053 84.0974 6.69056 78.9317 5.23841 75.8678C4.927 75.2107 4.69787 73.0572 4.59493 72.2154C4.24522 71.8143 3.26144 71.1068 2.73779 70.6041C2.43601 69.6618 2.32978 68.4703 2.06247 67.5243C0.994575 63.7451 0.333557 59.5741 0.218764 55.6372C-0.643447 51.5361 1.19855 38.6045 3.02959 34.6513C3.45985 32.9006 5.03992 30.9831 5.35315 29.6676C6.04774 26.7495 5.87819 26.3646 7.49032 23.5844C9.30608 20.4049 11.5798 17.4846 14.2456 14.91C14.756 14.4071 18.7079 10.5527 19.0087 10.3908C22.2679 7.91818 24.2686 6.45578 27.8873 4.52789C29.942 3.30347 30.1254 3.73192 32.1007 3.03503C33.6006 2.46979 35.1677 1.89333 36.6854 1.39755ZM58.3904 81.9783C57.8872 81.9771 55.6296 82.0754 55.276 82.2911C56.0379 82.5743 59.7492 82.5496 60.6251 82.5198C59.954 82.389 58.8631 82.5437 58.4253 82.2824L58.3904 81.9783ZM81.5145 76.5558C79.8619 77.3355 79.4721 77.2482 77.7304 77.7492C76.8045 78.0156 75.2463 78.6888 74.3053 79.0577C73.8367 78.7773 74.1805 78.6232 73.7417 78.1126C73.3077 78.0701 72.6723 78.9029 72.3531 79.2442C71.4346 80.2263 69.6255 79.4381 68.7191 79.7854C68.7214 79.8145 68.7238 79.8435 68.7261 79.8726C68.87 80.3046 68.2059 80.8707 68.3532 80.9579C68.6622 81.1408 69.3471 81.1452 69.7059 81.2542L69.7565 81.3093C70.5837 81.4973 72.4109 80.3869 73.1149 79.98C73.5647 80.1614 74.0476 80.2569 74.5358 80.2608C76.5961 80.2619 80.0746 77.9042 81.5145 76.5558ZM11.7405 54.6842C11.537 54.9826 11.4403 55.1496 11.1573 55.394C11.1596 57.7842 12.095 65.9079 13.8518 67.6137L13.9863 67.5026C14.2702 65.6907 12.8167 60.4115 12.3273 58.5904C12.0317 57.4905 12.0223 55.8581 12.0034 54.6971L11.7405 54.6842ZM13.5814 40.7178C11.4997 44.4406 11.0381 49.3616 11.1347 53.5362C11.5084 53.4366 11.6724 53.5623 12.0168 53.3322C12.2063 49.1166 13.5467 44.7975 13.5814 40.7178Z" fill="#8A0000"/>
<path d="M99.7614 64.8052C100.058 64.3549 100.562 63.6428 101.145 63.7728C100.911 64.1817 100.432 65.0359 100.083 65.3129L99.7614 64.8052Z" fill="#8A0000"/>
<path d="M98.7789 65.9485L99.7614 64.8052L100.083 65.3129C99.8328 65.6656 99.5089 66.1538 99.2452 66.4819L98.7789 65.9485Z" fill="#8A0000"/>
<g filter="url(#filter0_d_1903_1280)">
<path d="M166.606 34.9689C182.809 32.3588 184.305 56.8856 170.669 59.1494C167.765 59.5996 164.298 59.1617 161.857 57.3479C156.719 53.529 156.049 44.0244 159.665 39.014C161.462 36.5255 163.595 35.3898 166.606 34.9689ZM169.301 57.7889C170.996 56.7038 172.095 55.1081 172.445 53.0453C173.226 48.4493 173.51 42.3881 171.371 38.1101C170.695 36.7545 169.32 36.3159 167.931 36.3801C166.639 36.9429 165.79 37.8726 165.343 39.2373C163.706 44.2142 163.7 50.3675 165.57 55.2678C166.218 56.9644 167.528 57.8773 169.301 57.7889Z" fill="#FEFEFE"/>
<path d="M147.744 35.1089C148.561 35.0833 149.792 35.0017 150.558 35.1357C150.799 35.3894 150.696 35.2518 150.722 35.737C150.256 36.6001 149.091 35.7546 148.359 36.4784C147.561 37.956 147.917 55.0304 148.2 57.7786C148.933 57.9977 149.653 58.0622 150.418 58.2095C150.546 58.5854 150.576 58.576 150.51 58.9585C150.108 59.0914 140.648 59.0251 139.601 58.9717L139.525 58.6972C139.915 58.0268 140.874 58.0263 141.806 57.7559C142.172 55.7775 142.042 50.0515 142.041 47.7015C139.83 47.692 137.621 47.6948 135.412 47.71C135.479 50.3678 135.179 55.587 135.707 57.9233C136.515 58.0268 137.177 58.0331 137.824 58.5387L137.744 58.7287C136.502 59.1878 131.305 59.0094 129.692 59.0048C129.033 59.0147 127.234 59.1253 126.776 58.8143L126.882 58.4429C127.376 58.0102 128.076 58.2006 128.622 57.904C128.997 57.7014 129.223 57.4232 129.36 57.0221C129.787 55.7791 129.667 40.3421 129.49 38.1318C129.46 37.7637 129.366 37.4936 129.212 37.1588C129.065 36.8415 128.939 36.5329 128.826 36.2024C128.207 36.1374 127.112 36.1163 126.722 35.5943C127.182 35.0389 129.1 35.0749 129.775 35.1388C131.064 35.261 137.397 34.8478 138.173 35.479C137.92 35.9446 136.27 36.0894 135.598 36.4979C135.297 38.903 135.421 43.241 135.429 45.8372L142.04 45.8473L142.024 40.2726C142.021 39.3487 142.063 37.7204 141.924 36.8585C141.147 35.6458 139.829 36.6881 139.524 35.3481L139.632 35.1887C142.113 35.0652 145.193 35.1515 147.744 35.1089Z" fill="#FEFEFE"/>
<path d="M84.6387 35.0285C85.3393 35.1293 85.5061 35.1368 86.2114 35.0838C87.7578 39.7109 89.9262 45.067 91.6157 49.7139L93.4493 54.821C93.7271 55.594 94.0052 56.4099 94.3295 57.1614C94.6044 57.7986 95.7071 57.987 95.7023 58.7729C95.3365 59.0668 86.682 59.1263 85.97 58.9391C85.7682 58.6365 85.8414 58.8036 85.8448 58.3897C86.3284 57.7969 87.1139 58.0468 88.2451 57.7991C88.227 55.5929 87.3511 53.5523 86.4098 51.5593L80.3078 51.5336C80.0574 52.8829 79.276 55.1181 78.8833 56.5982C79.7772 58.2639 79.898 57.645 81.4556 58.3848L81.5162 58.6062C81.2061 59.115 80.6472 59.0709 80.0811 59.0343C79.0571 58.9681 76.0001 59.2576 75.2811 58.5436C75.5666 57.7635 76.4556 58.0698 76.8417 57.5273C78.1183 55.7336 78.8722 52.5299 79.5363 50.458L82.7973 40.3121C83.2059 39.0423 84.0306 35.9844 84.6387 35.0285ZM80.912 49.9122C81.742 49.9539 82.5823 50.0098 83.4125 49.9994L85.9664 50.0016C85.5598 48.9641 83.7159 43.4564 83.2689 42.9633C82.6766 43.9813 81.5511 48.3346 80.912 49.9122Z" fill="#FEFEFE"/>
<path d="M69.5916 35.1124C69.7195 35.413 69.7194 37.5892 69.6948 38.0596C69.6459 38.9905 70.0659 40.863 69.0939 41.2956C68.9471 41.2085 68.7049 41.0628 68.6991 40.8381C68.5905 36.597 66.3614 36.6096 63.2054 36.5029C63.3212 39.4023 62.9726 56.4489 63.5016 57.4077C63.7826 57.917 65.4545 57.8641 65.9713 58.6716L65.8645 58.9359C65.2284 59.0731 62.8585 59.0217 62.0596 59.021L54.2401 59.0094C55.1502 57.8975 54.9711 58.012 56.3821 57.9952C56.662 57.4656 56.8722 57.1815 57.2153 56.6995C57.2742 52.7058 57.3028 48.7117 57.3011 44.7176C57.3018 42.083 57.3405 39.1758 57.202 36.5574L54.2499 36.6374C53.3428 37.0987 53.0099 37.48 52.3483 38.2081C52.22 38.8505 51.9178 41.009 51.231 41.1222L51.0007 40.9094C50.5784 39.808 50.7913 36.5099 50.8213 35.1448L69.5916 35.1124Z" fill="#FEFEFE"/>
<path d="M119.345 34.6182C119.437 34.6706 119.919 34.928 119.941 35.0285C120.15 35.9407 120.218 42.0368 119.907 42.338C119 41.8728 117.967 38.3227 116.597 37.4006C116.11 36.891 114.57 35.9721 113.796 36.1774C108.465 37.5928 108.764 47.6156 109.363 51.6966C109.859 55.0733 110.908 57.319 114.175 57.3314C117.321 57.3433 118.543 53.7523 120.002 53.4496L120.115 53.578C119.768 54.4297 120.404 54.2171 119.567 55.4542C119.282 55.8287 118.976 56.1867 118.65 56.5264C113.466 61.8659 104.884 59.1602 102.873 52.1407C100.477 43.7734 104.798 32.6507 115.104 35.2184C116.122 35.4722 116.99 36.1976 118.088 36.2028C118.613 35.9801 119.002 35.2556 119.268 34.7622L119.345 34.6182Z" fill="#FEFEFE"/>
<path d="M32.5996 35.1285C35.2369 35.2248 38.1075 35.0761 40.7629 35.1446C41.6365 35.1671 43.4689 35.0731 44.2093 35.2618L44.3919 35.6151C43.7537 36.2687 43.3208 36.1345 42.4657 36.1105C42.2285 36.4279 41.9621 36.728 41.7046 37.0305C41.3929 42.2989 41.6668 48.0832 41.6092 53.4026C41.7257 54.6475 41.4178 56.5959 42.0219 57.6963C42.2001 58.0211 43.792 58.0825 44.251 58.5282C44.2488 58.8925 44.3166 58.74 44.0991 59.0146C42.5277 59.0119 33.4441 59.188 32.6282 58.953L32.5508 58.7878C32.9325 58.0996 34.0522 57.9126 34.7782 57.8721C35.005 57.4043 35.3694 56.6612 35.3813 56.1674C35.4554 53.1107 35.8385 39.4742 35.2078 37.3347L34.8625 36.1874C34.1606 36.128 33.5056 36.2717 32.9077 36.0268C32.5549 35.6633 32.6671 35.7625 32.5996 35.1285Z" fill="#FEFEFE"/>
<path d="M154.016 65.9208C154.701 65.8908 158.941 65.898 159.357 66.0484L159.348 66.3373L159.142 66.4649C158.712 66.4745 158.413 66.4312 158.055 66.655C157.734 67.3712 157.883 71.03 157.896 72.0735C159.149 72.1145 160.524 72.0808 161.786 72.0759C161.789 70.427 161.83 68.4652 161.721 66.8452C161.056 66.6261 160.399 66.3048 159.762 66.0123C161.559 65.8522 166.053 65.9124 167.876 66.0195C167.156 66.3264 166.373 66.5491 165.624 66.7826L165.591 74.0847C165.576 75.6193 165.483 77.9073 165.652 79.378C165.794 79.4093 165.936 79.4418 166.078 79.4743C166.546 79.5839 166.92 79.6152 167.175 80.028L167.036 80.2181C166.417 80.4288 166.048 80.3566 165.396 80.3193C164.374 80.306 161.147 80.5299 160.55 80.0545V79.8017C160.828 79.5261 161.321 79.5008 161.733 79.4286C161.776 77.4066 161.786 75.3846 161.76 73.3626C160.439 73.3842 159.178 73.4228 157.858 73.3397C157.955 75.1908 157.899 77.5895 157.905 79.4659C158.428 79.5514 158.727 79.5393 159.121 79.8595L159.132 80.0364C158.516 80.501 153.159 80.5479 152.622 80.0328L152.651 79.7993C153.023 79.5056 153.578 79.4707 154.062 79.3853C154.239 76.8144 154.118 69.8782 153.996 67.0004C153.982 66.649 152.935 66.4636 152.497 66.2903L152.442 66.0665C152.886 65.8775 153.514 65.9245 154.016 65.9208Z" fill="#FEFEFE"/>
<path d="M141.901 65.6476C142.726 65.5718 143.662 65.4647 144.457 65.7403C144.811 65.8631 146.36 66.5503 146.667 66.4805C146.925 66.4227 146.984 65.9967 147.708 65.8546C148.042 66.0039 147.955 65.8859 148.067 66.1471C147.759 67.5517 148.316 69.1344 147.911 69.9408L147.681 69.9998C145.995 69.1115 147.828 67.53 143.543 66.3878C142.848 66.5527 140.977 67.1677 141.301 68.1234C142.059 70.3115 145.702 70.8098 147.203 72.4069C148.783 74.0859 149.004 77.8278 147.093 79.372C145.854 80.3722 145.087 80.4408 143.592 80.4661C141.946 80.3782 141.176 80.1146 139.75 79.2998C139.333 79.709 138.808 80.1471 138.362 80.5371C138.291 79.6693 138.131 75.7252 138.522 75.1186C138.818 75.3713 138.942 75.7469 139.111 76.1043C140.039 78.0698 140.386 78.5452 142.266 79.4527C142.711 79.4346 143.582 79.4142 143.998 79.3419C144.519 79.2481 144.977 78.9424 145.265 78.4982C146.643 76.3944 142.673 74.997 141.356 74.1726C140.132 73.4203 138.644 72.2733 138.398 70.7472C137.971 68.0849 139.324 66.1194 141.901 65.6476Z" fill="#FEFEFE"/>
<path d="M110.554 65.6416C111.76 65.5393 112.895 65.4671 114.034 65.9497C114.609 66.1941 115.055 66.4456 115.665 66.5672C115.852 66.235 115.907 66.0556 116.242 65.8787C116.677 65.922 116.502 65.8378 116.81 66.0701C116.804 66.8536 116.988 69.6086 116.534 70.0575L116.312 70.013C115.905 69.5171 115.969 68.7829 115.696 68.334C114.851 66.9427 113.921 66.7826 112.482 66.4263C110.73 66.7537 109.241 67.8405 111.143 69.4196C112.552 70.5907 114.783 71.0023 116.114 72.4274C117.559 73.9764 117.697 75.9527 116.993 77.8928C116.223 80.0352 114.399 80.5624 112.285 80.4926C110.76 80.3939 110.062 79.9052 108.634 79.502C108.346 79.4214 107.831 80.2025 107.472 80.5792L107.354 80.5239C107.143 79.3973 107.18 76.1982 107.334 75.003L107.528 74.8983C108.003 75.3605 108.283 77.3753 109.421 78.2876C110.886 79.4611 111.331 79.413 113.112 79.3564C117.074 76.8915 111.387 74.9152 109.649 73.7489C106.273 71.4814 106.384 67.0173 110.554 65.6416Z" fill="#FEFEFE"/>
<path d="M121.484 65.916C123.218 65.7487 126.731 65.9365 128.595 65.9858C127.98 66.2554 127.37 66.5335 126.764 66.8223L126.727 73.637C126.721 75.1306 126.458 77.5931 127.454 78.7474C128.661 80.1471 130.36 78.8713 131.373 77.9025C132.069 74.7539 131.766 70.2116 131.529 66.9716C131.491 66.448 130.596 66.7188 130.201 66.2229L130.269 66.0316C130.985 65.8907 132.271 65.9389 133.051 65.9413C133.51 65.9497 133.876 65.9076 134.281 66.1098L134.179 66.2795C133.555 66.5792 133.293 66.7489 132.725 67.1256C132.601 70.7893 134.145 79.5971 129.331 80.3529C120.026 81.8153 123.751 72.0964 122.768 66.72L122.734 66.5407C122.288 66.5166 121.656 66.5298 121.3 66.3012L121.278 66.1158L121.484 65.916Z" fill="#FEFEFE"/>
<path d="M172.529 65.9148C173.705 65.9257 177.193 65.7668 178.062 66.1363L178.052 66.3084C177.577 66.6213 177.176 66.6358 176.61 66.7308C176.507 70.7195 176.636 74.7551 176.593 78.7486C176.588 79.1434 176.651 79.2625 176.924 79.49C177.584 79.5429 177.581 79.4659 177.728 80.0966C177.897 80.164 177.814 80.1219 177.977 80.2254C177.575 80.4817 176.866 80.3686 176.37 80.3373C175.327 80.3084 171.657 80.4516 171.019 80.2783C171.428 79.2168 171.554 79.7295 172.367 79.3131C173.096 78.2383 172.642 68.8034 172.572 66.7778C171.867 66.5575 170.98 66.3553 170.237 66.1399C171.145 65.9509 171.593 65.9449 172.529 65.9148Z" fill="#FEFEFE"/>
</g>
<defs>
<filter id="filter0_d_1903_1280" x="25.9849" y="34.6182" width="160.505" height="59.0927" filterUnits="userSpaceOnUse" color-interpolation-filters="sRGB">
<feFlood flood-opacity="0" result="BackgroundImageFix"/>
<feColorMatrix in="SourceAlpha" type="matrix" values="0 0 0 0 0 0 0 0 0 0 0 0 0 0 0 0 0 0 127 0" result="hardAlpha"/>
<feOffset dy="6.56587"/>
<feGaussianBlur stdDeviation="3.28294"/>
<feComposite in2="hardAlpha" operator="out"/>
<feColorMatrix type="matrix" values="0 0 0 0 0 0 0 0 0 0 0 0 0 0 0 0 0 0 0.35 0"/>
<feBlend mode="normal" in2="BackgroundImageFix" result="effect1_dropShadow_1903_1280"/>
<feBlend mode="normal" in="SourceGraphic" in2="effect1_dropShadow_1903_1280" result="shape"/>
</filter>
</defs>
</svg>
