<svg width="170" height="5" viewBox="0 0 170 5" fill="none" xmlns="http://www.w3.org/2000/svg">
<path d="M1.61926 0.0254245C2.57189 -0.0397072 3.82064 0.0299344 4.76967 0.125522C5.0671 0.155168 4.91649 0.287689 5.12181 0.31412C5.52337 0.365646 5.89747 0.300653 6.29429 0.362032C6.4258 0.383023 6.2621 0.592935 6.4 0.610139C7.15566 0.702909 7.87054 0.649442 8.63603 0.694063C12.4066 0.914213 16.113 0.993012 19.9297 1.08865C21.1881 1.12001 22.7179 1.31051 24.0178 1.2272C24.1695 1.21729 24.0791 1.03304 24.1079 1.01785C24.5607 0.785374 24.4102 1.15734 24.7059 1.20676C25.8793 1.40188 27.1842 1.41886 28.3135 1.34775C28.7939 1.31696 28.3122 0.950988 28.7959 1.1564C28.8295 1.17028 28.7076 1.36594 28.8394 1.38681C29.1382 1.43375 29.7051 1.39877 29.9367 1.41428C30.383 1.44514 30.4568 1.44317 30.8789 1.4454C31.456 1.45015 32.1424 1.54741 32.7615 1.50308C32.8937 1.49304 32.7187 1.29246 32.9295 1.25833C33.1404 1.22425 33.6985 1.24126 33.8867 1.28854C34.0749 1.33585 33.9947 1.4935 34.028 1.52963C34.302 1.83462 34.9476 1.41221 35.0306 1.40176C36.5451 1.22377 37.8438 1.4644 39.2653 1.46371C40.3445 1.46268 41.4985 1.38324 42.5253 1.39413C43.7487 1.40789 44.7856 1.51658 45.9741 1.49789C46.0995 1.49615 45.9525 1.26032 46.1057 1.25772C47.7333 1.23028 49.3495 1.25599 50.9701 1.41519C51.1326 1.43136 50.9232 1.63842 51.0855 1.66696C52.0797 1.83712 53.6526 2.24589 54.2431 1.34439C54.9165 1.37959 55.734 1.41596 56.3364 1.59769C56.7249 1.71464 56.3476 1.94021 56.8248 1.84396C56.9324 1.82252 56.7924 1.62498 56.9538 1.60776C57.6333 1.53544 58.3756 1.59965 59.0478 1.49759C59.1845 1.47636 59.1472 1.29936 59.1859 1.26749C59.5115 1.00935 60.0535 1.43606 60.1717 1.46707C61.0714 1.69829 61.7284 1.6073 62.5666 1.61294C62.7611 1.61435 62.5312 1.3766 62.7183 1.36941C63.689 1.33534 64.6945 1.35577 65.645 1.46127C65.8564 1.48531 65.662 1.68783 65.763 1.70968C66.2085 1.80356 66.3072 1.42104 66.7345 1.50369C66.8246 1.52062 66.7738 1.694 66.7903 1.71304C67.0474 2.01194 67.2708 1.58842 67.3369 1.57907C68.1736 1.45131 68.7083 1.89345 69.5165 1.83084C69.6132 1.8229 69.3952 1.60353 69.667 1.59463C71.4777 1.53407 73.3928 1.59434 75.1851 1.7698C75.4638 1.79679 75.2648 1.96159 75.2824 1.9819C75.5682 2.29932 75.7531 1.87402 75.844 1.858C76.5608 1.7427 77.2304 2.09937 77.7175 1.5928C80.7533 1.7686 83.7753 1.48413 86.7861 1.93796C86.8244 1.94321 86.7558 2.15267 86.8322 2.16226C87.7517 2.27987 87.5752 1.95433 88.1836 1.55618C88.3369 1.4562 88.8032 1.9369 88.8444 1.97213C88.9947 2.10198 88.8388 2.4136 88.8892 2.43875C89.3057 2.63621 89.2378 1.60565 89.7997 1.60531C89.8173 1.60703 89.7434 1.79672 89.7906 1.81558C89.9371 1.87479 90.0824 1.79942 90.2257 1.86471C90.5539 2.0158 90.6707 2.51656 91.1719 2.22512C91.2353 2.1873 91.1385 1.60272 91.6401 1.63034C91.8401 1.64184 92.7253 1.63182 92.9734 1.66971C93.2212 1.70754 93.0511 1.89592 93.0688 1.90408C93.7364 2.15318 93.4833 2.25642 93.8178 2.62521C94.1523 2.99261 94.0595 2.11633 94.1959 2.01852C94.3325 1.92099 94.822 2.12652 94.9423 2.19796C95.0625 2.26944 94.9126 2.38914 95.0195 2.42959C95.7284 2.69386 95.3306 1.99464 95.5642 1.85556C96.1149 1.52624 96.5438 2.1761 97.048 2.23977C97.1844 2.25697 97.0731 2.10896 97.1945 2.09512C97.6756 2.04226 97.965 2.24503 98.5123 2.05911C98.6018 2.02881 99.0443 1.6381 99.3307 1.92483C99.3712 1.96618 99.256 2.12812 99.461 2.16439C99.7673 2.21883 100.319 2.25423 100.648 2.2001C100.892 2.16005 100.613 1.89321 100.919 1.9761C101.055 2.01312 100.803 2.16922 101.058 2.22573C101.312 2.28223 101.962 2.27538 102.209 2.26999C102.456 2.26448 102.321 2.06206 102.341 2.04843C102.462 1.97032 102.935 1.87271 102.977 1.87295C105.088 1.84824 107.035 2.18943 109.091 2.0765C109.252 2.06794 109.144 1.85449 109.169 1.85098C109.721 1.76155 109.286 2.32906 109.672 2.51901C109.616 2.08586 109.844 2.16429 110.233 2.11679C110.42 2.09354 110.318 1.92583 110.335 1.90866C110.613 1.65392 110.807 1.98295 110.856 2.05026C111.041 2.29786 111.241 2.0053 111.366 2.1708C111.491 2.33507 111.203 2.57858 111.576 2.57547C111.681 2.42041 111.404 2.01522 111.687 1.94955C112.756 1.70115 114.751 2.01907 115.61 2.05209C116.467 2.08509 116.744 2.05648 117.244 2.11252C118.147 2.21383 117.816 1.91321 118.376 1.7756C118.939 1.63801 118.665 2.3777 118.746 2.53671C118.825 2.69565 118.912 2.53204 119.011 2.61941C119.109 2.70676 118.896 2.81488 119.127 2.84768C119.359 2.88045 119.992 2.59769 120.074 2.43142C120.247 2.07918 119.962 1.70948 120.574 1.83938C120.609 1.84709 120.495 2.04159 120.63 2.06125C121.701 2.21098 122.814 2.22026 123.884 2.35269C124.031 2.3712 123.899 2.58757 123.985 2.60079C124.876 2.73919 124.558 2.37436 125.046 1.96908C124.937 2.50842 125.207 2.83839 125.884 2.84158C126.29 2.84368 126.22 2.60812 126.483 2.4421C126.562 2.39206 126.85 2.5538 126.902 2.44302C127.074 2.0809 126.803 1.67553 127.501 1.83694C127.531 1.84461 127.434 2.04283 127.54 2.05484C128.223 2.13341 128.305 1.75464 129.044 1.70877C129.624 1.67278 130.654 1.90375 131.313 1.94131C131.3 2.54769 131.923 2.40883 132.175 1.99075C132.603 2.00787 133.066 1.98423 133.479 2.04202C133.622 2.06172 133.528 2.23728 133.546 2.25625C133.822 2.55383 134.008 2.14708 134.1 2.13113C135.101 1.97612 135.917 2.2844 136.873 1.98312C136.907 1.97227 136.962 1.55106 137.217 1.85861C137.234 1.87981 136.918 2.07145 137.368 2.08627C137.817 2.10112 138.665 2.32692 139.289 2.13174C139.44 2.08475 139.822 1.74282 140.129 2.00998C140.17 2.04625 140.125 2.16706 140.184 2.23428C140.375 2.44848 140.479 2.02274 140.703 2.38443C140.927 2.74609 141.393 3.01696 142.023 2.76742C142.043 2.76017 142.192 2.42273 142.39 2.42807C142.706 2.43687 143.154 2.50717 143.484 2.50497C143.642 2.5038 143.541 2.29426 143.569 2.29043C144.631 2.17302 145.387 2.35981 146.525 2.44088C146.734 2.45616 147.333 2.17043 147.737 2.39633C148.181 2.64361 147.725 3.67228 148.744 3.42721C149.156 3.32918 149.676 2.02413 150.415 2.70028C151.848 2.53274 153.173 2.87879 154.61 2.63955C154.675 2.62895 154.879 2.26472 155.031 2.26968C155.257 2.27774 155.38 2.44798 155.541 2.45919C156.216 2.51047 156.834 2.36482 157.484 2.38748C157.731 2.39571 157.645 2.57173 157.939 2.58157C158.234 2.59124 158.43 2.35946 158.829 2.4714C159.131 2.55673 159.432 3.03049 159.832 3.08572C159.847 2.6184 160.122 2.62803 160.61 2.50466C160.704 2.48073 160.603 2.31808 160.648 2.29837C160.828 2.21454 160.996 2.34934 161.167 2.25808C161.209 2.23617 161.211 2.07657 161.245 2.04965C161.535 1.81462 162.013 2.17361 162.095 2.23611C162.41 2.47349 162.557 2.26592 162.798 2.3594C163.039 2.45287 162.679 2.56971 162.96 2.62643C163.544 2.74375 164.293 2.71797 164.886 2.72531C165.122 2.72725 164.961 2.51422 164.995 2.50955C165.483 2.45552 165.978 2.68212 166.249 2.25778C166.588 3.35497 166.544 2.15136 167.242 2.371C167.297 2.38876 167.367 2.90762 167.156 2.98379C166.945 3.05989 166.624 2.8977 166.331 3.01644C166.262 3.04431 165.864 3.53051 165.81 3.55996C165.385 3.79013 165.324 3.01478 165.302 2.97219C165.047 2.51261 164.561 3.0364 164.433 3.0726C163.847 3.23843 163.35 3.12939 162.86 3.24777C162.54 3.32427 162.509 3.83216 162.257 3.81661C161.421 3.76523 161.129 3.05672 160.342 3.67104C160.173 3.80207 160.34 4.35717 159.735 3.92068C159.697 3.89316 159.248 3.49384 158.988 3.74642C158.956 3.77827 158.957 3.94004 158.914 3.95363C158.625 4.04154 158.433 3.91266 158.119 3.97439C157.805 4.03611 157.428 4.12813 157.069 4.07326C156.853 4.04045 156.576 3.73904 156.473 3.66524C156.181 3.45266 155.868 3.80121 155.687 3.54378C155.504 3.28507 155.861 2.89216 155.382 2.725C155.365 3.14531 155.324 3.57672 155.296 3.99941C154.247 3.98461 153.216 3.8487 152.164 3.86727C152.034 3.86999 152.167 4.09595 152.027 4.1047C151.437 4.14059 150.922 3.97951 150.311 4.04366C149.837 4.09418 149.318 4.33342 148.823 4.3937C148.521 3.91274 147.786 4.07602 147.252 4.03206C147.065 4.01688 147.078 3.88842 146.945 3.84652C146.443 3.69153 146.678 4.11655 146.541 4.18343C145.951 4.46889 145.9 3.50689 145.205 3.53066C145.168 3.5316 144.718 4.04438 144.656 4.07631C144.261 4.28454 144.59 3.89783 144.344 3.85995C143.893 3.79071 143.58 3.66825 143.052 3.81844C142.898 3.86293 142.528 4.18254 142.229 3.93532C142.19 3.90295 142.211 3.73346 142.18 3.72353C141.606 3.55807 141.591 4.09065 141.263 4.27102C140.936 4.45135 140.429 4.0837 140.326 3.97774C140.057 3.70363 140.533 3.8606 140.547 3.8337C140.719 3.51358 140.35 3.5687 140.067 3.54165C140.027 3.01945 139.632 3.0508 139.775 3.51571C139.791 3.56649 140.011 3.51779 140.067 3.54165C139.82 4.05399 139.386 4.11961 138.907 3.64083C138.683 3.41643 138.895 3.1548 138.214 3.25051C137.905 3.29372 138.024 3.65328 137.752 3.7513C137.129 3.97496 136.319 3.63956 135.676 3.69241C135.443 3.71159 135.671 3.90841 135.511 3.92831C135.088 3.98172 134.715 3.83404 134.291 3.90969C134.252 3.91679 134.346 4.12282 134.214 4.12545C133.213 4.14938 132.341 4.01741 131.296 4.01375C130.791 4.01208 129.888 4.12571 129.365 4.10287C128.458 4.06449 127.342 3.76489 126.568 3.83767C126.062 3.88426 126.173 4.09033 125.957 4.23073C125.539 4.5029 124.8 4.01539 124.7 3.9399C124.697 3.9374 125.132 3.88882 124.9 3.78304C124.765 3.56263 124.705 3.93895 124.7 3.9399C124.635 3.89114 123.766 3.84436 123.594 3.88375C123.5 3.90528 123.552 4.10052 123.504 4.10805C122.342 4.28278 121.179 4.3324 120.001 4.24111C119.98 4.23717 120.011 4.01878 119.963 4.01223C119.281 3.91513 118.844 4.18229 118.282 4.3409C117.719 4.49945 117.274 4.44635 116.941 4.07143C116.516 4.11864 115.908 3.95289 115.557 3.85232C115.207 3.75175 115.158 4.17686 115.127 4.18526C114.166 4.45425 113.611 4.21092 112.613 4.17306C112.139 4.15432 111.199 4.21598 110.685 4.26247C110.28 4.29992 110.035 4.20029 109.661 4.264C109.611 4.2725 109.662 4.46179 109.646 4.46907C109.229 4.69554 109.43 4.23281 109.344 4.15017C109.031 3.84964 108.838 3.68958 108.304 3.83095C108.181 3.86333 107.822 4.5296 107.597 4.56856C107.305 4.618 107.415 4.37918 107.109 4.43703C107.083 4.44176 107.089 4.5891 106.9 4.5826C106.024 4.55438 105.069 4.46865 104.158 4.48342C104.034 4.48487 104.193 4.71856 104.014 4.72451C103.17 4.75221 102.246 4.74356 101.425 4.63417C101.222 4.60652 101.349 4.44289 101.305 4.39431C101.036 4.10035 100.654 4.52746 100.591 4.5356C99.0867 4.74086 97.9357 4.35432 96.4027 4.53835C96.3193 4.54915 95.6769 5.00703 95.3904 4.61434C95.3708 4.58821 95.0873 4.18644 94.8366 4.46114C94.821 4.47833 94.9977 4.68516 94.6894 4.66408C94.3811 4.64305 93.8849 4.78117 93.4611 4.55391C93.3269 4.48232 93.0098 4.08155 92.6096 4.40102C92.5835 4.42332 91.9657 5.1457 91.7452 4.6473C91.7094 4.56526 91.7469 4.03783 91.2692 4.30825C91.1779 4.36067 91.3436 4.47832 91.1032 4.55178C90.7348 4.665 90.2467 4.52373 89.7938 4.75869C89.7149 4.80028 89.3787 5.15826 89.109 4.88655C89.0668 4.844 89.147 4.66792 89.0046 4.64821C88.3274 4.55369 87.6183 4.67147 86.9307 4.54964C86.6871 4.50683 86.8117 4.22218 86.5578 4.14589C86.3039 4.06964 85.7924 3.99628 85.5267 4.12636C85.261 4.2565 85.5513 4.71018 85.1532 4.74648C83.4226 4.90415 81.7082 4.63801 79.9801 4.59908C79.7238 4.59327 79.9363 4.7556 79.5586 4.75869C78.166 4.77076 75.7618 4.92297 74.5534 4.57802C73.5853 4.30174 74.8036 4.0914 74.0638 3.97896C73.7068 3.92533 73.3206 4.45277 73.2344 4.46938C72.3925 4.63806 71.8074 4.40441 71.0496 4.47609C70.8931 4.49097 71.0466 4.70475 70.9134 4.71505C70.4585 4.75212 69.9804 4.6567 69.5457 4.67415C69.3507 4.68247 69.3867 4.84575 69.2072 4.83315C68.7778 4.80488 68.3982 4.73624 67.9796 4.58321C67.9415 4.56927 68.1987 4.36616 67.881 4.3586C67.3669 4.34695 66.7287 4.19599 66.1372 4.35189C65.9617 4.39879 65.9548 4.77195 65.5776 4.51424C65.4984 4.46042 65.5994 4.01233 65.1599 4.3995C65.086 4.46383 64.3478 4.98605 63.9855 4.64943C63.8899 4.56084 63.646 4.19417 63.4349 4.25179C63.4063 4.26099 63.5209 4.46143 63.3461 4.48098C62.7297 4.54639 62.0837 4.52501 61.4505 4.58779C61.2814 4.60495 61.5333 4.81236 61.2812 4.83132C60.5882 4.88374 59.7229 4.83093 59.0452 4.76601C58.7954 4.74168 58.9681 4.56986 58.9499 4.55117C58.6575 4.24704 58.4847 4.65754 58.3876 4.68148C57.7841 4.8248 57.3246 4.63197 56.7683 4.683C56.6148 4.69656 56.7237 4.89229 56.6931 4.90975C56.3762 5.08027 56.6123 4.72877 56.4117 4.69002C55.8497 4.58031 55.2232 4.59604 54.6549 4.62105C54.4461 4.63053 54.6807 4.85748 54.4934 4.86336C53.3846 4.90247 52.2319 4.88075 51.1497 4.75563C50.946 4.73166 51.0742 4.5569 51.0317 4.51699C50.739 4.23773 50.3101 4.61864 50.2114 4.65493C49.7626 4.8206 49.5882 4.66606 49.1919 4.6949C47.2558 4.83852 44.8652 4.73617 43.0376 4.67293C40.6561 4.59155 38.8081 4.42529 36.5371 4.46846C36.3927 4.47099 36.5383 4.70348 36.4139 4.70864C34.8074 4.76468 33.2259 4.67384 31.6163 4.74099C31.4842 4.74608 31.6746 4.96648 31.4626 4.98207C31.0277 5.0156 30.4768 5.00362 30.0372 4.93325C29.8227 4.89934 30.1104 4.71022 29.8945 4.67995C29.3919 4.60905 28.8531 4.59335 28.3368 4.62868C28.1171 4.6442 28.4486 4.86961 28.163 4.87221C26.2177 4.89457 24.3072 4.9334 22.3414 4.6415C22.2067 4.62145 22.0884 4.16333 21.8019 4.25118C21.7803 4.37832 21.7815 4.52788 21.772 4.66378C18.9402 4.73698 16.1372 4.57816 13.2974 4.55361C13.1777 4.55263 13.3846 4.79536 13.1528 4.7947C11.8112 4.79111 10.5084 4.85835 9.13602 4.61708C8.99986 4.59349 9.06972 4.16645 8.66845 4.23104C8.59768 4.24282 7.99333 4.29978 7.83708 4.39248C7.81585 4.40646 7.92611 4.60578 7.73137 4.61159C6.59966 4.64186 5.41369 4.59635 4.28395 4.47457C4.10161 4.45453 4.29578 4.24227 4.16592 4.22616C3.24472 4.11348 2.24271 4.27484 1.36245 4.08211C0.773242 3.95235 0.991385 3.58543 0.678286 3.22427C0.634001 3.17331 0.269144 3.16524 0.250276 2.9551C0.201836 2.4267 0.378562 1.84811 0.306047 1.28488C0.290727 1.16357 -0.197912 1.29423 0.0913935 1.00107C0.111604 0.981448 0.46587 0.88415 0.553125 0.784699C0.613876 0.715941 0.504402 0.502234 0.628351 0.414217C0.752291 0.326282 0.888484 0.505423 1.09397 0.40201C1.29937 0.297318 1.20906 0.0542035 1.61926 0.0254245ZM113.98 3.40279C113.656 3.19864 113.608 3.94638 113.959 3.76748C113.976 3.75794 113.997 3.41281 113.98 3.40279ZM153.222 3.28469C152.798 2.95489 152.507 3.43983 152.807 3.69454C153.106 3.94898 153.351 3.38467 153.222 3.28469ZM157.618 3.04391C157.123 2.78387 157.045 3.84419 157.576 3.62984C157.607 3.61773 157.647 3.05901 157.618 3.04391ZM2.13028 3.12142C2.1258 3.11149 1.86353 3.10182 1.85726 3.11166C1.7176 3.34914 2.24204 3.36832 2.13028 3.12142ZM161.982 2.78176C161.827 2.63833 161.381 2.80391 161.574 2.98226C161.728 3.12575 162.174 2.96018 161.982 2.78176ZM97.0616 2.60476C97.0565 2.59362 96.8684 2.58359 96.8722 2.64657C96.885 2.84943 97.1467 2.79218 97.0616 2.60476ZM169.397 2.76956C168.302 2.72964 167.637 1.85377 168.83 1.9526C169.046 1.97049 168.365 2.23191 168.64 2.31088C169.143 2.45474 169.477 1.9048 169.991 2.19949C170.084 2.25343 169.46 2.77378 169.395 2.77078C169.396 2.77037 169.397 2.76996 169.397 2.76956ZM113.794 2.50466C113.787 2.49478 113.527 2.4854 113.521 2.4952C113.38 2.73259 113.904 2.75162 113.794 2.50466ZM86.0896 2.14242C86.0752 2.12135 85.4712 2.10165 85.4515 2.12106C85.1364 2.50925 86.3576 2.55024 86.0896 2.14242ZM131.324 1.95749C131.608 1.71868 131.948 1.69056 132.174 1.99045C131.892 1.97453 131.608 1.97218 131.324 1.95749Z" fill="#BEBEBE"/>
</svg>
