<svg width="1728" height="645" viewBox="0 0 1728 645" fill="none" xmlns="http://www.w3.org/2000/svg">
<path d="M1721.23 283.934C1720.03 333.719 1721.18 367.149 1711.97 410.539C1698.59 481.048 1640.61 549.975 1560.23 566.023C1529.5 573.651 1500.32 577.469 1472.74 578.173C1449.39 578.782 1426.2 577.117 1402.9 573.269C1349.35 564.531 1296.51 543.487 1244.83 519.254C1241.04 517.478 1238.45 517.011 1236.72 516.191C1220.3 508.445 1193.42 494.268 1177.15 486.178C1143.06 469.079 1082.29 439.033 1048.91 425.598C1034.6 419.658 1020.31 413.956 1014.07 413.209C1008.84 411.2 1006.52 408.729 1005.17 408.117C1005.16 408.112 1005.14 408.107 1005.12 408.103C1000.68 406.082 989.427 402.91 986.945 401.936C986.579 401.792 989.237 401.643 983.143 399.737C982.598 399.569 982.843 400.411 977.778 398.586C976.504 398.089 959.711 391.025 954.981 389.421C938.911 383.596 899.409 372.779 879.276 368.013C876.271 367.27 874.633 366.449 871.433 365.678C869.78 365.278 867.185 365.127 866.674 365.006C864.456 364.457 855.019 360.279 857.679 364.95C847.411 362.422 850.71 361.828 850.669 360.938C839.239 358.374 833.759 359.252 831.191 356.738C775.872 346.317 719.518 341.034 664.028 340.307C664.013 339.997 663.998 339.688 663.983 339.379C647.15 340.352 641.804 338.365 632.54 340.229C626.81 339.905 621.03 339.629 615.197 339.401C524.309 342.67 434.883 355.941 348.405 375.637C292.767 388.2 241.529 397.793 187.241 402.826C182.038 403.286 179.865 404.033 170.083 404.684C158.691 405.388 146.239 405.378 130.978 405.238C118.472 405.16 101.698 404.745 88.246 402.897C85.3561 402.515 83.4076 401.88 83.0936 401.833C81.2596 401.551 81.0812 402.026 79.3336 401.738C77.3489 401.409 74.6362 400.521 71.9715 399.973C61.9817 397.977 53.2821 394.916 52.1329 394.508C46.5214 392.575 45.34 392.486 44.8788 392.326C39.2024 389.969 41.563 390.475 40.1825 389.889C33.7154 386.961 27.4456 384.741 20.8846 378.025C20.8111 378.472 20.7424 378.922 20.6784 379.374C14.7854 374.534 19.3183 377.107 18.2908 375.95C17.4107 375.663 7.4327 363.808 7.17073 362.429C4.98673 358.823 4.5583 358.852 4.36532 358.539C3.77901 357.769 0.213148 347.786 -1.23767 341.982C-3.07894 335.35 -2.56778 343.386 -3.07864 341.765C-3.24658 341.47 -4.28779 334.348 -4.64403 333.306C-5.14265 332.245 -4.32131 338.608 -4.43399 338.497C-4.68156 338.555 -6.48799 327.788 -6.7305 329.846C-7.36341 331.73 -4.47874 346.044 -3.48318 348.927C-3.37603 349.419 -4.233 348.648 -4.127 349.082C-3.92129 349.968 -1.4532 358.368 3.13702 365.673C7.56672 373.084 13.8614 378.963 14.5272 379.503C13.4382 378.097 12.4308 376.682 11.499 375.257C13.0457 376.901 14.7008 378.498 16.4746 380.049C14.1383 377.658 12.0681 375.203 10.2292 372.683C14.6848 375.088 24.0128 385.508 24.1828 386.718C24.0657 387.356 15.7407 382.917 22.2446 388.641C21.0595 387.981 19.9042 387.304 18.7777 386.61C16.7708 384.783 14.9944 382.997 13.0881 380.893C14.5326 382.067 15.999 383.162 17.4129 384.138C17.0248 383.615 16.648 383.091 16.2822 382.568C12.5873 379.055 9.37382 375.272 6.71592 371.372C5.1622 369.494 5.06352 370.128 4.00328 368.755C-2.32771 359.962 -2.40788 357.782 -2.71705 356.926C-2.84502 355.963 -2.79126 356.005 -5.02156 349.247C-5.84179 347.347 -6.5944 345.383 -7.27763 343.356C-6.10472 343.829 -8.22308 337.891 -8.29137 329.859C-8.55621 330.823 -8.80881 331.788 -9.04889 332.754C-10.5908 321.264 -8.7523 296.882 -7.84195 303.664C-7.6328 300.995 -7.35045 298.284 -6.99722 295.536C-6.29313 293.297 -5.54405 291.045 -4.75191 288.78C-4.0499 285.464 -3.35932 282.514 -2.55307 279.363C-2.69668 279.308 -2.84017 279.253 -2.9837 279.199C-3.65354 281.699 -4.25483 284.1 -4.84537 286.642C-4.85301 284.599 -4.86663 282.696 -4.82718 280.692C-4.27402 278.876 -3.695 277.05 -3.09089 275.217C-4.82253 283.088 -1.32852 273.079 0.0667485 270.757C2.33423 264.145 3.01085 259.966 3.75235 257.769C4.03167 256.765 9.91122 245.264 6.70334 249.428C9.31434 243.216 11.9688 237.372 14.8435 231.381C15.7984 228.973 16.7827 226.559 17.7946 224.141C14.7458 229.014 21.0851 213.728 15.6119 224.624C11.5986 232.758 11.3687 235.023 9.70255 238.895C8.24063 242.354 7.03784 244.124 5.47292 248.029C-4.64662 273.944 -10.8107 296.218 -11.1206 321.673C-11.1282 326.505 -11.0577 331.313 -10.6646 334.538C-10.1864 338.219 -10.1787 333.583 -9.69555 338.234C-9.10648 343.015 -9.24753 344.235 -8.98337 345.51C-8.80637 346.318 -7.7534 348.743 -7.0557 350.97C-4.62514 360.232 2.82374 372.367 3.79846 373.263C4.24164 373.867 8.60824 379.447 14.4012 384.252C19.654 388.756 26.3008 392.65 26.9448 392.976C27.5653 393.268 27.3319 391.328 31.6963 395.743C33.3339 396.65 35.0327 397.535 36.7945 398.397C36.6585 397.962 36.5266 397.528 36.3988 397.095C46.3581 402.937 43.8006 401.112 54.1076 404.709C81.0574 413.962 123.321 416.32 155.24 415.164C162.228 414.952 164.953 415.284 173.673 414.801C182.626 414.363 201.344 411.246 197.469 413.474C214.316 410.182 217.828 412.493 226.635 409.626C227.782 409.738 228.935 409.847 230.093 409.955C239.585 407.564 241.929 408.207 252.148 406.799C256.534 406.177 251.23 405.808 260.382 405.702C262.075 405.33 263.776 404.952 265.486 404.569C265.029 404.35 264.572 404.13 264.116 403.911C274.217 402.474 274.941 402.162 273.969 403.446C278.87 402.401 283.854 401.312 288.895 400.181C289.53 400.431 290.166 400.682 290.804 400.932C287.067 403.431 179.892 417.567 163.161 416.087C145.997 417.94 109.85 416.257 95.4403 414.336C89.6304 413.708 86.9551 414.116 79.1232 412.858C71.6837 411.718 60.5087 408.277 56.8296 407.089C53.5275 406.091 47.0629 404.092 39.8254 400.974C32.8827 398.015 25.9599 394.209 20.6904 390.56C15.5651 387.037 12.6127 384.334 12.3376 384.288C12.3918 384.357 14.562 387.334 24.0092 393.737C22.7002 393.305 21.4102 392.852 20.1385 392.377C7.2328 380.957 11.1201 385.269 1.82613 374.565C-2.23708 369.958 -7.54153 356.645 -8.45088 357.802C-4.60435 368.549 2.85597 378.065 10.3466 384.94C11.1236 385.862 19.3521 393.592 25.3924 396.739C30.6885 399.497 27.3469 396.39 37.7607 403.115C47.1409 405.465 51.7539 408.272 53.9145 409.151C57.811 410.623 58.4926 409.982 62.6968 410.992C67.3146 412.073 70.598 413.302 71.2647 413.452C76.7042 415.28 111.896 419.347 112.576 418.629C111.275 418.397 109.987 418.159 108.713 417.916C117.086 418.258 115.368 418.958 117.61 419.193C119.306 419.277 121.022 419.35 122.757 419.414C122.074 419.208 121.394 419.002 120.719 418.795C131.256 419.187 122.919 419.671 138.518 419.845C148.113 419.878 157.057 418.861 158.118 418.877C158.387 418.883 155.474 419.453 159.282 419.386C165.545 419.297 177.008 418.614 178.287 417.861C181.59 417.732 181.38 418.379 181.82 418.364C183.973 418.418 213.736 415.884 219.983 415.037C237.125 413.106 251.725 410.837 269.124 408.09C270.872 407.812 269.673 407.574 271.43 407.295C274.128 406.888 289.32 404.911 291.25 404.586C296.185 403.823 309.495 400.988 311.713 400.739C312.023 400.708 307.694 402.167 312.956 401.319C318.827 400.363 315.51 400.201 315.823 400.131C327.659 397.476 335.572 396.364 344.108 394.627C346.185 394.203 349.5 393.13 352.73 392.313C353.786 392.045 354.827 391.81 355.806 391.641C356.256 391.563 355.516 392.31 355.96 392.24C361.873 391.243 367.031 389.058 369.516 388.46C375.589 387.005 372.447 388.474 372.768 388.411C376.841 387.583 382.227 386.179 388.346 384.997C415.065 379.867 438.446 375.812 467.309 371.568C470.937 371.038 475.118 369.875 475.669 369.799C477.405 369.566 476.891 370.316 482.005 369.617C492.947 368.131 502.968 366.956 513.525 365.795C515.649 365.562 516.467 364.832 518.081 364.648C523.598 363.986 541.755 364.009 542.137 361.897C553.473 362.803 560.581 360.692 569.351 360.147C589.592 358.803 623.111 358.149 643.318 358.077C647.59 358.039 649.616 357.504 652.137 357.502C656.697 357.413 681.805 358.447 683.029 358.482C685.559 358.433 684.185 355.831 697.062 358.669C704.732 359.259 704.004 358.213 705.603 358.254C718.368 358.639 730.231 362.02 728.136 359.725C742.522 361.551 751.589 363.786 757.906 362.534C757.724 363.486 764.567 364.864 772.789 365.602C764.609 362.913 765.714 361.858 745.139 359.927C744.824 359.899 745.358 360.654 745.043 360.626C742.19 360.372 736.242 359.428 731.3 359.028C726.356 358.629 729.063 359.344 727.084 359.163C725.268 359 725.378 358.343 722.74 358.119C714.178 357.401 706.484 356.722 701.502 356.418C698.327 356.224 695.07 356.629 692.702 356.51C683.706 356.012 664.225 354.914 652.201 354.893C649.743 354.885 650.623 355.525 645.454 355.55C644.844 355.554 642.619 354.872 638.017 354.745C633.411 354.621 629.825 354.987 626.837 354.957C624.336 354.935 625.369 354.324 620.22 354.381C615.718 354.17 567.523 356.77 564.914 357.282C561.14 357.672 559.409 358.612 557.077 358.684C556.666 358.693 555.897 357.965 554.47 358.018C531.044 358.62 479.643 365.644 454.419 369.786C418.504 375.354 386.644 381.323 351.851 388.922C332.565 393.15 313.991 396.913 295.824 400.284C294.883 400.337 293.945 400.389 293.009 400.44C298.164 399.471 303.397 398.46 308.709 397.403C308.668 397.072 308.627 396.741 308.586 396.409C315.771 394.921 315.026 395.866 314.923 396.376C317.565 395.636 320.227 394.884 322.907 394.12C325.32 394.75 341.407 390.731 351.692 388.31C352.397 388.146 353.07 387.992 353.704 387.851C360.013 386.437 367.556 385.277 370.825 384.55C377.733 383.015 377.365 382.347 377.907 382.22C378.83 382.006 388.589 380.663 395.425 379.307C405.584 377.302 406.182 375.985 420.428 374.402C438.826 370.495 458.971 367.584 478.033 365.075C473.952 364.52 492.184 363.086 500.165 362.148C547.589 356.12 609.271 351.901 658.544 352.463C665.053 352.511 669.925 351.96 673.505 352.089C675.445 352.16 676.276 352.994 678.957 352.982C679.426 352.98 679.779 352.227 684.749 352.312C696.7 352.364 728.49 355.904 736.134 355.27C778.881 359.486 820.885 366.495 862.774 376.552C863.894 376.483 865.014 376.416 866.133 376.35C873.42 379.641 905.273 386.975 919.878 391.623C946.591 399.713 979.378 411.952 1001.67 420.907C1006.58 422.857 1010.75 424.02 1015.33 425.9C1017.3 426.709 1019.49 428.288 1021.52 429.136C1044.44 438.641 1075.46 452.042 1097.68 462.789C1148.73 487.299 1195.37 512.245 1246.05 536.062C1296.3 559.601 1347.37 579.788 1400.37 588.804C1455.33 598.408 1510.95 595.058 1564.91 580.804C1635.65 563.908 1692.24 513.404 1714.44 446.397C1715.21 444.191 1714.62 444.125 1715.2 442.414C1718.85 432.442 1725.2 409.233 1727.01 397.149C1728.73 387.579 1729.72 372.11 1730.73 368.827C1728.73 403.449 1720.64 439.695 1705.44 471.737C1704.36 474.018 1704.74 474.537 1704.61 474.821C1702.16 480.029 1703.18 476.492 1699.14 483.754C1698.12 486.359 1685.42 508.739 1685.39 505.026C1683.4 511.125 1653.2 542.643 1645.39 546.415C1643.28 547.872 1644.35 546.327 1643.92 546.604C1642.05 547.797 1641.76 549.031 1640.13 550.191C1635.95 553.307 1624.02 559.672 1621.71 560.826C1616.83 563.72 1600.98 571.962 1593.52 574.452C1586.64 576.874 1587.46 575.594 1581.67 577.462C1577 578.884 1582.47 578.06 1571.92 581.459C1570.58 581.877 1568.35 582.494 1565.66 583.17C1557.56 585.244 1546.02 587.521 1542.62 588.2C1538 589.16 1533.29 590.657 1526.58 591.75C1517.05 593.422 1497.16 595.469 1487.35 595.801C1486.77 595.829 1485.32 595.185 1483.92 595.278C1481.03 595.467 1481.98 596.327 1479.8 596.523C1477.79 597.177 1439.55 596.749 1433.07 595.685C1428.59 595.326 1425.57 594.465 1423.12 594.207C1421.2 594.003 1420.92 594.739 1418.95 594.517C1418.33 594.445 1413.31 593.177 1408.11 592.419C1406.51 592.188 1403.44 591.794 1399.97 591.302C1392.82 590.315 1383.98 588.776 1382.55 588.462C1381.16 588.165 1382.79 587.973 1378.7 587.082C1374.97 586.261 1372.37 586.359 1370.24 585.853C1365.31 584.676 1359.98 582.658 1354.81 581.197C1339.98 576.927 1340.49 577.805 1339.59 577.594C1337.1 576.892 1336.36 575.811 1335.56 575.535C1332.16 574.383 1323.9 571.415 1320.92 570.311C1317.2 568.946 1315.34 569.082 1311.36 567.61C1308.42 566.515 1302.62 563.535 1295.99 560.846C1280.95 554.77 1263.24 546.832 1248.57 540.036C1244.17 538.002 1243.21 538.306 1241.88 537.705C1234.91 534.526 1231.35 531.949 1229.36 531.003C1215.02 524.222 1189.25 512.677 1176.16 506.171C1170.8 503.521 1147.64 491.175 1134.25 484.611C1132.72 483.856 1133.9 485.046 1132.23 484.122C1128.25 481.908 1129.13 481.13 1127.04 480.125C1126.04 479.654 1123.52 479.088 1120.61 477.721C1105.57 470.644 1095.09 465.089 1088.31 461.903C1021.75 430.365 951.073 402.973 883.604 385.711C876 383.741 867.159 380.882 855.553 378.852C855.13 379.088 854.705 379.323 854.282 379.559C853.953 379.158 853.623 378.758 853.293 378.357C840.278 375.287 835.477 373.877 822.269 371.75C821.125 371.567 817.387 372.359 815.545 370.177C802.089 369.125 809.597 369.09 799.694 367.307C789.687 365.549 780.525 364.613 770.896 363.431C765.628 363.351 787.239 367.829 788.565 368.094C790.841 368.435 793.22 367.895 795.52 368.213C802.215 369.132 808.447 370.949 810.054 370.414C818.371 372.759 807.91 370.464 808.834 371.413C814.548 372.09 820.215 372.812 825.837 373.577C828.001 376.523 859.834 379.898 857.185 381.461C859.724 381.634 862.256 381.815 864.782 382.005C874.783 387.022 881.431 386.838 895.95 390.023C894.837 390.053 893.722 390.085 892.607 390.118C892.885 390.312 905.209 394.309 901.138 391.726C913.392 397.132 913.496 393.999 924.368 399.632C931.082 402.036 927.437 399.498 939.495 403.426C946.678 405.787 954.933 409.302 963.005 412.22C964.835 412.88 965.893 412.464 967.519 413.048C969.144 413.633 969.676 414.606 971.627 415.337C975.659 416.847 981.041 418.306 983.514 419.296C985.737 420.182 988.664 421.984 993.973 424.161C1012.81 431.978 1007.37 428.894 1010.48 429.791C1013.79 430.778 1015.59 432.834 1021.9 435.317C1022.53 435.566 1021.22 434.185 1023.24 435.067C1024.89 435.789 1025.3 436.853 1030.76 439.355C1033.13 440.313 1066.27 455.275 1071.45 457.829C1079.3 461.47 1096.58 468.924 1104.66 472.884C1107.73 474.381 1110.69 476.583 1113.92 478.17C1124.5 483.346 1141.96 492.026 1155.28 498.72C1167.67 504.941 1189.44 514.246 1195.6 518.83C1212.59 527.509 1217.21 528.413 1218.55 529.06C1222.08 530.734 1223.35 532.213 1227.74 534.37C1277.53 559.153 1343.79 586.217 1399.39 594.817C1406.88 596.075 1414.13 597.079 1421.04 597.86C1469.63 603.511 1519.24 598.958 1566.64 586.27C1652.1 566.737 1714.5 495.014 1728.8 411.562C1729.11 411.264 1729.43 410.966 1729.75 410.666C1726.89 425.987 1722.31 443.776 1716.78 458.066C1709.89 477.491 1693.25 502.921 1685.2 515.565C1689.21 510.912 1694.18 502.336 1694.95 503.003C1688.9 512.107 1682.12 520.757 1674.66 528.768C1674.51 528.205 1674.36 527.644 1674.2 527.085C1666.3 535.325 1657.61 543.225 1648.45 549.989C1646.84 551.174 1647.68 549.972 1646.28 551.002C1644.69 552.15 1646.06 551.739 1645.77 551.957C1641.73 554.869 1640.19 555.27 1639.72 555.609C1638.46 556.465 1639.75 556.192 1636.11 558.698C1629.31 563.338 1623.25 565.167 1626.1 565.948C1623.8 567.239 1621.46 568.502 1619.08 569.734C1618.18 569.569 1617.28 569.398 1616.38 569.221C1602.42 578.656 1593.65 577.414 1586.15 583.473C1583.15 583.988 1580.1 584.459 1577.02 584.887C1575.58 585.931 1574.1 586.969 1572.6 588C1572.11 587.626 1571.63 587.25 1571.14 586.874C1569.85 587.271 1568.53 587.658 1567.2 588.034C1551.73 592.387 1536.86 595.025 1521.89 597.423C1510.88 599.119 1508.5 599.591 1498.73 600.551C1476.76 602.244 1498.64 601.667 1480.56 603.88C1481.46 603.211 1482.35 602.539 1483.24 601.865C1480.23 601.801 1477.24 601.7 1474.27 601.562C1472.24 602.136 1470.24 602.694 1468.1 603.237C1458.61 600.714 1452.71 602.623 1451.43 602.597C1450.37 602.535 1447.04 600.954 1435.97 601.56C1440.66 599.715 1427.57 600.909 1426.54 600.766C1425.52 600.72 1413.12 598.839 1408.04 598.058C1405.95 597.763 1402.61 597.389 1399.05 596.911C1395.8 596.477 1392.37 595.954 1389.56 595.398C1384.35 594.359 1385.04 593.713 1384.66 593.633C1378.29 592.232 1382.17 593.648 1377.54 592.664C1372.92 591.66 1369.5 590.166 1368.5 589.979C1367.99 589.885 1369.5 590.97 1367.2 590.471C1361 589.151 1350.13 585.531 1343.22 583.418C1340.76 582.679 1337.49 582.273 1334.75 581.409C1330.55 580.081 1328.85 578.681 1326.41 577.882C1325.57 577.604 1319.83 576.938 1313.26 574.341C1312 573.842 1309.25 570.121 1302.99 571.598C1302.8 570.98 1302.61 570.362 1302.42 569.744C1280.94 560.007 1273.1 560.864 1265.02 553.355C1249.16 546.711 1259.32 552.816 1257.5 552.247C1256.33 551.874 1251.37 549.182 1250.79 548.939C1249.77 548.52 1249.74 549.011 1248.65 548.504C1228.62 539.081 1237.98 542.463 1231.91 538.991C1217.55 530.648 1204.5 527.502 1230.98 539.344C1230.86 539.572 1230.75 539.799 1230.63 540.027C1224.36 536.786 1207.92 528.846 1212.79 532.676C1216.71 535.872 1255.53 553.496 1233.07 544.461C1227.96 542.385 1225.83 540.317 1216.36 537.703C1210.58 534.982 1210.85 532.532 1202.79 529.58C1204.42 529.485 1206.05 529.388 1207.68 529.288C1197.84 523.256 1184.01 517.888 1176.38 513.526C1173.76 512.029 1165.76 503.67 1166.23 508.223C1161.7 505.661 1139.86 495.424 1135.97 493.101C1135.05 492.554 1134.7 490.062 1120.34 483.724C1119.25 483.471 1118.17 483.218 1117.08 482.965C1129.48 489.935 1106.6 479.457 1111.83 484.2C1114.34 484.461 1124.62 488.976 1126.54 489.448C1129.71 490.186 1121.79 485.143 1132.33 490.708C1137.54 496.935 1118.98 485.994 1120.52 490.204C1107.4 482.084 1105.29 482.611 1102.12 481.112C1088.33 474.642 1080.19 470.387 1067.06 464.662C1064.23 462.618 1087.9 472.757 1090.54 474.381C1081.03 467.347 1099.28 475.976 1106.34 480.943C1107.3 480.658 1108.25 480.374 1109.2 480.089C1099.08 475.525 1089.16 470.94 1079.56 465.791C1078.8 465.711 1078.04 465.631 1077.28 465.552C1079.34 466.941 1081.39 468.331 1083.43 469.722C1074.93 466.379 1080.77 466.953 1068.96 463.32C1068.95 462.482 1068.93 461.643 1068.92 460.804C1058.01 456.016 1047.56 451.566 1036.63 447.067C1031.57 443.152 1010.71 435.031 1013.71 438.405C1005.28 435.077 1016.05 438.387 1008.36 434.722C1005.01 433.127 998.246 430.363 996.358 430.184C996.393 432.17 1006.42 436.437 1008.92 438.856C1006.98 438.202 960.554 419.051 963.867 422.781C959.969 421.654 962.126 421.237 955.301 418.529C936.666 411.033 905.778 403.755 890.743 396.949C909.826 400.686 914.433 403.803 928.726 408.372C937.854 410.855 991.642 430.788 980.289 424.624C982.162 425.597 984.027 426.572 985.884 427.551C988.076 427.773 990.231 427.986 992.451 428.23C986.919 425.979 981.4 423.783 975.789 421.607C974.235 421.644 972.681 421.685 971.125 421.727C970.65 421.114 970.174 420.5 969.695 419.887C967.337 418.938 964.967 417.995 962.587 417.058C963.091 417.763 963.594 418.468 964.095 419.174C960.388 417.93 956.548 416.663 952.905 415.488C954.112 415.209 955.292 414.922 956.539 414.659C939.355 408.551 945.049 410.972 934.987 408.936C927.67 406.711 940.411 409.448 925.031 404.227C907.015 398.332 918.494 403.759 895.274 396.675C895.025 396.268 894.776 395.861 894.526 395.455C889.272 394.336 883.976 393.252 878.638 392.206C879.435 391.996 880.233 391.787 881.03 391.578C870.364 388.922 855.883 384.737 851.898 385.466C863 387.235 862.195 389.924 859.279 389.738C853.095 388.301 767.143 371.545 749.418 370.667C728.098 368.22 711.092 367.736 691.38 365.385C705.061 364.7 751.989 369.857 761.466 370.593C762.364 370.634 762.424 368.141 767.821 371.644C786.073 373.559 808.236 377.895 830.66 382.38C830.118 381.534 829.574 380.69 829.027 379.845C814.946 378.569 802.297 373.063 803.691 376.12C800.864 375.635 798.023 375.162 795.169 374.7C795.242 374.227 795.316 373.754 795.39 373.281C791.069 372.584 787.036 371.962 782.815 371.34C782.749 371.812 782.682 372.285 782.616 372.757C779.151 372.245 775.666 371.75 772.161 371.273C771.856 370.752 771.551 370.232 771.245 369.712C760.501 369.058 724.853 362.862 740.317 367.249C735.441 366.753 730.527 366.292 725.575 365.865C725.616 365.523 725.658 365.181 725.699 364.84C723.571 364.61 721.436 364.388 719.293 364.172C719.979 364.538 720.664 364.905 721.347 365.273C711.637 363.918 701.831 364.929 695.654 363.519C699.71 363.509 704.221 363.552 708.503 363.609C699.981 363.441 685.544 361.817 684.127 361.772C680.069 361.594 677.908 362.198 673.474 362.082C669.466 361.982 670.02 361.478 669.271 361.473C647.502 361.489 655.587 364.545 645.594 361.07C644.552 361.521 643.509 361.974 642.466 362.428C641.062 362.041 639.653 361.657 638.24 361.277C631.968 361.317 625.638 361.412 619.252 361.563C621.36 360.957 623.465 360.356 625.567 359.759C616.014 359.636 611.528 360.918 610.601 360.963C607.956 361.098 606.701 360.425 605.878 360.449C566.908 362.032 590.725 361.703 571.628 365.347C564.653 364.734 571.53 363.268 572.419 362.158C563.291 363.215 560.387 363.117 550.554 363.928C547.992 364.144 545.284 364.933 543.658 365.077C542.227 365.202 537.809 364.979 534.633 365.269C529.261 365.754 522.11 366.805 514.624 367.599C508.529 368.213 488.802 370.092 475.634 371.937C470.099 372.702 471.462 373.012 470.03 373.213C469.435 373.296 465.002 373.336 461.41 373.867C431.783 378.234 401.89 384.003 372.41 390.167C366.093 391.488 359.689 392.825 353.22 394.201C337.905 397.462 323.084 400.337 309.014 403.103C304.734 403.941 307.091 403.893 305.23 404.265C304.598 404.387 303.643 403.872 297.204 405.359C294.884 405.892 297.679 405.868 295.385 406.317C294.142 406.553 294.087 405.962 286.764 407.132C273.511 409.228 266.963 411.051 265.805 411.221C263.667 411.517 264.191 410.933 261.385 411.358C247.323 413.462 238.027 414.699 224.294 416.346C217.404 417.383 180.479 420.677 176.796 420.752C171.727 421.239 176.51 421.953 170.046 422.265C168.227 422.11 166.426 421.947 164.643 421.777C167.439 421.47 170.27 421.142 173.138 420.792C165.205 421.562 156.574 421.413 151.135 421.531C149.997 421.569 141.352 422.131 135.684 421.999C137.862 422.202 140.221 422.391 142.311 422.566C141.686 422.721 140.776 422.874 140.011 423.026C129.433 422.769 118.936 422.394 109.41 421.713C105.939 421.455 107.277 421.933 103.551 421.615C80.9164 419.132 87.8822 418.768 66.7471 417.257C74.2353 419.086 98.0923 422.84 102.807 422.962C105.652 423.203 114.97 421.436 111.415 423.664C131.667 424.771 113.762 422.627 133.468 423.511C133.065 423.811 132.662 424.109 132.26 424.408C135.773 424.573 138.9 424.684 141.709 424.68C144.165 424.675 146.287 424.562 148.236 424.264C149.426 425.828 171.963 424.367 185.598 423.36C202.21 422.349 224.401 420.331 241.841 417.978C247.722 417.196 251.033 416.069 251.782 415.963C252.881 415.807 256.086 415.888 258.319 415.552C266.173 414.468 293.742 408.773 299.084 409.304C247.874 418.589 200.375 425.252 148.343 426.094C155.375 425.805 103.08 424.521 101.091 423.496C98.5505 423.268 100.642 423.961 99.8854 423.913C94.2457 423.535 89.7974 422.218 88.1289 421.98C86.8589 421.796 84.2214 421.753 79.8758 420.993C79.0808 420.853 78.9186 420.48 78.0733 420.327C72.8905 419.397 66.2113 417.967 60.4967 416.431C60.141 416.341 58.5412 416.416 57.0994 416.005C55.6512 415.592 54.3982 414.706 54.0453 414.597C51.8126 413.921 48.887 413.057 46.0053 412.104C42.7353 411.015 39.6505 409.853 37.5324 408.943C36.0683 408.308 37.2224 408.431 35.6035 407.716C30.7404 405.465 31.9342 406.861 26.3682 403.708C24.5739 402.631 24.9003 402.282 21.0925 400.024C18.4443 398.405 18.2135 399.322 17.7788 399.081C17.0256 398.76 9.32048 392.132 6.54174 390.179C10.9996 396.428 0.381523 384.494 1.6905 384.498C-1.21445 381.571 -3.78571 378.576 -6.21114 375.255C-6.84356 374.003 -7.43707 372.744 -7.99311 371.478C-16.6973 357.614 -18.7153 347.243 -20.2763 331.7C-20.5326 330.893 -20.9259 317.48 -21.0382 318.128C-21.8092 325.808 -21.2691 334.451 -19.7967 339.286C-19.7952 347.638 -19.1162 348.166 -14.6198 361.028C-12.9036 365.352 -13.0193 365.768 -12.8114 366.264C-6.18481 383.726 18.354 403.138 30.3117 406.713C33.162 408.56 22.3496 403.025 26.3886 405.434C26.8799 406.013 43.4358 414.2 55.8933 417.404C62.4991 419.305 69.0171 420.669 72.4114 421.202C75.2874 421.619 75.8094 421.508 70.6867 420.088C73.1016 420.641 74.7289 421 76.7886 421.426C78.4604 423.132 88.9403 424.474 87.956 422.966C88.9186 423.376 89.8922 423.783 90.8768 424.187C92.8615 424.681 95.2513 425.11 98.7184 425.56C110.646 428.919 186.695 426.966 190.747 425.807C190.868 426.133 190.989 426.459 191.11 426.785C156.949 429.609 125.385 429.747 88.7033 425.743C89.8015 425.603 90.905 425.457 92.0139 425.305C84.5532 424.538 77.7994 423.61 70.8065 422.334C63.0879 420.899 55.8881 419.17 49.1776 417.157C63.5968 422.729 87.3616 427.537 104.765 428.498C107.452 428.659 105.516 428.071 106.136 428.076C107.769 428.08 109.411 428.971 115.433 429.43C121.332 429.961 137.501 429.85 139.127 429.817C142.452 429.882 148.897 430.713 153.592 430.611C159.589 430.474 155.544 430.031 156.748 429.994C161.748 429.823 166.374 429.911 170.465 429.683C176.539 429.383 189.454 427.57 193.137 428.649C189.094 429.026 185.285 429.36 180.594 429.71C202.937 428.822 221.298 425.058 243.696 423.492C248.843 424.56 231.15 426.66 246.211 425.414C243.475 425.759 240.764 426.09 238.077 426.406C237.39 426.129 236.704 425.851 236.021 425.573C230.857 426.486 225.715 427.352 220.696 428.159C222.095 427.685 223.5 427.206 224.91 426.721C206.614 428.604 190.197 429.499 184.22 431.549C183.795 431.17 183.371 430.791 182.949 430.412C165.355 432.149 142.101 430.542 146.55 432.704C145.812 432.59 145.078 432.475 144.347 432.358C134.453 432.76 138.488 431.859 134.662 431.705C133.377 431.755 113.971 431.36 122.536 432.394C103.917 431.829 109.965 430.04 105.023 429.585C91.8742 429.604 71.4051 424.293 79.9004 427.38C78.1642 427.136 76.4507 426.878 74.7596 426.606C69.7541 424.41 62.6282 424.194 56.405 422.883C54.2734 422.307 52.186 421.705 50.1421 421.078C48.9024 420.261 47.6918 419.436 46.5109 418.606C25.8553 412.767 34.5196 410.307 24.1647 410.034C25.2973 410.94 26.463 411.837 27.6621 412.725C30.7314 414.396 33.9524 415.992 37.3275 417.509C23.8901 412.138 10.9559 404.689 0.456584 394.882C-13.7312 382.348 -18.6817 372.147 -25.2094 353.244C-25.5868 351.391 -25.9105 349.526 -26.1829 347.652C-26.6649 349.697 -25.1559 356.937 -28.1941 343.524C-29.1096 342.369 -27.5447 351.723 -25.7328 355.642C-25.3373 356.585 -27.2048 348.125 -24.4884 357.482C-22.147 363.721 -27.8508 352.737 -19.4958 371.178C-19.9845 370.572 -20.4657 369.959 -20.9395 369.338C-19.9942 371.34 -18.9719 373.314 -17.8707 375.255C-16.5545 376.808 -15.1871 378.314 -13.7702 379.769C-11.3229 384.211 -10.7634 387.113 -2.22117 395.545C-4.38742 393.017 -0.572367 395.944 3.57235 399.463C3.38486 399.669 3.19738 399.876 3.0099 400.082C13.662 408.728 10.4328 405.285 20.1271 411.986C21.1861 412.333 22.2539 412.669 23.3304 412.993C27.6932 417.001 49.8598 425.989 46.0748 422.982C51.1809 426.306 64.4764 429.246 69.9447 429.178C70.2815 429.545 70.6268 429.913 70.8928 430.264C73.2478 430.822 75.6503 431.353 78.1007 431.858C79.5026 431.935 80.9159 432.002 82.3411 432.059C84.0915 432.528 85.8689 432.983 87.6735 433.426C88.8149 433.298 89.9616 433.163 91.1136 433.022C94.0466 433.773 97.0524 434.491 100.131 435.177C102.057 435.146 104.027 435.101 105.622 435.01C105.621 435.71 122.662 437.098 127.877 436.771C129.376 437.009 130.889 437.24 132.416 437.465C133.163 437.185 133.911 436.903 134.661 436.62C135.806 436.885 136.959 437.147 138.121 437.405C139.452 437.305 140.81 437.2 142.138 437.089C143.302 436.977 144.473 436.862 145.649 436.742C155.385 438.207 155.785 436.831 158.039 436.806C162.18 436.785 177.257 437.111 179.922 436.874C182.498 436.682 183.705 436.063 185.809 435.878C216.708 432.77 204.344 435.028 210.686 434.761C214.205 434.557 216.643 433.792 219.809 433.518C222.431 433.297 231.045 432.553 238.624 431.782C245.687 431.091 252.536 430.307 253.273 430.17C255.421 429.771 249.877 428.025 257.036 427.667C257.459 428.989 272.591 425.357 265.746 428.286C272.062 427.178 278.498 425.998 285.057 424.744C284.463 426.485 293.167 423.993 300.783 422.738C312.028 420.959 339.366 416.714 338.056 415.195C341.067 414.988 344.102 414.77 347.161 414.54C350.701 413.712 354.267 412.9 357.861 412.098C373.976 408.495 389.736 405.787 405.26 402.986C462.298 392.639 523.331 384.712 581.227 381.687C583.945 381.543 583.507 380.949 585.46 380.849C595.197 380.277 623.491 380.024 637.618 380.051C642.227 380.029 644.441 379.448 645.893 379.436C650.781 379.401 649.73 380.196 652.068 380.212C655.855 380.198 675.404 380.031 681.964 380.315C685.24 380.43 689.072 381.278 692.864 381.299C693.19 381.302 692.614 380.599 692.89 380.604C699.788 380.935 695.617 381.264 697.945 381.378C715.372 382.265 733.128 383.839 751.471 385.9C756.103 386.414 763.168 386.846 767.072 387.341C768.56 387.531 765.837 387.67 770.969 388.346C772.723 388.581 773.41 388 775.388 388.244C783.949 389.325 786.215 391.888 793.937 391.397C808.52 393.88 832.083 399.146 845.257 402.232C848.291 402.927 849.853 402.876 852.724 403.56C854.761 404.046 858.186 405.514 861.324 406.299C864.487 407.09 869.476 407.722 875.568 409.354C882.061 411.081 889.901 413.651 891.331 414.059C893.062 414.55 894.079 414.05 895.802 414.556C901.054 416.068 914.53 420.923 921.343 423.217C928.539 425.612 932.922 426.699 935.353 427.521C937.602 428.287 939.998 429.791 941.015 430.147C942.598 430.702 943.225 430.117 945.232 430.821C948.472 431.963 951.797 433.638 956.788 435.456C1046.12 467.702 1128.21 512.672 1213.08 553.734C1222.64 558.291 1227.51 561.286 1241.91 567.662C1247.7 570.205 1245.63 568.364 1250.04 570.528C1252 571.488 1251.22 571.842 1253.73 572.998C1264.77 578.097 1278.43 583.148 1283.32 585.111C1285.28 585.906 1287.2 587.464 1291.28 589.073C1321.45 601.054 1358.72 612.578 1393.74 618.624C1394.31 618.724 1394.89 618.824 1395.47 618.926C1414.01 622.296 1441.39 625.182 1462.38 625.009C1499.68 625.089 1538.21 619.112 1573.84 609.005C1595.83 602.821 1615.85 594.59 1633.82 584.467C1707.9 544.668 1745.4 463.301 1750.03 387.067C1748.66 423.176 1736.78 472.906 1714.53 508.713C1686.04 558.042 1632.75 595.206 1574.37 610.661C1516.81 627.007 1454.62 631.172 1395.17 620.775C1387.53 619.48 1379.99 617.994 1372.48 616.322C1329.25 607.055 1277.88 587.025 1235.28 567.374C1233.32 566.482 1229.56 564.105 1225.43 562.205C1224.56 561.815 1213.23 557.504 1209.55 555.705C1213.86 555.803 1198.72 550.185 1194.44 547.99C1189.01 545.231 1177.67 538.538 1164.74 532.543C1152.9 527.052 1155.76 529.279 1155.1 528.995C1150.84 527.145 1149.92 525.426 1146.8 523.713C1134.21 516.66 1067.84 484.229 1048.94 476.002C1044.16 473.823 1043.72 474.397 1042.64 473.908C1039.78 472.613 1035.99 470.145 1031.35 468.092C1022.96 464.374 1012.99 460.819 1008.44 458.912C997.463 454.249 976.55 445.03 961.977 439.689C957.852 438.166 957.848 438.933 955.974 438.248C947.535 435.11 926.814 427.137 916.211 423.863C899.558 418.603 881.841 414.035 864.712 409.476C863.55 409.506 862.387 409.538 861.223 409.571C859.585 408.824 857.938 408.082 856.285 407.343C826.636 400.401 796.387 394.007 767.011 390.009C763.648 389.504 746.222 387.924 743.46 387.659C741.147 387.399 738.934 386.397 735.463 386.149C730.59 385.809 735.059 387.687 727.127 386.504C724.985 386.192 727.123 385.772 722.804 385.186C721.531 384.902 693.029 382.559 691.873 382.636C689.414 382.564 687.172 383.747 686.535 383.741C683.221 383.715 683.387 382.728 681.157 382.53C674.579 381.939 665.826 382.317 664.732 382.273C651.159 381.611 627.539 380.678 613.548 381.448C611.635 381.547 611.898 382.27 611.563 382.3C609.397 382.492 608 381.697 605.919 381.729C594.315 381.904 578.128 383.141 566.879 383.961C565.606 384.05 562.872 383.823 560.584 384.009C547.617 385.093 551.875 385.457 551.146 385.527C549.398 385.719 546.203 385.259 541.507 385.592C530.038 386.346 507.515 388.648 494.582 390.266C484.919 391.456 485.158 392.233 484.528 392.321C483.173 392.519 479.549 392.344 473.42 393.088C461.619 394.542 463.038 394.983 458.154 395.649C457.74 395.711 458.359 395.019 452.896 395.764C442.427 397.145 418.159 401.718 407.517 403.649C403.265 404.405 402.144 404.047 397.76 404.851C390.834 406.099 375.066 409.824 373.785 410.098C373.431 410.169 372.487 409.717 370.402 410.144C368.108 410.613 365.925 411.395 364.206 411.752C362.364 412.134 360.257 412.536 358.082 412.948C348.246 414.833 337.583 416.589 341.9 417.55C338.553 417.67 335.235 417.776 331.947 417.87C311.186 422.053 292.938 425.091 271.183 428.338C266.517 429.028 262.755 429.986 258.91 430.513C254.922 431.093 238.581 432.562 235.588 432.879C229.809 433.69 200.162 436.531 196.912 436.692C190.144 437.303 183.404 438.543 180.112 438.555C177.635 438.553 179.857 437.974 175.18 438.07C167.039 438.267 154.077 439.119 151.829 439.1C150.872 439.092 152.591 438.772 143.611 438.722C138.548 438.676 135.318 438.99 133.436 438.941C132.862 438.904 133.617 438.38 123.269 438.016C116.191 437.726 113.323 437.958 112.593 437.914C111.52 437.835 108.948 437.133 104.771 436.756C93.396 435.848 75.1203 433.587 64.8075 431.044C62.8184 430.553 63.5046 430.211 55.7994 428.153C50.3749 426.627 51.2166 427.332 49.2245 426.734C46.0628 425.73 41.9299 423.824 34.4799 420.729C30.0682 418.908 11.1736 410.868 -3.03798 397.055C-18.0034 383.309 -25.027 365.1 -25.6271 363.539C-26.5968 361.275 -27.4714 358.566 -28.0565 357.462C-27.9859 358.524 -27.8976 359.588 -27.7911 360.654C-23.2581 370.633 -25.5448 366.814 -24.4973 369.554C-23.1892 373.653 -14.3145 387.55 -11.6907 390.448C-10.8071 391.57 -13.4709 389.45 -8.50613 395.375C-2.84708 401.745 0.54603 403.126 2.20173 406.124C12.0102 412.161 21.572 419.12 9.4695 412.061C6.35197 410.125 -11.4481 398.294 -22.3556 379.314C-33.8164 360.48 -35.8681 338.664 -36.1606 331.754C-37.1189 319.996 -34.5253 299.327 -31.3858 286.384C-29.7977 278.286 -24.1312 260.516 -24.8312 260.967C-22.6044 254.324 -24.4662 261.516 -23.9005 260.152C-22.8634 257.132 -15.5573 237.454 -13.685 233.652C-5.77655 215.715 6.61376 193.926 15.7703 177.374C15.1861 178.063 14.603 178.753 14.0206 179.444C11.5426 182.904 2.11225 200.515 0.482001 202.197C14.2896 176.426 29.8984 152.062 46.5811 128.354C46.5971 129.056 67.718 100.106 68.6931 98.6832C68.0921 99.0458 67.4902 99.4096 66.8871 99.7746C55.6506 116.364 55.5389 114.405 48.2441 125.79C45.0695 130.293 45.6505 128.698 44.0111 130.883C27.8047 152.899 44.4437 131.717 32.4691 148.756C35.358 143.189 25.696 157.252 21.5591 163.748C20.5278 165.17 8.80159 184.891 7.53389 187.295C-0.314443 200.573 -12.7494 223.94 -18.2716 238.444C-22.9743 249.81 -25.7698 255.697 -29.431 266.544C-32.0579 274.662 -30.9226 272.429 -32.0137 276.251C-34.2108 284.388 -36.0283 287.16 -35.4495 292.811C-36.7689 298.411 -37.8828 304.168 -38.7001 310.215C-38.4335 310.241 -38.167 310.267 -37.9005 310.293C-38.2707 314.041 -38.5118 317.772 -38.612 321.483C-38.9104 322.58 -39.198 323.611 -39.4722 324.784C-38.8939 337.274 -38.2187 332.003 -37.3792 334.281C-37.1454 336.923 -36.8296 339.549 -36.4268 342.155C-36.7455 344.246 -37.0171 346.337 -37.1966 348.594C-34.8366 360.817 -30.4096 372.79 -23.3541 383.899C-22.6635 384.478 -21.9658 385.046 -21.2616 385.604C-21.4818 385.772 -21.7017 385.94 -21.9216 386.108C-10.0575 404.439 9.79486 418.646 27.8982 426.759C30.4188 428.112 23.6647 425.485 16.7748 421.778C9.67125 418.1 1.4917 412.192 0.597221 411.441C-5.06841 407.332 -15.6724 397.338 -22.0792 387.669C-28.9555 377.764 -32.4289 368.545 -32.9391 368.707C-36.5737 360.011 -40.9152 334.108 -41.0938 326.05C-40.9801 338.319 -39.3537 350.577 -35.2259 362.93C-35.6711 362.629 -36.1148 362.325 -36.557 362.016C-29.8335 376.824 -28.8048 379.255 -19.7921 393.872C-19.4237 393.623 -19.0557 393.373 -18.6876 393.124C-12.6752 404.193 5.73264 414.857 5.23047 416.512C10.7085 420.096 16.0829 423.019 21.3831 425.539C27.1355 428.521 25.3746 428.094 27.9534 429.647C30.7664 431.027 37.3206 435.319 61.5355 441.295C64.9201 442.072 64.6169 441.496 69.4236 442.587C70.7962 442.84 77.9205 445.404 93.9453 447.45C96.462 447.758 96.6957 447.336 99.3475 447.583C105.521 448.182 115.807 449.885 111.062 448.036C133.157 449.167 124.115 449.641 131.176 450.49C136.015 450.978 135.035 450.069 139.295 450.366C144.757 450.656 140.537 451.717 159.867 451.161C157.68 451.131 155.515 451.09 153.37 451.037C154.438 450.79 155.509 450.54 156.584 450.286C167.678 450.723 166.657 449.829 172.127 451.047C180.382 450.144 188.242 449.689 198.439 449.107C219.434 447.688 208.565 450.262 233.41 445.629C237.72 445.445 241.542 445.297 245.267 445.147C251.307 443.784 246.163 443.657 255.401 442.312C248.359 444.788 267.974 441.637 271.779 442.437C272.077 442.061 272.375 441.686 272.672 441.309C274.826 440.996 276.993 440.675 279.174 440.346C279.233 440.605 279.291 440.865 279.35 441.124C282.218 440.491 285.108 439.844 288.02 439.182C290.294 439.09 292.584 438.99 294.889 438.883C298.581 437.714 301.387 436.685 304.672 435.557C306.749 435.165 308.838 434.767 310.937 434.362C310.359 434.87 309.78 435.378 309.203 435.884C311.876 435.288 314.568 434.679 317.278 434.059C314.253 435.263 316.371 435.695 324.997 434.106C332.175 432.757 323.67 432.964 339.414 430.553C340.552 430.363 342.581 431.043 357.851 428.113C359.341 427.825 360.655 427.565 361.812 427.331C374.097 424.878 367.084 425.676 369.903 425.082C370.505 424.956 375.881 424.401 380.77 423.535C383.547 423.041 386.101 422.138 386.465 422.07C388.168 421.767 388.801 422.243 391.15 421.827C397.117 420.766 404.974 419.065 410.71 418.107C413.319 417.668 415.836 417.598 416.992 417.408C418.787 417.11 420.943 416.207 422.749 415.912C429.455 414.805 440.679 414.881 443.345 411.964C450.495 413.192 463.758 408.54 463.026 410.214C479.865 407.055 528.3 404.106 526.242 401.781C536.436 403.197 535.313 401.654 539.435 401.36C544.056 401.046 541.593 401.679 545.428 401.377C554.377 400.682 562.804 399.973 571.489 399.526C570.093 399.224 568.693 398.925 567.288 398.629C576.416 398.036 573.363 399.047 582.597 398.818C599.464 398.498 592.29 398.093 594.712 397.02C593.813 397.957 614.599 397.344 616.564 397.251C617.786 397.17 612.362 395.958 624.773 396.285C624.11 396.666 623.448 397.048 622.786 397.431C628.441 396.854 643.532 397.653 646.031 397.597C647.094 397.557 653.615 394.586 659.54 397.216C660.254 396.854 660.968 396.493 661.683 396.132C668.239 396.805 674.715 397.542 681.112 398.341C682.152 397.699 683.193 397.059 684.235 396.419C686.266 396.531 688.291 396.648 690.308 396.771C688.948 397.308 687.586 397.846 686.225 398.387C698.432 398.773 714.401 401.095 717.027 399.24C719.718 399.871 722.392 400.513 725.05 401.166C726.852 400.639 728.653 400.116 730.453 399.596C742.82 401.088 742.821 401.596 751.464 403.42C751.185 402.829 750.906 402.239 750.626 401.649C756.954 403.207 768.378 405.502 777.269 407.005C781.531 407.708 788.76 408.14 789.886 408.406C790.942 408.643 800.578 413.42 802.093 411.059C816.688 414.963 823.182 415.197 829.027 416.475C832.923 417.344 834.597 418.362 838.967 419.427C845.225 420.957 851.524 422.175 855.065 423.104C857.091 423.637 857.32 424.335 858.71 424.707C865.26 426.484 861.577 424.871 868.455 426.723C869.083 426.897 874.111 429.014 879.905 430.538C883.16 431.38 891.676 432.96 892.395 433.183C895.606 434.159 892.581 435 904.062 436.444C903.65 436.659 903.238 436.873 902.826 437.088C916.188 442.109 918.872 441.544 921.637 442.331C921.992 442.439 925.121 444.074 927.112 444.666C930.478 445.664 932.063 445.394 932.808 445.613C935.452 446.389 943.898 449.71 949.982 451.138C948.066 452.746 967.653 460.911 972.868 460.316C976.131 462.127 979.455 463.982 982.795 465.865C984.545 466.124 986.294 466.385 988.041 466.649C988.845 467.425 989.646 468.201 990.444 468.978C995.886 470.233 1001.3 471.515 1006.69 472.823C1006.64 473.798 1006.59 474.773 1006.53 475.748C1007.98 476.254 1009.41 476.759 1010.86 477.271C1012.27 477.089 1013.69 476.909 1015.1 476.73C1016.83 477.636 1018.55 478.544 1020.27 479.455C1020.49 480.129 1020.71 480.804 1020.93 481.478C1030.14 486.269 1027.52 479.475 1043.45 491.692C1046.46 492.626 1049.46 493.566 1052.46 494.512C1054.73 497.833 1061.19 499.531 1065.83 502.017C1069.09 503.768 1068.54 504.404 1073.06 506.616C1077.62 508.855 1077.84 508.103 1078.19 508.269C1081.97 510.065 1084.48 512.065 1087.28 513.297C1087.7 513.483 1089.16 513.172 1092.66 514.848C1096.17 516.525 1097.8 518.44 1103.03 520.854C1105.69 522.084 1106.87 521.805 1109.28 522.939C1120.83 528.378 1130.08 537.554 1140.89 537.781C1142.54 539.294 1155.48 548.241 1161.46 551.139C1170.83 555.681 1167.73 553.065 1171.53 554.796C1172.07 555.042 1174.79 556.777 1182.68 560.667C1184.09 561.362 1183.52 561.662 1183.72 561.769C1192.74 566.293 1211.21 574.904 1221.46 579.639C1222.34 580.042 1226.62 583.707 1235.77 585.745C1247.35 592.721 1272.19 600.139 1288.37 608.615C1290.72 609.57 1293.79 610.165 1294.83 610.573C1303.88 614.025 1299.82 614.515 1321.51 619.278C1319.55 619.488 1324.23 621.819 1331.25 623.889C1341.83 626.942 1334.76 623.291 1343.22 625.836C1343.11 626.247 1342.99 626.658 1342.87 627.069C1362.94 631.289 1366.51 634.034 1386.92 637.95C1388.55 638.248 1390.38 638.521 1392.24 638.762C1398.76 639.618 1405.85 640.007 1407.19 640.177C1407.86 640.289 1415.86 642.297 1416.65 642.37C1421.05 642.874 1423.58 642.633 1427.4 642.951C1440.14 644.064 1454.96 645.614 1452.31 643.135C1455.76 643.718 1459.24 644.257 1462.75 644.749C1476.05 642.085 1485.55 644.944 1488.18 642.263C1490.54 642.618 1492.92 642.95 1495.32 643.261C1524.26 640.595 1551.89 635.008 1579.5 626.852C1605.91 619.058 1631.46 607.855 1654.55 592.574C1657.06 592.235 1676.97 576.984 1677.62 575.854C1681.69 571.631 1675.96 574.664 1685.09 566.867C1686.55 566.472 1688 566.061 1689.44 565.635C1700.2 555.2 1694.52 559.844 1698.27 555.212C1699.99 553.438 1699.87 554.39 1702.11 551.908C1714.77 538.85 1734.25 507.648 1741.09 489.949C1742.6 486.412 1741.93 486.76 1742.38 485.661C1743.63 482.636 1746.47 476.899 1748.54 470.698C1762.19 432.55 1766.22 376.875 1762.72 338.618C1762.51 335.985 1762.08 335.663 1761.93 333.906C1761.73 331.45 1761.58 326.167 1761.28 323.513C1761.01 321.083 1760.55 319.548 1760.24 317.004C1758.8 305.208 1756.84 289.734 1753.62 277.316C1753.41 276.473 1749.38 263.489 1749.23 263.333C1748.37 261.785 1750.11 273.098 1745.27 254.629C1748.28 271.305 1746.26 266.135 1740.7 244.706C1743.24 255.546 1745.32 266.271 1747.07 277.298C1746.93 277.328 1746.79 277.358 1746.66 277.388C1744.23 267.418 1742.28 257.851 1738.61 242.866C1738.62 243.342 1738.62 243.827 1738.62 244.32C1741.28 257.711 1744.05 273.704 1744.58 283.751C1741.75 269.034 1738.37 254.216 1734.43 239.926C1734.55 240.819 1734.59 241.383 1734.67 242.114C1736.14 249.178 1738.94 264.649 1739.57 270.364C1742.21 293.068 1735.65 250.764 1736.18 257.915C1740.54 281.546 1743.2 305.105 1744.12 328.943C1745.51 329.64 1732.79 238.711 1730.15 240.25C1731.62 247.364 1733 255.215 1734.07 262.261C1733.23 258.987 1732.4 255.912 1731.5 252.549C1731.57 253.465 1731.64 254.402 1731.72 255.361C1733.64 267.814 1735.01 280.157 1735.92 292.674C1732.43 254.925 1727.5 237.244 1723.69 229.242C1723.84 230.074 1723.97 230.885 1724.2 232.115C1727.62 239.824 1733.66 278.208 1734.39 298.913C1733.65 294.587 1732.28 276.832 1731.41 272.859C1731.2 271.772 1731.35 275.63 1730.88 273.108C1729.91 266.776 1724.77 238.853 1724.99 243.21C1725.68 245.605 1730.91 290.482 1730.9 299.145C1729 278.707 1726.34 257.551 1722.02 237.688C1723.44 250.357 1724.15 262.11 1725.88 285.505C1726.21 292.572 1720.52 243.424 1719.47 242.227C1720.56 250.795 1721.31 259.212 1721.88 268.022C1721.21 260.497 1720.48 253.609 1719.47 246.205C1719.38 246.2 1719.29 246.195 1719.2 246.189C1721.45 265.007 1722 282.357 1722.56 303.626C1721.96 303.066 1721.67 290.321 1721.23 283.934ZM-15.9282 229.366C-16.2273 228.685 -19.6405 236.479 -21.449 240.931C-21.2664 240.231 -21.0812 239.53 -20.8934 238.829C-24.9189 248.16 -30.9293 266.334 -32.105 266.795C-34.4247 273.807 -32.5189 270.944 -33.0909 273.238C-33.2925 274.028 -36.5396 283.397 -37.3997 291.286C-37.7766 293.114 -38.1278 294.938 -38.4521 296.761C-38.8793 297.053 -39.3061 297.347 -39.7325 297.643C-39.722 300.233 -39.6759 302.947 -39.5676 305.707C-35.9005 278.25 -26.7643 253.224 -15.9441 229.401C-15.9388 229.39 -15.9336 229.378 -15.9282 229.366ZM83.819 444.769C88.8998 445.484 95.5685 446.222 100.673 446.789C105.637 447.348 108.172 447.751 106.745 448.194C101.169 447.61 93.3925 446.659 87.1196 445.637C86.0103 445.353 84.9101 445.063 83.819 444.769ZM1006.31 471.039C1013.92 472.583 1020.17 476.763 1031.21 481.417C1031.06 481.712 1030.9 482.007 1030.75 482.303C1026.67 479.578 1014.29 474.679 1006.31 471.039ZM116.674 40.2882C117.73 38.9845 118.769 37.7061 119.792 36.4536C114.798 41.0041 114.428 42.2575 109.054 48.4579C108.726 48.8363 108.693 48.5935 108.579 48.726C107.352 50.1499 106.445 51.5607 105.346 52.8595C103.232 55.3627 101.326 57.2721 97.4538 61.9691C94.4184 65.6637 94.7645 65.8199 93.7523 67.0406C92.9787 67.9587 83.4738 78.0573 78.4503 85.1998C68.6732 98.6199 112.785 44.1329 116.674 40.2882ZM149.423 3.07612C148.844 3.68361 148.198 4.36648 147.489 5.1224C147.318 5.30429 147.108 5.52833 146.964 5.6818C146.846 5.80503 146.727 5.93021 146.607 6.05698C146.366 6.31069 146.119 6.57159 145.865 6.83947C147.518 5.44614 146.924 6.21632 145.167 8.15477C143.45 10.0442 139.928 13.8503 137.811 16.1524C137.918 16.7331 149.108 4.22861 153.476 0.004919C153.41 -0.0317899 153.148 0.138326 152.705 0.506066C152.483 0.689944 152.216 0.923257 151.904 1.20492C151.831 1.26999 151.729 1.36692 151.678 1.40884C151.644 1.43136 151.61 1.45418 151.576 1.47734C151.508 1.52369 151.439 1.57163 151.368 1.62082C150.802 2.01503 150.153 2.501 149.423 3.07612ZM21.9832 167.832C25.4572 162.373 24.2211 162.906 23.8701 163.016C22.7695 164.759 21.6759 166.507 20.5899 168.26C21.0547 168.117 21.5191 167.975 21.9832 167.832ZM49.0412 127.54C47.4713 128.856 39.2527 140.287 35.5516 145.805C35.3923 146.047 36.6405 144.677 34.0263 148.563C33.2256 149.705 24.7664 160.836 27.4658 158.876C34.411 148.28 41.6588 137.787 49.0304 127.555C49.0339 127.55 49.0376 127.545 49.0412 127.54ZM57.0356 115.874C55.3465 117.931 53.656 120.007 51.9659 122.098C51.378 123.322 50.7938 124.547 50.2111 125.777C51.9698 123.398 53.7807 120.967 55.6054 118.541C56.0812 117.649 56.5582 116.76 57.0356 115.874ZM1673.32 564.918C1673.13 565.69 1672.93 566.463 1672.73 567.238C1671.02 569.198 1659.64 575.435 1662.59 572.66C1666.28 570.162 1669.86 567.579 1673.32 564.918ZM1708.11 525.362C1709.42 523.141 1710.67 520.932 1711.9 518.67C1714.15 516.607 1716.35 514.495 1718.51 512.34C1712.36 523.694 1704.31 534.946 1703.89 531.863C1702.08 534.225 1700.23 536.539 1698.35 538.799C1700.63 537.454 1700.77 537.922 1696.12 544.223C1694.01 544.671 1689.14 551.225 1682.25 557.405C1687.05 552.698 1691.65 547.757 1695.99 542.626C1695.82 542.48 1695.64 542.335 1695.47 542.189C1685.53 553.342 1697.07 538.818 1703.5 531.625C1703.72 530.841 1703.94 530.058 1704.15 529.277C1705.49 527.987 1706.81 526.682 1708.11 525.362ZM743.208 391.736C744.869 391.687 746.669 391.658 748.427 391.628C754.806 395.508 741.482 390.916 731.903 392.41C735.213 390.875 720.662 389.531 719.799 389.359C721.531 388.89 723.262 388.425 724.993 387.964C731.142 389.164 737.213 390.423 743.208 391.736ZM791.743 396.382C785.582 396.867 814.786 402.028 824.197 403.765C826.531 404.156 830.767 404.171 832.44 404.644C833.417 405.18 834.39 405.717 835.36 406.255C836.863 405.412 855.441 410.937 862.468 413.391C863.248 413.171 864.028 412.952 864.808 412.734C867.416 413.563 869.967 414.39 872.589 415.248C872.352 414.769 872.107 414.288 871.884 413.813C873.79 414.814 875.727 415.831 877.632 416.849C885.455 419.543 881.136 416.074 886.911 418.395C893.297 420.991 882.136 419.206 882.103 420.095C876.739 418.359 864.753 414.703 859.375 413.364C856.249 412.594 859.506 414.885 846.353 409.982C843.281 409.684 840.198 409.398 837.103 409.126C831.628 407.25 826.471 405.498 821.146 403.765C820.026 404.108 818.907 404.452 817.788 404.799C817.219 404.75 804.749 401.084 805.478 400.814C800.166 400.911 789.198 399.161 778.299 397.555C777.274 397.094 776.247 396.634 775.216 396.177C785.856 398.454 778.675 396.381 781.95 396.303C783.87 396.264 789.447 396.504 791.743 396.382ZM1601.21 605.92C1620.57 599.454 1608.42 603.709 1628.12 594.119C1627.12 595.452 1626.1 596.784 1625.06 598.115C1614.92 601.858 1598.82 609.016 1601.19 605.927C1601.2 605.925 1601.2 605.922 1601.21 605.92ZM1742.11 460.903C1738.26 471.174 1739.29 465.734 1733.95 478.543C1733.95 478.549 1733.95 478.555 1733.94 478.561C1736.59 471.886 1738.96 465.064 1741.04 458.249C1741.4 459.129 1741.76 460.014 1742.11 460.903ZM1171.54 542.602C1162.17 538.229 1164.3 538.639 1155.38 535.442C1143.61 527.833 1154.06 533.38 1154.68 532.224C1157.34 534.009 1160 535.791 1162.65 537.569C1170.1 539.97 1163.88 536.124 1163.93 536.02C1163.94 536.022 1163.94 536.025 1163.95 536.028C1164.13 535.681 1163.95 535.496 1166.7 536.621C1168.31 538.616 1169.87 540.581 1171.54 542.602ZM1132.95 521.191C1135.67 523.543 1136.56 525.243 1128.06 521.557C1128.06 521.554 1128.05 521.551 1128.05 521.548C1128.3 519.502 1119.64 516.873 1116.06 514.927C1115.2 514.262 1114.34 513.595 1113.49 512.929C1120.02 515.686 1126.5 518.443 1132.95 521.191ZM994.318 454.426C993.471 456.347 1000.51 459.431 989.734 457.131C987.797 456.307 985.853 455.487 983.902 454.67C982.792 453.733 981.65 452.787 980.577 451.871C954.644 445.988 949.538 436.888 990.407 455.521C990.412 455.525 990.418 455.529 990.423 455.533C991.72 455.162 993.019 454.793 994.318 454.426ZM1037.4 473.115C1037.24 474.258 1037.07 475.401 1036.91 476.544C1043.39 476.537 1049.14 481.962 1060.54 485.23C1061.34 485.981 1062.14 486.733 1062.94 487.484C1067.16 488.529 1105.6 507.114 1096.49 504.587C1092.54 503.467 1085.09 498.676 1084.39 498.363C1082.03 497.306 1078.56 496.687 1074.76 494.79C1072.55 493.686 1068.35 490.419 1063.75 488.243C1053.36 483.305 1033.51 477.463 1020.93 468.902C1019.8 468.774 1018.67 468.647 1017.54 468.521C1007.49 463.973 1011.36 464.473 1001.42 461.665C996.994 453.958 1039.23 478.239 1031.74 470.383C1031.74 470.385 1031.75 470.388 1031.76 470.39C1033.64 471.296 1035.53 472.204 1037.4 473.115ZM1318.9 605.979C1319.88 605.327 1332.36 610.907 1330.03 607.717C1334.01 609.817 1338.02 611.873 1342.06 613.881C1341.97 614.079 1341.88 614.277 1341.78 614.474C1337.58 613.083 1333.39 611.641 1329.22 610.15C1329.1 610.471 1328.98 610.791 1328.86 611.112C1322.82 608.098 1296.99 599.447 1297.35 600.756C1296.17 599.766 1294.99 598.772 1293.81 597.775C1281.03 594.365 1271.48 588.837 1257.9 584.409C1257.06 583.58 1256.26 582.768 1255.45 581.948C1254.66 581.975 1253.88 582.002 1253.09 582.027C1248.43 580.009 1243.77 577.952 1239.11 575.859C1224.61 567.663 1254.71 579.566 1258.17 581.176C1258.64 581.409 1258.2 582.187 1261.15 583.62C1266.36 586.308 1296.8 597.732 1306.26 601.542C1306.55 601.021 1306.84 600.499 1307.12 599.978C1311.03 602.017 1314.9 604.002 1318.9 605.979ZM938.006 435.648C937.16 435.964 936.315 436.282 935.471 436.6C924.33 432.193 916.826 430.375 920.39 429.521C920.396 429.523 920.402 429.525 920.408 429.527C926.338 431.524 932.203 433.566 938.006 435.648ZM36.4606 425.61C36.7669 425.306 38.6033 425.757 41.2402 426.616C43.6268 427.386 46.8769 428.593 50.6592 430.057C50.2194 430.163 49.7795 430.268 49.3395 430.371C45.6022 428.385 40.2343 428.272 27.453 422.258C27.6248 421.903 27.7965 421.547 27.9683 421.192C30.6896 422.72 33.5203 424.194 36.4606 425.61ZM947.829 438.817C951.597 439.419 960.629 444.92 954.172 442.671C949.233 440.957 945.817 438.492 947.829 438.817ZM1751.27 419.118C1750.89 421.91 1750.49 424.651 1750.05 427.415C1749.4 428.759 1748.73 430.097 1748.06 431.431C1748.06 431.425 1748.06 431.419 1748.06 431.412C1749.23 427.32 1750.28 423.273 1751.27 419.118ZM1203.34 558.589C1194.74 554.282 1186.42 550.044 1177.91 545.674C1177.98 545.339 1178.05 545.005 1178.12 544.67C1186.08 550.03 1190.09 550.572 1192.11 551.489C1192.1 551.484 1192.1 551.48 1192.09 551.476C1198.52 554.389 1204.79 557.261 1211.08 559.881C1208.5 559.458 1205.92 559.027 1203.34 558.589ZM1233.88 570.915C1231.39 572.322 1229.26 571.692 1216.8 563.892C1217.46 563.887 1218.11 563.882 1218.77 563.876C1225.53 567.315 1229.28 569.661 1228.62 568.005C1230.35 568.968 1232.13 569.95 1233.88 570.915ZM1100.83 505.469C1102.72 505.577 1114.54 512.315 1113.75 512.342C1113.33 512.282 1097.19 505.265 1100.83 505.469ZM-34.0626 338.538C-33.5877 341.92 -33.0003 345.137 -32.1868 348.64C-32.9632 343.923 -33.3581 339.678 -33.5642 335.138C-33.7455 336.268 -33.9118 337.401 -34.0626 338.538ZM-30.9553 302.233C-30.7512 299.971 -33.3752 307.08 -31.3411 293.625C-33.2209 303.09 -34.5182 313.84 -34.6103 323.796C-34.355 319.081 -33.8637 314.34 -33.162 309.576C-32.8714 310.45 -32.573 311.318 -32.2667 312.179C-31.9324 308.882 -31.4874 305.526 -30.9553 302.233ZM-30.0704 291.668C-30.4333 297.006 -23.808 269.725 -22.7615 267.428C-22.6184 266.87 -22.4645 264.03 -22.2835 263.01C-23.6327 267.044 -24.8796 271.065 -26.0154 275.07C-25.8593 273.67 -25.6889 272.265 -25.5046 270.855C-27.0048 275.566 -28.3332 280.118 -29.6041 285.15C-28.8824 283.112 -28.1016 280.962 -27.3483 279.036C-28.3615 283.16 -29.3011 287.484 -30.0704 291.668ZM0.365625 402.997C-2.48403 400.608 -5.72942 397.566 -8.46287 394.625C-7.61564 394.972 -6.76541 395.306 -5.91247 395.627C-4.24208 397.352 -2.37689 399.129 -0.650908 400.665C-0.326201 401.441 0.0126684 402.218 0.365625 402.997ZM-33.1584 332.79C-34.7534 338.464 -28.6713 352.55 -32.2549 335.681C-32.5561 333.962 -33.0119 332.267 -33.1584 332.79ZM-19.5988 257.39C-14.7337 247.782 -18.1827 249.044 -20.8895 258.938C-21.0254 259.456 -19.9554 258.112 -19.5988 257.39ZM15.1472 184.567C15.5799 183.818 15.5905 182.102 20.5286 175.359C21.1534 174.142 21.7826 172.927 22.4159 171.713C20.2907 174.185 6.4363 197.873 9.0924 195.004C11.1483 191.318 13.0073 188.314 15.1472 184.567ZM5.15959 209.198C3.29051 212.778 1.4021 216.505 -0.413247 220.212C-0.0653069 218.876 0.291328 217.538 0.656177 216.2C-0.315075 218 -1.27295 219.802 -2.21664 221.604C-3.2933 224.924 -4.31769 228.238 -5.28557 231.542C-1.62383 223.545 2.47975 215.286 6.57294 207.563C6.1009 208.108 5.62987 208.652 5.15959 209.198ZM-28.1829 313.417C-27.8861 305.056 -26.2164 295.683 -23.0967 282.76C-23.096 282.753 -23.0953 282.747 -23.0947 282.74C-22.9362 282.088 -23.0385 280.865 -22.532 278.903C-22.6562 277.152 -10.7557 244.228 -12.0247 246.728C-17.4513 258.96 -18.0482 264.204 -20.4719 266.883C-20.3794 267.607 -20.2832 268.328 -20.1831 269.047C-23.3956 281.529 -25.1894 285.065 -27.1245 292.264C-26.8853 292.281 -26.6461 292.299 -26.407 292.316C-27.3613 297.228 -28.083 301.721 -28.6794 306.942C-28.7528 306.211 -28.8211 305.478 -28.8842 304.742C-29.1194 306.537 -29.3253 308.325 -29.5006 310.106C-29.2211 314.523 -29.3205 319.906 -28.1829 313.417ZM13.639 192.651C16.705 189.984 34.6056 157.765 44.4577 144.109C38.7508 150.982 31.895 162.791 26.8965 171.059C17.3019 187.051 23.4331 175.722 21.5796 178.312C20.6421 179.599 16.2569 189.178 13.639 192.651ZM-27.4793 343.318C-29.0687 333.837 -28.7903 327.899 -29.2603 319.763C-29.4184 320.446 -29.5718 321.129 -29.7203 321.812C-30.2711 324.671 -27.3421 348.349 -27.4793 343.318ZM58.0958 123.606C48.2798 138.528 52.2177 130.576 47.7926 138.807C51.3113 133.735 54.8018 128.815 58.4154 123.814C58.3089 123.745 58.2024 123.675 58.0958 123.606ZM971.304 436.074C978.578 438.734 986.617 441.322 990.636 444.079C985.579 442.246 980.768 440.548 975.813 438.833C974.317 437.911 972.814 436.991 971.304 436.074ZM759.06 372.886C760.887 372.856 767.841 374.485 768.571 374.589C769.942 374.773 769.612 374.369 769.643 374.279C778.583 375.572 770.199 375.527 776.758 376.693C777.96 376.88 793.102 378.603 799.697 379.8C809.524 381.52 819.142 383.282 822.713 384.003C828.716 385.196 839.764 388.321 849.82 390.664C853.93 391.619 855.514 391.293 859.612 392.284C885.851 398.244 936.993 414.751 959.445 422.695C965.129 424.608 970.774 425.726 973.687 426.893C975.885 428.067 978.072 429.247 980.247 430.431C988.41 430.351 989.762 433.73 997.361 437.059C1002.16 439.173 1004.76 439.28 1005.41 439.546C1009.71 441.321 1011.65 442.586 1014.97 444.048C1018.7 445.692 1024.15 447.578 1025.53 448.249C1026.32 448.66 1023.26 448.562 1037.86 454.938C1052.58 461.411 1067.24 468.051 1082.02 475.048C1075.48 475.932 1072.35 471.706 1066.3 468.737C1064.67 467.941 1065.46 468.94 1064.04 468.253C1060.02 466.3 1052.56 462.265 1049.21 460.905C1045.56 459.422 1046.23 461.169 1041.87 458.687C1041.65 458.561 1042.62 458.392 1041.58 457.83C1031.17 452.233 1026.95 451.405 1013.34 445.712C1004.4 441.512 947.927 419.725 945.836 419.815C935.102 417.791 994.543 439.359 1001.52 442.571C1003.96 443.504 1001.66 441.923 1003.91 442.713C1004.86 443.05 1012.76 447.521 1020.81 451.067C1030.82 455.418 1050.79 463.479 1060.13 467.87C1140.27 504.816 1215.98 548.905 1299.28 581.251C1301.06 581.93 1303.15 583.499 1308.98 585.635C1337.23 595.957 1366.73 604.412 1397.01 609.458C1454.88 619.401 1514.63 615.191 1570.83 599.484C1598.83 591.792 1625.57 580.069 1648.86 563.718C1669.52 549.288 1687.69 531.565 1701.33 510.521C1703.45 508.174 1705.52 505.782 1707.52 503.347C1703.18 510.048 1695.33 522.425 1694.42 523.47C1694.13 523.841 1691.82 526.022 1688.71 529.747C1684.27 535.005 1682.44 537.497 1682.07 537.924C1680.85 539.219 1681.29 538.056 1680.12 539.286C1671.44 548.291 1663.89 554.671 1654.64 561.642C1644.02 569.458 1638.81 573.668 1629.9 577.566C1629.17 578.428 1628.43 579.29 1627.69 580.151C1621.49 582.322 1591.05 596.01 1571.28 600.923C1568.48 601.707 1565.97 602.386 1563.86 602.945C1558.5 604.346 1559.65 604.789 1557.85 605.236C1556.72 605.47 1556.83 604.646 1543.08 607.784C1536.25 609.287 1534.4 610.312 1530.78 610.945C1528.8 611.278 1528.98 610.544 1526.16 611.016C1509.99 613.658 1496.75 615.322 1480.66 616.285C1476.18 616.531 1476.17 617.101 1475.17 617.133C1471.57 617.227 1464.82 616.441 1455.35 616.285C1440.13 616.342 1409.81 613.304 1396.72 611.274C1396.49 611.243 1396.26 611.214 1396.05 611.185C1394.18 610.94 1392.52 611.367 1391.16 611.108C1389.1 610.713 1388.43 609.827 1388.07 609.755C1381.21 608.407 1385.2 609.896 1380.64 608.796C1378.19 608.188 1375.78 606.827 1370.09 605.407C1362.59 603.494 1363.83 604.798 1360.71 603.913C1360.39 603.811 1360.46 603.118 1357.39 602.29C1345.73 599.192 1329.14 593.878 1318.41 590.108C1315.34 589.042 1312.9 588.682 1308.62 587.134C1299.73 584.427 1252.07 563.926 1248.28 562.134C1247.86 561.971 1251.62 564.82 1244.94 561.73C1243.18 560.452 1241.42 559.168 1239.67 557.879C1236.1 556.973 1232.59 556.081 1229.09 555.176C1230.27 553.151 1211.61 543.74 1210.67 545.94C1208.56 545.018 1206.4 544.065 1204.35 543.159C1200.88 539.587 1197.78 538.746 1190.01 533.763C1188.49 533.573 1186.97 533.38 1185.44 533.186C1185.28 532.722 1185.11 532.259 1184.95 531.795C1179.65 531.202 1173.35 525.944 1172.51 525.507C1169.21 523.79 1166.48 522.932 1164.92 522.125C1159.12 519.133 1146.57 512.042 1139.71 508.912C1139.38 508.764 1139.33 509.616 1137.34 508.722C1133.76 507.109 1133.96 505.923 1128.63 504.753C1127.85 503.977 1127.05 503.2 1126.26 502.424C1125.17 502.072 1124.08 501.72 1122.99 501.368C1117 498.266 1111.25 495.303 1105.35 492.289C1110.12 496.125 1103.6 493.718 1098.19 489.903C1096.35 488.611 1098.49 488.763 1097.89 488.328C1097 487.659 1070.14 475.188 1068.09 474.861C1066.93 474.036 1065.77 473.211 1064.6 472.387C1063.73 472.538 1062.86 472.69 1061.99 472.842C1061.36 472.354 1060.74 471.866 1060.1 471.379C1052.59 468.827 1035.45 458.903 1031.94 457.578C1030.11 456.875 1030.86 459.512 1022.34 455.592C1022.28 454.927 1022.22 454.263 1022.16 453.598C1020.22 452.677 1018.35 451.785 1016.43 450.883C1012.76 449.384 1007 448.093 1006.56 448.66C1005.57 447.802 1004.58 446.945 1003.59 446.088C1000 446.044 983.42 438.898 977.148 435.64C975.046 435.274 972.94 434.912 970.829 434.556C968.37 433.107 965.894 431.664 963.402 430.228C957.266 427.838 963.516 430.983 962.172 430.567C959.337 429.65 945.554 423.338 945.96 425.321C944.043 424.664 942.121 424.01 940.191 423.361C939.362 422.561 938.528 421.762 937.692 420.964C933.807 421.457 928.284 418.941 916.026 415.769C915.138 415.087 914.204 414.394 913.351 413.727C909.553 413.14 905.738 412.57 901.906 412.018C901.335 411.183 900.76 410.348 900.183 409.514C898.603 408.96 897.017 408.408 895.427 407.86C891.756 408.3 886.242 405.168 883.034 404.918C878.356 404.561 881.57 406.444 889.674 408.902C888.775 409.654 864.59 402.74 859.065 401.426C859.483 401.319 859.9 401.213 860.318 401.106C866.035 402.664 871.519 404.222 877.289 405.911C882.748 404.643 867.075 401.234 860.023 399.222C859.374 399.036 855.913 397.163 848.576 395.578C845.774 394.956 834.209 393.903 832.191 393.58C815.305 390.803 828.085 391.247 811.147 389.833C814.861 389.139 805.115 388.434 794.971 386.486C793.072 386.093 779.145 382.805 778.108 382.653C772.059 381.6 778.528 383.728 769.751 382.18C768.729 381.721 767.703 381.264 766.674 380.808C764.606 380.531 762.532 380.26 760.45 379.995C747.469 381.187 744.71 378.87 740.393 378.135C738.629 377.844 740.851 378.802 736.259 378.177C734.527 377.945 732.655 377.145 727.943 376.665C713.205 375.217 707.646 377.39 694.224 373.911C692.151 374.179 690.075 374.452 687.994 374.731C686.613 374.198 685.227 373.667 683.836 373.14C673.04 374.001 676.947 372.814 673.034 372.677C662.683 372.279 641.146 372.284 639.565 373.408C630.742 370.859 620.13 373.813 616.593 373.781C614.478 373.515 612.354 373.255 610.223 373.003C607.749 373.364 605.268 373.732 602.78 374.108C603.811 371.629 591.124 374.457 590.047 374.553C588.713 374.608 569.358 374.835 561.984 375.38C554.702 375.849 541.826 377.517 540.697 377.624C539.464 377.718 527.373 378.098 517.785 379.094C509.382 379.688 459.551 387.039 462.736 385.721C465.898 384.977 470.409 384.093 474.3 383.432C486.645 380.819 559.924 372.953 578.837 372.433C616.278 370.134 656.284 370.121 693.878 372.031C696.068 372.142 696.427 371.514 698.301 371.612C701.227 371.763 708.76 372.922 711.638 373.131C722.485 373.864 735.376 374.998 740.981 375.586C753.564 376.888 762.789 377.665 772.334 378.921C775.479 379.32 789.984 382.27 800.827 383.811C802.765 383.954 804.698 384.102 806.625 384.255C801.265 383.048 787.113 380.154 780.741 379.175C771.089 377.657 765.876 377.537 762.248 377.057C759.247 376.633 743.504 374.168 736.713 373.513C734.549 373.293 734.047 373.933 732.19 373.753C722.125 372.757 708.6 371.695 699.552 370.487C703.051 370.879 680.927 370.087 679.679 370.094C677.662 370.011 675.484 369.288 671.328 369.148C663.311 368.903 664.35 370.231 654.212 368.722C651.721 369.064 649.093 369.412 646.76 369.771C646.675 367.935 615.969 370.366 606.736 368.647C606.685 368.244 646.942 367.16 650.141 367.359C670.949 367.334 699.586 369.104 719.638 370.502C725.564 370.841 743.813 371.554 745.135 371.755C747.321 372.024 745.284 372.429 746.226 372.555C766.23 375.317 756.35 372.944 759.06 372.886ZM-24.4925 292.779C-25.5948 298.613 -26.4291 304.321 -26.9709 310.474C-26.6629 310.064 -26.3534 309.656 -26.0426 309.249C-25.8664 306.513 -25.5899 303.59 -25.3008 301.03C-24.8349 299.033 -24.3341 297.032 -23.7999 295.026C-24.036 294.281 -24.2669 293.532 -24.4925 292.779ZM-20.0887 278.752C-18.6482 273.946 -19.0607 273.552 -18.7635 272.422C-17.8446 269.041 -16.709 266.188 -15.6163 262.903C-18.1423 266.301 -20.0502 274.532 -20.0887 278.752ZM-8.05752 382.679C-8.76527 381.878 -15.2336 375.795 -17.7691 366.743C-21.0597 360.585 -23.5381 354.231 -25.3831 347.471C-22.7196 358.964 -16.1782 374.004 -12.5662 378.889C-11.3 380.775 -10.6693 380.858 -9.63419 382.271C-3.77555 390.403 3.73155 398.138 5.3349 397.461C-2.45053 391.558 -7.14835 383.78 -8.05752 382.679ZM-26.687 326.58C-27.0273 324.969 -27.3352 323.419 -27.6175 321.897C-27.722 327.434 -27.4576 333.393 -26.7701 338.96C-26.6406 337.411 -26.4801 335.864 -26.2902 334.32C-26.5041 331.765 -26.635 329.185 -26.687 326.58ZM356.789 404.531C356.508 404.592 356.228 404.653 355.947 404.714C352.645 405.434 349.369 406.139 346.119 406.829C346.24 406.511 350.299 405.652 351.759 405.139C351.752 405.14 351.745 405.142 351.739 405.143C353.362 404.57 352.547 404.368 355.568 403.545C355.599 403.57 355.631 403.595 355.663 403.619C356.039 403.923 356.414 404.227 356.789 404.531ZM1708.51 499.168C1712.83 494.855 1732.51 446.401 1731.14 450.614C1731.09 452.939 1724.57 469.708 1722.3 474.482C1719.7 481.123 1711.66 498.858 1708.51 499.168ZM1739.33 412.481C1740.77 411.843 1733.75 443.689 1732.18 446.592C1732.24 445.899 1732.23 444.806 1732.41 443.92C1733.5 439.652 1738.53 419.507 1739.33 412.481ZM547.382 372.697C544.719 373.479 541.921 374.279 539.372 375.067C539.974 374.272 540.574 373.479 541.231 372.68C543.287 372.68 545.338 372.685 547.382 372.697ZM808.715 385.006C852.883 392.925 896.758 404.26 939.522 418.588C935.892 417.01 932.233 415.448 928.544 413.903C891.606 402.069 850.991 392.143 814.407 384.86C812.512 384.904 810.615 384.952 808.715 385.006ZM2.59728 390.931C10.775 398.813 19.8851 405.331 30.9549 409.951C21.0738 404.361 14.2586 401.25 6.38695 393.294C6.38223 393.29 6.37752 393.285 6.3728 393.281C5.18937 392.612 3.83114 391.742 2.59728 390.931ZM253.658 420.827C250.173 420.87 246.73 420.894 243.33 420.899C247.328 420.355 251.38 419.781 255.487 419.177C254.877 419.728 254.267 420.278 253.658 420.827ZM1176.31 520.886C1186.56 527.549 1215.28 539.209 1223.54 544.862C1224.07 545.228 1218.49 543.283 1226.44 548.522C1220.12 545.204 1215.67 542.732 1215.65 541.604C1213.58 540.972 1211.5 540.335 1209.42 539.692C1206.36 537.901 1203.38 536.142 1200.35 534.351C1200.23 535.405 1200.01 535.241 1195.49 532.226C1193.17 531.35 1190.84 530.469 1188.51 529.584C1187.77 528.739 1187.03 527.894 1186.29 527.049C1184.1 526.608 1181.89 526.164 1179.69 525.716C1172.6 521.421 1177.64 522.681 1176.31 520.886ZM1138.44 502.008C1140.2 502.631 1190.02 528.657 1166.33 518.902C1160.46 515.859 1154.53 512.778 1148.62 509.715C1155.02 509.268 1137.66 503.785 1136.28 503.172C1129.82 500.275 1121.98 495.472 1117.39 493.237C1113.45 491.316 1110.83 490.676 1108.06 489.29C1098.63 484.556 1083.41 477.191 1082.02 475.048C1089.34 478.511 1097.07 482.245 1104.72 486.043C1112.83 490.076 1120.49 492.433 1134.97 501.685C1138.82 503.411 1137.96 501.829 1138.44 502.008ZM233.188 422.332C233.666 423.38 211.6 425.649 211.553 425.184C211.465 424.96 218.493 424.222 219.512 424.01C219.519 424.009 219.526 424.008 219.532 424.008C219.951 423.92 217.743 423.772 221.074 423.287C225.051 423 229.089 422.682 233.188 422.332ZM1652.12 558.109C1653.06 557.001 1666.6 546.756 1677.99 534.59C1689.59 522.594 1698.9 508.936 1699.56 508.219C1699.92 507.84 1699.76 508.592 1700.02 508.514C1691.09 520.462 1677.77 537.395 1667.02 546.868C1664.02 549.563 1664.56 548.394 1664.39 548.54C1664.38 548.547 1664.38 548.553 1664.37 548.559C1662.62 550.154 1655.58 557.447 1652.12 558.109ZM1242.4 554.486C1239.74 553.488 1237.04 552.463 1234.44 551.473C1233.99 550.788 1233.54 550.104 1233.09 549.419C1233.09 549.421 1233.1 549.424 1233.1 549.427C1236.16 551.107 1239.27 552.798 1242.4 554.486ZM1333.61 589.438C1332.86 589.515 1332.11 589.59 1331.36 589.664C1324.55 587.504 1317.84 585.237 1311.15 582.852C1311.76 583.256 1312.38 583.658 1312.99 584.059C1302.73 580.827 1298.93 578.183 1293.53 576.232C1293.54 576.235 1293.54 576.237 1293.55 576.24C1292.97 576.031 1292.04 576.34 1289.92 575.513C1285.05 573.661 1271.04 568.021 1269.62 566.69C1266.65 564.042 1294.21 576.287 1299.63 578.125C1302.03 579.02 1305.11 579.593 1306.57 580.122C1308.17 580.702 1310.08 582.204 1313.98 583.579C1315.11 584.007 1328.09 587.59 1333.61 589.438ZM1456.64 611.557C1454.44 612.209 1449.88 611.432 1448.21 611.474C1447.81 611.485 1450.91 612.166 1447.13 612.196C1446.07 611.767 1445.02 611.334 1443.97 610.897C1448.17 611.187 1452.39 611.408 1456.64 611.557ZM196.886 425.696C197.425 425.562 208.66 424.562 209.259 424.552C216.144 424.827 192.762 426.914 196.886 425.696ZM-20.5543 310.004C-21.8354 314.64 -9.47803 256.127 -5.61955 251.265C-6.42418 251.323 -10.5195 264.816 -8.9195 257.567C-11.0641 264.491 -16.7306 283.139 -17.4504 288.003C-17.9817 290.82 -17.5215 291.637 -17.5912 292.06C-18.0085 293.743 -20.9181 307.968 -20.5543 310.004ZM14.584 205.839C12.0338 210.981 9.63405 216.026 7.2257 221.334C10.2705 215.148 13.294 209.333 16.5331 203.356C15.8814 204.183 15.2316 205.01 14.584 205.839ZM18.2188 199.595C18.6274 199.969 27.6477 182.81 30.4495 178.504C26.6218 183.007 22.7103 191.698 18.2188 199.595ZM120.547 425.63C129.855 425.515 133.994 427.965 122.508 426.535C122.16 426.487 120.159 425.639 120.547 425.63ZM1181.06 518.051C1182.47 518.752 1200.75 526.702 1201.49 527.648C1203.93 530.763 1192.67 524.399 1188.45 522.992C1181.68 520.756 1190.42 526.12 1175.5 517.898C1175.96 518.511 1176.42 519.125 1176.88 519.738C1167.94 515.349 1171.96 514.735 1170.5 513.662C1170.06 513.335 1164.38 510.683 1163.43 510.036C1151.69 501.976 1179.82 517.454 1181.06 518.051ZM348.683 399.124C350.808 398.569 352.601 398.109 354.134 397.726C365.756 394.839 361.69 396.623 378.329 393.114C378.928 393.456 363.141 396.602 354.271 398.256C351.411 398.784 349.305 399.119 348.683 399.124ZM1017.19 441.194C1034.77 448.881 1049.69 454.48 1065.43 463.188C1063.53 464.213 1012.42 439.479 1017.19 441.194ZM1738.03 371.432C1736.66 441.758 1703.17 526.419 1634.45 565.538C1627.14 569.932 1626.84 570.826 1624.15 572.225C1622.37 573.117 1622.37 572.433 1620.01 573.649C1603.54 582.077 1586.77 588.271 1568.8 593.101C1512.38 608.382 1454.59 611.572 1398.25 601.832C1379.2 598.613 1360.33 594.046 1341.83 588.51C1336.1 587.007 1308.29 578.895 1303.32 574.561C1299.54 571.456 1318.51 579.867 1321.77 580.883C1324.22 581.716 1324.57 581.04 1326.21 581.594C1327.96 582.179 1326.35 582.18 1328.37 582.864C1336.95 585.767 1346.4 588.43 1354.22 590.633C1368.88 594.771 1383.6 598.168 1398.43 600.716C1455.44 610.704 1512.85 606.822 1568.34 591.62C1574.62 589.916 1580.68 588.051 1586.54 586.034C1595.33 582.937 1593.4 582.927 1593.82 582.795C1593.82 582.794 1593.83 582.793 1593.84 582.792C1641.27 566.057 1688.24 528.105 1710.31 480.551C1726.46 447.533 1734.52 411.235 1737.47 374.568C1737.66 373.521 1737.85 372.476 1738.03 371.432ZM1143.53 501.445C1148.89 501.635 1148.71 504.077 1164.71 511.148C1165.79 512.124 1166.87 513.1 1167.95 514.074C1159.83 509.875 1151.53 505.576 1143.5 501.432C1143.51 501.436 1143.52 501.44 1143.53 501.445ZM1246.49 551.381C1250.47 549.981 1284.8 567.689 1301.33 573.149C1303.66 575.773 1280.51 565.846 1274.95 563.523C1272.1 562.421 1256.91 557.539 1246.21 551.592C1246.3 551.522 1246.4 551.452 1246.49 551.381ZM-7.01738 369.871C-5.74341 372.187 -4.30233 374.504 -2.80387 376.658C-6.92493 371.378 -10.3441 365.531 -12.9669 359.395C-8.96945 369.297 -2.97382 378.298 4.7465 385.888C3.62127 384.163 2.58955 382.428 1.64634 380.687C-1.53804 377.376 -4.43235 373.784 -7.01738 369.871ZM16.0996 395.309C1.71882 383.65 15.6927 396.753 20.5255 398.871C23.1733 400.209 17.5925 396.484 16.0996 395.309ZM61.7576 414.775C57.3779 413.268 51.1799 411.179 46.8981 409.71C42.002 408.031 39.1523 407.17 41.9567 409.109C51.8894 412.108 56.272 414.257 71.2803 417.197C69.1689 416.454 67.1129 415.691 65.1122 414.91C65.1027 414.907 65.093 414.905 65.0835 414.903C63.9665 414.867 62.858 414.825 61.7576 414.775ZM10.0731 389.417C5.21535 385.537 9.35148 389.781 13.972 393.275C18.6625 396.861 24.323 400.002 19.5843 396.654C18.9838 396.411 10.2819 389.77 10.0731 389.417ZM1721.34 447.492C1722.37 446.296 1719.32 455.098 1718.18 458.001C1713.57 470.675 1705.72 486.131 1698.24 497.947C1698.62 496.954 1699 495.962 1699.37 494.968C1708.5 480.062 1715.75 464.063 1721.34 447.492ZM1671 532.222C1664.26 539.01 1656.83 545.466 1649.13 551.232C1648.41 551.784 1644.59 553.848 1647.07 551.872C1655.54 545.966 1663.62 539.33 1671 532.222ZM1087.46 468.968C1094.71 471.978 1075.25 460.447 1075.15 462.86C1079.28 464.89 1083.38 466.927 1087.46 468.968ZM1020.9 438.012C1025.32 440.094 1029.82 442.24 1034.32 444.417C1034.44 444.191 1034.55 443.965 1034.66 443.74C1030.04 441.787 1025.43 439.867 1020.9 438.012ZM1730.67 410.824C1730.38 415.807 1727.69 427.184 1725.66 434.225C1726.52 429.228 1729.64 417.718 1730.67 410.824ZM1193.27 520.682C1192.48 520.989 1220.29 534.572 1211.17 528.897C1205.24 526.2 1199.27 523.459 1193.27 520.682ZM1250.53 547.383C1244.52 544.474 1239.72 542.435 1240.56 543.869C1243.78 545.337 1247.04 546.809 1250.27 548.25C1250.36 547.961 1250.44 547.672 1250.53 547.383ZM95.8963 419.73C108.361 421.184 117.244 421.746 129.104 422.142C128.681 421.95 128.26 421.757 127.84 421.564C116.509 421.157 107.874 420.597 95.9134 419.2C95.9077 419.376 95.9019 419.553 95.8963 419.73ZM1730.15 404.639C1731.58 397.51 1732.77 390.324 1733.75 383.073C1733 390.357 1732.05 397.589 1730.87 404.783C1730.63 404.741 1730.38 404.699 1730.14 404.657C1730.14 404.651 1730.14 404.645 1730.15 404.639ZM-13.1607 341.455C-4.80471 371.258 -14.6898 333.502 -14.2275 324.613C-14.2267 324.604 -14.2259 324.595 -14.2251 324.586C-14.3322 323.859 -14.7902 325.388 -14.9959 324.181C-14.752 327.457 -14.3711 330.717 -13.851 333.856C-13.8428 336.754 -13.7195 339.614 -13.4741 342.435C-13.194 343.367 -12.8963 344.309 -12.5864 345.23C-12.8043 343.978 -13.0066 342.653 -13.1607 341.455ZM16.1229 217.314C29.4568 190.971 14.4854 217.174 9.29872 231.131C9.47111 231.133 14.8997 219.718 16.1229 217.314ZM-10.6076 289.43C-11.6961 293.954 -12.6113 298.418 -13.3399 302.811C-13.2875 303.394 -13.2316 303.976 -13.1722 304.554C-12.6014 301.212 -11.9208 297.829 -11.1363 294.41C-10.9847 292.762 -10.8084 291.102 -10.6076 289.43ZM50.2059 405.239C56.8503 407.112 65.6376 412.104 43.1061 403.702C43.1843 403.55 43.2625 403.397 43.3407 403.245C44.2323 403.638 46.9333 404.823 47.1001 404.864C47.3271 404.924 47.3626 404.774 47.7328 404.741C48.0904 404.703 48.8683 404.818 50.2059 405.239ZM45.7899 170.902C46.282 170.208 47.7077 170.51 51.0606 162.278C52.5374 160.065 54.0233 157.86 55.5165 155.666C55.6188 154.928 55.7258 154.186 55.838 153.439C50.5219 162.255 49.4557 162.885 49.0405 163.509C47.1917 166.395 48.8013 164.401 47.6492 166.288C44.6494 171.146 37.903 182.225 41.7026 177.62C43.063 175.961 45.3048 171.6 45.7899 170.902ZM36.4006 188.676C36.9008 187.534 34.5662 190.821 34.9179 189.944C35.1933 189.169 40.9845 178.216 38.6891 180.773C37.6921 182.55 36.7041 184.331 35.7258 186.114C35.5591 186.808 35.394 187.503 35.2309 188.197C34.1048 189.823 32.9861 191.451 31.875 193.082C30.7051 196.211 27.9649 202.672 32.2792 195.542C30.7826 198.199 29.2819 200.91 27.8116 203.618C26.8561 204.921 25.906 206.226 24.9616 207.533C25.6721 206.956 26.3831 206.38 27.0945 205.805C30.1153 200.018 33.2072 194.339 36.4006 188.676ZM88.267 108.027C87.9094 108.245 87.5513 108.462 87.1929 108.681C94.1077 99.5297 104.901 85.382 97.9522 92.9944C88.7689 105.158 79.5878 117.808 70.7852 130.561C70.3077 131.488 69.831 132.417 69.3556 133.348C75.5079 123.452 75.2165 127.549 80.4223 119.032C81.3068 117.609 77.8963 121.173 84.3604 112.841C84.2746 113.246 84.1784 113.667 84.1059 114.055C85.4809 112.047 86.8826 110.018 88.267 108.027ZM148.883 30.4399C136.141 45.8225 150.861 29.1613 152.695 26.4274C152.692 26.4317 152.688 26.4362 152.684 26.4406C155.16 22.6848 153.461 24.4286 150.785 27.532C148.101 30.6415 144.126 35.5476 143.918 35.7993C142.89 37.0214 139.657 39.4833 134.469 47.7563C139.474 41.6442 143.611 36.6424 148.883 30.4399ZM108.736 80.479C109.738 79.2211 109.008 79.7894 109.433 79.2418C109.436 79.2371 109.44 79.2322 109.444 79.2275C115.914 70.7733 131.747 51.3446 132.817 49.0017C127.828 54.7853 105.985 82.3504 105.414 84.157C106.528 82.9186 107.636 81.6924 108.736 80.479ZM65.4079 139.972C62.3668 145.546 70.2593 133.749 72.2879 130.386C72.6519 129.764 68.5642 134.2 65.4079 139.972ZM217.612 407.058C232.562 405.687 213.074 408.602 219.95 408.516C217.1 408.801 214.282 409.069 211.496 409.321C213.521 408.578 215.56 407.823 217.612 407.058ZM891.678 377.503C895.16 378.312 893.367 378.444 893.665 378.532C895.931 379.122 898.184 379.239 899.034 379.525C914.657 384.876 903.948 382.41 903.766 382.473C903.271 382.94 907.237 384.758 901.292 383.787C897.848 382.614 894.38 381.457 890.887 380.316C889.042 380.16 887.193 380.009 885.34 379.861C878.423 377.361 887.759 379.57 889.041 378.965C889.543 378.723 882.988 376.555 891.678 377.503ZM243.164 402.022C245.527 402.496 251.255 402.669 245.964 404.306C245.958 404.307 245.952 404.308 245.946 404.308C244.965 404.61 240.926 405.29 239.731 405.673C230.807 405.837 233.922 404.303 243.164 402.022ZM828.268 361.189C822.484 360.324 816.652 359.504 810.769 358.731C810.766 359.342 810.764 359.952 810.761 360.563C813.907 360.941 817.04 361.332 820.159 361.737C821.193 362.206 822.224 362.676 823.251 363.148C819.306 363.112 815.346 363.097 811.372 363.102C806.766 362.056 802.12 361.04 797.435 360.056C799.654 360.087 801.869 360.124 804.078 360.168C792.589 357.951 794.95 359.813 785.598 358.984C782.503 357.973 779.385 356.977 776.245 355.996C771.523 355.922 766.776 355.877 762.003 355.863C754.106 354.669 753.425 354.188 758.859 354.17C755.026 352.999 750.355 353.625 745.85 352.87C745.471 352.808 746.253 352.206 745.917 352.164C721.974 349.38 722.921 351.459 719.061 351.192C716.32 351.02 705.266 349.105 705.092 348.703C704.986 348.187 727.988 347.278 692.111 345.26C710.531 344.571 731.982 347.902 718.067 349.02C724.103 349.144 749.376 352.058 751.109 352.258C753.56 352.423 752.792 351.494 755.846 351.812C757.641 352.015 762.251 354.396 776.43 354.58C778.172 355.133 779.907 355.691 781.635 356.253C783.33 356.228 785.023 356.207 786.712 356.189C783.441 354.773 780.14 353.375 776.808 351.993C790.26 354.812 801.83 354.738 810.033 357.765C817.298 358.82 820.794 359.289 817.86 357.92C820.02 358.306 822.171 358.698 824.315 359.097C825.638 359.792 826.956 360.489 828.268 361.189ZM285.836 396.059C292.545 394.018 294.918 395.262 294.006 395.539C288.692 397.092 282.139 397.148 285.836 396.059ZM878.632 375.263C870.888 373.867 863.059 372.548 855.142 371.313C855.285 370.686 855.428 370.059 855.571 369.432C863.363 371.295 871.049 373.241 878.632 375.263ZM215.3 406.182C214.645 406.645 213.992 407.107 213.34 407.568C204.753 407.177 197.034 409.937 193.069 409.885C192.211 409.875 193.848 409.057 195.463 408.758C196.366 408.628 213.682 406.292 215.3 406.182ZM0.350138 274.179C-0.658679 276.909 -1.61245 279.622 -2.50831 282.315C-2.13248 282.252 -1.7568 282.19 -1.38121 282.128C-0.975215 280.792 -0.55472 279.45 -0.12026 278.104C0.0228763 276.803 0.179681 275.495 0.350138 274.179ZM-6.90258 305.706C-7.50308 310.819 -7.83514 315.857 -7.87132 320.686C-6.59444 301.893 -7.42763 317.438 -5.87437 305.854C-6.2171 305.805 -6.55984 305.756 -6.90258 305.706ZM-2.00212 353.851C-1.98781 353.262 -1.9665 352.674 -1.93845 352.087C-3.4323 347.852 -4.59226 343.141 -5.32307 338.632C-4.10751 341.364 -2.71016 344.221 -1.20041 346.776C-0.755721 348.363 -0.263977 349.915 0.274999 351.433C-0.495189 352.221 -1.25453 353.027 -2.00212 353.851ZM1040.09 426.726C1043.36 428.085 1054.03 433.874 1053.38 434.009C1048.6 432.4 1043.79 430.803 1038.94 429.223C1039.19 428.606 1039.44 427.989 1039.7 427.372C1038.9 427.392 1038.1 427.412 1037.31 427.432C1034.73 426.063 1032.22 424.729 1029.71 423.406C1028.15 423.386 1026.6 423.367 1025.04 423.351C1023.98 422.19 1022.91 421.03 1021.83 419.871C1035.04 424.054 1034.05 424.975 1036.75 426.099C1038.11 426.672 1039.14 426.662 1039.71 426.679C1039.83 426.694 1039.96 426.71 1040.09 426.726ZM874.355 369.964C890.338 373.711 899.52 378.011 911.361 379.891C903.165 380.393 855.731 365.076 837.565 364.368C835.904 363.54 834.234 362.715 832.557 361.896C841.619 364.11 848.631 364.604 853.222 365.461C856.904 366.155 856.405 366.569 856.686 366.624C856.699 366.626 856.712 366.629 856.725 366.632C865.287 368.345 867.999 368.494 874.355 369.964ZM203.336 405.657C207.4 404.623 214.88 403.791 215.103 404.654C210.949 405.414 206.861 406.135 202.84 406.818C203.644 406.506 202.638 405.835 203.336 405.657ZM2.03632 357.939C3.31555 360.284 6.33537 365.697 4.36749 363.694C3.95521 363.361 1.48039 357.591 2.09126 361.357C-0.672498 355.797 1.30612 356.614 2.03632 357.939ZM592.377 346.397C589.543 346.499 586.699 346.612 583.844 346.736C583.149 346.351 582.452 345.968 581.754 345.586C585.316 345.838 588.857 346.108 592.377 346.397ZM167.89 408.024C164.258 409.935 157.852 408.612 151.302 410.184C148.854 410.265 146.441 410.329 144.061 410.376C144.055 410.376 144.049 410.376 144.044 410.376C143.967 409.921 143.891 409.466 143.816 409.011C151.483 408.863 159.505 408.537 167.89 408.024ZM774.543 352.53C772.717 352.567 770.888 352.609 769.056 352.655C765.892 351.934 762.707 351.227 759.504 350.536C761.281 350.51 763.055 350.489 764.825 350.472C768.084 351.143 771.323 351.829 774.543 352.53ZM123.449 408.645C132.328 408.654 135.782 410.139 124.279 409.899C119.513 409.752 114.338 408.532 123.449 408.645ZM1199.53 504.235C1196.64 502.985 1193.7 501.706 1190.82 500.459C1190.08 499.608 1189.33 498.757 1188.58 497.905C1192.16 499.985 1195.88 502.129 1199.53 504.235ZM-5.28611 323.431C-5.55264 323.73 -5.81824 324.031 -6.08284 324.333C-5.98415 326.773 -5.80424 329.219 -5.54302 331.577C-5.32504 330.97 -5.10214 330.364 -4.87441 329.758C-5.07406 327.694 -5.21054 325.453 -5.28611 323.431ZM1180.54 495.004C1178.26 493.949 1175.98 492.888 1173.68 491.825C1172.27 490.879 1170.85 489.933 1169.42 488.984C1171.64 489.87 1173.85 490.753 1176.05 491.632C1177.55 492.758 1179.05 493.882 1180.54 495.004ZM44.7483 395.021C47.8369 396.023 59.5129 401.06 48.5777 397.567C41.5088 395.048 44.3327 394.879 44.7483 395.021ZM30.4664 387.636C40.9204 392.453 30.7603 391.752 21.4895 382.16C31.9517 390.057 30.0502 387.257 30.4664 387.636ZM-2.03048 304.658C-1.99232 304.371 -2.41526 304.076 -2.0981 301.766C-1.00103 293.407 1.54655 282.012 3.26146 276.032C6.38184 261.238 26.2739 217.737 28.204 212.504C28.5105 211.352 26.6556 213.437 26.8351 212.996C27.3471 211.701 31.3495 204.674 30.1989 205.763C26.5264 212.854 23.1392 219.75 19.7942 227.016C20.9546 225.412 22.1371 223.787 23.3066 222.209C14.8465 240.007 17.735 234.084 14.6926 238.883C13.7194 242.023 12.8054 245.132 11.8872 248.379C8.92762 255.016 6.28122 261.413 3.80588 268.079C4.54714 266.586 5.28349 265.149 6.01981 263.746C3.17369 274.021 3.81133 271.181 1.59246 276.562C1.83603 276.645 2.07966 276.728 2.32319 276.811C-0.938728 286.382 -0.426658 288.446 -0.923748 290.663C-1.68998 295.183 -6.53716 300.016 -4.3993 317.321C-6.10538 324.138 -2.91209 323.905 -4.33194 328.005C-1.75601 339.313 -4.34478 318.071 -2.56794 306.963C-2.56728 306.957 -2.56656 306.951 -2.56593 306.945C-2.47316 306.127 -2.35251 307.437 -2.03048 304.658ZM4.06446 361.092C3.24998 357.957 5.65078 362.044 8.10255 365.704C10.5329 369.385 12.8912 372.764 9.41453 370.167C8.59595 369.229 7.80888 368.276 7.02219 367.254C5.91229 365.233 4.92798 363.177 4.05728 361.079C4.05967 361.084 4.06208 361.088 4.06446 361.092ZM272.022 393.501C302.858 388.566 285.535 392.787 274.977 393.714C272.885 393.895 271.719 393.834 272.022 393.501ZM897.919 374.345C898.296 374.709 898.673 375.073 899.049 375.437C888.787 372.336 868.935 368.503 869.596 366.952C878.965 369.243 888.414 371.707 897.919 374.345ZM816.755 355.121C819.023 355.405 828.137 356.847 826.92 357.265C822.92 356.967 818.901 356.689 814.863 356.433C813.067 355.837 811.263 355.245 809.452 354.658C812.063 355.001 816.145 355.038 816.755 355.121Z" fill="url(#paint0_linear_1506_2132)" fill-opacity="0.75"/>
<defs>
<linearGradient id="paint0_linear_1506_2132" x1="1313.5" y1="94.0475" x2="1586.49" y2="554.269" gradientUnits="userSpaceOnUse">
<stop stop-color="#EBE0C2"/>
<stop offset="1" stop-color="#CAB08F" stop-opacity="0.2"/>
</linearGradient>
</defs>
</svg>
